<svg xmlns="http://www.w3.org/2000/svg" xmlns:xlink="http://www.w3.org/1999/xlink" width="342.459" height="342" viewBox="0 0 342.459 342">
  <defs>
    <clipPath id="clip-path">
      <rect id="Rectángulo_415862" data-name="Rectángulo 415862" width="296.029" height="128.388" fill="none"/>
    </clipPath>
    <clipPath id="clip-path-2">
      <path id="Trazado_901049" data-name="Trazado 901049" d="M102.038,76.8a2.927,2.927,0,0,1,.567,1.011c1.016-.829,3.237-3.2,4.473-4.336,1.858-1.95,3.4-3.489,5.4-5.269,1.228-1.1,5.836-4.585,6.521-5.552C114.13,64.408,105.91,73.26,102.038,76.8" transform="translate(-102.038 -62.655)" fill="none"/>
    </clipPath>
    <linearGradient id="linear-gradient" x1="-6.431" y1="1.825" x2="-6.366" y2="1.825" gradientUnits="objectBoundingBox">
      <stop offset="0" stop-color="#635c65"/>
      <stop offset="1" stop-color="#767875"/>
    </linearGradient>
    <clipPath id="clip-path-4">
      <path id="Trazado_901064" data-name="Trazado 901064" d="M145.768,70.963l-.211.156c-.65.471-3.309,1.793-3.661,2.118A110.656,110.656,0,0,0,132.488,83l.317.287a2.784,2.784,0,0,1,1.615.217,1.1,1.1,0,0,1,.415.867l-.145.454c2.439-1.71,5.9-5.293,8.164-7.4.837-.778,1.884-2.278,2.731-2.952a45.818,45.818,0,0,0,3.438-4.889l-.317-.332a32.909,32.909,0,0,1-2.938,1.715" transform="translate(-132.488 -69.248)" fill="none"/>
    </clipPath>
    <linearGradient id="linear-gradient-2" x1="-9.826" y1="1.56" x2="-9.751" y2="1.56" gradientUnits="objectBoundingBox">
      <stop offset="0" stop-color="#c3c2c7"/>
      <stop offset="1" stop-color="#f1f0ed"/>
    </linearGradient>
    <clipPath id="clip-path-6">
      <path id="Trazado_901067" data-name="Trazado 901067" d="M117.42,62.877c-.685.968-5.293,4.455-6.521,5.552-2,1.779-3.539,3.319-5.4,5.269,1.021.959,1.743.947,2.241,1.669l1.64-1.455a28.911,28.911,0,0,0,4.465-3.857c.351-.457,1.062-1.213,1.471-1.688.713-.953,2.261-2.51,3.111-3.41.457-.533,2.436-2.22,3.064-2.788a8.769,8.769,0,0,0-4.074.709" transform="translate(-105.502 -62.168)" fill="none"/>
    </clipPath>
    <linearGradient id="linear-gradient-3" x1="-7.327" y1="2.02" x2="-7.256" y2="2.02" gradientUnits="objectBoundingBox">
      <stop offset="0" stop-color="#aaacae"/>
      <stop offset="1" stop-color="#dcdcdd"/>
    </linearGradient>
    <clipPath id="clip-path-8">
      <path id="Trazado_901122" data-name="Trazado 901122" d="M189.6,76.99c-.979-.194-.86-.329-1.16-1.163-2.823.407-7.758,4.863-9.491,7.179-.119.159-.237.319-.354.479a3.045,3.045,0,0,0,.809.282,12.214,12.214,0,0,0,4.062-.653l.525.56c.348-.051.227.02.4-.125l3.3-.291c3.47-4.1,7.508-7.537,11.174-11.523l-1.03-.308A25.591,25.591,0,0,0,189.6,76.99" transform="translate(-178.594 -71.426)" fill="none"/>
    </clipPath>
    <linearGradient id="linear-gradient-4" x1="-13.009" y1="1.274" x2="-12.936" y2="1.274" gradientUnits="objectBoundingBox">
      <stop offset="0" stop-color="#c8c7c8"/>
      <stop offset="1" stop-color="#f8f4f7"/>
    </linearGradient>
    <clipPath id="clip-path-10">
      <path id="Trazado_901131" data-name="Trazado 901131" d="M134.064,76.736c-.786-.419-1.117-.771-1.851-.589a6.92,6.92,0,0,0-.762,1.042c-1.464-.038-3.2-.195-2.977,2.015a3.034,3.034,0,0,0,.367,1.494c-.863.816-2.455,2.053-2.316,3.287a16.5,16.5,0,0,0,4.279.092l.124-.2-.607-.343c.151-.781,4.6-4.123,5.546-5.059a25.7,25.7,0,0,0,3.882-4.835c-1.886.982-3.808,2.078-5.685,3.1" transform="translate(-126.516 -73.638)" fill="none"/>
    </clipPath>
    <linearGradient id="linear-gradient-5" x1="-10.692" y1="1.448" x2="-10.607" y2="1.448" gradientUnits="objectBoundingBox">
      <stop offset="0" stop-color="#cdcbce"/>
      <stop offset="1" stop-color="#fff"/>
    </linearGradient>
    <clipPath id="clip-path-12">
      <path id="Trazado_901137" data-name="Trazado 901137" d="M105.073,76.6l.675.23.121.313c-1.024,1.219-2.063,2.431-3.031,3.694a5.457,5.457,0,0,1-.7,2.395q.609-.43,1.225-.853c.032.6-.157.578-.359,1.186,1.512-1.483,2.366-3.517,4.817-5.865l-.777-.359c-.432-.685-.626-.853-.986-.853-.228,0-.522.067-.986.112" transform="translate(-102.14 -76.49)" fill="none"/>
    </clipPath>
    <linearGradient id="linear-gradient-6" x1="-17.707" y1="2.01" x2="-17.532" y2="2.01" gradientUnits="objectBoundingBox">
      <stop offset="0" stop-color="#3d4143"/>
      <stop offset="1" stop-color="#5b595a"/>
    </linearGradient>
    <clipPath id="clip-path-14">
      <path id="Trazado_901144" data-name="Trazado 901144" d="M172.372,80.075c2.616.592,7.359.873,9.862.058a3.044,3.044,0,0,1-.809-.282,11.125,11.125,0,0,0-3.437-.438,24.773,24.773,0,0,0-5.616.662" transform="translate(-172.372 -79.413)" fill="none"/>
    </clipPath>
    <linearGradient id="linear-gradient-7" x1="-25.123" y1="4.438" x2="-24.977" y2="4.438" gradientUnits="objectBoundingBox">
      <stop offset="0" stop-color="#373639"/>
      <stop offset="1" stop-color="#5a5f5c"/>
    </linearGradient>
  </defs>
  <g id="Grupo_1129395" data-name="Grupo 1129395" transform="translate(-6791 8795.844)">
    <rect id="Rectángulo_415859" data-name="Rectángulo 415859" width="342" height="342" rx="22" transform="translate(6791 -8795.844)" fill="#edf7ed"/>
    <g id="Grupo_1129342" data-name="Grupo 1129342" transform="translate(6837.43 -8688.844)" style="mix-blend-mode: multiply;isolation: isolate">
      <g id="Grupo_1129313" data-name="Grupo 1129313" transform="translate(0 0)">
        <g id="Grupo_1129312" data-name="Grupo 1129312" clip-path="url(#clip-path)">
          <path id="Trazado_901026" data-name="Trazado 901026" d="M57.771,14.539c1.443-1.793-1.423-10.22-1.107-11.1l.48-.137.22.21a34.9,34.9,0,0,1,3.124,10.057c1.9.049,2.354-2,3.915-1.427l.282.374c-.311,1.244-3.24,2.134-3.272,3.892-2.772,6.654-1.733,9.389.668,16.034a15.907,15.907,0,0,0,1.072,2.213,27.749,27.749,0,0,0,5.031-.415,12.674,12.674,0,0,0,1.407-1.667,3.191,3.191,0,0,0-.08,1.323l.3.319c1.833-.694.931-1.023,1.848-1.651-1.116,3.944-1.419,6.178-.541,10.252.658,3.051,1.1,5.047,4.1,6.626a13.569,13.569,0,0,0,4.461-1.522c2.99-4.487,2.657-7.387,2.236-12.719,1.112-.361,2.113-.618,3.246-.9a54.242,54.242,0,0,0,.831,8.091c.129.746-.205.55.063,1.213,1.878-.49,4.323-2.012,6.213-2.718,5.5-2.056,10.488-4.825,15.734-7.336q10.236-4.867,20.543-9.587c4.5-2.072,9.017-4.27,13.614-6.109,1.979-.792,4.177-1.28,6.259-2.053,1.211.314,2.457-.535,3.824-.761-.454.988-2.83,1.33-2.632,2.13-10.087,5.389-20.731,10.149-30.974,15.286-4.327,2.171-8.581,4.49-12.93,6.611L92.47,45.379c-2.241,1.058-5.986,2.277-7.637,3.979,1.155.978,4.622,3.56,3.167,5.258a2.556,2.556,0,0,1-2.169-.06c-2.77-1.34-1.225-5.634-5.932-4.043a8.364,8.364,0,0,0-4.169,3.035C75.471,58.5,73.867,68.664,80.855,69.6c4.8.643,4.225-8.728,4.857-11.807a16.611,16.611,0,0,1,3.843-.212c.614,3.034.115,4.011.381,6.593,3.669-.794,5.5-2.412,8.867-3.789,10-4.083,19.372-9.219,29.229-13.585,2.407-1.067,4.806-2.415,7.234-3.383l.218.246c2.395-1.126,4.972-2.318,7.311-3.633.762-.658,2.69-.71,3.156.356.831,1.9-2.708,2.158-3.394,2.673-2.212,1.664-7.633,3.352-9.58,4.864l.1.228c-1.73,1.152-7.34,3.493-9.578,4.595-8.285,4.083-16.4,8.41-24.682,12.488-3.426,1.686-9.5,4.158-12.327,6.354a16.651,16.651,0,0,1,1.836,4.794c.243,1.2.509,5.947.936,6.531.985,0,2.65-1.864,3.621-2.482,1.784-.125,5.092-4.963,6.479-5.414l.381.4c-2.623,3.032-6.155,5.53-8.222,8.9,4.331-1.9,9.392-3.664,13.451-6.057a78.943,78.943,0,0,0,8.667-6.645c.554.837.263.608,1.075,1.005.282,1.024.688,2.014.956,2.946,1.644-.188,2.756-.963,4.227-1.609a9.178,9.178,0,0,1-2.85,2.366l.359.175a27.887,27.887,0,0,1-6.2.739c-.824-.044-.934-.153-1.433.224.2.872.928.8,1.752.937a2.567,2.567,0,0,1,.681,1.272c.787.533,1.7-.371,2.618.131l.029.217c-.368.108-.191.125-.534-.057-1.56.019-4.34,1.59-5.845,2.35-2.444,1.232-5.421,2.292-7.649,3.843-2.433,1.7-4.474,4.366-6.643,6.395-2.565,2.412-4.4,3.429-5.938,6.693a23.625,23.625,0,0,1,2.7-1.637c3.14-1.275,6.024-1.586,8.963-3.485,4.976-3.217,6.7-7.208,12.436-9.447-.882,1.269-4.1,4.077-4.457,4.8l.3.24c2.2.113,14.157-5.5,16.677-7.084,1.261-.8,2.794-3.394,3.813-4.01,1.726.272,1.589,1.119,1.765,2.6a16.387,16.387,0,0,1,3.021-1.913c1.891-.227,3.984-2.006,5.77-2.676a70.372,70.372,0,0,0,11.343-5.586,1.959,1.959,0,0,0,1.513.02c.749,1.167,2.043.954,3.243,1.451a2.376,2.376,0,0,0,1.347.374c-.482.889-3.524,1.955-4.569,2.415-5.09,2.239-9.651,4.174-13.523,8.331-.617.663-1.923,1.486-2.684,2.165a4.825,4.825,0,0,0,.191-2.261A30.2,30.2,0,0,0,132.7,85c-1.788.646-3.667.869-5,2.337-1.184.938-2.316.311-3.608,1.359.706.4.519.163.761.853-.127,1.19-1.168,1.806-2.124,2.364l1.19-.047c-2.409,2.206-6.326,4.828-7.917,7.973l.006.4c1.7.6,8.763-4.915,10.361-6.123.327-.246.48-.128.819-.022.442.531.169.375.845.49l.81-.3c3.575-1,8.72-3.533,12.111-5.2,1.788-.876,5.012-2.181,6.475-3.291,3.562-2.7,3.777-4.234,8.136-5.986l.41-.314.409.054a17.4,17.4,0,0,0,1.41,1.785,122.488,122.488,0,0,0,11.388-5.279,9.059,9.059,0,0,0,1.739-1.461c.182.3.437.735.631,1a.9.9,0,0,0,.281.521,7.188,7.188,0,0,1,2.03-.451c-.608.755-1.343.7-1.6,1.906.124.435.319.543.659.841l-.263.406c1.777-.175,4.045-2.2,4.783-1.683.882-.383,1.708-.854,2.553-1.314a2.319,2.319,0,0,0,.963-.359,3.655,3.655,0,0,1,2.853-2.258c.861-.156.989.368,1.646.86l1.112-.419c3.469-2.712,6.2-3.579,9.772-5.613l-.253-.228a50.759,50.759,0,0,0,5.11-2.319l7.861-3.779c2.444-1.161,5.725-3.025,8.151-3.994l.109.23c3.069-1.164,7.028-3.463,10.329-4.9,15.542-6.767,30.562-14.748,45.895-21.979,5.824-2.747,11.65-6.057,17.637-8.423a12.063,12.063,0,0,1,4.729-.762v94.513c-2.485.813-5.334-1.021-7.752-.743-2.321.269-5.1,1.334-7.5,1.678-11.585,1.659-22.987,3.23-33.911-1.923-2.321,1.679-3.261,1.691-5.826,2.636-6.37,2.537-11.988,2.929-18.685,3.083-7.429.173-11.3-1.375-18.3-3.025-9.22,4.227-20.557,4.489-30.486,3.642-5.458-.464-7.16-1.064-12.8-.065-11.026,1.951-22.6.877-33.75,1.487-2.683.146-5.474.592-8.18.838a126.949,126.949,0,0,1-15.007.5,86.291,86.291,0,0,1-13.684-1.544c-2.194-.4-5.973-1.759-7.733-1.609-2.284.192-5.861,1.669-8.27,2.286-4.206,1.08-8.475,2.036-12.749,2.894-2.389.48-7.138.589-9.488-.25a14.12,14.12,0,0,1-1.6-1.02c-5.5,2.164-5.989,1-11.513-.474-2.233-.594-5.715-.518-7.842-1.587-1.422-.713-2.319-3.038-4.215-3.386a4.71,4.71,0,0,0-1.964,1.244,18.685,18.685,0,0,1-2.455-.063c-6.121-.643-7.694-8.6-8.229-13.466-3.754.148-5.827-1.224-7.853-4.285a12.841,12.841,0,0,1-1.743-3.889,49.35,49.35,0,0,1-.3-15.4c-4.214-7.534-5.837-13.963-1.519-22C.476,57.3.333,48.719,1.356,43.752c.49-2.385,1.566-4.41,3.776-5.286,1.3-.515,1.113-4.948,1.519-6.609.959-3.923,2.024-7.394,6.019-9.219a50.75,50.75,0,0,0,4.6-2.239l.192-.125c1.493.889,1.478.754,1.516,2.519a10.962,10.962,0,0,0,.771,4.945c1.529,4.345,1.424,6.722,6.594,5.055,3.639-4.17,3.69-9.842,3.338-15.165l1.787-.547c-.058,3.039.525,7.388,3.635,9.13,3.806,2.134,6.213-.953,7.7-4.263,1.145-2.553,1.643-7.509.452-10.256a3.494,3.494,0,0,1,.888-2.2l.527-.4.544-.006c.662.874.388,1.618,1.341,2.8.119,3.307.029,7.869.672,10.968,2.965,3.472,4.049,5.3,7.935,1.516,2.235-2.175,2.485-6.889,2.616-9.824" transform="translate(0 1.503)" fill="#6c4b2f"/>
          <path id="Trazado_901027" data-name="Trazado 901027" d="M242.087,28.348v20.2c-2.553-.487-4.346.938-6.566,1.79-5.314,2.036-8.109,8.551-13.486,10.332l-.25-.08a34.505,34.505,0,0,1,3.122-2.4c2.025-1.768,4-3.616,5.947-5.468a209.737,209.737,0,0,0-19.628,9.657c-3.438,1.842-5.479,6.258-9.74,6.785l-.173-.173c.508-1.2,1.542-1.758,1.8-2.77-.874-.633-15.02,6.761-16.809,7.8-1,.583-2.958,2.648-4.107,3.332a38.8,38.8,0,0,0-4.3,2.469l-.258-.1a14.549,14.549,0,0,0,1.02-3.019c-4.362,2.4-5.67,2.954-8.954,6.712l-.821.787c-3.349,3.224-6.587,6.508-9.9,9.764l-.519-.649c-.73.835-2.13,2.37-2.957,3.151-2.146,2.031-4.617,5.139-7.547,5.9a20.175,20.175,0,0,1-2.743.147c2.75-3.4,5.746-6.44,8.811-9.549-1.951.509-2.337,2.561-3.556,2.4.722-.711,1.566-1.321,1.574-2.276a46.029,46.029,0,0,0,3.438-4.889l-.319-.332a32.883,32.883,0,0,1-2.936,1.715c-.525-.917,2.2-1.179,2.673-2.123-.48-.55-.765-.749-.877-1.472-1.084-.169-2.181,1.2-3.6,1.657l-.07-.265c-.819.3-2.031.783-2.834,1.01l-.668-.212c.77-2.837,1.993-3.186,3.747-5.258l.208-.249-.124-.306c.351-.4.316-.247.437-.707l-.275-.119-.765.655-.121-.253q-2.481,2.322-4.918,4.7c-5.7,5.658-5.5,5.677-13.364,8.235,2.4-3.521,5.676-6.1,8.839-8.9a33.072,33.072,0,0,0,4.052-3.872l-.064-.166c-2.847,1.257-11.305,9.115-14.074,11.432-.752.629-2.539,2.826-3.09,3.15a54.283,54.283,0,0,1-9.057,3.864c.716-.725,1.791-1.75,2.431-2.494a9.11,9.11,0,0,0-1.918,1.132l-.125-.109a27.783,27.783,0,0,0,2.18-3.621,19.324,19.324,0,0,1,1.427-1.36c3.942-3.77,8.288-7.327,11.326-11.912l.263-.2-.044-.354c-1.221-.736-4.03,1.539-5.2,2.059-.48.214-.541-1.19-2.14-1.59l-.285-.07c-.208-1,4.362-1.616,5.5-3.4a50.336,50.336,0,0,1,5.14-3.514c.263-.707.242-1.037.969-1.279.809.282.837.806,1.621,1.3,1.689.323,2.961-1.289,4.326-2.066.941-.535,1.184-.307,2.2-.049.732-.2,1.074-.717,1.692-1.276l1.988-1.288c7.074-3.274,15.043-6.06,21.666-10.055a104.9,104.9,0,0,0,9.615-7.605l.438.508a8.013,8.013,0,0,0-1.6,2.347l.122.847c3.17-2.04,6.964-3.472,10.383-5.111l18.986-9.038L228.6,33.163c4.849-2.235,8.045-4.455,13.485-4.815" transform="translate(53.817 12.897)" fill="#fefefe"/>
          <path id="Trazado_901028" data-name="Trazado 901028" d="M207.165,51.781c6.786-2.2,14.94-7.017,21.556-9.978,1.548-.693,3.392-1.891,4.944-1.341V43.1c-2.555-.487-4.346.938-6.566,1.79-5.315,2.037-8.11,8.552-13.486,10.332l-.252-.079a34.746,34.746,0,0,1,3.124-2.405c2.025-1.766,4-3.614,5.947-5.468A210.3,210.3,0,0,0,202.8,56.925c-3.437,1.842-5.478,6.258-9.74,6.786l-.172-.175c.506-1.2,1.541-1.758,1.8-2.77-.874-.633-15.021,6.763-16.809,7.8-1,.583-2.958,2.648-4.109,3.332a39.161,39.161,0,0,0-4.3,2.469l-.256-.1a14.545,14.545,0,0,0,1.018-3.019c-4.362,2.4-5.669,2.955-8.954,6.713l-.819.786c-3.351,3.226-6.587,6.51-9.9,9.766l-.518-.65c-.73.835-2.13,2.37-2.957,3.151-2.148,2.031-4.617,5.14-7.547,5.9a19.939,19.939,0,0,1-2.743.148c2.75-3.4,5.746-6.441,8.811-9.549-1.953.509-2.337,2.559-3.557,2.4.723-.71,1.566-1.321,1.574-2.276a45.884,45.884,0,0,0,3.44-4.889c1.2-1.452,2.954-2.58,4.022-4.394l.073-.063c1.762-1.56,3.458-2.193,5.186-3.547,2.655-2.081,5.356-5.449,7.729-7.588l.109-.1c1.369-.431,2.945-2.287,4.147-2.242-.38,1.374-1.75,1.557-2.152,2.962-1.212,1.36-2.661,2.676-3.8,4.032a1.715,1.715,0,0,0,.18,1.062l.643-.39c4.506-2.74,11.714-4.873,15.931-7.821,5.626-3.931,9.271-9.817,15.664-13.4a21.925,21.925,0,0,1-1.852,1.989,103.288,103.288,0,0,0-8.069,9.177l.391.2c2.523-1.886,7.383-3.4,10.335-4.829a98.98,98.98,0,0,0,8.742-5c1.344-.981,2.655-2.033,3.931-3.1.759-.634,1.468-1.948,2.446-2.085.486.345.33.119.466.716-.435,1.11-2.83,1.957-4.019,3.447" transform="translate(62.24 18.345)" fill="#ab7138"/>
          <path id="Trazado_901029" data-name="Trazado 901029" d="M145.607,76.413c2.169-1.87,3.5-3.934,5.629-5.8,2.641-2.3,5.773-3.828,8.544-5.907-1.782,5.05-6.034,8-9.738,12.059-.73.834-2.13,2.369-2.957,3.151-2.148,2.031-4.617,5.139-7.547,5.9a20.173,20.173,0,0,1-2.743.147c2.75-3.4,5.746-6.44,8.811-9.549" transform="translate(62.24 29.441)" fill="#fff"/>
          <path id="Trazado_901030" data-name="Trazado 901030" d="M152.845,64.623c.645-.844,1.529-1.838,2.228-2.664a1.715,1.715,0,0,0,.182,1.062c-.271.233-2.012,1.339-2.409,1.6" transform="translate(69.542 28.19)" fill="#cbd0d0"/>
          <path id="Trazado_901031" data-name="Trazado 901031" d="M170.369,55.513l.391.2c-.37.412-1.528,1.356-2.086,1.2a4.824,4.824,0,0,1,1.7-1.4" transform="translate(76.744 25.257)" fill="#6c4b2f"/>
          <path id="Trazado_901032" data-name="Trazado 901032" d="M241.966,28.348v1.486c-2.974-.3-9.332,3.389-12.168,4.793l-17.895,9c-5.479,2.731-12.249,5.431-17.294,8.854-1.018.691-3.2,3.672-4.247,4.644a30.228,30.228,0,0,1-3.149,2.3c-.495.356-1.269,1.066-1.807,1.119.033-1.148,2.964-3.207,3.891-4.115,1.2-1.176,2.261-2.324,3.37-3.578-2.455.941-5.14,2.484-7.551,3.655q-5.055,2.425-10.012,5.037c-4.011,2.072-7.205,3.387-10.086,7.1a25.464,25.464,0,0,1-5.506,3.518c.067-.454.154-.47.46-.835a23.131,23.131,0,0,0-1.746-1.845c-3.325,1.654-6.764,3.074-10.09,4.727a16.074,16.074,0,0,1-2.05.947c-4.267,2.475-5.546,3.037-9.456,6.427L125.86,92.375c-1.331,1.352-4.032,4.4-5.267,5.5a9.11,9.11,0,0,0-1.918,1.132l-.125-.109a27.783,27.783,0,0,0,2.18-3.621,19.324,19.324,0,0,1,1.427-1.36c3.942-3.77,8.288-7.327,11.326-11.912l.263-.2-.044-.354c-1.221-.736-4.03,1.539-5.2,2.059-.48.214-.541-1.19-2.14-1.59l-.285-.07c-.208-1,4.362-1.616,5.5-3.4a50.336,50.336,0,0,1,5.14-3.514c.263-.707.242-1.037.969-1.279.809.282.837.806,1.621,1.3,1.689.323,2.961-1.289,4.326-2.066.941-.535,1.184-.307,2.2-.049.732-.2,1.074-.717,1.692-1.276l1.987-1.288c7.074-3.274,15.043-6.06,21.666-10.055A104.9,104.9,0,0,0,180.8,52.62l.438.508a8.014,8.014,0,0,0-1.6,2.347l.122.847c3.17-2.04,6.964-3.472,10.383-5.111l18.986-9.038,19.351-9.009c4.849-2.235,8.045-4.455,13.485-4.815" transform="translate(53.938 12.897)" fill="#ab7138"/>
          <path id="Trazado_901033" data-name="Trazado 901033" d="M132.165,63.79c.118-.121,3.477-2.063,3.85-2.29.164.333-.563.378-.572,1.083,2.439.663,3.955-2.158,6.025-2.065-4.266,2.475-5.545,3.037-9.456,6.428a2.347,2.347,0,0,1-.271-.515,2.118,2.118,0,0,0,.848-.509l-.042-.113c-1.36-.191-3.124,1.432-3.853.294a5.663,5.663,0,0,1,1.916-1.513,13.8,13.8,0,0,1,1.554-.8" transform="translate(58.554 27.533)" fill="#6c4b2f"/>
          <path id="Trazado_901034" data-name="Trazado 901034" d="M128.7,64.83a5.667,5.667,0,0,1,1.916-1.515l1.008.9c-1.147.349-1.875.886-2.924.617" transform="translate(58.554 28.807)" fill="#6c4b2f"/>
          <path id="Trazado_901035" data-name="Trazado 901035" d="M131.566,62.766c.477.388.348.146.416.742a2,2,0,0,1-.962.954l-1.008-.9a13.8,13.8,0,0,1,1.554-.8" transform="translate(59.153 28.557)" fill="#6c4b2f"/>
          <path id="Trazado_901036" data-name="Trazado 901036" d="M150.086,55.37l.508.531a17.268,17.268,0,0,1-3.029,3.128,23.131,23.131,0,0,0-1.746-1.845c1.352-.63,2.882-1.234,4.267-1.814" transform="translate(66.345 25.192)" fill="#e7e7e8"/>
          <path id="Trazado_901037" data-name="Trazado 901037" d="M148.752,55.9a16.882,16.882,0,0,1,3.786-1.689,21.553,21.553,0,0,1-3.278,2.22Z" transform="translate(67.68 24.664)" fill="#7b7b7f"/>
          <path id="Trazado_901038" data-name="Trazado 901038" d="M148.9,65.034l.185.5-.026.138c-.015.618-.148,1.017.425,1.432-1.069,1.814-2.817,2.942-4.023,4.394l-.317-.332a32.56,32.56,0,0,1-2.938,1.715c-.524-.917,2.2-1.177,2.674-2.123-.48-.55-.767-.749-.877-1.471-1.084-.169-2.182,1.2-3.6,1.657l-.07-.266c1.989-1.225,3.867-2.808,5.794-4.145,1.295-.9,1.148-1.234,2.776-1.5" transform="translate(63.846 29.589)" fill="#ab7138"/>
          <path id="Trazado_901039" data-name="Trazado 901039" d="M143.634,70.966a9.863,9.863,0,0,1,2.5-2.487c1.579-1.2.888-1.657,1.42-3.007-.015.618-.148,1.016.426,1.432-1.069,1.814-2.818,2.942-4.023,4.394Z" transform="translate(65.351 29.788)" fill="#6c4b2f"/>
          <path id="Trazado_901040" data-name="Trazado 901040" d="M155.618,60.195c1.486-1.646,5.126-3.685,7.211-4.8a37.206,37.206,0,0,1-5.216,5.523c.4-1.406,1.772-1.589,2.152-2.962-1.2-.045-2.778,1.811-4.147,2.242" transform="translate(70.804 25.202)" fill="#6c4b2f"/>
          <path id="Trazado_901041" data-name="Trazado 901041" d="M140.054,66.176c1.974-2.02,3.409-2.507,6.156-3.205a47.475,47.475,0,0,0-5.308,3.937l-.124-.306c.349-.4.316-.249.435-.707l-.275-.119-.764.655Z" transform="translate(63.722 28.65)" fill="#ab7138"/>
          <path id="Trazado_901042" data-name="Trazado 901042" d="M150.542,61.536c-.844,1.068-3.512,4.9-4.141,5.589l-.185-.5c1.763-2.526,1.621-3.4,4.326-5.09" transform="translate(66.526 27.997)" fill="#6c4b2f"/>
          <path id="Trazado_901043" data-name="Trazado 901043" d="M174.592,52.13c3.069-1.164,7.028-3.463,10.329-4.9,15.542-6.766,30.562-14.748,45.895-21.979,5.823-2.747,11.65-6.056,17.637-8.421a12.01,12.01,0,0,1,4.729-.762V33.938c-5.44.358-8.635,2.58-13.485,4.815l-19.351,9.009L201.36,56.8c-3.419,1.64-7.212,3.071-10.384,5.111l-.122-.847a8.027,8.027,0,0,1,1.6-2.347l-.439-.508a104.7,104.7,0,0,1-9.615,7.605c-6.623,3.994-14.591,6.782-21.666,10.055l-1.986,1.288c-.618.557-.962,1.077-1.692,1.276-1.017-.258-1.26-.486-2.2.049-1.363.777-2.635,2.389-4.324,2.065-.786-.5-.813-1.02-1.621-1.3-.727.242-.707.572-.969,1.277a50.766,50.766,0,0,0-5.142,3.515c-1.785.944-4.132,1.932-6.016,2.817a66.173,66.173,0,0,1,7.365-8.128,21.207,21.207,0,0,0,3.664-4.251,58.036,58.036,0,0,0-6.553,4.694c-1.806,1.55-3.483,3.332-5.354,4.909-1.352,1.251-2.5,2.581-3.923,3.733a5.85,5.85,0,0,0-1.615-.15,3.919,3.919,0,0,0-1.638.5c-3.988,3.229-7.922,6.168-12.831,7.931,1.539-2.3,3.886-4.1,4.836-5.463,1.32-1.151,7.225-6.271,7.706-7.628l-.161-.292a2.337,2.337,0,0,0-1.5.436,8.772,8.772,0,0,0-4.075.71c-.685.966-5.293,4.455-6.523,5.552-2,1.779-3.537,3.319-5.4,5.268-1.235,1.131-3.458,3.507-4.473,4.336A2.927,2.927,0,0,0,105.741,98l-2.945,2.54c-3.544,3.06-4.535,3.063-8.9,4.753,1.97-3.326,6.088-6.793,8.84-9.628,2.913-3,6-5.948,9.03-8.848,2.859-2.734,5.564-5.855,8.806-8.142,3.712-2.338,10.306-4.863,13.9-7.195l.237-.157c.88-.383,1.708-.856,2.553-1.314a2.319,2.319,0,0,0,.963-.359,3.645,3.645,0,0,1,2.853-2.258c.861-.156.989.367,1.644.86l1.112-.419c3.47-2.712,6.206-3.579,9.772-5.615l-.252-.227a50.906,50.906,0,0,0,5.11-2.319l7.861-3.779c2.443-1.161,5.725-3.025,8.149-4Z" transform="translate(42.722 7.309)" fill="#fefefe"/>
          <path id="Trazado_901044" data-name="Trazado 901044" d="M132.821,65.147c5.6-2.385,9.4-8.12,13.809-12.113,1.158-1.048,3.556-1.953,5.023-2.968l.218-.151c-2.629,4.318-5.551,6.435-9.066,10.045l.221.509-1.986,1.286c-.618.559-.962,1.078-1.694,1.277-1.016-.258-1.26-.486-2.2.049-1.363.777-2.635,2.389-4.324,2.065" transform="translate(60.431 22.71)" fill="#6c4b2f"/>
          <path id="Trazado_901045" data-name="Trazado 901045" d="M138.511,58.614l-.132-.348c.393-.694,1.152-.986,1.9-1.448l.221.509Z" transform="translate(62.96 25.851)" fill="#6c4b2f"/>
          <path id="Trazado_901046" data-name="Trazado 901046" d="M135.024,51.013l-.253-.227a51.11,51.11,0,0,0,5.111-2.319l7.861-3.779c2.443-1.161,5.725-3.025,8.149-4l.111.231c-2.054,1.132-6.792,3.064-8.228,4.276-4.362,3.678-7.65,8.545-13.019,11.062a61.49,61.49,0,0,1,4.9-4.9,47.566,47.566,0,0,1,3.475-3.438l-.164-.53a70.41,70.41,0,0,1-7.938,3.619" transform="translate(61.312 18.514)" fill="#ab7138"/>
          <path id="Trazado_901047" data-name="Trazado 901047" d="M140.4,45.881a22.852,22.852,0,0,1,3.325-1.861c-1.122.94-2,1.538-3.16,2.391Z" transform="translate(63.878 20.028)" fill="#8f9090"/>
          <path id="Trazado_901048" data-name="Trazado 901048" d="M125.117,53.968a2.319,2.319,0,0,0,.963-.359,3.647,3.647,0,0,1,2.853-2.258c.861-.157.989.367,1.646.86l1.11-.419c-3.568,3.444-6.416,6.456-10.941,8.746l-.138-.441c1.174-.723,4.377-3.4,4.8-4.78.192-.633-.01-.873-.29-1.349" transform="translate(54.875 23.35)" fill="#6c4b2f"/>
        </g>
      </g>
      <g id="Grupo_1129315" data-name="Grupo 1129315" transform="translate(148.464 91.162)">
        <g id="Grupo_1129314" data-name="Grupo 1129314" clip-path="url(#clip-path-2)">
          <rect id="Rectángulo_415863" data-name="Rectángulo 415863" width="22.645" height="22.265" transform="translate(-7.242 5.346) rotate(-36.432)" fill="url(#linear-gradient)"/>
        </g>
      </g>
      <g id="Grupo_1129317" data-name="Grupo 1129317" transform="translate(0 0)">
        <g id="Grupo_1129316" data-name="Grupo 1129316" clip-path="url(#clip-path)">
          <path id="Trazado_901050" data-name="Trazado 901050" d="M161.334,46.006a26.962,26.962,0,0,1,3.06-3.119,21.738,21.738,0,0,1-2.622,3.627Z" transform="translate(73.404 19.512)" fill="#1e1c1c"/>
          <path id="Trazado_901051" data-name="Trazado 901051" d="M121.129,57.353l.14.441a3.655,3.655,0,0,1-1.8.543c.223-.429,1.164-.755,1.662-.984" transform="translate(54.355 26.094)" fill="#6c4b2f"/>
          <path id="Trazado_901052" data-name="Trazado 901052" d="M152.666,42.55l.239.1c-.176.5-.776.858-1.248,1.25l-.26-.218c.279-.573.691-.725,1.27-1.132" transform="translate(68.883 19.359)" fill="#6c4b2f"/>
          <path id="Trazado_901053" data-name="Trazado 901053" d="M216.331,46.431c-1.947,1.852-3.921,3.7-5.947,5.468a34.505,34.505,0,0,0-3.122,2.4l.25.08c5.378-1.781,8.173-8.3,13.486-10.332,2.222-.851,4.013-2.277,6.566-1.79V56.847a8.132,8.132,0,0,0-1.727.061c-3.988,1.433-7.853,3.44-11.816,4.925,1.315-1.923,2.775-2.562,3.585-3.608a4.823,4.823,0,0,0,1.224-2.217l-.224-.166c-1,.218-1.657,1.024-2.5,1.03-3.461,2.449-5.631,6.268-9.788,8.3-4.215,2.063-8.485,3.889-12.76,5.826a116.572,116.572,0,0,1,8.685-9.04c-4.23,1.785-7.586,4.9-10.659,8.19-3.7,3.966-5.976,4.218-10.732,6.214-2.567,1.077-5.578,2.8-8.219,4.043,2.44-3.862,5.008-5.484,7.291-8.7a15.676,15.676,0,0,0-4.554,2.639c-2.3,1.995-10.4,11.521-13.422,10.495-.377-1.727,5.446-6.083,6.581-8.1a37.437,37.437,0,0,0-5.621,4.656,46.7,46.7,0,0,1-5.146,4.9c-2.085,1.625-4.615,1.938-5.935,2.744a2.6,2.6,0,0,1-1.628-.113,10.373,10.373,0,0,0,1.612-1.7l-.246-.044c-.109-.613,2.078-1.941,2.514-2.821-.063-.607.064-.372-.3-.765-.586.063-1.261.9-1.862,1.4l-.115-.323a33.037,33.037,0,0,1,5.236-4.486c-.605-.65-1.683-1.176-2.679-2.281l.821-.787c3.284-3.758,4.592-4.314,8.954-6.712a14.63,14.63,0,0,1-1.019,3.019l.256.1a38.8,38.8,0,0,1,4.3-2.469c1.149-.684,3.1-2.748,4.107-3.332,1.79-1.042,15.935-8.436,16.809-7.8-.262,1.013-1.3,1.571-1.8,2.77l.173.175c4.26-.528,6.3-4.944,9.74-6.786a209.911,209.911,0,0,1,19.628-9.657" transform="translate(68.339 19.182)" fill="#fefefe"/>
          <path id="Trazado_901054" data-name="Trazado 901054" d="M157.811,67.964c.585-.115.78-.266,1.222-.071-.086.556-1.245,1.4-1.779,1.8-1.672,1.263-4.414,4.771-5.866,5.874l-.246-.044c-.108-.613,2.078-1.941,2.514-2.821-.063-.607.065-.372-.3-.765-.585.063-1.261.9-1.861,1.4l-.116-.322a33.1,33.1,0,0,1,5.236-4.486Z" transform="translate(68.765 30.847)" fill="#ab7138"/>
          <path id="Trazado_901055" data-name="Trazado 901055" d="M201.286,49.61c-1.149,1.589-2.82,4.107-4.289,5.226a4.8,4.8,0,0,0,1.222-2.216L198,52.454c-.994.217-1.657,1.024-2.5,1.029a45.47,45.47,0,0,1,5.786-3.873" transform="translate(88.949 22.571)" fill="#6c4b2f"/>
          <path id="Trazado_901056" data-name="Trazado 901056" d="M153.88,66.191a6.574,6.574,0,0,0,3.055,2.505l-1.2.563c-.605-.652-1.683-1.176-2.677-2.281Z" transform="translate(69.64 30.115)" fill="#cbd0d0"/>
          <path id="Trazado_901057" data-name="Trazado 901057" d="M160.067,63.755c-.33.873-1.6,2.172-2.6,2.069l.14-.339a5.987,5.987,0,0,0,2.038-1.638l.164-.195Z" transform="translate(71.645 28.96)" fill="#cbd0d0"/>
          <path id="Trazado_901058" data-name="Trazado 901058" d="M210.521,57.532a26.739,26.739,0,0,1-3.649,4.273c-.544.495-1.651,1.094-1.762,1.516,1.346.693,5.478-2.885,6.536-3.851s2.292-3.143,3.544-3.782a2.536,2.536,0,0,1,1.648.37V66.851a6.344,6.344,0,0,1-1.2-1.954,12.9,12.9,0,0,1-7.55,5.885,1.387,1.387,0,0,1-.358.054l-.637-.511c-3.035,1.071-5.607,4.016-9.134,5.385a14.213,14.213,0,0,0-.428-1.487l.61-.893c-.329-.666-.095-.4-.765-.8-.691.253-1.544.48-2.261.693l.279.015c-3.658,4.288-7.451,7.121-12.9,8.616,2.068-3,5.792-5.989,8.555-8.328a21.093,21.093,0,0,0-6.331,4.345c-4.024,4.476-5.062,5.737-10.94,6.9,3.377-4.937,8.712-10.256,13.207-14.225,2.018-1.851,3.886-4.075,6.371-5.321,5.461-2.735,11.889-4.659,17.164-7.7" transform="translate(79.066 25.32)" fill="#fefefe"/>
          <path id="Trazado_901059" data-name="Trazado 901059" d="M190,68.189a11.622,11.622,0,0,0,3.584-2.993,46.146,46.146,0,0,1-2.818,3.792c-.329-.666-.095-.4-.765-.8" transform="translate(86.446 29.663)" fill="#6c4b2f"/>
          <path id="Trazado_901060" data-name="Trazado 901060" d="M187.432,85.262c1.611-3.016,6.447-7.07,8.983-9.612,2.225-2.229,4.569-5.328,7.271-6.84,1.906-1.065,4.768-2.757,6.94-2.251V74.2q-.72-1.1-1.451-2.193c-.937,2.092-8.776,10.374-11.346,11.3-.4.145-1.408.428-1.883.546a3.258,3.258,0,0,1-3.345.6c-1.957.853-3.022.773-5.17.816" transform="translate(85.278 30.241)" fill="#fefefe"/>
          <path id="Trazado_901061" data-name="Trazado 901061" d="M206.181,68.205q.88.716,1.782,1.4v3.8q-.72-1.1-1.451-2.193c-.937,2.092-8.778,10.374-11.346,11.3-.406.145-1.408.428-1.883.546.615-1.653,10.991-13.163,12.9-14.85" transform="translate(87.941 31.032)" fill="#fefefe"/>
          <path id="Trazado_901062" data-name="Trazado 901062" d="M190.985,83.825c3.378-1.781,6.654-7.1,9.9-9.664,1.983-1.57,3.639-5.443,6.47-6.329a2.715,2.715,0,0,1,1.654.719v1.225q-.9-.685-1.782-1.4c-1.906,1.685-12.283,13.2-12.9,14.85a3.259,3.259,0,0,1-3.345.6" transform="translate(86.895 30.862)" fill="#6c4b2f"/>
          <path id="Trazado_901063" data-name="Trazado 901063" d="M111.5,87.668c2.676-4.329,20.588-23.932,25.193-22.414-3.039,4.585-7.384,8.142-11.326,11.912a18.485,18.485,0,0,0-1.427,1.36c-5.25,4.377-5.021,6.38-12.44,9.142" transform="translate(50.73 29.651)" fill="#e7e7e8"/>
        </g>
      </g>
      <g id="Grupo_1129319" data-name="Grupo 1129319" transform="translate(192.768 100.754)">
        <g id="Grupo_1129318" data-name="Grupo 1129318" clip-path="url(#clip-path-4)">
          <rect id="Rectángulo_415865" data-name="Rectángulo 415865" width="19.47" height="18.737" transform="translate(-3.238 0.705) rotate(-12.283)" fill="url(#linear-gradient-2)"/>
        </g>
      </g>
      <g id="Grupo_1129321" data-name="Grupo 1129321" transform="translate(0 0)">
        <g id="Grupo_1129320" data-name="Grupo 1129320" clip-path="url(#clip-path)">
          <path id="Trazado_901065" data-name="Trazado 901065" d="M157.76,66.731c.994,1.106,2.073,1.631,2.677,2.281A33.09,33.09,0,0,0,155.2,73.5c-4.612,3.693-7.078,8.484-12.469,9.855,1.391-3.429,3.53-4.593,5.126-6.856,3.314-3.258,6.55-6.542,9.9-9.766" transform="translate(64.941 30.361)" fill="#e7e7e8"/>
          <path id="Trazado_901066" data-name="Trazado 901066" d="M91.237,61.992c.7.4.519.163.761.854-.127,1.189-1.168,1.8-2.124,2.363-7.831,3.479-7.986,9.485-17.662,13.1a80.215,80.215,0,0,1,13.134-12.99,41.032,41.032,0,0,1,5.891-3.323" transform="translate(32.855 28.205)" fill="#e7e7e8"/>
        </g>
      </g>
      <g id="Grupo_1129323" data-name="Grupo 1129323" transform="translate(153.504 90.453)">
        <g id="Grupo_1129322" data-name="Grupo 1129322" clip-path="url(#clip-path-6)">
          <rect id="Rectángulo_415867" data-name="Rectángulo 415867" width="20.634" height="20.647" transform="matrix(0.705, -0.709, 0.709, 0.705, -6.599, 6.644)" fill="url(#linear-gradient-3)"/>
        </g>
      </g>
      <g id="Grupo_1129325" data-name="Grupo 1129325" transform="translate(0 0)">
        <g id="Grupo_1129324" data-name="Grupo 1129324" clip-path="url(#clip-path)">
          <path id="Trazado_901068" data-name="Trazado 901068" d="M113.182,66.014l.925.6c-.409.476-1.12,1.231-1.471,1.688a29.128,29.128,0,0,1-4.464,3.859c-.21-1.916,3.325-5.315,5.01-6.149" transform="translate(49.213 30.035)" fill="#7b7b7f"/>
          <path id="Trazado_901069" data-name="Trazado 901069" d="M111.613,66.892a4.7,4.7,0,0,1,4.036-2.808c-.848.9-2.4,2.459-3.111,3.41Z" transform="translate(50.782 29.157)" fill="#cbd0d0"/>
          <path id="Trazado_901070" data-name="Trazado 901070" d="M204.021,72.533l1.467.812v4.762c-.2-.323-1.062-2.3-1.344-2.859-1,3.627-1.893,3.039-5.417,3.635.8-1.135,4.307-5.271,5.295-6.35" transform="translate(90.417 33.001)" fill="#e7e7e8"/>
          <path id="Trazado_901071" data-name="Trazado 901071" d="M102.428,74.428c1.014-.829,3.237-3.2,4.473-4.336,1.021.959,1.743.947,2.239,1.669-1.423,1.177-4.761,3.857-6.636,4Z" transform="translate(46.603 31.89)" fill="#cbd0d0"/>
          <path id="Trazado_901072" data-name="Trazado 901072" d="M120.832,66.544c1.423-1.152,2.571-2.482,3.923-3.733.115,3.109-1.251,5.028-4.285,5.9-.268-.185-.176-.06-.268-.386-.765.258-.78,1.027-1.612,1.28l-.189-.163c.551-.818,1.683-1.715,2.431-2.9" transform="translate(53.87 28.577)" fill="#6c4b2f"/>
          <path id="Trazado_901073" data-name="Trazado 901073" d="M118.884,62.311a2.33,2.33,0,0,1,1.5-.438l.161.294c-.48,1.357-6.386,6.478-7.706,7.628,1.256-2.737,4.964-4.1,6.188-6.542l-.016-.029-.259-.048c-1.3,1.045-7.058,6.857-7.516,7.02.349-.457,1.062-1.212,1.47-1.688.714-.952,2.262-2.508,3.111-3.409.458-.534,2.437-2.22,3.066-2.789" transform="translate(50.611 28.142)" fill="#6c4b2f"/>
          <path id="Trazado_901074" data-name="Trazado 901074" d="M133.212,78.7l.317.287a2.784,2.784,0,0,1,1.615.217,1.091,1.091,0,0,1,.415.867l-.145.454c-1.723,1.325-2.383,1.173-4.516,1.136a30.467,30.467,0,0,1,2.315-2.961" transform="translate(59.556 35.807)" fill="#e7e7e8"/>
          <path id="Trazado_901075" data-name="Trazado 901075" d="M102.959,72.377a2.927,2.927,0,0,1,.567,1.011l.074,1.336c-.671.279-.851.78-1.245,1.47a22.893,22.893,0,0,1-2.341-1.276Z" transform="translate(45.505 32.93)" fill="#6c4b2f"/>
          <path id="Trazado_901076" data-name="Trazado 901076" d="M80.607,53.476c1.644-.188,2.756-.963,4.227-1.609a9.183,9.183,0,0,1-2.852,2.366c-1.385,0-3.573,1.2-4.851.327l-.071-.468c.448-.39,2.759-.524,3.547-.615" transform="translate(35.061 23.598)" fill="#6c4b2f"/>
          <path id="Trazado_901077" data-name="Trazado 901077" d="M106.991,55.98l.41-.314.409.054a17.561,17.561,0,0,0,1.41,1.785l-1.477.713c-.615-.255-.669-.543-.978-1.151a2.992,2.992,0,0,0,.226-1.087" transform="translate(48.576 25.327)" fill="#e7e7e8"/>
          <path id="Trazado_901078" data-name="Trazado 901078" d="M138.728,69.461l.668.214a.692.692,0,0,0-.164.24,7.349,7.349,0,0,1-3.09,3.365c.56-.991,1.711-3.288,2.587-3.819" transform="translate(61.942 31.603)" fill="#6c4b2f"/>
          <path id="Trazado_901079" data-name="Trazado 901079" d="M188.565,71.1a16.782,16.782,0,0,0,2.241-2.684,13.874,13.874,0,0,1,.428,1.487,20.882,20.882,0,0,1-2.15,1.331Z" transform="translate(85.794 31.128)" fill="#fff"/>
          <path id="Trazado_901080" data-name="Trazado 901080" d="M148.133,77.679a11.115,11.115,0,0,1,3.01-3.373,2.6,2.6,0,0,0,1.628.113,15.473,15.473,0,0,0-4.638,3.259" transform="translate(67.398 33.807)" fill="#6c4b2f"/>
          <path id="Trazado_901081" data-name="Trazado 901081" d="M105.8,59.017a9.2,9.2,0,0,1,1.4-2.388c.308.607.362.895.978,1.151a9.644,9.644,0,0,1-2.38,1.237" transform="translate(48.138 25.765)" fill="#cbd0d0"/>
          <path id="Trazado_901082" data-name="Trazado 901082" d="M118.018,52.3c.182.294.435.735.631,1-.806,1.02-1.131.7-2.372.46a9.165,9.165,0,0,0,1.74-1.461" transform="translate(52.904 23.794)" fill="#6c4b2f"/>
          <path id="Trazado_901083" data-name="Trazado 901083" d="M189.338,70.395c-.4.387-.806.853-1.333.885.14-.556.3-.541.815-1.018Z" transform="translate(85.539 31.967)" fill="#6c4b2f"/>
          <path id="Trazado_901084" data-name="Trazado 901084" d="M95.028,77.31c1.842-1.608,3.667-3.739,5.471-5.375a45.006,45.006,0,0,1,14.576-8.675c1.219-.451,3.1-1.816,3.987-1.973l.1.247a4.509,4.509,0,0,1-1.266,1.849A4.489,4.489,0,0,1,115,66.97c-1.371,1.115-2.05,1.945-3.275,3.058q-5.511,4.913-10.787,10.073c-2.562,2.469-6.323,7.167-9.647,8.548l-.429-.045c-.2-.6.287-1.045.663-1.528-2.166.1-2.252,1.1-3.752,1.75-2.872,2.155-3.451,2.644-6.956,3.156,2.05-2.188,4.185-4.286,6.251-6.508,2.1-2.2,6.255-6.037,7.963-8.164" transform="translate(36.769 27.885)" fill="#fff"/>
          <path id="Trazado_901085" data-name="Trazado 901085" d="M110.4,64.776c.493-.423.48-.3,1.225-.442a1.424,1.424,0,0,1,.247,1.25c-1.371,1.115-2.05,1.947-3.277,3.058q-5.509,4.913-10.786,10.073c-2.564,2.469-6.323,7.167-9.648,8.548l-.428-.045c-.2-.6.287-1.045.662-1.528.867-.636,4.091-4.042,5.055-4.934,4.534-4.2,8.616-8.96,13.306-12.97a25.125,25.125,0,0,0,3.643-3.01" transform="translate(39.896 29.27)" fill="#cbd0d0"/>
          <path id="Trazado_901086" data-name="Trazado 901086" d="M104.755,64.638a25.126,25.126,0,0,1-3.643,3.01l-1.023-.217a13.924,13.924,0,0,1,4.666-2.794" transform="translate(45.539 29.409)" fill="#6c4b2f"/>
          <path id="Trazado_901087" data-name="Trazado 901087" d="M42.213,70.519c.828-.063,2.433-.324,2.971.3,4.282,4.956,2.951,15.21-.838,20.106a3.118,3.118,0,0,1-2.836,1.129c-5.989-.917-6.774-13.563-4.163-17.675,1.5-2.364,2.239-3.006,4.865-3.859" transform="translate(16.348 32.035)" fill="#fefefe"/>
          <path id="Trazado_901088" data-name="Trazado 901088" d="M54.464,49.633l2.949.162c6.211,3.844,5.159,16.6-.346,20.886-1.445.768-2.2.988-3.179-.6-1.2-1.669-1.47-3.895-2.281-5.685-1.89-4.167-1.4-11.942,2.858-14.768" transform="translate(23.002 22.582)" fill="#fefefe"/>
          <path id="Trazado_901089" data-name="Trazado 901089" d="M49.358,59.937c3.728-.2,5.692,8.6,6.657,11.467a72.037,72.037,0,0,1-1.657,7.083,3.978,3.978,0,0,1-2.618,2.759c-4.013,1.023-5.1-.719-5.931-4.4-1.2-5.318-1.676-13.533,3.549-16.905" transform="translate(20.486 27.268)" fill="#fefefe"/>
          <path id="Trazado_901090" data-name="Trazado 901090" d="M49.621,41.308a3.869,3.869,0,0,1,2.962,2.345c1.982,4.243,1.4,9.152-.175,13.428-.362.979-1.324,4.608-2.446,4.918-3.044.64-4.672.016-5.724-2.817a18.916,18.916,0,0,1,.5-14.458,5.677,5.677,0,0,1,3.6-3.077c.151-.067,1.071-.284,1.286-.339" transform="translate(19.58 18.794)" fill="#fefefe"/>
          <path id="Trazado_901091" data-name="Trazado 901091" d="M41.828,53.555c.655-.127.367-.179.9.031,1.164,1.6,3.013,3.546,3.189,5.769.275,3.5-.256,9.686-2.273,12.731-.537.809-2.5.786-3.426.822-5.423-.972-5.644-14.841-2.312-18.295,1.145-1.187,2.457-1.014,3.918-1.058" transform="translate(16.249 24.316)" fill="#fefefe"/>
          <path id="Trazado_901092" data-name="Trazado 901092" d="M14.716,66.617c1.848-.106,2.894-.234,4.458,1.033,1.7,1.381,2.744,4.685,2.8,6.812.076,3.135-.463,10.06-2.54,12.405a3.064,3.064,0,0,1-2.283,0c-2.648-1.519-3.764-6.316-4.363-9-.626-2.8.48-9.006,1.934-11.25" transform="translate(5.734 30.28)" fill="#fefefe"/>
          <path id="Trazado_901093" data-name="Trazado 901093" d="M39.014,34.72c8.51-.508,5.727,13.032,4.2,17.885-.359,1.133-.653,1.323-1.672,1.8-4.62,1.368-3.816-.874-4.95-4.3-1.382-4.177-1.213-12.42,2.425-15.384" transform="translate(16.283 15.79)" fill="#fefefe"/>
          <path id="Trazado_901094" data-name="Trazado 901094" d="M8.721,57.824c4.931.262,8.593,15.915,1.939,20.159-1.934.631-3.167-.652-3.866-2.391a22.586,22.586,0,0,1-.716-15.2c.508-1.548,1.269-1.97,2.642-2.572" transform="translate(2.314 26.308)" fill="#fefefe"/>
          <path id="Trazado_901095" data-name="Trazado 901095" d="M12.453,38.54A9.8,9.8,0,0,1,18.2,41.926c1.391,1.838.671,6.879.338,9.137s-1.067,5.146-3.026,6.559l-1.621.749q-.441-.3-.856-.63c-4.9-3.934-4.347-14.668-.578-19.2" transform="translate(4.317 17.535)" fill="#fefefe"/>
          <path id="Trazado_901096" data-name="Trazado 901096" d="M23.8,56.854c3.246-.24,4.43,5.315,4.829,7.822.454,2.855.6,7.127-1.072,9.655-.613.93-2.344,1.056-3.373,1.174-1.935.2-2.383-.749-3.384-2.335-2.545-4.024-1.752-14.116,3-16.316" transform="translate(8.817 25.864)" fill="#fefefe"/>
          <path id="Trazado_901097" data-name="Trazado 901097" d="M17.773,25.2a3.049,3.049,0,0,1,2.411.89c4.409,4.765,2.2,14.88-1.793,18.752-1.731.476-3.109-1.027-3.719-2.513-1.683-4.1-1.356-9.421-.073-13.592A5.444,5.444,0,0,1,17.773,25.2" transform="translate(6.152 11.466)" fill="#fefefe"/>
          <path id="Trazado_901098" data-name="Trazado 901098" d="M189.743,64.739l.236.535a84.169,84.169,0,0,1-11,11.566c-1.665,1.488-7.093,8.533-9.671,6.52.119-1.056-.173-1-.988-1.56a12.258,12.258,0,0,1-5.82,4.347,10.556,10.556,0,0,1,.573-1.26c1.558-2.855,5.826-6.079,8.149-8.625,2.43-2.661,6.678-6.745,10.138-7.7.592-.4.927-.279,1.552-.064a39.656,39.656,0,0,1,6.828-3.758" transform="translate(73.935 29.455)" fill="#fff"/>
          <path id="Trazado_901099" data-name="Trazado 901099" d="M181.363,67.366c-.451,2.6-5.18,6.108-7.205,7.944-1.705,1.547-4.049,4.011-5.836,5.295a12.272,12.272,0,0,1-5.82,4.347,10.541,10.541,0,0,1,.572-1.26c1.558-2.855,5.826-6.079,8.149-8.625,2.43-2.661,6.68-6.745,10.14-7.7" transform="translate(73.936 30.65)" fill="#cbd0d0"/>
          <path id="Trazado_901100" data-name="Trazado 901100" d="M179.543,67.448c.591-.4.927-.279,1.552-.064a40.151,40.151,0,0,1-3.1,3.64c-1.67,1.582-9.645,9.328-10.511,11.222.121-1.056-.172-1-.986-1.56,1.787-1.283,4.131-3.748,5.836-5.295,2.025-1.836,6.754-5.341,7.205-7.944" transform="translate(75.756 30.568)" fill="#6c4b2f"/>
          <path id="Trazado_901101" data-name="Trazado 901101" d="M32.393,70.714c1.136.007,2.244.188,2.828,1.337,1.471,2.9,2.906,6.739,2.053,10.018-.56,2.155-1.228,6.747-3.086,8.033-2.262.3-4.3-.364-4.784-2.747-.854-4.219-1.158-14.169,2.989-16.641" transform="translate(13.139 32.173)" fill="#fefefe"/>
          <path id="Trazado_901102" data-name="Trazado 901102" d="M11.784,18.046c6.414.662,3.79,19.26-.773,19.184-4.727-3.552-4.993-9.815-3.288-15.2a6.925,6.925,0,0,1,4.061-3.988" transform="translate(3.077 8.21)" fill="#fefefe"/>
          <path id="Trazado_901103" data-name="Trazado 901103" d="M24.614,70.739c6.837.783,5.7,9.7,4.107,14.161-.551,1.545-.777,2.78-2.479,3.249l-2.361,0a4.6,4.6,0,0,1-2.03-2.3c-1.659-3.894-1.276-10.627.92-14.176.544-.323,1.263-.646,1.843-.927" transform="translate(9.475 32.185)" fill="#fefefe"/>
          <path id="Trazado_901104" data-name="Trazado 901104" d="M6.339,29.326C13.1,31.976,13.5,42.974,9,47.986a4.288,4.288,0,0,1-3.124-.761C2.62,44.82,3.222,39.739,3.337,36.259c.1-2.93.6-5.164,3-6.933" transform="translate(1.465 13.342)" fill="#fefefe"/>
          <path id="Trazado_901105" data-name="Trazado 901105" d="M31.377,57.828c1.781.356,4.73,1.59,4.809,3.69a54.123,54.123,0,0,1-.226,8.494c-.32,2.632-1.254,3.186-3.655,3.619-1.846.083-2.814.129-3.668-1.848a16.037,16.037,0,0,1-.448-10.431,5.272,5.272,0,0,1,3.188-3.524" transform="translate(12.525 26.31)" fill="#fefefe"/>
          <path id="Trazado_901106" data-name="Trazado 901106" d="M15.954,52.843c1.972-.194,2.792,1.174,3.421,2.85a20.046,20.046,0,0,1-.32,14.314c-.527.342-.918.236-1.627.259-1.179-.026-2.277.031-2.872-1.164A19.412,19.412,0,0,1,12.879,56.81a5.6,5.6,0,0,1,3.076-3.968" transform="translate(5.69 24.034)" fill="#fefefe"/>
          <path id="Trazado_901107" data-name="Trazado 901107" d="M24.873,20.075a7.01,7.01,0,0,1,3.21,1.609c.061.157.121.314.178.473,1.165,3.31.3,10.389-1.325,13.716a7.79,7.79,0,0,1-2.875.665c-1.545-.228-2.1-1.238-2.571-2.647-1.531-4.579-2.5-11.873,3.384-13.817" transform="translate(9.247 9.133)" fill="#fefefe"/>
          <path id="Trazado_901108" data-name="Trazado 901108" d="M46.158,45.584c-3.515-1.308-3.019-9.562-2.645-12.7,1.3-10.882,7.255-4.9,6.291,2.941-.3,2.453.384,4.391-.5,7.819.095,1.557-.562,3.234.22,4.189-.215.054-1.136.271-1.286.338-.547-.92-1.346-1.515-2.078-2.59" transform="translate(19.679 12.266)" fill="#fefefe"/>
          <path id="Trazado_901109" data-name="Trazado 901109" d="M45.249,40.366c1.532-.372,2.273-.626,3.144-1.937.095,1.557-.562,3.234.22,4.189-.215.054-1.136.271-1.286.338-.547-.92-1.346-1.515-2.078-2.59" transform="translate(20.588 17.484)" fill="#6c4b2f"/>
          <path id="Trazado_901110" data-name="Trazado 901110" d="M19.924,42.918a7.81,7.81,0,0,1,3.825,1.893c1.841,1.321,2.053,2.945,1.548,5.058-.77,3.229-.621,7.71-2.852,10.293-5.6,3.742-6.54-12.594-2.521-17.243" transform="translate(7.945 19.526)" fill="#fefefe"/>
          <path id="Trazado_901111" data-name="Trazado 901111" d="M39.755,19.542c4.3,1.771,4.084,15.691,1.922,19.295a2.687,2.687,0,0,1-1.528-.01c-4-1.16-3.712-4.313-3.732-7.822-.025-4.484-.975-8.758,3.338-11.462" transform="translate(16.521 8.891)" fill="#fefefe"/>
          <path id="Trazado_901112" data-name="Trazado 901112" d="M6.138,44.813c4.365-.148,4.518,4.638,4.561,7.793a16.332,16.332,0,0,1-.743,6.352c-.531,1.336-1.609,1.6-2.837,2.1a5.5,5.5,0,0,1-1.566.276A2.615,2.615,0,0,1,4.32,60.108C2.126,56.155,1.584,47.435,6.138,44.813" transform="translate(1.217 20.387)" fill="#fefefe"/>
          <path id="Trazado_901113" data-name="Trazado 901113" d="M31.934,18.9a5.715,5.715,0,0,1,1.857.592c3.125,1.5,2.7,5.383,2.395,8.251a17.269,17.269,0,0,1-1.622,6.409c-.493.889-.922.944-1.88,1.173-.112.01-.224.016-.336.02-4.08.138-4.042-7.036-4.052-9.8-.01-3.386,1.307-4.519,3.639-6.645" transform="translate(12.874 8.598)" fill="#fefefe"/>
          <path id="Trazado_901114" data-name="Trazado 901114" d="M33.552,45.482c5.088-.553,4.352,4.438,4.372,7.8a12.738,12.738,0,0,1-3.169,8.634c-4.144-.316-4.5-5.231-4.3-8.4.186-3.064-.311-6.662,3.1-8.027" transform="translate(13.837 20.674)" fill="#fefefe"/>
          <path id="Trazado_901115" data-name="Trazado 901115" d="M75.511,89.919c1.836-3.32,4.9-5.463,7.569-8.13,3.91-3.9,7.847-8.158,12.284-11.493a10,10,0,0,1,4.26-1.336l-2.6,2.616c-.2,1.558-2.828,2.539-2.682,4.657l.208.079A29.159,29.159,0,0,1,97.1,73.805l.338.015c-1.71,2.126-5.862,5.958-7.963,8.164-.486-.265-.559-.431-1.023-.265-1.477.53-4.636,4.7-6.016,4.592-2.513,2.465-3.6,2.789-6.927,3.608" transform="translate(34.356 31.375)" fill="#e7e7e8"/>
          <path id="Trazado_901116" data-name="Trazado 901116" d="M94.856,70.758c-.2,1.558-2.828,2.537-2.682,4.656l.208.079a29.371,29.371,0,0,1,2.555-2.507l.336.015c-1.708,2.127-5.861,5.96-7.963,8.164-.485-.263-.557-.429-1.021-.263-1.477.53-4.636,4.7-6.016,4.592.522-1.3,12.8-13.09,14.583-14.735" transform="translate(36.523 32.193)" fill="#6c4b2f"/>
          <path id="Trazado_901117" data-name="Trazado 901117" d="M24.793,33a6.366,6.366,0,0,1,3.162.432,16.723,16.723,0,0,1,.617,6.207c-.195,3.672-.5,6.785-3.274,9.383-3.5-.986-4.081-7.813-3.876-10.723.258-3.653-.53-4.636,3.371-5.3" transform="translate(9.73 14.991)" fill="#fefefe"/>
          <path id="Trazado_901118" data-name="Trazado 901118" d="M27.38,44.575c1.1.054,3.553.081,3.87,1.369.876,3.552-.077,8.484-1.245,11.894-.514,1.5-.885,2.228-2.238,2.844-2.105.621-3.4-1.832-4.061-3.432,1.039-3.931,1.056-9.872,3.674-12.676" transform="translate(10.786 20.28)" fill="#fefefe"/>
          <path id="Trazado_901119" data-name="Trazado 901119" d="M32.338,33.222c2.823-.5,2.989,2.4,3.165,4.579.244,3.013.089,7.439-1.595,10.013-.391.6-1.293.663-1.931.7-5.028-1.363-3.576-9.172-3.253-13.152Z" transform="translate(12.867 15.089)" fill="#fefefe"/>
          <path id="Trazado_901120" data-name="Trazado 901120" d="M165.519,76.668a39.578,39.578,0,0,1,8.57-5.864c-2.738,6.2-7.647,7.307-9.927,12.033-1.32.556-2.4,1.008-3.776,1.454a31.843,31.843,0,0,1-6.9-.019l-.007-.319c2.057-2.746,6.632-6.929,10.006-7.547a11.279,11.279,0,0,1,1.069-.973c.519.514.3.736.969,1.235" transform="translate(69.828 32.214)" fill="#cbd0d0"/>
          <path id="Trazado_901121" data-name="Trazado 901121" d="M163.481,74.96a11.66,11.66,0,0,1,1.069-.975c.519.514.3.738.968,1.237a47.592,47.592,0,0,0-5.941,7.109l.033.265a8.017,8.017,0,0,0,.776.249,31.845,31.845,0,0,1-6.9-.02l-.009-.317c2.06-2.747,6.632-6.93,10.007-7.547" transform="translate(69.828 33.661)" fill="#fff"/>
        </g>
      </g>
      <g id="Grupo_1129327" data-name="Grupo 1129327" transform="translate(259.851 103.923)">
        <g id="Grupo_1129326" data-name="Grupo 1129326" clip-path="url(#clip-path-8)">
          <rect id="Rectángulo_415869" data-name="Rectángulo 415869" width="19.986" height="23.629" transform="translate(-4.867 9.964) rotate(-63.962)" fill="url(#linear-gradient-4)"/>
        </g>
      </g>
      <g id="Grupo_1129329" data-name="Grupo 1129329" transform="translate(0 0)">
        <g id="Grupo_1129328" data-name="Grupo 1129328" clip-path="url(#clip-path)">
          <path id="Trazado_901123" data-name="Trazado 901123" d="M178.594,82.109c.116-.16.234-.32.354-.479,1.733-2.316,6.668-6.771,9.491-7.179.01,2.075-.746,2.853-2.025,4.422-1.032.883-2.271,2.319-2.948,2.863a12.189,12.189,0,0,1-4.062.655,2.977,2.977,0,0,1-.809-.282" transform="translate(81.257 33.873)" fill="#e7e7e8"/>
          <path id="Trazado_901124" data-name="Trazado 901124" d="M184.891,77.491l.143.751c-.864,1.4-.87,1.657-2.344,2.311.125.223.045.16.182.239-.177.145-.057.074-.4.125l-.525-.562c.678-.546,1.918-1.982,2.949-2.863" transform="translate(82.78 35.257)" fill="#6c4b2f"/>
          <path id="Trazado_901125" data-name="Trazado 901125" d="M185.994,74.451c.3.834.179.969,1.158,1.163a50.024,50.024,0,0,0-3.041,4.01l-.143-.751c1.279-1.568,2.036-2.347,2.025-4.422" transform="translate(83.703 33.873)" fill="#7b7b7f"/>
          <path id="Trazado_901126" data-name="Trazado 901126" d="M75.767,82.536c6.075-5.34,6.236-8.176,15-9.94a140.129,140.129,0,0,1-10.985,11.35c-3.632,3.185-3.669,4.686-8.995,4.457l.739-1.4c1.362-1.465,2.954-2.98,4.238-4.471" transform="translate(32.208 33.029)" fill="#fefefe"/>
          <path id="Trazado_901127" data-name="Trazado 901127" d="M126.731,69.659c-2.236,2.741-5.493,5.6-7.973,8.24a83.055,83.055,0,0,1-7.634,7.761,19.506,19.506,0,0,1-4.378,1.563l-.135-.291c.463-2,3.56-4.317,5-5.814,2.861-2.875,5.688-5.99,8.792-8.6,1.347-1.133,3.44-2.076,4.944-3.2l.18-.135a9.541,9.541,0,0,1,1.208.483" transform="translate(48.506 31.473)" fill="#e7e7e8"/>
          <path id="Trazado_901128" data-name="Trazado 901128" d="M81.93,66.39a1.012,1.012,0,0,1,.631.045l-.048.247c-4,3.592-11.672,11.892-16.323,13.9-.547-.057-.332.054-.7-.266-.244-2.19,7.973-9.086,9.695-10.607A13.575,13.575,0,0,1,81.93,66.39" transform="translate(29.794 30.192)" fill="#e7e7e8"/>
          <path id="Trazado_901129" data-name="Trazado 901129" d="M68.71,62.867l.252.08-.081.291C65.651,66.1,59.586,73.3,55.941,74.337l-.262-.326c-.643-3.162,1.758-6.478,4.471-7.754a45.748,45.748,0,0,1,8.56-3.39" transform="translate(25.285 28.603)" fill="#fefefe"/>
          <path id="Trazado_901130" data-name="Trazado 901130" d="M64.587,73.972c.172,2.239-10.3,12.184-13.288,12.411a16.518,16.518,0,0,0-2.914,1l.025-.217a17.4,17.4,0,0,1,2.069-2.14c4.764-4.749,7.714-8.306,14.109-11.054" transform="translate(22.014 33.656)" fill="#fefefe"/>
        </g>
      </g>
      <g id="Grupo_1129331" data-name="Grupo 1129331" transform="translate(184.079 107.142)">
        <g id="Grupo_1129330" data-name="Grupo 1129330" clip-path="url(#clip-path-10)">
          <rect id="Rectángulo_415871" data-name="Rectángulo 415871" width="17.032" height="16.757" transform="matrix(0.755, -0.656, 0.656, 0.755, -5.372, 4.553)" fill="url(#linear-gradient-5)"/>
        </g>
      </g>
      <g id="Grupo_1129333" data-name="Grupo 1129333" transform="translate(0 0)">
        <g id="Grupo_1129332" data-name="Grupo 1129332" clip-path="url(#clip-path)">
          <path id="Trazado_901132" data-name="Trazado 901132" d="M130.845,76.419a6.828,6.828,0,0,1,.764-1.042c.733-.182,1.064.17,1.849.589-3.234,1.291-2.789,1.58-5.223,3.962a3.018,3.018,0,0,1-.367-1.494c-.22-2.21,1.513-2.053,2.977-2.015" transform="translate(58.169 34.273)" fill="#6c4b2f"/>
          <path id="Trazado_901133" data-name="Trazado 901133" d="M66.806,85.822a5.628,5.628,0,0,1,.163-.639c.738-2.389,8.016-8.321,10.067-7.674l-.131.47c-.061,1.155.1.9-.684,1.743a5.269,5.269,0,0,0-.93,2.3c1.021-.517,1.321-1.538,2.12-1.852l.169.148c-1.285,1.491-2.875,3.006-4.238,4.471l-.738,1.4c-1.058-.188-2.625.393-3.864-.115a9.863,9.863,0,0,0-1.934-.253" transform="translate(30.396 35.243)" fill="#fefefe"/>
          <path id="Trazado_901134" data-name="Trazado 901134" d="M69.268,85.136l.2-.115c1.209-.674,6.313-5.987,7.434-7.2-.061,1.155.1.9-.682,1.743a5.285,5.285,0,0,0-.931,2.3c1.023-.517,1.321-1.538,2.121-1.851l.169.147c-1.285,1.491-2.876,3.006-4.238,4.471l-.738,1.4c-1.058-.188-2.626.393-3.864-.115a9.892,9.892,0,0,0-1.934-.253c.819-.164,1.644-.348,2.462-.524" transform="translate(30.396 35.405)" fill="#6c4b2f"/>
          <path id="Trazado_901135" data-name="Trazado 901135" d="M69.268,83.033c2.5.54,2.537-.975,4.074-.5l-.738,1.4c-1.058-.188-2.626.393-3.864-.115a9.892,9.892,0,0,0-1.934-.253c.819-.164,1.644-.348,2.462-.524" transform="translate(30.396 37.507)" fill="#6c4b2f"/>
          <path id="Trazado_901136" data-name="Trazado 901136" d="M107.108,76.6c1.2-.116,1.269-.378,1.972.741l.777.358c-2.45,2.348-3.306,4.384-4.816,5.867.2-.61.39-.589.358-1.187q-.615.423-1.225.853c-.464.439-1.186,1.075-1.6,1.52a11.1,11.1,0,0,1-4.192.439l-.614.02c-1.117-1.622,7.925-7.725,9.345-8.611" transform="translate(44.437 34.802)" fill="#e7e7e8"/>
        </g>
      </g>
      <g id="Grupo_1129335" data-name="Grupo 1129335" transform="translate(148.612 111.291)">
        <g id="Grupo_1129334" data-name="Grupo 1129334" clip-path="url(#clip-path-12)">
          <rect id="Rectángulo_415873" data-name="Rectángulo 415873" width="8.318" height="8.906" transform="matrix(0.886, -0.464, 0.464, 0.886, -2.909, 1.525)" fill="url(#linear-gradient-6)"/>
        </g>
      </g>
      <g id="Grupo_1129337" data-name="Grupo 1129337" transform="translate(0 0)">
        <g id="Grupo_1129336" data-name="Grupo 1129336" clip-path="url(#clip-path)">
          <path id="Trazado_901138" data-name="Trazado 901138" d="M101.42,81.123c.263-.272,1.593-1.346,1.945-1.643a5.438,5.438,0,0,1-.7,2.393c-.464.438-1.186,1.074-1.6,1.52a2.755,2.755,0,0,1,.358-2.271" transform="translate(45.944 36.162)" fill="#8f9090"/>
          <path id="Trazado_901139" data-name="Trazado 901139" d="M98.155,83.318c.533-.125,2.212-.207,2.446-.509a10.876,10.876,0,0,1,1.874-2.012l.23-.188a2.749,2.749,0,0,0-.356,2.271,11.107,11.107,0,0,1-4.193.438" transform="translate(44.659 36.675)" fill="#8f9090"/>
          <path id="Trazado_901140" data-name="Trazado 901140" d="M72.585,70.332a2.664,2.664,0,0,1,.928.451c-3.544,3.307-7.3,7.755-11.266,10.592a22.731,22.731,0,0,1-4.519,1.993c3-3.758,7.921-9.281,11.972-11.915a14.36,14.36,0,0,1,2.885-1.122" transform="translate(26.265 31.999)" fill="#fefefe"/>
          <path id="Trazado_901141" data-name="Trazado 901141" d="M107.82,79.392a59.941,59.941,0,0,1,8.515-6.616c-1.2,2.031-3.354,4.023-4.865,5.9a38.152,38.152,0,0,1-2.8,3.623,35.233,35.233,0,0,0-4.314,3.93,5.876,5.876,0,0,1-2.089.426l-.115-.246A7.134,7.134,0,0,1,103,85.257c1.51-1.481,2.366-3.517,4.817-5.865" transform="translate(46.475 33.111)" fill="#fff"/>
          <path id="Trazado_901142" data-name="Trazado 901142" d="M150.521,79.507c.533-.812,1.912-1.115,2.952-1.641a22.81,22.81,0,0,0-.227,3.438c.384.01.739.019,1.123.045l-.013.351c-.944.844-1.858.16-3.048.141-.838.089-1.715.182-1.9-.764a3.873,3.873,0,0,1,1.11-1.57" transform="translate(67.979 35.427)" fill="#6c4b2f"/>
          <path id="Trazado_901143" data-name="Trazado 901143" d="M126.357,79.079c.461.339.637,1.568.829,2.274a52.18,52.18,0,0,1-5.642,1.35l-.445-.035-.052-.322c1.014-1.116,3.838-2.4,5.311-3.268" transform="translate(55.074 35.979)" fill="#cbd0d0"/>
        </g>
      </g>
      <g id="Grupo_1129339" data-name="Grupo 1129339" transform="translate(250.798 115.544)">
        <g id="Grupo_1129338" data-name="Grupo 1129338" clip-path="url(#clip-path-14)">
          <rect id="Rectángulo_415875" data-name="Rectángulo 415875" width="9.981" height="3.069" transform="translate(-0.239 0.039) rotate(-9.064)" fill="url(#linear-gradient-7)"/>
        </g>
      </g>
      <g id="Grupo_1129341" data-name="Grupo 1129341" transform="translate(0 0)">
        <g id="Grupo_1129340" data-name="Grupo 1129340" clip-path="url(#clip-path)">
          <path id="Trazado_901145" data-name="Trazado 901145" d="M150.654,81.6a1.478,1.478,0,0,1,1.155.652l-.049.338c-.646.21-.952,0-1.682-.217-.522.352-.391.413-.639,1.189l-.291.08a2.112,2.112,0,0,0,.338-1.2c-.15-.1-.3-.211-.445-.32-.678-.506-.578-.431-.679-1.135-1.078.262-1.392,1.414-2.667.96a8.993,8.993,0,0,1,4.046-1.336Z" transform="translate(66.288 36.675)" fill="#6c4b2f"/>
          <path id="Trazado_901146" data-name="Trazado 901146" d="M148.78,80.614l.914.988c-.658.514-.633.41-1.327.336-.559-.388-.406-.138-.563-.714.324-.543.191-.367.976-.61" transform="translate(67.248 36.678)" fill="#6c4b2f"/>
          <path id="Trazado_901147" data-name="Trazado 901147" d="M92.267,83.358c1.229-.611,1.942-1.27,3.134-1.814.812-.372,1.2-.039,1.958.291l-.3.794a15.765,15.765,0,0,1-4.794.729" transform="translate(41.98 37.026)" fill="#8f9090"/>
          <path id="Trazado_901148" data-name="Trazado 901148" d="M65.05,81.353c.688.061,1.093.08,1.455.646-.167.671-.873,1.227-1.4,1.749a5.971,5.971,0,0,1-1.452-.441l-.129-.419a5.4,5.4,0,0,1,1.526-1.535" transform="translate(28.902 37.014)" fill="#cbd0d0"/>
          <path id="Trazado_901149" data-name="Trazado 901149" d="M95.86,81.993a5.686,5.686,0,0,1,2.078-.963l.434.127c.191,1.286-1.419,1.9-2.546,1.681l-.263-.049Z" transform="translate(43.479 36.867)" fill="#6c4b2f"/>
          <path id="Trazado_901150" data-name="Trazado 901150" d="M145.918,79.286a12.741,12.741,0,0,0,2.241.544c-.237.5-.263.381-.858.713a2.836,2.836,0,0,1-.484.65c-.895-.4-1.261-.956-.9-1.907" transform="translate(66.327 36.073)" fill="#6c4b2f"/>
          <path id="Trazado_901151" data-name="Trazado 901151" d="M202.338,77.881c.71.092.736.172,1.069.733A1.917,1.917,0,0,1,203.124,80c-.412-.343-.748-.633-1.139-1-.089-.656-.092-.416.354-1.116" transform="translate(91.878 35.434)" fill="#6c4b2f"/>
          <path id="Trazado_901152" data-name="Trazado 901152" d="M116.536,80.389c.179.055.413.169.591.246a6.2,6.2,0,0,1,.509,1.851l-.282.268c-.409-.506-.813-.835-1.219-1.387-.039-.636-.1-.383.4-.978" transform="translate(52.827 36.575)" fill="#6c4b2f"/>
          <path id="Trazado_901153" data-name="Trazado 901153" d="M201.412,78.192c.6.233.37.039.7.626-.161.663.016.409-.549.793a2.293,2.293,0,0,1-1.138-.57c.218-.544.343-.463.985-.848" transform="translate(91.191 35.576)" fill="#6c4b2f"/>
          <path id="Trazado_901154" data-name="Trazado 901154" d="M119.608,69.761l3.23-1.87q-1.019,1.17-2.022,2.353a9.674,9.674,0,0,0-1.208-.483" transform="translate(54.42 30.889)" fill="#cbd0d0"/>
          <path id="Trazado_901155" data-name="Trazado 901155" d="M193.1,71.152a6.536,6.536,0,0,1,1.414-1.445l.487.044-.194-.186.231.065a5.763,5.763,0,0,1-1.787,1.986Z" transform="translate(87.857 31.65)" fill="#6c4b2f"/>
          <path id="Trazado_901156" data-name="Trazado 901156" d="M67.939,70.625a13.763,13.763,0,0,1,2.73-.936,17.747,17.747,0,0,1-1.8,1.387,2.664,2.664,0,0,0-.928-.451" transform="translate(30.911 31.707)" fill="#7b7b7f"/>
          <path id="Trazado_901157" data-name="Trazado 901157" d="M193.682,70.656l.153.464-.986.965-1.032-.308c.645-.355,1.241-.733,1.865-1.12" transform="translate(87.273 32.147)" fill="#a4a8a8"/>
          <path id="Trazado_901158" data-name="Trazado 901158" d="M94.8,56.066l.242.23c-.089.537-.205.448-.816.9l-.167-.159c.017-.471.265-.521.742-.97" transform="translate(42.796 25.509)" fill="#6c4b2f"/>
          <path id="Trazado_901159" data-name="Trazado 901159" d="M162.931,24.019c.828-.036,1.148-.182,1.819.16a1.981,1.981,0,0,0,1.078,1.225c.813.065.39-.338,1.689-.287-6.91,3.86-14.608,7.5-21.675,11.151-10.272,5.314-20.592,10.549-30.821,15.947-7.436,3.924-6.028,7.787-14.413,10.492,2.65-1.99,4.761-2.888,6.05-6.021-4.321,2.152-8.646,4.185-12.874,6.517-1.662.917-3.571,1.707-5.2,2.7-3.232,1.97-4.992,4.742-8.736,6.077L79.65,71.9l.339-1.334c.343.182.166.164.534.057l-.029-.217c-.917-.5-1.83.4-2.618-.132a2.58,2.58,0,0,0-.681-1.272c-.824-.138-1.551-.065-1.752-.937.5-.377.61-.266,1.433-.223a27.887,27.887,0,0,0,6.2-.739l-.359-.176a9.178,9.178,0,0,0,2.85-2.366,13.97,13.97,0,0,1-4.227,1.609c-.268-.931-.674-1.922-.956-2.946C84.346,62.607,91.362,59,94.73,56.681c1.228-.845,4.529-4.831,6.139-4.135a6.136,6.136,0,0,0,.051,1.093c.537.153,3.357-1.133,4.029-1.413,16.548-6.9,32.224-15.535,48.327-23.348,3.246-1.574,6.361-3.4,9.655-4.858" transform="translate(34.326 10.9)" fill="#ab7138"/>
          <path id="Trazado_901160" data-name="Trazado 901160" d="M108.367,67.749l58.112-26.516L190.9,30.213c2.226-1,4.566-1.921,6.763-2.962,4.409-2.092,8.74-4.4,13.09-6.607q8.276-4.184,16.673-8.122C233.4,9.707,236.118,7.747,243,6.337c-2.238,1.275-5.414,2.369-7.829,3.469q-7.111,3.322-14.115,6.865c-6.6,3.342-13.237,6.629-19.811,10.006-4.7,2.612-9.328,5.264-14.17,7.607-2.76,1.336-5.562,2.584-8.325,3.918L150.811,51.677l-21.3,10.349c-2.629,1.295-7.564,3.528-9.782,4.951-2.712,3.119-2.86,3.709-6.9,5.75-.474-.854-.063-1.454-.7-2.1l-.375.15a2.917,2.917,0,0,1-.716,1.01c-.645-.017-.434,0-1.049-.49l-.327-.115-.551.333a2.373,2.373,0,0,1-1.347-.374c-1.2-.5-2.494-.284-3.243-1.451.832-1.131.838-.736,2.02-1.053a15.067,15.067,0,0,0,1.823-.889" transform="translate(47.557 2.883)" fill="#ab7138"/>
          <path id="Trazado_901161" data-name="Trazado 901161" d="M111.585,49.52l.141-.128.391.282c1.819.089,2.37-2.842,5.034-1.557-2.711,3.121-2.86,3.709-6.9,5.752-.469-2.37,2.487-1.27,1.333-4.349" transform="translate(50.14 21.744)" fill="#6c4b2f"/>
          <path id="Trazado_901162" data-name="Trazado 901162" d="M112.457,48.979c1.154,3.079-1.8,1.979-1.333,4.349-.473-.856-.063-1.454-.7-2.1l-.374.15a2.942,2.942,0,0,1-.716,1.011c-.645-.019-.434,0-1.05-.492a7.49,7.49,0,0,0,4.174-2.917" transform="translate(49.267 22.284)" fill="#7b7b7f"/>
          <path id="Trazado_901163" data-name="Trazado 901163" d="M242.037,15.186v1.279a12.036,12.036,0,0,0-4.729.762c-5.987,2.366-11.814,5.674-17.637,8.421-15.333,7.231-30.352,15.213-45.895,21.979-3.3,1.438-7.26,3.736-10.329,4.9l-.109-.23c-2.425.969-5.706,2.833-8.151,3.994l-7.861,3.779a50.759,50.759,0,0,1-5.11,2.319l.253.227c-3.568,2.036-6.3,2.9-9.772,5.615l-1.112.419c-.656-.493-.784-1.016-1.646-.86a3.65,3.65,0,0,0-2.853,2.258,2.319,2.319,0,0,1-.963.359c-.845.458-1.672.931-2.553,1.314-.738-.512-3.006,1.509-4.783,1.683l.263-.406c-.34-.3-.535-.407-.659-.841.262-1.206,1-1.152,1.6-1.906a5.945,5.945,0,0,0,1.408-1.384,23.912,23.912,0,0,1,5.6-2.529c3.406-1.286,9.354-3.475,12.084-5.826.8.087.786.164,1.486-.217l1.017-.562c6.491-2.241,15.174-6.878,21.74-9.841q20.585-9.051,41-18.48c6.3-2.98,12.543-6.085,18.957-8.829,5.83-2.5,12.379-7.038,18.746-7.4" transform="translate(53.867 6.909)" fill="#6c4b2f"/>
          <path id="Trazado_901164" data-name="Trazado 901164" d="M142.749,15.705c2.168-.063,7.615-3.441,8.985-3.025l-.015.25c-1.385.224-9.325,3.994-9.9,5.116C134.482,22.075,127.3,26.5,119.791,30.2c-5.977,2.948-12.018,5.859-18.062,8.673C98.342,40.453,94.96,42.507,91.49,43.9l-.1-.228c1.945-1.512,7.368-3.2,9.58-4.864.685-.515,4.224-.776,3.394-2.673-.467-1.067-2.393-1.014-3.157-.356-2.34,1.315-4.915,2.507-7.31,3.633l-.218-.246c.493-.387,7.448-3.661,8.3-4.056l17.46-8.209c6.277-2.993,12.322-6.361,18.779-9.006,1.477-.605,3.013-1.632,4.528-2.191" transform="translate(41.583 5.753)" fill="#ab7138"/>
          <path id="Trazado_901165" data-name="Trazado 901165" d="M186.328,8.964a6.712,6.712,0,0,0,1.861-.313l.076.047a4.606,4.606,0,0,0-1.4,1.042c-1.481.768-3.14,1.352-4.669,2.046-8.584,3.895-17.284,7.966-25.763,12.06q-4.71,2.274-9.313,4.756c-1.3.693-5.821,3.128-6.964,3.479-1.3-.051-.876.354-1.689.288a1.979,1.979,0,0,1-1.08-1.225c-.669-.343-.989-.2-1.819-.16,2.782-1.624,6.16-2.942,9.014-4.455a182.359,182.359,0,0,1,29.481-12.158c3.856-1.257,8.212-4.291,12.261-5.407" transform="translate(61.683 3.936)" fill="#ab7138"/>
          <path id="Trazado_901166" data-name="Trazado 901166" d="M126.979,18.214c1.125-.8,7.311-3.109,8.964-3.748,3.846-1.49,7.652-3.162,11.48-4.726,2.236-.914,4.612-1.628,6.892-2.609,1.666.946,1.312-.067,2.591,1.026l.2-.01.1.16a62.873,62.873,0,0,1-6.969,2.408q-4.537,1.414-9.009,3.025a103.074,103.074,0,0,0-13.018,5.683c-.7.372-1.44.81-2.158,1.132.57-1.122,8.51-4.892,9.9-5.116l.015-.25c-1.369-.416-6.817,2.962-8.985,3.025" transform="translate(57.352 3.244)" fill="#ab7138"/>
          <path id="Trazado_901167" data-name="Trazado 901167" d="M34.5,3.852l1.072.111c.271,1.049-.486,2.786-.489,4.569a10.2,10.2,0,0,0-.674,3.1c-.953-1.179-.679-1.921-1.343-2.8l-.544.006-.525.4a3.5,3.5,0,0,0-.889,2.2c-1.263-3.208-2.181-3.613-4.342-6.16-.195-.231,0-.524.112-.752a4.532,4.532,0,0,1,2.1-.489c1.849-.093,3.731-.095,5.523-.189" transform="translate(12.14 1.752)" fill="#6c4b2f"/>
          <path id="Trazado_901168" data-name="Trazado 901168" d="M29.117,5.006a26.405,26.405,0,0,1,3.656-.058c-.244,1.595-.23,2.229-1.36,3.41l-.525.4-.448-.2a6.838,6.838,0,0,1-1.323-3.555" transform="translate(13.248 2.235)" fill="#e7e7e8"/>
          <path id="Trazado_901169" data-name="Trazado 901169" d="M59.827,18.9c5.4-2.161,10.22-4.087,15.693-6.032,6.015-2.137,10.837-5.325,17.712-5.335-1.685.738-3.242,1.065-4.963,1.647-2.727.924-5.461,2-8.176,2.954C73.4,14.482,66.821,17.545,60.1,19.723c-.041-.627.074-.372-.276-.819" transform="translate(27.22 3.428)" fill="#6c4b2f"/>
          <path id="Trazado_901170" data-name="Trazado 901170" d="M118.306,6.817c1.117.5.873,1.52,2.327.423l.7.829c-4.564,2.027-9.006,3.466-13.661,5.218-1.1.413-3.28,1.7-4.478,2.281-.2-.8,2.178-1.144,2.632-2.13-1.366.226-2.613,1.075-3.824.761a70.587,70.587,0,0,0,8.218-3.71c2.954-1.4,5.3-1.6,8.087-3.672" transform="translate(46.409 3.101)" fill="#6c4b2f"/>
          <path id="Trazado_901171" data-name="Trazado 901171" d="M53.219,18.717l.3.026c.525.08,1.254.077,1.513.4-.21.377-.956,1.665-1.058,1.992-3.444,1.228-2.574,1.951-4.039,4.414-.917.629-.013.957-1.846,1.651l-.3-.32a3.186,3.186,0,0,1,.08-1.321c1.034-2.133,1.785-4.192,2.639-6.4a5.737,5.737,0,0,0,2.711-.45" transform="translate(21.723 8.515)" fill="#6c4b2f"/>
          <path id="Trazado_901172" data-name="Trazado 901172" d="M56.437,6.171a13.581,13.581,0,0,0,2.769-.287c-1.471,2.989-8.759,2.142-10.573,4.868a6,6,0,0,0-.14,1.068l-.877.645-.831-.451a1.17,1.17,0,0,0,.128-.5c-.3-.592-1.155-.947-1.839-1.564l-.125-.115c.725-.156,1.871-.727,2.716-.94a75.6,75.6,0,0,0,8.772-2.721" transform="translate(20.451 2.677)" fill="#6c4b2f"/>
          <path id="Trazado_901173" data-name="Trazado 901173" d="M49.7,21.893c.345-3.1-.374-7.711-.143-9.113l.2-.055c2.134.976,2.073,5.706,2.161,7.7.028.642.044.659.5,1.02a5.737,5.737,0,0,1-2.711.45" transform="translate(22.528 5.789)" fill="#6c4b2f"/>
          <path id="Trazado_901174" data-name="Trazado 901174" d="M53.082,19.012l.227.2a5.1,5.1,0,0,1,3.131,1.161c.911.765,3.32,2.607,2.036,3.8a2.432,2.432,0,0,1-1.451.035c-2.283-1.73-2.056-2.817-5-3.2.1-.327.848-1.615,1.058-1.992" transform="translate(23.67 8.65)" fill="#6c4b2f"/>
          <path id="Trazado_901175" data-name="Trazado 901175" d="M87.415,68.127c.345-1.381.007-1.349,1.112-2.638,1.969-2.3,4.922-3.632,7.53-5.124a18.823,18.823,0,0,1-1.439,1.877c-1.077,1.221-5.178,4.406-5.664,5.7l.119.374-.812.3c-.677-.115-.4.041-.845-.49" transform="translate(39.772 27.465)" fill="#6c4b2f"/>
          <path id="Trazado_901176" data-name="Trazado 901176" d="M63.836,60.987q3.32-2.955,6.428-6.137c2.194-2.219,6.94-7.692,9.258-8.807-1.5,1.877-3.284,3.632-4.9,5.434-1.292,1.442-2.594,3.151-3.926,4.5l-.381-.4c-1.388.45-4.7,5.287-6.479,5.413" transform="translate(29.044 20.948)" fill="#6c4b2f"/>
          <path id="Trazado_901177" data-name="Trazado 901177" d="M40,6.375c-1.612-.7-3.776-1.151-3.246-3.514a14.256,14.256,0,0,1,2.99-.243c.639.33.623.22.711,1l-.482.138c-.314.876,2.552,9.3,1.109,11.1A23.2,23.2,0,0,0,40,6.375" transform="translate(16.686 1.191)" fill="#6c4b2f"/>
          <path id="Trazado_901178" data-name="Trazado 901178" d="M19.729,7.3c.837-.348,1.32.063,2,.559a3.268,3.268,0,0,0-1.515,1.317l.058.237A5.881,5.881,0,0,1,22.5,9.347a9.373,9.373,0,0,0,.486,1.12,4.021,4.021,0,0,1-.972,2.066,3.292,3.292,0,0,1-2.524-1.618c-.092-.732-.367-1.548-.492-2.457.265-.327.508-.582.793-.89Z" transform="translate(8.642 3.261)" fill="#e7e7e8"/>
          <path id="Trazado_901179" data-name="Trazado 901179" d="M117.474,53.59a22.888,22.888,0,0,1,5.8-4.131c-.627,1.018-1.976,2.709-1.452,3.816a5.917,5.917,0,0,1-1.408,1.384,7.118,7.118,0,0,0-2.03.452.9.9,0,0,1-.281-.521c-.2-.266-.45-.707-.631-1" transform="translate(53.449 22.503)" fill="#6c4b2f"/>
          <path id="Trazado_901180" data-name="Trazado 901180" d="M19.711,9.744a3.292,3.292,0,0,0,2.524,1.618c.851.359.658.135,1.069.813l-.258,1.977L21.26,14.7c-1.055-2.038-1.023-3.025-2.76-4.608a4.294,4.294,0,0,1,1.211-.346" transform="translate(8.417 4.433)" fill="#6c4b2f"/>
          <path id="Trazado_901181" data-name="Trazado 901181" d="M170.456,10.222c1.282-.629,9.776-4.494,10.547-4.33C179.381,7.52,173.279,10.307,171,11a4.606,4.606,0,0,1,1.4-1.042l-.076-.047a6.712,6.712,0,0,1-1.861.313" transform="translate(77.555 2.678)" fill="#6c4b2f"/>
          <path id="Trazado_901182" data-name="Trazado 901182" d="M28.278,4.6c-.064-.892-.154-.6.2-1.353,1.1-.883,3.827-.565,5.394-.537l-.071,1.7c-1.793.095-3.674.1-5.523.189" transform="translate(12.839 1.196)" fill="#fff"/>
          <path id="Trazado_901183" data-name="Trazado 901183" d="M63.52,15.349c.351.447.236.192.276.819C61.579,17,54.774,19.3,53.451,20.881l-.227-.2c-.259-.326-.988-.324-1.513-.4a7.849,7.849,0,0,0,2.994-1.049,68.523,68.523,0,0,1,8.814-3.878" transform="translate(23.528 6.983)" fill="#6c4b2f"/>
          <path id="Trazado_901184" data-name="Trazado 901184" d="M20.636,7.258l.058.269c-.285.308-.528.563-.793.89.125.909.4,1.726.492,2.457a4.3,4.3,0,0,0-1.211.346l-1.042-.89c-.8-.629-1.215-.789-1.129-1.833.725-.938,2.421-1.026,3.624-1.24" transform="translate(7.735 3.302)" fill="#6c4b2f"/>
          <path id="Trazado_901185" data-name="Trazado 901185" d="M13.113,11.694a2.44,2.44,0,0,1,1.616.386l.162.463c-1.291,3.274-.848,3.495-1.376,6.434-.036-1.763-.022-1.628-1.516-2.517.809-.883,1.067-3.569,1.115-4.765" transform="translate(5.459 5.32)" fill="#6c4b2f"/>
          <path id="Trazado_901186" data-name="Trazado 901186" d="M103.484,50.828c1.148-1.08,2.022-3.786,4.289-2.9a4.419,4.419,0,0,1,1.067.979,15.286,15.286,0,0,1-1.823.889c-1.181.317-1.187-.077-2.02,1.053a1.959,1.959,0,0,1-1.513-.02" transform="translate(47.083 21.726)" fill="#6c4b2f"/>
          <path id="Trazado_901187" data-name="Trazado 901187" d="M106.83,47.873a4.413,4.413,0,0,1,1.067.978,15.163,15.163,0,0,1-1.822.89c-.425-.146-.244-.035-.517-.386.375-.915.986-.486,1.272-1.483" transform="translate(48.027 21.781)" fill="#a4a8a8"/>
          <path id="Trazado_901188" data-name="Trazado 901188" d="M41.573,11.164A17.255,17.255,0,0,1,46.485,8.6l.124.113c.685.617,1.541.972,1.839,1.566a1.189,1.189,0,0,1-.127.5,4.434,4.434,0,0,0-4.336,1.66A21.1,21.1,0,0,1,42.5,14c.032-1.758,2.961-2.648,3.272-3.892l-.282-.375c-1.561-.573-2.012,1.478-3.915,1.429" transform="translate(18.915 3.911)" fill="#6c4b2f"/>
          <path id="Trazado_901189" data-name="Trazado 901189" d="M34.276,2.661c1.277.285.808.346,1.765,1.069-.5.217-1.167.534-1.664.7-.3.02-.976.08-1.248.074L32.054,4.4l.073-1.7Z" transform="translate(14.584 1.21)" fill="#e7e7e8"/>
          <path id="Trazado_901190" data-name="Trazado 901190" d="M32.127,2.693l2.149-.033A3.683,3.683,0,0,0,33.1,3.981l.194.311a5.178,5.178,0,0,0,1.083.14c-.3.019-.976.08-1.248.073l-1.074-.111Z" transform="translate(14.584 1.21)" fill="#fff"/>
          <path id="Trazado_901191" data-name="Trazado 901191" d="M85.714,62.417C87,61.369,88.138,62,89.323,61.058a28.915,28.915,0,0,1-3.783,4.529l-1.189.047c.956-.559,2-1.174,2.124-2.363-.242-.691-.057-.451-.761-.854" transform="translate(38.378 27.78)" fill="#7b7b7f"/>
          <path id="Trazado_901192" data-name="Trazado 901192" d="M82.841,47.9c-.762.858-3.48,3.6-3.664,4.441-.812-.4-.522-.169-1.075-1.005A12.1,12.1,0,0,1,82.841,47.9" transform="translate(35.535 21.791)" fill="#6c4b2f"/>
          <path id="Trazado_901193" data-name="Trazado 901193" d="M145.478,7.505a3.832,3.832,0,0,0,1.48-1.165c1.2-.266,2.27,1.461,1.413,2.341l-.1-.16-.2.01c-1.279-1.093-.925-.081-2.591-1.026" transform="translate(66.19 2.871)" fill="#ab7138"/>
          <path id="Trazado_901194" data-name="Trazado 901194" d="M47.658,9.963c.931.93,2.03,1.974,2.858,2.975a18.033,18.033,0,0,1-3.735-2.329Z" transform="translate(21.285 4.533)" fill="#6c4b2f"/>
          <path id="Trazado_901195" data-name="Trazado 901195" d="M132.619,46.809a6.588,6.588,0,0,1,.985-1.493c.7-.057.909.239,1.518.716l-1.017.56c-.7.383-.691.306-1.486.217" transform="translate(60.339 20.614)" fill="#ab7138"/>
          <path id="Trazado_901196" data-name="Trazado 901196" d="M113.207,6.924a14.088,14.088,0,0,1,3.694-.333,3.028,3.028,0,0,0-1.368.757c-1.454,1.1-1.209.074-2.327-.423" transform="translate(51.507 2.994)" fill="#a4a8a8"/>
          <path id="Trazado_901197" data-name="Trazado 901197" d="M22.037,9.436l.687.233-.589,2.648c-.41-.679-.217-.455-1.068-.815a4.031,4.031,0,0,0,.97-2.066" transform="translate(9.585 4.293)" fill="#6c4b2f"/>
          <path id="Trazado_901198" data-name="Trazado 901198" d="M116.173,6.588c.243.768-.127,1.058-.668,1.587l-.7-.831a3.023,3.023,0,0,1,1.366-.757" transform="translate(52.235 2.997)" fill="#7b7b7f"/>
          <path id="Trazado_901199" data-name="Trazado 901199" d="M151.665,6.662c3.365-2.041,5.082-2.29,8.84-2.2.658.016.6-.85,1.094-.8.083.985.07,1.916.07,2.9a60.793,60.793,0,0,0-9.517,1.267c-.65.425-.9.752-1.531.22l.009-.5c.266-.565.479-.607,1.034-.9" transform="translate(68.53 1.669)" fill="#ab7138"/>
          <path id="Trazado_901200" data-name="Trazado 901200" d="M151.665,5.726l.487,1.179c-.65.425-.9.752-1.531.22l.009-.5c.266-.565.479-.607,1.034-.9" transform="translate(68.53 2.605)" fill="#ab7138"/>
          <path id="Trazado_901201" data-name="Trazado 901201" d="M119.069,5.69c.518-.569,1.651-.42,2.631-.471.195.33.163.391.439.575a8.282,8.282,0,0,1-2.773.342Z" transform="translate(54.174 2.374)" fill="#ab7138"/>
          <path id="Trazado_901202" data-name="Trazado 901202" d="M86,44.7l.09.041.019.194a14.933,14.933,0,0,1-3.237,2.206l-.714-.224c-.412-.17-.271-.1-.61-.41.276-.642,3.419-1.26,4.452-1.806" transform="translate(37.101 20.339)" fill="#6c4b2f"/>
          <path id="Trazado_901203" data-name="Trazado 901203" d="M279.323,3.089c-7.739,0-15.552.071-23.2,1.3-2.58.372-5.142,1.743-7.771,1.036C243.3,4.1,238.563,2.179,233.3,2.3c-7.778-.167-15.2,2.59-22.459,5.088-7.807,1.627-15.762-.33-23.467-1.224-10.218-1.35-20.6-2.687-30.123,1.931a15.646,15.646,0,0,1-8.286.259c-2.714-.675-5.063-1.864-7.423-2.69-9.833-3.944-19.93.362-29.589,2.842-5.271,1.106-11.085,1.507-16.165-.824-2.564-1.138-4.684-2.882-6.761-4-2.58-1.516-5.619-1.391-8.455-.5-5.7,1.567-11.724,3.36-17.694,2.127C60.258,4.764,58.07,3.151,55.6,2.42,49.4.773,42.963,2.747,36.786,4.19L36.7,3.912C42.772,1.985,49.459-.453,56,1c3.672,1.116,6.969,3.234,10.9,2.762A57.124,57.124,0,0,0,79.861.882c3.3-1.17,7.24-1.314,10.387.419,2.508,1.291,4.478,2.837,6.7,3.733,4.368,1.961,9.486,1.573,14.366.512,2.1-.422,5.287-1.349,7.38-1.993,7.607-2.343,16.166-3.38,23.735-.308,4.74,1.938,9.094,4.266,14.188,2.631,14.855-6.585,31.058-.6,46.348.439A23.254,23.254,0,0,0,214.086,4.7C220.26,2.55,226.715.982,233.321,1.149c5.255-.047,10.306,2.025,15.2,3.422,2.575.71,4.961-.626,7.477-.9a76.827,76.827,0,0,1,7.77-.738c5.187-.258,10.374-.274,15.56-.135Z" transform="translate(16.699 0)" fill="#3e2d25"/>
        </g>
      </g>
    </g>
  </g>
</svg>
