<svg xmlns="http://www.w3.org/2000/svg" xmlns:xlink="http://www.w3.org/1999/xlink" width="216.404" height="202.609" viewBox="0 0 216.404 202.609">
  <defs>
    <clipPath id="clip-path">
      <rect id="Rectángulo_415815" data-name="Rectángulo 415815" width="216.402" height="202.609" transform="translate(33.544)" fill="none"/>
    </clipPath>
    <clipPath id="clip-path-2">
      <rect id="Rectángulo_415817" data-name="Rectángulo 415817" width="216.404" height="197.004" rx="7.074" fill="none"/>
    </clipPath>
  </defs>
  <g id="Grupo_1129404" data-name="Grupo 1129404" transform="translate(-7637.479 4389)">
    <g id="Grupo_1129400" data-name="Grupo 1129400">
      <g id="Grupo_1129235" data-name="Grupo 1129235" transform="translate(7603.936 -4389)">
        <g id="Grupo_1129234" data-name="Grupo 1129234" clip-path="url(#clip-path)">
          <path id="Trazado_898838" data-name="Trazado 898838" d="M232.87,201.3H34.933a9.233,9.233,0,0,1-9.233-9.233V13.527a9.233,9.233,0,0,1,9.233-9.233H232.87a9.233,9.233,0,0,1,9.233,9.233V192.065a9.233,9.233,0,0,1-9.233,9.233" transform="translate(7.844 1.311)" fill="#fff8e0"/>
        </g>
      </g>
      <g id="Grupo_1129237" data-name="Grupo 1129237" transform="translate(7637.479 -4383.396)">
        <g id="Grupo_1129236" data-name="Grupo 1129236" clip-path="url(#clip-path-2)">
          <rect id="Rectángulo_415816" data-name="Rectángulo 415816" width="237.959" height="49.575" transform="translate(-9.056 -5.605)" fill="#86c7c0"/>
          <path id="Trazado_898839" data-name="Trazado 898839" d="M111.044,148.773V96.093a8.189,8.189,0,0,0-8.189-8.189H61.213a8.189,8.189,0,0,0-8.189,8.189v52.68" transform="translate(-17.359 21.226)" fill="none" stroke="#fca43a" stroke-linecap="round" stroke-miterlimit="10" stroke-width="2"/>
          <path id="Trazado_898840" data-name="Trazado 898840" d="M164,148.773V96.093a8.189,8.189,0,0,0-8.189-8.189H114.172a8.189,8.189,0,0,0-8.189,8.189v52.68" transform="translate(-1.194 21.226)" fill="none" stroke="#fca43a" stroke-linecap="round" stroke-miterlimit="10" stroke-width="2"/>
          <path id="Trazado_898841" data-name="Trazado 898841" d="M216.961,148.773V96.093a8.189,8.189,0,0,0-8.189-8.189H167.13a8.189,8.189,0,0,0-8.189,8.189v52.68" transform="translate(14.97 21.226)" fill="none" stroke="#fca43a" stroke-linecap="round" stroke-miterlimit="10" stroke-width="2"/>
          <path id="Trazado_898842" data-name="Trazado 898842" d="M59.02,161.584V96.093A8.189,8.189,0,0,0,50.831,87.9H9.189A8.189,8.189,0,0,0,1,96.093v52.682" transform="translate(-33.238 21.226)" fill="none" stroke="#fca43a" stroke-linecap="round" stroke-miterlimit="10" stroke-width="2"/>
          <path id="Trazado_898843" data-name="Trazado 898843" d="M8.548,94.572v52.68a8.189,8.189,0,0,0,8.189,8.189L58.379,160.7a8.189,8.189,0,0,0,8.189-8.189V131.823" transform="translate(-30.934 23.261)" fill="none" stroke="#fca43a" stroke-linecap="round" stroke-miterlimit="10" stroke-width="2"/>
          <path id="Trazado_898844" data-name="Trazado 898844" d="M108.64,126.49v20.773a5.66,5.66,0,0,1-11.311-.084l.174-10.707" transform="translate(-3.836 33.004)" fill="none" stroke="#fca43a" stroke-linecap="round" stroke-miterlimit="10" stroke-width="2"/>
          <path id="Trazado_898845" data-name="Trazado 898845" d="M161.451,126.49v20.773a5.66,5.66,0,0,1-11.311-.084l.174-10.707" transform="translate(12.284 33.004)" fill="none" stroke="#fca43a" stroke-linecap="round" stroke-miterlimit="10" stroke-width="2"/>
          <path id="Trazado_898846" data-name="Trazado 898846" d="M244.19,135.02c-.771.193-46.982-11.938-46.982-11.938s-10.64-3.732-11.936,3.273c-.965,5.2,3.67,5.366,9.433,6.354,5.627.965,35.42,5.688,45.1,7.22a10.064,10.064,0,0,1,5.819,3.083c2.218,2.386-.277,4.148-4.32,5.1-6.546,1.54-113.6-25.224-113.6-25.224s-9.049-2.5-10.4,2.312c-1.639,5.854,2.31,7.124,7.894,8.086C134.526,134.9,188.16,143.3,188.16,143.3s9.048-.192,9.048,5.392c0,6.165-3.08,6.739-9.627,5.2L57.615,122.312s-8.087-2.31-8.087,4.621c0,4.391,3.272,4.814,7.123,6.162s63.926,8.664,63.926,8.664,7.124.963,7.508,4.814.386,10.4-11.551,6.932-86.645-21.373-91.072-22.528c-3.545-.924-11.435,6.155,1.924,7.317,13.286,1.155,39.086,5.969,32.926,11.168,0,0,2.118,3.85-15.4,1.732" transform="translate(-27.469 31.616)" fill="none" stroke="#fca43a" stroke-linecap="round" stroke-miterlimit="10" stroke-width="2"/>
        </g>
      </g>
      <path id="Trazado_902677" data-name="Trazado 902677" d="M4.052-4.342V0H.967V-12.8H6.073a5.948,5.948,0,0,1,2.6.541,4.074,4.074,0,0,1,1.749,1.538,4.2,4.2,0,0,1,.62,2.263A3.7,3.7,0,0,1,9.7-5.462,5.561,5.561,0,0,1,6.021-4.342Zm0-2.382H6.073A1.906,1.906,0,0,0,7.44-7.172a1.665,1.665,0,0,0,.47-1.266A2.059,2.059,0,0,0,7.427-9.87a1.712,1.712,0,0,0-1.318-.545H4.052Zm14.159,5.7a3.054,3.054,0,0,1-2.54,1.2A3,3,0,0,1,13.3-.734a3.826,3.826,0,0,1-.8-2.615V-9.51H15.46v6.179a1.065,1.065,0,0,0,1.187,1.222,1.548,1.548,0,0,0,1.45-.729V-9.51h2.979V0H18.3ZM25.418-9.51l.1,1.116A3.225,3.225,0,0,1,28.23-9.686,2.713,2.713,0,0,1,30.45-8.8a4.226,4.226,0,0,1,.76,2.672V0H28.239V-6a1.6,1.6,0,0,0-.29-1.059A1.342,1.342,0,0,0,26.895-7.4a1.413,1.413,0,0,0-1.292.686V0H22.641V-9.51ZM36.3-11.874V-9.51h1.564v2.057H36.3V-3.1a1.111,1.111,0,0,0,.193.747,1.037,1.037,0,0,0,.765.211A4.345,4.345,0,0,0,38-2.2V-.079a5.466,5.466,0,0,1-1.67.255,3.1,3.1,0,0,1-2.259-.721,2.954,2.954,0,0,1-.729-2.188v-4.72H32.124V-9.51h1.213v-2.364ZM44.385,0A3.344,3.344,0,0,1,44.1-.853,2.754,2.754,0,0,1,41.818.176a3.374,3.374,0,0,1-2.285-.813,2.588,2.588,0,0,1-.94-2.043,2.66,2.66,0,0,1,1.143-2.338,5.821,5.821,0,0,1,3.322-.791h.914v-.5q0-1.316-1.134-1.316a.927.927,0,0,0-1.055,1.042H38.821a2.655,2.655,0,0,1,1.173-2.239,4.931,4.931,0,0,1,2.993-.86,4.323,4.323,0,0,1,2.874.888,3.086,3.086,0,0,1,1.081,2.435v4.21a4.311,4.311,0,0,0,.4,2V0ZM42.53-1.934a1.652,1.652,0,0,0,.918-.237,1.487,1.487,0,0,0,.523-.536V-4.228H43.11q-1.547,0-1.547,1.389a.848.848,0,0,0,.272.655A.986.986,0,0,0,42.53-1.934Zm5.678-2.892a5.809,5.809,0,0,1,.976-3.56,3.211,3.211,0,0,1,2.725-1.3,2.731,2.731,0,0,1,2.145,1V-13.5h2.971V0H54.36l-.149-1.02a2.8,2.8,0,0,1-2.32,1.2,3.205,3.205,0,0,1-2.689-1.3A5.993,5.993,0,0,1,48.208-4.825Zm2.962.185q0,2.531,1.477,2.531a1.458,1.458,0,0,0,1.406-.826V-6.557A1.419,1.419,0,0,0,52.664-7.4q-1.371,0-1.485,2.215ZM64.063,0a3.344,3.344,0,0,1-.281-.853A2.754,2.754,0,0,1,61.5.176a3.374,3.374,0,0,1-2.285-.813,2.588,2.588,0,0,1-.94-2.043,2.66,2.66,0,0,1,1.143-2.338,5.821,5.821,0,0,1,3.322-.791h.914v-.5q0-1.316-1.134-1.316a.927.927,0,0,0-1.055,1.042H58.5a2.655,2.655,0,0,1,1.173-2.239,4.931,4.931,0,0,1,2.993-.86A4.323,4.323,0,0,1,65.54-8.8a3.086,3.086,0,0,1,1.081,2.435v4.21a4.311,4.311,0,0,0,.4,2V0ZM62.209-1.934a1.652,1.652,0,0,0,.918-.237,1.487,1.487,0,0,0,.523-.536V-4.228h-.861q-1.547,0-1.547,1.389a.848.848,0,0,0,.272.655A.986.986,0,0,0,62.209-1.934Zm14.555-.176a1.317,1.317,0,0,0,.967-.338,1.241,1.241,0,0,0,.334-.945h2.777A3.288,3.288,0,0,1,79.721-.826a4.168,4.168,0,0,1-2.887,1,4.22,4.22,0,0,1-3.27-1.3,5.125,5.125,0,0,1-1.2-3.6v-.123A5.792,5.792,0,0,1,72.9-7.4a3.872,3.872,0,0,1,1.534-1.7,4.573,4.573,0,0,1,2.373-.593,4.116,4.116,0,0,1,2.944,1.028,3.647,3.647,0,0,1,1.09,2.786H78.064A1.626,1.626,0,0,0,77.7-7a1.244,1.244,0,0,0-.967-.4q-1.151,0-1.345,1.468a10.357,10.357,0,0,0-.062,1.283,4.068,4.068,0,0,0,.343,1.986A1.187,1.187,0,0,0,76.764-2.109ZM87.451,0a3.344,3.344,0,0,1-.281-.853A2.754,2.754,0,0,1,84.885.176,3.374,3.374,0,0,1,82.6-.637a2.588,2.588,0,0,1-.94-2.043A2.66,2.66,0,0,1,82.8-5.019a5.821,5.821,0,0,1,3.322-.791h.914v-.5q0-1.316-1.134-1.316A.927.927,0,0,0,84.85-6.587H81.888a2.655,2.655,0,0,1,1.173-2.239,4.931,4.931,0,0,1,2.993-.86,4.323,4.323,0,0,1,2.874.888,3.086,3.086,0,0,1,1.081,2.435v4.21a4.311,4.311,0,0,0,.4,2V0ZM85.6-1.934a1.652,1.652,0,0,0,.918-.237,1.487,1.487,0,0,0,.523-.536V-4.228h-.861q-1.547,0-1.547,1.389a.848.848,0,0,0,.272.655A.986.986,0,0,0,85.6-1.934Zm5.678-2.892a5.809,5.809,0,0,1,.976-3.56,3.211,3.211,0,0,1,2.725-1.3,2.731,2.731,0,0,1,2.145,1V-13.5h2.971V0H97.427l-.149-1.02a2.8,2.8,0,0,1-2.32,1.2,3.205,3.205,0,0,1-2.689-1.3A5.993,5.993,0,0,1,91.274-4.825Zm2.962.185q0,2.531,1.477,2.531a1.458,1.458,0,0,0,1.406-.826V-6.557A1.419,1.419,0,0,0,95.73-7.4q-1.371,0-1.485,2.215ZM106.374.176a4.889,4.889,0,0,1-3.542-1.305,4.507,4.507,0,0,1-1.354-3.4v-.246a5.84,5.84,0,0,1,.541-2.575A3.955,3.955,0,0,1,103.6-9.075a4.763,4.763,0,0,1,2.461-.611,4.117,4.117,0,0,1,3.164,1.244,4.887,4.887,0,0,1,1.16,3.467v1.151h-5.889a2.135,2.135,0,0,0,.694,1.257,2.066,2.066,0,0,0,1.389.457,2.662,2.662,0,0,0,2.2-.984l1.354,1.6a3.784,3.784,0,0,1-1.569,1.217A5.3,5.3,0,0,1,106.374.176ZM106.04-7.4q-1.3,0-1.547,1.723h2.988v-.229a1.467,1.467,0,0,0-.36-1.1A1.434,1.434,0,0,0,106.04-7.4Zm8.253-2.109.1,1.116a3.225,3.225,0,0,1,2.716-1.292,2.713,2.713,0,0,1,2.219.888,4.226,4.226,0,0,1,.76,2.672V0h-2.971V-6a1.6,1.6,0,0,0-.29-1.059A1.342,1.342,0,0,0,115.77-7.4a1.413,1.413,0,0,0-1.292.686V0h-2.962V-9.51ZM126.325.176a4.889,4.889,0,0,1-3.542-1.305,4.507,4.507,0,0,1-1.354-3.4v-.246a5.84,5.84,0,0,1,.541-2.575,3.955,3.955,0,0,1,1.578-1.727,4.763,4.763,0,0,1,2.461-.611,4.117,4.117,0,0,1,3.164,1.244,4.887,4.887,0,0,1,1.16,3.467v1.151h-5.889a2.135,2.135,0,0,0,.694,1.257,2.066,2.066,0,0,0,1.389.457,2.662,2.662,0,0,0,2.2-.984l1.354,1.6a3.784,3.784,0,0,1-1.569,1.217A5.3,5.3,0,0,1,126.325.176ZM125.991-7.4q-1.3,0-1.547,1.723h2.988v-.229a1.467,1.467,0,0,0-.36-1.1A1.434,1.434,0,0,0,125.991-7.4Zm8.982-4.474V-9.51h1.564v2.057h-1.564V-3.1a1.111,1.111,0,0,0,.193.747,1.037,1.037,0,0,0,.765.211,4.345,4.345,0,0,0,.738-.053V-.079A5.466,5.466,0,0,1,135,.176a3.1,3.1,0,0,1-2.259-.721,2.954,2.954,0,0,1-.729-2.188v-4.72H130.8V-9.51h1.213v-2.364ZM143.06,0a3.344,3.344,0,0,1-.281-.853A2.754,2.754,0,0,1,140.493.176a3.374,3.374,0,0,1-2.285-.813,2.588,2.588,0,0,1-.94-2.043,2.66,2.66,0,0,1,1.143-2.338,5.821,5.821,0,0,1,3.322-.791h.914v-.5q0-1.316-1.134-1.316a.927.927,0,0,0-1.055,1.042H137.5a2.655,2.655,0,0,1,1.173-2.239,4.931,4.931,0,0,1,2.993-.86,4.323,4.323,0,0,1,2.874.888,3.086,3.086,0,0,1,1.081,2.435v4.21a4.311,4.311,0,0,0,.4,2V0Zm-1.854-1.934a1.652,1.652,0,0,0,.918-.237,1.487,1.487,0,0,0,.523-.536V-4.228h-.861q-1.547,0-1.547,1.389a.848.848,0,0,0,.272.655A.986.986,0,0,0,141.205-1.934Zm10.16-2.892a5.809,5.809,0,0,1,.976-3.56,3.211,3.211,0,0,1,2.725-1.3,2.731,2.731,0,0,1,2.145,1V-13.5h2.971V0h-2.663l-.149-1.02a2.8,2.8,0,0,1-2.32,1.2,3.205,3.205,0,0,1-2.689-1.3A5.993,5.993,0,0,1,151.365-4.825Zm2.962.185q0,2.531,1.477,2.531a1.458,1.458,0,0,0,1.406-.826V-6.557a1.419,1.419,0,0,0-1.389-.844q-1.371,0-1.485,2.215Zm7.163-.2a5.613,5.613,0,0,1,.554-2.536,3.96,3.96,0,0,1,1.591-1.709,4.791,4.791,0,0,1,2.435-.6,4.373,4.373,0,0,1,3.366,1.323,5.076,5.076,0,0,1,1.23,3.6v.105a4.925,4.925,0,0,1-1.235,3.529A4.384,4.384,0,0,1,166.087.176a4.434,4.434,0,0,1-3.261-1.217,4.761,4.761,0,0,1-1.327-3.3Zm2.962.185a3.538,3.538,0,0,0,.413,1.934,1.376,1.376,0,0,0,1.222.615q1.582,0,1.617-2.435v-.3q0-2.558-1.635-2.558-1.485,0-1.608,2.206ZM180.8-4.676a5.8,5.8,0,0,1-.967,3.595A3.238,3.238,0,0,1,177.108.176a2.81,2.81,0,0,1-2.338-1.151L174.647,0h-2.654V-13.5h2.962v4.755a2.711,2.711,0,0,1,2.136-.94,3.239,3.239,0,0,1,2.742,1.274,5.826,5.826,0,0,1,.967,3.586Zm-2.971-.189a3.866,3.866,0,0,0-.365-1.952,1.229,1.229,0,0,0-1.121-.584,1.418,1.418,0,0,0-1.389.763v3.773a1.426,1.426,0,0,0,1.406.755,1.258,1.258,0,0,0,1.327-1.018A7.309,7.309,0,0,0,177.829-4.865ZM185.229,0h-2.971V-13.5h2.971Zm6.425.176a4.889,4.889,0,0,1-3.542-1.305,4.507,4.507,0,0,1-1.354-3.4v-.246a5.84,5.84,0,0,1,.541-2.575,3.955,3.955,0,0,1,1.578-1.727,4.763,4.763,0,0,1,2.461-.611A4.117,4.117,0,0,1,194.5-8.442a4.887,4.887,0,0,1,1.16,3.467v1.151h-5.889a2.135,2.135,0,0,0,.694,1.257,2.066,2.066,0,0,0,1.389.457,2.662,2.662,0,0,0,2.2-.984l1.354,1.6a3.784,3.784,0,0,1-1.569,1.217A5.3,5.3,0,0,1,191.654.176ZM191.32-7.4q-1.3,0-1.547,1.723h2.988v-.229a1.467,1.467,0,0,0-.36-1.1A1.434,1.434,0,0,0,191.32-7.4Z" transform="translate(7647.952 -4356.304)" fill="#12263f"/>
      <path id="Trazado_902678" data-name="Trazado 902678" d="M12.109-4.512A5.231,5.231,0,0,1,10.444-1.03,5.457,5.457,0,0,1,6.719.2,5.01,5.01,0,0,1,2.681-1.611,7.268,7.268,0,0,1,1.162-6.445V-7.812A8.1,8.1,0,0,1,1.87-11.3a5.288,5.288,0,0,1,2.007-2.31,5.588,5.588,0,0,1,3.008-.806,5.138,5.138,0,0,1,3.633,1.265,5.294,5.294,0,0,1,1.592,3.5H10.225a4.085,4.085,0,0,0-1.06-2.468,3.206,3.206,0,0,0-2.28-.764,3.355,3.355,0,0,0-2.817,1.329A6.1,6.1,0,0,0,3.047-7.769v1.378a6.273,6.273,0,0,0,.967,3.685A3.124,3.124,0,0,0,6.719-1.338a3.608,3.608,0,0,0,2.4-.708,3.929,3.929,0,0,0,1.108-2.466Zm8.443,2.979h6.738V0H18.668V-14.219h1.885ZM41.467-3.721H35.51L34.172,0H32.238l5.43-14.219h1.641L44.748,0H42.824ZM36.076-5.254H40.91L38.488-11.9ZM54.852-6.338a8.817,8.817,0,0,1-3.511-1.7,3.256,3.256,0,0,1-1.1-2.5,3.439,3.439,0,0,1,1.343-2.778,5.337,5.337,0,0,1,3.491-1.1,5.825,5.825,0,0,1,2.612.566,4.3,4.3,0,0,1,1.777,1.563,4,4,0,0,1,.63,2.178H58.211a2.6,2.6,0,0,0-.82-2.034,3.336,3.336,0,0,0-2.314-.74,3.415,3.415,0,0,0-2.163.611,2.04,2.04,0,0,0-.776,1.7A1.835,1.835,0,0,0,52.874-9.1,7.232,7.232,0,0,0,55.384-8a11.645,11.645,0,0,1,2.773,1.1,4.209,4.209,0,0,1,1.484,1.4,3.577,3.577,0,0,1,.483,1.885A3.322,3.322,0,0,1,58.777-.845,5.746,5.746,0,0,1,55.174.2a6.683,6.683,0,0,1-2.734-.562A4.6,4.6,0,0,1,50.481-1.9a3.754,3.754,0,0,1-.688-2.217h1.885a2.449,2.449,0,0,0,.952,2.036,4.009,4.009,0,0,0,2.544.747,3.685,3.685,0,0,0,2.275-.605,1.967,1.967,0,0,0,.791-1.65,1.931,1.931,0,0,0-.732-1.616A8.444,8.444,0,0,0,54.852-6.338Zm19.713-.234H68.4v5.039h7.158V0H66.527V-14.219h8.936v1.533H68.4v4.58h6.162ZM98-4.775h1.973V-3.3H98V0H96.188V-3.3H89.713V-4.365l6.367-9.854H98Zm-6.24,0h4.424v-6.973l-.215.391Zm22.76-1.289a8.263,8.263,0,0,1-1.084,4.717A3.855,3.855,0,0,1,110.051.2a3.883,3.883,0,0,1-3.369-1.509,7.843,7.843,0,0,1-1.133-4.507V-8.232a8.079,8.079,0,0,1,1.084-4.658,3.885,3.885,0,0,1,3.4-1.523,3.92,3.92,0,0,1,3.379,1.47,7.8,7.8,0,0,1,1.113,4.536Zm-1.807-2.471a6.62,6.62,0,0,0-.645-3.345,2.218,2.218,0,0,0-2.041-1.05,2.189,2.189,0,0,0-2.021,1.045,6.464,6.464,0,0,0-.654,3.213v2.891a6.726,6.726,0,0,0,.669,3.4,2.214,2.214,0,0,0,2.026,1.1,2.184,2.184,0,0,0,1.987-1.035,6.483,6.483,0,0,0,.679-3.262Zm17.037,2.471a8.263,8.263,0,0,1-1.084,4.717A3.855,3.855,0,0,1,125.281.2a3.883,3.883,0,0,1-3.369-1.509,7.843,7.843,0,0,1-1.133-4.507V-8.232a8.079,8.079,0,0,1,1.084-4.658,3.885,3.885,0,0,1,3.4-1.523,3.92,3.92,0,0,1,3.379,1.47,7.8,7.8,0,0,1,1.113,4.536Zm-1.807-2.471a6.62,6.62,0,0,0-.645-3.345,2.218,2.218,0,0,0-2.041-1.05,2.189,2.189,0,0,0-2.021,1.045,6.464,6.464,0,0,0-.654,3.213v2.891a6.726,6.726,0,0,0,.669,3.4,2.214,2.214,0,0,0,2.026,1.1,2.184,2.184,0,0,0,1.987-1.035,6.483,6.483,0,0,0,.679-3.262Z" transform="translate(7681.559 -4303.462)" fill="#12263f"/>
    </g>
  </g>
</svg>
