<svg xmlns="http://www.w3.org/2000/svg" xmlns:xlink="http://www.w3.org/1999/xlink" width="209.843" height="196.466" viewBox="0 0 209.843 196.466">
  <defs>
    <clipPath id="clip-path">
      <rect id="Rectángulo_415802" data-name="Rectángulo 415802" width="209.841" height="196.466" transform="translate(32.338)" fill="none"/>
    </clipPath>
    <clipPath id="clip-path-2">
      <path id="Rectángulo_415808" data-name="Rectángulo 415808" d="M7.075,0H202.767a7.075,7.075,0,0,1,7.075,7.075V183.957a7.074,7.074,0,0,1-7.074,7.074H7.074A7.074,7.074,0,0,1,0,183.957V7.075A7.075,7.075,0,0,1,7.075,0Z" fill="none"/>
    </clipPath>
  </defs>
  <g id="Grupo_1129397" data-name="Grupo 1129397" transform="translate(-6529.027 4915.5)">
    <g id="Grupo_1129216" data-name="Grupo 1129216" transform="translate(6496.69 -4915.5)" clip-path="url(#clip-path)">
      <path id="Trazado_898813" data-name="Trazado 898813" d="M226.439,195.325H34.5a8.953,8.953,0,0,1-8.953-8.953V13.247A8.953,8.953,0,0,1,34.5,4.294H226.439a8.953,8.953,0,0,1,8.953,8.953V186.372a8.953,8.953,0,0,1-8.953,8.953" transform="translate(6.788 1.141)" fill="#fff8e0"/>
    </g>
    <g id="Grupo_1129218" data-name="Grupo 1129218" transform="translate(6529.027 -4910.065)" clip-path="url(#clip-path-2)">
      <path id="Trazado_898814" data-name="Trazado 898814" d="M114.539,162.882H61.858a5.707,5.707,0,0,1-5.707-5.707V101.707A5.707,5.707,0,0,1,61.858,96h52.681a5.707,5.707,0,0,1,5.707,5.707v55.468a5.707,5.707,0,0,1-5.707,5.707" transform="translate(-17.421 20.068)" fill="#fff8e0"/>
      <rect id="Rectángulo_415803" data-name="Rectángulo 415803" width="64.095" height="66.882" rx="4.509" transform="translate(38.73 116.067)" fill="none" stroke="#fca43a" stroke-linecap="round" stroke-miterlimit="10" stroke-width="2"/>
      <path id="Trazado_898815" data-name="Trazado 898815" d="M169.585,162.882H116.9a5.707,5.707,0,0,1-5.707-5.707V101.707A5.707,5.707,0,0,1,116.9,96h52.681a5.707,5.707,0,0,1,5.707,5.707v55.468a5.707,5.707,0,0,1-5.707,5.707" transform="translate(-2.798 20.068)" fill="#fff8e0"/>
      <rect id="Rectángulo_415804" data-name="Rectángulo 415804" width="64.095" height="66.882" rx="4.509" transform="translate(108.399 116.067)" fill="none" stroke="#fca43a" stroke-linecap="round" stroke-miterlimit="10" stroke-width="2"/>
      <path id="Trazado_898816" data-name="Trazado 898816" d="M223.645,162.882H170.964a5.707,5.707,0,0,1-5.707-5.707V101.707A5.707,5.707,0,0,1,170.964,96h52.681a5.707,5.707,0,0,1,5.707,5.707v55.468a5.707,5.707,0,0,1-5.707,5.707" transform="translate(11.563 20.068)" fill="#fff8e0"/>
      <rect id="Rectángulo_415805" data-name="Rectángulo 415805" width="64.095" height="66.882" rx="4.509" transform="translate(176.82 116.067)" fill="none" stroke="#fca43a" stroke-linecap="round" stroke-miterlimit="10" stroke-width="2"/>
      <path id="Trazado_898817" data-name="Trazado 898817" d="M59.388,162.882H6.707A5.707,5.707,0,0,1,1,157.175V101.707A5.707,5.707,0,0,1,6.707,96H59.388a5.707,5.707,0,0,1,5.707,5.707v55.468a5.707,5.707,0,0,1-5.707,5.707" transform="translate(-32.072 20.068)" fill="#fff8e0"/>
      <rect id="Rectángulo_415806" data-name="Rectángulo 415806" width="64.095" height="66.882" rx="4.509" transform="translate(-31.072 116.067)" fill="none" stroke="#fca43a" stroke-linecap="round" stroke-miterlimit="10" stroke-width="2"/>
      <line id="Línea_2011" data-name="Línea 2011" x2="238.268" transform="translate(-15.051 189.08)" fill="#fff8e0"/>
      <line id="Línea_2012" data-name="Línea 2012" x2="238.268" transform="translate(-15.051 189.08)" fill="none" stroke="#fca43a" stroke-linecap="round" stroke-miterlimit="10" stroke-width="1.509"/>
      <path id="Trazado_898818" data-name="Trazado 898818" d="M47.784,149.925c6.688,0,22.643,2.334,22.837-3.253.125-3.6-14.93-2.773-14.93,8.618" transform="translate(-19.644 33.025)" fill="#fff8e0"/>
      <path id="Trazado_898819" data-name="Trazado 898819" d="M47.784,149.925c6.688,0,22.643,2.334,22.837-3.253.125-3.6-14.93-2.773-14.93,8.618" transform="translate(-19.644 33.025)" fill="none" stroke="#fca43a" stroke-linecap="round" stroke-miterlimit="10" stroke-width="2"/>
      <path id="Trazado_898820" data-name="Trazado 898820" d="M101.949,149.925c6.688,0,22.643,2.334,22.837-3.253.125-3.6-14.93-2.773-14.93,8.618" transform="translate(-5.254 33.025)" fill="#fff8e0"/>
      <path id="Trazado_898821" data-name="Trazado 898821" d="M101.949,149.925c6.688,0,22.643,2.334,22.837-3.253.125-3.6-14.93-2.773-14.93,8.618" transform="translate(-5.254 33.025)" fill="none" stroke="#fca43a" stroke-linecap="round" stroke-miterlimit="10" stroke-width="2"/>
      <path id="Trazado_898822" data-name="Trazado 898822" d="M157.1,149.925c6.688,0,22.643,2.334,22.837-3.253.125-3.6-14.93-2.773-14.93,8.618" transform="translate(9.398 33.025)" fill="#fff8e0"/>
      <path id="Trazado_898823" data-name="Trazado 898823" d="M157.1,149.925c6.688,0,22.643,2.334,22.837-3.253.125-3.6-14.93-2.773-14.93,8.618" transform="translate(9.398 33.025)" fill="none" stroke="#fca43a" stroke-linecap="round" stroke-miterlimit="10" stroke-width="2"/>
      <rect id="Rectángulo_415807" data-name="Rectángulo 415807" width="230.743" height="48.072" transform="translate(-8.781 -5.435)" fill="#86c7c0"/>
    </g>
    <path id="Trazado_902671" data-name="Trazado 902671" d="M4.052-4.342V0H.967V-12.8H6.073a5.948,5.948,0,0,1,2.6.541,4.074,4.074,0,0,1,1.749,1.538,4.2,4.2,0,0,1,.62,2.263A3.7,3.7,0,0,1,9.7-5.462,5.561,5.561,0,0,1,6.021-4.342Zm0-2.382H6.073A1.906,1.906,0,0,0,7.44-7.172a1.665,1.665,0,0,0,.47-1.266A2.059,2.059,0,0,0,7.427-9.87a1.712,1.712,0,0,0-1.318-.545H4.052Zm14.159,5.7a3.054,3.054,0,0,1-2.54,1.2A3,3,0,0,1,13.3-.734a3.826,3.826,0,0,1-.8-2.615V-9.51H15.46v6.179a1.065,1.065,0,0,0,1.187,1.222,1.548,1.548,0,0,0,1.45-.729V-9.51h2.979V0H18.3ZM25.418-9.51l.1,1.116A3.225,3.225,0,0,1,28.23-9.686,2.713,2.713,0,0,1,30.45-8.8a4.226,4.226,0,0,1,.76,2.672V0H28.239V-6a1.6,1.6,0,0,0-.29-1.059A1.342,1.342,0,0,0,26.895-7.4a1.413,1.413,0,0,0-1.292.686V0H22.641V-9.51ZM36.3-11.874V-9.51h1.564v2.057H36.3V-3.1a1.111,1.111,0,0,0,.193.747,1.037,1.037,0,0,0,.765.211A4.345,4.345,0,0,0,38-2.2V-.079a5.466,5.466,0,0,1-1.67.255,3.1,3.1,0,0,1-2.259-.721,2.954,2.954,0,0,1-.729-2.188v-4.72H32.124V-9.51h1.213v-2.364ZM44.385,0A3.344,3.344,0,0,1,44.1-.853,2.754,2.754,0,0,1,41.818.176a3.374,3.374,0,0,1-2.285-.813,2.588,2.588,0,0,1-.94-2.043,2.66,2.66,0,0,1,1.143-2.338,5.821,5.821,0,0,1,3.322-.791h.914v-.5q0-1.316-1.134-1.316a.927.927,0,0,0-1.055,1.042H38.821a2.655,2.655,0,0,1,1.173-2.239,4.931,4.931,0,0,1,2.993-.86,4.323,4.323,0,0,1,2.874.888,3.086,3.086,0,0,1,1.081,2.435v4.21a4.311,4.311,0,0,0,.4,2V0ZM42.53-1.934a1.652,1.652,0,0,0,.918-.237,1.487,1.487,0,0,0,.523-.536V-4.228H43.11q-1.547,0-1.547,1.389a.848.848,0,0,0,.272.655A.986.986,0,0,0,42.53-1.934Zm5.678-2.892a5.809,5.809,0,0,1,.976-3.56,3.211,3.211,0,0,1,2.725-1.3,2.731,2.731,0,0,1,2.145,1V-13.5h2.971V0H54.36l-.149-1.02a2.8,2.8,0,0,1-2.32,1.2,3.205,3.205,0,0,1-2.689-1.3A5.993,5.993,0,0,1,48.208-4.825Zm2.962.185q0,2.531,1.477,2.531a1.458,1.458,0,0,0,1.406-.826V-6.557A1.419,1.419,0,0,0,52.664-7.4q-1.371,0-1.485,2.215ZM64.063,0a3.344,3.344,0,0,1-.281-.853A2.754,2.754,0,0,1,61.5.176a3.374,3.374,0,0,1-2.285-.813,2.588,2.588,0,0,1-.94-2.043,2.66,2.66,0,0,1,1.143-2.338,5.821,5.821,0,0,1,3.322-.791h.914v-.5q0-1.316-1.134-1.316a.927.927,0,0,0-1.055,1.042H58.5a2.655,2.655,0,0,1,1.173-2.239,4.931,4.931,0,0,1,2.993-.86A4.323,4.323,0,0,1,65.54-8.8a3.086,3.086,0,0,1,1.081,2.435v4.21a4.311,4.311,0,0,0,.4,2V0ZM62.209-1.934a1.652,1.652,0,0,0,.918-.237,1.487,1.487,0,0,0,.523-.536V-4.228h-.861q-1.547,0-1.547,1.389a.848.848,0,0,0,.272.655A.986.986,0,0,0,62.209-1.934Zm10.16-2.892a5.809,5.809,0,0,1,.976-3.56,3.211,3.211,0,0,1,2.725-1.3,2.731,2.731,0,0,1,2.145,1V-13.5h2.971V0H78.521l-.149-1.02a2.8,2.8,0,0,1-2.32,1.2,3.205,3.205,0,0,1-2.689-1.3A5.993,5.993,0,0,1,72.369-4.825Zm2.962.185q0,2.531,1.477,2.531a1.458,1.458,0,0,0,1.406-.826V-6.557A1.419,1.419,0,0,0,76.825-7.4q-1.371,0-1.485,2.215ZM87.469.176a4.889,4.889,0,0,1-3.542-1.305,4.507,4.507,0,0,1-1.354-3.4v-.246a5.84,5.84,0,0,1,.541-2.575,3.955,3.955,0,0,1,1.578-1.727,4.763,4.763,0,0,1,2.461-.611,4.117,4.117,0,0,1,3.164,1.244,4.887,4.887,0,0,1,1.16,3.467v1.151H85.588a2.135,2.135,0,0,0,.694,1.257,2.066,2.066,0,0,0,1.389.457,2.662,2.662,0,0,0,2.2-.984l1.354,1.6A3.784,3.784,0,0,1,89.653-.277,5.3,5.3,0,0,1,87.469.176ZM87.135-7.4q-1.3,0-1.547,1.723h2.988v-.229a1.467,1.467,0,0,0-.36-1.1A1.434,1.434,0,0,0,87.135-7.4Zm14.036,5.291a1.317,1.317,0,0,0,.967-.338,1.241,1.241,0,0,0,.334-.945h2.777a3.288,3.288,0,0,1-1.121,2.566,4.168,4.168,0,0,1-2.887,1,4.22,4.22,0,0,1-3.27-1.3,5.125,5.125,0,0,1-1.2-3.6v-.123A5.792,5.792,0,0,1,97.308-7.4a3.872,3.872,0,0,1,1.534-1.7,4.573,4.573,0,0,1,2.373-.593,4.116,4.116,0,0,1,2.944,1.028,3.647,3.647,0,0,1,1.09,2.786h-2.777A1.626,1.626,0,0,0,102.111-7a1.244,1.244,0,0,0-.967-.4q-1.151,0-1.345,1.468a10.357,10.357,0,0,0-.062,1.283,4.068,4.068,0,0,0,.343,1.986A1.187,1.187,0,0,0,101.171-2.109ZM111.858,0a3.344,3.344,0,0,1-.281-.853A2.754,2.754,0,0,1,109.292.176a3.374,3.374,0,0,1-2.285-.813,2.588,2.588,0,0,1-.94-2.043,2.66,2.66,0,0,1,1.143-2.338,5.821,5.821,0,0,1,3.322-.791h.914v-.5q0-1.316-1.134-1.316a.927.927,0,0,0-1.055,1.042h-2.962a2.655,2.655,0,0,1,1.173-2.239,4.931,4.931,0,0,1,2.993-.86,4.323,4.323,0,0,1,2.874.888,3.086,3.086,0,0,1,1.081,2.435v4.21a4.311,4.311,0,0,0,.4,2V0ZM110-1.934a1.652,1.652,0,0,0,.918-.237,1.487,1.487,0,0,0,.523-.536V-4.228h-.861q-1.547,0-1.547,1.389a.848.848,0,0,0,.272.655A.986.986,0,0,0,110-1.934Zm5.678-2.892a5.809,5.809,0,0,1,.976-3.56,3.211,3.211,0,0,1,2.725-1.3,2.731,2.731,0,0,1,2.145,1V-13.5H124.5V0h-2.663l-.149-1.02a2.8,2.8,0,0,1-2.32,1.2,3.205,3.205,0,0,1-2.689-1.3A5.993,5.993,0,0,1,115.682-4.825Zm2.962.185q0,2.531,1.477,2.531a1.458,1.458,0,0,0,1.406-.826V-6.557a1.419,1.419,0,0,0-1.389-.844q-1.371,0-1.485,2.215ZM130.781.176a4.889,4.889,0,0,1-3.542-1.305,4.507,4.507,0,0,1-1.354-3.4v-.246a5.84,5.84,0,0,1,.541-2.575A3.955,3.955,0,0,1,128-9.075a4.763,4.763,0,0,1,2.461-.611,4.117,4.117,0,0,1,3.164,1.244,4.887,4.887,0,0,1,1.16,3.467v1.151H128.9a2.135,2.135,0,0,0,.694,1.257,2.066,2.066,0,0,0,1.389.457,2.662,2.662,0,0,0,2.2-.984l1.354,1.6a3.784,3.784,0,0,1-1.569,1.217A5.3,5.3,0,0,1,130.781.176ZM130.447-7.4q-1.3,0-1.547,1.723h2.988v-.229a1.467,1.467,0,0,0-.36-1.1A1.434,1.434,0,0,0,130.447-7.4ZM138.7-9.51l.1,1.116a3.225,3.225,0,0,1,2.716-1.292,2.713,2.713,0,0,1,2.219.888,4.226,4.226,0,0,1,.76,2.672V0h-2.971V-6a1.6,1.6,0,0,0-.29-1.059,1.342,1.342,0,0,0-1.055-.338,1.413,1.413,0,0,0-1.292.686V0h-2.962V-9.51ZM150.732.176a4.889,4.889,0,0,1-3.542-1.305,4.507,4.507,0,0,1-1.354-3.4v-.246a5.84,5.84,0,0,1,.541-2.575,3.955,3.955,0,0,1,1.578-1.727,4.763,4.763,0,0,1,2.461-.611,4.117,4.117,0,0,1,3.164,1.244,4.887,4.887,0,0,1,1.16,3.467v1.151h-5.889a2.135,2.135,0,0,0,.694,1.257,2.066,2.066,0,0,0,1.389.457,2.662,2.662,0,0,0,2.2-.984l1.354,1.6a3.784,3.784,0,0,1-1.569,1.217A5.3,5.3,0,0,1,150.732.176ZM150.4-7.4q-1.3,0-1.547,1.723h2.988v-.229a1.467,1.467,0,0,0-.36-1.1A1.434,1.434,0,0,0,150.4-7.4Zm8.982-4.474V-9.51h1.564v2.057h-1.564V-3.1a1.111,1.111,0,0,0,.193.747,1.037,1.037,0,0,0,.765.211,4.345,4.345,0,0,0,.738-.053V-.079a5.466,5.466,0,0,1-1.67.255,3.1,3.1,0,0,1-2.259-.721,2.954,2.954,0,0,1-.729-2.188v-4.72h-1.213V-9.51h1.213v-2.364ZM167.467,0a3.344,3.344,0,0,1-.281-.853A2.754,2.754,0,0,1,164.9.176a3.374,3.374,0,0,1-2.285-.813,2.588,2.588,0,0,1-.94-2.043,2.66,2.66,0,0,1,1.143-2.338,5.821,5.821,0,0,1,3.322-.791h.914v-.5q0-1.316-1.134-1.316a.927.927,0,0,0-1.055,1.042H161.9a2.655,2.655,0,0,1,1.173-2.239,4.931,4.931,0,0,1,2.993-.86,4.323,4.323,0,0,1,2.874.888,3.086,3.086,0,0,1,1.081,2.435v4.21a4.311,4.311,0,0,0,.4,2V0Zm-1.854-1.934a1.652,1.652,0,0,0,.918-.237,1.487,1.487,0,0,0,.523-.536V-4.228h-.861q-1.547,0-1.547,1.389a.848.848,0,0,0,.272.655A.986.986,0,0,0,165.612-1.934Z" transform="translate(6549.208 -4883.377)" fill="#12263f"/>
    <path id="Trazado_902672" data-name="Trazado 902672" d="M12.109-4.512A5.231,5.231,0,0,1,10.444-1.03,5.457,5.457,0,0,1,6.719.2,5.01,5.01,0,0,1,2.681-1.611,7.268,7.268,0,0,1,1.162-6.445V-7.812A8.1,8.1,0,0,1,1.87-11.3a5.288,5.288,0,0,1,2.007-2.31,5.588,5.588,0,0,1,3.008-.806,5.138,5.138,0,0,1,3.633,1.265,5.294,5.294,0,0,1,1.592,3.5H10.225a4.085,4.085,0,0,0-1.06-2.468,3.206,3.206,0,0,0-2.28-.764,3.355,3.355,0,0,0-2.817,1.329A6.1,6.1,0,0,0,3.047-7.769v1.378a6.273,6.273,0,0,0,.967,3.685A3.124,3.124,0,0,0,6.719-1.338a3.608,3.608,0,0,0,2.4-.708,3.929,3.929,0,0,0,1.108-2.466Zm8.443,2.979h6.738V0H18.668V-14.219h1.885ZM41.467-3.721H35.51L34.172,0H32.238l5.43-14.219h1.641L44.748,0H42.824ZM36.076-5.254H40.91L38.488-11.9ZM54.852-6.338a8.817,8.817,0,0,1-3.511-1.7,3.256,3.256,0,0,1-1.1-2.5,3.439,3.439,0,0,1,1.343-2.778,5.337,5.337,0,0,1,3.491-1.1,5.825,5.825,0,0,1,2.612.566,4.3,4.3,0,0,1,1.777,1.563,4,4,0,0,1,.63,2.178H58.211a2.6,2.6,0,0,0-.82-2.034,3.336,3.336,0,0,0-2.314-.74,3.415,3.415,0,0,0-2.163.611,2.04,2.04,0,0,0-.776,1.7A1.835,1.835,0,0,0,52.874-9.1,7.232,7.232,0,0,0,55.384-8a11.645,11.645,0,0,1,2.773,1.1,4.209,4.209,0,0,1,1.484,1.4,3.577,3.577,0,0,1,.483,1.885A3.322,3.322,0,0,1,58.777-.845,5.746,5.746,0,0,1,55.174.2a6.683,6.683,0,0,1-2.734-.562A4.6,4.6,0,0,1,50.481-1.9a3.754,3.754,0,0,1-.688-2.217h1.885a2.449,2.449,0,0,0,.952,2.036,4.009,4.009,0,0,0,2.544.747,3.685,3.685,0,0,0,2.275-.605,1.967,1.967,0,0,0,.791-1.65,1.931,1.931,0,0,0-.732-1.616A8.444,8.444,0,0,0,54.852-6.338Zm19.713-.234H68.4v5.039h7.158V0H66.527V-14.219h8.936v1.533H68.4v4.58h6.162ZM96.314,0H94.5V-12.041L90.855-10.7v-1.641l5.176-1.943h.283Zm18.209-6.064a8.263,8.263,0,0,1-1.084,4.717A3.855,3.855,0,0,1,110.051.2a3.883,3.883,0,0,1-3.369-1.509,7.843,7.843,0,0,1-1.133-4.507V-8.232a8.079,8.079,0,0,1,1.084-4.658,3.885,3.885,0,0,1,3.4-1.523,3.92,3.92,0,0,1,3.379,1.47,7.8,7.8,0,0,1,1.113,4.536Zm-1.807-2.471a6.62,6.62,0,0,0-.645-3.345,2.218,2.218,0,0,0-2.041-1.05,2.189,2.189,0,0,0-2.021,1.045,6.464,6.464,0,0,0-.654,3.213v2.891a6.726,6.726,0,0,0,.669,3.4,2.214,2.214,0,0,0,2.026,1.1,2.184,2.184,0,0,0,1.987-1.035,6.483,6.483,0,0,0,.679-3.262Zm17.037,2.471a8.263,8.263,0,0,1-1.084,4.717A3.855,3.855,0,0,1,125.281.2a3.883,3.883,0,0,1-3.369-1.509,7.843,7.843,0,0,1-1.133-4.507V-8.232a8.079,8.079,0,0,1,1.084-4.658,3.885,3.885,0,0,1,3.4-1.523,3.92,3.92,0,0,1,3.379,1.47,7.8,7.8,0,0,1,1.113,4.536Zm-1.807-2.471a6.62,6.62,0,0,0-.645-3.345,2.218,2.218,0,0,0-2.041-1.05,2.189,2.189,0,0,0-2.021,1.045,6.464,6.464,0,0,0-.654,3.213v2.891a6.726,6.726,0,0,0,.669,3.4,2.214,2.214,0,0,0,2.026,1.1,2.184,2.184,0,0,0,1.987-1.035,6.483,6.483,0,0,0,.679-3.262Z" transform="translate(6568.208 -4826.798)" fill="#12263f"/>
  </g>
</svg>
