<svg xmlns="http://www.w3.org/2000/svg" xmlns:xlink="http://www.w3.org/1999/xlink" width="214.297" height="200.637" viewBox="0 0 214.297 200.637">
  <defs>
    <clipPath id="clip-path">
      <rect id="Rectángulo_415809" data-name="Rectángulo 415809" width="214.296" height="200.637" transform="translate(31.097)" fill="none"/>
    </clipPath>
    <clipPath id="clip-path-2">
      <path id="Rectángulo_415811" data-name="Rectángulo 415811" d="M7.075,0H207.222A7.075,7.075,0,0,1,214.3,7.075V188.013a7.074,7.074,0,0,1-7.074,7.074H7.074A7.074,7.074,0,0,1,0,188.013V7.075A7.075,7.075,0,0,1,7.075,0Z" fill="none"/>
    </clipPath>
  </defs>
  <g id="Grupo_1129398" data-name="Grupo 1129398" transform="translate(-6332.096 4388)">
    <g id="Grupo_1129221" data-name="Grupo 1129221" transform="translate(6301 -4388)" clip-path="url(#clip-path)">
      <path id="Trazado_898824" data-name="Trazado 898824" d="M229.212,199.381H33.2a9.143,9.143,0,0,1-9.143-9.143V13.437A9.143,9.143,0,0,1,33.2,4.294H229.212a9.143,9.143,0,0,1,9.143,9.143v176.8a9.143,9.143,0,0,1-9.143,9.143" transform="translate(7.038 1.256)" fill="#fff8e0"/>
    </g>
    <g id="Grupo_1129223" data-name="Grupo 1129223" transform="translate(6332.096 -4382.45)" clip-path="url(#clip-path-2)">
      <path id="Trazado_898825" data-name="Trazado 898825" d="M93.089,151.881l-41.8,2.343a5.7,5.7,0,0,1-5.779-5.612V91.748a5.7,5.7,0,0,1,5.779-5.612h41.8a5.7,5.7,0,0,1,5.779,5.612v54.521A5.7,5.7,0,0,1,93.089,151.881Z" transform="translate(-17.784 19.646)" fill="none" stroke="#fca43a" stroke-linecap="round" stroke-miterlimit="10" stroke-width="1.839"/>
      <path id="Trazado_898826" data-name="Trazado 898826" d="M48.5,155.761,6.7,159.4c-3.193,0-5.779-1.22-5.779-4.32V91.748A5.7,5.7,0,0,1,6.7,86.136H48.5a5.7,5.7,0,0,1,5.779,5.612v58.4A5.7,5.7,0,0,1,48.5,155.761Z" transform="translate(-30.826 19.646)" fill="none" stroke="#fca43a" stroke-linecap="round" stroke-miterlimit="10" stroke-width="1.839"/>
      <path id="Trazado_898827" data-name="Trazado 898827" d="M180.46,158.469l-40.8,2.586a5.938,5.938,0,0,1-5.641-6.2V92.093a5.938,5.938,0,0,1,5.641-6.2h40.8a5.938,5.938,0,0,1,5.641,6.2v60.181A5.938,5.938,0,0,1,180.46,158.469Z" transform="translate(8.108 19.577)" fill="none" stroke="#fca43a" stroke-linecap="round" stroke-miterlimit="10" stroke-width="1.908"/>
      <path id="Trazado_898828" data-name="Trazado 898828" d="M225.047,155.883l-40.8,2.586a5.938,5.938,0,0,1-5.641-6.2V92.093a5.936,5.936,0,0,1,5.641-6.194h40.8a5.936,5.936,0,0,1,5.641,6.194v57.595A5.938,5.938,0,0,1,225.047,155.883Z" transform="translate(21.151 19.577)" fill="none" stroke="#fca43a" stroke-linecap="round" stroke-miterlimit="10" stroke-width="1.908"/>
      <path id="Trazado_898829" data-name="Trazado 898829" d="M22.717,162.406c.64.213,79.827-5.55,79.827-5.55s7.471,0,7.471-9.177V91.757s-.853-5.55,3.2-5.763,41.622,0,41.622,0,7.471-.213,7.471,4.7v66.595s-.854,10.458,8.537,9.6,68.515-3.2,68.515-3.2" transform="translate(-24.45 19.577)" fill="none" stroke="#fca43a" stroke-linecap="round" stroke-miterlimit="10" stroke-width="2"/>
      <path id="Trazado_898830" data-name="Trazado 898830" d="M42.039,131.384c.854,14.3-.856,22.381,13.447,22.2,16.648-.213,115.471-6.19,114.83-5.977" transform="translate(-18.798 32.882)" fill="none" stroke="#fca43a" stroke-linecap="round" stroke-miterlimit="10" stroke-width="1.839"/>
      <path id="Trazado_898831" data-name="Trazado 898831" d="M47.983,147.642c.64.213,154.747-10.246,154.747-10.246s9.6,1.494,8.75-8.324" transform="translate(-17.059 32.206)" fill="none" stroke="#fca43a" stroke-linecap="round" stroke-miterlimit="10" stroke-width="1.839"/>
      <path id="Trazado_898832" data-name="Trazado 898832" d="M181.952,128.412s.64,16.649-12.593,17.715" transform="translate(18.446 32.013)" fill="none" stroke="#fca43a" stroke-linecap="round" stroke-miterlimit="10" stroke-width="1.908"/>
      <rect id="Rectángulo_415810" data-name="Rectángulo 415810" width="235.642" height="49.093" transform="translate(-8.967 -5.55)" fill="#86c7c0"/>
    </g>
    <path id="Trazado_902673" data-name="Trazado 902673" d="M4.052-4.342V0H.967V-12.8H6.073a5.948,5.948,0,0,1,2.6.541,4.074,4.074,0,0,1,1.749,1.538,4.2,4.2,0,0,1,.62,2.263A3.7,3.7,0,0,1,9.7-5.462,5.561,5.561,0,0,1,6.021-4.342Zm0-2.382H6.073A1.906,1.906,0,0,0,7.44-7.172a1.665,1.665,0,0,0,.47-1.266A2.059,2.059,0,0,0,7.427-9.87a1.712,1.712,0,0,0-1.318-.545H4.052Zm14.159,5.7a3.054,3.054,0,0,1-2.54,1.2A3,3,0,0,1,13.3-.734a3.826,3.826,0,0,1-.8-2.615V-9.51H15.46v6.179a1.065,1.065,0,0,0,1.187,1.222,1.548,1.548,0,0,0,1.45-.729V-9.51h2.979V0H18.3ZM25.418-9.51l.1,1.116A3.225,3.225,0,0,1,28.23-9.686,2.713,2.713,0,0,1,30.45-8.8a4.226,4.226,0,0,1,.76,2.672V0H28.239V-6a1.6,1.6,0,0,0-.29-1.059A1.342,1.342,0,0,0,26.895-7.4a1.413,1.413,0,0,0-1.292.686V0H22.641V-9.51ZM36.3-11.874V-9.51h1.564v2.057H36.3V-3.1a1.111,1.111,0,0,0,.193.747,1.037,1.037,0,0,0,.765.211A4.345,4.345,0,0,0,38-2.2V-.079a5.466,5.466,0,0,1-1.67.255,3.1,3.1,0,0,1-2.259-.721,2.954,2.954,0,0,1-.729-2.188v-4.72H32.124V-9.51h1.213v-2.364ZM44.385,0A3.344,3.344,0,0,1,44.1-.853,2.754,2.754,0,0,1,41.818.176a3.374,3.374,0,0,1-2.285-.813,2.588,2.588,0,0,1-.94-2.043,2.66,2.66,0,0,1,1.143-2.338,5.821,5.821,0,0,1,3.322-.791h.914v-.5q0-1.316-1.134-1.316a.927.927,0,0,0-1.055,1.042H38.821a2.655,2.655,0,0,1,1.173-2.239,4.931,4.931,0,0,1,2.993-.86,4.323,4.323,0,0,1,2.874.888,3.086,3.086,0,0,1,1.081,2.435v4.21a4.311,4.311,0,0,0,.4,2V0ZM42.53-1.934a1.652,1.652,0,0,0,.918-.237,1.487,1.487,0,0,0,.523-.536V-4.228H43.11q-1.547,0-1.547,1.389a.848.848,0,0,0,.272.655A.986.986,0,0,0,42.53-1.934Zm5.678-2.892a5.809,5.809,0,0,1,.976-3.56,3.211,3.211,0,0,1,2.725-1.3,2.731,2.731,0,0,1,2.145,1V-13.5h2.971V0H54.36l-.149-1.02a2.8,2.8,0,0,1-2.32,1.2,3.205,3.205,0,0,1-2.689-1.3A5.993,5.993,0,0,1,48.208-4.825Zm2.962.185q0,2.531,1.477,2.531a1.458,1.458,0,0,0,1.406-.826V-6.557A1.419,1.419,0,0,0,52.664-7.4q-1.371,0-1.485,2.215ZM64.063,0a3.344,3.344,0,0,1-.281-.853A2.754,2.754,0,0,1,61.5.176a3.374,3.374,0,0,1-2.285-.813,2.588,2.588,0,0,1-.94-2.043,2.66,2.66,0,0,1,1.143-2.338,5.821,5.821,0,0,1,3.322-.791h.914v-.5q0-1.316-1.134-1.316a.927.927,0,0,0-1.055,1.042H58.5a2.655,2.655,0,0,1,1.173-2.239,4.931,4.931,0,0,1,2.993-.86A4.323,4.323,0,0,1,65.54-8.8a3.086,3.086,0,0,1,1.081,2.435v4.21a4.311,4.311,0,0,0,.4,2V0ZM62.209-1.934a1.652,1.652,0,0,0,.918-.237,1.487,1.487,0,0,0,.523-.536V-4.228h-.861q-1.547,0-1.547,1.389a.848.848,0,0,0,.272.655A.986.986,0,0,0,62.209-1.934ZM78.1,0a3.344,3.344,0,0,1-.281-.853A2.754,2.754,0,0,1,75.533.176a3.374,3.374,0,0,1-2.285-.813,2.588,2.588,0,0,1-.94-2.043A2.66,2.66,0,0,1,73.45-5.019a5.821,5.821,0,0,1,3.322-.791h.914v-.5q0-1.316-1.134-1.316A.927.927,0,0,0,75.5-6.587H72.536a2.655,2.655,0,0,1,1.173-2.239,4.931,4.931,0,0,1,2.993-.86,4.323,4.323,0,0,1,2.874.888,3.086,3.086,0,0,1,1.081,2.435v4.21a4.311,4.311,0,0,0,.4,2V0ZM76.245-1.934a1.652,1.652,0,0,0,.918-.237,1.487,1.487,0,0,0,.523-.536V-4.228h-.861q-1.547,0-1.547,1.389a.848.848,0,0,0,.272.655A.986.986,0,0,0,76.245-1.934ZM89.578-9.51l.1,1.116a3.27,3.27,0,0,1,2.716-1.292,2.407,2.407,0,0,1,2.435,1.433A3.165,3.165,0,0,1,97.62-9.686q2.892,0,2.971,3.5V0H97.62V-6a1.813,1.813,0,0,0-.246-1.063,1.048,1.048,0,0,0-.9-.334,1.4,1.4,0,0,0-1.31.782l.009.123V0H92.206V-5.985a1.906,1.906,0,0,0-.237-1.081,1.045,1.045,0,0,0-.905-.334,1.42,1.42,0,0,0-1.3.782V0H86.8V-9.51ZM107.64,0a3.344,3.344,0,0,1-.281-.853A2.754,2.754,0,0,1,105.073.176a3.374,3.374,0,0,1-2.285-.813,2.588,2.588,0,0,1-.94-2.043,2.66,2.66,0,0,1,1.143-2.338,5.821,5.821,0,0,1,3.322-.791h.914v-.5q0-1.316-1.134-1.316a.927.927,0,0,0-1.055,1.042h-2.962a2.655,2.655,0,0,1,1.173-2.239,4.931,4.931,0,0,1,2.993-.86,4.323,4.323,0,0,1,2.874.888A3.086,3.086,0,0,1,110.2-6.363v4.21a4.311,4.311,0,0,0,.4,2V0Zm-1.854-1.934a1.652,1.652,0,0,0,.918-.237,1.487,1.487,0,0,0,.523-.536V-4.228h-.861q-1.547,0-1.547,1.389a.848.848,0,0,0,.272.655A.986.986,0,0,0,105.785-1.934Zm8.771-7.576.1,1.116a3.225,3.225,0,0,1,2.716-1.292,2.713,2.713,0,0,1,2.219.888,4.226,4.226,0,0,1,.76,2.672V0h-2.971V-6a1.6,1.6,0,0,0-.29-1.059,1.342,1.342,0,0,0-1.055-.338,1.413,1.413,0,0,0-1.292.686V0h-2.962V-9.51Zm7.058,4.667a5.613,5.613,0,0,1,.554-2.536,3.96,3.96,0,0,1,1.591-1.709,4.791,4.791,0,0,1,2.435-.6,4.373,4.373,0,0,1,3.366,1.323,5.076,5.076,0,0,1,1.23,3.6v.105a4.925,4.925,0,0,1-1.235,3.529A4.384,4.384,0,0,1,126.211.176a4.434,4.434,0,0,1-3.261-1.217,4.761,4.761,0,0,1-1.327-3.3Zm2.962.185a3.538,3.538,0,0,0,.413,1.934,1.376,1.376,0,0,0,1.222.615q1.582,0,1.617-2.435v-.3q0-2.558-1.635-2.558-1.485,0-1.608,2.206Z" transform="translate(6372 -4355.341)" fill="#12263f"/>
    <path id="Trazado_902674" data-name="Trazado 902674" d="M12.109-4.512A5.231,5.231,0,0,1,10.444-1.03,5.457,5.457,0,0,1,6.719.2,5.01,5.01,0,0,1,2.681-1.611,7.268,7.268,0,0,1,1.162-6.445V-7.812A8.1,8.1,0,0,1,1.87-11.3a5.288,5.288,0,0,1,2.007-2.31,5.588,5.588,0,0,1,3.008-.806,5.138,5.138,0,0,1,3.633,1.265,5.294,5.294,0,0,1,1.592,3.5H10.225a4.085,4.085,0,0,0-1.06-2.468,3.206,3.206,0,0,0-2.28-.764,3.355,3.355,0,0,0-2.817,1.329A6.1,6.1,0,0,0,3.047-7.769v1.378a6.273,6.273,0,0,0,.967,3.685A3.124,3.124,0,0,0,6.719-1.338a3.608,3.608,0,0,0,2.4-.708,3.929,3.929,0,0,0,1.108-2.466Zm8.443,2.979h6.738V0H18.668V-14.219h1.885ZM41.467-3.721H35.51L34.172,0H32.238l5.43-14.219h1.641L44.748,0H42.824ZM36.076-5.254H40.91L38.488-11.9ZM54.852-6.338a8.817,8.817,0,0,1-3.511-1.7,3.256,3.256,0,0,1-1.1-2.5,3.439,3.439,0,0,1,1.343-2.778,5.337,5.337,0,0,1,3.491-1.1,5.825,5.825,0,0,1,2.612.566,4.3,4.3,0,0,1,1.777,1.563,4,4,0,0,1,.63,2.178H58.211a2.6,2.6,0,0,0-.82-2.034,3.336,3.336,0,0,0-2.314-.74,3.415,3.415,0,0,0-2.163.611,2.04,2.04,0,0,0-.776,1.7A1.835,1.835,0,0,0,52.874-9.1,7.232,7.232,0,0,0,55.384-8a11.645,11.645,0,0,1,2.773,1.1,4.209,4.209,0,0,1,1.484,1.4,3.577,3.577,0,0,1,.483,1.885A3.322,3.322,0,0,1,58.777-.845,5.746,5.746,0,0,1,55.174.2a6.683,6.683,0,0,1-2.734-.562A4.6,4.6,0,0,1,50.481-1.9a3.754,3.754,0,0,1-.688-2.217h1.885a2.449,2.449,0,0,0,.952,2.036,4.009,4.009,0,0,0,2.544.747,3.685,3.685,0,0,0,2.275-.605,1.967,1.967,0,0,0,.791-1.65,1.931,1.931,0,0,0-.732-1.616A8.444,8.444,0,0,0,54.852-6.338Zm19.713-.234H68.4v5.039h7.158V0H66.527V-14.219h8.936v1.533H68.4v4.58h6.162ZM99.693,0H90.377V-1.3L95.3-6.768a11.693,11.693,0,0,0,1.509-2.017,3.366,3.366,0,0,0,.415-1.606,2.551,2.551,0,0,0-.674-1.826,2.356,2.356,0,0,0-1.8-.713,2.79,2.79,0,0,0-2.095.767,2.928,2.928,0,0,0-.747,2.134H90.1A4.194,4.194,0,0,1,91.368-13.2a4.688,4.688,0,0,1,3.384-1.211,4.5,4.5,0,0,1,3.135,1.04,3.548,3.548,0,0,1,1.152,2.769q0,2.1-2.676,5L92.555-1.475h7.139Zm14.83-6.064a8.263,8.263,0,0,1-1.084,4.717A3.855,3.855,0,0,1,110.051.2a3.883,3.883,0,0,1-3.369-1.509,7.843,7.843,0,0,1-1.133-4.507V-8.232a8.079,8.079,0,0,1,1.084-4.658,3.885,3.885,0,0,1,3.4-1.523,3.92,3.92,0,0,1,3.379,1.47,7.8,7.8,0,0,1,1.113,4.536Zm-1.807-2.471a6.62,6.62,0,0,0-.645-3.345,2.218,2.218,0,0,0-2.041-1.05,2.189,2.189,0,0,0-2.021,1.045,6.464,6.464,0,0,0-.654,3.213v2.891a6.726,6.726,0,0,0,.669,3.4,2.214,2.214,0,0,0,2.026,1.1,2.184,2.184,0,0,0,1.987-1.035,6.483,6.483,0,0,0,.679-3.262Zm17.037,2.471a8.263,8.263,0,0,1-1.084,4.717A3.855,3.855,0,0,1,125.281.2a3.883,3.883,0,0,1-3.369-1.509,7.843,7.843,0,0,1-1.133-4.507V-8.232a8.079,8.079,0,0,1,1.084-4.658,3.885,3.885,0,0,1,3.4-1.523,3.92,3.92,0,0,1,3.379,1.47,7.8,7.8,0,0,1,1.113,4.536Zm-1.807-2.471a6.62,6.62,0,0,0-.645-3.345,2.218,2.218,0,0,0-2.041-1.05,2.189,2.189,0,0,0-2.021,1.045,6.464,6.464,0,0,0-.654,3.213v2.891a6.726,6.726,0,0,0,.669,3.4,2.214,2.214,0,0,0,2.026,1.1,2.184,2.184,0,0,0,1.987-1.035,6.483,6.483,0,0,0,.679-3.262Z" transform="translate(6372 -4302.079)" fill="#12263f"/>
  </g>
</svg>
