<svg id="Grupo_1124454" data-name="Grupo 1124454" xmlns="http://www.w3.org/2000/svg" xmlns:xlink="http://www.w3.org/1999/xlink" width="112.476" height="112.476" viewBox="0 0 112.476 112.476">
  <defs>
    <clipPath id="clip-path">
      <rect id="Rectángulo_413385" data-name="Rectángulo 413385" width="112.476" height="112.476" fill="#638164"/>
    </clipPath>
  </defs>
  <g id="Grupo_1124453" data-name="Grupo 1124453" clip-path="url(#clip-path)">
    <path id="Trazado_895263" data-name="Trazado 895263" d="M112.476,47.167c0-.394,0-1.591-2.922-23.812a25.553,25.553,0,0,0-4.048-10.776A25.232,25.232,0,0,0,93.3,2.888L85.593,0H41.4L33.7,2.886a25.23,25.23,0,0,0-12.211,9.691,25.523,25.523,0,0,0-4.049,10.776c-2.923,22.223-2.923,23.42-2.923,23.814,0,3.358,4.828,6.926,18.142,7.228V79.821H7.257a7.257,7.257,0,1,0,0,14.513h25.4v18.142h61.68V54.4C107.649,54.093,112.476,50.525,112.476,47.167ZM59.181,15.75a5.087,5.087,0,0,0,8.628,0L75.385,3.628h4.956l-7.012,12.4a11.3,11.3,0,0,1-19.669,0l-7.011-12.4H51.6Zm-3.3-12.122H71.105l-6.375,10.2a1.507,1.507,0,0,1-2.472,0ZM18.142,47.169c0-.352.226-3.077,2.891-23.342a21.869,21.869,0,0,1,1.624-5.757,46.443,46.443,0,0,1,10,28.745V50.77c-11.279-.263-14.332-2.921-14.513-3.6m25.4,47.165h3.979l7.708-3.084a4.494,4.494,0,0,0,0-8.345l-7.71-3.084H43.539v-25.4H83.45V97.963H43.539Zm10.343-8.058a.864.864,0,0,1,0,1.6l-4.9,1.959V84.315Zm-8.528,4.43H18.142V83.449H45.354ZM3.629,87.078A3.631,3.631,0,0,1,7.257,83.45h7.256v7.256H7.257a3.631,3.631,0,0,1-3.628-3.628m87.078,21.769H36.283V94.334h3.628v3.629a3.631,3.631,0,0,0,3.628,3.628H83.45a3.631,3.631,0,0,0,3.628-3.628V54.424a3.632,3.632,0,0,0-3.628-3.629H43.539a3.632,3.632,0,0,0-3.628,3.629v25.4H36.283V46.815A50.092,50.092,0,0,0,24.522,14.564,21.622,21.622,0,0,1,34.97,6.284l7.084-2.656h.426L50.5,17.816a14.926,14.926,0,0,0,25.989,0L84.51,3.628h.426L92.02,6.284a21.633,21.633,0,0,1,10.448,8.28A50.086,50.086,0,0,0,90.707,46.815ZM94.335,50.77V46.815a46.443,46.443,0,0,1,10-28.745,21.829,21.829,0,0,1,1.623,5.757c2.667,20.265,2.888,22.99,2.9,23.278-.186.742-3.24,3.4-14.518,3.665" fill="#638164"/>
    <path id="Trazado_895264" data-name="Trazado 895264" d="M62.373,65.153a10.849,10.849,0,0,0-7.949-3.473H47.167v3.629A10.9,10.9,0,0,0,58.052,76.194H61.68V94.335h3.629V90.707h3.628A10.9,10.9,0,0,0,79.822,79.822V76.194H72.565a10.83,10.83,0,0,0-7.256,2.793V72.565h3.628A10.9,10.9,0,0,0,79.822,61.68V58.052H72.565a10.893,10.893,0,0,0-10.192,7.1M72.565,79.822h3.629a7.264,7.264,0,0,1-7.257,7.256H65.309a7.263,7.263,0,0,1,7.256-7.256M58.052,72.565A7.263,7.263,0,0,1,50.8,65.309h3.628a7.263,7.263,0,0,1,7.256,7.256Zm10.885-3.628H65.309a7.264,7.264,0,0,1,7.256-7.257h3.629a7.265,7.265,0,0,1-7.257,7.257" fill="#638164"/>
    <path id="Trazado_895265" data-name="Trazado 895265" d="M83.45,30.84H72.565a3.632,3.632,0,0,0-3.628,3.629V38.1a3.631,3.631,0,0,0,3.628,3.628H83.45A3.631,3.631,0,0,0,87.078,38.1V34.469A3.632,3.632,0,0,0,83.45,30.84M72.565,38.1V34.469H83.45l0,3.628Z" fill="#638164"/>
    <path id="Trazado_895266" data-name="Trazado 895266" d="M45.353,30.84a5.442,5.442,0,1,0,5.442,5.443,5.449,5.449,0,0,0-5.442-5.443m0,7.257a1.814,1.814,0,1,1,1.814-1.814A1.817,1.817,0,0,1,45.353,38.1" fill="#638164"/>
  </g>
</svg>
