<svg id="Grupo_1122856" data-name="Grupo 1122856" xmlns="http://www.w3.org/2000/svg" xmlns:xlink="http://www.w3.org/1999/xlink" width="70.482" height="70.482" viewBox="0 0 70.482 70.482">
  <defs>
    <clipPath id="clip-path">
      <rect id="Rectángulo_412731" data-name="Rectángulo 412731" width="70.482" height="70.482" fill="none"/>
    </clipPath>
  </defs>
  <rect id="Rectángulo_412720" data-name="Rectángulo 412720" width="25.01" height="2.274" transform="translate(5.684 25.01)" fill="#ffb74d"/>
  <rect id="Rectángulo_412721" data-name="Rectángulo 412721" width="6.821" height="2.274" transform="translate(32.968 25.01)" fill="#ffb74d"/>
  <rect id="Rectángulo_412722" data-name="Rectángulo 412722" width="34.105" height="2.274" transform="translate(5.684 29.557)" fill="#ffb74d"/>
  <rect id="Rectángulo_412723" data-name="Rectángulo 412723" width="4.547" height="2.274" transform="translate(5.684 34.104)" fill="#ffb74d"/>
  <rect id="Rectángulo_412724" data-name="Rectángulo 412724" width="27.283" height="2.274" transform="translate(12.505 34.104)" fill="#ffb74d"/>
  <g id="Grupo_1122855" data-name="Grupo 1122855">
    <g id="Grupo_1122854" data-name="Grupo 1122854" clip-path="url(#clip-path)">
      <path id="Trazado_893713" data-name="Trazado 893713" d="M328.206,73.959a6.828,6.828,0,0,1-6.821-6.821V39.854a6.832,6.832,0,0,0-2.924-5.6l1.3-1.866a9.109,9.109,0,0,1,3.9,7.464V67.138a4.552,4.552,0,0,0,4.547,4.547Z" transform="translate(-257.723 -26.212)" fill="#ffb74d"/>
      <rect id="Rectángulo_412725" data-name="Rectángulo 412725" width="34.105" height="2.274" transform="translate(5.684 38.652)" fill="#ffb74d"/>
      <rect id="Rectángulo_412726" data-name="Rectángulo 412726" width="25.01" height="2.274" transform="translate(5.684 43.199)" fill="#ffb74d"/>
      <rect id="Rectángulo_412727" data-name="Rectángulo 412727" width="6.821" height="2.274" transform="translate(32.968 43.199)" fill="#ffb74d"/>
      <rect id="Rectángulo_412728" data-name="Rectángulo 412728" width="34.105" height="2.274" transform="translate(5.684 47.746)" fill="#ffb74d"/>
      <path id="Trazado_893714" data-name="Trazado 893714" d="M273.914,0a5.7,5.7,0,0,0-5.683,5.746L271.7,70.482h4.43l3.469-64.8A5.691,5.691,0,0,0,273.914,0m.059,68.209h-.118L270.5,5.684a3.411,3.411,0,0,1,6.822-.062Z" transform="translate(-217.073)" fill="#ffb74d"/>
      <rect id="Rectángulo_412729" data-name="Rectángulo 412729" width="4.547" height="2.274" transform="translate(5.684 52.293)" fill="#ffb74d"/>
      <rect id="Rectángulo_412730" data-name="Rectángulo 412730" width="27.283" height="2.274" transform="translate(12.505 52.293)" fill="#ffb74d"/>
      <path id="Trazado_893715" data-name="Trazado 893715" d="M212.03,62.494h-3.411V60.22h3.411a4.552,4.552,0,0,0,4.547-4.547V32.937a9.105,9.105,0,0,1,9.095-9.095v2.274a6.828,6.828,0,0,0-6.821,6.821V55.673a6.828,6.828,0,0,1-6.821,6.821" transform="translate(-168.831 -19.295)" fill="#ffb74d"/>
      <path id="Trazado_893716" data-name="Trazado 893716" d="M43.2,47.684H2.274A2.276,2.276,0,0,0,0,49.958v2.274A2.276,2.276,0,0,0,2.274,54.5h.3l1.971,6.26V95.991l-1.971,6.26h-.3A2.276,2.276,0,0,0,0,104.525V106.8a2.276,2.276,0,0,0,2.274,2.274H43.2a2.276,2.276,0,0,0,2.274-2.274v-2.274a2.276,2.276,0,0,0-2.274-2.274h-.3l-1.971-6.26V60.765L42.9,54.5h.3a2.276,2.276,0,0,0,2.274-2.274V49.958A2.276,2.276,0,0,0,43.2,47.684M6.821,61.326H38.652v34.1H6.821ZM43.2,106.8H2.274v-2.274H43.2ZM4.96,102.251,6.391,97.7h32.69l1.432,4.547Zm34.121-43.2H6.391L4.96,54.5H40.512ZM43.2,52.231H2.274V49.958H43.2Z" transform="translate(0 -38.59)" fill="#ffb74d"/>
    </g>
  </g>
</svg>
