<svg xmlns="http://www.w3.org/2000/svg" xmlns:xlink="http://www.w3.org/1999/xlink" width="322.579" height="416.623" viewBox="0 0 322.579 416.623">
  <defs>
    <linearGradient id="linear-gradient" x1="0.5" y1="0.126" x2="-0.072" y2="0.57" gradientUnits="objectBoundingBox">
      <stop offset="0" stop-color="#a5d6a7"/>
      <stop offset="1" stop-color="#536b54"/>
    </linearGradient>
    <clipPath id="clip-path">
      <rect id="Rectángulo_410911" data-name="Rectángulo 410911" width="104.883" height="35.105" fill="#fffdf5"/>
    </clipPath>
    <clipPath id="clip-path-2">
      <rect id="Rectángulo_413418" data-name="Rectángulo 413418" width="285.922" height="361.154" fill="none"/>
    </clipPath>
    <clipPath id="clip-path-4">
      <rect id="Rectángulo_413386" data-name="Rectángulo 413386" width="279.177" height="157.492" transform="translate(6.745 6.191)" fill="none"/>
    </clipPath>
    <clipPath id="clip-path-5">
      <path id="Trazado_895269" data-name="Trazado 895269" d="M31.994,154.1,35.51,8,272.15,3.455,275.706,154.1Z" fill="none"/>
    </clipPath>
    <linearGradient id="linear-gradient-2" x1="-0.131" y1="2.374" x2="-0.127" y2="2.374" gradientUnits="objectBoundingBox">
      <stop offset="0" stop-color="#5f3759"/>
      <stop offset="0.344" stop-color="#5b3658"/>
      <stop offset="0.672" stop-color="#4f3458"/>
      <stop offset="0.992" stop-color="#3c3257"/>
      <stop offset="1" stop-color="#3c3257"/>
    </linearGradient>
    <clipPath id="clip-path-7">
      <rect id="Rectángulo_413389" data-name="Rectángulo 413389" width="19.351" height="114.157" transform="translate(116.061 6.205)" fill="none"/>
    </clipPath>
    <clipPath id="clip-path-8">
      <rect id="Rectángulo_413390" data-name="Rectángulo 413390" width="48.435" height="106.451" transform="translate(47.924 8.849)" fill="none"/>
    </clipPath>
    <clipPath id="clip-path-9">
      <rect id="Rectángulo_413391" data-name="Rectángulo 413391" width="35.735" height="58.235" transform="translate(58.216 57.065)" fill="none"/>
    </clipPath>
    <clipPath id="clip-path-10">
      <rect id="Rectángulo_413392" data-name="Rectángulo 413392" width="56.968" height="73.13" transform="translate(0 83.438)" fill="none"/>
    </clipPath>
    <clipPath id="clip-path-11">
      <rect id="Rectángulo_413393" data-name="Rectángulo 413393" width="61.19" height="78.312" transform="translate(30.221 54.065)" fill="none"/>
    </clipPath>
    <clipPath id="clip-path-12">
      <path id="Trazado_895318" data-name="Trazado 895318" d="M117.266,15.642c-.588.275-1.229,2.185-1.733,2.959a1.815,1.815,0,0,0-.144.293c-.571,1.352-1.689,5.841-1.859,6.219a21.508,21.508,0,0,0-.564,3.714c-.051.637-.084,1.319-.088,2.015a12.927,12.927,0,0,0,.881,5.336,6.362,6.362,0,0,0,1.734,1.305,5.461,5.461,0,0,0,1.77.562,3.031,3.031,0,0,0,.548.037h2.726c1.044-1.6,3.807-10.221,3.329-14.425a22.093,22.093,0,0,0-.534-5.029c-.243-1.2-.522-2.249-.718-2.93-.144-.522-.245-.83-.245-.83a48.536,48.536,0,0,0-5.1.774" fill="none"/>
    </clipPath>
    <linearGradient id="linear-gradient-3" x1="-9.83" y1="14.909" x2="-9.743" y2="14.909" gradientUnits="objectBoundingBox">
      <stop offset="0" stop-color="#f08e73"/>
      <stop offset="1" stop-color="#f9b99d"/>
    </linearGradient>
    <clipPath id="clip-path-14">
      <path id="Trazado_895322" data-name="Trazado 895322" d="M102.819,28.486l-.333,2.148a28.477,28.477,0,0,1,.056,5.945,23.22,23.22,0,0,1-.827,4.3,14.425,14.425,0,0,1-1.292,3.192c6.906,3.544,10.828,2.657,13.6,1.769a11.06,11.06,0,0,1,3.244-.794,3.519,3.519,0,0,1-1.125-2.411l-.223-4.952-.048-1.093-.3-6.7-.033-.756-.03-.648Z" fill="none"/>
    </clipPath>
    <linearGradient id="linear-gradient-4" x1="-5.962" y1="17.393" x2="-5.903" y2="17.393" xlink:href="#linear-gradient-3"/>
    <clipPath id="clip-path-15">
      <path id="Trazado_895323" data-name="Trazado 895323" d="M98.53,117.386c-1.481,4.126-3.241,10.144-2.856,14.669,1.238,14.522,9.386,18.729,9.386,18.729a218.88,218.88,0,0,0,4.651,35.795c1.045,5.019,2.318,10.37,3.878,15.925,0,0-7.314,7.893-11.911,22.377-1.674,5.274-1.218,35.806-.585,59.372v.007c.423,15.695-.063,27.665.922,28.3a3.562,3.562,0,0,0,.707.352c2,.782,4.889.289,6.43-.07.652-.152,1.063-.282,1.063-.282l21.673-106.106,2.807-4.185c5.959-71.741,1.493-87.185,1.493-87.185l-35.765-2.425s-.882,1.929-1.893,4.729" fill="none"/>
    </clipPath>
    <linearGradient id="linear-gradient-5" x1="-2.1" y1="1.236" x2="-2.078" y2="1.236" gradientUnits="objectBoundingBox">
      <stop offset="0" stop-color="#77a5bd"/>
      <stop offset="0.006" stop-color="#77a5bd"/>
      <stop offset="1" stop-color="#66b0a5"/>
    </linearGradient>
    <clipPath id="clip-path-17">
      <path id="Trazado_895325" data-name="Trazado 895325" d="M87.735,64.244c-.378,3.359,1.063,8.907,2.951,15.133,0,0,0,.01.008.019,1.951,6.432,4.378,13.591,5.766,19.813a35.087,35.087,0,0,1,.148,13.837c-.151.784-.274,1.222-.274,1.222s1.07.474,2.956,1.1c5.159,1.723,16.428,4.611,28.676,2.182a44.4,44.4,0,0,0,8.222-2.467v0c.107-5.251.755-13.758.415-23.276-.1-2.815-.289-5.723-.6-8.659a82.3,82.3,0,0,0-3.192-15.94,49.947,49.947,0,0,0-6.948-14.266c-.519-.718-1.063-1.426-1.634-2.111a37.487,37.487,0,0,0-5.073-5.067,2.972,2.972,0,0,0-1.886-.721,11.073,11.073,0,0,0-3.245.794c-2.77.888-6.692,1.775-13.6-1.769,0,0-11.411,8.844-12.688,20.177" fill="none"/>
    </clipPath>
    <linearGradient id="linear-gradient-6" x1="-1.762" y1="4.177" x2="-1.742" y2="4.177" gradientUnits="objectBoundingBox">
      <stop offset="0" stop-color="#fac383"/>
      <stop offset="1" stop-color="#f19b6c"/>
    </linearGradient>
    <clipPath id="clip-path-18">
      <path id="Trazado_895326" data-name="Trazado 895326" d="M117.207,52.074a18.112,18.112,0,0,0-1.133,6.363,15.415,15.415,0,0,0,.133,1.918c.233,1.789,1.978,4.856,4.5,8.478,2.747,3.963,6.417,8.592,10.035,12.947,1.968,2.367,3.919,4.648,5.7,6.7l0,0c.28.326.562.648.833.96,1,1.144,1.933,2.2,2.77,3.143a8.2,8.2,0,0,0,9.169,2.171c.179-.07.356-.148.534-.233a4.169,4.169,0,0,0,.893-.578,4.259,4.259,0,0,0,1.263-4.711c-2.9-8.018-10.281-27.18-17.278-35.38a18.716,18.716,0,0,0-5.1-3.966,19.368,19.368,0,0,0-4.812-1.9,7.512,7.512,0,0,0-.777-.133,6.424,6.424,0,0,0-6.733,4.211" fill="none"/>
    </clipPath>
    <linearGradient id="linear-gradient-7" x1="-3.213" y1="6.562" x2="-3.186" y2="6.562" xlink:href="#linear-gradient-6"/>
    <clipPath id="clip-path-20">
      <path id="Trazado_895328" data-name="Trazado 895328" d="M111.893,27.553a6.315,6.315,0,0,0,.274,1.859,4.7,4.7,0,0,0,.711,1.43v0a2.63,2.63,0,0,0,2.084,1.2,2.107,2.107,0,0,0,.7-.119,2.485,2.485,0,0,0,.67-.355,4.986,4.986,0,0,0,1.7-4.015c0-.093,0-.185-.007-.274-.1-2.352-1.43-4.211-3.064-4.211-1.695,0-3.069,2.007-3.069,4.485" fill="none"/>
    </clipPath>
    <linearGradient id="linear-gradient-8" x1="-18.224" y1="37.674" x2="-18.061" y2="37.674" xlink:href="#linear-gradient-3"/>
    <clipPath id="clip-path-22">
      <path id="Trazado_895330" data-name="Trazado 895330" d="M98.227,13.2v0h0c2.922,1.544,5.437,3.714,6.478,5.64a16.286,16.286,0,0,1,1.462,7.171,13.577,13.577,0,0,1-1.863,7.029,30.365,30.365,0,0,1-2.288,3.4c.215-.06,7.578-2.164,6.355-12.345S97.653,12.8,97.357,12.765c.292.137.585.285.87.437" fill="none"/>
    </clipPath>
    <linearGradient id="linear-gradient-9" x1="-7.954" y1="14.712" x2="-7.872" y2="14.712" xlink:href="#linear-gradient-5"/>
    <clipPath id="clip-path-24">
      <rect id="Rectángulo_413406" data-name="Rectángulo 413406" width="20.853" height="59.116" transform="translate(115.848 58.437)" fill="none"/>
    </clipPath>
    <clipPath id="clip-path-25">
      <rect id="Rectángulo_413407" data-name="Rectángulo 413407" width="12.778" height="7.655" transform="translate(136.443 88.487)" fill="none"/>
    </clipPath>
    <clipPath id="clip-path-26">
      <rect id="Rectángulo_413408" data-name="Rectángulo 413408" width="39.266" height="197.472" transform="translate(98.53 115.086)" fill="none"/>
    </clipPath>
    <clipPath id="clip-path-27">
      <rect id="Rectángulo_413409" data-name="Rectángulo 413409" width="10.788" height="35.795" transform="translate(105.06 150.784)" fill="none"/>
    </clipPath>
    <clipPath id="clip-path-28">
      <rect id="Rectángulo_413410" data-name="Rectángulo 413410" width="31.651" height="33.65" transform="translate(90.693 79.395)" fill="none"/>
    </clipPath>
    <clipPath id="clip-path-29">
      <rect id="Rectángulo_413411" data-name="Rectángulo 413411" width="10.456" height="22.044" transform="translate(112.877 16.039)" fill="none"/>
    </clipPath>
    <clipPath id="clip-path-30">
      <rect id="Rectángulo_413412" data-name="Rectángulo 413412" width="26.914" height="46.685" transform="translate(116.073 48.013)" fill="none"/>
    </clipPath>
    <clipPath id="clip-path-31">
      <rect id="Rectángulo_413413" data-name="Rectángulo 413413" width="22.632" height="44.057" transform="translate(129.529 49.893)" fill="none"/>
    </clipPath>
    <clipPath id="clip-path-32">
      <rect id="Rectángulo_413416" data-name="Rectángulo 413416" width="68.253" height="37.372" transform="translate(99.494 323.782)" fill="none"/>
    </clipPath>
    <clipPath id="clip-path-33">
      <path id="Trazado_895350" data-name="Trazado 895350" d="M100.532,361.154c.063-5.259.3-11.1.56-16.314v0c.422-8.359-.063-14.736.922-15.073a5.269,5.269,0,0,1,.707-.189,22.76,22.76,0,0,1,6.429.037c.652.081,1.063.152,1.063.152l11.83,30.854.207.537Z" fill="none"/>
    </clipPath>
    <linearGradient id="linear-gradient-10" x1="-4.629" y1="1" x2="-4.583" y2="1" xlink:href="#linear-gradient-5"/>
    <clipPath id="clip-path-34">
      <rect id="Rectángulo_413415" data-name="Rectángulo 413415" width="12.47" height="31.391" transform="translate(109.78 329.763)" fill="none"/>
    </clipPath>
  </defs>
  <g id="Grupo_1124969" data-name="Grupo 1124969" transform="translate(-228.343 -6958.751)">
    <rect id="Rectángulo_411399" data-name="Rectángulo 411399" width="293.93" height="273.676" rx="30" transform="translate(228.343 7364.332) rotate(-90)" fill="url(#linear-gradient)"/>
    <path id="_A8703F4B-AC72-4105-9FC6-2AC95F84CDCF_" data-name="{A8703F4B-AC72-4105-9FC6-2AC95F84CDCF}" d="M45.806,0H196.967a0,0,0,0,1,0,0V277.035a98.483,98.483,0,0,1-98.483,98.483h0A98.483,98.483,0,0,1,0,277.035V45.806A45.806,45.806,0,0,1,45.806,0Z" transform="translate(260.046 6958.751)" fill="#ffb74d"/>
    <g id="Grupo_1119206" data-name="Grupo 1119206" transform="translate(272.599 7014.22)">
      <path id="Trazado_883785" data-name="Trazado 883785" d="M0,291.767l1.742,1.343h8.666L0,285.086Z" transform="translate(0 -201.638)" fill="#ffe060"/>
      <path id="Trazado_883786" data-name="Trazado 883786" d="M0,256.131l20.292,15.642h8.666L0,249.45Z" transform="translate(0 -180.301)" fill="#ffe060"/>
      <path id="Trazado_883787" data-name="Trazado 883787" d="M0,220.5l38.841,29.94h1.3v-5.679L0,213.814Z" transform="translate(0 -158.964)" fill="#ffe060"/>
      <path id="Trazado_883788" data-name="Trazado 883788" d="M0,184.859,40.14,215.8V209.12L0,178.179Z" transform="translate(0 -137.627)" fill="#ffe060"/>
      <path id="Trazado_883789" data-name="Trazado 883789" d="M0,149.223l40.14,30.942v-6.681L0,142.543Z" transform="translate(0 -116.289)" fill="#ffe060"/>
      <path id="Trazado_883790" data-name="Trazado 883790" d="M0,113.588l40.14,30.941v-6.68L0,106.907Z" transform="translate(0 -94.952)" fill="#ffe060"/>
      <path id="Trazado_883791" data-name="Trazado 883791" d="M0,77.113V81.45l40.14,30.942v-6.681l-37.1-28.6Z" transform="translate(0 -77.113)" fill="#ffe060"/>
      <path id="Trazado_883792" data-name="Trazado 883792" d="M32.209,77.113,59.425,98.092V91.412l-18.549-14.3Z" transform="translate(-19.285 -77.113)" fill="#ffe060"/>
      <path id="Trazado_883793" data-name="Trazado 883793" d="M78.44,77.113l8.666,6.68v-6.68Z" transform="translate(-46.966 -77.113)" fill="#ffe060"/>
    </g>
    <g id="Grupo_1120653" data-name="Grupo 1120653" transform="translate(260.298 7245.821)">
      <g id="Grupo_1119210" data-name="Grupo 1119210" clip-path="url(#clip-path)">
        <path id="Trazado_883800" data-name="Trazado 883800" d="M3.629,1.815A1.815,1.815,0,1,1,1.815,0,1.815,1.815,0,0,1,3.629,1.815" transform="translate(0 0)" fill="#fffdf5"/>
        <path id="Trazado_883801" data-name="Trazado 883801" d="M32.086,1.815A1.815,1.815,0,1,1,30.272,0a1.815,1.815,0,0,1,1.815,1.815" transform="translate(-8.207 0)" fill="#fffdf5"/>
        <path id="Trazado_883802" data-name="Trazado 883802" d="M60.544,1.815A1.815,1.815,0,1,1,58.73,0a1.815,1.815,0,0,1,1.815,1.815" transform="translate(-16.414 0)" fill="#fffdf5"/>
        <path id="Trazado_883803" data-name="Trazado 883803" d="M89,1.815A1.815,1.815,0,1,1,87.188,0,1.815,1.815,0,0,1,89,1.815" transform="translate(-24.621 0)" fill="#fffdf5"/>
        <path id="Trazado_883804" data-name="Trazado 883804" d="M117.459,1.815A1.815,1.815,0,1,1,115.645,0a1.815,1.815,0,0,1,1.815,1.815" transform="translate(-32.827 0)" fill="#fffdf5"/>
        <path id="Trazado_883805" data-name="Trazado 883805" d="M145.917,1.815A1.815,1.815,0,1,1,144.1,0a1.815,1.815,0,0,1,1.815,1.815" transform="translate(-41.034 0)" fill="#fffdf5"/>
        <path id="Trazado_883806" data-name="Trazado 883806" d="M3.629,23.93a1.815,1.815,0,1,1-1.815-1.815A1.815,1.815,0,0,1,3.629,23.93" transform="translate(0 -6.378)" fill="#fffdf5"/>
        <path id="Trazado_883807" data-name="Trazado 883807" d="M32.086,23.93a1.815,1.815,0,1,1-1.815-1.815,1.815,1.815,0,0,1,1.815,1.815" transform="translate(-8.207 -6.378)" fill="#fffdf5"/>
        <path id="Trazado_883808" data-name="Trazado 883808" d="M60.544,23.93a1.815,1.815,0,1,1-1.815-1.815,1.815,1.815,0,0,1,1.815,1.815" transform="translate(-16.414 -6.378)" fill="#fffdf5"/>
        <path id="Trazado_883809" data-name="Trazado 883809" d="M89,23.93a1.815,1.815,0,1,1-1.815-1.815A1.815,1.815,0,0,1,89,23.93" transform="translate(-24.621 -6.378)" fill="#fffdf5"/>
        <path id="Trazado_883810" data-name="Trazado 883810" d="M117.459,23.93a1.815,1.815,0,1,1-1.815-1.815,1.815,1.815,0,0,1,1.815,1.815" transform="translate(-32.827 -6.378)" fill="#fffdf5"/>
        <path id="Trazado_883811" data-name="Trazado 883811" d="M145.917,23.93a1.815,1.815,0,1,1-1.815-1.815,1.815,1.815,0,0,1,1.815,1.815" transform="translate(-41.034 -6.378)" fill="#fffdf5"/>
        <path id="Trazado_883812" data-name="Trazado 883812" d="M3.629,46.046a1.815,1.815,0,1,1-1.815-1.815,1.815,1.815,0,0,1,1.815,1.815" transform="translate(0 -12.756)" fill="#fffdf5"/>
        <path id="Trazado_883813" data-name="Trazado 883813" d="M32.086,46.046a1.815,1.815,0,1,1-1.815-1.815,1.815,1.815,0,0,1,1.815,1.815" transform="translate(-8.207 -12.756)" fill="#fffdf5"/>
        <path id="Trazado_883814" data-name="Trazado 883814" d="M60.544,46.046a1.815,1.815,0,1,1-1.815-1.815,1.815,1.815,0,0,1,1.815,1.815" transform="translate(-16.414 -12.756)" fill="#fffdf5"/>
        <path id="Trazado_883815" data-name="Trazado 883815" d="M89,46.046a1.815,1.815,0,1,1-1.815-1.815A1.815,1.815,0,0,1,89,46.046" transform="translate(-24.621 -12.756)" fill="#fffdf5"/>
        <path id="Trazado_883816" data-name="Trazado 883816" d="M117.459,46.046a1.815,1.815,0,1,1-1.815-1.815,1.815,1.815,0,0,1,1.815,1.815" transform="translate(-32.827 -12.756)" fill="#fffdf5"/>
        <path id="Trazado_883817" data-name="Trazado 883817" d="M145.917,46.046a1.815,1.815,0,1,1-1.815-1.815,1.815,1.815,0,0,1,1.815,1.815" transform="translate(-41.034 -12.756)" fill="#fffdf5"/>
      </g>
    </g>
    <g id="Grupo_1124536" data-name="Grupo 1124536" transform="translate(265 7014.22)">
      <g id="Grupo_1124535" data-name="Grupo 1124535" clip-path="url(#clip-path-2)">
        <g id="Grupo_1124459" data-name="Grupo 1124459">
          <g id="Grupo_1124458" data-name="Grupo 1124458" clip-path="url(#clip-path-2)">
            <g id="Grupo_1124457" data-name="Grupo 1124457" opacity="0.5">
              <g id="Grupo_1124456" data-name="Grupo 1124456">
                <g id="Grupo_1124455" data-name="Grupo 1124455" clip-path="url(#clip-path-4)">
                  <path id="Trazado_895267" data-name="Trazado 895267" d="M285.922,163.683,282.2,6.191,38.944,10.86l-1.5,62.423-.476.654c-5.17,7.129-10.078,14.8-17.6,16.947-3.53,1.008-7.637.8-12.618-1.255q14.467,29.153,28.9,58.233l-.381,15.821Z" fill="#8985a6"/>
                </g>
              </g>
            </g>
          </g>
        </g>
        <path id="Trazado_895268" data-name="Trazado 895268" d="M275.459,0,32.2,4.669,28.522,157.492H279.177Z" fill="#392b69"/>
        <g id="Grupo_1124461" data-name="Grupo 1124461">
          <g id="Grupo_1124460" data-name="Grupo 1124460" clip-path="url(#clip-path-5)">
            <rect id="Rectángulo_413388" data-name="Rectángulo 413388" width="243.712" height="150.647" transform="translate(31.994 3.455)" fill="url(#linear-gradient-2)"/>
          </g>
        </g>
        <g id="Grupo_1124478" data-name="Grupo 1124478">
          <g id="Grupo_1124477" data-name="Grupo 1124477" clip-path="url(#clip-path-2)">
            <path id="Trazado_895270" data-name="Trazado 895270" d="M148.558,106.918a7.834,7.834,0,0,1-4.483-1.666.142.142,0,0,1-.057-.139c.2-1.131.362-2.41.471-3.8,1.672-21.8-9.1-69.2-9.214-69.677a.143.143,0,0,1,.037-.129.14.14,0,0,1,.129-.038c.127.029,12.727,2.943,18.571,13.275l.007.016c8.864,21.565,1.925,47.606-1.471,57.8-.713,2.145-1.209,3.384-1.214,3.4a.175.175,0,0,1-.032.048,4.151,4.151,0,0,1-2.744.916m-4.251-1.843c4.145,2.876,6.537.959,6.781.746.078-.2.546-1.4,1.2-3.351,3.385-10.164,10.3-36.123,1.481-57.6C148.4,35.4,137.282,32.224,135.6,31.791c.8,3.544,10.786,48.466,9.17,69.541-.107,1.366-.261,2.624-.459,3.743" fill="#fff"/>
            <path id="Trazado_895271" data-name="Trazado 895271" d="M148.558,106.918a7.834,7.834,0,0,1-4.483-1.666.142.142,0,0,1-.057-.139c.2-1.131.362-2.41.471-3.8a.138.138,0,0,1,.08-.115.143.143,0,0,1,.14.014,8.536,8.536,0,0,0,7.67,1.171.145.145,0,0,1,.138.038.141.141,0,0,1,.031.14c-.713,2.145-1.209,3.384-1.214,3.4a.175.175,0,0,1-.032.048,4.151,4.151,0,0,1-2.744.916m-4.251-1.843c4.179,2.9,6.521.982,6.78.747.075-.188.507-1.295,1.116-3.106a8.784,8.784,0,0,1-7.457-1.14c-.106,1.272-.253,2.447-.439,3.5" fill="#fff"/>
            <path id="Trazado_895272" data-name="Trazado 895272" d="M143.784,38.75a.141.141,0,0,1-.106-.049,19.716,19.716,0,0,0-1.494-1.619.139.139,0,1,1,.189-.2,19.9,19.9,0,0,1,1.517,1.643.139.139,0,0,1-.106.229" fill="#fff"/>
            <path id="Trazado_895273" data-name="Trazado 895273" d="M152.089,99a.153.153,0,0,1-.036,0,.14.14,0,0,1-.1-.171c.394-1.456.76-2.926,1.088-4.371a.138.138,0,0,1,.166-.105.141.141,0,0,1,.106.166c-.33,1.449-.7,2.923-1.093,4.383a.139.139,0,0,1-.134.1m1.99-8.8a.109.109,0,0,1-.026,0,.14.14,0,0,1-.112-.161c.269-1.488.5-2.986.691-4.45a.135.135,0,0,1,.156-.12.141.141,0,0,1,.12.156c-.192,1.469-.424,2.97-.694,4.463a.137.137,0,0,1-.135.115m1.157-8.943h-.011a.14.14,0,0,1-.129-.149c.118-1.507.192-3.019.224-4.5a.14.14,0,0,1,.14-.136.138.138,0,0,1,.136.142c-.03,1.483-.106,3-.222,4.512a.14.14,0,0,1-.138.128m.183-9.013a.141.141,0,0,1-.14-.134c-.058-1.506-.164-3.017-.317-4.489a.139.139,0,1,1,.276-.029c.153,1.478.261,3,.319,4.507a.139.139,0,0,1-.133.145Zm-.935-8.966a.137.137,0,0,1-.136-.116c-.258-1.484-.569-2.965-.927-4.4a.139.139,0,0,1,.27-.068c.36,1.444.672,2.932.931,4.423a.14.14,0,0,1-.115.161l-.023,0M152.3,54.539a.137.137,0,0,1-.132-.1c-.476-1.431-1.01-2.847-1.588-4.209a.138.138,0,0,1,.073-.182.139.139,0,0,1,.183.073c.58,1.369,1.117,2.792,1.6,4.23a.139.139,0,0,1-.088.176.138.138,0,0,1-.043.007m-3.53-8.291a.138.138,0,0,1-.123-.074c-.716-1.346-1.487-2.648-2.293-3.868a.137.137,0,0,1,.038-.192.141.141,0,0,1,.194.039c.811,1.227,1.587,2.536,2.306,3.891a.139.139,0,0,1-.122.2" fill="#fff"/>
            <path id="Trazado_895274" data-name="Trazado 895274" d="M150.138,105.455a.139.139,0,0,1-.132-.183q.355-1.065.683-2.112a.139.139,0,1,1,.265.083q-.328,1.05-.684,2.117a.139.139,0,0,1-.132.1" fill="#fff"/>
            <path id="Trazado_895275" data-name="Trazado 895275" d="M252.5,138.014a4.144,4.144,0,0,1-2.743-.916.14.14,0,0,1-.032-.048c0-.012-.5-1.251-1.215-3.4-3.4-10.2-10.334-36.237-1.471-57.8l.008-.017c5.844-10.332,18.444-13.246,18.57-13.274a.138.138,0,0,1,.166.166c-.109.477-10.885,47.881-9.213,69.679.108,1.386.266,2.666.47,3.8a.138.138,0,0,1-.056.138,7.825,7.825,0,0,1-4.484,1.667m-2.529-1.1c.259.234,2.6,2.156,6.78-.747-.2-1.123-.352-2.381-.458-3.743-1.617-21.074,8.371-66,9.17-69.541-1.687.432-12.806,3.6-18.17,13.079-8.823,21.477-1.9,47.435,1.481,57.6.651,1.957,1.119,3.156,1.2,3.352" fill="#fff"/>
            <path id="Trazado_895276" data-name="Trazado 895276" d="M252.5,138.014a4.144,4.144,0,0,1-2.743-.916.14.14,0,0,1-.032-.048c0-.012-.5-1.251-1.215-3.4a.141.141,0,0,1,.031-.14.143.143,0,0,1,.139-.037,8.539,8.539,0,0,0,7.67-1.172.136.136,0,0,1,.139-.014.14.14,0,0,1,.081.115c.108,1.388.266,2.668.47,3.8a.138.138,0,0,1-.056.138,7.825,7.825,0,0,1-4.484,1.667m-2.529-1.1c.259.234,2.6,2.156,6.78-.747-.186-1.054-.333-2.231-.438-3.5a8.79,8.79,0,0,1-7.457,1.14c.608,1.81,1.041,2.917,1.115,3.1" fill="#fff"/>
            <path id="Trazado_895277" data-name="Trazado 895277" d="M257.278,69.847a.139.139,0,0,1-.106-.229,19.9,19.9,0,0,1,1.517-1.643.139.139,0,1,1,.189.2,19.718,19.718,0,0,0-1.494,1.619.141.141,0,0,1-.106.049" fill="#fff"/>
            <path id="Trazado_895278" data-name="Trazado 895278" d="M248.972,130.1a.14.14,0,0,1-.134-.1c-.4-1.459-.763-2.934-1.092-4.382a.139.139,0,0,1,.271-.062c.328,1.445.694,2.916,1.089,4.371a.14.14,0,0,1-.1.171.164.164,0,0,1-.037.005m-1.989-8.8a.138.138,0,0,1-.136-.115c-.269-1.493-.5-2.994-.692-4.463a.139.139,0,0,1,.275-.036c.19,1.464.423,2.962.69,4.45a.137.137,0,0,1-.112.161.107.107,0,0,1-.025,0m-1.157-8.942a.139.139,0,0,1-.138-.128c-.117-1.514-.192-3.032-.223-4.513a.139.139,0,0,1,.136-.142.136.136,0,0,1,.142.136c.031,1.476.105,2.989.222,4.5a.14.14,0,0,1-.128.149h-.011m-.183-9.014h-.005a.14.14,0,0,1-.134-.145c.059-1.512.167-3.029.32-4.507a.139.139,0,1,1,.276.029c-.152,1.472-.259,2.983-.318,4.489a.14.14,0,0,1-.139.134m.934-8.966a.093.093,0,0,1-.023,0,.137.137,0,0,1-.113-.16c.257-1.491.57-2.979.93-4.423a.139.139,0,1,1,.269.068c-.357,1.437-.669,2.918-.926,4.4a.138.138,0,0,1-.137.115m2.182-8.744a.138.138,0,0,1-.131-.183c.477-1.438,1.013-2.861,1.6-4.23a.139.139,0,1,1,.255.109c-.578,1.362-1.112,2.778-1.587,4.209a.139.139,0,0,1-.132.1m3.531-8.291a.139.139,0,0,1-.123-.2c.719-1.353,1.494-2.662,2.306-3.891a.139.139,0,0,1,.232.153c-.807,1.222-1.578,2.524-2.292,3.868a.14.14,0,0,1-.123.074" fill="#fff"/>
            <path id="Trazado_895279" data-name="Trazado 895279" d="M250.924,136.551a.139.139,0,0,1-.132-.1q-.354-1.068-.684-2.117a.139.139,0,1,1,.265-.083q.328,1.047.683,2.112a.139.139,0,0,1-.132.183" fill="#fff"/>
            <path id="Trazado_895280" data-name="Trazado 895280" d="M183.759,145.025a14.913,14.913,0,0,1-8.489-2.911.151.151,0,0,1-.049-.06c-.311-.718-.609-1.452-.883-2.182-5.77-15.382.709-24.446.775-24.535a.138.138,0,0,1,.194-.03.14.14,0,0,1,.03.195c-.065.088-6.453,9.039-.739,24.272.268.713.558,1.431.862,2.133,9.082,6.143,15.926,1.191,23.848-4.542,7.447-5.388,15.883-11.493,28.14-10.136a18.212,18.212,0,0,0-.511-2.419c-2.893-10.289-14.324-18.667-14.439-18.751a.139.139,0,1,1,.163-.225c.116.084,11.625,8.52,14.543,18.9a18.294,18.294,0,0,1,.543,2.634.138.138,0,0,1-.153.156c-12.248-1.421-20.681,4.68-28.123,10.065-5.384,3.9-10.275,7.435-15.712,7.435" fill="#fff"/>
            <path id="Trazado_895281" data-name="Trazado 895281" d="M180.535,115.872a37.823,37.823,0,0,1-5.333-.316.134.134,0,0,1-.1-.064.139.139,0,0,1-.015-.114c3.618-11.608-7.646-34.2-7.761-34.431a.139.139,0,0,1,.248-.125c.115.227,11.33,22.724,7.826,34.483a56.67,56.67,0,0,0,36.956-9.379c-8.678-8.674-9.538-33.785-9.546-34.039a.139.139,0,0,1,.134-.143.143.143,0,0,1,.143.134c.008.254.873,25.487,9.584,33.969a.138.138,0,0,1,.042.112.14.14,0,0,1-.061.1,57.734,57.734,0,0,1-32.121,9.81" fill="#fff"/>
            <path id="Trazado_895282" data-name="Trazado 895282" d="M167.854,81.107c-.487,0-.514-.107-.535-.189-.047-.185-.126-.5,5.133-2.114,3.311-1.019,7.748-2.242,12.491-3.445s9.226-2.241,12.624-2.924c5.393-1.083,5.473-.772,5.52-.587s.125.5-5.133,2.114c-3.313,1.019-7.749,2.242-12.492,3.445s-9.226,2.241-12.623,2.924a32.112,32.112,0,0,1-4.985.776m-.194-.275c1.023.133,8.116-1.255,17.735-3.694s16.51-4.593,17.35-5.2c-1.038-.139-8.118,1.255-17.734,3.693s-16.511,4.593-17.351,5.2m35.187-8.87h0Z" fill="#fff"/>
            <path id="Trazado_895283" data-name="Trazado 895283" d="M179.284,111.285a.129.129,0,0,1-.047-.008.138.138,0,0,1-.084-.177,17.833,17.833,0,0,0,.946-4.3.138.138,0,0,1,.152-.125.139.139,0,0,1,.124.152,18.128,18.128,0,0,1-.96,4.363.14.14,0,0,1-.131.091m.961-8.767a.139.139,0,0,1-.139-.127,33.274,33.274,0,0,0-.683-4.373.139.139,0,0,1,.1-.166.14.14,0,0,1,.166.106,33.656,33.656,0,0,1,.689,4.409.139.139,0,0,1-.126.151h-.012m-1.876-8.674a.138.138,0,0,1-.132-.1c-.447-1.353-.974-2.75-1.565-4.151a.139.139,0,0,1,.074-.182.141.141,0,0,1,.182.075c.594,1.407,1.123,2.811,1.573,4.171a.141.141,0,0,1-.089.176.129.129,0,0,1-.043.007m-3.445-8.2a.14.14,0,0,1-.124-.076c-1.206-2.373-2.153-3.866-2.162-3.88a.139.139,0,0,1,.043-.192.136.136,0,0,1,.191.043c.01.014.963,1.517,2.176,3.9a.14.14,0,0,1-.061.187.142.142,0,0,1-.063.015" fill="#fff"/>
            <path id="Trazado_895284" data-name="Trazado 895284" d="M206.642,104.158a.139.139,0,0,1-.1-.039,21.254,21.254,0,0,1-2.86-3.426.139.139,0,1,1,.23-.155,20.992,20.992,0,0,0,2.823,3.382.138.138,0,0,1-.1.238m-4.964-7.3a.14.14,0,0,1-.127-.084,30.363,30.363,0,0,1-1.462-4.213.139.139,0,0,1,.269-.072,30.108,30.108,0,0,0,1.447,4.174.139.139,0,0,1-.071.183.141.141,0,0,1-.056.012m-2.341-8.548a.139.139,0,0,1-.137-.119c-.207-1.429-.345-2.922-.411-4.44a.139.139,0,0,1,.133-.145.133.133,0,0,1,.145.133c.066,1.508.2,2.993.407,4.412a.139.139,0,0,1-.117.158h-.02m-.4-8.871h-.006a.139.139,0,0,1-.133-.145,40.974,40.974,0,0,1,.417-4.442.139.139,0,0,1,.275.046,39.641,39.641,0,0,0-.414,4.408.139.139,0,0,1-.139.133" fill="#fff"/>
            <path id="Trazado_895285" data-name="Trazado 895285" d="M183.731,145.029a14.865,14.865,0,0,1-8.461-2.915.148.148,0,0,1-.049-.059c-.312-.718-.609-1.453-.883-2.183a.138.138,0,0,1,.2-.17c4.221,2.341,11.237,3.654,20.7-3.381,12.8-9.519,20.828-13.693,31.863-11.685a.139.139,0,0,1,.109.1,18.239,18.239,0,0,1,.543,2.634.138.138,0,0,1-.153.155c-12.251-1.421-20.682,4.68-28.123,10.065a59.423,59.423,0,0,1-9.03,5.779,15.7,15.7,0,0,1-6.71,1.66m-8.271-3.122c4.943,3.345,9.529,3.718,14.863,1.21a59.181,59.181,0,0,0,8.985-5.752c7.446-5.388,15.881-11.494,28.14-10.136a18.215,18.215,0,0,0-.488-2.335c-10.891-1.955-18.866,2.205-31.563,11.649-9.337,6.946-16.344,5.844-20.667,3.58.231.6.475,1.2.73,1.784" fill="#fff"/>
            <path id="Trazado_895286" data-name="Trazado 895286" d="M190.382,143.382a.138.138,0,0,1-.135-.105.14.14,0,0,1,.076-.16,59.181,59.181,0,0,0,8.985-5.752c7.482-5.414,15.965-11.55,28.317-10.115a.138.138,0,0,1,.123.141c-.379,14.258-36.991,15.975-37.361,15.991Zm33.649-16.066c-10.362,0-17.863,5.428-24.561,10.274a64.959,64.959,0,0,1-8.408,5.477c5.026-.31,35.86-2.739,36.4-15.556a30.857,30.857,0,0,0-3.435-.195" fill="#fff"/>
            <path id="Trazado_895287" data-name="Trazado 895287" d="M180.833,47.867a24.756,24.756,0,0,1-8.051-1.375c-5.288-1.854-9.381-5.3-10.185-8.579a5.927,5.927,0,0,1-.145-.861.139.139,0,0,1,.267-.065c1.364,3.335,6.082,6.68,11.474,8.134a21.715,21.715,0,0,0,19.188-3.584,97.536,97.536,0,0,1,14.3-8.756c6.447-3.421,11.1-5.893,10.867-9.527a.139.139,0,0,1,.267-.063,5.786,5.786,0,0,1,.284.861c1.05,4.283-3.956,6.939-10.885,10.617A97.326,97.326,0,0,0,193.953,43.4a21.116,21.116,0,0,1-13.12,4.469M162.9,37.991c.859,3.1,4.926,6.471,9.97,8.239,3.5,1.227,12.542,3.386,20.91-3.052a97.524,97.524,0,0,1,14.3-8.755c6.818-3.618,11.744-6.232,10.745-10.305-.007-.032-.016-.063-.024-.095-.4,3.385-4.915,5.778-10.994,9a97.251,97.251,0,0,0-14.264,8.73,21.988,21.988,0,0,1-19.429,3.632c-5.074-1.368-9.421-4.267-11.217-7.4" fill="#fff"/>
            <path id="Trazado_895288" data-name="Trazado 895288" d="M180.413,46.231a24.381,24.381,0,0,1-6.292-.842c-5.557-1.5-10.242-4.833-11.659-8.3a.107.107,0,0,1-.01-.04,6.357,6.357,0,0,1,.054-1.529c.719-4.6,6.253-9.624,14.806-13.43a.139.139,0,0,1,.113.254c-8.34,3.711-13.951,8.776-14.645,13.218a6.094,6.094,0,0,0-.053,1.441c1.374,3.33,6.085,6.665,11.466,8.116a21.718,21.718,0,0,0,19.187-3.585,97.5,97.5,0,0,1,14.3-8.755c6.433-3.414,11.085-5.883,10.868-9.5a6.069,6.069,0,0,0-.845-1.411c-2.94-3.7-10.711-5.482-20.282-4.653a.142.142,0,0,1-.151-.126.14.14,0,0,1,.127-.151c9.66-.837,17.526.986,20.523,4.757a6.371,6.371,0,0,1,.894,1.5.134.134,0,0,1,.01.045c.25,3.813-4.475,6.32-11.014,9.791a97.274,97.274,0,0,0-14.264,8.729,21.159,21.159,0,0,1-13.137,4.475" fill="#fff"/>
            <path id="Trazado_895289" data-name="Trazado 895289" d="M177.132,23.193a.112.112,0,0,1-.036-.005.139.139,0,0,1-.1-.17c1.228-4.562,3.8-10.272,9.061-11.563,5.613-1.377,9.865,3.291,12.442,7.45a.141.141,0,0,1-.045.192.139.139,0,0,1-.191-.046c-2.529-4.08-6.684-8.665-12.14-7.326-5.131,1.258-7.65,6.875-8.859,11.365a.14.14,0,0,1-.134.1" fill="#fff"/>
            <path id="Trazado_895290" data-name="Trazado 895290" d="M178.851,31.8c-1.5,0-2.945-.195-3.123-.921a.688.688,0,0,1,.019-.374,39.3,39.3,0,0,1,.653-4.9.137.137,0,0,1,.163-.11.139.139,0,0,1,.11.163,40.219,40.219,0,0,0-.655,4.9.5.5,0,0,0-.021.256c.136.551,1.625.8,3.982.678a52.119,52.119,0,0,0,9.1-1.491c7.494-1.839,12.243-4.243,11.975-5.334a.3.3,0,0,0-.026-.068,33.641,33.641,0,0,0-1.507-3.321.138.138,0,1,1,.246-.127,33.853,33.853,0,0,1,1.516,3.337.681.681,0,0,1,.041.112c.388,1.584-5.888,4.127-12.179,5.67a52.313,52.313,0,0,1-9.153,1.5c-.372.02-.76.033-1.144.033" fill="#fff"/>
            <path id="Trazado_895291" data-name="Trazado 895291" d="M191.673,24.851a.136.136,0,0,1-.068-.018.138.138,0,0,1-.067-.088l-.589-2.4a.14.14,0,0,1,.092-.165,42.228,42.228,0,0,0,7.527-3.341.629.629,0,0,1,.85.228c.243.408.493.846.743,1.3a.637.637,0,0,1-.242.854h0a44.859,44.859,0,0,1-7.991,3.559l-.212.067a.154.154,0,0,1-.042.007m-.424-2.451.523,2.135.07-.022a44.642,44.642,0,0,0,7.94-3.537.356.356,0,0,0,.135-.479c-.248-.452-.5-.886-.738-1.292a.352.352,0,0,0-.476-.127,42.618,42.618,0,0,1-7.454,3.322m8.6-1.3h0Z" fill="#fff"/>
            <path id="Trazado_895292" data-name="Trazado 895292" d="M182.144,26.422q-.327,0-.649-.008a23.658,23.658,0,0,1-5.208-.7.63.63,0,0,1-.457-.745c.1-.454.207-.931.342-1.457a.631.631,0,0,1,.287-.388.615.615,0,0,1,.477-.071,20.589,20.589,0,0,0,4.806.632,25.879,25.879,0,0,0,4.866-.4.143.143,0,0,1,.1.024.139.139,0,0,1,.057.09l.407,2.426a.139.139,0,0,1-.113.16,28.745,28.745,0,0,1-4.919.436m-5.361-3.112a.341.341,0,0,0-.18.051.351.351,0,0,0-.162.218c-.134.523-.245,1-.339,1.447a.352.352,0,0,0,.254.418,23.335,23.335,0,0,0,5.146.692,28.093,28.093,0,0,0,5.377-.4l-.361-2.152a26.34,26.34,0,0,1-4.781.378,20.794,20.794,0,0,1-4.869-.642.358.358,0,0,0-.085-.01" fill="#fff"/>
            <path id="Trazado_895293" data-name="Trazado 895293" d="M187.416,26.832a.409.409,0,0,1-.226-.067.4.4,0,0,1-.184-.282l-.648-3.859a.389.389,0,0,1,.081-.322.411.411,0,0,1,.283-.158l3.991-.422a.417.417,0,0,1,.446.311l.793,3.234a.415.415,0,0,1-.3.5l-4.136,1.051a.373.373,0,0,1-.1.012M190.758,22h-.015l-3.993.422a.136.136,0,0,0-.092.053.119.119,0,0,0-.027.1l.649,3.867a.121.121,0,0,0,.058.09.133.133,0,0,0,.108.021l4.137-1.052a.134.134,0,0,0,.1-.165L190.89,22.1a.136.136,0,0,0-.132-.1m-3.123,4.22a.137.137,0,0,1-.076-.022.142.142,0,0,1-.061-.093l-.551-3.281a.138.138,0,0,1,.026-.107.14.14,0,0,1,.1-.054l3.464-.365a.141.141,0,0,1,.15.1l.671,2.734a.14.14,0,0,1-.1.168l-3.583.911a.139.139,0,0,1-.035,0m-.39-3.3.5,2.986,3.3-.84-.609-2.483Z" fill="#fff"/>
            <path id="Trazado_895294" data-name="Trazado 895294" d="M188.473,24.964a.426.426,0,0,1-.364-.648.42.42,0,0,1,.264-.194L190.1,23.7a.427.427,0,1,1,.2.829l-1.73.425a.459.459,0,0,1-.1.012m1.731-1a.139.139,0,0,0-.035,0l-1.73.425a.145.145,0,0,0-.092.068.149.149,0,0,0-.018.113.152.152,0,0,0,.067.092.15.15,0,0,0,.113.017l1.731-.425a.148.148,0,0,0,.109-.18.149.149,0,0,0-.145-.114" fill="#fff"/>
            <path id="Trazado_895295" data-name="Trazado 895295" d="M219.083,72.361a15.405,15.405,0,0,1-9.63-3.615.138.138,0,0,1-.045-.149,30.131,30.131,0,0,0-.54-19.671.14.14,0,0,1,.122-.2,38.5,38.5,0,0,0,28.277-17.325.14.14,0,0,1,.11-.063.139.139,0,0,1,.115.052,30.132,30.132,0,0,0,17.278,9.419.139.139,0,0,1,.112.108,14.982,14.982,0,0,1-2.067,11.745c-2.629,3.789-7.1,6.19-13.281,7.138l-6.286,3.85c-3.654,5.079-7.824,7.968-12.393,8.587a13.144,13.144,0,0,1-1.772.12M209.7,68.589a14.688,14.688,0,0,0,11.116,3.377c4.5-.61,8.61-3.469,12.221-8.5a.132.132,0,0,1,.041-.037l6.334-3.88a.149.149,0,0,1,.051-.019c6.12-.932,10.535-3.3,13.123-7.025a14.689,14.689,0,0,0,2.042-11.437A30.627,30.627,0,0,1,237.4,31.712a38.878,38.878,0,0,1-28.2,17.283,30.637,30.637,0,0,1,.5,19.594" fill="#fff"/>
            <path id="Trazado_895296" data-name="Trazado 895296" d="M219.086,72.364a15.493,15.493,0,0,1-9.633-3.617.139.139,0,0,1,.15-.233c.108.055,10.951,5.3,23.227-8.255l1.469-1.7a.128.128,0,0,1,.107-.048,21.137,21.137,0,0,0,8.474-2.128c4.109-1.983,9.479-6.275,11.731-15.461a.128.128,0,0,1,.138-.106.139.139,0,0,1,.133.111c1.514,7.225-1.225,15.888-13.453,18.533a12.079,12.079,0,0,0-3.762,1.492l-2.552,1.563a12.082,12.082,0,0,0-3.039,2.674c-4.247,5.2-8.8,7.18-12.99,7.18M210.4,69.119c5.655,4.067,14.023,5,21.461-4.111a12.346,12.346,0,0,1,3.108-2.734l2.553-1.564a12.331,12.331,0,0,1,3.848-1.526c11.687-2.528,14.565-10.631,13.357-17.6-2.364,8.882-7.662,13.083-11.737,15.047a21.628,21.628,0,0,1-8.521,2.149l-1.431,1.66c-10.353,11.431-19.732,9.628-22.638,8.676" fill="#fff"/>
            <path id="Trazado_895297" data-name="Trazado 895297" d="M135.412,16.845Q130.334,68.6,125.261,120.362a27.953,27.953,0,0,0-9.2-8.322c-6.266-3.321-12.91-2.785-19.7-.751q-1.2.36-2.407.777c-2.711.934-5.437,2.063-8.17,3.234-13.41,5.747-26.925,12.573-38.835,2.992a29.638,29.638,0,0,1-3.819-3.722c.045-.563.089-1.129.134-1.692Q47.383,60.936,51.516,8.849c10.6,14.262,22.84,11.785,35.328,6.792C97.392,11.427,108.117,5.42,118.18,6.2c6.044.47,11.847,3.4,17.232,10.64" fill="#ffe0ce"/>
            <path id="Trazado_895298" data-name="Trazado 895298" d="M61.117,115.672a22.135,22.135,0,0,1-6.916-1.1,24.455,24.455,0,0,1-3.06-1.357l-.018-.011a.185.185,0,0,1-.131-.195l8.121-82.826a.187.187,0,0,1,.273-.145,21.687,21.687,0,0,0,13.865,2.136.161.161,0,0,1,.078-.016c.176.007.179.172.181.271.037,2.3.577,10.118,5.973,14.188,3.512,2.65,8.406,3.158,14.546,1.51a.186.186,0,0,1,.168.038.189.189,0,0,1,.065.159L91.073,80.848c-.007.065-.007.065-.279.367-4.109,4.56-17.606,20.373-18.786,32.405a.187.187,0,0,1-.128.159,35.618,35.618,0,0,1-10.763,1.893m-9.744-2.749a25.177,25.177,0,0,0,2.932,1.3c2.678.8,7.648,2.3,17.347-.758C72.921,101.333,86.4,85.533,90.519,80.967l.191-.212,3.157-32.2c-6.137,1.6-11.05,1.044-14.607-1.64-5.433-4.1-6.062-11.858-6.118-14.35A22.036,22.036,0,0,1,59.455,30.5Z" fill="#ffe0ce"/>
            <path id="Trazado_895299" data-name="Trazado 895299" d="M61.118,115.857a22.353,22.353,0,0,1-6.969-1.106,24.817,24.817,0,0,1-3.1-1.375.367.367,0,0,1-.24-.384L58.93,30.167a.37.37,0,0,1,.545-.29A21.5,21.5,0,0,0,73.2,32a.336.336,0,0,1,.143-.02c.151.006.343.09.35.451.036,2.28.57,10.025,5.9,14.045,3.464,2.613,8.305,3.11,14.387,1.478a.372.372,0,0,1,.465.394L91.258,80.865c-.013.126-.031.146-.326.474-4.1,4.549-17.565,20.323-18.739,32.3a.369.369,0,0,1-.256.317,36.324,36.324,0,0,1-10.819,1.9m-2.712-.533a22.049,22.049,0,0,0,2.712.163q.851,0,1.743-.062a23.375,23.375,0,0,1-4.455-.1m-6.836-2.5a27.228,27.228,0,0,0,2.8,1.227c2.632.789,7.544,2.262,17.109-.726,1.351-12.171,14.8-27.927,18.9-32.478l.15-.167L93.658,48.8c-6.073,1.53-10.954.946-14.509-1.736-5.383-4.061-6.1-11.712-6.186-14.287a22.186,22.186,0,0,1-13.349-1.991Zm20.228.79-.09.028c-.138.044-.275.086-.411.128.166-.051.334-.1.5-.156m.032-.066-.006.058.006-.058M59.3,30.2l-8.122,82.825.019.006-.018-.01.011-.119L59.3,30.2l.187.1c-.063-.032-.125-.066-.187-.1M90.787,80.946l-.107.12q-.182.2-.386.43l.363-.4.13-.145m3.291-32.637-.026.264L90.889,80.826l.007-.009,3.182-32.509-.188.049Zm-15.3-2.018c.19.163.388.322.591.476,3,2.263,6.986,2.988,11.874,2.164-4.889.823-8.874.1-11.874-2.164q-.306-.231-.591-.476m12.478,2.638h0m.012,0-.009,0,.009,0m.011,0h0m.012,0h0m.012,0h0m.011,0h0m-30.988-18.2a22.082,22.082,0,0,0,12.788,1.659l.2-.028a.058.058,0,0,0-.006-.022l-.036.027a22.162,22.162,0,0,1-12.949-1.636m12.995,1.669,0,.148,0-.105c0-.012,0-.027,0-.043" fill="#b2927e"/>
            <path id="Trazado_895300" data-name="Trazado 895300" d="M112.121,102.848H112.1a.187.187,0,0,1-.068-.021l-.019,0c-.109-.02-.379-.07-1.048-.222l-.216-.036a23.863,23.863,0,0,0-7.666-.032.185.185,0,0,1-.153-.051.189.189,0,0,1-.055-.151c1.969-20.072-.869-42.914-2.735-54.743-.987-6.329-2.713-16.022-5.331-26.262a3.025,3.025,0,0,1-.148-.636h0a.187.187,0,0,1,.175-.168c.58-.3,1.7-.759,3.333-1.367l.653-.269a72.888,72.888,0,0,1,7.372-2.67,29.475,29.475,0,0,1,15.2-.646.186.186,0,0,1,.129.254c-7.87,18.34-9.168,84.018-9.22,86.8v.022c0,.01,0,.021,0,.032a.193.193,0,0,1-.007.033.184.184,0,0,1-.177.134m-4.97-.965a20.146,20.146,0,0,1,3.662.317l.225.038c.473.107.745.163.9.194.093-4.738,1.468-68.177,9.16-86.55a29.169,29.169,0,0,0-14.8.689,72.429,72.429,0,0,0-7.334,2.656l-.659.272c-1.572.586-2.66,1.03-3.242,1.323.024.093.059.231.106.412,2.622,10.254,4.35,19.96,5.338,26.3,1.862,11.8,4.689,34.55,2.76,54.607a32.518,32.518,0,0,1,3.883-.254" fill="#ffe0ce"/>
            <path id="Trazado_895301" data-name="Trazado 895301" d="M112.121,103.033l-.041,0a.392.392,0,0,1-.1-.027c-.135-.025-.414-.077-1.05-.222l-.206-.034a23.731,23.731,0,0,0-7.613-.032.37.37,0,0,1-.415-.4c1.967-20.052-.869-42.876-2.734-54.7-.986-6.324-2.71-16.01-5.327-26.245-.16-.624-.16-.624-.152-.7a.369.369,0,0,1,.3-.33c.594-.3,1.712-.76,3.324-1.362l.646-.266a73,73,0,0,1,7.39-2.676,29.656,29.656,0,0,1,15.3-.649.371.371,0,0,1,.258.506c-7.857,18.312-9.154,83.95-9.205,86.736a.525.525,0,0,1,0,.073l-.013.065a.371.371,0,0,1-.355.264m-.037-.385.036.015v-.008Zm.044-.359c0,.06,0,.109,0,.146l0,.2v-.013c0-.071,0-.184.006-.335m-8.593-6.454c-.107,2.192-.263,4.369-.473,6.514l.147-.018-.147.017.022-.229c.2-2.071.348-4.17.451-6.284m3.614,6.234a19.643,19.643,0,0,1,3.218.246,19.61,19.61,0,0,0-3.216-.247q-.421,0-.864.015c.3-.01.59-.014.862-.014m0-.371a20.249,20.249,0,0,1,3.693.32l.225.038c.308.069.53.117.69.15.159-7.9,1.6-67.892,9.084-86.19a29.049,29.049,0,0,0-14.5.734A72.054,72.054,0,0,0,99.041,19.4l-.664.273c-1.455.543-2.494.963-3.1,1.252l.068.266c2.624,10.26,4.353,19.973,5.342,26.314,1.853,11.747,4.672,34.4,2.784,54.424a32.682,32.682,0,0,1,3.676-.228M99.245,41.092c.428,2.4.787,4.585,1.08,6.468.213,1.351.439,2.845.669,4.463-.23-1.618-.456-3.113-.669-4.463-.293-1.883-.652-4.064-1.08-6.468m0,0v0m-.389-2.139v0M95.1,21.722c1.562,6.162,2.8,12.1,3.75,17.218-.95-5.117-2.189-11.062-3.75-17.218m-.2-.77.049.194Zm-.021-.248-.037,0,0,.016Zm.19-.094-.117.058.023-.012.094-.046m13.944-4.9c-.971.2-1.895.441-2.774.685a72.777,72.777,0,0,0-7.35,2.662l-.084.035.083-.035a72.808,72.808,0,0,1,7.351-2.662c.879-.244,1.8-.48,2.774-.685m12.335.041-.085.2c-.051.122-.1.247-.153.373.079-.2.158-.388.239-.576h0" fill="#b2927e"/>
            <path id="Trazado_895302" data-name="Trazado 895302" d="M91.411,127.192c-10.188-4.2-16.725-.682-22.147,5.185-4.378,4.733-8.029,11-12.3,15.962-5.285,6.152-11.51,10.318-21.217,7.13Q17.9,119.5,0,83.439C4.982,85.49,9.089,85.7,12.618,84.694c7.526-2.148,12.433-9.818,17.6-16.947,4.87-6.719,9.97-12.952,17.7-13.622a20.752,20.752,0,0,1,9.744,1.781q14.055,29.7,28.114,59.394,2.815,5.944,5.629,11.892" fill="#ffece2"/>
            <path id="Trazado_895303" data-name="Trazado 895303" d="M41.473,153.793a.186.186,0,0,1-.168-.106L11.844,91.449c-.005-.009-.009-.019-.013-.028a.184.184,0,0,1,.09-.245.181.181,0,0,1,.129-.011c.078,0,.3-.03.769-.081l1.116-.123.233-.052c1.954-.425,5.591-1.217,10.765-6.743a.185.185,0,0,1,.3.047c2.735,5.778,6.384,9.427,10.551,10.551a9.413,9.413,0,0,0,6.054-.221.193.193,0,0,1,.083-.052.184.184,0,0,1,.22.1.171.171,0,0,1,.016.053h0l.574,3.985c2.57,17.838,5.229,36.284,6.861,52.353a.185.185,0,0,1-.084.174,15.9,15.9,0,0,1-8.031,2.638h-.008M12.284,91.513l29.3,61.9a15.523,15.523,0,0,0,7.629-2.512c-1.633-16.034-4.284-34.432-6.848-52.224l-.537-3.732a9.478,9.478,0,0,1-4.14.522c-3.541-.286-8.6-2.408-12.673-10.854-5.155,5.433-8.8,6.226-10.772,6.655l-.25.055-1.136.126c-.252.028-.437.048-.576.061" fill="#ffe0ce"/>
            <path id="Trazado_895304" data-name="Trazado 895304" d="M41.473,153.978a.37.37,0,0,1-.335-.212L11.676,91.528a.378.378,0,0,1,.167-.52.365.365,0,0,1,.221-.029c.092-.008.3-.031.69-.074l1.161-.128.212-.049c1.936-.421,5.536-1.2,10.671-6.689a.377.377,0,0,1,.326-.113.371.371,0,0,1,.279.208c2.712,5.728,6.319,9.342,10.433,10.452a9.385,9.385,0,0,0,5.892-.191.364.364,0,0,1,.143-.081.372.372,0,0,1,.441.2.358.358,0,0,1,.032.107l.574,3.983c2.571,17.842,5.23,36.289,6.862,52.361a.366.366,0,0,1-.168.349,16.077,16.077,0,0,1-8.122,2.667Zm0-.37v0ZM12,91.343l29.474,62.265-.054-.112L12,91.353l.022,0ZM43.213,153.43a15.617,15.617,0,0,1-1.616.171l-.075.005a15.977,15.977,0,0,0,1.691-.176M12.564,91.671,41.7,153.224a15.31,15.31,0,0,0,7.319-2.416c-1.634-16.015-4.278-34.36-6.835-52.1l-.5-3.5a10.023,10.023,0,0,1-4.005.45c-3.545-.287-8.612-2.386-12.708-10.718-5.1,5.3-8.723,6.089-10.682,6.515l-.25.055-1.155.129-.317.035m36.8,59.356-.053.033c-.369.234-.738.451-1.11.653q.583-.316,1.163-.686M41.98,94.684l.571,3.969c2.527,17.531,5.138,35.651,6.778,51.535-1.638-15.873-4.25-34-6.777-51.534l-.574-3.985-.04.032ZM25.068,84.294l.117.242c3.669,7.6,8.129,10.03,11.525,10.623q-.472-.083-.971-.216c-4.221-1.139-7.911-4.822-10.67-10.651l-.126.134Zm-10.2,6.647c-.238.057-.459.1-.661.149l-.232.052-1.181.131-.208.023.247-.027,1.141-.127.232-.052c.2-.044.423-.092.662-.149" fill="#b2927e"/>
            <path id="Trazado_895305" data-name="Trazado 895305" d="M69.576,129.2a.185.185,0,0,1-.153-.081.094.094,0,0,1-.014-.026l-.515-.76c-8.432-12.436-28.565-42.973-33.377-57.906a.185.185,0,0,1,.032-.171c3.786-4.817,8.6-9.8,15.577-10.257a.188.188,0,0,1,.186.119c.229.569,20.287,48.979,28.27,63.323a.185.185,0,0,1,.008.165.181.181,0,0,1-.125.105,17.666,17.666,0,0,0-8.328,4.128c-.131.115-.253.22-.364.313a6.129,6.129,0,0,1-1.023.923.183.183,0,0,1-.094.107.19.19,0,0,1-.08.018M35.9,70.4c4.85,14.922,24.893,45.321,33.3,57.718.2.3.327.484.405.6a7,7,0,0,0,.915-.843c.125-.1.242-.208.373-.322a17.822,17.822,0,0,1,8.248-4.15c-4.149-7.516-11.533-24.153-17.024-36.85-3.145-7.273-6.007-14.031-7.854-18.42-2.328-5.534-3.037-7.217-3.231-7.763C44.3,60.864,39.6,65.7,35.9,70.4" fill="#ffe0ce"/>
            <path id="Trazado_895306" data-name="Trazado 895306" d="M69.575,129.383a.369.369,0,0,1-.307-.164l-.03-.053s-.21-.307-.5-.732c-8.437-12.443-28.58-43-33.4-57.953a.37.37,0,0,1,.061-.342c3.812-4.849,8.66-9.868,15.712-10.327a.37.37,0,0,1,.37.237c.182.452,20.334,49.061,28.26,63.3a.373.373,0,0,1,.015.329.37.37,0,0,1-.252.211,17.485,17.485,0,0,0-8.248,4.087c-.133.116-.255.222-.367.316a7.156,7.156,0,0,1-1,.906.375.375,0,0,1-.321.185m-.016-.4.005.007.011.207v-.186h0l.018-.053Zm.567-.454a4.593,4.593,0,0,1-.365.308,4.557,4.557,0,0,0,.365-.308M36.107,70.442c4.9,14.932,24.871,45.226,33.246,57.577l.3.436a9.077,9.077,0,0,0,.739-.7l.383-.332a17.888,17.888,0,0,1,8.093-4.132c-4.177-7.627-11.491-24.111-16.916-36.656-3.152-7.287-6.011-14.04-7.855-18.421-2.174-5.166-2.933-6.97-3.186-7.64-6.573.54-11.168,5.276-14.8,9.872m-.413-.074c4.779,14.832,24.716,45.113,33.22,57.664-8.477-12.511-28.357-42.7-33.19-57.57ZM72,126.872c-.4.309-.719.591-.987.825l-.054.047.054-.047c.269-.235.591-.516.987-.825m5.515-2.81h0m1.873-.587.029.053-.233.059q-.892.224-1.668.474c.585-.187,1.217-.366,1.9-.532l-.03-.054M51.419,60.861c.324.806,1.008,2.435,2.419,5.787-1.16-2.762-2.007-4.8-2.419-5.787" fill="#b2927e"/>
            <g id="Grupo_1124464" data-name="Grupo 1124464" opacity="0.4">
              <g id="Grupo_1124463" data-name="Grupo 1124463">
                <g id="Grupo_1124462" data-name="Grupo 1124462" clip-path="url(#clip-path-7)">
                  <path id="Trazado_895307" data-name="Trazado 895307" d="M135.412,16.845Q130.334,68.6,125.261,120.362a27.953,27.953,0,0,0-9.2-8.322L118.18,6.2c6.044.47,11.847,3.4,17.232,10.64" fill="#ffcab3"/>
                </g>
              </g>
            </g>
            <g id="Grupo_1124467" data-name="Grupo 1124467" opacity="0.25">
              <g id="Grupo_1124466" data-name="Grupo 1124466">
                <g id="Grupo_1124465" data-name="Grupo 1124465" clip-path="url(#clip-path-8)">
                  <path id="Trazado_895308" data-name="Trazado 895308" d="M96.359,111.289A101.026,101.026,0,0,0,85.782,115.3Q71.727,85.6,57.668,55.906a20.752,20.752,0,0,0-9.744-1.781Q49.718,31.5,51.517,8.849c10.6,14.263,22.839,11.785,35.328,6.793Z" fill="#fff"/>
                </g>
              </g>
            </g>
            <g id="Grupo_1124470" data-name="Grupo 1124470" opacity="0.15">
              <g id="Grupo_1124469" data-name="Grupo 1124469">
                <g id="Grupo_1124468" data-name="Grupo 1124468" clip-path="url(#clip-path-9)">
                  <path id="Trazado_895309" data-name="Trazado 895309" d="M93.951,112.067c-2.711.933-5.437,2.063-8.17,3.233L58.216,57.066H70.108Z" fill="#b2927e"/>
                </g>
              </g>
            </g>
            <g id="Grupo_1124473" data-name="Grupo 1124473" opacity="0.25">
              <g id="Grupo_1124472" data-name="Grupo 1124472">
                <g id="Grupo_1124471" data-name="Grupo 1124471" clip-path="url(#clip-path-10)">
                  <path id="Trazado_895310" data-name="Trazado 895310" d="M56.968,148.339c-5.285,6.152-11.511,10.318-21.218,7.129Q17.9,119.5,0,83.438C4.981,85.49,9.089,85.7,12.618,84.694Z" fill="#fff"/>
                </g>
              </g>
            </g>
            <g id="Grupo_1124476" data-name="Grupo 1124476" opacity="0.4">
              <g id="Grupo_1124475" data-name="Grupo 1124475">
                <g id="Grupo_1124474" data-name="Grupo 1124474" clip-path="url(#clip-path-11)">
                  <path id="Trazado_895311" data-name="Trazado 895311" d="M91.411,127.192c-10.188-4.2-16.725-.682-22.147,5.185L30.221,67.747c4.87-6.719,9.97-12.952,17.7-13.622a20.752,20.752,0,0,1,9.744,1.781q14.055,29.7,28.114,59.394,2.815,5.944,5.629,11.892" fill="#ffcab3"/>
                </g>
              </g>
            </g>
            <path id="Trazado_895312" data-name="Trazado 895312" d="M121.135,41.555h0a12.06,12.06,0,0,1-1.508-4.078l-.475-2.711.992-.154,1.779,2.427Z" fill="#f28c70"/>
            <path id="Trazado_895313" data-name="Trazado 895313" d="M123.585,33.726l-.343.488a11.053,11.053,0,0,0-1.979,5.557l-.133,1.861L117.664,52.8l8.454,4.269V43.381L126.5,43a9.046,9.046,0,0,0,2.637-4.536Z" fill="#f28c70"/>
            <path id="Trazado_895314" data-name="Trazado 895314" d="M125.893,34.849l-.556.559-.759.767a.705.705,0,0,1-1.133-.811l.83-1.674a.706.706,0,0,1,1.044-.259l.485.344a.659.659,0,0,1,.185.2l.037.063a.71.71,0,0,1-.133.815" fill="#f5a38d"/>
            <path id="Trazado_895315" data-name="Trazado 895315" d="M122.781,35.536h0a.633.633,0,0,1-.429-.7l.267-1.666a.638.638,0,0,1,.83-.5l.509.169a.637.637,0,0,1,.366.9l-.777,1.5a.638.638,0,0,1-.766.31" fill="#f5a38d"/>
            <path id="Trazado_895316" data-name="Trazado 895316" d="M128.141,36.223a.623.623,0,0,1-.278.522l-.67.445-.7.463a.624.624,0,0,1-.833-.908l.467-.585.555-.7a.593.593,0,0,1,.163-.144.618.618,0,0,1,.782.107l.355.386a.586.586,0,0,1,.159.388.08.08,0,0,1,0,.03" fill="#f5a38d"/>
            <path id="Trazado_895317" data-name="Trazado 895317" d="M126.885,38.722h0a.542.542,0,0,1,.181-.679l1.18-.815a.543.543,0,0,1,.8.213l.2.412a.542.542,0,0,1-.337.753l-1.376.4a.541.541,0,0,1-.641-.287" fill="#f5a38d"/>
          </g>
        </g>
        <g id="Grupo_1124480" data-name="Grupo 1124480">
          <g id="Grupo_1124479" data-name="Grupo 1124479" clip-path="url(#clip-path-12)">
            <rect id="Rectángulo_413395" data-name="Rectángulo 413395" width="11.481" height="23.226" transform="translate(112.863 14.868)" fill="url(#linear-gradient-3)"/>
          </g>
        </g>
        <g id="Grupo_1124482" data-name="Grupo 1124482">
          <g id="Grupo_1124481" data-name="Grupo 1124481" clip-path="url(#clip-path-2)">
            <path id="Trazado_895319" data-name="Trazado 895319" d="M150.272,313.888c-2.074.811-3.289,1.311-6.84.344q-.545-.15-1.167-.344s-19.632-50.609-21.255-64.667c-.851-7.4-1.811-39.854-1.811-39.854l18.1-52.035s2.137,21.959,2.137,44.6l-1.326,5.119Z" fill="#346062"/>
            <path id="Trazado_895320" data-name="Trazado 895320" d="M167.4,323.784H141.235a11.1,11.1,0,0,1,2.2-9.551c3.552.966,4.767.466,6.841-.345a44.9,44.9,0,0,0,13.9,6.489,4.371,4.371,0,0,1,3.226,3.407" fill="#e04c3d"/>
            <path id="Trazado_895321" data-name="Trazado 895321" d="M149.535,94.632c-.1.052-.211.1-.315.148a16.045,16.045,0,0,1-4.9,1.363,15.747,15.747,0,0,1-1.87.111,16.246,16.246,0,0,1-3.992-.5l-3.763-.952-.8-11.477Z" fill="#f4aa75"/>
          </g>
        </g>
        <g id="Grupo_1124484" data-name="Grupo 1124484">
          <g id="Grupo_1124483" data-name="Grupo 1124483" clip-path="url(#clip-path-14)">
            <rect id="Rectángulo_413397" data-name="Rectángulo 413397" width="16.843" height="19.125" transform="translate(100.423 28.486)" fill="url(#linear-gradient-4)"/>
          </g>
        </g>
        <g id="Grupo_1124486" data-name="Grupo 1124486">
          <g id="Grupo_1124485" data-name="Grupo 1124485" clip-path="url(#clip-path-15)">
            <rect id="Rectángulo_413398" data-name="Rectángulo 413398" width="45.365" height="201.035" transform="translate(95.289 112.657)" fill="url(#linear-gradient-5)"/>
          </g>
        </g>
        <g id="Grupo_1124488" data-name="Grupo 1124488">
          <g id="Grupo_1124487" data-name="Grupo 1124487" clip-path="url(#clip-path-2)">
            <path id="Trazado_895324" data-name="Trazado 895324" d="M125.336,323.784H100.093a23.786,23.786,0,0,1,2.629-10.874c2,.782,4.889.289,6.429-.07,5.63,6.759,9.544,6.918,12.644,7.452a4.3,4.3,0,0,1,3.526,3.414Z" fill="#e04c3d"/>
          </g>
        </g>
        <g id="Grupo_1124490" data-name="Grupo 1124490">
          <g id="Grupo_1124489" data-name="Grupo 1124489" clip-path="url(#clip-path-17)">
            <rect id="Rectángulo_413400" data-name="Rectángulo 413400" width="49.586" height="75.915" transform="translate(87.357 44.067)" fill="url(#linear-gradient-6)"/>
          </g>
        </g>
        <g id="Grupo_1124492" data-name="Grupo 1124492">
          <g id="Grupo_1124491" data-name="Grupo 1124491" clip-path="url(#clip-path-18)">
            <rect id="Rectángulo_413401" data-name="Rectángulo 413401" width="36.113" height="47.75" transform="translate(116.048 47.826)" fill="url(#linear-gradient-7)"/>
          </g>
        </g>
        <g id="Grupo_1124494" data-name="Grupo 1124494">
          <g id="Grupo_1124493" data-name="Grupo 1124493" clip-path="url(#clip-path-2)">
            <path id="Trazado_895327" data-name="Trazado 895327" d="M123.61,15.165c-.322.3-.622.585-.9.874-4.007,4.092-4.118,7.5-3.677,9.422a1.674,1.674,0,0,1,.04.348,1.566,1.566,0,0,1-1.411,1.552c-.729-3.256-2.092-5.344-4.077-2.408-.082.123-.167.252-.252.393a7.941,7.941,0,0,0-1.071,3.167c-.351,2.529.1,5.233-1.174,8.525-1.392,3.592-6.507,3.274-8.907,1.944-.737-.407-1.218-.911-1.255-1.425a14.434,14.434,0,0,0-2.652-6.8c-5.389-7.185-5.492-17.4-.918-22.181a8.565,8.565,0,0,1,.918-.837c12.918-10.195,25.773-.211,25.336,7.426" fill="#743234"/>
          </g>
        </g>
        <g id="Grupo_1124496" data-name="Grupo 1124496">
          <g id="Grupo_1124495" data-name="Grupo 1124495" clip-path="url(#clip-path-20)">
            <rect id="Rectángulo_413403" data-name="Rectángulo 413403" width="6.14" height="8.974" transform="translate(111.893 23.068)" fill="url(#linear-gradient-8)"/>
          </g>
        </g>
        <g id="Grupo_1124498" data-name="Grupo 1124498">
          <g id="Grupo_1124497" data-name="Grupo 1124497" clip-path="url(#clip-path-2)">
            <path id="Trazado_895329" data-name="Trazado 895329" d="M106.172,26.016a13.587,13.587,0,0,1-1.864,7.031,30.536,30.536,0,0,1-2.288,3.4l0,0c-2.883,3.685-7.174,7.038-12.3,4.456-10.25-8.906-7-27.2-1.324-29.33,2.545-.954,5.9-.25,8.954,1.191h.007c3.285,1.557,6.205,3.966,7.349,6.081a16.293,16.293,0,0,1,1.465,7.17" fill="#572627"/>
          </g>
        </g>
        <g id="Grupo_1124500" data-name="Grupo 1124500">
          <g id="Grupo_1124499" data-name="Grupo 1124499" clip-path="url(#clip-path-22)">
            <rect id="Rectángulo_413405" data-name="Rectángulo 413405" width="12.24" height="23.681" transform="translate(97.357 12.765)" fill="url(#linear-gradient-9)"/>
          </g>
        </g>
        <g id="Grupo_1124534" data-name="Grupo 1124534">
          <g id="Grupo_1124533" data-name="Grupo 1124533" clip-path="url(#clip-path-2)">
            <path id="Trazado_895331" data-name="Trazado 895331" d="M126.841,35.312a.593.593,0,0,0-.163.144l-.556.7-.785-.752.556-.559a.71.71,0,0,0,.133-.815Z" fill="#f28c70"/>
            <path id="Trazado_895332" data-name="Trazado 895332" d="M128.167,37.286l-.487.37-.487-.466.67-.445a.623.623,0,0,0,.278-.522Z" fill="#f28c70"/>
            <g id="Grupo_1124503" data-name="Grupo 1124503" opacity="0.5">
              <g id="Grupo_1124502" data-name="Grupo 1124502">
                <g id="Grupo_1124501" data-name="Grupo 1124501" clip-path="url(#clip-path-24)">
                  <path id="Trazado_895333" data-name="Trazado 895333" d="M136.188,115.086a44.251,44.251,0,0,1-8.222,2.467c1.87-5.063,2.378-11.885,2.315-18.244a44.816,44.816,0,0,0-8.555-25.828c-3.174-4.382-5.47-8.163-5.741-10.237a16.334,16.334,0,0,1,.089-4.807,15.419,15.419,0,0,0,.134,1.918c.562,4.337,10,16.155,17.758,25.251.085.1.17.2.255.3.126.148.252.292.375.437.151.178.307.359.455.533.037.041.067.078.1.119l1.285,1.488,0,0q.1,1.679.159,3.319c.011.3.022.607.029.911.271,9.151-.34,17.284-.444,22.369" fill="#a76b40"/>
                </g>
              </g>
            </g>
            <g id="Grupo_1124506" data-name="Grupo 1124506" opacity="0.25">
              <g id="Grupo_1124505" data-name="Grupo 1124505">
                <g id="Grupo_1124504" data-name="Grupo 1124504" clip-path="url(#clip-path-25)">
                  <path id="Trazado_895334" data-name="Trazado 895334" d="M149.221,94.78a16.067,16.067,0,0,1-4.9,1.363,14.821,14.821,0,0,1-7.688-3.426c-.008-.3-.019-.607-.03-.911-.041-1.092-.093-2.2-.159-3.318,1,1.144,2.767,3.159,3.6,4.1a8.2,8.2,0,0,0,9.17,2.17.029.029,0,0,1,0,.019" fill="#a76b40"/>
                </g>
              </g>
            </g>
            <g id="Grupo_1124509" data-name="Grupo 1124509" opacity="0.25">
              <g id="Grupo_1124508" data-name="Grupo 1124508">
                <g id="Grupo_1124507" data-name="Grupo 1124507" clip-path="url(#clip-path-26)">
                  <path id="Trazado_895335" data-name="Trazado 895335" d="M134.7,202.267l-2.807,4.185L110.215,312.558c-4.145-54.1,22.8-111.069,22.8-111.069s-9.1-47.116-4.774-77.944a60.021,60.021,0,0,1-29.713-6.159c.267-.741.526-1.419.759-2.015,5.159,1.722,16.429,4.611,28.677,2.181a44.214,44.214,0,0,0,8.221-2.466c.1.337,4.4,16.218-1.492,87.181" fill="#346062"/>
                </g>
              </g>
            </g>
            <g id="Grupo_1124512" data-name="Grupo 1124512" opacity="0.25">
              <g id="Grupo_1124511" data-name="Grupo 1124511">
                <g id="Grupo_1124510" data-name="Grupo 1124510" clip-path="url(#clip-path-27)">
                  <path id="Trazado_895336" data-name="Trazado 895336" d="M106.319,155.136s1.026,16.944,3.392,31.443a219.015,219.015,0,0,1-4.651-35.795s6.548,2.441,10.788,2.634c-2.644,1.911-9.529,1.718-9.529,1.718" fill="#346062"/>
                </g>
              </g>
            </g>
            <path id="Trazado_895337" data-name="Trazado 895337" d="M113.589,222.218c-2.7,11.518-11.174,35.15-12.5,62.034-.633-23.565-1.089-54.1.585-59.371,4.6-14.485,11.911-22.377,11.911-22.377s2.7,8.192,0,19.714" fill="#8abdbf"/>
            <g id="Grupo_1124515" data-name="Grupo 1124515" opacity="0.5">
              <g id="Grupo_1124514" data-name="Grupo 1124514">
                <g id="Grupo_1124513" data-name="Grupo 1124513" clip-path="url(#clip-path-28)">
                  <path id="Trazado_895338" data-name="Trazado 895338" d="M122.344,107.438c-5.433,1.841-21.255-3.785-24.988-11.185a25.452,25.452,0,0,1-.748,16.792,35.063,35.063,0,0,0-.148-13.836c-1.389-6.222-3.815-13.381-5.766-19.814.292.774,9.862,25.58,31.65,28.043" fill="#a76b40"/>
                </g>
              </g>
            </g>
            <path id="Trazado_895339" data-name="Trazado 895339" d="M115.87,36.586l-.207-4.663a2.136,2.136,0,0,1-.7.119,2.635,2.635,0,0,1-2.086-1.2v0a4.75,4.75,0,0,1-.711-1.43c-.174,2.274.049,4.722-1.077,7.626-1.393,3.592-6.507,3.274-8.907,1.944-.141.7-.3,1.333-.467,1.893,2.1.607,8.429,1.671,11.907-.763a6.6,6.6,0,0,0,2.311-2.107Z" fill="#f28c70"/>
            <path id="Trazado_895340" data-name="Trazado 895340" d="M114.949,31.167a1.75,1.75,0,0,1-1.377-.668,5.023,5.023,0,0,1,0-6.3.093.093,0,0,1,.143.119,4.836,4.836,0,0,0,0,6.058c1.149,1.349,2.766.042,2.835-.014a.093.093,0,0,1,.13.013.091.091,0,0,1-.013.13,3.114,3.114,0,0,1-1.718.657" fill="#dd735b"/>
            <g id="Grupo_1124518" data-name="Grupo 1124518" opacity="0.5">
              <g id="Grupo_1124517" data-name="Grupo 1124517">
                <g id="Grupo_1124516" data-name="Grupo 1124516" clip-path="url(#clip-path-29)">
                  <path id="Trazado_895341" data-name="Trazado 895341" d="M120.537,38.082h-2.726a3.155,3.155,0,0,1-.548-.037,5.443,5.443,0,0,1-1.77-.563,6.318,6.318,0,0,1-1.733-1.3,12.9,12.9,0,0,1-.882-5.333,2.631,2.631,0,0,0,2.085,1.2,2.131,2.131,0,0,0,.7-.119,2.485,2.485,0,0,0,.67-.355,4.983,4.983,0,0,0,1.7-4.015c0-.093,0-.185-.007-.274a1.563,1.563,0,0,0,1.048-1.47,1.611,1.611,0,0,0-.041-.348c-.44-1.923-.329-5.33,3.678-9.422.185.666.415,1.574.622,2.588-1.159,1.226-3.637,4.245-3.689,7.678-.063,4.492-1.614,6.314-3.037,6.866-.085.878-.188,3.963,3.93,4.911" fill="#f28c70"/>
                </g>
              </g>
            </g>
            <path id="Trazado_895342" data-name="Trazado 895342" d="M123.61,15.165s-4.567,1.381-7-4.822c-3.9-9.92-19.251-1.767-19.251-1.767a8.565,8.565,0,0,1,.918-.837c12.918-10.195,25.773-.211,25.336,7.426" fill="#914047"/>
            <path id="Trazado_895343" data-name="Trazado 895343" d="M104.308,33.046a13.593,13.593,0,0,0,1.863-7.029,16.28,16.28,0,0,0-1.463-7.17c-1.041-1.926-3.555-4.1-6.477-5.641.233.067,7.666,2.356,8.384,9.863.734,7.625-4.592,13.373-4.6,13.377a30.52,30.52,0,0,0,2.289-3.4" fill="#a3d0c9"/>
            <g id="Grupo_1124521" data-name="Grupo 1124521" opacity="0.25">
              <g id="Grupo_1124520" data-name="Grupo 1124520">
                <g id="Grupo_1124519" data-name="Grupo 1124519" clip-path="url(#clip-path-30)">
                  <path id="Trazado_895344" data-name="Trazado 895344" d="M126.794,67.7a11.455,11.455,0,0,1-.321-6.891c.03-.121.057-.246.079-.375a18.341,18.341,0,0,0,.281-3.224,16.6,16.6,0,0,0-1.582-7.277,3.386,3.386,0,0,0-4.222-1.705,6.432,6.432,0,0,0-3.822,3.849,18.106,18.106,0,0,0-1.133,6.362,15.611,15.611,0,0,0,.133,1.919c.018.135.047.278.081.426,0,.017,0,.032.009.047.007.03.017.057.024.086.031.12.066.244.107.371.006.018.011.037.017.055a33.581,33.581,0,0,0,4.259,7.492c2.748,3.964,6.418,8.592,10.036,12.948,1.967,2.366,3.918,4.648,5.7,6.7l0,0c.282.327.563.648.834.96,1,1.143,1.933,2.2,2.77,3.143a8.158,8.158,0,0,0,2.941,2.108c-7.612-6.865-13.289-19.47-16.194-27" fill="#fbdfc9"/>
                </g>
              </g>
            </g>
            <g id="Grupo_1124524" data-name="Grupo 1124524" opacity="0.25">
              <g id="Grupo_1124523" data-name="Grupo 1124523">
                <g id="Grupo_1124522" data-name="Grupo 1124522" clip-path="url(#clip-path-31)">
                  <path id="Trazado_895345" data-name="Trazado 895345" d="M152.161,90.687a4.262,4.262,0,0,1-1.519,3.263c-5.1-18.484-21.113-44.057-21.113-44.057a18.7,18.7,0,0,1,5.1,3.966c7,8.2,14.374,27.362,17.277,35.38a4.2,4.2,0,0,1,.256,1.448" fill="#a76b40"/>
                </g>
              </g>
            </g>
            <path id="Trazado_895346" data-name="Trazado 895346" d="M125.211,323.782H99.957a.463.463,0,0,1-.464-.463v-.431a.464.464,0,0,1,.472-.463l25.254.43a.464.464,0,0,1-.008.927" fill="#6f1b13"/>
            <path id="Trazado_895347" data-name="Trazado 895347" d="M167.283,323.782H141.054a.463.463,0,0,1-.464-.463v-.431a.464.464,0,0,1,.472-.463l26.229.43a.464.464,0,0,1-.008.927" fill="#6f1b13"/>
            <g id="Grupo_1124532" data-name="Grupo 1124532" opacity="0.15">
              <g id="Grupo_1124531" data-name="Grupo 1124531">
                <g id="Grupo_1124530" data-name="Grupo 1124530" clip-path="url(#clip-path-32)">
                  <path id="Trazado_895348" data-name="Trazado 895348" d="M150.271,329.055l-6.863,32.1h-21.6c.074-.174.152-.355.234-.537,4.425-9.873,20.221-31.561,20.221-31.561.415-.07.8-.133,1.167-.185a15.6,15.6,0,0,1,6.84.185" fill="#346062"/>
                  <path id="Trazado_895349" data-name="Trazado 895349" d="M167.4,323.782H141.235c-.789,1.787.023,3.666,2.2,5.088a15.621,15.621,0,0,1,6.841.184,68.942,68.942,0,0,1,13.9-3.457,5.986,5.986,0,0,0,2.108-.657,2.347,2.347,0,0,0,1.118-1.158" fill="#e04c3d"/>
                  <g id="Grupo_1124526" data-name="Grupo 1124526">
                    <g id="Grupo_1124525" data-name="Grupo 1124525" clip-path="url(#clip-path-33)">
                      <rect id="Rectángulo_413414" data-name="Rectángulo 413414" width="21.718" height="31.995" transform="translate(100.532 329.159)" fill="url(#linear-gradient-10)"/>
                    </g>
                  </g>
                  <path id="Trazado_895351" data-name="Trazado 895351" d="M125.336,323.782H100.093a8.377,8.377,0,0,0,2.629,5.792,22.645,22.645,0,0,1,6.429.038,23.915,23.915,0,0,1,12.644-3.97c1.774-.161,3.185-.878,3.526-1.819Z" fill="#e04c3d"/>
                  <g id="Grupo_1124529" data-name="Grupo 1124529" opacity="0.25">
                    <g id="Grupo_1124528" data-name="Grupo 1124528">
                      <g id="Grupo_1124527" data-name="Grupo 1124527" clip-path="url(#clip-path-34)">
                        <path id="Trazado_895352" data-name="Trazado 895352" d="M115.609,361.154c-4.129-9.555-6.952-20.581-5.4-31.391l11.829,30.854.207.537Z" fill="#346062"/>
                      </g>
                    </g>
                  </g>
                  <path id="Trazado_895353" data-name="Trazado 895353" d="M105.395,361.154h-4.863c.063-5.259.3-11.1.559-16.314a56.876,56.876,0,0,0,4.3,16.314" fill="#8abdbf"/>
                  <path id="Trazado_895354" data-name="Trazado 895354" d="M125.211,323.783H99.957c-.256,0-.464.11-.464.247v.229c0,.138.213.249.472.247l25.254-.229c.225,0,.415-.091.45-.209.043-.15-.174-.285-.458-.285" fill="#6f1b13"/>
                  <path id="Trazado_895355" data-name="Trazado 895355" d="M167.283,323.783H141.054c-.256,0-.464.11-.464.247v.229c0,.138.213.249.472.247l26.229-.229c.225,0,.415-.091.45-.209.043-.15-.174-.285-.458-.285" fill="#6f1b13"/>
                </g>
              </g>
            </g>
          </g>
        </g>
      </g>
    </g>
  </g>
</svg>
