<svg id="Grupo_1124801" data-name="Grupo 1124801" xmlns="http://www.w3.org/2000/svg" xmlns:xlink="http://www.w3.org/1999/xlink" width="318.105" height="370.328" viewBox="0 0 318.105 370.328">
  <defs>
    <clipPath id="clip-path">
      <rect id="Rectángulo_413530" data-name="Rectángulo 413530" width="318.105" height="370.328" fill="none"/>
    </clipPath>
    <clipPath id="clip-path-3">
      <path id="Trazado_895413" data-name="Trazado 895413" d="M40.227,69.046C42.409,75.6,46.42,83.552,50.62,90.992v0c1.411,2.5,2.845,4.945,4.237,7.256,5.736,9.529,10.781,16.836,10.781,16.836s2.4,1.911,4.329,1.867c8.23-.2,16.248-8.1,43.079-17.563a5.352,5.352,0,0,0,3.719-3.181,4.615,4.615,0,0,0,.133-2.445l-.27-1.322L121.609,92a.493.493,0,0,0,.448-.44.5.5,0,0,0-.422-.538s-2.807-.711-4.77-1.036a9.9,9.9,0,0,0-4.811,5.029c-21.754,5.974-21.9,3.64-40.531,9.615-1.607-5.493-3.9-13.037-6.522-20.792q-.594-1.767-1.219-3.541c-.4-1.152-.811-2.3-1.222-3.441-.652-1.8-1.315-3.592-1.989-5.337-.785-2.033-1.581-4.006-2.382-5.888C55.983,60.438,43,53.749,43,53.749s-4.43,10.319-2.775,15.3" fill="none"/>
    </clipPath>
    <linearGradient id="linear-gradient" x1="-0.462" y1="5.005" x2="-0.45" y2="5.005" gradientUnits="objectBoundingBox">
      <stop offset="0" stop-color="#f08e73"/>
      <stop offset="1" stop-color="#f9b99d"/>
    </linearGradient>
    <clipPath id="clip-path-5">
      <path id="Trazado_895427" data-name="Trazado 895427" d="M17.714,59.19s1.822,6.611,4.74,24.325c.033.233.06.471.086.7,2.9,24.291-2.834,36.44-2.834,36.44L6.978,135.964q.678.406,1.351.786,2.461,1.416,4.851,2.585a68.065,68.065,0,0,0,23.485,7.025c11.7,1.137,19.914-1.87,22.836-4.466.1-.085.192-.174.278-.26-1.726-5.484-3.515-8.051-6.344-15.765-.345-.941-.7-1.956-1.082-3.063-.215-.633-.436-1.293-.662-1.989.217-3.137.566-6.329.984-9.444.8-6.026,1.878-11.769,2.83-16.333.392-1.9.77-3.588,1.1-5.014.226-.985.426-1.841.6-2.545.347-1.436.562-2.248.562-2.248s-13.288-23.9-14.18-24.7-9.2-5.1-9.2-5.1L20.6,55.365Z" fill="none"/>
    </clipPath>
    <linearGradient id="linear-gradient-2" x1="-0.132" y1="3.419" x2="-0.113" y2="3.419" gradientUnits="objectBoundingBox">
      <stop offset="0" stop-color="#fac383"/>
      <stop offset="1" stop-color="#f19b6c"/>
    </linearGradient>
    <clipPath id="clip-path-6">
      <path id="Trazado_895428" data-name="Trazado 895428" d="M22.373,52.113A34.918,34.918,0,0,1,30.624,67.8c1.9,9.067-1.166,16.388-2.847,20.158a224.716,224.716,0,0,0,22.884,2.322c3.97.1,7.159-.147,8.169-1.044a10.839,10.839,0,0,0,3.23-4.585,9.868,9.868,0,0,0-.593-7.3c-.033-.074-.066-.148-.1-.225-.193-.434-.415-.9-.652-1.4-.059-.114-.115-.233-.174-.355-.193-.389-.4-.808-.615-1.241-.055-.111-.114-.225-.17-.341-.086-.17-.17-.341-.259-.514-.034-.063-.067-.13-.1-.2-.186-.359-.375-.73-.574-1.115-.3-.585-.626-1.2-.956-1.837-.2-.377-.4-.762-.6-1.152q-.656-1.243-1.36-2.584c-.121-.234-.247-.47-.369-.708-.03-.059-.067-.118-.1-.177-.977-1.863-2.492-4.793-3.833-7.4a11.328,11.328,0,0,0-4.2-4.511v0a11.442,11.442,0,0,0-4.948-1.623l-7.314-.629Z" fill="none"/>
    </clipPath>
    <linearGradient id="linear-gradient-3" x1="-0.551" y1="8.172" x2="-0.527" y2="8.172" xlink:href="#linear-gradient-2"/>
    <clipPath id="clip-path-8">
      <path id="Trazado_895430" data-name="Trazado 895430" d="M22.984,331.7c6.5,13.358,11.144,13.588,11.144,13.588H45.635s.008-.03.022-.089c.593-2.533.011-4.2-2.27-5.459-1.689-.93-4.17-2.092-4.17-2.092-11.934,7.177-14.259-11.685-14.426-13.192-.007-.064-.01-.1-.01-.1s-3.219,2.374-1.8,7.341" fill="none"/>
    </clipPath>
    <linearGradient id="linear-gradient-4" x1="-0.873" y1="2.196" x2="-0.833" y2="2.196" gradientUnits="objectBoundingBox">
      <stop offset="0" stop-color="#f24050"/>
      <stop offset="1" stop-color="#e03347"/>
    </linearGradient>
    <clipPath id="clip-path-9">
      <path id="Trazado_895431" data-name="Trazado 895431" d="M66.794,331.956l3.554,1.162A15.658,15.658,0,0,1,78.43,339.1a12.463,12.463,0,0,0,2.533,2.833h8.351l.145-.929a4.539,4.539,0,0,0-1.693-4.293,28.177,28.177,0,0,0-4.44-2.722v0c.136,1.881-2.956,1.04-4.408.3-1.262-.645-8.51-7.7-10.354-9.5-.063-.063-.126-.122-.178-.173l-.074-.075c-.112-.111-.178-.174-.178-.174s-2.655,1.041-1.34,7.593" fill="none"/>
    </clipPath>
    <linearGradient id="linear-gradient-5" x1="-2.702" y1="2.617" x2="-2.66" y2="2.617" xlink:href="#linear-gradient-4"/>
    <clipPath id="clip-path-11">
      <path id="Trazado_895437" data-name="Trazado 895437" d="M35.147,51.342s5.629,7.383,10.414,7.383,1.171-6.383,1.171-6.383.4-1.4.873-3.327h0c.763-3.143,1.716-7.7,1.412-9.938L42.6,37.456c-1.931,10.482-7.449,13.886-7.449,13.886" fill="none"/>
    </clipPath>
    <linearGradient id="linear-gradient-6" x1="-2.312" y1="15.651" x2="-2.247" y2="15.651" xlink:href="#linear-gradient"/>
    <clipPath id="clip-path-12">
      <path id="Trazado_895438" data-name="Trazado 895438" d="M44.216,25.718c-2.3,5.173-2.485,7.507-.795,11.892,0,.019-.009.037-.012.052-.748,3.514,1.374,7.333,4.6,9.614a12.3,12.3,0,0,0,1.552.933c4.349,2.189,11.97,1.8,16.337-2.355a10.545,10.545,0,0,0,3.222-6.462c.044-.357.074-.719.092-1.093a16.084,16.084,0,0,1,.386-1.775c.281-1.021.648-2.029,1.022-3.036.226-.6.455-1.2.674-1.8v-.007c.029-.082.059-.163.088-.245.97-2.7,1.674-5.44.741-8.454-.074-.238-.156-.475-.248-.708v0a11.141,11.141,0,0,0-1.915-3.257,12.528,12.528,0,0,0-4.84-3.833q-.438-.193-.889-.355a12.456,12.456,0,0,0-4.179-.711c-6.228,0-12.655,4.445-15.839,11.607" fill="none"/>
    </clipPath>
    <linearGradient id="linear-gradient-7" x1="-1.332" y1="9.816" x2="-1.3" y2="9.816" xlink:href="#linear-gradient"/>
    <clipPath id="clip-path-14">
      <rect id="Rectángulo_413445" data-name="Rectángulo 413445" width="8.248" height="5.974" transform="translate(57.323 26.451)" fill="none"/>
    </clipPath>
    <clipPath id="clip-path-15">
      <path id="Trazado_895442" data-name="Trazado 895442" d="M42.58,29.021A3.649,3.649,0,0,0,40.3,32.214a5.662,5.662,0,0,0,.286,2.448,5.6,5.6,0,0,0,.618,1.266,4.922,4.922,0,0,0,1.625,1.585,4.2,4.2,0,0,0,.56.275,3.193,3.193,0,0,0,2.24.084,3.25,3.25,0,0,0,1.841-1.677l0,0a5.173,5.173,0,0,0,.153-3.959A4.829,4.829,0,0,0,44.1,28.9v0a3.224,3.224,0,0,0-.536-.046,2.982,2.982,0,0,0-.989.167" fill="none"/>
    </clipPath>
    <linearGradient id="linear-gradient-8" x1="-5.091" y1="36.832" x2="-4.964" y2="36.832" xlink:href="#linear-gradient"/>
    <clipPath id="clip-path-17">
      <rect id="Rectángulo_413448" data-name="Rectángulo 413448" width="12.866" height="13.886" transform="translate(35.146 37.456)" fill="none"/>
    </clipPath>
    <clipPath id="clip-path-18">
      <path id="Trazado_895446" data-name="Trazado 895446" d="M14.5,76.634c-.074,1.807-.163,3.7-.266,5.622-.8,15.411-2.33,33.543-1.856,36.394l8.7.534s.651-2.137,1.648-5.57c1.733-6,4.507-15.952,6.659-25.418q.3-1.3.574-2.578c-3.6-7.225-10.511-8.866-15.463-9.018Z" fill="none"/>
    </clipPath>
    <linearGradient id="linear-gradient-9" x1="-0.659" y1="6.898" x2="-0.604" y2="6.898" xlink:href="#linear-gradient"/>
    <clipPath id="clip-path-19">
      <path id="Trazado_895447" data-name="Trazado 895447" d="M19.921,109.144c-2.673.64-4.633,2.862-5.97,5.1h0a21.073,21.073,0,0,0-1.192,2.3,4.463,4.463,0,0,0,4.078,6.27H70.286v0l2.17,1.012,3.285,2.684a2.021,2.021,0,0,0,1.552.43l1.044-.144,0,0,1.286.715a1.074,1.074,0,0,0,.541.141,1.1,1.1,0,0,0,.807-1.852l-.655-.711,2.688,1.507a.962.962,0,0,0,1.108-.111.968.968,0,0,0,.1-1.385l-1.9-2.126,2.807,1.822a1.086,1.086,0,0,0,1.293-1.74l-4.989-4.219a5.144,5.144,0,0,0-3.91-1.684l-4.556.1h0l-.948.026v0C47.413,116,33.75,109.051,24.11,108.762q-.309-.009-.614-.009a15.27,15.27,0,0,0-3.575.391" fill="none"/>
    </clipPath>
    <linearGradient id="linear-gradient-10" x1="-0.16" y1="13.847" x2="-0.146" y2="13.847" xlink:href="#linear-gradient"/>
    <clipPath id="clip-path-20">
      <path id="Trazado_895448" data-name="Trazado 895448" d="M81.313,114.174l-.777.325-.252.108s-5.408,1.171-7.329,2.64l4.556-.1a5.058,5.058,0,0,1,2.4.541l1.519-1.3c1.861-.73,2.644-1.506,2.942-2.137a1.932,1.932,0,0,0-1.4-.771Z" fill="none"/>
    </clipPath>
    <linearGradient id="linear-gradient-11" x1="-6.389" y1="61.025" x2="-6.302" y2="61.025" xlink:href="#linear-gradient"/>
    <clipPath id="clip-path-21">
      <path id="Trazado_895449" data-name="Trazado 895449" d="M83.957,113.065l-.206.086a2.435,2.435,0,0,1,.777.513,1.492,1.492,0,0,0,0-.286.4.4,0,0,0-.405-.345.416.416,0,0,0-.161.032" fill="none"/>
    </clipPath>
    <linearGradient id="linear-gradient-12" x1="-106.69" y1="407.75" x2="-105.416" y2="407.75" xlink:href="#linear-gradient"/>
    <clipPath id="clip-path-23">
      <rect id="Rectángulo_413454" data-name="Rectángulo 413454" width="4.405" height="6.947" transform="translate(42.456 30.198)" fill="none"/>
    </clipPath>
    <clipPath id="clip-path-24">
      <rect id="Rectángulo_413455" data-name="Rectángulo 413455" width="2.081" height="1.168" transform="translate(61.477 40.122)" fill="none"/>
    </clipPath>
    <clipPath id="clip-path-25">
      <rect id="Rectángulo_413456" data-name="Rectángulo 413456" width="4.394" height="1.516" transform="translate(54.039 43.455)" fill="none"/>
    </clipPath>
    <clipPath id="clip-path-26">
      <path id="Trazado_895454" data-name="Trazado 895454" d="M144,19.032V35.465c0,4.533-4.949,8.544-9.27,9.916a24.788,24.788,0,0,0-11,7.127l0,0q-.8.9-1.515,1.875c-3.038,4.153-2.775,9.251-2.775,14.658v3.513a8.387,8.387,0,0,0,3.487,6.805,14.065,14.065,0,0,1,5.842,11.409V105.01a18.926,18.926,0,0,1-2.783,9.872c-.094.153-.191.312-.287.475-3.648,6.118-9.529,18.9-11.84,40.354a17.124,17.124,0,0,0,17.019,18.964h41.785a17.125,17.125,0,0,0,17.02-18.964c-2.373-22.024-8.509-34.912-12.128-40.829a18.925,18.925,0,0,1-2.782-9.872V90.772a14.068,14.068,0,0,1,5.841-11.409,8.388,8.388,0,0,0,3.488-6.805V69.045c0-5.407.263-10.5-2.777-14.658a24.77,24.77,0,0,0-12.52-9.006c-4.321-1.372-9.27-5.383-9.27-9.916V19.032c0-.564-3.476-1.023-7.764-1.023S144,18.468,144,19.032" fill="none"/>
    </clipPath>
    <linearGradient id="linear-gradient-13" x1="-1.446" y1="2.249" x2="-1.433" y2="2.249" gradientUnits="objectBoundingBox">
      <stop offset="0" stop-color="#5f3759"/>
      <stop offset="1" stop-color="#3c3257"/>
    </linearGradient>
    <clipPath id="clip-path-28">
      <rect id="Rectángulo_413461" data-name="Rectángulo 413461" width="5.531" height="139.353" transform="translate(148.999 181.773)" fill="none"/>
    </clipPath>
    <linearGradient id="linear-gradient-14" x1="-26.939" y1="1.353" x2="-26.758" y2="1.353" xlink:href="#linear-gradient-13"/>
    <clipPath id="clip-path-30">
      <rect id="Rectángulo_413462" data-name="Rectángulo 413462" width="28.105" height="76.772" transform="translate(123.723 47.018)" fill="none"/>
    </clipPath>
    <clipPath id="clip-path-31">
      <rect id="Rectángulo_413463" data-name="Rectángulo 413463" width="28.106" height="76.772" transform="translate(151.828 47.018)" fill="none"/>
    </clipPath>
    <clipPath id="clip-path-32">
      <path id="Trazado_895462" data-name="Trazado 895462" d="M121.229,53.834c-3.038,4.154-1.8,9.8-1.8,15.211v3.513a8.387,8.387,0,0,0,3.487,6.805,14.065,14.065,0,0,1,5.842,11.409V105.01a18.919,18.919,0,0,1-1.4,7.133c-.072.085-15.562,19.25-15.688,63.53q-.014,4.03.152,8.341c4.915,11.4,27.917,15.53,33.422,9.042.919-1.082,1.7-3.317,2.374-6.36,3.354-15.2,3.9-50.542,4.27-62.906-.035-.261-.07-.518-.1-.776-.006.259-.013.517-.023.776a230.845,230.845,0,0,0-16.4-48.935h0c-.054-.109-.105-.216-.159-.324l-.359-.736c-.056-.111-.111-.221-.165-.331-.174-.348-.346-.69-.52-1.031-.045-.086-.087-.169-.13-.254q-.273-.528-.544-1.044l-.1-.178c-.192-.363-.387-.724-.579-1.078a43.607,43.607,0,0,0-6.983-10l4.67-2.919-6.78-4.442c-.535.6-2.02.674-2.494,1.322" fill="none"/>
    </clipPath>
    <linearGradient id="linear-gradient-15" x1="-2.776" y1="2.161" x2="-2.751" y2="2.161" gradientUnits="objectBoundingBox">
      <stop offset="0" stop-color="#77a5bd"/>
      <stop offset="0.006" stop-color="#77a5bd"/>
      <stop offset="1" stop-color="#66b0a5"/>
    </linearGradient>
    <clipPath id="clip-path-33">
      <path id="Trazado_895463" data-name="Trazado 895463" d="M173.154,56.954l4.67,2.919a43.576,43.576,0,0,0-6.983,10c-.194.353-.387.714-.581,1.079-.03.059-.062.117-.093.177q-.273.516-.544,1.045l-.13.253q-.259.51-.521,1.031c-.055.11-.109.221-.163.332q-.182.365-.36.734c-.054.109-.107.215-.16.325v0a230.954,230.954,0,0,0-16.4,48.934c-.009-.259-.016-.517-.021-.776-.035.258-.071.515-.107.776.447,14.84,1.142,62.779,6.645,69.266s28.508,2.359,33.422-9.042c1.962-50.224-15.461-71.78-15.535-71.872a18.907,18.907,0,0,1-1.4-7.132V90.772a14.065,14.065,0,0,1,5.842-11.409,8.388,8.388,0,0,0,3.488-6.805V69.045c0-5.407,1.137-11.057-1.9-15.211-.473-.648-1.854-.722-2.39-1.322Z" fill="none"/>
    </clipPath>
    <linearGradient id="linear-gradient-16" x1="-3.611" y1="2.161" x2="-3.587" y2="2.161" xlink:href="#linear-gradient-15"/>
    <clipPath id="clip-path-35">
      <rect id="Rectángulo_413467" data-name="Rectángulo 413467" width="35.949" height="20.46" transform="translate(111.673 175.673)" fill="none"/>
    </clipPath>
    <clipPath id="clip-path-36">
      <rect id="Rectángulo_413468" data-name="Rectángulo 413468" width="35.95" height="20.46" transform="translate(156.035 175.673)" fill="none"/>
    </clipPath>
    <clipPath id="clip-path-37">
      <rect id="Rectángulo_413469" data-name="Rectángulo 413469" width="3.011" height="3.011" transform="translate(153.024 123.512)" fill="none"/>
    </clipPath>
    <clipPath id="clip-path-38">
      <rect id="Rectángulo_413470" data-name="Rectángulo 413470" width="3.011" height="3.012" transform="translate(153.466 136.045)" fill="none"/>
    </clipPath>
    <clipPath id="clip-path-39">
      <rect id="Rectángulo_413471" data-name="Rectángulo 413471" width="3.012" height="3.011" transform="translate(153.908 148.579)" fill="none"/>
    </clipPath>
    <clipPath id="clip-path-40">
      <rect id="Rectángulo_413472" data-name="Rectángulo 413472" width="9.952" height="106.862" transform="translate(180.632 53.835)" fill="none"/>
    </clipPath>
    <clipPath id="clip-path-41">
      <path id="Trazado_895478" data-name="Trazado 895478" d="M270.291,31.3l1.237,8.7.111.789.778,5.47,15.344-1.548-.244-.9-3.553-13.055-.089-.33-.373-1.367-1.208-4.436Z" fill="none"/>
    </clipPath>
    <linearGradient id="linear-gradient-17" x1="-15.472" y1="15.978" x2="-15.414" y2="15.978" xlink:href="#linear-gradient"/>
    <clipPath id="clip-path-43">
      <path id="Trazado_895490" data-name="Trazado 895490" d="M269.38,4.152a13.108,13.108,0,0,0-9.314,5.989,13.345,13.345,0,0,0-2.093,7.184v6.182a51.886,51.886,0,0,0,1.571,12.681l1.011,4.007a4.105,4.105,0,0,0,1.462,2.248,4.156,4.156,0,0,0,2.537.882,8.174,8.174,0,0,0,5.318-1.933l1.075-.909,7.958-6.725L278.6,29.6l-.137-1.833,1.07-.148,3.934-.552c.074-.115.147-.237.222-.359,3.648-6.1,4.289-19.774-2.952-21.8a35,35,0,0,0-7.92-.973,26.021,26.021,0,0,0-3.435.221" fill="none"/>
    </clipPath>
    <linearGradient id="linear-gradient-18" x1="-8.598" y1="9.298" x2="-8.565" y2="9.298" xlink:href="#linear-gradient"/>
    <clipPath id="clip-path-45">
      <path id="Trazado_895492" data-name="Trazado 895492" d="M277.065,25.014c-.056.16-.1.322-.145.489-.57,2.222-.1,4.367,1.056,5.467l.011.007a2.635,2.635,0,0,0,.752.522,2.794,2.794,0,0,0,.452.163c2,.514,4.222-1.407,4.966-4.292.007-.03.015-.06.023-.09a7.5,7.5,0,0,0,.192-1.2c.2-2.374-.793-4.426-2.485-4.863a2.663,2.663,0,0,0-.662-.083c-1.69,0-3.4,1.578-4.16,3.883" fill="none"/>
    </clipPath>
    <linearGradient id="linear-gradient-19" x1="-33.627" y1="31.613" x2="-33.506" y2="31.613" xlink:href="#linear-gradient"/>
    <clipPath id="clip-path-47">
      <rect id="Rectángulo_413479" data-name="Rectángulo 413479" width="5.253" height="8.407" transform="translate(277.722 22.304)" fill="none"/>
    </clipPath>
    <clipPath id="clip-path-48">
      <path id="Trazado_895494" data-name="Trazado 895494" d="M184.606,30.162c.23.421,22.755,42.235,7.252,55.087-12.587,10.433-18.37,39.123-17.187,85.271l2.221-.057c-1.147-44.793,4.518-73.668,16.385-83.5,16.9-14.011-5.748-56.076-6.72-57.86Z" fill="none"/>
    </clipPath>
    <linearGradient id="linear-gradient-20" x1="-4.728" y1="2.413" x2="-4.701" y2="2.413" xlink:href="#linear-gradient-2"/>
    <clipPath id="clip-path-49">
      <path id="Trazado_895495" data-name="Trazado 895495" d="M188.307,29.332a2.153,2.153,0,0,0-.308.33l-1.166,1.526a.6.6,0,0,0-.123.359.61.61,0,0,0,.212.459.745.745,0,0,0,.9.044l1.4-.958.371-.256,1.422,1.007a14.062,14.062,0,0,1,1.262,1.774c.016.023.03.044.045.07a20.8,20.8,0,0,1,1.493,3.193l0,0,.105.269-.457-3.569-.17-1.889a3.167,3.167,0,0,0-2.178-2.725l-.448-.145a2.432,2.432,0,0,0-2.359.507" fill="none"/>
    </clipPath>
    <linearGradient id="linear-gradient-21" x1="-25.9" y1="40.466" x2="-25.761" y2="40.466" xlink:href="#linear-gradient"/>
    <clipPath id="clip-path-50">
      <path id="Trazado_895496" data-name="Trazado 895496" d="M184.27,27.747l-.567.469a.668.668,0,0,0-.016,1.016l1.731,1.518a.667.667,0,0,0,1.016-.839l-1.164-1.986a.666.666,0,0,0-1-.178" fill="none"/>
    </clipPath>
    <linearGradient id="linear-gradient-22" x1="-56.95" y1="101.487" x2="-56.639" y2="101.487" xlink:href="#linear-gradient"/>
    <clipPath id="clip-path-51">
      <path id="Trazado_895497" data-name="Trazado 895497" d="M182.088,29.4l-.518.673a.77.77,0,0,0,.244,1.146l2.335,1.262a.769.769,0,0,0,.926-1.2l-1.817-1.935a.77.77,0,0,0-1.17.057" fill="none"/>
    </clipPath>
    <linearGradient id="linear-gradient-23" x1="-44.519" y1="95.848" x2="-44.274" y2="95.848" xlink:href="#linear-gradient"/>
    <clipPath id="clip-path-52">
      <path id="Trazado_895498" data-name="Trazado 895498" d="M180.572,31.663l-.323.663a.668.668,0,0,0,.409.93l2.205.662a.667.667,0,0,0,.575-1.184l-1.883-1.324a.666.666,0,0,0-.983.253" fill="none"/>
    </clipPath>
    <linearGradient id="linear-gradient-24" x1="-48.315" y1="124.459" x2="-48.047" y2="124.459" xlink:href="#linear-gradient"/>
    <clipPath id="clip-path-53">
      <path id="Trazado_895499" data-name="Trazado 895499" d="M180.3,34.695l-.158.724a.671.671,0,0,0,.619.814l2.315.127a.671.671,0,0,0,.283-1.3l-2.157-.851a.671.671,0,0,0-.9.481" fill="none"/>
    </clipPath>
    <linearGradient id="linear-gradient-25" x1="-47.557" y1="152.039" x2="-47.293" y2="152.039" xlink:href="#linear-gradient"/>
    <clipPath id="clip-path-55">
      <path id="Trazado_895501" data-name="Trazado 895501" d="M193.135,97.163a2.361,2.361,0,0,0-.907.273,5.362,5.362,0,0,0-2.344,7.23c.011.03.026.059.04.089a5.221,5.221,0,0,0,3.385,2.722h0a4.992,4.992,0,0,0,1.73.137,42.721,42.721,0,0,0,5.988-1.089c.693.089,1.385.185,2.082.293a10.639,10.639,0,0,1,1.73-6.393c-.385-.037-.771-.074-1.156-.114-.6-.059-1.208-.122-1.819-.193,0,0-4.651-2.962-8.414-2.962-.108,0-.215,0-.319.007" fill="none"/>
    </clipPath>
    <linearGradient id="linear-gradient-26" x1="-11.576" y1="25.984" x2="-11.515" y2="25.984" xlink:href="#linear-gradient"/>
    <clipPath id="clip-path-57">
      <rect id="Rectángulo_413489" data-name="Rectángulo 413489" width="9.235" height="6.886" transform="translate(52.325 33.019)" fill="none"/>
    </clipPath>
    <clipPath id="clip-path-58">
      <rect id="Rectángulo_413490" data-name="Rectángulo 413490" width="5.212" height="7.266" transform="translate(63.911 38.588)" fill="none"/>
    </clipPath>
    <clipPath id="clip-path-59">
      <rect id="Rectángulo_413491" data-name="Rectángulo 413491" width="23.001" height="16.147" transform="translate(46.142 20.044)" fill="none"/>
    </clipPath>
    <clipPath id="clip-path-60">
      <rect id="Rectángulo_413492" data-name="Rectángulo 413492" width="1.183" height="9.166" transform="translate(71.382 22.27)" fill="none"/>
    </clipPath>
    <clipPath id="clip-path-61">
      <rect id="Rectángulo_413493" data-name="Rectángulo 413493" width="37.294" height="187.613" transform="translate(0 136.75)" fill="none"/>
    </clipPath>
    <clipPath id="clip-path-62">
      <path id="Trazado_895507" data-name="Trazado 895507" d="M24.781,324.363s0,.033.01.1c.167,1.507,2.492,20.369,14.426,13.192-4.3-6.172-8.343-12.1-8.343-12.1l.417-8.223c-3.863,2.144-7.463-.57-8.177-1.167.748,3.185,1.329,5.985,1.667,8.2" fill="none"/>
    </clipPath>
    <linearGradient id="linear-gradient-27" x1="-1.435" y1="1.884" x2="-1.373" y2="1.884" xlink:href="#linear-gradient"/>
    <clipPath id="clip-path-63">
      <path id="Trazado_895508" data-name="Trazado 895508" d="M68.134,324.363s.066.063.178.174l.074.075c.052.051.115.11.178.173,1.844,1.8,9.092,8.855,10.354,9.5,1.452.744,4.544,1.585,4.408-.3v0c-2.167-3.352-8.5-9.622-8.5-9.622.438-3.648.963-7.559,1.559-11.655.026-.174.052-.352.079-.525v-.005c-4.159,2.511-9.3-.5-9.3-.5.355,3.822.685,8.015.974,12.681" fill="none"/>
    </clipPath>
    <linearGradient id="linear-gradient-28" x1="-4.12" y1="2.424" x2="-4.058" y2="2.424" xlink:href="#linear-gradient"/>
    <clipPath id="clip-path-65">
      <rect id="Rectángulo_413497" data-name="Rectángulo 413497" width="38.339" height="172.048" transform="translate(36.665 141.894)" fill="none"/>
    </clipPath>
    <clipPath id="clip-path-66">
      <rect id="Rectángulo_413498" data-name="Rectángulo 413498" width="5.682" height="2.828" transform="translate(57.199 29.756)" fill="none"/>
    </clipPath>
    <clipPath id="clip-path-67">
      <rect id="Rectángulo_413499" data-name="Rectángulo 413499" width="4.859" height="6.108" transform="translate(65.764 30.865)" fill="none"/>
    </clipPath>
    <clipPath id="clip-path-68">
      <rect id="Rectángulo_413500" data-name="Rectángulo 413500" width="3.696" height="2.459" transform="translate(65.603 34.59)" fill="none"/>
    </clipPath>
    <clipPath id="clip-path-69">
      <rect id="Rectángulo_413501" data-name="Rectángulo 413501" width="16.014" height="37.639" transform="translate(13.948 76.601)" fill="none"/>
    </clipPath>
    <clipPath id="clip-path-70">
      <rect id="Rectángulo_413502" data-name="Rectángulo 413502" width="15.11" height="40.105" transform="translate(54.857 76.85)" fill="none"/>
    </clipPath>
    <clipPath id="clip-path-71">
      <rect id="Rectángulo_413503" data-name="Rectángulo 413503" width="34.976" height="77.193" transform="translate(265.247 48.961)" fill="none"/>
    </clipPath>
    <clipPath id="clip-path-72">
      <rect id="Rectángulo_413504" data-name="Rectángulo 413504" width="12.647" height="16.669" transform="translate(291.224 107.829)" fill="none"/>
    </clipPath>
    <clipPath id="clip-path-73">
      <rect id="Rectángulo_413505" data-name="Rectángulo 413505" width="78.555" height="55.928" transform="translate(203.679 52.909)" fill="none"/>
    </clipPath>
    <clipPath id="clip-path-74">
      <rect id="Rectángulo_413506" data-name="Rectángulo 413506" width="13.099" height="23.175" transform="translate(272.802 82.224)" fill="none"/>
    </clipPath>
    <clipPath id="clip-path-75">
      <rect id="Rectángulo_413507" data-name="Rectángulo 413507" width="31.4" height="8.545" transform="translate(217.395 110.019)" fill="none"/>
    </clipPath>
    <clipPath id="clip-path-76">
      <rect id="Rectángulo_413508" data-name="Rectángulo 413508" width="14.822" height="11.936" transform="translate(271.528 29.055)" fill="none"/>
    </clipPath>
    <clipPath id="clip-path-77">
      <rect id="Rectángulo_413509" data-name="Rectángulo 413509" width="20.003" height="17.294" transform="translate(257.973 13.675)" fill="none"/>
    </clipPath>
    <clipPath id="clip-path-78">
      <rect id="Rectángulo_413510" data-name="Rectángulo 413510" width="21.454" height="35.55" transform="translate(260.766 49.439)" fill="none"/>
    </clipPath>
    <clipPath id="clip-path-79">
      <rect id="Rectángulo_413511" data-name="Rectángulo 413511" width="15.744" height="5.326" transform="translate(272.013 44.71)" fill="none"/>
    </clipPath>
    <clipPath id="clip-path-80">
      <rect id="Rectángulo_413512" data-name="Rectángulo 413512" width="46.809" height="92.273" transform="translate(266.269 128.776)" fill="none"/>
    </clipPath>
    <clipPath id="clip-path-81">
      <rect id="Rectángulo_413513" data-name="Rectángulo 413513" width="14.882" height="112.202" transform="translate(303.223 221.053)" fill="none"/>
    </clipPath>
    <clipPath id="clip-path-82">
      <rect id="Rectángulo_413514" data-name="Rectángulo 413514" width="91.582" height="68.927" transform="translate(203.12 56.805)" fill="none"/>
    </clipPath>
    <clipPath id="clip-path-83">
      <rect id="Rectángulo_413515" data-name="Rectángulo 413515" width="3.623" height="11.906" transform="translate(259.118 22.906)" fill="none"/>
    </clipPath>
    <clipPath id="clip-path-84">
      <rect id="Rectángulo_413516" data-name="Rectángulo 413516" width="11.529" height="7.325" transform="translate(193.313 100.311)" fill="none"/>
    </clipPath>
    <clipPath id="clip-path-85">
      <rect id="Rectángulo_413517" data-name="Rectángulo 413517" width="9.731" height="106.88" transform="translate(112.967 53.835)" fill="none"/>
    </clipPath>
    <clipPath id="clip-path-86">
      <rect id="Rectángulo_413518" data-name="Rectángulo 413518" width="18.258" height="92.189" transform="translate(119.298 70.834)" fill="none"/>
    </clipPath>
    <clipPath id="clip-path-87">
      <rect id="Rectángulo_413528" data-name="Rectángulo 413528" width="295.228" height="29.586" transform="translate(17.433 340.742)" fill="none"/>
    </clipPath>
    <clipPath id="clip-path-88">
      <path id="Trazado_895548" data-name="Trazado 895548" d="M45.657,345.336c-.015-.029-.022-.044-.022-.044H34.128s-4.648.113-11.144,6.72c-1.422,2.457,1.8,3.63,1.8,3.63l.011-.047c.167-.746,2.493-10.074,14.426-6.524,0,0,2.481-.576,4.17-1.035,2.281-.623,2.863-1.447,2.27-2.7" fill="none"/>
    </clipPath>
    <linearGradient id="linear-gradient-29" x1="-0.873" y1="2.419" x2="-0.833" y2="2.419" xlink:href="#linear-gradient-4"/>
    <clipPath id="clip-path-89">
      <path id="Trazado_895549" data-name="Trazado 895549" d="M89.459,341.922l-.145-.518H80.963a10.827,10.827,0,0,0-2.533,1.58,18.163,18.163,0,0,1-8.081,3.333l-3.556.648c-1.315,3.653,1.341,4.234,1.341,4.234l.178-.1.074-.042c.051-.029.114-.062.177-.1,1.845-1.005,9.093-4.937,10.355-5.3,1.452-.415,4.545-.884,4.408.166v0a36.752,36.752,0,0,0,4.44-1.518c1.308-.566,1.948-1.485,1.693-2.394" fill="none"/>
    </clipPath>
    <linearGradient id="linear-gradient-30" x1="-2.702" y1="2.953" x2="-2.66" y2="2.953" xlink:href="#linear-gradient-4"/>
    <clipPath id="clip-path-90">
      <rect id="Rectángulo_413522" data-name="Rectángulo 413522" width="5.529" height="18.533" transform="translate(148.999 351.795)" fill="none"/>
    </clipPath>
    <linearGradient id="linear-gradient-31" x1="-26.949" y1="1" x2="-26.768" y2="1" xlink:href="#linear-gradient-13"/>
    <clipPath id="clip-path-91">
      <rect id="Rectángulo_413523" data-name="Rectángulo 413523" width="8.764" height="14.687" transform="translate(17.433 355.638)" fill="none"/>
    </clipPath>
    <clipPath id="clip-path-92">
      <path id="Trazado_895559" data-name="Trazado 895559" d="M39.217,349.071c-11.933-3.55-14.259,5.778-14.426,6.524l-.011.047a32.148,32.148,0,0,1-1.666,4.054,13.467,13.467,0,0,1,8.177-.577l-.417-4.067s4.047-2.929,8.343-5.981" fill="none"/>
    </clipPath>
    <linearGradient id="linear-gradient-32" x1="-1.435" y1="1.744" x2="-1.373" y2="1.744" xlink:href="#linear-gradient"/>
    <clipPath id="clip-path-93">
      <path id="Trazado_895560" data-name="Trazado 895560" d="M83.326,345.834v0c.137-1.05-2.956-.581-4.408-.166-1.262.36-8.51,4.292-10.355,5.3-.063.035-.126.068-.177.1l-.074.042-.178.1c-.289,2.6-.619,7.313-.974,9.444,0,0,5.14-1.677,9.3-.277v0c-.026-.1-.052-.2-.077-.293-.6-2.284-1.123-6.838-1.56-8.872,0,0,6.337-3.5,8.5-5.365" fill="none"/>
    </clipPath>
    <linearGradient id="linear-gradient-33" x1="-4.119" y1="1.61" x2="-4.058" y2="1.61" xlink:href="#linear-gradient"/>
    <clipPath id="clip-path-94">
      <rect id="Rectángulo_413526" data-name="Rectángulo 413526" width="4.496" height="10.944" transform="translate(65.065 359.384)" fill="none"/>
    </clipPath>
    <clipPath id="clip-path-95">
      <rect id="Rectángulo_413527" data-name="Rectángulo 413527" width="7.085" height="21.714" transform="translate(305.576 348.614)" fill="none"/>
    </clipPath>
  </defs>
  <g id="Grupo_1124800" data-name="Grupo 1124800" clip-path="url(#clip-path)">
    <g id="Grupo_1124568" data-name="Grupo 1124568">
      <g id="Grupo_1124567" data-name="Grupo 1124567" clip-path="url(#clip-path)">
        <path id="Trazado_895412" data-name="Trazado 895412" d="M94.085,217.15S82.2,272.873,76.46,312.179v0c-.026.174-.052.351-.078.526-.6,4.1-1.123,8.006-1.559,11.655h-6.69c-.254-4.148-.543-7.919-.854-11.389-.041-.437-.078-.867-.119-1.292-2.27-24.329-5.707-33.769-7.392-55.709.47-10.929,12.414-31.836,12.414-31.836-16.758-9.336-42.758-51.79-43.772-65.867-.429-5.907,4.482-13.273,7.411-17.1,1.226-1.6,2.107-2.585,2.107-2.585a76.76,76.76,0,0,1,13.611-.126c2.989.323,5.64,1,6.9,2.278a39.989,39.989,0,0,1,4.547,5.859c13.566,20.543,31.1,70.556,31.1,70.556" fill="#822b4f"/>
      </g>
    </g>
    <g id="Grupo_1124570" data-name="Grupo 1124570">
      <g id="Grupo_1124569" data-name="Grupo 1124569" clip-path="url(#clip-path-3)">
        <rect id="Rectángulo_413435" data-name="Rectángulo 413435" width="83.508" height="63.25" transform="translate(38.572 53.749)" fill="url(#linear-gradient)"/>
      </g>
    </g>
    <g id="Grupo_1124572" data-name="Grupo 1124572">
      <g id="Grupo_1124571" data-name="Grupo 1124571" clip-path="url(#clip-path)">
        <path id="Trazado_895414" data-name="Trazado 895414" d="M116.663,92.037,126.087,91a.268.268,0,0,1,.1.524l-5.577,1.59,6.984-1.326a.29.29,0,0,1,.145.561l-6.559,2.174,5.906-1.214a.26.26,0,0,1,.136.5l-5.788,1.963,5.018-1.237a.3.3,0,0,1,.2.565l-5.575,2.663a13.115,13.115,0,0,1-4.877,1.257l-2.516.148Z" fill="#fff"/>
        <path id="Trazado_895415" data-name="Trazado 895415" d="M113.689,99.353a.185.185,0,0,1-.171-.256l2.974-7.13a.184.184,0,0,1,.151-.113l9.424-1.038a.453.453,0,0,1,.174.886l-1.629.464,2.95-.56a.476.476,0,0,1,.239.919l-3.567,1.182,2.818-.579a.444.444,0,0,1,.232.856l-1.678.569.805-.2a.487.487,0,0,1,.326.912l-5.575,2.663a13.248,13.248,0,0,1-4.946,1.275l-2.516.148h-.011m3.1-7.143-2.818,6.756,2.22-.131A12.872,12.872,0,0,0,121,97.6l5.576-2.663a.116.116,0,0,0,.065-.1.111.111,0,0,0-.04-.1.12.12,0,0,0-.1-.026l-5.018,1.238a.185.185,0,0,1-.1-.355l5.789-1.964a.073.073,0,0,0,.047-.09.076.076,0,0,0-.086-.053L121.22,94.7a.185.185,0,0,1-.1-.357l6.559-2.174a.1.1,0,0,0,.063-.056.107.107,0,0,0,0-.084.1.1,0,0,0-.116-.063L120.648,93.3a.185.185,0,0,1-.086-.36l5.577-1.59a.083.083,0,0,0,.06-.086.084.084,0,0,0-.029-.057.083.083,0,0,0-.062-.019Z"/>
        <path id="Trazado_895416" data-name="Trazado 895416" d="M91.056,115.528l-1.58-.108-4.218-.29a2.48,2.48,0,0,0-1.507-1.979,2.4,2.4,0,0,0-.766-.179,2.466,2.466,0,0,0-2.448,1.527,2.65,2.65,0,0,0-.108.33,2.508,2.508,0,0,0-.068.429,2.461,2.461,0,0,0,4.836.794l5.008.341c.459.057,1.611-.024,1.722,1.05,5.795.358,17.051.318,18.439-.6Zm-8.375,1.851a1.951,1.951,0,0,1-1.817-1.871,1.558,1.558,0,0,1,0-.216,1.915,1.915,0,0,1,.449-1.118,1.949,1.949,0,0,1,1.635-.7.1.1,0,0,1,.03,0,1.964,1.964,0,0,1,1.79,2.084,1.955,1.955,0,0,1-2.087,1.82" fill="#d3cbf7"/>
        <path id="Trazado_895417" data-name="Trazado 895417" d="M90.775,119.687l1.182-1.055L106.4,105.753c-1.656.127-10.573,7-14.932,10.831.568.917-.39,1.56-.718,1.887l-3.578,3.191.612.69Z" fill="#e8e3f9"/>
        <path id="Trazado_895418" data-name="Trazado 895418" d="M93.149,116.786a.375.375,0,1,1,.184-.5.375.375,0,0,1-.184.5" fill="#d3cbf7"/>
        <path id="Trazado_895419" data-name="Trazado 895419" d="M86.805,126.229c1.488-1.226,1.935-3.143,1-4.282s-2.9-1.064-4.392.163-1.935,3.143-1,4.281,2.9,1.066,4.391-.162M82.8,126c-.729-.884-.382-2.375.777-3.33s2.688-1.012,3.418-.126.382,2.377-.777,3.331-2.688,1.013-3.418.125" fill="#e8e3f9"/>
        <path id="Trazado_895420" data-name="Trazado 895420" d="M43.446,22.266S30.259,24.027,35.378,35s8.084,8.673,8.588,8.35,6.975-3.436,7.384-3.968.983-2.089.41-4.751a47.956,47.956,0,0,0-2.007-6.348c-.123-.286-6.307-6.02-6.307-6.02" fill="#743234"/>
        <path id="Trazado_895421" data-name="Trazado 895421" d="M49.485,18.008s.324-5.793-5.519-6.057c1.939-.261,3.791-1.33,7.03,2.092-.154-3.261-.587-4.325,3-6.9-2.208,3.054-1.856,7.567,2.037,8.145.03,1.348-6.543,2.719-6.543,2.719" fill="#46161c"/>
        <path id="Trazado_895422" data-name="Trazado 895422" d="M80.05,28.943c-.057,5.312-6.028,6.329-10.087,6.4h0a27.2,27.2,0,0,1-3.675-.169L62.669,26.6s-.531-5.194-.706-5.626,0-5.714,0-5.714l2.077-.507,3.41.693,1.6.324a13.73,13.73,0,0,1,9.9,7.834,12.805,12.805,0,0,1,1.094,5.336" fill="#572627"/>
        <path id="Trazado_895423" data-name="Trazado 895423" d="M80.05,28.943c-.057,5.312-6.028,6.329-10.087,6.4,6.568-1,8.777-4.36,8.655-6.491-.371-7.926-10.269-10.772-10.269-10.772s-.514-1.479-.9-2.634l1.6.324a13.73,13.73,0,0,1,9.9,7.834,12.805,12.805,0,0,1,1.094,5.336" fill="#743234"/>
        <path id="Trazado_895424" data-name="Trazado 895424" d="M46.581,37.331v8.881S41.127,57.08,30.854,54.388a14.271,14.271,0,0,1-4.6-2.249c-5.927-4.61-1.631-12.417,2.316-16.787,4.708-5.207,12.316-3,12.316-3l1.449,1.266Z" fill="#46161c"/>
        <path id="Trazado_895425" data-name="Trazado 895425" d="M66.792,331.954l1.688,9.975H70.9l1.431-8.471Z" fill="#961423"/>
        <path id="Trazado_895426" data-name="Trazado 895426" d="M38.757,183.67c-.148,25.11-2.311,49.246-2.311,49.246l-1.559,3.818-3.6,80.6-.315,7.029h-6.2c-.337-2.211-.919-5.01-1.667-8.2-4.418-18.825-14.662-51.134-14.662-54.952,0-7.452,6.837-28.3,6.837-28.3S0,187.366,0,151.89c0-8,9.177-15.925,9.177-15.925l25.965,3.126c.193.718.382,1.462.556,2.237a93.452,93.452,0,0,1,1.6,9.529,272.261,272.261,0,0,1,1.463,32.813" fill="#933c5e"/>
      </g>
    </g>
    <g id="Grupo_1124574" data-name="Grupo 1124574">
      <g id="Grupo_1124573" data-name="Grupo 1124573" clip-path="url(#clip-path-5)">
        <rect id="Rectángulo_413437" data-name="Rectángulo 413437" width="52.801" height="92.132" transform="translate(6.978 55.365)" fill="url(#linear-gradient-2)"/>
      </g>
    </g>
    <g id="Grupo_1124576" data-name="Grupo 1124576">
      <g id="Grupo_1124575" data-name="Grupo 1124575" clip-path="url(#clip-path-6)">
        <rect id="Rectángulo_413438" data-name="Rectángulo 413438" width="40.579" height="39.035" transform="translate(22.373 51.343)" fill="url(#linear-gradient-3)"/>
      </g>
    </g>
    <g id="Grupo_1124578" data-name="Grupo 1124578">
      <g id="Grupo_1124577" data-name="Grupo 1124577" clip-path="url(#clip-path)">
        <path id="Trazado_895429" data-name="Trazado 895429" d="M22.985,331.7l2.249,13.588h3.537l.638-6.521Z" fill="#961423"/>
      </g>
    </g>
    <g id="Grupo_1124580" data-name="Grupo 1124580">
      <g id="Grupo_1124579" data-name="Grupo 1124579" clip-path="url(#clip-path-8)">
        <rect id="Rectángulo_413440" data-name="Rectángulo 413440" width="24.688" height="20.929" transform="translate(21.562 324.363)" fill="url(#linear-gradient-4)"/>
      </g>
    </g>
    <g id="Grupo_1124582" data-name="Grupo 1124582">
      <g id="Grupo_1124581" data-name="Grupo 1124581" clip-path="url(#clip-path-9)">
        <rect id="Rectángulo_413441" data-name="Rectángulo 413441" width="24.236" height="17.566" transform="translate(65.479 324.363)" fill="url(#linear-gradient-5)"/>
      </g>
    </g>
    <g id="Grupo_1124584" data-name="Grupo 1124584">
      <g id="Grupo_1124583" data-name="Grupo 1124583" clip-path="url(#clip-path)">
        <path id="Trazado_895432" data-name="Trazado 895432" d="M32.472,69.764a81.819,81.819,0,0,1-1.385,10.3c-.074.4-.152.81-.233,1.219A19.915,19.915,0,0,0,12.43,71.132a10.587,10.587,0,0,0-1.682.266,1.14,1.14,0,0,0-.618.48c-.01-.263-.493-14.467,12.245-19.826.115.1.226.2.338.3,1.793,1.651,10.147,9.766,9.759,17.408" fill="#fad0af"/>
        <path id="Trazado_895433" data-name="Trazado 895433" d="M14.5,76.633,14.328,80.4c-4.225-.547-5.566-3.343-5.566-3.343a22.365,22.365,0,0,1,3.388-.422c.7-.04,1.479-.057,2.316-.03Z" fill="#a76a3f"/>
        <path id="Trazado_895434" data-name="Trazado 895434" d="M64.411,76.73a9.361,9.361,0,0,0-3.046.4q-.294-.648-.655-1.4c-.054-.114-.112-.233-.172-.354-.193-.392-.395-.807-.615-1.243-.057-.111-.115-.226-.172-.341-.115-.233-.237-.466-.358-.709l-.574-1.115c-.3-.587-.625-1.2-.956-1.837-.2-.378-.4-.763-.6-1.155-.436-.827-.888-1.691-1.358-2.583-.121-.233-.246-.469-.371-.706-.03-.061-.064-.118-.1-.179-.979-1.864-2.492-4.792-3.832-7.4a11.347,11.347,0,0,0-4.2-4.511v0S57.937,56.88,63.037,72.8c.405,1.267.938,2.55,1.374,3.931" fill="#fad0af"/>
        <path id="Trazado_895435" data-name="Trazado 895435" d="M64.412,76.73a8.982,8.982,0,0,0-1.852.122c-.048,0-.092.015-.141.023a9.714,9.714,0,0,0-1.055.255c-.178-.4-.382-.83-.6-1.285-.074-.152-.148-.308-.226-.467v0c-.193-.389-.4-.808-.615-1.241-.055-.111-.115-.226-.17-.341-.082-.152-.159-.311-.241-.47h0c.437-.089,1-.193,1.633-.293.589-.089,1.23-.174,1.889-.229q.717,1.855,1.374,3.929" fill="#fff"/>
        <path id="Trazado_895436" data-name="Trazado 895436" d="M63.311,79.55l-.892-2.674a8.989,8.989,0,0,1,1.993-.146,3.122,3.122,0,0,1-1.1,2.82" fill="#a76a3f"/>
      </g>
    </g>
    <g id="Grupo_1124586" data-name="Grupo 1124586">
      <g id="Grupo_1124585" data-name="Grupo 1124585" clip-path="url(#clip-path-11)">
        <rect id="Rectángulo_413443" data-name="Rectángulo 413443" width="15.199" height="21.269" transform="translate(35.147 37.456)" fill="url(#linear-gradient-6)"/>
      </g>
    </g>
    <g id="Grupo_1124588" data-name="Grupo 1124588">
      <g id="Grupo_1124587" data-name="Grupo 1124587" clip-path="url(#clip-path-12)">
        <rect id="Rectángulo_413444" data-name="Rectángulo 413444" width="31.328" height="36.287" transform="translate(41.731 14.111)" fill="url(#linear-gradient-7)"/>
      </g>
    </g>
    <g id="Grupo_1124593" data-name="Grupo 1124593">
      <g id="Grupo_1124592" data-name="Grupo 1124592" clip-path="url(#clip-path)">
        <g id="Grupo_1124591" data-name="Grupo 1124591" opacity="0.15">
          <g id="Grupo_1124590" data-name="Grupo 1124590">
            <g id="Grupo_1124589" data-name="Grupo 1124589" clip-path="url(#clip-path-14)">
              <path id="Trazado_895439" data-name="Trazado 895439" d="M65.571,28.792l-2.715,3.633-.344-1.166-.445-.708-.418-.392-1.363-.226-2.963.185.682-3.222c.5-.089.985-.178,1.474-.252a14.007,14.007,0,0,1,2.422-.189,4.367,4.367,0,0,1,2.163.559,4.488,4.488,0,0,1,1.507,1.778" fill="#db6951"/>
            </g>
          </g>
        </g>
        <path id="Trazado_895440" data-name="Trazado 895440" d="M51.253,25.018a8.009,8.009,0,0,0-5.111,4.922,5.414,5.414,0,0,0-.4,3.374,10.6,10.6,0,0,1-3.559-11.97c1.774-5.444,7.629-8.292,10.014-5.5.037.045.078.093.111.137a9.735,9.735,0,0,1,1.6,2.674,7.306,7.306,0,0,1,.4,1.422,4,4,0,0,1-3.063,4.937" fill="#743234"/>
        <path id="Trazado_895441" data-name="Trazado 895441" d="M45.747,86.108c-.007,0-.014,0-.02,0a27.55,27.55,0,0,1-3.279-.487,6.922,6.922,0,0,1-1.267-.4c-6.413-2.671-8.283-14.163-8.8-17.489a11.115,11.115,0,0,1,.091,2.036,81.819,81.819,0,0,1-1.385,10.3c-.074.4-.151.811-.233,1.219q-.243,1.262-.516,2.563c-2.182.007-4.593.125-5.5.125-.368,0-1.219.1-2.293.243,2.9,24.3-2.833,36.442-2.833,36.442L6.979,135.966q3.161,1.879,6.2,3.367a18.814,18.814,0,0,0,10.1-6.454,16.056,16.056,0,0,1,11.609-5.9l18.543-1.114c-.345-.94-.7-1.955-1.082-3.062H27.914c2.746-11.344.377-24.388,2.94-26.476,3.438-2.8,18.547-1.817,24.649-1.29.4-1.9.77-3.59,1.1-5.015a4.648,4.648,0,0,0,2.229-.79,10.817,10.817,0,0,0,3.231-4.583,55.362,55.362,0,0,1-16.314,1.456" fill="#f28d55"/>
      </g>
    </g>
    <g id="Grupo_1124595" data-name="Grupo 1124595">
      <g id="Grupo_1124594" data-name="Grupo 1124594" clip-path="url(#clip-path-15)">
        <rect id="Rectángulo_413447" data-name="Rectángulo 413447" width="7.899" height="9.271" transform="translate(40.213 28.854)" fill="url(#linear-gradient-8)"/>
      </g>
    </g>
    <g id="Grupo_1124600" data-name="Grupo 1124600">
      <g id="Grupo_1124599" data-name="Grupo 1124599" clip-path="url(#clip-path)">
        <path id="Trazado_895443" data-name="Trazado 895443" d="M26.306,51.876c-.018.091-.031.179-.052.263-5.926-4.609-1.631-12.417,2.317-16.786,3.921-4.34,9.857-3.526,11.728-3.138a5.583,5.583,0,0,0,.284,2.445,5.734,5.734,0,0,0,.618,1.27c-2.546.355-18.985,3.151-14.9,15.946" fill="#743234"/>
        <path id="Trazado_895444" data-name="Trazado 895444" d="M71.971,31.954a10.054,10.054,0,0,0,1.544-4.536,8.614,8.614,0,0,0-1.637-5.151,8.555,8.555,0,0,1-.289,4.248,6.312,6.312,0,0,1-3.6,3.773l0,0A.04.04,0,0,0,68,30.266a.292.292,0,0,0,.038-.052.219.219,0,0,1,.025-.04,1.2,1.2,0,0,0,.067-.111.452.452,0,0,0,.041-.071c.422-.781,1.407-3.181.748-7.725-.707-4.867-10.451.129-14.607-2.186a3.226,3.226,0,0,1-1.278-1.266,3.587,3.587,0,0,1-.285-.633,8.038,8.038,0,0,1-.44-2.2c-.389-7.159,9.981-11.6,19.243-5.018,10.177,7.233,2.841,20.1.415,20.987" fill="#743234"/>
        <g id="Grupo_1124598" data-name="Grupo 1124598" opacity="0.5">
          <g id="Grupo_1124597" data-name="Grupo 1124597">
            <g id="Grupo_1124596" data-name="Grupo 1124596" clip-path="url(#clip-path-17)">
              <path id="Trazado_895445" data-name="Trazado 895445" d="M48.013,47.276c-.135.611-.274,1.195-.4,1.739h0a11.933,11.933,0,0,1-5.082-6.73c-2.793,8.054-7.375,9.057-7.375,9.057s5.518-3.4,7.449-13.886l.233.057a3.987,3.987,0,0,0,.557.274c-.675,3.481,1.436,7.233,4.627,9.489" fill="#db6951"/>
            </g>
          </g>
        </g>
      </g>
    </g>
    <g id="Grupo_1124602" data-name="Grupo 1124602">
      <g id="Grupo_1124601" data-name="Grupo 1124601" clip-path="url(#clip-path-18)">
        <rect id="Rectángulo_413450" data-name="Rectángulo 413450" width="18.059" height="42.584" transform="translate(11.903 76.6)" fill="url(#linear-gradient-9)"/>
      </g>
    </g>
    <g id="Grupo_1124604" data-name="Grupo 1124604">
      <g id="Grupo_1124603" data-name="Grupo 1124603" clip-path="url(#clip-path-19)">
        <rect id="Rectángulo_413451" data-name="Rectángulo 413451" width="74.971" height="18.89" transform="translate(11.981 108.753)" fill="url(#linear-gradient-10)"/>
      </g>
    </g>
    <g id="Grupo_1124606" data-name="Grupo 1124606">
      <g id="Grupo_1124605" data-name="Grupo 1124605" clip-path="url(#clip-path-20)">
        <rect id="Rectángulo_413452" data-name="Rectángulo 413452" width="11.418" height="4.209" transform="translate(72.955 113.475)" fill="url(#linear-gradient-11)"/>
      </g>
    </g>
    <g id="Grupo_1124608" data-name="Grupo 1124608">
      <g id="Grupo_1124607" data-name="Grupo 1124607" clip-path="url(#clip-path-21)">
        <rect id="Rectángulo_413453" data-name="Rectángulo 413453" width="0.785" height="0.631" transform="translate(83.751 113.033)" fill="url(#linear-gradient-12)"/>
      </g>
    </g>
    <g id="Grupo_1124619" data-name="Grupo 1124619">
      <g id="Grupo_1124618" data-name="Grupo 1124618" clip-path="url(#clip-path)">
        <g id="Grupo_1124611" data-name="Grupo 1124611" opacity="0.5">
          <g id="Grupo_1124610" data-name="Grupo 1124610">
            <g id="Grupo_1124609" data-name="Grupo 1124609" clip-path="url(#clip-path-23)">
              <path id="Trazado_895450" data-name="Trazado 895450" d="M46.482,32.646c-.016-.037-.036-.068-.053-.1a.214.214,0,0,0-.021-.043,4.13,4.13,0,0,0-3.779-2.3.185.185,0,0,0,.024.37A3.787,3.787,0,0,1,45.679,32a2.691,2.691,0,0,0-2.581.615.185.185,0,0,0,.127.32.187.187,0,0,0,.127-.05c.06-.056,1.478-1.35,2.748-.176.014.029.03.055.043.085a3.664,3.664,0,0,1-.6,4.034.185.185,0,0,0,.262.262,4.1,4.1,0,0,0,.673-4.445" fill="#db6951"/>
            </g>
          </g>
        </g>
        <g id="Grupo_1124614" data-name="Grupo 1124614" opacity="0.5">
          <g id="Grupo_1124613" data-name="Grupo 1124613">
            <g id="Grupo_1124612" data-name="Grupo 1124612" clip-path="url(#clip-path-24)">
              <path id="Trazado_895451" data-name="Trazado 895451" d="M61.477,40.26a1.951,1.951,0,0,1,1.328-.039,1.189,1.189,0,0,1,.566.418,1.032,1.032,0,0,1,.186.652,1.425,1.425,0,0,0-.847-.809,5.861,5.861,0,0,0-1.233-.222" fill="#db6951"/>
            </g>
          </g>
        </g>
        <g id="Grupo_1124617" data-name="Grupo 1124617" opacity="0.5">
          <g id="Grupo_1124616" data-name="Grupo 1124616">
            <g id="Grupo_1124615" data-name="Grupo 1124615" clip-path="url(#clip-path-25)">
              <path id="Trazado_895452" data-name="Trazado 895452" d="M54.039,43.455a2.618,2.618,0,0,0,.878.8,3.361,3.361,0,0,0,1.108.382,6.03,6.03,0,0,0,1.19.079l.606-.039c.2-.02.4-.049.612-.061-.193.073-.391.129-.589.195-.2.048-.406.084-.612.121a4.268,4.268,0,0,1-1.256-.022,2.87,2.87,0,0,1-1.176-.474,2.012,2.012,0,0,1-.761-.984" fill="#db6951"/>
            </g>
          </g>
        </g>
        <path id="Trazado_895453" data-name="Trazado 895453" d="M159.31,324.708h0a2.567,2.567,0,0,0-2.567-2.567h-9.959a2.567,2.567,0,0,0-2.567,2.567,2.568,2.568,0,0,1-.295,1.2l-12.283,15.045h3.024l14.992-14.47a2.525,2.525,0,0,1,4.217,0l14.992,14.47h3.024L159.6,325.9a2.568,2.568,0,0,1-.295-1.2" fill="#362742"/>
      </g>
    </g>
    <g id="Grupo_1124621" data-name="Grupo 1124621">
      <g id="Grupo_1124620" data-name="Grupo 1124620" clip-path="url(#clip-path-26)">
        <rect id="Rectángulo_413458" data-name="Rectángulo 413458" width="78.002" height="156.666" transform="translate(112.763 18.009)" fill="url(#linear-gradient-13)"/>
      </g>
    </g>
    <g id="Grupo_1124623" data-name="Grupo 1124623">
      <g id="Grupo_1124622" data-name="Grupo 1124622" clip-path="url(#clip-path)">
        <path id="Trazado_895455" data-name="Trazado 895455" d="M165.022,178.625H138.506a3.951,3.951,0,0,1-3.951-3.951h34.418a3.951,3.951,0,0,1-3.951,3.951" fill="#362742"/>
        <path id="Trazado_895456" data-name="Trazado 895456" d="M158.226,181.773H145.3a3.147,3.147,0,0,1-3.147-3.147h19.218a3.147,3.147,0,0,1-3.147,3.147" fill="#362742"/>
      </g>
    </g>
    <g id="Grupo_1124625" data-name="Grupo 1124625">
      <g id="Grupo_1124624" data-name="Grupo 1124624" clip-path="url(#clip-path-28)">
        <rect id="Rectángulo_413460" data-name="Rectángulo 413460" width="5.531" height="139.353" transform="translate(148.999 181.773)" fill="url(#linear-gradient-14)"/>
      </g>
    </g>
    <g id="Grupo_1124633" data-name="Grupo 1124633">
      <g id="Grupo_1124632" data-name="Grupo 1124632" clip-path="url(#clip-path)">
        <path id="Trazado_895457" data-name="Trazado 895457" d="M153.795,327.31h-4.062a3.486,3.486,0,0,1,0-6.971h4.062a3.486,3.486,0,0,1,0,6.971" fill="#362742"/>
        <path id="Trazado_895458" data-name="Trazado 895458" d="M135.05,340.948h-3.239a.783.783,0,0,1,0-1.565h3.239a.783.783,0,1,1,0,1.565" fill="#362742"/>
        <path id="Trazado_895459" data-name="Trazado 895459" d="M171.717,340.948h-3.239a.783.783,0,0,1,0-1.565h3.239a.783.783,0,1,1,0,1.565" fill="#362742"/>
        <g id="Grupo_1124628" data-name="Grupo 1124628" opacity="0.5">
          <g id="Grupo_1124627" data-name="Grupo 1124627">
            <g id="Grupo_1124626" data-name="Grupo 1124626" clip-path="url(#clip-path-30)">
              <path id="Trazado_895460" data-name="Trazado 895460" d="M151.828,119.942v.022q0,1.517-.041,3.05c-.005.259-.013.517-.022.776-.352-1.781-.769-3.668-1.239-5.635l0-.011c0-.013-.005-.026-.009-.039a235.026,235.026,0,0,0-15.147-43.252c-.849-1.753-1.7-3.418-2.552-4.975a43.585,43.585,0,0,0-6.983-10l4.67-2.919-6.779-4.442a8.839,8.839,0,0,1,1.45-2.311,9.217,9.217,0,0,1,5.614-3.183s.719,1.112,1.889,3.183c.739,1.307,1.657,2.994,2.691,5.024,1.218,2.394,2.6,5.266,4.023,8.547,5.813,13.376,12.437,33.571,12.437,56.17" fill="#326160"/>
            </g>
          </g>
        </g>
        <g id="Grupo_1124631" data-name="Grupo 1124631" opacity="0.5">
          <g id="Grupo_1124630" data-name="Grupo 1124630">
            <g id="Grupo_1124629" data-name="Grupo 1124629" clip-path="url(#clip-path-31)">
              <path id="Trazado_895461" data-name="Trazado 895461" d="M173.154,56.955l4.668,2.918c-9.631,9.339-21.888,43.487-25.93,63.918q-.064-1.923-.065-3.826v-.022c0-22.647,6.654-42.881,12.476-56.257a128.2,128.2,0,0,1,8.564-16.668,9.425,9.425,0,0,1,7.066,5.495Z" fill="#326160"/>
            </g>
          </g>
        </g>
      </g>
    </g>
    <g id="Grupo_1124635" data-name="Grupo 1124635">
      <g id="Grupo_1124634" data-name="Grupo 1124634" clip-path="url(#clip-path-32)">
        <rect id="Rectángulo_413465" data-name="Rectángulo 413465" width="40.227" height="147.032" transform="translate(111.665 52.512)" fill="url(#linear-gradient-15)"/>
      </g>
    </g>
    <g id="Grupo_1124637" data-name="Grupo 1124637">
      <g id="Grupo_1124636" data-name="Grupo 1124636" clip-path="url(#clip-path-33)">
        <rect id="Rectángulo_413466" data-name="Rectángulo 413466" width="42.029" height="147.032" transform="translate(151.763 52.512)" fill="url(#linear-gradient-16)"/>
      </g>
    </g>
    <g id="Grupo_1124657" data-name="Grupo 1124657">
      <g id="Grupo_1124656" data-name="Grupo 1124656" clip-path="url(#clip-path)">
        <g id="Grupo_1124640" data-name="Grupo 1124640" opacity="0.5">
          <g id="Grupo_1124639" data-name="Grupo 1124639">
            <g id="Grupo_1124638" data-name="Grupo 1124638" clip-path="url(#clip-path-35)">
              <path id="Trazado_895464" data-name="Trazado 895464" d="M147.622,186.7c-.672,3.042-1.455,5.278-2.374,6.359-5.505,6.489-28.508,2.359-33.422-9.042q-.169-4.311-.152-8.341c4.844,5.161,17.347,15.618,35.948,11.024" fill="#fff"/>
            </g>
          </g>
        </g>
        <g id="Grupo_1124643" data-name="Grupo 1124643" opacity="0.5">
          <g id="Grupo_1124642" data-name="Grupo 1124642">
            <g id="Grupo_1124641" data-name="Grupo 1124641" clip-path="url(#clip-path-36)">
              <path id="Trazado_895465" data-name="Trazado 895465" d="M156.035,186.7c.672,3.042,1.455,5.278,2.374,6.359,5.505,6.489,28.508,2.359,33.423-9.042q.17-4.311.151-8.341c-4.844,5.161-17.347,15.618-35.948,11.024" fill="#fff"/>
            </g>
          </g>
        </g>
        <g id="Grupo_1124646" data-name="Grupo 1124646" opacity="0.5">
          <g id="Grupo_1124645" data-name="Grupo 1124645">
            <g id="Grupo_1124644" data-name="Grupo 1124644" clip-path="url(#clip-path-37)">
              <path id="Trazado_895466" data-name="Trazado 895466" d="M156.035,125.018a1.506,1.506,0,1,1-1.506-1.506,1.506,1.506,0,0,1,1.506,1.506" fill="#326160"/>
            </g>
          </g>
        </g>
        <g id="Grupo_1124649" data-name="Grupo 1124649" opacity="0.5">
          <g id="Grupo_1124648" data-name="Grupo 1124648">
            <g id="Grupo_1124647" data-name="Grupo 1124647" clip-path="url(#clip-path-38)">
              <path id="Trazado_895467" data-name="Trazado 895467" d="M156.477,137.551a1.506,1.506,0,1,1-1.506-1.506,1.506,1.506,0,0,1,1.506,1.506" fill="#326160"/>
            </g>
          </g>
        </g>
        <g id="Grupo_1124652" data-name="Grupo 1124652" opacity="0.5">
          <g id="Grupo_1124651" data-name="Grupo 1124651">
            <g id="Grupo_1124650" data-name="Grupo 1124650" clip-path="url(#clip-path-39)">
              <path id="Trazado_895468" data-name="Trazado 895468" d="M156.92,150.085a1.506,1.506,0,1,1-1.506-1.506,1.506,1.506,0,0,1,1.506,1.506" fill="#326160"/>
            </g>
          </g>
        </g>
        <path id="Trazado_895469" data-name="Trazado 895469" d="M188.228,159.6c0,.533-2.752.982-6.433,1.093-.578.014-1.178.026-1.8.026-4.544,0-8.23-.5-8.23-1.119-2.581-32.243-1.292-60.182-1.292-75.719,0-11.8,6.874-23.062,10.155-27.758,1.019-1.466,1.689-2.292,1.689-2.292,14.073,15.918,5.907,105.769,5.907,105.769" fill="#8dbac4"/>
        <g id="Grupo_1124655" data-name="Grupo 1124655" opacity="0.25">
          <g id="Grupo_1124654" data-name="Grupo 1124654">
            <g id="Grupo_1124653" data-name="Grupo 1124653" clip-path="url(#clip-path-40)">
              <path id="Trazado_895470" data-name="Trazado 895470" d="M188.228,159.6c0,.533-2.752.982-6.433,1.093,6.474-31.5.237-92.063-1.163-104.57,1.019-1.466,1.689-2.292,1.689-2.292,14.073,15.918,5.907,105.769,5.907,105.769" fill="#326160"/>
            </g>
          </g>
        </g>
        <path id="Trazado_895471" data-name="Trazado 895471" d="M133.4,115.451c0,12.962-.322,28.017-1.615,44.153,0,.619-3.685,1.119-8.229,1.119-.289,0-.575,0-.855-.007-1.234-.015-2.389-.071-3.4-.156-.571-.044-1.093-.1-1.563-.163-1.489-.2-2.411-.481-2.411-.793,0,0-8.166-89.851,5.9-105.769A64.19,64.19,0,0,1,130.6,70.823a.015.015,0,0,1,0,.012,39.157,39.157,0,0,1,2.467,13.051c0,7.762.322,18.621.322,31.565" fill="#8dbac4"/>
        <path id="Trazado_895472" data-name="Trazado 895472" d="M164.3,63.686c-5.822,13.375-12.474,33.609-12.475,56.257,0-22.6-6.624-42.795-12.437-56.17a41.621,41.621,0,0,0,24.912-.087" fill="#e8f1f3"/>
        <path id="Trazado_895473" data-name="Trazado 895473" d="M30.854,81.283l-.007.027c-.03.159-.061.321-.094.483-.024.108-.048.23-.071.361-.007.044-.017.088-.027.135-.031.139-.061.291-.091.45-.088.422-.186.9-.287,1.4s-.206.983-.314,1.479C26.366,78.392,19.45,76.754,14.5,76.6h-.034c-.837-.027-1.617-.011-2.316.03a22.363,22.363,0,0,0-3.387.422s.361-3.786,1.367-5.173v0a1.137,1.137,0,0,1,.618-.479,10.477,10.477,0,0,1,1.682-.267,17.1,17.1,0,0,1,2.351-.024A20.117,20.117,0,0,1,30.854,81.283" fill="#fff"/>
        <path id="Trazado_895474" data-name="Trazado 895474" d="M280.7,225.388h0c12.925-23.1,19.044-67.467,19.044-67.467l-33.64-30.1s-8.476,60.75-8.091,97.563l.8,3.082L248.795,332.5s9.161,3.926,11.717,0c6.778-37.086,25.273-68.83,25.273-80.3S280.7,225.388,280.7,225.388Z" fill="#2e2368"/>
        <path id="Trazado_895475" data-name="Trazado 895475" d="M193.814,36.884l0,0a20.686,20.686,0,0,0-1.492-3.192c-.015-.026-.03-.048-.045-.071a14,14,0,0,0-1.263-1.774,14.317,14.317,0,0,0-1.174-1.251,13.4,13.4,0,0,0-1.529-1.26c-.048-.033-.093-.066-.141-.1l-3.074-1.507-1.833,1.615-1.7,2.07-1.373,3.767,2.292.566a19.921,19.921,0,0,0,7.014,6.885l4.7-4.752s-.144-.411-.374-.992" fill="#f2886b"/>
        <path id="Trazado_895476" data-name="Trazado 895476" d="M273.611,42.316,271.1,43.794a9.442,9.442,0,0,0,1.258,1.238c.23.074,1.185-.11,1.258,0s.771-.917.808-1.027a14.54,14.54,0,0,0-.808-1.689" fill="#d3cbf7"/>
        <path id="Trazado_895477" data-name="Trazado 895477" d="M262.988,78.267c-13.44,7.8-33.287,11.577-33.287,11.577s-.345.052-.908.1c-1.933.171-6.448.319-8.514-1.707C194.739,63.134,192.7,47.35,192.7,47.35a18.716,18.716,0,0,1,7.014-4l.282-.085a264.889,264.889,0,0,1,30.173,27.773,73.41,73.41,0,0,0,9.8-3.863c8.114-3.77,16.777-11.985,20.3-14.674a6.652,6.652,0,0,1,1.248-.822c3.355-1.389,11.729-2.8,11.729-2.8s-10.862,22.362-10.255,29.384" fill="#d3cbf7"/>
      </g>
    </g>
    <g id="Grupo_1124659" data-name="Grupo 1124659">
      <g id="Grupo_1124658" data-name="Grupo 1124658" clip-path="url(#clip-path-41)">
        <rect id="Rectángulo_413474" data-name="Rectángulo 413474" width="17.47" height="21.636" transform="translate(270.291 24.618)" fill="url(#linear-gradient-17)"/>
      </g>
    </g>
    <g id="Grupo_1124661" data-name="Grupo 1124661">
      <g id="Grupo_1124660" data-name="Grupo 1124660" clip-path="url(#clip-path)">
        <path id="Trazado_895479" data-name="Trazado 895479" d="M298.593,332.5a23.359,23.359,0,0,1-15.336,7.046,2.707,2.707,0,0,0-1.781,4.495c.022.025.035.038.035.038h29.443a11.587,11.587,0,0,0-1.056-8.421l-1.725-3.158Z" fill="#271f37"/>
        <path id="Trazado_895480" data-name="Trazado 895480" d="M249.1,332.5a23.358,23.358,0,0,1-15.335,7.046,2.708,2.708,0,0,0-1.782,4.495c.022.025.035.038.035.038h29.443a11.587,11.587,0,0,0-1.056-8.421l-1.725-3.158Z" fill="#271f37"/>
        <path id="Trazado_895481" data-name="Trazado 895481" d="M308.041,124.5c-19.984,10.773-41.935,3.326-41.935,3.326-.185-.571-.337-1.126-.456-1.67a17.332,17.332,0,0,1-.4-3.312c-.156-5.525,2.107-10.281.589-17.55s-3.089-10.007-4.222-20.3c-.186-1.674-.36-3.548-.519-5.67-.118-1.556-.23-3.248-.33-5.1-.037-.663-.074-1.345-.107-2.048a27.5,27.5,0,0,1,10.048-22.825h0c.275-.237.534-.441.778-.63.185-.144.363-.277.526-.4.226-.163.43-.307.607-.429.526-.36.838-.537.838-.537l.337-.063,13.966-2.582a75.448,75.448,0,0,1,5.925,6.867c2.682,3.526,5.355,7.811,5.844,11.362a70.971,70.971,0,0,1,.071,19.288c-.1.73-.182,1.574-.249,2.511-.366,5.3-.2,13.455.012,19.344a24.278,24.278,0,0,0,.426,3.751,23.4,23.4,0,0,0,4.081,9.4v0a22.2,22.2,0,0,0,2.163,2.533c1.174,1.182,1.607,1.2,2.329,2.933.089.778,0,1.634-.322,1.8" fill="#e8e3f9"/>
        <path id="Trazado_895482" data-name="Trazado 895482" d="M270.506,117.4c-2,3.93-9.537,8.329-9.537,8.329l-4.559-2.322-4.114-.8c-.015,0-.03-.007-.041-.011l-37.832-7.363-1.951-3.114-8.882-2.93a9.375,9.375,0,0,1-.47-2.277c0-.034,0-.063-.007-.1a10.189,10.189,0,0,1,.566-4.022,9.951,9.951,0,0,1,1.163-2.37l.045,0,9.618.566c7.759-1.744,43.49.171,43.49.171l1.9-8.489L262.08,82.9s4.026-13.259,5.893-15.985c2.648-7.059,5.7-11.377,8.559-14.006a15.485,15.485,0,0,1,5.688-3.471.027.027,0,0,1,.015,0,9.03,9.03,0,0,1,4.229-.478l0,0a31.6,31.6,0,0,1,5.781,7.844,21.329,21.329,0,0,1,2.441,8.259c.6,30.969-22.184,48.409-24.184,52.338" fill="#e8e3f9"/>
        <path id="Trazado_895483" data-name="Trazado 895483" d="M212.592,111.371a10.971,10.971,0,0,1-.831-2.612A9.729,9.729,0,0,1,211.61,106a7.826,7.826,0,0,1,.264-1.369,5.962,5.962,0,0,1,.562-1.28,5.036,5.036,0,0,1,1.976-1.9,6.155,6.155,0,0,0-1.727,2.035,7.047,7.047,0,0,0-.707,2.546,12.19,12.19,0,0,0,.063,2.678c.054.447.132.892.228,1.334s.2.884.323,1.323" fill="#d3cbf7"/>
        <path id="Trazado_895484" data-name="Trazado 895484" d="M310.182,128.532s-.215.089-.633.244c-3.4,1.271-20.259,6.874-43.28,3.015-.289-.048-.578-.1-.866-.148l-.152-4s.292.071.855.185a85.5,85.5,0,0,0,41-3.018l.933-.311,1.019,1.918Z" fill="#271f37"/>
        <path id="Trazado_895485" data-name="Trazado 895485" d="M199.99,43.263c-2.511,3.475-7.3,4.086-7.3,4.086l-.007-.008a.1.1,0,0,0-.015-.022c-.015-.025-.048-.074-.108-.163-.248-.362-.963-1.414-3.033-4.462-.015-.022-.029-.046-.044-.068a5.5,5.5,0,0,1,4.548-5.5Z" fill="#d3cbf7"/>
        <path id="Trazado_895486" data-name="Trazado 895486" d="M287.761,44.706l0,0c-.222.122-7.585,4.17-14.866,3.907l-.27-.73-.2-.54L271.1,43.795a40.414,40.414,0,0,0,12.544-2.8,17.626,17.626,0,0,0,2.711-1.47c.144-.093.281-.189.418-.285a22.236,22.236,0,0,1,.993,5.47" fill="#f1eefb"/>
        <path id="Trazado_895487" data-name="Trazado 895487" d="M272.622,47.887c-.311.215-.7.489-1.133.829l-.393-4.921Z" fill="#d3cbf7"/>
        <path id="Trazado_895488" data-name="Trazado 895488" d="M310.423,306.994c-.022.174-.048.352-.082.537-.222,1.467-.436,2.952-.633,4.463-.607,4.614-1.081,9.436-1.34,14.533q-.15,2.92-.2,5.973a7.706,7.706,0,0,1-1.6.756c-4.519,1.555-10.111-.756-10.111-.756q.006-3.656-.056-7.251c-.148-9.389-.6-18.436-1.233-26.947v-.011c-1.07-14.363-2.666-27.192-4.215-37.513h0c-2.445-16.3-4.781-26.358-4.781-26.358L283.7,230.7l.433-9.651c-5.4-18.777-9.185-34.673-11.833-47.731-4.355-21.458-5.644-35.243-6.026-41.528,23.022,3.859,39.876-1.744,43.28-3.015a27.856,27.856,0,0,1,3.529,10.407c-1.455,21.94-6.4,81.211-6.451,81.863v0h0l0,0c.192.322,10.455,17.265,11.081,24.2,1.974,21.921-3.874,39.672-7.285,61.738" fill="#392b69"/>
        <path id="Trazado_895489" data-name="Trazado 895489" d="M284.2,6.313s.522-4.962,7.688-4.89c-1.02.442-4.327,1.258-4.57,3.979a5.055,5.055,0,0,1,4.708-.265s-4.9,1.5-4.122,3.579c-1.6.516-3.7-2.4-3.7-2.4" fill="#572627"/>
      </g>
    </g>
    <g id="Grupo_1124663" data-name="Grupo 1124663">
      <g id="Grupo_1124662" data-name="Grupo 1124662" clip-path="url(#clip-path-43)">
        <rect id="Rectángulo_413476" data-name="Rectángulo 413476" width="30.003" height="39.405" transform="translate(257.973 3.931)" fill="url(#linear-gradient-18)"/>
      </g>
    </g>
    <g id="Grupo_1124665" data-name="Grupo 1124665">
      <g id="Grupo_1124664" data-name="Grupo 1124664" clip-path="url(#clip-path)">
        <path id="Trazado_895491" data-name="Trazado 895491" d="M287.52,21.285a31.552,31.552,0,0,1-4.078,5.9l-3.377-.641-1.045-.2a4.326,4.326,0,0,1-2.622-5.767c.741-1.807,1.122-3.9.1-5.551-2.3-3.73-3.87,1.426-12.736,1.426a17.657,17.657,0,0,1-5.681-.8c-4.363-1.489-5.556-4.915-3.845-9.07.793-1.919,1.308-3.178,1.652-4l.033-.089c.36-.87.512-1.237.571-1.389.011-.029.022-.051.029-.066a.053.053,0,0,1,.012-.022l0,.011c-.108.418-1.237,4.881.229,6.655,2.082-3.07,10.419-12.5,25.988-4.6,9.522,4.826,7.659,12.767,4.774,18.207" fill="#743234"/>
      </g>
    </g>
    <g id="Grupo_1124667" data-name="Grupo 1124667">
      <g id="Grupo_1124666" data-name="Grupo 1124666" clip-path="url(#clip-path-45)">
        <rect id="Rectángulo_413478" data-name="Rectángulo 413478" width="8.218" height="11.045" transform="translate(276.35 21.131)" fill="url(#linear-gradient-19)"/>
      </g>
    </g>
    <g id="Grupo_1124672" data-name="Grupo 1124672">
      <g id="Grupo_1124671" data-name="Grupo 1124671" clip-path="url(#clip-path)">
        <g id="Grupo_1124670" data-name="Grupo 1124670" opacity="0.5">
          <g id="Grupo_1124669" data-name="Grupo 1124669">
            <g id="Grupo_1124668" data-name="Grupo 1124668" clip-path="url(#clip-path-47)">
              <path id="Trazado_895493" data-name="Trazado 895493" d="M282.832,25.091A4.511,4.511,0,0,0,278.09,26.5a5.182,5.182,0,0,1,2.19-3.853.186.186,0,0,0,.055-.256.184.184,0,0,0-.256-.055,5.667,5.667,0,0,0-2.354,4.7.191.191,0,0,0,.005.086,7.629,7.629,0,0,0,1.157,3.5.183.183,0,0,0,.159.091.185.185,0,0,0,.16-.279,7.389,7.389,0,0,1-1.117-3.312,4.114,4.114,0,0,1,4.658-1.668.185.185,0,0,0,.085-.36" fill="#db6951"/>
            </g>
          </g>
        </g>
      </g>
    </g>
    <g id="Grupo_1124674" data-name="Grupo 1124674">
      <g id="Grupo_1124673" data-name="Grupo 1124673" clip-path="url(#clip-path-48)">
        <rect id="Rectángulo_413481" data-name="Rectángulo 413481" width="36.692" height="141.422" transform="translate(173.488 29.098)" fill="url(#linear-gradient-20)"/>
      </g>
    </g>
    <g id="Grupo_1124676" data-name="Grupo 1124676">
      <g id="Grupo_1124675" data-name="Grupo 1124675" clip-path="url(#clip-path-49)">
        <rect id="Rectángulo_413482" data-name="Rectángulo 413482" width="7.209" height="8.442" transform="translate(186.71 28.711)" fill="url(#linear-gradient-21)"/>
      </g>
    </g>
    <g id="Grupo_1124678" data-name="Grupo 1124678">
      <g id="Grupo_1124677" data-name="Grupo 1124677" clip-path="url(#clip-path-50)">
        <rect id="Rectángulo_413483" data-name="Rectángulo 413483" width="3.22" height="3.377" transform="translate(183.379 27.594)" fill="url(#linear-gradient-22)"/>
      </g>
    </g>
    <g id="Grupo_1124680" data-name="Grupo 1124680">
      <g id="Grupo_1124679" data-name="Grupo 1124679" clip-path="url(#clip-path-51)">
        <rect id="Rectángulo_413484" data-name="Rectángulo 413484" width="4.072" height="3.56" transform="translate(181.282 29.098)" fill="url(#linear-gradient-23)"/>
      </g>
    </g>
    <g id="Grupo_1124682" data-name="Grupo 1124682">
      <g id="Grupo_1124681" data-name="Grupo 1124681" clip-path="url(#clip-path-52)">
        <rect id="Rectángulo_413485" data-name="Rectángulo 413485" width="3.727" height="2.724" transform="translate(180.07 31.288)" fill="url(#linear-gradient-24)"/>
      </g>
    </g>
    <g id="Grupo_1124684" data-name="Grupo 1124684">
      <g id="Grupo_1124683" data-name="Grupo 1124683" clip-path="url(#clip-path-53)">
        <rect id="Rectángulo_413486" data-name="Rectángulo 413486" width="3.786" height="2.211" transform="translate(180.05 34.167)" fill="url(#linear-gradient-25)"/>
      </g>
    </g>
    <g id="Grupo_1124686" data-name="Grupo 1124686">
      <g id="Grupo_1124685" data-name="Grupo 1124685" clip-path="url(#clip-path)">
        <path id="Trazado_895500" data-name="Trazado 895500" d="M192.854,97.2l-9.889,2.424a.749.749,0,0,0,.257,1.473l5.6-.588-6.165,1.121a.726.726,0,0,0,.159,1.44l5.917-.241-5.365.54a.8.8,0,0,0,.081,1.6h.109l.016.18a.943.943,0,0,0,.8.852l9.251,1.547Z" fill="#f2886b"/>
      </g>
    </g>
    <g id="Grupo_1124688" data-name="Grupo 1124688">
      <g id="Grupo_1124687" data-name="Grupo 1124687" clip-path="url(#clip-path-55)">
        <rect id="Rectángulo_413488" data-name="Rectángulo 413488" width="16.288" height="10.513" transform="translate(188.555 97.156)" fill="url(#linear-gradient-26)"/>
      </g>
    </g>
    <g id="Grupo_1124705" data-name="Grupo 1124705">
      <g id="Grupo_1124704" data-name="Grupo 1124704" clip-path="url(#clip-path)">
        <g id="Grupo_1124691" data-name="Grupo 1124691" opacity="0.15">
          <g id="Grupo_1124690" data-name="Grupo 1124690">
            <g id="Grupo_1124689" data-name="Grupo 1124689" clip-path="url(#clip-path-57)">
              <path id="Trazado_895502" data-name="Trazado 895502" d="M61.56,36.462c0,1.9-2.067,3.443-4.617,3.443s-4.618-1.541-4.618-3.443,2.067-3.443,4.618-3.443,4.617,1.542,4.617,3.443" fill="#db6951"/>
            </g>
          </g>
        </g>
        <g id="Grupo_1124694" data-name="Grupo 1124694" opacity="0.15">
          <g id="Grupo_1124693" data-name="Grupo 1124693">
            <g id="Grupo_1124692" data-name="Grupo 1124692" clip-path="url(#clip-path-58)">
              <path id="Trazado_895503" data-name="Trazado 895503" d="M69.123,39.391A10.545,10.545,0,0,1,65.9,45.854a5.844,5.844,0,0,1-.9-1c-1.489-2.07-1.448-4.648.1-5.762a3.513,3.513,0,0,1,4.026.3" fill="#db6951"/>
            </g>
          </g>
        </g>
        <g id="Grupo_1124697" data-name="Grupo 1124697" opacity="0.5">
          <g id="Grupo_1124696" data-name="Grupo 1124696">
            <g id="Grupo_1124695" data-name="Grupo 1124695" clip-path="url(#clip-path-59)">
              <path id="Trazado_895504" data-name="Trazado 895504" d="M68.175,29.992a.4.4,0,0,1-.041.07l-.066.111a.233.233,0,0,0-.026.041.616.616,0,0,1-.037.052c0,.007,0,.011-.008.019,1.678-4.434-.318-9.782-2.246-9.1-3.476,1.236-6.755,1.911-9.9.7.559,1.648-.65,4.229-2.184,4.647s-5.434,1.434-6.045,3c1.981,4.615-.034,6.559-.145,6.663a5.174,5.174,0,0,0,.152-3.959,5.492,5.492,0,0,0-1.481-2.293,8.007,8.007,0,0,1,5.111-4.922,4,4,0,0,0,3.062-4.937c4.156,2.315,13.9-2.681,14.607,2.186.659,4.544-.326,6.944-.748,7.725" fill="#db6951"/>
            </g>
          </g>
        </g>
        <g id="Grupo_1124700" data-name="Grupo 1124700" opacity="0.5">
          <g id="Grupo_1124699" data-name="Grupo 1124699">
            <g id="Grupo_1124698" data-name="Grupo 1124698" clip-path="url(#clip-path-60)">
              <path id="Trazado_895505" data-name="Trazado 895505" d="M71.385,31.432l0,0a13.424,13.424,0,0,0,.208-4.922,8.553,8.553,0,0,0,.289-4.245c.092.234.174.471.248.708.933,3.015.229,5.755-.741,8.455" fill="#db6951"/>
            </g>
          </g>
        </g>
        <g id="Grupo_1124703" data-name="Grupo 1124703" opacity="0.5">
          <g id="Grupo_1124702" data-name="Grupo 1124702">
            <g id="Grupo_1124701" data-name="Grupo 1124701" clip-path="url(#clip-path-61)">
              <path id="Trazado_895506" data-name="Trazado 895506" d="M6.237,146.609c7.926,33.147,12.051,73,12.262,85.84s3.834,68.212,7.7,91.915H24.781C22.455,309.1,8.452,265.681,8.452,261.215c0-7.452,6.836-28.3,6.836-28.3S0,187.366,0,151.89c0-6.5,6.059-12.951,8.329-15.14q2.461,1.418,4.852,2.585a68.081,68.081,0,0,0,23.484,7.026c.233,1.441.441,2.944.63,4.5-5.359.192-23.921.5-31.058-4.248" fill="#822b4f"/>
            </g>
          </g>
        </g>
      </g>
    </g>
    <g id="Grupo_1124707" data-name="Grupo 1124707">
      <g id="Grupo_1124706" data-name="Grupo 1124706" clip-path="url(#clip-path-62)">
        <rect id="Rectángulo_413495" data-name="Rectángulo 413495" width="16.103" height="28.662" transform="translate(23.114 316.167)" fill="url(#linear-gradient-27)"/>
      </g>
    </g>
    <g id="Grupo_1124709" data-name="Grupo 1124709">
      <g id="Grupo_1124708" data-name="Grupo 1124708" clip-path="url(#clip-path-63)">
        <rect id="Rectángulo_413496" data-name="Rectángulo 413496" width="16.302" height="24.188" transform="translate(67.16 311.682)" fill="url(#linear-gradient-28)"/>
      </g>
    </g>
    <g id="Grupo_1124799" data-name="Grupo 1124799">
      <g id="Grupo_1124798" data-name="Grupo 1124798" clip-path="url(#clip-path)">
        <g id="Grupo_1124712" data-name="Grupo 1124712" opacity="0.25">
          <g id="Grupo_1124711" data-name="Grupo 1124711">
            <g id="Grupo_1124710" data-name="Grupo 1124710" clip-path="url(#clip-path-65)">
              <path id="Trazado_895509" data-name="Trazado 895509" d="M69.56,313.942q-1.177-.483-2.281-.967c-.041-.437-.078-.866-.119-1.292-2.27-24.329-5.707-33.769-7.392-55.709.47-10.929,12.414-31.835,12.414-31.835-10.3-5.737-24.091-23.988-33.424-40.469a272.466,272.466,0,0,0-1.463-32.813c-.185-1.552-.4-3.055-.63-4.5,11.7,1.137,19.914-1.87,22.836-4.467a47.1,47.1,0,0,1,3.485,4.7l-.133.114a35.438,35.438,0,0,0-7.818,44.611C64.24,207.336,75,222.328,75,222.328s-7.2,56.008-5.444,91.614" fill="#62203b"/>
            </g>
          </g>
        </g>
        <g id="Grupo_1124715" data-name="Grupo 1124715" opacity="0.5">
          <g id="Grupo_1124714" data-name="Grupo 1124714">
            <g id="Grupo_1124713" data-name="Grupo 1124713" clip-path="url(#clip-path-66)">
              <path id="Trazado_895510" data-name="Trazado 895510" d="M57.2,30.133a14.546,14.546,0,0,1,1.806-.3,10.212,10.212,0,0,1,1.845-.05,3.169,3.169,0,0,1,.473.072,1.191,1.191,0,0,1,.479.2,2.2,2.2,0,0,1,.628.741,4.011,4.011,0,0,1,.451,1.792,5.817,5.817,0,0,0-.7-1.642,2.112,2.112,0,0,0-.58-.6,1.717,1.717,0,0,0-.786-.194c-.586-.051-1.192-.036-1.8-.031s-1.212.023-1.823.017" fill="#db6951"/>
            </g>
          </g>
        </g>
        <path id="Trazado_895511" data-name="Trazado 895511" d="M65.6,28.855c-.011-.022-.022-.044-.033-.063a4.482,4.482,0,0,0-1.508-1.778,4.362,4.362,0,0,0-2.163-.559,14.014,14.014,0,0,0-2.422.189c-.489.074-.974.163-1.474.252q-.522.094-1.063.189A7.812,7.812,0,0,1,59.26,25.8a7.428,7.428,0,0,1,2.674-.459,4.068,4.068,0,0,1,2.666.981,3.238,3.238,0,0,1,.793,1.193,3.428,3.428,0,0,1,.211,1.337" fill="#743234"/>
        <path id="Trazado_895512" data-name="Trazado 895512" d="M71.112,33.9a6.605,6.605,0,0,1-.145.8c-.044-.13-.085-.256-.114-.382s-.071-.263-.1-.392c-.059-.252-.152-.493-.207-.737-.086-.237-.162-.471-.256-.693a3.849,3.849,0,0,0-.336-.611,2.135,2.135,0,0,0-1.015-.822,3.8,3.8,0,0,0-1.482-.193,2.217,2.217,0,0,1,3.108.593,3.262,3.262,0,0,1,.384.785c.046.137.063.278.1.415a2.255,2.255,0,0,1,.066.411,6.272,6.272,0,0,1,0,.822" fill="#743234"/>
        <g id="Grupo_1124718" data-name="Grupo 1124718" opacity="0.15">
          <g id="Grupo_1124717" data-name="Grupo 1124717">
            <g id="Grupo_1124716" data-name="Grupo 1124716" clip-path="url(#clip-path-67)">
              <path id="Trazado_895513" data-name="Trazado 895513" d="M70.623,33.488c-.374,1.007-.741,2.015-1.022,3.037-.167.244-.311.448-.311.448a3.278,3.278,0,0,0-.678-1.426,4.921,4.921,0,0,0-1.659-.692l-1.189-.137,1.689-3.848a3.8,3.8,0,0,1,1.481.192,2.135,2.135,0,0,1,1.015.822,3.852,3.852,0,0,1,.337.611c.093.223.17.456.256.693.022.1.051.2.081.3" fill="#db6951"/>
            </g>
          </g>
        </g>
        <g id="Grupo_1124721" data-name="Grupo 1124721" opacity="0.5">
          <g id="Grupo_1124720" data-name="Grupo 1124720">
            <g id="Grupo_1124719" data-name="Grupo 1124719" clip-path="url(#clip-path-68)">
              <path id="Trazado_895514" data-name="Trazado 895514" d="M65.6,34.734a3.371,3.371,0,0,1,1.242-.135,3.227,3.227,0,0,1,1.235.328,2.264,2.264,0,0,1,.933.9A2.312,2.312,0,0,1,69.3,37.05a3.855,3.855,0,0,0-.529-1.067,2.493,2.493,0,0,0-.862-.728,4.277,4.277,0,0,0-1.1-.371,8.981,8.981,0,0,0-1.2-.15" fill="#db6951"/>
            </g>
          </g>
        </g>
        <g id="Grupo_1124724" data-name="Grupo 1124724" opacity="0.5">
          <g id="Grupo_1124723" data-name="Grupo 1124723">
            <g id="Grupo_1124722" data-name="Grupo 1124722" clip-path="url(#clip-path-69)">
              <path id="Trazado_895515" data-name="Trazado 895515" d="M29.962,85.619c-.186.852-.375,1.711-.575,2.578-1.644,7.233-3.651,14.747-5.276,20.565a15.906,15.906,0,0,0-4.19.382c-2.674.641-4.633,2.863-5.97,5.1h0c1.618-7.966,8.939-6.752,8.939-6.752a173.828,173.828,0,0,0,3.278-20.336c-2.436-3.207-8.9-4.47-11.932-4.9.1-1.926.192-3.814.267-5.622V76.6c4.951.152,11.865,1.792,15.462,9.018" fill="#db6951"/>
            </g>
          </g>
        </g>
        <g id="Grupo_1124727" data-name="Grupo 1124727" opacity="0.5">
          <g id="Grupo_1124726" data-name="Grupo 1124726">
            <g id="Grupo_1124725" data-name="Grupo 1124725" clip-path="url(#clip-path-70)">
              <path id="Trazado_895516" data-name="Trazado 895516" d="M69.967,116.954c-1.926.044-4.329-1.867-4.329-1.867s-5.045-7.307-10.781-16.836c.218-1.122.437-2.2.648-3.211.392-1.9.77-3.588,1.1-5.014a4.632,4.632,0,0,0,2.229-.789,10.845,10.845,0,0,0,3.23-4.585,9.868,9.868,0,0,0-.593-7.3c-.033-.074-.066-.148-.1-.226a9.985,9.985,0,0,1,1.192-.28l0,0c.411,1.141.822,2.289,1.222,3.441Q64.4,82.064,65,83.833l-.226.347a24.9,24.9,0,0,0,1.171,29,16.323,16.323,0,0,0,4.021,3.77" fill="#db6951"/>
            </g>
          </g>
        </g>
        <g id="Grupo_1124730" data-name="Grupo 1124730" opacity="0.25">
          <g id="Grupo_1124729" data-name="Grupo 1124729">
            <g id="Grupo_1124728" data-name="Grupo 1124728" clip-path="url(#clip-path-71)">
              <path id="Trazado_895517" data-name="Trazado 895517" d="M299.6,82.223c-.1.73-.181,1.574-.248,2.511-8.585,21.677-27.106,36.609-33.7,41.42a17.317,17.317,0,0,1-.4-3.311c2.063-1.559,4.3-3.551,5.259-5.44,2-3.93,24.788-21.37,24.184-52.338-.589-8.867-7.988-15.885-8.222-16.1a25.237,25.237,0,0,1,7.218,2.612c2.682,3.525,5.356,7.81,5.845,11.362a71.005,71.005,0,0,1,.07,19.288" fill="#c6b9e5"/>
            </g>
          </g>
        </g>
        <g id="Grupo_1124733" data-name="Grupo 1124733" opacity="0.25">
          <g id="Grupo_1124732" data-name="Grupo 1124732">
            <g id="Grupo_1124731" data-name="Grupo 1124731" clip-path="url(#clip-path-72)">
              <path id="Trazado_895518" data-name="Trazado 895518" d="M303.871,117.225v0l-4.126-2.922L291.224,124.5l8.566-16.67a23.409,23.409,0,0,0,4.081,9.4" fill="#c6b9e5"/>
            </g>
          </g>
        </g>
        <path id="Trazado_895519" data-name="Trazado 895519" d="M306.461,130.888h0a.922.922,0,0,1-1.206-.5l-1.847-4.426a.922.922,0,0,1,1.7-.71l1.847,4.426a.922.922,0,0,1-.5,1.206" fill="#211935"/>
        <path id="Trazado_895520" data-name="Trazado 895520" d="M288.812,134.141h0a.923.923,0,0,1-1.038-.79l-.644-4.752a.922.922,0,0,1,1.827-.248l.644,4.752a.921.921,0,0,1-.789,1.038" fill="#211935"/>
        <path id="Trazado_895521" data-name="Trazado 895521" d="M271.876,134.167h0A.922.922,0,0,1,271,133.2l.242-4.79a.922.922,0,1,1,1.841.093l-.242,4.79a.921.921,0,0,1-.967.874" fill="#211935"/>
        <g id="Grupo_1124736" data-name="Grupo 1124736" opacity="0.25">
          <g id="Grupo_1124735" data-name="Grupo 1124735">
            <g id="Grupo_1124734" data-name="Grupo 1124734" clip-path="url(#clip-path-73)">
              <path id="Trazado_895522" data-name="Trazado 895522" d="M260.621,108.751c-11.559.818-46.89-4.415-56.942-5.955a9.947,9.947,0,0,1,1.163-2.371l.045,0,9.618.567c7.759-1.745,43.49.17,43.49.17l1.9-8.488L262.08,82.9s4.026-13.258,5.893-15.984c2.648-7.059,5.7-11.377,8.558-14.007a7.21,7.21,0,0,1,3.8,2.289c8.251,9.788-12.522,43.546-19.707,53.553" fill="#f6f4fd"/>
            </g>
          </g>
        </g>
        <g id="Grupo_1124739" data-name="Grupo 1124739" opacity="0.5">
          <g id="Grupo_1124738" data-name="Grupo 1124738">
            <g id="Grupo_1124737" data-name="Grupo 1124737" clip-path="url(#clip-path-74)">
              <path id="Trazado_895523" data-name="Trazado 895523" d="M272.8,82.224l13.1,6.214L273.726,105.4l9.009-16.038Z" fill="#c6b9e5"/>
            </g>
          </g>
        </g>
        <g id="Grupo_1124742" data-name="Grupo 1124742" opacity="0.25">
          <g id="Grupo_1124741" data-name="Grupo 1124741">
            <g id="Grupo_1124740" data-name="Grupo 1124740" clip-path="url(#clip-path-75)">
              <path id="Trazado_895524" data-name="Trazado 895524" d="M217.395,110.019l21.915,8.545,9.486-2.4L238.1,117.358Z" fill="#c6b9e5"/>
            </g>
          </g>
        </g>
        <g id="Grupo_1124745" data-name="Grupo 1124745" opacity="0.5">
          <g id="Grupo_1124744" data-name="Grupo 1124744">
            <g id="Grupo_1124743" data-name="Grupo 1124743" clip-path="url(#clip-path-76)">
              <path id="Trazado_895525" data-name="Trazado 895525" d="M286.35,39.521l-2.385-8.77-.089-.33h0l-.373-1.367c-1.019,1.9-2.733,3.015-4.311,2.607a2.768,2.768,0,0,1-.452-.163l.167,2.259-7.378,6.237.112.789c1.126-.7,5.98-3.857,8.6-5.673a1.626,1.626,0,0,0,.691-1.17,2.564,2.564,0,0,1,.191-.733l2.519,7.783a17.579,17.579,0,0,0,2.711-1.47" fill="#db6951"/>
            </g>
          </g>
        </g>
        <g id="Grupo_1124748" data-name="Grupo 1124748" opacity="0.5">
          <g id="Grupo_1124747" data-name="Grupo 1124747">
            <g id="Grupo_1124746" data-name="Grupo 1124746" clip-path="url(#clip-path-77)">
              <path id="Trazado_895526" data-name="Trazado 895526" d="M277.976,30.969c-3.652-2.267-5.985-8.663-4.374-14.5-6.955,2.608-12.311,2.241-15.629,1.441v-.589a13.014,13.014,0,0,1,.108-1.67,17.657,17.657,0,0,0,5.681.8c8.866,0,10.433-5.155,12.736-1.426,1.022,1.656.641,3.744-.1,5.552a4.341,4.341,0,0,0,.667,4.433c-.056.159-.1.322-.145.489-.57,2.222-.1,4.366,1.056,5.466" fill="#db6951"/>
            </g>
          </g>
        </g>
        <g id="Grupo_1124751" data-name="Grupo 1124751" opacity="0.25">
          <g id="Grupo_1124750" data-name="Grupo 1124750">
            <g id="Grupo_1124749" data-name="Grupo 1124749" clip-path="url(#clip-path-78)">
              <path id="Trazado_895527" data-name="Trazado 895527" d="M282.22,49.439a15.5,15.5,0,0,0-5.689,3.47c-2.855,2.63-5.911,6.948-8.559,14.007C266.106,69.642,262.08,82.9,262.08,82.9l-.466,2.089c-.186-1.674-.36-3.548-.519-5.67-.118-1.555-.23-3.248-.33-5.1,4.541-10.636,11.8-23.025,21.455-24.78" fill="#c6b9e5"/>
            </g>
          </g>
        </g>
        <g id="Grupo_1124754" data-name="Grupo 1124754" opacity="0.25">
          <g id="Grupo_1124753" data-name="Grupo 1124753">
            <g id="Grupo_1124752" data-name="Grupo 1124752" clip-path="url(#clip-path-79)">
              <path id="Trazado_895528" data-name="Trazado 895528" d="M272.013,50.035a3.59,3.59,0,0,0,0-1.719c.226-.162.43-.307.607-.429l.271.729c7.281.263,14.643-3.785,14.866-3.907a24.011,24.011,0,0,1-15.744,5.326" fill="#c6b9e5"/>
            </g>
          </g>
        </g>
        <g id="Grupo_1124757" data-name="Grupo 1124757" opacity="0.5">
          <g id="Grupo_1124756" data-name="Grupo 1124756">
            <g id="Grupo_1124755" data-name="Grupo 1124755" clip-path="url(#clip-path-80)">
              <path id="Trazado_895529" data-name="Trazado 895529" d="M313.078,139.183c-1.456,21.94-6.4,81.211-6.452,81.863l0,0C303.16,208.691,303,192.6,303.491,181.1a15.178,15.178,0,0,0-14-15.778,15.184,15.184,0,0,1-12.783-9.158l-10.443-24.373c23.021,3.859,39.876-1.745,43.28-3.015a27.867,27.867,0,0,1,3.529,10.407" fill="#2b204f"/>
            </g>
          </g>
        </g>
        <g id="Grupo_1124760" data-name="Grupo 1124760" opacity="0.5">
          <g id="Grupo_1124759" data-name="Grupo 1124759">
            <g id="Grupo_1124758" data-name="Grupo 1124758" clip-path="url(#clip-path-81)">
              <path id="Trazado_895530" data-name="Trazado 895530" d="M310.423,306.994c-.022.174-.048.352-.082.537-.222,1.467-.436,2.952-.633,4.463-.607,4.614-1.081,9.436-1.34,14.533q-.15,2.92-.2,5.973a7.706,7.706,0,0,1-1.6.756c-.23-13.774-1.185-62.057-3.345-73.893.837-11.829,3.348-37.758,3.4-38.309.192.322,10.455,17.265,11.081,24.2,1.974,21.921-3.874,39.672-7.285,61.738" fill="#2b204f"/>
            </g>
          </g>
        </g>
        <g id="Grupo_1124763" data-name="Grupo 1124763" opacity="0.5">
          <g id="Grupo_1124762" data-name="Grupo 1124762">
            <g id="Grupo_1124761" data-name="Grupo 1124761" clip-path="url(#clip-path-82)">
              <path id="Trazado_895531" data-name="Trazado 895531" d="M270.506,117.4c-2,3.93-9.537,8.329-9.537,8.329l-4.559-2.322-4.114-.8c-.015,0-.03-.007-.041-.011l-37.832-7.363-1.951-3.114-8.882-2.93a9.375,9.375,0,0,1-.47-2.277l53.553,11.651-.622-2.4,11.225-1.87,2.026-6.463s21.607-31.339,22.947-51.023a21.329,21.329,0,0,1,2.441,8.259c.6,30.969-22.184,48.409-24.184,52.338" fill="#c6b9e5"/>
            </g>
          </g>
        </g>
        <path id="Trazado_895532" data-name="Trazado 895532" d="M260.658,72.171c.033.7.07,1.385.107,2.048.1,1.852.212,3.544.33,5.1-13.333,7.092-31.4,10.525-31.4,10.525s-.344.052-.907.1c1.863-.755,15.558-6.307,29.18-11.636-2.667-13.411-.078-21.547,2.292-25.806a6.683,6.683,0,0,1,1.248-.823,59.66,59.66,0,0,1,9.193-2.333,27.5,27.5,0,0,0-10.048,22.825" fill="#c6b9e5"/>
        <g id="Grupo_1124766" data-name="Grupo 1124766" opacity="0.5">
          <g id="Grupo_1124765" data-name="Grupo 1124765">
            <g id="Grupo_1124764" data-name="Grupo 1124764" clip-path="url(#clip-path-83)">
              <path id="Trazado_895533" data-name="Trazado 895533" d="M259.155,22.906q.123,1.476.216,2.949l.2,2.947c.067.982.133,1.963.214,2.942.044.489.084.978.143,1.464a14.442,14.442,0,0,0,.216,1.446l-.126-.087c.907-.075,1.816-.131,2.727-.174-.9.15-1.8.289-2.7.407l-.1.013-.027-.1a19.172,19.172,0,0,1-.486-2.936c-.1-.984-.166-1.969-.216-2.954s-.079-1.972-.086-2.958-.007-1.973.029-2.959" fill="#db6951"/>
            </g>
          </g>
        </g>
        <path id="Trazado_895534" data-name="Trazado 895534" d="M264.51,37.425a4.957,4.957,0,0,0,.951.006,3.08,3.08,0,0,0,.9-.218,1.918,1.918,0,0,0,.731-.539,2.8,2.8,0,0,0,.461-.819,2.028,2.028,0,0,1-.349.906,1.771,1.771,0,0,1-.77.622,2.522,2.522,0,0,1-.966.189,2.894,2.894,0,0,1-.958-.147" fill="#db6951"/>
        <path id="Trazado_895535" data-name="Trazado 895535" d="M261.888,21.749a6.021,6.021,0,0,1,1.474-.144,6.9,6.9,0,0,1,1.479.183,5.585,5.585,0,0,1,1.4.528,4.589,4.589,0,0,1,1.18.9c-.218-.122-.4-.282-.626-.383l-.317-.176-.33-.149a8.183,8.183,0,0,0-1.369-.45,11.365,11.365,0,0,0-1.427-.241,13.9,13.9,0,0,0-1.462-.068" fill="#db6951"/>
        <path id="Trazado_895536" data-name="Trazado 895536" d="M259.732,22.17a2.714,2.714,0,0,0-1.759.219v-.278a2.874,2.874,0,0,1,1.759.059" fill="#db6951"/>
        <path id="Trazado_895537" data-name="Trazado 895537" d="M262.23,19.8a6.151,6.151,0,0,1,2.163-.706,6.977,6.977,0,0,1,2.31.048,5.614,5.614,0,0,1,2.152.885,5,5,0,0,1,1.563,1.666,11.136,11.136,0,0,0-1.852-1.166,7.884,7.884,0,0,0-2.005-.658,11.433,11.433,0,0,0-2.126-.2,20.063,20.063,0,0,0-2.2.132" fill="#743234"/>
        <path id="Trazado_895538" data-name="Trazado 895538" d="M257.44,19.841a1.459,1.459,0,0,1,.627-.32,1.933,1.933,0,0,1,.711-.052,1.869,1.869,0,0,1,.683.207,1.582,1.582,0,0,1,.544.446c-.233-.057-.436-.13-.647-.176a4.2,4.2,0,0,0-.62-.109,6.333,6.333,0,0,0-1.3,0" fill="#743234"/>
        <g id="Grupo_1124769" data-name="Grupo 1124769" opacity="0.5">
          <g id="Grupo_1124768" data-name="Grupo 1124768">
            <g id="Grupo_1124767" data-name="Grupo 1124767" clip-path="url(#clip-path-84)">
              <path id="Trazado_895539" data-name="Trazado 895539" d="M203.113,106.818q-1.044-.161-2.081-.293a42.751,42.751,0,0,1-5.989,1.089,4.968,4.968,0,0,1-1.73-.137c.73-.118,3.919-.655,8.3-1.7-.015-1.911,1.611-4.718,2.07-5.466.385.041.77.078,1.156.115a10.634,10.634,0,0,0-1.73,6.392" fill="#db6951"/>
            </g>
          </g>
        </g>
        <path id="Trazado_895540" data-name="Trazado 895540" d="M256.529,1.026l-.007.011a.049.049,0,0,1,.011-.022l0,.011" fill="#db6951"/>
        <path id="Trazado_895541" data-name="Trazado 895541" d="M284.372,26.077c.2-2.374-.793-4.426-2.485-4.863-1.885-.485-3.967,1.193-4.822,3.8a4.341,4.341,0,0,1-.667-4.433c.741-1.807,1.122-3.9.1-5.552-2.3-3.729-3.87,1.426-12.736,1.426a17.629,17.629,0,0,1-5.681-.8c-4.363-1.488-5.556-4.914-3.845-9.07.793-1.918,1.308-3.177,1.652-4-1.018,2.837-2.459,8.792,2.085,11.54,6.085,3.674,16.885-6.392,22.088-2.941a30.2,30.2,0,0,1,3.233,2.411,9.1,9.1,0,0,1,1.1,12.454Z" fill="#572627"/>
        <g id="Grupo_1124772" data-name="Grupo 1124772" opacity="0.25">
          <g id="Grupo_1124771" data-name="Grupo 1124771">
            <g id="Grupo_1124770" data-name="Grupo 1124770" clip-path="url(#clip-path-85)">
              <path id="Trazado_895542" data-name="Trazado 895542" d="M122.7,160.715a43.253,43.253,0,0,1-4.963-.319c-1.489-.2-2.411-.481-2.411-.792,0,0-8.166-89.851,5.9-105.769,0,0-10,71.341,1.47,106.88" fill="#e8f1f3"/>
            </g>
          </g>
        </g>
        <g id="Grupo_1124775" data-name="Grupo 1124775" opacity="0.25">
          <g id="Grupo_1124774" data-name="Grupo 1124774">
            <g id="Grupo_1124773" data-name="Grupo 1124773" clip-path="url(#clip-path-86)">
              <path id="Trazado_895543" data-name="Trazado 895543" d="M136.69,163.023H119.3V160.56c1.011.085,2.167.141,3.4.156.282,0,.567.007.856.007,4.544,0,8.229-.5,8.229-1.118,1.292-16.137,1.615-31.191,1.615-44.154,0-12.944-.323-23.8-.323-31.565a39.156,39.156,0,0,0-2.466-13.051c10.333,19.691,6.081,92.188,6.081,92.188" fill="#326160"/>
            </g>
          </g>
        </g>
        <g id="Grupo_1124797" data-name="Grupo 1124797" opacity="0.25">
          <g id="Grupo_1124796" data-name="Grupo 1124796">
            <g id="Grupo_1124795" data-name="Grupo 1124795" clip-path="url(#clip-path-87)">
              <path id="Trazado_895544" data-name="Trazado 895544" d="M79.283,370.328H65.065c.748-2.807,1.467-5.929,2.1-9.685.011-.07.022-.137.034-.207.029-.171.055-.341.085-.515.292-1.811.563-5.863.807-8.262.015-.16.033-.312.048-.46h6.689c.437,2.033.963,6.589,1.559,8.87.026.1.052.2.078.3.829,3.17,1.789,6.529,2.822,9.962" fill="#822b4f"/>
              <path id="Trazado_895545" data-name="Trazado 895545" d="M66.792,346.966,68.48,341.4H70.9l1.431,4.723Z" fill="#961423"/>
              <path id="Trazado_895546" data-name="Trazado 895546" d="M32.3,370.326H17.433c.01-.01.01-.03.02-.04.2-.362.4-.713.6-1.074.18-.322.361-.633.542-.954.12-.221.241-.432.361-.653.3-.532.592-1.054.873-1.586s.573-1.044.844-1.546c.3-.562.6-1.114.873-1.656.572-1.1,1.1-2.149,1.566-3.122.342-.723.653-1.406.914-2.048.06-.141.12-.271.181-.412q.345-.873.572-1.6h6.194l.321,3.483Z" fill="#933c5e"/>
              <path id="Trazado_895547" data-name="Trazado 895547" d="M22.985,352.012l2.249-6.72h3.537l.638,3.225Z" fill="#961423"/>
              <g id="Grupo_1124777" data-name="Grupo 1124777">
                <g id="Grupo_1124776" data-name="Grupo 1124776" clip-path="url(#clip-path-88)">
                  <rect id="Rectángulo_413519" data-name="Rectángulo 413519" width="24.688" height="10.35" transform="translate(21.562 345.292)" fill="url(#linear-gradient-29)"/>
                </g>
              </g>
              <g id="Grupo_1124779" data-name="Grupo 1124779">
                <g id="Grupo_1124778" data-name="Grupo 1124778" clip-path="url(#clip-path-89)">
                  <rect id="Rectángulo_413520" data-name="Rectángulo 413520" width="24.236" height="9.795" transform="translate(65.478 341.404)" fill="url(#linear-gradient-30)"/>
                </g>
              </g>
              <path id="Trazado_895550" data-name="Trazado 895550" d="M159.31,349.8h0c0,.791-1.149,1.431-2.567,1.431h-9.959c-1.418,0-2.567-.64-2.567-1.431a.972.972,0,0,0-.295-.666l-12.283-8.389h3.024l14.992,8.068a3.823,3.823,0,0,0,4.217,0l14.992-8.068h3.024L159.6,349.132a.972.972,0,0,0-.295.666" fill="#362742"/>
              <g id="Grupo_1124781" data-name="Grupo 1124781">
                <g id="Grupo_1124780" data-name="Grupo 1124780" clip-path="url(#clip-path-90)">
                  <rect id="Rectángulo_413521" data-name="Rectángulo 413521" width="5.529" height="18.533" transform="translate(148.999 351.795)" fill="url(#linear-gradient-31)"/>
                </g>
              </g>
              <path id="Trazado_895551" data-name="Trazado 895551" d="M155.337,348.347h-7.146a1.944,1.944,0,0,0,0,3.887h7.146a1.944,1.944,0,0,0,0-3.887" fill="#362742"/>
              <path id="Trazado_895552" data-name="Trazado 895552" d="M135.4,340.742h-3.931a.436.436,0,0,0,0,.873H135.4a.436.436,0,0,0,0-.873" fill="#362742"/>
              <path id="Trazado_895553" data-name="Trazado 895553" d="M172.063,340.742h-3.931a.436.436,0,0,0,0,.873h3.931a.436.436,0,0,0,0-.873" fill="#362742"/>
              <path id="Trazado_895554" data-name="Trazado 895554" d="M271.307,370.328H252.471l-3.678-21.292s.078-.018.222-.048c1.223-.278,7.178-1.522,10.274-.577a3.415,3.415,0,0,1,1.222.625c2.507,7.644,6.615,14.881,10.8,21.292" fill="#2e2368"/>
              <path id="Trazado_895555" data-name="Trazado 895555" d="M298.593,349.035s-5.742-3.658-15.336-3.929c-2.2-.062-3.238-1.584-1.781-2.506l.035-.021h29.443a4.045,4.045,0,0,1-1.056,4.695l-1.725,1.761Z" fill="#271f37"/>
              <path id="Trazado_895556" data-name="Trazado 895556" d="M249.1,349.035s-5.742-3.658-15.335-3.929c-2.2-.062-3.239-1.584-1.782-2.506l.035-.021h29.443a4.045,4.045,0,0,1-1.056,4.695l-1.725,1.761Z" fill="#271f37"/>
              <path id="Trazado_895557" data-name="Trazado 895557" d="M294.854,370.328q.166-1.1.315-2.218V368.1a144.687,144.687,0,0,0,1.233-15.025q.061-2,.056-4.041s.622-.144,1.614-.3a26.394,26.394,0,0,1,8.5-.122,11.186,11.186,0,0,1,1.6.422q.045,1.7.2,3.33a58.043,58.043,0,0,0,1.341,8.1c.2.845.411,1.67.633,2.489.033.1.059.2.082.3.677,2.441,1.448,4.785,2.237,7.07Z" fill="#392b69"/>
              <g id="Grupo_1124784" data-name="Grupo 1124784" opacity="0.5">
                <g id="Grupo_1124783" data-name="Grupo 1124783">
                  <g id="Grupo_1124782" data-name="Grupo 1124782" clip-path="url(#clip-path-91)">
                    <path id="Trazado_895558" data-name="Trazado 895558" d="M26.2,355.639c-.331,1.034-.673,2.178-1,3.423-.873,3.243-1.717,7.148-2.5,11.264h-5.26a.076.076,0,0,1,.02-.04c.2-.361.4-.713.6-1.074.181-.321.362-.633.542-.954.121-.221.241-.432.362-.652.3-.533.592-1.054.873-1.587s.573-1.044.844-1.546q.451-.843.873-1.656c.572-1.094,1.1-2.148,1.566-3.122.341-.723.653-1.406.914-2.048.06-.141.12-.271.18-.412q.347-.873.573-1.6Z" fill="#822b4f"/>
                  </g>
                </g>
              </g>
              <g id="Grupo_1124786" data-name="Grupo 1124786">
                <g id="Grupo_1124785" data-name="Grupo 1124785" clip-path="url(#clip-path-92)">
                  <rect id="Rectángulo_413524" data-name="Rectángulo 413524" width="16.103" height="14.175" transform="translate(23.114 345.521)" fill="url(#linear-gradient-32)"/>
                </g>
              </g>
              <g id="Grupo_1124788" data-name="Grupo 1124788">
                <g id="Grupo_1124787" data-name="Grupo 1124787" clip-path="url(#clip-path-93)">
                  <rect id="Rectángulo_413525" data-name="Rectángulo 413525" width="16.303" height="15.861" transform="translate(67.16 344.782)" fill="url(#linear-gradient-33)"/>
                </g>
              </g>
              <g id="Grupo_1124791" data-name="Grupo 1124791" opacity="0.25">
                <g id="Grupo_1124790" data-name="Grupo 1124790">
                  <g id="Grupo_1124789" data-name="Grupo 1124789" clip-path="url(#clip-path-94)">
                    <path id="Trazado_895561" data-name="Trazado 895561" d="M67.28,359.921c.737-.178,1.5-.359,2.281-.537-.022.233-.04.47-.059.711a91.173,91.173,0,0,0-.133,10.233h-4.3c.748-2.807,1.467-5.929,2.1-9.685.011-.07.022-.137.033-.207.029-.171.055-.341.085-.515" fill="#62203b"/>
                  </g>
                </g>
              </g>
              <g id="Grupo_1124794" data-name="Grupo 1124794" opacity="0.5">
                <g id="Grupo_1124793" data-name="Grupo 1124793">
                  <g id="Grupo_1124792" data-name="Grupo 1124792" clip-path="url(#clip-path-95)">
                    <path id="Trazado_895562" data-name="Trazado 895562" d="M312.661,370.328h-7.085c.545-8.44.852-17.151.982-21.292,0-.148.007-.289.011-.422a11.207,11.207,0,0,1,1.6.422q.045,1.7.2,3.33a58.189,58.189,0,0,0,1.34,8.1c.2.845.411,1.67.634,2.489.033.1.059.2.081.3.678,2.441,1.448,4.785,2.237,7.07" fill="#2b204f"/>
                  </g>
                </g>
              </g>
            </g>
          </g>
        </g>
      </g>
    </g>
  </g>
</svg>
