<svg id="Grupo_1121981" data-name="Grupo 1121981" xmlns="http://www.w3.org/2000/svg" xmlns:xlink="http://www.w3.org/1999/xlink" width="106.104" height="120.91" viewBox="0 0 106.104 120.91">
  <defs>
    <clipPath id="clip-path">
      <rect id="Rectángulo_412188" data-name="Rectángulo 412188" width="106.104" height="120.91" fill="#7e768c"/>
    </clipPath>
  </defs>
  <g id="Grupo_1121980" data-name="Grupo 1121980" clip-path="url(#clip-path)">
    <path id="Trazado_891555" data-name="Trazado 891555" d="M22.609,106.368l-14.562,10.7L4.063,120c-1.506,1.106-2.611,1.2-3.482.313s-.769-1.9.4-3.483q6.247-8.5,12.494-16.993c.33-.449.648-.906,1.083-1.516-2.023-1.971-4.063-3.855-5.986-5.852-12.608-13.089-8.182-35,8.617-41.946,9.841-4.069,19.025-2.453,27.281,4.3.4.324.774.67,1.273,1.1,7-9.53,13.952-18.991,21.006-28.6-1.547-1.525-3.064-3-4.56-4.5-5.813-5.819-5.958-13.491-.378-19.5.8-.858,1.569-1.744,2.4-2.573A2.049,2.049,0,0,1,67.215.578a2.065,2.065,0,0,1,0,3.027c-.914,1.044-1.9,2.026-2.829,3.06a9,9,0,0,0,.2,12.68c1.468,1.525,2.971,3.016,4.582,4.65,4.285-6.235,10.042-9.4,17.492-9.183a19.648,19.648,0,0,1,13.968,6.322c7.875,8.143,7.739,23.244-3.593,30.648A21.757,21.757,0,0,1,77.051,87.3c-6.506-.912-11.2-4.773-15.418-9.6l-35.7,26.245c.331.355.579.635.842.9,2.762,2.765,5.488,5.565,8.3,8.28a7.854,7.854,0,0,0,11.132-.05c1.03-1,2.013-2.04,3.048-3.03,1.071-1.025,2.217-1.074,3.11-.186a2.049,2.049,0,0,1-.172,3.108c-1.177,1.216-2.355,2.439-3.61,3.571a11.733,11.733,0,0,1-16.076-.158c-3.351-3.211-6.533-6.6-9.891-10.007m39.464-34.3a2.475,2.475,0,0,0,.274-.16c11.151-8.2,22.331-16.366,33.44-24.626,4.9-3.64,6.719-8.678,5.967-14.666A15.915,15.915,0,0,0,88.836,19.191a15.455,15.455,0,0,0-16.473,7.6l5.889,5.828c.393-.463.829-1.066,1.353-1.58a7.381,7.381,0,0,1,10.414-.2,7.23,7.23,0,0,1-.126,10.382q-3.139,3.215-6.353,6.357a7.245,7.245,0,1,1-10.27-10.215c.558-.576,1.127-1.141,1.468-1.486l-5.26-5.289-20.7,28.169,13.3,13.31M43.28,59.19c-.415-.326-.81-.6-1.157-.917A21.892,21.892,0,0,0,6.276,80.428C8,86.652,12.568,90.647,17,94.961L43.28,59.19M64.995,75.128c8.24,9.688,19.821,10.97,27.694,3.151,7.829-7.776,5.743-19.126.63-23.968L64.995,75.128M46.036,62.449Q29.2,85.364,12.3,108.367l.212.171,45.839-33.7L46.036,62.449M82.167,43.04l-4.324-4.367c-1.229,1.293-3.047,2.29-2.621,4.553a2.844,2.844,0,0,0,2.185,2.345c2.328.592,3.408-1.2,4.76-2.531M81,35.482l4.326,4.383c1.238-1.273,3.014-2.28,2.574-4.545A2.837,2.837,0,0,0,85.711,33c-2.361-.627-3.361,1.285-4.708,2.483" transform="translate(0 0)" fill="#7e768c"/>
  </g>
</svg>
