<svg xmlns="http://www.w3.org/2000/svg" xmlns:xlink="http://www.w3.org/1999/xlink" width="190" height="235" viewBox="0 0 190 235">
  <defs>
    <clipPath id="clip-path">
      <rect id="Rect치ngulo_413613" data-name="Rect치ngulo 413613" width="190" height="235" transform="translate(705.051 14938)" fill="#fff" stroke="#707070" stroke-width="1"/>
    </clipPath>
    <clipPath id="clip-path-2">
      <rect id="Rect치ngulo_413612" data-name="Rect치ngulo 413612" width="113.252" height="175.955" fill="#ffb74d"/>
    </clipPath>
  </defs>
  <g id="Enmascarar_grupo_1098785" data-name="Enmascarar grupo 1098785" transform="translate(-705.051 -14938)" clip-path="url(#clip-path)">
    <g id="Grupo_1124926" data-name="Grupo 1124926" transform="translate(743.051 14968)">
      <g id="Grupo_1124925" data-name="Grupo 1124925" transform="translate(0 0)" clip-path="url(#clip-path-2)">
        <path id="Trazado_896058" data-name="Trazado 896058" d="M97.4,48.07a15.889,15.889,0,0,0-12.623,6.285H79.518V31.815a6.55,6.55,0,0,1,5.227-6.409A15.852,15.852,0,1,0,84.6,6.5,25.4,25.4,0,0,0,60.666,31.819V54.356H52.611V31.827A25.413,25.413,0,0,0,28.658,6.482a15.852,15.852,0,1,0-.129,18.912,6.568,6.568,0,0,1,5.23,6.433V44.8a3.143,3.143,0,0,0,6.285,0V31.827a12.851,12.851,0,0,0-12.82-12.851H24.93a3.142,3.142,0,0,1,0-6.284A19.406,19.406,0,0,1,46.226,30c.063.606.1,1.216.1,1.825,0,8.642,0,44.115,0,44.115a3.142,3.142,0,0,1-6.284,0V57.5a3.262,3.262,0,0,0-3.159-3.142H28.492a15.842,15.842,0,1,0-.01,19.168h5.277c-1.684,14.157,17.774,16.386,18.854,2.418l0-2.418h8.054c-1.574,15.488,20.246,15.968,18.852,0h5.265A15.847,15.847,0,1,0,97.4,48.07ZM6.313,15.834A9.617,9.617,0,0,1,20.572,7.522,9.259,9.259,0,0,0,15.5,15.834a9.4,9.4,0,0,0,5.1,8.325A9.62,9.62,0,0,1,6.313,15.834m0,48.1A9.594,9.594,0,0,1,15.9,54.356c5.264.514,1.719.657-.337,2.8A9.642,9.642,0,0,0,19.006,72.9,9.534,9.534,0,0,1,6.313,63.937Zm15.994,3.3a3.3,3.3,0,0,1,0-6.6H33.759v6.6Zm84.646-51.406a9.608,9.608,0,0,1-14.264,8.333,9.344,9.344,0,0,0,0-16.64,9.61,9.61,0,0,1,14.262,8.307m-54.341,44.8h8.053v6.6H52.611Zm20.621,15.3a3.142,3.142,0,0,1-6.284,0c0-3.607,0-44.118,0-44.118A19.133,19.133,0,0,1,86.062,12.705h2.293a3.142,3.142,0,0,1,0,6.284A13.2,13.2,0,0,0,73.373,30.114a13.334,13.334,0,0,0-.139,1.7Zm6.285-15.3H90.96a3.3,3.3,0,0,1,0,6.6H79.518ZM97.4,73.49c-5.285-.5-1.663-.657.338-2.774a9.633,9.633,0,0,0-3.508-15.747C108.443,50.718,112.265,72.578,97.4,73.49Z" transform="translate(0.014 0)" fill="#ffb74d"/>
        <path id="Trazado_896059" data-name="Trazado 896059" d="M97.414,59.7a15.929,15.929,0,0,0-12.623,6.261H28.5a15.858,15.858,0,1,0,0,19.165H84.8A15.884,15.884,0,0,0,97.414,91.4c20.921-.733,20.989-30.957,0-31.7M90.968,78.843H22.336a3.3,3.3,0,1,1,0-6.6v0H90.968a3.3,3.3,0,0,1,0,6.6m-84.641-3.3a9.531,9.531,0,0,1,12.707-8.953,9.575,9.575,0,0,0,.021,17.927A9.537,9.537,0,0,1,6.327,75.538Zm91.087,9.583a9.44,9.44,0,0,1-3.163-.611,9.532,9.532,0,0,0,.021-17.926C108.514,62.4,112.229,84.206,97.414,85.121Z" transform="translate(0 36.474)" fill="#ffb74d"/>
        <path id="Trazado_896060" data-name="Trazado 896060" d="M97.4,89.531a15.889,15.889,0,0,0-12.623,6.285H28.49a15.841,15.841,0,1,0-.008,19.165h37.48a3.143,3.143,0,0,0,0-6.284H22.321a3.3,3.3,0,1,1,0-6.6H90.942a3.3,3.3,0,0,1,0,6.6H78.847a3.142,3.142,0,0,0,0,6.284h5.934A15.847,15.847,0,1,0,97.4,89.531ZM19.009,114.356C4.753,118.508,1.039,96.736,15.9,95.816c5.346.524,1.659.673-.353,2.8a9.635,9.635,0,0,0,3.466,15.736Zm78.389.595c-5.323-.508-1.648-.664.322-2.805a9.606,9.606,0,0,0-3.5-15.714C108.436,92.168,112.267,114.037,97.4,114.95Z" transform="translate(0.016 54.718)" fill="#ffb74d"/>
      </g>
    </g>
  </g>
</svg>
