<svg id="Grupo_1121992" data-name="Grupo 1121992" xmlns="http://www.w3.org/2000/svg" xmlns:xlink="http://www.w3.org/1999/xlink" width="120.745" height="145.706" viewBox="0 0 120.745 145.706">
  <defs>
    <clipPath id="clip-path">
      <rect id="Rectángulo_406904" data-name="Rectángulo 406904" width="120.745" height="145.706" fill="#ffb74d"/>
    </clipPath>
  </defs>
  <g id="Grupo_1110457" data-name="Grupo 1110457" clip-path="url(#clip-path)">
    <path id="Trazado_877715" data-name="Trazado 877715" d="M225.052,20.889c-.6,3.361-1.024,6.539-1.74,9.652-1.229,5.346-2.813,10.615-3.914,15.985-.946,4.613-1.55,9.308-2.083,13.992-.823,7.219-1.457,14.46-2.169,21.693-.2,2.065-.349,4.138-.61,6.2-.18,1.418-.8,2.586-2.471,2.594-1.335.006-2.246-1.144-2.169-3.1.115-2.922.433-5.836.7-8.751.5-5.451.94-10.908,1.557-16.346.607-5.343,1.178-10.708,2.182-15.983.918-4.824,2.606-9.5,3.565-14.317a85.164,85.164,0,0,0,2.064-14.835,12.912,12.912,0,0,0-13.92-12.9,12.573,12.573,0,0,0-8.89,4.471c-.434.5-.773,1.083-1.227,1.56-1,1.046-2.153,1.626-3.521.7-1.449-.978-1.168-2.267-.381-3.481A16.328,16.328,0,0,1,203.966.192C214.975-1.217,222.4,5.31,224.384,13.671a10.416,10.416,0,0,0,.63,1.481c1.392.281,2.844.668,4.323.856,5.883.747,13.724,7.463,14.148,14.8a64.688,64.688,0,0,1,.261,8.176,18.037,18.037,0,0,1-6.435,12.546c-2.331,2.072-4.471,4.363-6.641,6.609-5.852,6.056-5.806,14.055.093,19.987,3.8,3.826,7.5,7.777,11.468,11.422a24.062,24.062,0,0,1,1.023,34.161,26.7,26.7,0,0,1-8.937,5.831,55.137,55.137,0,0,0-18.781,12.424,29.179,29.179,0,0,1-3.667,3.107,2.328,2.328,0,0,1-3.341-.14,2.29,2.29,0,0,1,.293-3.526c3.656-3.274,7.279-6.6,11.145-9.616a51.854,51.854,0,0,1,12.452-6.7c13.23-5.423,17.136-21.139,6.82-31.6-3.854-3.91-7.7-7.835-11.659-11.634a19.028,19.028,0,0,1-6.189-12.718,18.107,18.107,0,0,1,5.339-13.907c2.663-2.821,5.453-5.524,8.22-8.245a12.414,12.414,0,0,0,3.9-9.415c-.029-1.8.061-3.6-.038-5.4-.316-5.71-6.218-11.446-11.8-11.506a17.52,17.52,0,0,0-1.962.226" transform="translate(-129.126 0)" fill="#ffb74d"/>
    <path id="Trazado_877716" data-name="Trazado 877716" d="M171.44,49.342a10.65,10.65,0,0,0-1.968,6.217c0,1.988.048,3.983-.1,5.962-.1,1.384-.684,2.61-2.359,2.725-1.41.1-2.462-.892-2.6-2.785-.531-7.363.694-14.15,6.5-19.433a17.122,17.122,0,0,1,8.2-4.274,5.643,5.643,0,0,0,4.026-2.627c2.351-3.541,6.161-4.261,9.327-1.833a7.338,7.338,0,0,1,2.488,3.61,24.534,24.534,0,0,1,.128,11.8,6.535,6.535,0,0,1-6.517,5.26,6.917,6.917,0,0,1-6.424-5.471,20.009,20.009,0,0,1-.208-2.823c-.061-1.017-.112-2.034-.166-3.019-2.522-.131-3.183.1-6,2.15.98,4.573,1.738,9.433,3.091,14.121a109.477,109.477,0,0,1,4.369,23.366c.536,8.289,1.431,16.556,2.218,24.828.885,9.305,1.84,18.6,2.725,27.909.122,1.287.017,2.595.017,3.892l.573.024c.367-3.351.774-6.7,1.09-10.054.266-2.821.426-5.651.638-8.477a5,5,0,0,1,.111-.843c.351-1.4,1-2.5,2.679-2.368,1.381.106,2.317,1.419,2.2,3.123s-.276,3.387-.447,5.077c-.511,5.072-1.041,10.143-1.556,15.215-.21,2.065-.238,4.164-.639,6.19-.5,2.511-1.73,3.357-4.171,3.337-2.5-.02-3.847-1.084-4.318-3.623-.327-1.762-.511-3.555-.664-5.343-.805-9.409-1.521-18.826-2.383-28.23-.836-9.12-1.79-18.23-2.735-27.339-.516-4.976-.766-10.015-1.769-14.9-1.444-7.029-3.464-13.939-5.358-21.371m15.7-6.955a32.358,32.358,0,0,0,.074,4.794,1.553,1.553,0,0,0,3.1.018,33.922,33.922,0,0,0,.074-4.812Z" transform="translate(-110.856 -21.503)" fill="#ffb74d"/>
    <path id="Trazado_877717" data-name="Trazado 877717" d="M9.112,218.656c-1.9,2.087-3.173,3.6-4.573,4.99C3.171,225,1.713,225.184.8,224.309c-.937-.893-.814-2.754.383-4.094,1.3-1.458,2.694-2.836,4.236-4.446-1.344-1.415-2.494-2.628-3.647-3.839-1.68-1.764-2.074-3.658-.979-4.715,1.011-.977,2.8-.628,4.552.926.635.563,1.2,1.2,1.821,1.786s1.247,1.115,2.116,1.888c1.174-1.085,2.246-2.095,3.341-3.079.7-.628,1.354-1.556,2.166-1.738a4.079,4.079,0,0,1,3.081.445c.965.776.62,2.1-.21,3.045-.874.99-1.847,1.892-2.762,2.847-.639.667-1.252,1.358-2.024,2.2,1.373,1.416,2.634,2.67,3.844,3.972,1.825,1.964,2.09,3.542.844,4.681s-2.732.829-4.617-1.108c-1.179-1.211-2.221-2.555-3.827-4.424" transform="translate(-0.117 -139.442)" fill="#ffb74d"/>
    <path id="Trazado_877718" data-name="Trazado 877718" d="M132.856,280.053c-.638.945-1.225,1.93-1.931,2.821a12.318,12.318,0,0,1-1.817,1.785c-1.635,1.354-3.009,1.505-4.057.513-1.118-1.06-.961-2.532.53-4.265.676-.786,1.459-1.479,2.176-2.232.638-.668,1.251-1.36,2.036-2.217l-3.071-3.145c-.529-.54-1.079-1.06-1.583-1.622a2.44,2.44,0,0,1-.38-3.335c.662-.9,2.479-.986,3.633-.1a36.284,36.284,0,0,1,2.673,2.529c.674.634,1.368,1.247,2.214,2.017.77-.635,1.424-1.133,2.029-1.684.628-.572,1.2-1.205,1.812-1.8,1.778-1.717,3.606-2.142,4.711-1.107s.736,2.957-.933,4.714c-1.039,1.094-2.084,2.184-3.109,3.292-.112.121-.107.351-.245.849.559.618,1.227,1.377,1.918,2.113.775.826,1.655,1.569,2.339,2.463.879,1.149,1.108,2.554.033,3.622-1.156,1.149-2.486.66-3.5-.387-1.441-1.483-2.788-3.056-4.175-4.591l-1.3-.235" transform="translate(-83.838 -180.575)" fill="#ffb74d"/>
    <path id="Trazado_877719" data-name="Trazado 877719" d="M133.495,151.747c1.956-2.141,3.233-3.66,4.641-5.046,1.371-1.349,2.848-1.5,3.747-.584A3,3,0,0,1,141.6,150c-1.3,1.482-2.729,2.858-4.406,4.6,1.323,1.383,2.6,2.595,3.716,3.934a6.256,6.256,0,0,1,1.474,2.627,1.965,1.965,0,0,1-2.735,2.39,12.185,12.185,0,0,1-3.229-2.193c-1.007-.815-1.907-1.763-3.055-2.841-1.329,1.252-2.463,2.351-3.634,3.411-.625.566-1.256,1.377-1.988,1.512a3.854,3.854,0,0,1-2.812-.5,1.992,1.992,0,0,1,.045-3.037c1.524-1.653,3.108-3.251,4.821-5.031-1.334-1.375-2.52-2.574-3.68-3.8-2-2.1-2.323-3.719-1.018-4.893,1.246-1.121,2.732-.808,4.622,1.144,1.177,1.215,2.208,2.572,3.778,4.423" transform="translate(-83.83 -98.194)" fill="#ffb74d"/>
    <path id="Trazado_877720" data-name="Trazado 877720" d="M70.83,212.139c1.225-1.189,2.294-2.231,3.369-3.268a17.309,17.309,0,0,1,1.866-1.736,2.413,2.413,0,0,1,3.354.209c1.081,1.078.849,2.224-.124,3.258-.907.964-1.869,1.876-2.785,2.832-.639.667-1.24,1.37-2.09,2.314,1.575,1.611,3.027,3.057,4.434,4.546,1.456,1.541,1.618,2.626.629,3.684-1.036,1.11-2.576,1.062-4.013-.25-1.524-1.392-2.966-2.873-4.626-4.492-1.419,1.368-2.675,2.617-3.976,3.817-.618.57-1.281,1.392-2,1.479A4.1,4.1,0,0,1,62.1,223.8c-.927-.728-.737-1.894.046-2.782.812-.921,1.712-1.764,2.562-2.651.771-.8,1.527-1.622,2.539-2.7-1.443-1.491-2.748-2.812-4.022-4.163-1.764-1.87-2.051-3.086-1.03-4.153,1.145-1.2,2.682-.962,4.43.7,1.356,1.293,2.689,2.61,4.208,4.088" transform="translate(-41.478 -139.367)" fill="#ffb74d"/>
    <path id="Trazado_877721" data-name="Trazado 877721" d="M71.362,151.325c1.445-1.636,2.609-3,3.823-4.307a5.586,5.586,0,0,1,1.527-1.24,2.377,2.377,0,0,1,3.078.6,2.094,2.094,0,0,1-.217,3.054c-1.544,1.635-3.125,3.237-4.894,5.063,1.073,1.174,2,2.2,2.941,3.209.581.62,1.2,1.206,1.79,1.817.964.995,1.332,2.08.362,3.272a2.5,2.5,0,0,1-3.563.251c-1.033-.815-1.911-1.824-2.864-2.74-.673-.647-1.357-1.283-2.292-2.165-1.076,1.027-2.072,1.976-3.066,2.928a25.075,25.075,0,0,1-2.053,1.949,2.563,2.563,0,0,1-3.579-.176c-.956-1.1-.513-2.166.229-3.077.893-1.094,1.948-2.053,2.917-3.086.572-.609,1.112-1.247,1.857-2.087-.751-.852-1.4-1.618-2.083-2.354-.9-.97-1.892-1.859-2.713-2.889-.734-.92-1.162-1.992-.184-3.073a2.507,2.507,0,0,1,3.574-.122c1.7,1.472,3.263,3.1,5.41,5.172" transform="translate(-41.703 -98.144)" fill="#ffb74d"/>
    <path id="Trazado_877722" data-name="Trazado 877722" d="M70.645,96.663c-1.221,1.454-2.228,2.7-3.291,3.9a8.506,8.506,0,0,1-1.677,1.52,2.432,2.432,0,0,1-3.345-.37,2.024,2.024,0,0,1,.09-2.843c.683-.9,1.514-1.686,2.287-2.515.827-.886,1.662-1.764,2.772-2.94-1.588-1.612-3.069-3.03-4.438-4.549a3.682,3.682,0,0,1-1.132-2.134,2.606,2.606,0,0,1,1.249-2,3.281,3.281,0,0,1,2.61.233,19.849,19.849,0,0,1,2.9,2.7c.736.7,1.485,1.392,2.383,2.232,1.44-1.4,2.7-2.658,4-3.878a7.266,7.266,0,0,1,1.765-1.392,2.339,2.339,0,0,1,3.039.754,2.026,2.026,0,0,1-.214,2.836c-1.542,1.655-3.137,3.259-4.909,5.09.58.737,1.041,1.408,1.588,2,.9.973,1.9,1.85,2.774,2.847,1.389,1.593,1.5,2.772.475,3.733-1.081,1.014-2.542.856-4.024-.487-.77-.7-1.474-1.471-2.221-2.2-.671-.653-1.358-1.287-2.682-2.538" transform="translate(-41.687 -56.916)" fill="#ffb74d"/>
    <path id="Trazado_877723" data-name="Trazado 877723" d="M74.638,276.87c1.611,1.632,3.009,3.014,4.367,4.433,1.591,1.662,1.769,2.819.662,3.889-1.077,1.043-2.566.928-4.021-.415-1.508-1.392-2.951-2.855-4.566-4.428-1.55,1.516-2.871,2.852-4.247,4.13A5.755,5.755,0,0,1,65,285.753a2.343,2.343,0,0,1-2.435-3.819c1.567-1.616,3.135-3.231,4.883-5.031-.754-.869-1.334-1.577-1.957-2.246-.645-.692-1.349-1.329-2-2.019-1.765-1.879-2.058-3.086-1.039-4.157,1.141-1.2,2.686-.965,4.434.7,1.358,1.295,2.692,2.615,4.212,4.094,1.224-1.192,2.292-2.238,3.367-3.276a16.9,16.9,0,0,1,1.869-1.736,2.439,2.439,0,0,1,3.361.211c1.052,1.015.653,2.126-.089,3.061-.819,1.033-1.8,1.936-2.71,2.9-.642.682-1.275,1.371-2.262,2.434" transform="translate(-41.746 -180.615)" fill="#ffb74d"/>
    <path id="Trazado_877724" data-name="Trazado 877724" d="M9.271,90.317c1.816-1.789,3.293-3.243,4.768-4.7,1.049-1.036,2.181-1.579,3.484-.45a2.569,2.569,0,0,1-.032,3.8c-1.435,1.615-3,3.115-4.693,4.856,1.169,1.218,2.2,2.292,3.23,3.363.46.477.94.935,1.39,1.422a2.5,2.5,0,0,1,.478,3.346c-.624.929-2.465,1.058-3.631.183a33.332,33.332,0,0,1-2.686-2.525c-.678-.639-1.371-1.262-2.332-2.144C7.927,98.72,6.752,99.9,5.5,101a5.767,5.767,0,0,1-2.3,1.525c-.8.162-2.186-.08-2.5-.62a3.18,3.18,0,0,1,.079-2.809,27.7,27.7,0,0,1,3.285-3.516c.5-.534.952-1.12,1.574-1.859C4.423,92.486,3.3,91.352,2.189,90.212A14.621,14.621,0,0,1,.83,88.765c-.938-1.271-.952-2.84,0-3.609,1.265-1.026,2.45-.69,3.534.373,1.539,1.509,3.086,3.01,4.911,4.789" transform="translate(-0.081 -57.038)" fill="#ffb74d"/>
    <path id="Trazado_877725" data-name="Trazado 877725" d="M5.333,154.508c-1.371-1.424-2.424-2.5-3.453-3.594a7.808,7.808,0,0,1-1.45-1.729c-.567-1.161-.722-2.47.452-3.352a2.3,2.3,0,0,1,3.109.38c1.582,1.478,3.111,3.014,4.882,4.74l3.327-3.167a20.148,20.148,0,0,1,1.86-1.749,2.545,2.545,0,0,1,3.579.255c.969,1.2.6,2.285-.37,3.281-1.506,1.553-3.018,3.1-4.744,4.871,1.14,1.231,2.138,2.321,3.15,3.4.519.552,1.1,1.051,1.589,1.625,1.123,1.308,1.258,2.652.276,3.523a2.582,2.582,0,0,1-3.61-.106c-.953-.77-1.77-1.707-2.657-2.56-.735-.707-1.486-1.4-2.382-2.241-1.571,1.531-2.963,2.929-4.4,4.278s-2.817,1.6-3.763.762c-.975-.86-.9-2.758.292-4.1,1.3-1.468,2.709-2.845,4.313-4.514" transform="translate(0 -98.091)" fill="#ffb74d"/>
    <path id="Trazado_877726" data-name="Trazado 877726" d="M130.181,215.73c-1.7-1.727-3.172-3.169-4.583-4.669s-1.53-2.652-.479-3.681c1.011-.99,2.491-.973,3.806.209,1.6,1.437,3.1,2.981,4.791,4.616,1.593-1.555,2.982-2.953,4.419-4.3s2.814-1.587,3.758-.75c.971.862.892,2.756-.3,4.094-1.3,1.467-2.706,2.843-4.254,4.454.836.933,1.5,1.7,2.186,2.432.775.828,1.653,1.572,2.344,2.463a2.746,2.746,0,0,1,.092,3.649c-.756.936-2.294.82-3.515-.375-1.478-1.446-2.8-3.054-4.4-4.825-1.533,1.453-2.663,2.538-3.809,3.6a13.156,13.156,0,0,1-2.129,1.852,2.337,2.337,0,0,1-3.1-.493,2.062,2.062,0,0,1,.109-3.052c1.542-1.65,3.136-3.25,5.054-5.227" transform="translate(-83.93 -139.441)" fill="#ffb74d"/>
  </g>
</svg>
