<svg id="Grupo_1124937" data-name="Grupo 1124937" xmlns="http://www.w3.org/2000/svg" xmlns:xlink="http://www.w3.org/1999/xlink" width="82.492" height="176.002" viewBox="0 0 82.492 176.002">
  <defs>
    <clipPath id="clip-path">
      <rect id="Rectángulo_413625" data-name="Rectángulo 413625" width="82.492" height="176.001" fill="#ffb74d"/>
    </clipPath>
  </defs>
  <g id="Grupo_1124936" data-name="Grupo 1124936" clip-path="url(#clip-path)">
    <path id="Trazado_896256" data-name="Trazado 896256" d="M59.742,171.684a2.458,2.458,0,0,0,.035-1.956,1.969,1.969,0,0,0-.774-.8,1.953,1.953,0,0,0,.1-1.112,2.4,2.4,0,0,0-1.235-1.5,9.408,9.408,0,0,0-6.389-1.485,9.443,9.443,0,0,0-3.607-6.295,2.4,2.4,0,0,0-1.833-.687,1.963,1.963,0,0,0-1.017.462,1.955,1.955,0,0,0-1.014-.469c-1.451-.208-2.877,1.448-3.655,2.481a9.652,9.652,0,0,0-1.838,4.458,9.391,9.391,0,0,0-6.387,1.426,2.4,2.4,0,0,0-1.261,1.5,1.962,1.962,0,0,0,.1,1.113,1.962,1.962,0,0,0-.781.8,2.539,2.539,0,0,0,.017,1.942,9.438,9.438,0,0,0,4.142,5.24A9.435,9.435,0,0,0,32.29,184a2.424,2.424,0,0,0,.811,1.782,1.95,1.95,0,0,0,1.045.392,1.955,1.955,0,0,0,.384,1.049,2.42,2.42,0,0,0,1.761.822,9.538,9.538,0,0,0,8.632-3.407,9.624,9.624,0,0,0,7.367,3.563c.985,0,2.348-.035,3.006-.9a1.958,1.958,0,0,0,.392-1.046,1.957,1.957,0,0,0,1.049-.384,2.468,2.468,0,0,0,.822-1.761,9.45,9.45,0,0,0-2-7.229A9.425,9.425,0,0,0,59.742,171.684Zm-7.494,3.093a1.622,1.622,0,0,0-.519,2.92,6.3,6.3,0,0,1,2.685,5.126,2.046,2.046,0,0,0-1.6.572,1.916,1.916,0,0,0-.553,1.556,6.143,6.143,0,0,1-5.765-4.163,1.622,1.622,0,0,0-1.554-1.179h-.006a1.623,1.623,0,0,0-1.558,1.167,6.142,6.142,0,0,1-5.782,4.121h-.014a1.923,1.923,0,0,0-.542-1.561,2.043,2.043,0,0,0-1.594-.584,6.3,6.3,0,0,1,2.725-5.106,1.622,1.622,0,0,0-.5-2.924,6.381,6.381,0,0,1-4.077-3.353,1.921,1.921,0,0,0,1.174-1.159,2.047,2.047,0,0,0-.158-1.69,6.4,6.4,0,0,1,4.895-.17,1.623,1.623,0,0,0,2.194-1.681,6.367,6.367,0,0,1,1.792-5.029,1.919,1.919,0,0,0,1.487.721h.007a2.048,2.048,0,0,0,1.532-.714,6.363,6.363,0,0,1,1.76,5.047,1.622,1.622,0,0,0,2.181,1.7,6.39,6.39,0,0,1,4.893.208,2.044,2.044,0,0,0-.172,1.687,1.921,1.921,0,0,0,1.165,1.169A6.382,6.382,0,0,1,52.248,174.777Z" transform="translate(-3.732 -19.635)" fill="#ffb74d"/>
    <path id="Trazado_896257" data-name="Trazado 896257" d="M49.27,175.293l-1.014-.808.006-1.735a1.622,1.622,0,0,0-1.615-1.629h-.007a1.622,1.622,0,0,0-1.622,1.616l-.007,1.735-1.02.8a1.622,1.622,0,1,0,2,2.553l.629-.494.625.5a1.622,1.622,0,1,0,2.023-2.537Z" transform="translate(-5.396 -21.29)" fill="#ffb74d"/>
    <path id="Trazado_896258" data-name="Trazado 896258" d="M30.056,133.616a10.97,10.97,0,0,0,1.381,2.96,9.7,9.7,0,0,0,2.413,2.394c.159.111.323.217.489.318a9.427,9.427,0,0,0-2.054,7.2,2.4,2.4,0,0,0,.81,1.782,1.963,1.963,0,0,0,1.046.392,1.96,1.96,0,0,0,.384,1.05,2.363,2.363,0,0,0,1.76.821,9.537,9.537,0,0,0,8.633-3.407,9.626,9.626,0,0,0,7.37,3.562,8.8,8.8,0,0,0,1.735-.172,2.043,2.043,0,0,0,1.268-.725,1.957,1.957,0,0,0,.392-1.045,1.958,1.958,0,0,0,1.05-.385,2.4,2.4,0,0,0,.821-1.76,9.45,9.45,0,0,0-2-7.229,9.243,9.243,0,0,0,4.039-4.839,2.752,2.752,0,0,0,.174-2.312,1.963,1.963,0,0,0-.775-.806,1.964,1.964,0,0,0,.1-1.111,2.374,2.374,0,0,0-1.235-1.5,9.412,9.412,0,0,0-6.39-1.486,14.6,14.6,0,0,0-.386-1.71,9.588,9.588,0,0,0-2.783-4.244,4.456,4.456,0,0,0-1.251-.911,2.055,2.055,0,0,0-1.02-.116,1.96,1.96,0,0,0-1.017.462,1.963,1.963,0,0,0-1.014-.47,2.353,2.353,0,0,0-1.826.664,9.461,9.461,0,0,0-3.667,6.276q-.3-.039-.6-.06a9.767,9.767,0,0,0-2.389.132,9.28,9.28,0,0,0-1.987.594,5.651,5.651,0,0,0-2.319,1.487,1.944,1.944,0,0,0-.256,1.887,1.945,1.945,0,0,0-.906,2.309Zm4.713-.918a2.044,2.044,0,0,0-.159-1.688,6.391,6.391,0,0,1,4.9-.17A1.622,1.622,0,0,0,41.7,129.16a6.365,6.365,0,0,1,1.794-5.028,1.92,1.92,0,0,0,1.485.72h.008a2.044,2.044,0,0,0,1.531-.714,6.357,6.357,0,0,1,1.76,5.047,1.623,1.623,0,0,0,2.182,1.7,6.389,6.389,0,0,1,4.893.208,2.041,2.041,0,0,0-.172,1.687,1.918,1.918,0,0,0,1.165,1.17,6.379,6.379,0,0,1-4.1,3.321,1.623,1.623,0,0,0-.519,2.92,6.3,6.3,0,0,1,2.685,5.126,2.051,2.051,0,0,0-1.6.572,1.924,1.924,0,0,0-.553,1.557,6.144,6.144,0,0,1-5.764-4.164,1.623,1.623,0,0,0-1.555-1.179h-.006a1.623,1.623,0,0,0-1.557,1.167,6.143,6.143,0,0,1-5.789,4.118h-.008a1.922,1.922,0,0,0-.541-1.559,2.04,2.04,0,0,0-1.594-.584,6.3,6.3,0,0,1,2.726-5.106,1.622,1.622,0,0,0-.5-2.924A6.382,6.382,0,0,1,33.6,133.86,1.924,1.924,0,0,0,34.77,132.7Z" transform="translate(-3.727 -14.968)" fill="#ffb74d"/>
    <path id="Trazado_896259" data-name="Trazado 896259" d="M44.992,140.662a1.615,1.615,0,0,0,1-.346l.63-.494.625.5a1.623,1.623,0,0,0,2.023-2.538l-1.015-.808.007-1.735a1.623,1.623,0,0,0-1.616-1.629h-.006a1.623,1.623,0,0,0-1.622,1.616l-.006,1.735-1.021.8a1.622,1.622,0,0,0,1,2.9Z" transform="translate(-5.396 -16.623)" fill="#ffb74d"/>
    <path id="Trazado_896260" data-name="Trazado 896260" d="M44.992,103.154a1.619,1.619,0,0,0,1-.346l.629-.494.625.5a1.622,1.622,0,0,0,2.023-2.537l-1.014-.808.006-1.735A1.622,1.622,0,0,0,46.646,96.1H46.64a1.623,1.623,0,0,0-1.622,1.616l-.007,1.735-1.02.8a1.622,1.622,0,0,0,1,2.9Z" transform="translate(-5.396 -11.956)" fill="#ffb74d"/>
    <path id="Trazado_896261" data-name="Trazado 896261" d="M30.185,94.6a2.413,2.413,0,0,0,.016,1.943,9.435,9.435,0,0,0,4.142,5.24,9.438,9.438,0,0,0-2.054,7.2,2.384,2.384,0,0,0,.81,1.78,1.957,1.957,0,0,0,1.046.392,1.964,1.964,0,0,0,.384,1.049,2.38,2.38,0,0,0,1.761.822,9.532,9.532,0,0,0,8.632-3.407,9.628,9.628,0,0,0,7.37,3.563c.979,0,2.353-.044,3-.9a1.961,1.961,0,0,0,.393-1.047,1.957,1.957,0,0,0,1.049-.384,2.451,2.451,0,0,0,.822-1.76,9.449,9.449,0,0,0-2-7.23,9.42,9.42,0,0,0,4.177-5.194,2.351,2.351,0,0,0,.035-1.957,1.951,1.951,0,0,0-.774-.8,1.955,1.955,0,0,0,.1-1.113,2.394,2.394,0,0,0-1.235-1.5,9.416,9.416,0,0,0-6.39-1.485,9.447,9.447,0,0,0-3.607-6.295,2.328,2.328,0,0,0-1.833-.686,1.963,1.963,0,0,0-1.017.462,1.954,1.954,0,0,0-1.013-.47,2.373,2.373,0,0,0-1.826.664,9.452,9.452,0,0,0-3.666,6.275,9.4,9.4,0,0,0-6.392,1.43,2.367,2.367,0,0,0-1.256,1.5,1.956,1.956,0,0,0,.1,1.113,1.953,1.953,0,0,0-.781.8m4.587.595a2.048,2.048,0,0,0-.158-1.69,6.4,6.4,0,0,1,4.895-.17A1.622,1.622,0,0,0,41.7,91.65a6.364,6.364,0,0,1,1.792-5.028,1.921,1.921,0,0,0,1.487.721h.007a2.047,2.047,0,0,0,1.532-.714,6.363,6.363,0,0,1,1.76,5.047,1.621,1.621,0,0,0,2.181,1.7,6.392,6.392,0,0,1,4.893.208,2.046,2.046,0,0,0-.172,1.688,1.923,1.923,0,0,0,1.165,1.169,6.382,6.382,0,0,1-4.1,3.321,1.622,1.622,0,0,0-.52,2.919,6.3,6.3,0,0,1,2.685,5.127,2.033,2.033,0,0,0-1.6.572,1.919,1.919,0,0,0-.554,1.556,6.144,6.144,0,0,1-5.764-4.163,1.623,1.623,0,0,0-1.554-1.179h-.006a1.623,1.623,0,0,0-1.558,1.167,6.141,6.141,0,0,1-5.789,4.119h-.007a1.923,1.923,0,0,0-.542-1.559,2.04,2.04,0,0,0-1.594-.584,6.3,6.3,0,0,1,2.725-5.106,1.622,1.622,0,0,0-.5-2.924A6.382,6.382,0,0,1,33.6,96.351,1.923,1.923,0,0,0,34.772,95.19Z" transform="translate(-3.73 -10.301)" fill="#ffb74d"/>
    <path id="Trazado_896262" data-name="Trazado 896262" d="M25.7,175.682a1.622,1.622,0,0,0-3.245,0v4.323a1.622,1.622,0,0,0,3.245,0Z" transform="translate(-2.794 -21.655)" fill="#ffb74d"/>
    <path id="Trazado_896263" data-name="Trazado 896263" d="M25.7,162.107a1.622,1.622,0,1,0-3.245,0v4.322a1.622,1.622,0,1,0,3.245,0Z" transform="translate(-2.794 -19.966)" fill="#ffb74d"/>
    <path id="Trazado_896264" data-name="Trazado 896264" d="M25.7,121.381a1.622,1.622,0,0,0-3.245,0V125.7a1.622,1.622,0,1,0,3.245,0Z" transform="translate(-2.794 -14.899)" fill="#ffb74d"/>
    <path id="Trazado_896265" data-name="Trazado 896265" d="M25.7,134.956a1.622,1.622,0,1,0-3.245,0v4.322a1.622,1.622,0,1,0,3.245,0Z" transform="translate(-2.794 -16.588)" fill="#ffb74d"/>
    <path id="Trazado_896266" data-name="Trazado 896266" d="M25.7,107.805a1.622,1.622,0,1,0-3.245,0v4.323a1.622,1.622,0,0,0,3.245,0Z" transform="translate(-2.794 -13.21)" fill="#ffb74d"/>
    <path id="Trazado_896267" data-name="Trazado 896267" d="M25.7,94.23a1.622,1.622,0,1,0-3.245,0v4.323a1.622,1.622,0,0,0,3.245,0Z" transform="translate(-2.794 -11.521)" fill="#ffb74d"/>
    <path id="Trazado_896268" data-name="Trazado 896268" d="M25.7,148.532a1.622,1.622,0,1,0-3.245,0v4.322a1.622,1.622,0,0,0,3.245,0Z" transform="translate(-2.794 -18.277)" fill="#ffb74d"/>
    <path id="Trazado_896269" data-name="Trazado 896269" d="M24.08,187.636a1.622,1.622,0,0,0-1.622,1.622v2.163a1.622,1.622,0,0,0,3.245,0v-2.163a1.622,1.622,0,0,0-1.622-1.622" transform="translate(-2.794 -23.344)" fill="#ffb74d"/>
    <path id="Trazado_896270" data-name="Trazado 896270" d="M68.049,180.005a1.622,1.622,0,1,0,3.245,0v-4.323a1.622,1.622,0,0,0-3.245,0Z" transform="translate(-8.466 -21.655)" fill="#ffb74d"/>
    <path id="Trazado_896271" data-name="Trazado 896271" d="M68.049,125.7a1.622,1.622,0,1,0,3.245,0v-4.322a1.622,1.622,0,0,0-3.245,0Z" transform="translate(-8.466 -14.899)" fill="#ffb74d"/>
    <path id="Trazado_896272" data-name="Trazado 896272" d="M68.049,152.854a1.622,1.622,0,0,0,3.245,0v-4.322a1.622,1.622,0,1,0-3.245,0Z" transform="translate(-8.466 -18.277)" fill="#ffb74d"/>
    <path id="Trazado_896273" data-name="Trazado 896273" d="M68.049,166.43a1.622,1.622,0,1,0,3.245,0v-4.322a1.622,1.622,0,1,0-3.245,0Z" transform="translate(-8.466 -19.966)" fill="#ffb74d"/>
    <path id="Trazado_896274" data-name="Trazado 896274" d="M68.049,139.279a1.622,1.622,0,1,0,3.245,0v-4.322a1.622,1.622,0,1,0-3.245,0Z" transform="translate(-8.466 -16.588)" fill="#ffb74d"/>
    <path id="Trazado_896275" data-name="Trazado 896275" d="M68.049,112.34a1.622,1.622,0,1,0,3.245,0v-4.322a1.622,1.622,0,1,0-3.245,0Z" transform="translate(-8.466 -13.237)" fill="#ffb74d"/>
    <path id="Trazado_896276" data-name="Trazado 896276" d="M68.049,98.765a1.622,1.622,0,0,0,3.245,0V94.443a1.622,1.622,0,1,0-3.245,0Z" transform="translate(-8.466 -11.548)" fill="#ffb74d"/>
    <path id="Trazado_896277" data-name="Trazado 896277" d="M68.049,191.421a1.622,1.622,0,0,0,3.245,0v-2.164a1.622,1.622,0,0,0-3.245,0Z" transform="translate(-8.466 -23.344)" fill="#ffb74d"/>
    <path id="Trazado_896278" data-name="Trazado 896278" d="M48.433,181.575H16.928V70.886H13.683V181.575H10.743a7.5,7.5,0,0,1-4.318-13.629,1.622,1.622,0,0,0,0-2.65,7.495,7.495,0,0,1,0-12.259,1.622,1.622,0,0,0,0-2.65,7.494,7.494,0,0,1,0-12.258,1.622,1.622,0,0,0,0-2.65,7.495,7.495,0,0,1,0-12.259,1.622,1.622,0,0,0,0-2.65,7.494,7.494,0,0,1,0-12.258,1.622,1.622,0,0,0,0-2.65A7.517,7.517,0,0,1,3.3,100.485a1.622,1.622,0,1,0-3.219.409,10.756,10.756,0,0,0,2.925,6.091,10.732,10.732,0,0,0,0,14.909,10.734,10.734,0,0,0,0,14.91,10.734,10.734,0,0,0,0,14.91,10.732,10.732,0,0,0,0,14.909,10.741,10.741,0,0,0,7.732,18.2h37.69a1.622,1.622,0,0,0,0-3.245" transform="translate(0 -8.819)" fill="#ffb74d"/>
    <path id="Trazado_896279" data-name="Trazado 896279" d="M30.213,25.009a2.458,2.458,0,0,0-.035,1.956,1.964,1.964,0,0,0,.774.8,1.953,1.953,0,0,0-.1,1.112,2.4,2.4,0,0,0,1.235,1.5,9.408,9.408,0,0,0,6.389,1.485,9.443,9.443,0,0,0,3.607,6.295,2.4,2.4,0,0,0,1.833.687,1.964,1.964,0,0,0,1.017-.462,1.955,1.955,0,0,0,1.014.469c1.451.208,2.877-1.448,3.655-2.481a9.652,9.652,0,0,0,1.838-4.458,9.391,9.391,0,0,0,6.387-1.426,2.4,2.4,0,0,0,1.261-1.5,1.962,1.962,0,0,0-.1-1.113,1.962,1.962,0,0,0,.781-.8,2.54,2.54,0,0,0-.017-1.942A9.441,9.441,0,0,0,55.61,19.9a9.435,9.435,0,0,0,2.054-7.2,2.424,2.424,0,0,0-.811-1.782,1.95,1.95,0,0,0-1.045-.392,1.955,1.955,0,0,0-.384-1.049,2.42,2.42,0,0,0-1.761-.822,9.538,9.538,0,0,0-8.632,3.407A9.624,9.624,0,0,0,37.663,8.5c-.985,0-2.348.035-3.006.9a1.957,1.957,0,0,0-.392,1.046,1.955,1.955,0,0,0-1.049.384,2.468,2.468,0,0,0-.822,1.761,9.45,9.45,0,0,0,2,7.229A9.425,9.425,0,0,0,30.213,25.009Zm7.494-3.093A1.622,1.622,0,0,0,38.226,19a6.3,6.3,0,0,1-2.685-5.126,2.046,2.046,0,0,0,1.6-.572,1.916,1.916,0,0,0,.553-1.556,6.143,6.143,0,0,1,5.765,4.163,1.622,1.622,0,0,0,1.554,1.179h.006a1.623,1.623,0,0,0,1.558-1.167A6.142,6.142,0,0,1,52.356,11.8h.014a1.923,1.923,0,0,0,.542,1.561,2.043,2.043,0,0,0,1.594.584,6.3,6.3,0,0,1-2.725,5.106,1.622,1.622,0,0,0,.5,2.924,6.381,6.381,0,0,1,4.077,3.353,1.921,1.921,0,0,0-1.174,1.159,2.047,2.047,0,0,0,.158,1.69,6.4,6.4,0,0,1-4.895.17,1.623,1.623,0,0,0-2.194,1.681,6.367,6.367,0,0,1-1.792,5.029,1.919,1.919,0,0,0-1.487-.721h-.007a2.047,2.047,0,0,0-1.532.714A6.363,6.363,0,0,1,41.671,30a1.622,1.622,0,0,0-2.181-1.7,6.39,6.39,0,0,1-4.893-.208,2.044,2.044,0,0,0,.172-1.687A1.921,1.921,0,0,0,33.6,25.237,6.381,6.381,0,0,1,37.707,21.916Z" transform="translate(-3.73 -1.057)" fill="#ffb74d"/>
    <path id="Trazado_896280" data-name="Trazado 896280" d="M44.018,24.712l1.014.808-.006,1.735a1.622,1.622,0,0,0,1.615,1.629h.007a1.622,1.622,0,0,0,1.622-1.616l.007-1.735,1.02-.8a1.622,1.622,0,1,0-2-2.553l-.629.494-.625-.5a1.622,1.622,0,1,0-2.023,2.537" transform="translate(-5.4 -2.715)" fill="#ffb74d"/>
    <path id="Trazado_896281" data-name="Trazado 896281" d="M59.893,63.076a10.97,10.97,0,0,0-1.381-2.96A9.7,9.7,0,0,0,56.1,57.722c-.159-.111-.323-.217-.489-.318a9.427,9.427,0,0,0,2.054-7.2,2.4,2.4,0,0,0-.81-1.782,1.963,1.963,0,0,0-1.046-.392,1.96,1.96,0,0,0-.384-1.05,2.363,2.363,0,0,0-1.76-.821,9.537,9.537,0,0,0-8.633,3.407,9.626,9.626,0,0,0-7.37-3.562,8.8,8.8,0,0,0-1.735.172,2.043,2.043,0,0,0-1.268.725,1.957,1.957,0,0,0-.392,1.045,1.958,1.958,0,0,0-1.05.385,2.4,2.4,0,0,0-.821,1.76,9.45,9.45,0,0,0,2,7.229,9.243,9.243,0,0,0-4.039,4.839,2.752,2.752,0,0,0-.174,2.312,1.963,1.963,0,0,0,.775.806,1.964,1.964,0,0,0-.1,1.111,2.374,2.374,0,0,0,1.235,1.5,9.412,9.412,0,0,0,6.39,1.486,14.6,14.6,0,0,0,.386,1.71,9.588,9.588,0,0,0,2.783,4.244,4.456,4.456,0,0,0,1.251.911,2.055,2.055,0,0,0,1.02.116,1.96,1.96,0,0,0,1.017-.462,1.963,1.963,0,0,0,1.014.47,2.353,2.353,0,0,0,1.826-.664,9.461,9.461,0,0,0,3.667-6.276q.3.039.6.06a9.768,9.768,0,0,0,2.389-.132,9.281,9.281,0,0,0,1.987-.594,5.651,5.651,0,0,0,2.319-1.487,1.944,1.944,0,0,0,.256-1.887,1.945,1.945,0,0,0,.906-2.309Zm-4.713.918a2.044,2.044,0,0,0,.159,1.688,6.391,6.391,0,0,1-4.9.17,1.622,1.622,0,0,0-2.193,1.681,6.365,6.365,0,0,1-1.794,5.028,1.92,1.92,0,0,0-1.485-.72h-.008a2.044,2.044,0,0,0-1.531.714,6.357,6.357,0,0,1-1.76-5.047,1.623,1.623,0,0,0-2.182-1.7A6.389,6.389,0,0,1,34.6,65.6a2.041,2.041,0,0,0,.172-1.687,1.918,1.918,0,0,0-1.165-1.17,6.379,6.379,0,0,1,4.1-3.321,1.623,1.623,0,0,0,.519-2.92,6.3,6.3,0,0,1-2.685-5.126,2.051,2.051,0,0,0,1.6-.572,1.923,1.923,0,0,0,.553-1.557,6.144,6.144,0,0,1,5.764,4.164,1.623,1.623,0,0,0,1.555,1.179h.006a1.623,1.623,0,0,0,1.557-1.167,6.143,6.143,0,0,1,5.789-4.118h.008a1.922,1.922,0,0,0,.541,1.559,2.04,2.04,0,0,0,1.594.584,6.3,6.3,0,0,1-2.726,5.106,1.622,1.622,0,0,0,.5,2.924,6.382,6.382,0,0,1,4.076,3.353A1.924,1.924,0,0,0,55.18,63.994Z" transform="translate(-3.73 -5.724)" fill="#ffb74d"/>
    <path id="Trazado_896282" data-name="Trazado 896282" d="M48.3,59.342a1.615,1.615,0,0,0-1,.346l-.63.494-.625-.5a1.623,1.623,0,0,0-2.023,2.538l1.015.808-.007,1.735a1.623,1.623,0,0,0,1.616,1.629h.006a1.623,1.623,0,0,0,1.622-1.616l.006-1.735,1.021-.8a1.622,1.622,0,0,0-1-2.9Z" transform="translate(-5.4 -7.381)" fill="#ffb74d"/>
    <path id="Trazado_896283" data-name="Trazado 896283" d="M68.049,24.25a1.622,1.622,0,1,0,3.245,0V19.928a1.622,1.622,0,0,0-3.245,0Z" transform="translate(-8.466 -2.277)" fill="#ffb74d"/>
    <path id="Trazado_896284" data-name="Trazado 896284" d="M68.049,37.826a1.622,1.622,0,1,0,3.245,0V33.5a1.622,1.622,0,1,0-3.245,0Z" transform="translate(-8.466 -3.966)" fill="#ffb74d"/>
    <path id="Trazado_896285" data-name="Trazado 896285" d="M68.049,82.554a1.622,1.622,0,0,0,3.245,0V78.232a1.622,1.622,0,1,0-3.245,0Z" transform="translate(-8.466 -9.531)" fill="#ffb74d"/>
    <path id="Trazado_896286" data-name="Trazado 896286" d="M68.049,64.977a1.622,1.622,0,1,0,3.245,0V60.655a1.622,1.622,0,1,0-3.245,0Z" transform="translate(-8.466 -7.344)" fill="#ffb74d"/>
    <path id="Trazado_896287" data-name="Trazado 896287" d="M68.049,51.4a1.622,1.622,0,1,0,3.245,0V47.079a1.622,1.622,0,1,0-3.245,0Z" transform="translate(-8.466 -5.655)" fill="#ffb74d"/>
    <path id="Trazado_896288" data-name="Trazado 896288" d="M69.671,12.6a1.622,1.622,0,0,0,1.622-1.622V8.818a1.622,1.622,0,1,0-3.245,0v2.163A1.622,1.622,0,0,0,69.671,12.6" transform="translate(-8.466 -0.895)" fill="#ffb74d"/>
    <path id="Trazado_896289" data-name="Trazado 896289" d="M25.7,19.928a1.622,1.622,0,1,0-3.245,0v4.323a1.622,1.622,0,0,0,3.245,0Z" transform="translate(-2.794 -2.277)" fill="#ffb74d"/>
    <path id="Trazado_896290" data-name="Trazado 896290" d="M25.7,74.23a1.622,1.622,0,1,0-3.245,0v4.322a1.622,1.622,0,0,0,3.245,0Z" transform="translate(-2.794 -9.033)" fill="#ffb74d"/>
    <path id="Trazado_896291" data-name="Trazado 896291" d="M25.7,47.079a1.622,1.622,0,1,0-3.245,0V51.4a1.622,1.622,0,0,0,3.245,0Z" transform="translate(-2.794 -5.655)" fill="#ffb74d"/>
    <path id="Trazado_896292" data-name="Trazado 896292" d="M25.7,33.5a1.622,1.622,0,1,0-3.245,0v4.322a1.622,1.622,0,1,0,3.245,0Z" transform="translate(-2.794 -3.966)" fill="#ffb74d"/>
    <path id="Trazado_896293" data-name="Trazado 896293" d="M25.7,60.654a1.622,1.622,0,0,0-3.245,0v4.322a1.622,1.622,0,1,0,3.245,0Z" transform="translate(-2.794 -7.344)" fill="#ffb74d"/>
    <path id="Trazado_896294" data-name="Trazado 896294" d="M25.7,8.818a1.622,1.622,0,0,0-3.245,0v2.164a1.622,1.622,0,0,0,3.245,0Z" transform="translate(-2.794 -0.895)" fill="#ffb74d"/>
    <path id="Trazado_896295" data-name="Trazado 896295" d="M2.977,62.887H7.108A1.618,1.618,0,0,0,6.427,61.6a7.494,7.494,0,0,1,0-12.258,1.622,1.622,0,0,0,0-2.65,7.494,7.494,0,0,1,0-12.258,1.623,1.623,0,0,0,0-2.651,7.494,7.494,0,0,1,0-12.258,1.623,1.623,0,0,0,0-2.651A7.5,7.5,0,0,1,10.744,3.245h2.939V62.887h3.244V3.245h9.616a1.622,1.622,0,0,0,0-3.245h-15.8A10.741,10.741,0,0,0,3.011,18.2a10.734,10.734,0,0,0,0,14.91,10.732,10.732,0,0,0,0,14.909,10.729,10.729,0,0,0-.034,14.87" fill="#ffb74d"/>
    <path id="Trazado_896296" data-name="Trazado 896296" d="M6.364,91.42a5.587,5.587,0,0,1-1.938-1.854A7.645,7.645,0,0,1,7.274,78.691a2.08,2.08,0,0,0-3.422-1.584,10.719,10.719,0,0,0-.841,15.68q-.3.314-.581.652a1.681,1.681,0,0,0,.011,2.193A1.624,1.624,0,0,0,4.9,95.55,7.126,7.126,0,0,1,6.4,94.128a1.622,1.622,0,0,0-.041-2.707" transform="translate(0 -9.532)" fill="#ffb74d"/>
    <path id="Trazado_896297" data-name="Trazado 896297" d="M70.205,59.614l3.164.6a.04.04,0,0,0,.048-.039V3.284a.04.04,0,0,1,.04-.04h2.617a7.723,7.723,0,0,1,7.2,4.594,7.509,7.509,0,0,1-2.6,9.035,1.622,1.622,0,0,0,0,2.65,7.495,7.495,0,0,1,0,12.259,1.622,1.622,0,0,0,0,2.65,7.494,7.494,0,0,1,0,12.258,1.622,1.622,0,0,0,0,2.65,7.487,7.487,0,0,1,2.047,10.089A1.8,1.8,0,0,0,83.87,62.2l.71.135a.04.04,0,0,0,.039-.015,10.71,10.71,0,0,0-.506-14.274.039.039,0,0,1,0-.053,10.73,10.73,0,0,0,0-14.856.038.038,0,0,1,0-.053,10.732,10.732,0,0,0,0-14.857.038.038,0,0,1,0-.053A10.743,10.743,0,0,0,86.689,7.8,11.016,11.016,0,0,0,76,0H38.786a1.706,1.706,0,0,0-1.724,1.381,1.623,1.623,0,0,0,1.6,1.864H70.133a.04.04,0,0,1,.04.04v56.29a.04.04,0,0,0,.032.039" transform="translate(-4.609)" fill="#ffb74d"/>
    <path id="Trazado_896298" data-name="Trazado 896298" d="M87.2,106.553a10.734,10.734,0,0,0,0-14.91,10.726,10.726,0,0,0-2.1-16.593,1.441,1.441,0,0,0-2.207,1.214,2.306,2.306,0,0,0,.978,1.861,7.666,7.666,0,0,1,1.92,10.294,5.584,5.584,0,0,1-1.938,1.856,1.622,1.622,0,0,0-.064,2.692,7.495,7.495,0,0,1,0,12.259,1.622,1.622,0,0,0,0,2.65,7.494,7.494,0,0,1,0,12.258,1.622,1.622,0,0,0,0,2.65,7.495,7.495,0,0,1,0,12.259,1.622,1.622,0,0,0,0,2.65,7.494,7.494,0,0,1,0,12.258,1.622,1.622,0,0,0,0,2.65,7.495,7.495,0,0,1,0,12.259,1.622,1.622,0,0,0,.063,2.692,5.555,5.555,0,0,1,1.918,1.82c3.344,5.805-.794,11.766-6.3,11.766H76.527V85.925h-.02V67.418H73.282V181.144H63.753a1.682,1.682,0,0,0-1.686,1.35,1.624,1.624,0,0,0,1.6,1.895H79.146a10.991,10.991,0,0,0,10.645-7.772A10.744,10.744,0,0,0,87.2,166.19a10.732,10.732,0,0,0,0-14.909,10.734,10.734,0,0,0,0-14.91,10.734,10.734,0,0,0,0-14.91,10.732,10.732,0,0,0,0-14.909" transform="translate(-7.719 -8.388)" fill="#ffb74d"/>
  </g>
</svg>
