<svg xmlns="http://www.w3.org/2000/svg" xmlns:xlink="http://www.w3.org/1999/xlink" width="400" height="158" viewBox="0 0 400 158">
  <defs>
    <clipPath id="clip-path">
      <rect id="Rect치ngulo_415784" data-name="Rect치ngulo 415784" width="400" height="158" transform="translate(1020.051 15024)" fill="#fff" stroke="#707070" stroke-width="1"/>
    </clipPath>
    <clipPath id="clip-path-2">
      <rect id="Rect치ngulo_415783" data-name="Rect치ngulo 415783" width="400" height="168.941" fill="none"/>
    </clipPath>
  </defs>
  <g id="Enmascarar_grupo_1098798" data-name="Enmascarar grupo 1098798" transform="translate(-1020.051 -15024)" clip-path="url(#clip-path)">
    <g id="Grupo_1129177" data-name="Grupo 1129177" transform="translate(1020 15024.226)">
      <g id="Grupo_1129176" data-name="Grupo 1129176" transform="translate(0 0)" clip-path="url(#clip-path-2)">
        <path id="Trazado_898722" data-name="Trazado 898722" d="M2.51,111.429a2.4,2.4,0,0,1-2.395-2.271C-1.071,86.8,6.988,64.733,21.152,51.573a2.4,2.4,0,0,1,3.265,3.516C11.269,67.306,3.794,87.926,4.908,108.9a2.4,2.4,0,0,1-2.269,2.523c-.043,0-.086,0-.129,0" transform="translate(0 36.498)" fill="#ffb74d"/>
        <path id="Trazado_898723" data-name="Trazado 898723" d="M16.942,40.949a7.836,7.836,0,0,0-7.84,7.84v82.969a7.84,7.84,0,1,0,15.679,0V48.789a7.84,7.84,0,0,0-7.84-7.84m0,34.721c-2.42,0-4.388-6.176-4.388-13.784s1.967-13.774,4.388-13.774,4.388,6.166,4.388,13.774S19.371,75.67,16.942,75.67" transform="translate(6.522 29.343)" fill="#dddad9"/>
        <path id="Trazado_898724" data-name="Trazado 898724" d="M142.073,110.28c-1.179,0-2.376-.019-3.6-.06-15.926-.525-31.417-8.418-46.4-16.05C66.265,81.018,41.883,68.6,15.865,91.625a2.4,2.4,0,1,1-3.181-3.593c28.466-25.2,55.465-11.439,81.575,1.862,14.512,7.4,29.517,15.041,44.377,15.532,16.306.541,30.552-2.867,41.946-9.829-.659-.407-1.3-.815-1.919-1.219-21.717-14.124-32.876-34.122-31.427-56.311,1.128-17.288,11.6-36.548,31.916-37.988,11.158-.793,20.805,4.37,27.172,14.531,10.427,16.641,9.743,43.057-1.624,62.817a63.345,63.345,0,0,1-15.185,17.737c10.361,5.376,23.783,9.862,38.376,8.4a46.65,46.65,0,0,0,24.394-9.427c-9.249-8.816-14.3-19.667-14.018-26.415a19.6,19.6,0,0,1,7.476-14.21,14.78,14.78,0,0,1,12.2-3.134c8.583,1.8,13.578,9.221,13.036,19.37-.441,8.248-4.37,17.1-11.417,24.276a46.789,46.789,0,0,0,10.471,6.219c12.905,5.476,33.293,6.756,57.123-18.256a2.4,2.4,0,1,1,3.474,3.311c-27.081,28.421-50.766,24.329-62.472,19.361a52.385,52.385,0,0,1-12.22-7.328,51.072,51.072,0,0,1-27.575,11.008c-16.713,1.674-31.879-3.833-43.136-10.02-10.044,6.756-24,11.965-43.16,11.965M181.419,4.8c-.628,0-1.269.024-1.926.07C162.044,6.1,153.021,23.105,152.024,38.38c-1.8,27.5,17.559,44.369,29.256,51.976,1.16.755,2.389,1.521,3.684,2.283a57.419,57.419,0,0,0,15.578-17.605c10.535-18.311,11.256-42.652,1.717-57.876-3.6-5.739-10.08-12.361-20.839-12.361m73.765,50.09a10.633,10.633,0,0,0-6.492,2.408,14.675,14.675,0,0,0-5.629,10.624c-.23,5.533,4.558,15.149,12.874,22.982,6.338-6.334,9.867-14.143,10.257-21.414.412-7.728-3.038-13.118-9.23-14.416a8.606,8.606,0,0,0-1.78-.184" transform="translate(8.509 0)" fill="#ffb74d"/>
        <path id="Trazado_898725" data-name="Trazado 898725" d="M236.412,3.662c0-2.427-31.97-2.427-31.97,0l-2.518,29.606h37.763Z" transform="translate(144.695 1.32)" fill="#ad666f"/>
        <path id="Trazado_898726" data-name="Trazado 898726" d="M251.87,21.528c-.573-3.691-50.761-3.7-51.267,0-3.244,23.685-5.21,52.325-6.3,87.723-.017.542,63.908.542,63.908,0,.783-33.355-3.109-66.882-6.341-87.723" transform="translate(139.234 13.44)" fill="#ffe680"/>
        <path id="Trazado_898727" data-name="Trazado 898727" d="M258.578,85.7a2.428,2.428,0,0,1-.481-.048c-47.86-9.731-63.268-45.562-63.9-47.082a2.4,2.4,0,0,1,4.429-1.845c.148.348,15.159,35.02,60.429,44.224a2.4,2.4,0,0,1-.475,4.752" transform="translate(139.026 25.255)" fill="#ffb74d"/>
        <path id="Trazado_898728" data-name="Trazado 898728" d="M202.3,68.853a65.435,65.435,0,0,1-7.254-.348,2.4,2.4,0,0,1,.568-4.765c.395.045,39.607,4.326,60.259-23.55a2.4,2.4,0,0,1,3.855,2.856c-16.938,22.86-44.4,25.807-57.428,25.807" transform="translate(138.253 28.103)" fill="#ffb74d"/>
        <path id="Trazado_898729" data-name="Trazado 898729" d="M235.372,44.348c-26.557,0-38.948-13.008-39.574-13.686a2.4,2.4,0,0,1,3.519-3.262c.191.2,17.679,18.275,55.671,9.879a2.4,2.4,0,1,1,1.035,4.685,95.6,95.6,0,0,1-20.651,2.384" transform="translate(139.849 19.086)" fill="#ffb74d"/>
        <path id="Trazado_898730" data-name="Trazado 898730" d="M226.617,32.526a65.049,65.049,0,0,1-29.482-6.918,2.4,2.4,0,0,1,2.338-4.192c.333.185,24.628,13.283,51.8.934a2.4,2.4,0,0,1,1.986,4.369,63.9,63.9,0,0,1-26.64,5.807" transform="translate(140.382 15.13)" fill="#ffb74d"/>
        <path id="Trazado_898731" data-name="Trazado 898731" d="M196.015,80.284c-.446,0-.736-.007-.85-.009a2.4,2.4,0,0,1,.117-4.8c.391.019,39.327.633,62.388-23.988a2.4,2.4,0,1,1,3.5,3.28c-22.889,24.439-59.006,25.514-65.156,25.514" transform="translate(138.176 36.353)" fill="#ffb74d"/>
      </g>
    </g>
  </g>
</svg>
