<svg xmlns="http://www.w3.org/2000/svg" xmlns:xlink="http://www.w3.org/1999/xlink" width="295" height="170" viewBox="0 0 295 170">
  <defs>
    <clipPath id="clip-path">
      <rect id="Rectángulo_413623" data-name="Rectángulo 413623" width="295" height="170" transform="translate(180.051 19960)" fill="#fff" stroke="#707070" stroke-width="1"/>
    </clipPath>
    <clipPath id="clip-path-2">
      <rect id="Rectángulo_413622" data-name="Rectángulo 413622" width="138.47" height="138.651" fill="#ffb74d"/>
    </clipPath>
  </defs>
  <g id="Enmascarar_grupo_1098789" data-name="Enmascarar grupo 1098789" transform="translate(-180.051 -19960)" clip-path="url(#clip-path)">
    <g id="Grupo_1124935" data-name="Grupo 1124935" transform="translate(258.051 19976)">
      <g id="Grupo_1124934" data-name="Grupo 1124934" clip-path="url(#clip-path-2)">
        <path id="Trazado_896252" data-name="Trazado 896252" d="M99.932,83.215H138.47v18.423H110.836v1.625q0,11.481.008,22.962c0,1.211-.088,2.326-1.345,2.935-1.277.619-2.191-.07-3.12-.822-2.807-2.268-5.657-4.485-8.435-6.788a1.271,1.271,0,0,0-1.953.022c-2.862,2.353-5.782,4.636-8.666,6.963-.875.706-1.768,1.179-2.9.619A2.569,2.569,0,0,1,83.1,126.5q.024-11.553.008-23.107v-1.634H71.557v1.633q0,15.958,0,31.917c0,2.664-.669,3.341-3.3,3.342q-8.376,0-16.751,0c-2.276,0-3.046-.762-3.047-3.016q-.007-16.1,0-32.206v-1.657H43.831c0,2.143,0,4.247,0,6.351,0,3.129-.009,6.258,0,9.388a2.381,2.381,0,0,1-1.426,2.445,2.3,2.3,0,0,1-2.739-.682c-2.408-2.421-4.81-4.848-7.633-7.693-.712.907-1.3,1.786-2.016,2.541-1.492,1.57-3.059,3.067-4.581,4.609-.9.911-1.787,1.839-3.243,1.249s-1.487-1.827-1.481-3.134c.024-4.525.009-9.05.009-13.575v-1.575H0V83.269H52.305a3.377,3.377,0,0,0-.426-.566c-8.085-6.017-12.8-14.26-15.288-23.81-3.677-14.082-2.552-27.779,4.222-40.783C44.43,11.165,49.525,5.565,56.8,2.234A24.517,24.517,0,0,1,67.149,0Q76.1.007,85.055,0c8.813.008,15.691,4.021,21.293,10.488,6.136,7.083,9.4,15.5,10.761,24.655A55.885,55.885,0,0,1,113.1,66.5,38.932,38.932,0,0,1,100.6,82.616c-.144.105-.268.239-.664.6m-60.8-37.328c.319,2.2.668,6.48,1.6,10.632,1.788,7.942,5.3,15.053,11.444,20.6,8.3,7.5,18.8,8.082,27.582,1.6a29.6,29.6,0,0,0,7.947-8.868c7.248-12.287,8.552-25.43,5.308-39.127a38.422,38.422,0,0,0-10.48-19.253C77.246,6.349,71.007,3.653,63.521,4.948,57.006,6.074,52.1,9.852,48.213,14.992c-6.441,8.508-8.822,18.327-9.082,30.9M81.706,4.726C94.318,14.813,99.2,28.39,99.206,43.881c.006,15.528-4.888,29.139-17.446,39.353a45.331,45.331,0,0,0,7.862-.566c6.9-1.427,11.812-5.79,15.671-11.433a45.976,45.976,0,0,0,7.693-23.412c.737-11.191-1.314-21.776-7.676-31.2-5.589-8.274-13.146-12.959-23.6-11.9m3.756,83.143c2.427,3.208,2.3,6.773,2.281,10.343-.041,7.413-.013,14.826-.013,22.239v1.826c2.635-2.1,5.022-4.015,7.419-5.914,1.408-1.116,2.212-1.128,3.61-.037,1.441,1.126,2.855,2.286,4.287,3.423.989.785,1.989,1.556,3.15,2.462,0-9.53.048-18.769-.03-28.007a6.692,6.692,0,0,0-4.8-6.068,4.005,4.005,0,0,0-1.123-.256c-4.841-.017-9.682-.011-14.781-.011M53.171,133.914H66.862v-32.17H53.171Zm29.8-36.92c1.02-6.062-3.145-9.376-7.844-9.243-7.828.223-15.667.059-23.5.061-5.494,0-8.555,3.661-7.624,9.182ZM41.534,87.812c-3.216,0-6.052-.01-8.888,0-4.387.021-7.286,2.94-7.3,7.363q-.018,7.794,0,15.588c0,.4.056.792.092,1.282a4.025,4.025,0,0,0,.385-.276q2.1-2.085,4.193-4.174c1.763-1.754,2.755-1.77,4.492-.024,1.475,1.482,2.92,2.993,4.378,4.491l.319-.17V110.5c0-4.331.053-8.661-.016-12.991-.054-3.351.041-6.637,2.341-9.7m69.277,9.141h23.011V87.936H108.553a13.009,13.009,0,0,1,2.258,9.017m-87.8-9.041H4.668v9.064H20.749a13.061,13.061,0,0,1,2.263-9.064" fill="#ffb74d"/>
        <path id="Trazado_896253" data-name="Trazado 896253" d="M55.386,43.2a14.689,14.689,0,0,1,3.638-9.364,10.207,10.207,0,0,1,16.059.257,15.86,15.86,0,0,1,.006,19.618,10.258,10.258,0,0,1-16.346-.051A16.011,16.011,0,0,1,55.386,43.2m18.5.8a10.515,10.515,0,0,0-2.849-7.52,5.527,5.527,0,0,0-8.113-.089c-3.89,3.71-3.883,11.367.015,15.04a5.5,5.5,0,0,0,8.006-.019A10.38,10.38,0,0,0,73.883,44" fill="#ffb74d"/>
        <path id="Trazado_896254" data-name="Trazado 896254" d="M66.863,9.251v4.555c-5.778.375-9.6,3.691-12.554,8.216-3.945,6.047-5.461,12.838-5.828,19.948-.03.572,0,1.147,0,1.828H43.7c.235-2.522.351-5.048.723-7.537,1.115-7.449,3.643-14.326,8.678-20.08a18.975,18.975,0,0,1,11.858-6.8c.6-.083,1.216-.084,1.9-.128" fill="#ffb74d"/>
        <path id="Trazado_896255" data-name="Trazado 896255" d="M85.4,43.97h4.771c-.237,2.553-.349,5.079-.725,7.564-1.157,7.646-3.763,14.691-9.057,20.509a18.669,18.669,0,0,1-11.462,6.384c-.605.082-1.219.092-1.912.141V74c5.634-.362,9.434-3.549,12.376-7.965,4.094-6.143,5.636-13.069,6-20.326.027-.525,0-1.054,0-1.744" fill="#ffb74d"/>
        <rect id="Rectángulo_413620" data-name="Rectángulo 413620" width="4.458" height="4.484" transform="translate(43.899 48.584)" fill="#ffb74d"/>
        <rect id="Rectángulo_413621" data-name="Rectángulo 413621" width="4.416" height="4.493" transform="translate(97.088 106.35)" fill="#ffb74d"/>
      </g>
    </g>
  </g>
</svg>
