<svg id="Grupo_1129145" data-name="Grupo 1129145" xmlns="http://www.w3.org/2000/svg" xmlns:xlink="http://www.w3.org/1999/xlink" width="133.753" height="130.22" viewBox="0 0 133.753 130.22">
  <defs>
    <clipPath id="clip-path">
      <rect id="Rect치ngulo_415771" data-name="Rect치ngulo 415771" width="133.753" height="130.22" fill="none"/>
    </clipPath>
    <clipPath id="clip-path-3">
      <rect id="Rect치ngulo_415769" data-name="Rect치ngulo 415769" width="115.472" height="45.335" fill="none"/>
    </clipPath>
  </defs>
  <g id="Grupo_1129144" data-name="Grupo 1129144" clip-path="url(#clip-path)">
    <g id="Grupo_1129143" data-name="Grupo 1129143">
      <g id="Grupo_1129142" data-name="Grupo 1129142" clip-path="url(#clip-path)">
        <path id="Trazado_898511" data-name="Trazado 898511" d="M121.96,13.634a7.228,7.228,0,0,0-7.217,7.688l3.531,63.846a30.955,30.955,0,0,0,1.092,6.435l2.594,9.271,2.594-9.271a31.376,31.376,0,0,0,1.1-6.435l3.524-63.846c.013-.155.013-.316.013-.471A7.226,7.226,0,0,0,121.96,13.634Zm3.084,7.44a22.429,22.429,0,0,1-2.4,8.818l-.689,1.365-.689-1.365a22.613,22.613,0,0,1-2.389-8.818,3.087,3.087,0,1,1,6.162-.012v.012Z" transform="translate(-56.075 -6.664)" fill="#eef0ee"/>
        <path id="Trazado_898512" data-name="Trazado 898512" d="M173.331,26.153,158.007,98.575a23.625,23.625,0,0,0-.786,5.155l-.366,9,.094-7.978a23.607,23.607,0,0,0,1.9-4.856l19.416-72.422Z" transform="translate(-76.665 -12.783)" fill="#eef0ee"/>
        <path id="Trazado_898513" data-name="Trazado 898513" d="M187.159,13.638A7.059,7.059,0,1,1,180.1,20.7a7.059,7.059,0,0,1,7.059-7.059" transform="translate(-88.026 -6.666)" fill="#ffe060"/>
        <path id="Trazado_898514" data-name="Trazado 898514" d="M65.955,26.153,85.371,98.575a23.594,23.594,0,0,1,.786,5.155l.366,9-4.187-7.978a23.634,23.634,0,0,1-1.9-4.856L61.022,27.475Z" transform="translate(-29.825 -12.783)" fill="#eef0ee"/>
        <path id="Trazado_898515" data-name="Trazado 898515" d="M59.1,13.638A7.059,7.059,0,1,1,52.039,20.7,7.059,7.059,0,0,1,59.1,13.638" transform="translate(-25.435 -6.666)" fill="#ffe060"/>
        <path id="Trazado_898516" data-name="Trazado 898516" d="M133.713,225.569V231.8a5.193,5.193,0,0,1-5.194,5.193H7.037A5.193,5.193,0,0,1,1.844,231.8v-6.227a5.193,5.193,0,0,1,5.193-5.194H128.519a5.193,5.193,0,0,1,5.194,5.194" transform="translate(-0.901 -107.711)" fill="#878787"/>
        <path id="Trazado_898517" data-name="Trazado 898517" d="M133.52,177.039H10.422A45.329,45.329,0,0,1,55.751,131.71H88.191a45.329,45.329,0,0,1,45.329,45.329" transform="translate(-5.094 -64.375)" fill="#d1c4e9"/>
        <g id="Grupo_1129141" data-name="Grupo 1129141" transform="translate(12.954 67.333)" opacity="0.1" style="isolation: isolate">
          <g id="Grupo_1129140" data-name="Grupo 1129140">
            <g id="Grupo_1129139" data-name="Grupo 1129139" clip-path="url(#clip-path-3)">
              <path id="Trazado_898518" data-name="Trazado 898518" d="M140.811,177.041h-4.86c-2.8-22.351-19.311-39.638-42.416-39.638h-35a45.161,45.161,0,0,0-32.049,13.278c-.392.392-.776.791-1.146,1.2a45.313,45.313,0,0,1,37.7-20.173H95.484A45.328,45.328,0,0,1,140.811,177.041Z" transform="translate(-25.339 -131.706)"/>
            </g>
          </g>
        </g>
        <path id="Trazado_898519" data-name="Trazado 898519" d="M129.048,24.194a4.03,4.03,0,1,0-8.042,0,25.439,25.439,0,0,0,3.177,10.55.942.942,0,0,0,1.682,0,24.865,24.865,0,0,0,3.182-10.55m-4.023,8.031a21.63,21.63,0,0,1-2.138-8.148,2.146,2.146,0,1,1,4.282,0,21.367,21.367,0,0,1-2.144,8.145" transform="translate(-59.139 -9.726)"/>
        <path id="Trazado_898520" data-name="Trazado 898520" d="M39.584,33.148a.942.942,0,0,0,1.73-.748,12.015,12.015,0,0,1-.92-3.7.942.942,0,0,0-1.878.15,13.922,13.922,0,0,0,1.069,4.3" transform="translate(-18.823 -13.603)"/>
        <path id="Trazado_898521" data-name="Trazado 898521" d="M40.61,10.4a.943.943,0,0,0,1.2-.569,12.116,12.116,0,0,1,11.4-7.952c.084,0,.172,0,.256.005A.942.942,0,1,0,53.6.01C53.476,0,53.339,0,53.211,0a14,14,0,0,0-13.17,9.2.943.943,0,0,0,.569,1.2" transform="translate(-19.543)"/>
        <path id="Trazado_898522" data-name="Trazado 898522" d="M129.351,117.738A46.325,46.325,0,0,0,88.621,72.5l12.025-44.853a8,8,0,1,0-6.753-1.809L81.475,72.156H71.189L74.04,20.5a8.173,8.173,0,1,0-16.313-.024l2.858,51.683H51.32L38.9,25.836a8,8,0,1,0-6.753,1.809L44.205,72.616A46.329,46.329,0,0,0,4.4,117.738,6.143,6.143,0,0,0,0,123.621v6.227a6.142,6.142,0,0,0,6.135,6.135H127.618a6.142,6.142,0,0,0,6.135-6.135v-6.227A6.142,6.142,0,0,0,129.351,117.738ZM93.224,18.211A6.117,6.117,0,1,1,97.549,25.7a6.114,6.114,0,0,1-4.325-7.492m3.837,9.312a7.925,7.925,0,0,0,1.6.243L86.721,72.312c-1.089-.085-2.188-.14-3.3-.147L95.547,26.948a8.11,8.11,0,0,0,1.514.575ZM59.608,20.361a6.289,6.289,0,1,1,12.553.009L69.3,72.157h-6.83ZM27.755,21.379A6.117,6.117,0,1,1,35.247,25.7a6.114,6.114,0,0,1-7.492-4.324m6.377,6.387a7.956,7.956,0,0,0,1.6-.243,8.109,8.109,0,0,0,1.514-.575L49.378,72.189c-1.1.03-2.2.088-3.284.195ZM50.657,74.041H83.1a44.44,44.44,0,0,1,44.376,43.444H6.28A44.44,44.44,0,0,1,50.657,74.041Zm81.213,55.807a4.256,4.256,0,0,1-4.251,4.251H6.136a4.256,4.256,0,0,1-4.251-4.251v-6.227a4.256,4.256,0,0,1,4.251-4.251H127.619a4.256,4.256,0,0,1,4.251,4.251Z" transform="translate(0 -5.763)"/>
        <path id="Trazado_898523" data-name="Trazado 898523" d="M228.318,147a.942.942,0,1,0,1.453-1.2,52.8,52.8,0,0,0-10.849-9.951.942.942,0,0,0-1.066,1.553,50.912,50.912,0,0,1,10.462,9.6" transform="translate(-106.28 -66.317)"/>
        <path id="Trazado_898524" data-name="Trazado 898524" d="M246.011,166.836a.942.942,0,1,0,1.63-.943c-.477-.828-1-1.657-1.541-2.466a.942.942,0,1,0-1.563,1.052c.521.773,1.016,1.566,1.473,2.356" transform="translate(-119.442 -79.674)"/>
        <path id="Trazado_898525" data-name="Trazado 898525" d="M89.139,208.63h-2.5a.942.942,0,1,1,0-1.884h2.487a.949.949,0,0,1,.949.942.935.935,0,0,1-.935.942" transform="translate(-41.885 -101.05)" fill="#fff"/>
        <path id="Trazado_898526" data-name="Trazado 898526" d="M68.021,208.63H58.277a.942.942,0,1,1,0-1.884h9.744a.942.942,0,0,1,0,1.884" transform="translate(-28.023 -101.05)" fill="#fff"/>
      </g>
    </g>
  </g>
</svg>
