<svg id="Grupo_1129181" data-name="Grupo 1129181" xmlns="http://www.w3.org/2000/svg" xmlns:xlink="http://www.w3.org/1999/xlink" width="143.116" height="162.216" viewBox="0 0 143.116 162.216">
  <defs>
    <clipPath id="clip-path">
      <rect id="Rectángulo_415788" data-name="Rectángulo 415788" width="143.116" height="162.216" fill="none"/>
    </clipPath>
  </defs>
  <g id="Grupo_1129180" data-name="Grupo 1129180" clip-path="url(#clip-path)">
    <path id="Trazado_898732" data-name="Trazado 898732" d="M112.562,40.428C106.837,44.315,5.7,106.179,1.812,100.454s90.944-76.882,96.67-80.769a12.536,12.536,0,0,1,14.081,20.744Z" transform="translate(-0.616 -6.371)" fill="#ffd494"/>
    <path id="Trazado_898733" data-name="Trazado 898733" d="M131.083,227.226H56.99a9.178,9.178,0,0,1-9.2-9.2v-27.35a9.2,9.2,0,0,1,9.2-9.2h74.092a9.209,9.209,0,0,1,9.235,9.2v27.35a9.186,9.186,0,0,1-9.235,9.2" transform="translate(-17.379 -65.993)" fill="#d8fcf7"/>
    <path id="Trazado_898734" data-name="Trazado 898734" d="M201.626,223.154H193.19V196.408h8.436a2.94,2.94,0,0,1,2.948,2.948v20.85a2.941,2.941,0,0,1-2.948,2.948" transform="translate(-70.251 -71.421)" fill="#89f7e6"/>
    <path id="Trazado_898735" data-name="Trazado 898735" d="M32.92,196.409h8.436v26.746H32.92a2.94,2.94,0,0,1-2.948-2.948v-20.85a2.941,2.941,0,0,1,2.948-2.948" transform="translate(-10.899 -71.422)" fill="#89f7e6"/>
    <path id="Trazado_898736" data-name="Trazado 898736" d="M142.957,42.178c-.065-.725-.151-1.465-.257-2.2a45.559,45.559,0,0,0-1.493-6.672c-.185-.608-.384-1.222-.6-1.823-.421-1.2-.9-2.414-1.436-3.6s-1.12-2.371-1.756-3.531A60.11,60.11,0,0,0,122.354,6.72q-.4-.325-.811-.641l-.165-.126-.081-.062q-.3-.225-.6-.445l-.271-.2c-.22-.158-.442-.315-.664-.469l-.083-.059-.1-.069q-.426-.291-.857-.57l-.106-.067-.088-.055q-.338-.215-.678-.421l-.276-.165q-.32-.189-.641-.369l-.085-.048-.169-.095c-.295-.162-.59-.321-.888-.472s-.6-.3-.886-.43l-.181-.082-.086-.038q-.323-.146-.648-.283l-.279-.116q-.364-.148-.729-.281l-.09-.034-.081-.031c-.291-.1-.592-.2-.9-.3L111.8.761l-.1-.029q-.342-.1-.684-.191l-.288-.072c-.217-.053-.434-.1-.652-.145l-.1-.02-.154-.031c-.321-.061-.611-.108-.884-.144l-.08-.008c-.255-.033-.522-.06-.795-.08-.064-.005-.129-.008-.194-.011l-.077,0c-.207-.011-.413-.018-.62-.021h-.268c-.349,0-.652.015-.929.036l-.067.007c-.265.023-.544.057-.852.1-.085.013-.169.027-.253.042-.262.046-.521.1-.768.161l-.095.022-.053.012c-.283.073-.571.161-.882.269-.048.017-.1.035-.144.053l-.082.031c-.231.085-.465.181-.7.283l-.09.039-.127.057c-.3.139-.584.288-.853.442l-.071.043-.092.057c-.231.137-.467.288-.7.447-.078.053-.155.106-.231.161-.325.233-.589.437-.833.641a12.653,12.653,0,0,0-4.18,7.984q-.054.372-.091.744a18.024,18.024,0,0,0-.08,2.209l.013.5-.4.3c-2.092,1.537-4.965,3.675-8.091,6.022l-1.293.972c-1.32.994-2.723,2.052-4.195,3.165q-1.473,1.114-3.035,2.3c-5.8,4.4-11.61,8.865-17.278,13.262-3.894,3.021-7.706,6-11.33,8.859q-1.909,1.5-3.818,3.018c-5.019,3.982-9.68,7.729-13.852,11.138l-.652.533q-1.458,1.193-2.828,2.325l-.576.476q-1.367,1.13-2.649,2.2-1.018.851-1.985,1.665c-2.711,2.281-5.2,4.424-7.415,6.367q-.639.561-1.247,1.1c-1.016.9-2,1.788-2.919,2.631l-.155.141c-.711.652-1.411,1.3-2.081,1.937-.407.386-.8.764-1.179,1.125-1.068,1.032-2.047,2.012-2.909,2.913-.275.288-.54.568-.788.836s-.487.535-.713.788-.424.48-.617.706c-.622.729-1.145,1.4-1.555,1.99-.153.22-.292.433-.417.634a7.6,7.6,0,0,0-.535,1.01,3.769,3.769,0,0,0-.141.381,2.526,2.526,0,0,0-.075.3,1.135,1.135,0,0,0,.13.843c.063.113.141.228.225.351a.2.2,0,0,0,.038.045c.031.015.059.031.087.048.051.031.1.058.128.073.06.013.1.022.139.032l.055.015a1.482,1.482,0,0,0,.193.046L1.1,94.9l.133.008.1.008c.071.006.141.013.22.014h0c.218,0,.43-.011.649-.031l.073-.01c.241-.025.471-.055.706-.094.059-.01.12-.022.182-.035l.144-.029.066-.013c.162-.031.325-.061.5-.1l.283-.069.148-.037.09-.022c.154-.038.309-.075.47-.119.125-.034.254-.071.383-.108l.129-.038.068-.019c.166-.048.333-.1.507-.149s.339-.107.512-.162l.074-.024.039-.013c.18-.058.361-.116.547-.179.216-.073.437-.15.659-.228.2-.069.4-.139.6-.213.239-.087.484-.178.731-.271l.6-.228q.4-.153.806-.316l.6-.241c.29-.118.582-.237.88-.361l.58-.244c.322-.136.647-.274.978-.417l.432-.188.094-.041c.359-.157.721-.316,1.091-.482l.3-.133.157-.071c.405-.183.814-.368,1.231-.559l.163-.076.139-.064c.473-.219.951-.44,1.437-.669C36,80.673,65.483,63.9,101.617,41.652l1.273-.783,1.2-.736.239,1.389a56,56,0,0,1-1.649,25.538c-.5,1.642-1.072,3.28-1.712,4.867a55.992,55.992,0,0,1-4.721,9.167l-.26.407-.482.032c-3.914.259-7.9.374-11.749.484A170.037,170.037,0,0,0,62.665,83.5q-.7.108-1.392.228a63.085,63.085,0,0,0-10.951,2.862c-7.778,2.836-13.874,7.3-17.63,12.9a24.751,24.751,0,0,0-2.413,4.542,22.191,22.191,0,0,0-1.31,4.647c-.064.384-.117.774-.159,1.161a20.288,20.288,0,0,0-.118,2.3,19.025,19.025,0,0,0,1.623,7.657l.171.387-.171.387a8.982,8.982,0,0,0-.446,1.258,11.436,11.436,0,0,0-.284,1.357l-.122.814H22.021a3.936,3.936,0,0,0-3.931,3.931v20.849a3.936,3.936,0,0,0,3.931,3.931h7.442l.122.814a10.144,10.144,0,0,0,2.752,5.57,10.029,10.029,0,0,0,7.276,3.116H113.7a10.133,10.133,0,0,0,7.907-3.8c.186-.23.364-.472.529-.717a10.268,10.268,0,0,0,.866-1.563,10.108,10.108,0,0,0,.76-2.6l.122-.813h7.486a3.934,3.934,0,0,0,3.851-3.14,3.964,3.964,0,0,0,.08-.792V127.935a3.915,3.915,0,0,0-.9-2.5c-.08-.1-.165-.19-.254-.279a4.014,4.014,0,0,0-.583-.482c-.1-.071-.214-.137-.325-.2a3.932,3.932,0,0,0-.7-.3c-.123-.038-.249-.071-.375-.1a3.963,3.963,0,0,0-.792-.08h-7.486l-.122-.813A10.115,10.115,0,0,0,122.137,119c-.165-.246-.343-.486-.529-.717a10.122,10.122,0,0,0-7.9-3.784H39.611a9.849,9.849,0,0,0-4.851,1.28,10.581,10.581,0,0,0-1.905,1.348l-1.162,1.041-.4-1.508a18.227,18.227,0,0,1-.6-4.757,22.023,22.023,0,0,1,6.963-15.383l.045-.043a30.63,30.63,0,0,1,3.664-3.067,40.089,40.089,0,0,1,9.624-4.979,70.029,70.029,0,0,1,17.856-3.71c.838-.078,1.718-.15,2.614-.215,2.267-.164,4.775-.29,7.89-.4q1.318-.045,2.639-.083L84,83.972c2.8-.08,5.7-.163,8.538-.3l2.077-.1-1.278,1.641c-.339.435-.7.877-1.09,1.35-.077.093-.156.184-.234.274l-.133.155c-.251.3-.5.591-.762.88-.111.125-.223.247-.335.369l-.116.126c-.237.26-.477.52-.719.775-.154.162-.31.322-.466.482l-.023.024q-.358.368-.72.725c-.169.167-.339.332-.51.5q-.368.354-.743.7l-.058.053c-.151.14-.3.281-.456.418-.26.235-.524.465-.789.694l-.145.126c-.117.1-.234.2-.353.3-.3.25-.6.494-.9.738l-.157.129c-.087.071-.173.143-.262.213-.456.362-.907.709-1.341,1.032l-.095.069-.06.043q-.6.447-1.219.876c-.1.072-.207.142-.312.212l-.172.117c-.305.208-.611.415-.92.617-.14.092-.281.181-.423.27l-.142.09c-.288.183-.575.363-.865.541-.2.122-.4.241-.6.36q-.43.255-.862.5-.305.174-.612.344c-.293.162-.586.32-.881.477l-.073.038q-.267.142-.536.281c-.309.159-.62.314-.931.466l-.164.081c-.137.068-.274.136-.411.2-.353.169-.708.331-1.063.491l-.175.081c-.1.044-.19.088-.286.13-.52.23-1.037.449-1.536.652l-.17.067-.118.046q-.633.254-1.27.494c-.122.046-.245.09-.368.133l-.194.07c-.338.122-.676.243-1.016.359-.161.055-.323.108-.485.16l-.146.048c-.32.105-.64.208-.96.307-.221.068-.443.134-.664.2q-.472.139-.946.27-.336.093-.673.182-.479.126-.961.242l-.093.023c-.189.046-.377.092-.567.136-.338.078-.677.151-1.016.223l-.187.041c-.141.03-.281.06-.422.089-.392.078-.785.15-1.177.221l-.177.032c-.093.018-.186.035-.28.051-.548.094-1.1.179-1.634.255-.071.01-.143.018-.214.027l-.146.018c-.427.057-.855.111-1.282.159-.13.014-.262.027-.392.039l-.2.02c-.351.035-.7.069-1.054.1-.174.014-.35.025-.526.038l-.136.009c-.33.023-.661.043-.992.06-.229.011-.457.021-.685.029q-.488.018-.977.028c-.229,0-.458.008-.687.01l-.15,0c-.074,0-.15,0-.225,0-.123,0-.248,0-.373-.005l-.226,0h-.092c-.2,0-.4,0-.6-.01-.334-.008-.668-.021-1-.036l-.2-.008c-.153-.006-.306-.012-.458-.02-.367-.02-.731-.047-1.1-.075l-.206-.015-.351-.026c-.557-.048-1.1-.1-1.62-.165a.664.664,0,0,0-.095-.006l-.092,0c-.025,0-.05,0-.076.008a.911.911,0,0,0-.1.018c-.025.006-.05.013-.076.022a.964.964,0,0,0-.1.038c-.024.011-.049.022-.072.035a.972.972,0,0,0-.087.057c-.034.024-.051.035-.067.048a.908.908,0,0,0-.075.074l-.035.035-.027.027c-.017.02-.033.048-.051.075l-.046.069a.658.658,0,0,0-.049.109c-.013.033-.025.06-.038.087a.867.867,0,0,0-.034.159.981.981,0,0,0,.86,1.091c1.07.127,2.159.223,3.234.287.533.031,1.078.055,1.621.071s1.081.024,1.62.024A58.329,58.329,0,0,0,89.9,91.985l.008-.008.025-.024a55.182,55.182,0,0,0,6.892-8.179l.258-.374.453-.036c2.156-.171,4.308-.418,6.394-.734,2.045-.31,4.054-.694,5.97-1.14q.77-.18,1.523-.374c.9-.232,1.789-.48,2.636-.736a57.043,57.043,0,0,0,6.91-2.572,44.011,44.011,0,0,0,9.485-5.736c.8-.645,1.557-1.3,2.243-1.947.81-.764,1.583-1.566,2.3-2.383a32.26,32.26,0,0,0,6.327-10.918c.332-.978.622-1.987.862-3,.159-.671.3-1.36.418-2.048s.217-1.386.294-2.083c.115-1.042.186-2.113.209-3.183s0-2.157-.066-3.242q-.034-.545-.083-1.092M29.43,126.924v23.827H22.021a1.956,1.956,0,0,1-1.394-.573,1.923,1.923,0,0,1-.328-.446,1.963,1.963,0,0,1-.244-.948V127.936a1.958,1.958,0,0,1,1.966-1.966H29.43ZM123.921,149.8V125.97h7.452a1.981,1.981,0,0,1,.764.152,1.955,1.955,0,0,1,1.2,1.814v20.849a1.956,1.956,0,0,1-1.965,1.966h-7.452Zm-92.49,4.589-.029-2.264c0-.061,0-.606,0-1.422v-.363c.007-2.332.022-6.34.028-8.14l0-.916v-.394l.278-.278L51.3,121.031l.676-.675.674.675,5.4,5.394.676.675-.676.675-25.009,25.01ZM41.8,160.251H39.609c-.127,0-.252-.009-.377-.02l-.127-.01-.132-.006c-.128-.005-.255-.011-.379-.027-.144-.018-.283-.046-.423-.076l-.125-.025-.115-.02c-.107-.018-.214-.037-.318-.063-.153-.039-.3-.088-.449-.139l-.114-.039c-.032-.011-.066-.02-.1-.03-.092-.028-.185-.056-.275-.091-.2-.079-.384-.167-.559-.252l-.06-.029L36,159.4c-.069-.03-.137-.06-.2-.1a8.337,8.337,0,0,1-2.86-2.511l-.47-.658.571-.571,6.6-6.6,19.8-19.8.675-.675.675.675,5.393,5.393.676.676-.676.675L50.106,151.955l-8.028,8.018Zm16.267,0H44.579l1.632-1.63L67.564,137.3l.675-.674.674.675,5.378,5.378.675.675-.675.675-5.316,5.316L58.344,159.973Zm31.5,0H60.844l1.63-1.63,13.208-13.207.675-.675.675.675,13.208,13.207,1.629,1.63ZM102,116.469h11.7a8.242,8.242,0,0,1,8.252,8.217V136.45l-.959,0-.671.67-9.5-9.516-9.5-9.51L99.7,116.469Zm-16.3,0H96.922l.28.28L109.439,129l12.237,12.254.281.281,0,.4c-.015,3.545-.018,6.322-.011,8.256v.353l0,.565,0,.5,0,.171a2.961,2.961,0,0,1-.022.534c-.008.056-.02.148-.041.391l-.171,2.051-1.455-1.455L85.061,118.129l-.03-.03-1.635-1.63Zm-16.27,0H80.619l.279.279,39.12,39.086.034.034.606.605-.537.668a8.371,8.371,0,0,1-2.452,2.064,8.036,8.036,0,0,1-3.966,1.046h-2.79l-.279-.279L68.76,118.1l-1.629-1.629Zm-16.267,0H64.352l.279.279,41.874,41.873,1.63,1.63H94.647l-.28-.279L66.451,132.056,52.493,118.1l-1.63-1.629Zm-21.743,7.57v-.032c0-.054,0-.108.01-.161a8.229,8.229,0,0,1,2.324-4.922c.015-.017.029-.032.044-.046a8.246,8.246,0,0,1,1.736-1.32c.068-.043.112-.07.157-.094.078-.043.159-.081.241-.119l.087-.041.092-.046c.1-.049.2-.1.3-.141.052-.022.106-.041.16-.06l.039-.014a8.15,8.15,0,0,1,3-.573h8.474l.279.279,1.543,1.543.676.675-.676.675L33.068,136.481l-1.629,1.63v-2.569l-.024-5.885-.02-4.969c0-.225.015-.426.032-.648M102.781,38.7c-.713.44-1.451.895-2.229,1.372l-1.476.9c-1.511.924-3.124,1.906-4.825,2.937s-3.49,2.111-5.351,3.23-3.8,2.278-5.79,3.467q-1.993,1.189-4.061,2.416c-2.825,1.676-5.68,3.361-8.486,5.008q-2.17,1.273-4.374,2.559c-3.781,2.206-7.518,4.369-11.109,6.43q-1.824,1.046-3.639,2.082c-2.577,1.469-5.065,2.878-7.4,4.187q-1.784,1-3.536,1.978-1.452.808-2.881,1.6-1.049.58-2.086,1.149c-2.822,1.55-5.511,3.006-7.991,4.328q-1.917,1.021-3.739,1.973c-1.009.527-1.987,1.032-2.945,1.522-.773.4-1.536.785-2.273,1.155-.832.418-1.633.814-2.417,1.2-1.546.757-2.99,1.443-4.292,2.038-.778.356-1.435.65-2.006.9a37.748,37.748,0,0,1-5.923,2.157l-2.419.565,1.419-2.04C7.191,85.72,27.676,68.8,44.116,55.685q.9-.723,1.814-1.445,2.727-2.169,5.47-4.333l1.825-1.438q2.736-2.153,5.447-4.27c3.471-2.71,7.027-5.468,10.567-8.2q1.7-1.312,3.358-2.582t3.245-2.484q2.386-1.823,4.616-3.515c1.977-1.5,3.848-2.913,5.589-4.221l1.281-.961c2.489-1.865,4.686-3.5,6.532-4.85l1.148-.841.343,1.382a36.593,36.593,0,0,0,4.478,10.03l.484.808-.8.5L99.3,29.4l-.2.122-1.1.676c-.983.605-2.025,1.245-3.144,1.928a.982.982,0,0,0-.469.8.933.933,0,0,0,.01.189.976.976,0,0,0,.1.305l.011.013.037.069a1.078,1.078,0,0,0,.136.16l.054.045a.93.93,0,0,0,.13.094l.06.037a.967.967,0,0,0,.176.069l.041.012.025.01a1.075,1.075,0,0,0,.186.018h.035c.034,0,.067,0,.1,0l.044-.008a.993.993,0,0,0,.146-.038l.042-.015a1.048,1.048,0,0,0,.164-.076l1.065-.652c.614-.376,1.338-.82,2.114-1.3.518-.319,1.06-.653,1.609-.993l.827-.513c.827-.514,1.655-1.03,2.425-1.516l.748-.473c1.037-.659,1.831-1.174,2.357-1.532a3.719,3.719,0,0,0,.309-.234,3.759,3.759,0,0,0,1.2-1.835,3.863,3.863,0,0,0,.137-.716,3.573,3.573,0,0,0-.078-1.182,3.748,3.748,0,0,0-.193-.622,3.7,3.7,0,0,0-.24-.466l-.037-.064c-.028-.048-.056-.1-.088-.144a.977.977,0,0,0-.15-.167l-.054-.04a1.016,1.016,0,0,0-.125-.087c-.021-.012-.043-.024-.066-.034a1.046,1.046,0,0,0-.141-.052l-.062-.019a.956.956,0,0,0-.21-.029H107.2a1.158,1.158,0,0,0-.15.017h0l-.046.011a.912.912,0,0,0-.123.038h0l-.028.01a.882.882,0,0,0-.33.218.987.987,0,0,0-.107,1.237,1.826,1.826,0,0,1-.344,2.426l-.018.022-.119.082q-.246.168-.568.379l-.339.221-.787.507-.445.284q-.462.294-.988.626l-.826.521-.5-.838a33.644,33.644,0,0,1-4.293-9.53c-.118-.5-.218-1.015-.3-1.518L96.8,15.26l.483-.342c.332-.235.616-.433.876-.612l.086-.06.175-.12c.268-.181.564-.362.907-.552.071-.039.143-.076.214-.113l.064-.033c.229-.118.461-.229.691-.33l.052-.023c.079-.035.158-.069.237-.1.317-.128.611-.234.9-.324.015-.006.042-.015.07-.024.3-.091.62-.172.983-.248.072-.015.144-.028.217-.041l.076-.013c.247-.045.493-.082.733-.109l.043-.005c.088-.011.177-.021.266-.029.3-.027.6-.043.888-.046l.09,0h.051c.29,0,.592.014.953.044l.212.018c.344.035.658.08.96.136.032.006.065.013.1.02l.033.007c.287.057.581.127.874.209l.048.013.118.033c.3.089.609.195.916.314l.137.056.048.02c.331.136.62.267.885.4l.019.008.012.006c.269.139.552.3.865.5l.177.113c.291.192.555.381.806.579.029.023.057.046.085.069l.032.027c.236.192.47.4.694.612l.038.035c.029.027.058.054.086.081.23.226.462.476.69.743l.113.136.027.034c.254.31.458.579.64.848a11.686,11.686,0,0,1,1.112,2.055,11.507,11.507,0,0,1,.679,6.6,11.638,11.638,0,0,1-.621,2.127c-.137.345-.293.686-.463,1.014a12.459,12.459,0,0,1-1.981,2.748l-.025.025-.024.022a11.663,11.663,0,0,1-1.747,1.456c-.861.585-2.281,1.5-4.221,2.72l-.777.488c-1.08.676-2.288,1.427-3.614,2.246m37.758,13.34a30.6,30.6,0,0,1-8.1,15.618,37.287,37.287,0,0,1-8.706,6.651c-.68.382-1.389.755-2.107,1.109a63.083,63.083,0,0,1-21.329,5.718l-1.849.193.921-1.615a58.419,58.419,0,0,0,2.8-5.632c.41-.944.8-1.9,1.154-2.855.48-1.285.85-2.358,1.162-3.378.5-1.646.942-3.333,1.3-5.013.186-.876.36-1.815.531-2.869a57.47,57.47,0,0,0,.415-15.48c-.183-1.659-.431-3.272-.736-4.793l-.13-.651.564-.349c2.347-1.452,4.232-2.631,5.31-3.323l.451-.292c.125-.082.228-.151.31-.206a13.619,13.619,0,0,0,2.1-1.759,13.513,13.513,0,0,0,1.49-17.018c-.19-.279-.405-.568-.68-.907-.059-.072-.116-.143-.176-.213-.272-.323-.516-.593-.746-.825l-.03-.028c-.225-.226-.484-.463-.788-.722q-.1-.088-.207-.174c-.315-.258-.6-.474-.867-.661l-.064-.041c-.261-.178-.544-.355-.867-.542-.078-.045-.155-.09-.234-.132-.35-.193-.664-.352-.96-.486l-.1-.041c-.283-.125-.584-.244-.92-.364l-.251-.088c-.374-.125-.711-.223-1.03-.3l-.038-.008-.088-.019c-.3-.071-.615-.132-.956-.187l-.041-.007c-.073-.011-.146-.024-.22-.034-.388-.054-.739-.09-1.074-.109H105.7l-.1,0c-.191-.009-.382-.013-.574-.013q-.2,0-.393.006h-.055l-.22.007c-.4.019-.763.05-1.1.095l-.035.006-.1.015c-.314.045-.639.1-.991.181-.094.02-.187.041-.281.064-.413.1-.773.2-1.1.312l-.076.028c-.319.109-.652.239-1.022.4q-.141.061-.281.125c-.407.186-.74.354-1.046.525L96.516,13.19l.374-2.213a10.852,10.852,0,0,1,3.468-6.565c.213-.179.444-.357.708-.545.052-.037.105-.073.158-.108l.059-.039q.263-.178.529-.336c.078-.046.157-.092.235-.137.193-.108.4-.212.6-.31l.036-.018c.038-.02.076-.039.115-.056.245-.111.5-.214.766-.308l.139-.046.054-.017c.2-.066.4-.126.6-.179q.125-.033.252-.063c.194-.046.389-.086.585-.121l.06-.011c.053-.01.106-.02.158-.028.282-.044.543-.074.8-.095l.089-.005c.244-.017.48-.025.715-.027.029,0,.062,0,.1,0s.084,0,.125,0c.234,0,.444.012.654.025l.064,0,.167.011c.3.024.568.055.828.092l.082.013c.267.041.51.085.753.135l.256.055q.31.069.623.152l.07.018.152.04q.407.114.814.247l.109.038.056.02c.22.075.44.153.659.237l.259.1q.31.123.621.257l.07.029.129.055q.4.176.792.367l.13.064.069.035q.3.151.608.311l.25.134q.317.172.633.353l.057.032.1.054q.387.224.767.46l.129.081.073.046q.291.183.577.371l.228.15q.33.22.656.447l.033.023.055.038q.368.258.727.524l.136.1.064.048c.182.135.361.271.54.409l.046.036.153.118c.234.183.466.365.694.55a66.549,66.549,0,0,1,4.995,4.485l.008.007.022.023a50.611,50.611,0,0,1,13.185,21.117,37.678,37.678,0,0,1,1.213,18.159" transform="translate(0 0)"/>
  </g>
</svg>
