<svg xmlns="http://www.w3.org/2000/svg" xmlns:xlink="http://www.w3.org/1999/xlink" width="191.146" height="204.156" viewBox="0 0 191.146 204.156">
  <defs>
    <clipPath id="clip-path">
      <rect id="Rectángulo_413616" data-name="Rectángulo 413616" width="162.462" height="126.919" transform="translate(0 0)" fill="#ffb74d"/>
    </clipPath>
  </defs>
  <g id="Grupo_1124931" data-name="Grupo 1124931" transform="translate(109.915) rotate(60)">
    <g id="Grupo_1124930" data-name="Grupo 1124930" clip-path="url(#clip-path)">
      <path id="Trazado_896086" data-name="Trazado 896086" d="M17.082,91.39a2.542,2.542,0,0,1-1.82-.761A53.294,53.294,0,0,1,74.646,4.466a2.538,2.538,0,1,1-1.887,4.712c-.048-.02-.1-.041-.143-.063A48.218,48.218,0,0,0,18.894,87.076a2.537,2.537,0,0,1-1.812,4.314" fill="#ffb74d"/>
      <path id="Trazado_896087" data-name="Trazado 896087" d="M53.329,106.617A52.851,52.851,0,0,1,21.353,95.958,2.538,2.538,0,0,1,24.4,91.9a48.288,48.288,0,0,0,48.218,5.631,2.538,2.538,0,1,1,2.173,4.587c-.047.022-.094.043-.143.062a52.889,52.889,0,0,1-21.317,4.439" fill="#ffb74d"/>
      <path id="Trazado_896088" data-name="Trazado 896088" d="M50.792,76.006a2.8,2.8,0,0,1-.318-.018,22.84,22.84,0,0,1,2.855-45.5,23.527,23.527,0,0,1,2.845.175,2.538,2.538,0,0,1-.527,5.049l-.088-.011a18.274,18.274,0,0,0-2.23-.137,17.764,17.764,0,0,0-2.223,35.392,2.538,2.538,0,0,1-.314,5.055" fill="#ffb74d"/>
      <path id="Trazado_896089" data-name="Trazado 896089" d="M48.254,126.919a2.537,2.537,0,0,1-2.271-3.672,114.165,114.165,0,0,0,5.063-12.382,2.538,2.538,0,1,1,4.8,1.655c-1.147,3.327-2.3,6.205-3.23,8.4l7.821-1.566a2.5,2.5,0,0,1,1.3.082l4.849,1.614c.368-2.333.868-6.253,1.269-12.073a2.538,2.538,0,0,1,5.068.274c0,.025,0,.051,0,.077A101.884,101.884,0,0,1,71,125a2.538,2.538,0,0,1-3.078,1.846c-.062-.016-.124-.034-.185-.054l-6.974-2.325-12.029,2.406a2.472,2.472,0,0,1-.485.051" fill="#ffb74d"/>
      <path id="Trazado_896090" data-name="Trazado 896090" d="M132,101.2a2.537,2.537,0,0,1-1.147-4.8,48.23,48.23,0,0,0,12.059-77.509,2.54,2.54,0,0,1,3.553-3.632,53.294,53.294,0,0,1-13.32,85.663A2.549,2.549,0,0,1,132,101.2" fill="#ffb74d"/>
      <path id="Trazado_896091" data-name="Trazado 896091" d="M104.085,106.363a1.683,1.683,0,0,1-.254-.013A53.293,53.293,0,1,1,138.472,8.806a2.538,2.538,0,0,1-2.792,4.238A48.218,48.218,0,1,0,104.339,101.3a2.541,2.541,0,1,1-.254,5.075Z" fill="#ffb74d"/>
      <path id="Trazado_896092" data-name="Trazado 896092" d="M106.623,76.006a2.794,2.794,0,0,1-.317-.018,22.841,22.841,0,1,1,24.03-14.1,2.538,2.538,0,0,1-4.762-1.756q.027-.075.06-.147a17.763,17.763,0,1,0-18.7,10.966,2.538,2.538,0,0,1-.312,5.055" fill="#ffb74d"/>
      <path id="Trazado_896093" data-name="Trazado 896093" d="M104.085,126.919a2.537,2.537,0,0,1-2.284-3.672c.114-.2,9.9-19.99,9.9-36.932a115.2,115.2,0,0,0-4.946-32.192,2.537,2.537,0,0,1,2.409-3.337H111.7a2.539,2.539,0,0,1,.8.132c.693.231,16.963,5.989,16.963,35.4,0,27.915-2.507,38.254-2.614,38.681a2.537,2.537,0,0,1-3.078,1.845c-.063-.015-.124-.033-.186-.054l-6.973-2.324-12.029,2.406a2.527,2.527,0,0,1-.5.05m12.689-7.613a2.543,2.543,0,0,1,.8.132l4.847,1.614a234.132,234.132,0,0,0,1.964-34.737c0-19.8-7.867-27.205-11.6-29.588a119.68,119.68,0,0,1,3.982,29.588c0,13.2-5.279,27.464-8.326,34.608l7.818-1.566a2.552,2.552,0,0,1,.508-.051" fill="#ffb74d"/>
    </g>
  </g>
</svg>
