<svg xmlns="http://www.w3.org/2000/svg" xmlns:xlink="http://www.w3.org/1999/xlink" width="295" height="259" viewBox="0 0 295 259">
  <defs>
    <clipPath id="clip-path">
      <rect id="Rectángulo_413055" data-name="Rectángulo 413055" width="227.276" height="204.927" fill="none"/>
    </clipPath>
  </defs>
  <g id="Grupo_1123552" data-name="Grupo 1123552" transform="translate(-1125.051 -847)">
    <rect id="Rectángulo_413056" data-name="Rectángulo 413056" width="295" height="259" rx="25" transform="translate(1125.051 847)" fill="#f6f6f6"/>
    <g id="Grupo_1123551" data-name="Grupo 1123551" transform="translate(1158.775 873.037)">
      <g id="Grupo_1123550" data-name="Grupo 1123550" clip-path="url(#clip-path)">
        <path id="Trazado_894496" data-name="Trazado 894496" d="M351.549,125.485a9.1,9.1,0,0,1-3.151-.555,6.864,6.864,0,0,1,0-13.228,8.984,8.984,0,0,1,3.151-.555h20.588c4.511,0,8.18,3.215,8.18,7.167s-3.67,7.172-8.18,7.172Z" transform="translate(-155.424 -57.804)" fill="#428097"/>
        <path id="Trazado_894497" data-name="Trazado 894497" d="M371.645,111.1c4.182,0,7.585,2.981,7.585,6.645s-3.4,6.65-7.585,6.65H351.057a8.443,8.443,0,0,1-2.921-.515,6.364,6.364,0,0,1,.007-12.266,8.317,8.317,0,0,1,2.915-.513Zm0-1.044H351.057a9.681,9.681,0,0,0-3.38.6,7.364,7.364,0,0,0,0,14.191,9.8,9.8,0,0,0,3.38.6h20.588c4.838,0,8.776-3.453,8.776-7.695s-3.938-7.689-8.776-7.689" transform="translate(-154.931 -57.238)" fill="#3c6485"/>
        <path id="Trazado_894498" data-name="Trazado 894498" d="M353.472,125.653c-3.229,0-5.856-2.3-5.856-5.134s2.627-5.135,5.856-5.135h20.589c3.229,0,5.856,2.3,5.856,5.135s-2.627,5.134-5.856,5.134Z" transform="translate(-157.346 -60.008)" fill="#428097"/>
        <path id="Trazado_894499" data-name="Trazado 894499" d="M373.569,115.34c2.9,0,5.26,2.069,5.26,4.613s-2.36,4.612-5.26,4.612H352.98c-2.9,0-5.261-2.068-5.261-4.612s2.36-4.613,5.261-4.613Zm0-1.044H352.98c-3.557,0-6.452,2.538-6.452,5.657s2.894,5.656,6.452,5.656h20.589c3.557,0,6.451-2.537,6.451-5.656s-2.894-5.657-6.451-5.657" transform="translate(-156.854 -59.442)" fill="#3c6485"/>
        <path id="Trazado_894500" data-name="Trazado 894500" d="M355.393,125.823a3.124,3.124,0,1,1,0-6.195h20.589a3.124,3.124,0,1,1,0,6.195Z" transform="translate(-159.267 -62.215)" fill="#428097"/>
        <path id="Trazado_894501" data-name="Trazado 894501" d="M375.49,119.584a2.6,2.6,0,1,1,0,5.151H354.9a2.6,2.6,0,1,1,0-5.151Zm0-1.044H354.9a3.651,3.651,0,1,0,0,7.239H375.49a3.651,3.651,0,1,0,0-7.239" transform="translate(-158.775 -61.649)" fill="#3c6485"/>
        <path id="Trazado_894502" data-name="Trazado 894502" d="M357.314,125.993a1.07,1.07,0,1,1,0-2.121H377.9a1.07,1.07,0,1,1,0,2.121Z" transform="translate(-161.189 -64.422)" fill="#428097"/>
        <path id="Trazado_894503" data-name="Trazado 894503" d="M377.411,123.829a.543.543,0,1,1,0,1.077H356.821a.543.543,0,1,1,0-1.077Zm0-1.044H356.821a1.6,1.6,0,1,0,0,3.166h20.589a1.6,1.6,0,1,0,0-3.166" transform="translate(-160.696 -63.857)" fill="#3c6485"/>
        <path id="Trazado_894504" data-name="Trazado 894504" d="M324.531,79.831a7.575,7.575,0,0,1-4.374-6.651V28.194H301.585A9.061,9.061,0,0,1,294,24.364v.953a8.23,8.23,0,0,1-.6-.811V73.18c0,3.955,3.67,7.173,8.18,7.173h22.782a9.658,9.658,0,0,1-.927-.521Z" transform="translate(-132.807 -12.671)" fill="#428097"/>
        <path id="Trazado_894505" data-name="Trazado 894505" d="M328.44,76.687H301.092c-4.84,0-8.776-3.455-8.776-7.7V16.311a6.933,6.933,0,0,0,1.191,3.864V68.992c0,3.666,3.4,6.651,7.585,6.651h22.946a8.781,8.781,0,0,0,1.021.446,9.825,9.825,0,0,0,3.38.6" transform="translate(-132.315 -8.483)" fill="#3c6485"/>
        <path id="Trazado_894506" data-name="Trazado 894506" d="M380.42,7.985V60.66c0-4.242-3.938-7.689-8.776-7.689H351.056a9.686,9.686,0,0,0-3.381.6,7.76,7.76,0,0,0-5.4,7.093V7.985a7.767,7.767,0,0,1,5.4-7.1,9.809,9.809,0,0,1,3.381-.6h20.588c4.838,0,8.776,3.452,8.776,7.694" transform="translate(-154.931 -0.151)" fill="#80bfd5"/>
        <path id="Trazado_894507" data-name="Trazado 894507" d="M325.437,283.829a9.1,9.1,0,0,0,3.151-.556,6.864,6.864,0,0,0,0-13.228,8.983,8.983,0,0,0-3.151-.555H304.849c-4.511,0-8.18,3.215-8.18,7.167s3.669,7.173,8.18,7.173Z" transform="translate(-134.285 -140.154)" fill="#ffd16d"/>
        <path id="Trazado_894508" data-name="Trazado 894508" d="M304.357,269.445h20.588a8.317,8.317,0,0,1,2.915.513,6.364,6.364,0,0,1,.007,12.266,8.443,8.443,0,0,1-2.921.515H304.357c-4.182,0-7.585-2.983-7.585-6.65s3.4-6.645,7.585-6.645m0-1.044c-4.838,0-8.776,3.447-8.776,7.689s3.938,7.695,8.776,7.695h20.588a9.8,9.8,0,0,0,3.38-.6,7.364,7.364,0,0,0,0-14.191,9.681,9.681,0,0,0-3.38-.6Z" transform="translate(-133.793 -139.588)" fill="#ffb74d"/>
        <path id="Trazado_894509" data-name="Trazado 894509" d="M327.357,284.682c3.229,0,5.856-2.3,5.856-5.134s-2.627-5.135-5.856-5.135H306.769c-3.229,0-5.856,2.3-5.856,5.135s2.627,5.134,5.856,5.134Z" transform="translate(-136.206 -142.715)" fill="#ffd16d"/>
        <path id="Trazado_894510" data-name="Trazado 894510" d="M306.276,274.369h20.589c2.9,0,5.261,2.069,5.261,4.613s-2.36,4.612-5.261,4.612H306.276c-2.9,0-5.26-2.068-5.26-4.612s2.36-4.613,5.26-4.613m0-1.044c-3.557,0-6.451,2.538-6.451,5.657s2.894,5.656,6.451,5.656h20.589c3.557,0,6.452-2.537,6.452-5.656s-2.894-5.657-6.452-5.657Z" transform="translate(-135.714 -142.149)" fill="#ffb74d"/>
        <path id="Trazado_894511" data-name="Trazado 894511" d="M329.278,285.168a3.124,3.124,0,1,0,0-6.195H308.69a3.124,3.124,0,1,0,0,6.195Z" transform="translate(-138.127 -145.086)" fill="#ffd16d"/>
        <path id="Trazado_894512" data-name="Trazado 894512" d="M308.2,278.929h20.589a2.6,2.6,0,1,1,0,5.151H308.2a2.6,2.6,0,1,1,0-5.151m0-1.044a3.651,3.651,0,1,0,0,7.239h20.589a3.651,3.651,0,1,0,0-7.239Z" transform="translate(-137.635 -144.52)" fill="#ffb74d"/>
        <path id="Trazado_894513" data-name="Trazado 894513" d="M331.2,285.338a1.07,1.07,0,1,0,0-2.121H310.611a1.07,1.07,0,1,0,0,2.121Z" transform="translate(-140.049 -147.293)" fill="#ffd16d"/>
        <path id="Trazado_894514" data-name="Trazado 894514" d="M310.119,283.173h20.589a.543.543,0,1,1,0,1.077H310.119a.543.543,0,1,1,0-1.077m0-1.044a1.6,1.6,0,1,0,0,3.166h20.589a1.6,1.6,0,1,0,0-3.166Z" transform="translate(-139.556 -146.727)" fill="#ffb74d"/>
        <path id="Trazado_894515" data-name="Trazado 894515" d="M357.27,238.175a7.575,7.575,0,0,0,4.374-6.651V186.538h18.572a9.06,9.06,0,0,0,7.585-3.83v.953a8.242,8.242,0,0,0,.6-.811v48.674c0,3.955-3.67,7.172-8.18,7.172H357.436a9.537,9.537,0,0,0,.927-.521Z" transform="translate(-161.716 -95.021)" fill="#f9c45a"/>
        <path id="Trazado_894516" data-name="Trazado 894516" d="M349.228,235.032h27.348c4.84,0,8.776-3.455,8.776-7.7V174.656a6.933,6.933,0,0,1-1.191,3.864v48.817c0,3.666-3.4,6.651-7.585,6.651H353.63a8.777,8.777,0,0,1-1.021.446,9.828,9.828,0,0,1-3.38.6" transform="translate(-158.076 -90.834)" fill="#ffb74d"/>
        <path id="Trazado_894517" data-name="Trazado 894517" d="M295.581,166.329V219c0-4.242,3.938-7.689,8.776-7.689h20.588a9.686,9.686,0,0,1,3.381.6,7.76,7.76,0,0,1,5.4,7.093V166.329a7.766,7.766,0,0,0-5.4-7.1,9.809,9.809,0,0,0-3.381-.6H304.357c-4.838,0-8.776,3.452-8.776,7.694" transform="translate(-133.793 -82.502)" fill="#ffd16d"/>
        <path id="Trazado_894518" data-name="Trazado 894518" d="M111.258,323.233,23.3,316a16.429,16.429,0,0,1-11.726,13.082C1.074,332.119,0,342.637,0,342.637s1.074,10.517,11.577,13.553A16.429,16.429,0,0,1,23.3,369.271l87.955-7.231Z" transform="translate(0 -164.344)" fill="#80bfd5"/>
        <path id="Trazado_894519" data-name="Trazado 894519" d="M111.181,362.446a.335.335,0,0,1-.326.315l-2.872.236a.35.35,0,0,1-.392-.286.329.329,0,0,1,.325-.344l2.871-.236a.351.351,0,0,1,.393.285.278.278,0,0,1,0,.03m0-34.2v.11a.34.34,0,0,1-.36.316.379.379,0,0,1-.294-.133l-2.486-.2a.33.33,0,0,1-.325-.345.351.351,0,0,1,.393-.286l2.746.226a.336.336,0,0,1,.326.315m0,3.9v2.529a.364.364,0,0,1-.721,0v-2.529a.364.364,0,0,1,.721,0m0,6.322V341a.364.364,0,0,1-.721,0v-2.529a.364.364,0,0,1,.721,0m0,6.323v2.529a.364.364,0,0,1-.721,0v-2.529a.364.364,0,0,1,.721,0m0,6.323v2.529a.364.364,0,0,1-.721,0v-2.529a.364.364,0,0,1,.721,0m0,6.322v2.529a.364.364,0,0,1-.721,0v-2.529a.364.364,0,0,1,.721,0m-7.053-29.774a.272.272,0,0,1,0,.03.351.351,0,0,1-.392.286l-2.872-.236a.33.33,0,0,1-.325-.345.351.351,0,0,1,.392-.286l2.872.237a.335.335,0,0,1,.327.314M104,363.037a.336.336,0,0,1-.327.315l-2.872.236a.35.35,0,0,1-.392-.285.328.328,0,0,1,.325-.345l2.872-.236a.351.351,0,0,1,.393.285c0,.01,0,.02,0,.03m-7.053-35.962a.285.285,0,0,1,0,.03.351.351,0,0,1-.393.285l-2.871-.236a.329.329,0,0,1-.326-.345.352.352,0,0,1,.393-.286l2.872.236a.336.336,0,0,1,.327.315m-.126,36.553a.336.336,0,0,1-.327.314l-2.871.236a.351.351,0,0,1-.393-.285.33.33,0,0,1,.325-.345l2.871-.236a.351.351,0,0,1,.393.285.283.283,0,0,1,0,.03M89.77,326.483c0,.01,0,.02,0,.03a.352.352,0,0,1-.394.285l-2.872-.236a.331.331,0,0,1-.326-.345.351.351,0,0,1,.394-.285l2.871.236a.336.336,0,0,1,.327.315m-.126,37.734a.336.336,0,0,1-.327.314l-2.871.236a.351.351,0,0,1-.393-.285.328.328,0,0,1,.325-.345l2.872-.237a.352.352,0,0,1,.392.286.191.191,0,0,1,0,.03M82.59,325.894a.26.26,0,0,1,0,.029.351.351,0,0,1-.393.286l-2.871-.236a.328.328,0,0,1-.325-.345.351.351,0,0,1,.392-.285l2.872.236a.335.335,0,0,1,.326.315m-.125,38.914a.335.335,0,0,1-.327.314l-2.872.236a.351.351,0,0,1-.393-.286.332.332,0,0,1,.326-.344l2.872-.236a.352.352,0,0,1,.393.286.266.266,0,0,1,0,.03M75.41,325.3a.288.288,0,0,1,0,.03.351.351,0,0,1-.393.285l-2.871-.236a.329.329,0,0,1-.326-.345.352.352,0,0,1,.392-.286l2.872.236a.335.335,0,0,1,.327.314M75.285,365.4a.336.336,0,0,1-.327.315l-2.871.236a.351.351,0,0,1-.393-.285.331.331,0,0,1,.325-.345l2.871-.236a.351.351,0,0,1,.393.286.264.264,0,0,1,0,.029m-7.053-40.684a.282.282,0,0,1,0,.03.351.351,0,0,1-.393.285l-2.872-.236a.332.332,0,0,1-.325-.345.352.352,0,0,1,.393-.286l2.872.236a.336.336,0,0,1,.327.315m-.126,41.275a.335.335,0,0,1-.327.314l-2.871.237a.351.351,0,0,1-.393-.285.329.329,0,0,1,.325-.345l2.872-.236a.351.351,0,0,1,.392.285.28.28,0,0,1,0,.03m-7.054-41.865a.279.279,0,0,1,0,.03.351.351,0,0,1-.393.285l-2.871-.236a.329.329,0,0,1-.325-.345.351.351,0,0,1,.392-.285l2.871.236a.336.336,0,0,1,.327.315m-.125,42.455a.335.335,0,0,1-.327.314l-2.871.236a.351.351,0,0,1-.393-.285.327.327,0,0,1,.325-.345l2.872-.236a.352.352,0,0,1,.393.285.279.279,0,0,1,0,.03m-7.053-43.046a.28.28,0,0,1,0,.03.351.351,0,0,1-.392.285l-2.873-.236a.327.327,0,0,1-.325-.345.351.351,0,0,1,.393-.285l2.872.236a.336.336,0,0,1,.327.314m-.126,43.636a.336.336,0,0,1-.327.314l-2.871.236a.35.35,0,0,1-.392-.285.328.328,0,0,1,.325-.344l2.872-.237a.35.35,0,0,1,.392.285.2.2,0,0,1,0,.03m-7.054-44.226a.279.279,0,0,1,0,.03.352.352,0,0,1-.394.285l-2.871-.236a.33.33,0,0,1-.326-.345.352.352,0,0,1,.394-.285l2.872.236a.335.335,0,0,1,.326.314m-.126,44.816a.335.335,0,0,1-.327.315l-2.871.236a.351.351,0,0,1-.393-.285.33.33,0,0,1,.326-.344l2.871-.237a.351.351,0,0,1,.393.286.267.267,0,0,1,0,.029m-7.053-45.405a.277.277,0,0,1,0,.03.351.351,0,0,1-.392.285l-2.873-.236a.33.33,0,0,1-.325-.345.352.352,0,0,1,.393-.285l2.872.236a.336.336,0,0,1,.327.315m-.126,46a.336.336,0,0,1-.327.315l-2.872.236a.351.351,0,0,1-.392-.286.328.328,0,0,1,.325-.345l2.871-.236a.351.351,0,0,1,.393.286.268.268,0,0,1,0,.029m-7.054-46.586c0,.01,0,.02,0,.03a.351.351,0,0,1-.392.285l-2.872-.236a.331.331,0,0,1-.326-.344.351.351,0,0,1,.393-.286l2.871.236a.336.336,0,0,1,.327.315m-.125,47.176a.335.335,0,0,1-.327.314l-2.872.237a.352.352,0,0,1-.393-.285.331.331,0,0,1,.325-.345l2.872-.236a.352.352,0,0,1,.393.285.286.286,0,0,1,0,.03m-4.864-44.789a.273.273,0,0,1-.028.122,19.809,19.809,0,0,1-1.3,2.3.389.389,0,0,1-.492.117.3.3,0,0,1-.134-.431,19.322,19.322,0,0,0,1.257-2.232.38.38,0,0,1,.472-.169.318.318,0,0,1,.221.292M27.3,366.438a.317.317,0,0,1-.219.291.38.38,0,0,1-.473-.167,19.175,19.175,0,0,0-1.272-2.226.3.3,0,0,1,.131-.432.389.389,0,0,1,.493.114,19.734,19.734,0,0,1,1.311,2.3.274.274,0,0,1,.029.124M23.547,329.49a.293.293,0,0,1-.092.211,18.558,18.558,0,0,1-2.119,1.782.4.4,0,0,1-.507-.043.29.29,0,0,1,.05-.445,17.89,17.89,0,0,0,2.039-1.715.4.4,0,0,1,.509-.025.3.3,0,0,1,.12.236m-.085,31.627a.3.3,0,0,1-.118.234.4.4,0,0,1-.51-.022,17.751,17.751,0,0,0-2.052-1.7.29.29,0,0,1-.053-.445.4.4,0,0,1,.507-.047,18.465,18.465,0,0,1,2.132,1.77.294.294,0,0,1,.094.212m-5.624-27.833a.314.314,0,0,1-.2.284,22.191,22.191,0,0,1-2.6.926l-.118.034a.374.374,0,0,1-.458-.2.308.308,0,0,1,.224-.4l.125-.037a21.433,21.433,0,0,0,2.5-.893.384.384,0,0,1,.482.144.281.281,0,0,1,.037.139m-.113,24.072a.287.287,0,0,1-.036.137.385.385,0,0,1-.481.147,21.517,21.517,0,0,0-2.392-.846l-.247-.073a.308.308,0,0,1-.222-.4.374.374,0,0,1,.459-.194l.235.07a22.068,22.068,0,0,1,2.48.876.315.315,0,0,1,.2.285m-6.339-21.331a.3.3,0,0,1-.137.248A12.224,12.224,0,0,0,9.258,338a.4.4,0,0,1-.507.045A.291.291,0,0,1,8.7,337.6a12.944,12.944,0,0,1,2.1-1.823.4.4,0,0,1,.506.052.293.293,0,0,1,.078.2m-.1,18.568a.292.292,0,0,1-.08.2.4.4,0,0,1-.507.048A12.913,12.913,0,0,1,8.617,353a.291.291,0,0,1,.056-.444.4.4,0,0,1,.507.049,12.266,12.266,0,0,0,1.971,1.743.3.3,0,0,1,.135.246M7.112,341.042a.28.28,0,0,1-.03.127,15.253,15.253,0,0,0-.935,2.343.368.368,0,0,1-.442.224.313.313,0,0,1-.254-.388,15.879,15.879,0,0,1,.97-2.432.381.381,0,0,1,.475-.162.316.316,0,0,1,.216.289m-.05,8.5a.316.316,0,0,1-.218.29.381.381,0,0,1-.474-.166,15.987,15.987,0,0,1-.952-2.438.316.316,0,0,1,.258-.386.368.368,0,0,1,.44.227,15.387,15.387,0,0,0,.917,2.348.276.276,0,0,1,.029.125" transform="translate(-2.447 -167.052)" fill="#3c6485"/>
        <path id="Trazado_894520" data-name="Trazado 894520" d="M110.443,371.156a.34.34,0,0,1-.361.316H107.2a.319.319,0,1,1,0-.632h2.884a.34.34,0,0,1,.361.316m-7.211,0a.34.34,0,0,1-.361.316H99.987a.319.319,0,1,1,0-.632h2.885a.34.34,0,0,1,.361.316m-7.211,0a.34.34,0,0,1-.361.316H92.777a.319.319,0,1,1,0-.632h2.884a.34.34,0,0,1,.361.316m-7.211,0a.34.34,0,0,1-.361.316H85.565a.319.319,0,1,1,0-.632H88.45a.34.34,0,0,1,.361.316m-7.211,0a.34.34,0,0,1-.36.316H78.355a.319.319,0,1,1,0-.632h2.885a.34.34,0,0,1,.36.316m-7.211,0a.34.34,0,0,1-.36.316H71.144a.319.319,0,1,1,0-.632h2.885a.34.34,0,0,1,.36.316m-7.211,0a.34.34,0,0,1-.36.316H63.933a.319.319,0,1,1,0-.632h2.885a.34.34,0,0,1,.36.316m-7.21,0a.341.341,0,0,1-.361.316H56.722a.319.319,0,1,1,0-.633h2.885a.341.341,0,0,1,.361.316m-7.211,0a.341.341,0,0,1-.361.316H49.511a.319.319,0,1,1,0-.633H52.4a.341.341,0,0,1,.361.316m-7.211,0a.34.34,0,0,1-.361.316H42.3a.319.319,0,1,1,0-.633h2.885a.34.34,0,0,1,.361.316m-7.211,0a.34.34,0,0,1-.361.316H35.09a.319.319,0,1,1,0-.633h2.885a.34.34,0,0,1,.361.316m-7.211,0a.34.34,0,0,1-.36.316H27.879a.319.319,0,1,1,0-.633h2.885a.34.34,0,0,1,.36.316m-7.211,0a.341.341,0,0,1-.361.316H20.668a.319.319,0,1,1,0-.633h2.884a.341.341,0,0,1,.361.316m-7.211,0a.34.34,0,0,1-.361.316H13.458a.319.319,0,1,1,0-.633h2.884a.34.34,0,0,1,.361.316m-7.211,0a.34.34,0,0,1-.36.316H6.247a.319.319,0,1,1,0-.633H9.131a.34.34,0,0,1,.36.316" transform="translate(-2.664 -192.864)" fill="#3c6485"/>
        <path id="Trazado_894521" data-name="Trazado 894521" d="M356.676,358.266H361.5c6.745,0,12.23-3.395,12.23-9.306,0-2.967-2.752-5.38-6.136-5.38H350.582a6.491,6.491,0,0,0-4.7,1.927l-3.841,3.294a1.289,1.289,0,0,1-1.265.21,1.028,1.028,0,0,1-.712-.94.956.956,0,0,1,.339-.719l3.956-3.488a6.486,6.486,0,0,1,4.256-1.555l12.1-.021q.391.032.79.032c4.632,0,8.4-3.3,8.4-7.366s-3.769-7.365-8.4-7.365-8.4,3.3-8.4,7.365c0,.042,0,.084,0,.126a3.675,3.675,0,0,1-1.285,2.815,4.8,4.8,0,0,1-3.193,1.165,10.332,10.332,0,0,0-6.805,2.448l-7.059,6.141.03.027a4.777,4.777,0,0,1-.03,7.405,13.773,13.773,0,0,0,9.054-3.288,1.37,1.37,0,0,1,.656-.159.658.658,0,0,1,.493.412c1.515,4.412,6.193,6.22,11.713,6.22M361.5,340.2a6.477,6.477,0,0,1-3.669-1.107,5.035,5.035,0,0,1-2.31-4.136c0-2.891,2.682-5.242,5.979-5.242s5.979,2.352,5.979,5.242S364.8,340.2,361.5,340.2m-4.825,14.885c-4.741,0-8.6-1.964-8.6-6.121a2.063,2.063,0,0,1,.736-1.552,2.681,2.681,0,0,1,1.768-.643h17.011a2.367,2.367,0,0,1,2.5,2.195c0,4.157-3.856,6.121-8.6,6.121Z" transform="translate(-151.526 -170.37)" fill="#428097"/>
        <path id="Trazado_894522" data-name="Trazado 894522" d="M364.686,375.595h4.823c6.745,0,12.23-3.394,12.23-9.306,0-2.967-2.752-5.38-6.136-5.38H358.592a6.489,6.489,0,0,0-4.7,1.927,4.971,4.971,0,0,0-1.435,3.453,9.416,9.416,0,0,0,.23,2.076c1.105,4.921,6.066,7.23,12,7.23m0-3.185c-4.741,0-8.6-1.964-8.6-6.121a2.064,2.064,0,0,1,.736-1.552,2.681,2.681,0,0,1,1.768-.643H375.6a2.367,2.367,0,0,1,2.5,2.195c0,4.157-3.856,6.121-8.6,6.121Z" transform="translate(-159.537 -187.699)" fill="#3c6485"/>
        <path id="Trazado_894523" data-name="Trazado 894523" d="M376.668,342.319c4.631,0,8.4-3.3,8.4-7.365s-3.769-7.365-8.4-7.365-8.4,3.3-8.4,7.365a6.7,6.7,0,0,0,1.444,4.125,8.668,8.668,0,0,0,6.166,3.209c.261.022.524.032.79.032m0-2.123A6.481,6.481,0,0,1,373,339.089a5.035,5.035,0,0,1-2.31-4.136c0-2.891,2.682-5.242,5.979-5.242s5.979,2.352,5.979,5.242-2.683,5.242-5.979,5.242" transform="translate(-166.694 -170.369)" fill="#3c6485"/>
        <path id="Trazado_894524" data-name="Trazado 894524" d="M278.262,369.388h-7.406c-.056,0-.13,0-.232,0l-.205,0c-5.078.046-44.516.73-44.516,3.712l51.295-2.717a1.069,1.069,0,0,0,1.065-1" transform="translate(-102.253 -192.108)" fill="#b0bfc6"/>
        <path id="Trazado_894525" data-name="Trazado 894525" d="M287.26,373.123a4.916,4.916,0,0,0-1.744-3.708l-.031-.026h-7.224a1.068,1.068,0,0,1-1.064,1L225.9,373.106a.564.564,0,0,0,.268.419c3.616,2.734,42.454,3.3,44.685,3.3h14.63a4.97,4.97,0,0,0,1.753-3.293,3.53,3.53,0,0,0,.022-.4" transform="translate(-102.254 -192.109)" fill="#cfd8dd"/>
        <path id="Trazado_894526" data-name="Trazado 894526" d="M320.84,377.532a1.874,1.874,0,1,0-2.118-1.858,2,2,0,0,0,2.118,1.858" transform="translate(-144.267 -194.411)" fill="#428097"/>
        <path id="Trazado_894577" data-name="Trazado 894577" d="M0,0,3.977.261,4,.541.018.28Z" transform="matrix(0.707, -0.707, 0.707, 0.707, 174.969, 182.484)" fill="#3c6485"/>
        <path id="Trazado_894527" data-name="Trazado 894527" d="M202.454,211.031a2.216,2.216,0,0,1-4.394,0V161.085h4.394Z" transform="translate(-89.651 -83.776)" fill="#ffe060"/>
        <path id="Trazado_894528" data-name="Trazado 894528" d="M202.766,196.635a2.47,2.47,0,0,1-2.615,2.293h-2.773a2.313,2.313,0,1,1,0-4.586h2.773a2.47,2.47,0,0,1,2.615,2.293" transform="translate(-88.158 -101.072)" fill="#ffb74d"/>
        <path id="Trazado_894529" data-name="Trazado 894529" d="M202.766,249.313a2.47,2.47,0,0,1-2.615,2.293h-2.773a2.313,2.313,0,1,1,0-4.586h2.773a2.47,2.47,0,0,1,2.615,2.293" transform="translate(-88.158 -128.468)" fill="#ffb74d"/>
        <path id="Trazado_894530" data-name="Trazado 894530" d="M203.106,205.607a1.841,1.841,0,0,1-1.949,1.709h-8.029a1.723,1.723,0,1,1,0-3.417h8.029a1.841,1.841,0,0,1,1.949,1.709" transform="translate(-86.536 -106.042)" fill="#ffb74d"/>
        <path id="Trazado_894531" data-name="Trazado 894531" d="M206.44,275.853a1.321,1.321,0,0,1-.319,1.232,1.757,1.757,0,0,1-1.3.55H204.8a1.375,1.375,0,0,1-1.384-1,5.78,5.78,0,0,0-5.8-4.186c-4.991,0-9.052-3.561-9.052-7.937,0-2.859-2.653-5.186-5.914-5.186h-3.638c-3.261,0-5.914,2.327-5.914,5.186,0,4.376-4.061,7.937-9.052,7.937a5.808,5.808,0,0,0-5.77,4.042,1.64,1.64,0,0,1-1.63,1.143,1.59,1.59,0,0,1-1.164-.484,1.2,1.2,0,0,1-.309-1.1c.837-3.622,4.5-6.357,8.873-6.357,3.261,0,5.914-2.326,5.914-5.186,0-4.377,4.061-7.938,9.053-7.938h3.638c4.991,0,9.052,3.561,9.052,7.938,0,2.859,2.653,5.186,5.914,5.186,4.293,0,7.9,2.633,8.823,6.154" transform="translate(-70.224 -133.438)" fill="#ffe060"/>
        <path id="Trazado_894532" data-name="Trazado 894532" d="M198.167,33.989A25.04,25.04,0,0,0,196.975,45.2a24.374,24.374,0,0,0,.5,2.752,25.928,25.928,0,0,0,2.373,6.258c1.738,3.261,4.077,6.756,4.912,10.328a11.174,11.174,0,0,1,.314,2.565V79.083c0,1.511-9.076,2.752-20.579,2.854q-.778.009-1.569.009c-.527,0-1.051,0-1.569-.009-11.5-.1-20.58-1.343-20.58-2.854V65.918a8.174,8.174,0,0,1,.119-1.376c.54-3.217,2.787-6.4,4.093-9.414l1-2.3a25.492,25.492,0,0,0,1.553-4.871,23.422,23.422,0,0,0,.427-2.752,25,25,0,0,0-.91-9.565l-3.5-7.023-1.371-2.752L159.752,21c-1.083-3.671,1.183-7.463,5.242-8.77l4.434-1.425a12.325,12.325,0,0,0,1.2-.46A11.785,11.785,0,0,0,174.55,7.6a5.616,5.616,0,0,0,1.645-3.709h13.451A5.616,5.616,0,0,0,191.291,7.6a11.808,11.808,0,0,0,3.917,2.752,12.368,12.368,0,0,0,1.2.46l4.149,1.335c4.177,1.346,6.437,5.311,5.151,9.045l-2.756,4.678-1.622,2.752Z" transform="translate(-72.189 -2.021)" fill="#a5d6a7"/>
        <path id="Trazado_894533" data-name="Trazado 894533" d="M206.136,132.837v.187h-44.3v-1.376a8.119,8.119,0,0,1,.119-1.376h43.864a11.145,11.145,0,0,1,.314,2.565" transform="translate(-73.255 -67.751)" fill="#ffd16d"/>
        <path id="Trazado_894534" data-name="Trazado 894534" d="M204.128,92.732H174.19a23.556,23.556,0,0,0,.427-2.752h29.015a24.377,24.377,0,0,0,.5,2.752" transform="translate(-78.846 -46.796)" fill="#ffd16d"/>
        <path id="Trazado_894535" data-name="Trazado 894535" d="M205.181,49.682l-1.622,2.752H165.774L164.4,49.682Z" transform="translate(-74.416 -25.838)" fill="#ffd16d"/>
        <path id="Trazado_894536" data-name="Trazado 894536" d="M204.427,14.367H179.85a11.785,11.785,0,0,0,3.92-2.752h16.741a11.8,11.8,0,0,0,3.917,2.752" transform="translate(-81.408 -6.041)" fill="#ffd16d"/>
        <path id="Trazado_894537" data-name="Trazado 894537" d="M202.311,3.886V81.937c-.518.006-1.042.009-1.569.009s-1.051,0-1.569-.009V3.886Z" transform="translate(-90.154 -2.021)" fill="#ffd16d"/>
        <path id="Trazado_894538" data-name="Trazado 894538" d="M203.469,2.017c0,.953-3.012,1.726-6.726,1.726s-6.726-.773-6.726-1.726S193.028.291,196.743.291s6.726.773,6.726,1.726" transform="translate(-86.01 -0.151)" fill="#ffb74d"/>
        <path id="Trazado_894539" data-name="Trazado 894539" d="M93.626,65.6v19.3a6.236,6.236,0,0,0,2.213,4.684l4.968,4.357-3.181,2.79-4.958-4.347a9.989,9.989,0,0,1-3.543-7.5V65.6Z" transform="translate(-40.342 -34.114)" fill="#b0bfc6"/>
        <path id="Trazado_894540" data-name="Trazado 894540" d="M91.121,118.9c0,.262,2.324.407,2.356.661s-2.2.85-2.131,1.1,2.368-.058,2.465.184-1.923,1.259-1.8,1.491,2.293-.522,2.45-.3-1.556,1.6-1.373,1.8,2.1-.955,2.312-.772-1.113,1.865-.883,2.026,1.809-1.341,2.059-1.2-.612,2.035-.346,2.148,1.421-1.661,1.7-1.575-.079,2.1.21,2.161.96-1.9,1.255-1.869.456,2.066.754,2.066.465-2.037.754-2.066.972,1.925,1.256,1.869-.066-2.077.21-2.162,1.436,1.687,1.7,1.576-.6-2.011-.347-2.148,1.829,1.363,2.059,1.2-1.09-1.844-.882-2.027,2.126.976,2.31.773-1.529-1.586-1.372-1.805,2.321.538,2.449.3-1.894-1.245-1.8-1.491,2.4.069,2.465-.185-2.164-.841-2.131-1.1,2.356-.4,2.356-.661-2.324-.407-2.356-.661,2.2-.851,2.131-1.1-2.368.059-2.465-.184,1.923-1.259,1.8-1.491-2.293.522-2.449.3,1.555-1.6,1.372-1.805-2.1.956-2.311.774,1.112-1.865.882-2.026-1.81,1.34-2.059,1.2.614-2.034.347-2.147-1.421,1.661-1.7,1.575.078-2.1-.211-2.162-.96,1.9-1.255,1.869-.455-2.066-.754-2.066-.464,2.037-.754,2.066-.971-1.925-1.256-1.868.066,2.076-.21,2.161-1.436-1.686-1.7-1.575.595,2.01.346,2.147-1.829-1.363-2.059-1.2,1.09,1.844.882,2.026-2.126-.975-2.311-.773,1.53,1.586,1.372,1.805-2.32-.538-2.449-.3,1.893,1.246,1.8,1.491-2.4-.07-2.464.184,2.164.842,2.131,1.1-2.356.4-2.356.661" transform="translate(-41.245 -57.721)" fill="#ffb74d"/>
        <path id="Trazado_894541" data-name="Trazado 894541" d="M101.632,124.371a3.306,3.306,0,1,0,3.278-2.874,3.1,3.1,0,0,0-3.278,2.874" transform="translate(-46.003 -63.187)" fill="#cfd8dd"/>
        <path id="Trazado_894542" data-name="Trazado 894542" d="M105.8,126.54a1,1,0,1,0,1-.873.94.94,0,0,0-1,.873" transform="translate(-47.89 -65.356)" fill="#b0bfc6"/>
        <path id="Trazado_894543" data-name="Trazado 894543" d="M83.064,5.4,85.3,18.757a5.721,5.721,0,0,1,.044,1.592h7.04a5.717,5.717,0,0,1,.045-1.592L94.661,5.4a4.744,4.744,0,0,0-1.57-3.8A6.22,6.22,0,0,0,88.862,0S85.73.582,84.633,1.6a4.735,4.735,0,0,0-1.569,3.8" transform="translate(-37.593)" fill="#a5d6a7"/>
        <path id="Trazado_894544" data-name="Trazado 894544" d="M82.582,48.161a.213.213,0,0,1,0,.044l1.072,7.34a5.1,5.1,0,0,0,9.974,0L94.7,48.2c0-.013,0-.028.006-.044a2.689,2.689,0,0,0-.777-2.094.167.167,0,0,0-.021-.021A6.231,6.231,0,0,1,92.166,42.4H85.125a6.224,6.224,0,0,1-1.745,3.646.079.079,0,0,0-.021.021,2.689,2.689,0,0,0-.777,2.094" transform="translate(-37.376 -22.051)" fill="#74b274"/>
        <path id="Trazado_894545" data-name="Trazado 894545" d="M73.322,216.911,94.674,206.1c-8.751-13.29-18.785-25.93-21.352-24.63Z" transform="translate(-33.189 -94.331)" fill="#e2a047"/>
        <path id="Trazado_894546" data-name="Trazado 894546" d="M55.664,216.911V181.472c-2.567-1.3-12.6,11.341-21.352,24.63Z" transform="translate(-15.531 -94.331)" fill="#ffb74d"/>
        <path id="Trazado_894547" data-name="Trazado 894547" d="M43.952,243.7,22.6,232.892c-8.751,13.29-16.218,27.229-13.651,28.528l35-17.719" transform="translate(-3.818 -121.121)" fill="#e2a047"/>
        <path id="Trazado_894548" data-name="Trazado 894548" d="M108.325,261.421c2.567-1.3-4.9-15.239-13.651-28.528L73.322,243.7l35,17.719h0" transform="translate(-33.189 -121.121)" fill="#ffb74d"/>
        <path id="Trazado_894549" data-name="Trazado 894549" d="M9.373,273.135c0,2.6,17.5,3.9,35,3.9V255.416Z" transform="translate(-4.243 -132.835)" fill="#ffb74d"/>
        <path id="Trazado_894550" data-name="Trazado 894550" d="M73.322,255.415v21.617c17.5,0,35-1.3,35-3.9l-35-17.719" transform="translate(-33.189 -132.834)" fill="#e2a047"/>
        <path id="Trazado_894551" data-name="Trazado 894551" d="M76.329,238.9c0,8.416-7.782,15.239-17.38,15.239s-17.38-6.823-17.38-15.239,7.781-15.239,17.38-15.239,17.38,6.823,17.38,15.239" transform="translate(-18.816 -116.321)" fill="#ffb74d"/>
        <path id="Trazado_894552" data-name="Trazado 894552" d="M75.385,244.086c0,5.774-5.338,10.454-11.923,10.454s-11.923-4.681-11.923-10.454,5.338-10.455,11.923-10.455,11.923,4.681,11.923,10.455" transform="translate(-23.329 -121.505)" fill="#f7d9b2"/>
        <path id="Trazado_894553" data-name="Trazado 894553" d="M62.811,254.482c-7.008,0-12.711-5-12.711-11.145s5.7-11.145,12.711-11.145,12.711,5,12.711,11.145-5.7,11.145-12.711,11.145m0-20.909c-6.14,0-11.135,4.38-11.135,9.764s5,9.764,11.135,9.764,11.135-4.38,11.135-9.764-5-9.764-11.135-9.764" transform="translate(-22.677 -120.757)" fill="#e2a047"/>
        <rect id="Rectángulo_413054" data-name="Rectángulo 413054" width="3.442" height="27.916" transform="translate(8.92 29.753)" fill="#b0bfc6"/>
        <path id="Trazado_894554" data-name="Trazado 894554" d="M13.952,133.879s-.052-.1-.134-.29-.208-.467-.339-.821-.287-.784-.445-1.278-.318-1.051-.477-1.659-.306-1.267-.445-1.965-.265-1.434-.37-2.2c-.061-.381-.1-.768-.147-1.16q-.034-.294-.068-.592t-.051-.6c-.031-.4-.075-.8-.091-1.209l0-.038v-.019c0-.01,0-.105,0-.105v-.381l.008-.2c.007-.134.012-.277.024-.405l.041-.378a8.145,8.145,0,0,1,.388-1.544c.05-.132.1-.263.161-.4s.125-.267.209-.408l.12-.207c.041-.069.095-.144.143-.215s.1-.141.153-.215l.188-.225.1-.11.119-.118q.122-.117.248-.229c.1-.081.211-.161.32-.236.058-.038.1-.073.173-.112s.139-.075.21-.11a3.684,3.684,0,0,1,1-.332,4.855,4.855,0,0,1,.595-.053h.089l.042,0,.084,0,.422.022.165.025.083.013c.06.011.121.022.181.036.121.026.241.058.358.095.059.019.117.038.173.06a1.373,1.373,0,0,1,.146.059c.068.033.136.067.2.1s.132.072.2.11l.095.057.076.056c.1.075.2.153.293.232a3.156,3.156,0,0,1,.23.227,2.71,2.71,0,0,1,.2.224,4.58,4.58,0,0,1,.8,1.569,6.093,6.093,0,0,1,.238,1.352,7.6,7.6,0,0,1-.019,1.219l-.085.626c-.039.157-.076.312-.119.463-.163.6-.328,1.158-.49,1.647s-.316.916-.455,1.267-.266.624-.344.813-.136.287-.136.287l-.723-.034s.025-.407.07-1.119.112-1.728.191-2.948c.011-.152.022-.308.033-.466l0-.06,0-.03c0,.03,0,0,0,.009,0-.022,0-.139,0-.139l0-.237a7.425,7.425,0,0,0-.106-.98,5.363,5.363,0,0,0-.27-1,3.206,3.206,0,0,0-.521-.925,1.313,1.313,0,0,0-.39-.322.354.354,0,0,0-.1-.044.42.42,0,0,1-.041-.015.1.1,0,0,0-.055-.016l-.166-.018c-.033,0,.034,0,.024,0h-.157c-.053,0-.119,0-.162,0s-.074.008-.113.01a.856.856,0,0,0-.224.082,1.283,1.283,0,0,0-.218.142,2.005,2.005,0,0,0-.195.2,3.371,3.371,0,0,0-.565,1.009,6.124,6.124,0,0,0-.3,1.148c-.03.2-.058.393-.073.588s-.025.413-.029.6q0,.608.007,1.211c0,.8.009,1.591.013,2.355.009,1.527.017,2.953.024,4.175s0,2.24,0,2.953,0,1.12,0,1.12" transform="translate(-5.151 -60.366)" fill="#cfd8dd"/>
        <path id="Trazado_894555" data-name="Trazado 894555" d="M20.691,136.685a1.449,1.449,0,1,1,1.436,1.26,1.357,1.357,0,0,1-1.436-1.26" transform="translate(-9.366 -70.431)" fill="#74b274"/>
        <path id="Trazado_894556" data-name="Trazado 894556" d="M8.436,77.071a1.422,1.422,0,0,1,1.506-1.32h9.035a1.332,1.332,0,1,1,0,2.641H9.942a1.422,1.422,0,0,1-1.506-1.32" transform="translate(-3.819 -39.396)" fill="#74b274"/>
        <path id="Trazado_894557" data-name="Trazado 894557" d="M11.187,4.252A4.267,4.267,0,0,1,15.7.291a4.267,4.267,0,0,1,4.517,3.961V36.506H11.187Z" transform="translate(-5.064 -0.151)" fill="#a5d6a7"/>
        <path id="Trazado_894558" data-name="Trazado 894558" d="M299.774,322.723c0,5.081,4.7,9.2,10.494,9.2s10.494-4.12,10.494-9.2-4.7-9.2-10.494-9.2-10.494,4.12-10.494,9.2m15.173,2.775a1.527,1.527,0,1,1-1.514-1.327,1.43,1.43,0,0,1,1.514,1.327m-6.33,0a1.527,1.527,0,1,1-1.514-1.327,1.43,1.43,0,0,1,1.514,1.327m6.33-5.55a1.527,1.527,0,1,1-1.514-1.327,1.43,1.43,0,0,1,1.514,1.327m-6.33,0a1.527,1.527,0,1,1-1.514-1.327,1.43,1.43,0,0,1,1.514,1.327" transform="translate(-135.691 -163.054)" fill="#a5d6a7"/>
        <path id="Trazado_894559" data-name="Trazado 894559" d="M301.826,323.79c0,4.538,4.2,8.217,9.371,8.217s9.371-3.679,9.371-8.217-4.2-8.216-9.371-8.216-9.371,3.679-9.371,8.216m14.049,2.775a1.527,1.527,0,1,1-1.514-1.327,1.43,1.43,0,0,1,1.514,1.327m-6.33,0a1.527,1.527,0,1,1-1.514-1.327,1.43,1.43,0,0,1,1.514,1.327m6.33-5.55a1.527,1.527,0,1,1-1.514-1.327,1.43,1.43,0,0,1,1.514,1.327m-6.33,0a1.527,1.527,0,1,1-1.514-1.327,1.43,1.43,0,0,1,1.514,1.327" transform="translate(-136.62 -164.121)" fill="#ffd16d"/>
        <path id="Trazado_894560" data-name="Trazado 894560" d="M304,324.923c0,3.961,3.662,7.172,8.18,7.172s8.18-3.211,8.18-7.172-3.662-7.172-8.18-7.172-8.18,3.211-8.18,7.172m12.859,2.775a1.527,1.527,0,1,1-1.514-1.327,1.43,1.43,0,0,1,1.514,1.327m-6.33,0a1.527,1.527,0,1,1-1.514-1.327,1.43,1.43,0,0,1,1.514,1.327m6.33-5.55a1.527,1.527,0,1,1-1.514-1.327,1.43,1.43,0,0,1,1.514,1.327m-6.33,0a1.527,1.527,0,1,1-1.514-1.327,1.43,1.43,0,0,1,1.514,1.327" transform="translate(-137.605 -165.254)" fill="#d1c4e9"/>
        <path id="Trazado_894561" data-name="Trazado 894561" d="M313.318,326.063v5.55a.9.9,0,0,1-1.787,0v-5.55a.9.9,0,0,1,1.787,0" transform="translate(-141.012 -169.169)" fill="#3bf2d6"/>
        <path id="Trazado_894562" data-name="Trazado 894562" d="M324.883,326.063v5.55a.9.9,0,0,1-1.787,0v-5.55a.9.9,0,0,1,1.787,0" transform="translate(-146.247 -169.169)" fill="#3bf2d6"/>
        <path id="Trazado_894563" data-name="Trazado 894563" d="M251.2,313.522c-.638,0-1.21.475-1.808.593-.617.125-1.365-.083-1.923.154s-.847.883-1.334,1.224-1.268.441-1.66.87-.325,1.112-.6,1.609-.923.872-1.064,1.416c-.138.524.261,1.115.261,1.677s-.4,1.153-.261,1.68.8.924,1.064,1.413.209,1.182.6,1.611,1.171.525,1.66.868.767.984,1.334,1.226,1.306.027,1.923.152c.6.119,1.17.593,1.808.593s1.211-.475,1.811-.593c.617-.125,1.365.083,1.923-.152s.848-.885,1.334-1.226,1.268-.439,1.66-.87.325-1.112.6-1.609.923-.872,1.063-1.413-.261-1.118-.261-1.68.4-1.153.261-1.677c-.14-.544-.8-.926-1.063-1.416s-.211-1.182-.6-1.609-1.17-.526-1.66-.87-.766-.984-1.334-1.224-1.305-.029-1.923-.154c-.6-.119-1.17-.593-1.811-.593m0,4.914a.792.792,0,0,1,.14.01c.05-.1.1-.2.138-.191s.033.115.028.223a1.039,1.039,0,0,1,.25.106c.1-.072.19-.139.218-.12s-.028.117-.085.215a.846.846,0,0,1,.173.187c.119-.027.237-.054.254-.025s-.083.1-.181.16a.7.7,0,0,1,.062.235c.121.021.242.042.242.077s-.121.054-.242.075a.71.71,0,0,1-.062.235c.1.064.2.131.181.16s-.135,0-.254-.025a.807.807,0,0,1-.173.188c.057.1.114.193.083.215s-.121-.048-.216-.119a1.039,1.039,0,0,1-.25.107c0,.108.007.214-.03.222s-.085-.092-.136-.191a.792.792,0,0,1-.14.01.992.992,0,0,1-.137-.008c-.052.1-.1.2-.138.189s-.033-.114-.031-.222a1.03,1.03,0,0,1-.247-.107c-.1.071-.188.14-.218.119s.028-.117.085-.215a.761.761,0,0,1-.174-.19c-.121.029-.237.056-.253.027s.08-.094.18-.16a.709.709,0,0,1-.062-.235c-.121-.021-.242-.042-.242-.075s.121-.056.242-.077a.7.7,0,0,1,.062-.235c-.1-.067-.2-.132-.18-.16s.135,0,.256.025a.789.789,0,0,1,.171-.187c-.057-.1-.114-.194-.085-.215s.123.048.218.12a1.009,1.009,0,0,1,.249-.106c0-.108-.007-.214.031-.223s.085.092.135.19a.992.992,0,0,1,.137-.008m0,3.5a.8.8,0,0,1,.14.01c.05-.1.1-.2.138-.191s.033.115.028.223a1.037,1.037,0,0,1,.25.106c.1-.071.19-.138.218-.119s-.028.117-.085.215a.808.808,0,0,1,.173.188c.119-.027.237-.054.254-.025s-.083.1-.181.16a.71.71,0,0,1,.062.235c.121.021.242.042.242.075s-.121.056-.242.077a.7.7,0,0,1-.062.235c.1.065.2.131.181.16s-.135,0-.256-.025a.753.753,0,0,1-.171.187c.057.1.114.194.083.215s-.121-.048-.216-.119a1.018,1.018,0,0,1-.25.106c.006.108.006.216-.03.223s-.085-.091-.136-.191a.748.748,0,0,1-.14.011.72.72,0,0,1-.137-.011c-.052.1-.1.2-.138.191s-.033-.114-.031-.223a1.009,1.009,0,0,1-.247-.106c-.1.071-.19.137-.218.119s.028-.117.085-.215a.753.753,0,0,1-.171-.187c-.12.027-.239.054-.256.025s.08-.094.18-.16a.7.7,0,0,1-.062-.235c-.121-.021-.242-.041-.242-.077s.121-.054.242-.075a.709.709,0,0,1,.062-.235c-.1-.066-.2-.131-.18-.16s.135,0,.253.025a.81.81,0,0,1,.174-.188c-.057-.1-.114-.193-.085-.215s.123.048.218.119a1.007,1.007,0,0,1,.249-.106c0-.108-.007-.217.031-.223s.085.092.135.19a1,1,0,0,1,.137-.008" transform="translate(-109.895 -163.054)" fill="#3c6485"/>
        <path id="Trazado_894564" data-name="Trazado 894564" d="M246.8,323.329c0,3.012,2.784,5.453,6.22,5.453s6.22-2.441,6.22-5.453-2.784-5.453-6.22-5.453-6.22,2.441-6.22,5.453m7.22,1.754a1.008,1.008,0,1,1-1-.877.944.944,0,0,1,1,.877m0-3.507a1.008,1.008,0,1,1-1-.877.944.944,0,0,1,1,.877" transform="translate(-111.712 -165.319)" fill="#80bfd5"/>
        <path id="Trazado_894565" data-name="Trazado 894565" d="M249.313,324.638c0,2.346,2.17,4.246,4.842,4.246s4.845-1.9,4.845-4.246-2.17-4.246-4.845-4.246-4.842,1.9-4.842,4.246m5.7,1.307a.832.832,0,0,1,.135.37c0,.025,0,.05,0,.075s0,.052,0,.077a.709.709,0,0,1-.062.236.625.625,0,0,1-.076.135.76.76,0,0,1-.171.187.82.82,0,0,1-.132.1,1.008,1.008,0,0,1-.25.106.849.849,0,0,1-.166.031.745.745,0,0,1-.14.011.72.72,0,0,1-.137-.011.869.869,0,0,1-.169-.031.99.99,0,0,1-.247-.106.8.8,0,0,1-.133-.1.763.763,0,0,1-.171-.187.626.626,0,0,1-.076-.135.723.723,0,0,1-.062-.236c0-.025,0-.05,0-.077s0-.05,0-.075a.724.724,0,0,1,.062-.235.678.678,0,0,1,.074-.135.8.8,0,0,1,.173-.188.834.834,0,0,1,.133-.1,1.009,1.009,0,0,1,.249-.106,1.077,1.077,0,0,1,.166-.033.925.925,0,0,1,.137-.009.751.751,0,0,1,.14.01.889.889,0,0,1,.166.031,1.049,1.049,0,0,1,.25.106.853.853,0,0,1,.132.1.818.818,0,0,1,.174.188m0-3.507a.832.832,0,0,1,.135.37c0,.025,0,.05,0,.077s0,.05,0,.075a.826.826,0,0,1-.135.37.8.8,0,0,1-.174.188.818.818,0,0,1-.132.1,1.05,1.05,0,0,1-.25.107.935.935,0,0,1-.166.031.792.792,0,0,1-.14.01,1,1,0,0,1-.137-.008,1.178,1.178,0,0,1-.169-.033,1.031,1.031,0,0,1-.247-.107.8.8,0,0,1-.133-.1.74.74,0,0,1-.173-.19.569.569,0,0,1-.074-.133.724.724,0,0,1-.062-.235c0-.025,0-.05,0-.075s0-.052,0-.077a.723.723,0,0,1,.062-.235.615.615,0,0,1,.076-.135.962.962,0,0,1,.3-.281.988.988,0,0,1,.249-.106,1.074,1.074,0,0,1,.166-.034,1,1,0,0,1,.137-.008.792.792,0,0,1,.14.01.885.885,0,0,1,.166.032,1.027,1.027,0,0,1,.25.106.811.811,0,0,1,.132.094.857.857,0,0,1,.174.187" transform="translate(-112.85 -166.627)" fill="#3c6485"/>
        <path id="Trazado_894566" data-name="Trazado 894566" d="M258.278,325.179v3.382a.57.57,0,0,1-1.131,0v-3.382a.57.57,0,0,1,1.131,0" transform="translate(-116.396 -168.859)" fill="#80bfd5"/>
        <path id="Trazado_894567" data-name="Trazado 894567" d="M137.493,215.311,121.644,202.7l.7-.646Z" transform="translate(-55.061 -105.08)" fill="#cfd8dd"/>
        <path id="Trazado_894568" data-name="Trazado 894568" d="M122.114,200.756a1,1,0,0,1,.043,1.539,1.368,1.368,0,0,1-1.755.038,1,1,0,0,1-.043-1.539,1.368,1.368,0,0,1,1.755-.038" transform="translate(-54.325 -104.252)" fill="#ffd16d"/>
        <path id="Trazado_894569" data-name="Trazado 894569" d="M142.1,184.915l-11.193-16,.88-.449Z" transform="translate(-59.254 -87.616)" fill="#cfd8dd"/>
        <path id="Trazado_894570" data-name="Trazado 894570" d="M131.757,167.21a1.019,1.019,0,0,1-.449,1.488,1.342,1.342,0,0,1-1.7-.394,1.019,1.019,0,0,1,.449-1.488,1.342,1.342,0,0,1,1.7.394" transform="translate(-58.591 -86.68)" fill="#d04849"/>
        <path id="Trazado_894571" data-name="Trazado 894571" d="M25,191.861,10.767,205.884l-.744-.609Z" transform="translate(-4.537 -99.782)" fill="#cfd8dd"/>
        <path id="Trazado_894572" data-name="Trazado 894572" d="M8.769,218.523a1.367,1.367,0,0,1,1.754-.053,1,1,0,0,1,.061,1.538,1.367,1.367,0,0,1-1.754.053,1,1,0,0,1-.061-1.538" transform="translate(-3.818 -113.468)" fill="#3c6485"/>
        <path id="Trazado_894573" data-name="Trazado 894573" d="M138.4,20.851l-4.753-18.3,1-.178Z" transform="translate(-60.492 -1.234)" fill="#cfd8dd"/>
        <path id="Trazado_894574" data-name="Trazado 894574" d="M134.743,1.162a1.1,1.1,0,0,1-.969,1.283,1.246,1.246,0,0,1-1.463-.85A1.1,1.1,0,0,1,133.28.312a1.246,1.246,0,0,1,1.463.85" transform="translate(-59.878 -0.151)" fill="#3c6485"/>
        <path id="Trazado_894575" data-name="Trazado 894575" d="M247.874,193.543l-.006-.031a.644.644,0,0,0-.55-.592c-.259,0-.488.234-.557.579a7.564,7.564,0,0,0-.144,1.694l.178,2.475c.012.167.217,5.384.22,5.552l.3,18.149c.014,0,.29-18.14.29-18.14,0-.165.206-5.378.217-5.542l.177-2.544a7.61,7.61,0,0,0-.126-1.6m-.564,3.374a6.03,6.03,0,0,1-.25-2.106c0-.811.112-1.107.249-1.107s.249.3.249,1.107a6.016,6.016,0,0,1-.248,2.106" transform="translate(-111.629 -100.333)" fill="#cfd8dd"/>
        <path id="Trazado_894576" data-name="Trazado 894576" d="M264.846,236.178l-.006-.031a.644.644,0,0,0-.55-.592c-.259,0-.488.234-.557.579a7.558,7.558,0,0,0-.144,1.694l.178,2.475c.012.167.217,5.384.22,5.552l.3,18.149c.014,0,.29-18.14.29-18.14,0-.165.206-5.378.217-5.542l.177-2.544a7.611,7.611,0,0,0-.126-1.6m-.564,3.374a6.031,6.031,0,0,1-.25-2.106c0-.811.112-1.107.249-1.107s.249.3.249,1.107a6.017,6.017,0,0,1-.248,2.106" transform="translate(-119.311 -122.506)" fill="#cfd8dd"/>
      </g>
    </g>
  </g>
</svg>
