<svg xmlns="http://www.w3.org/2000/svg" xmlns:xlink="http://www.w3.org/1999/xlink" width="295" height="246" viewBox="0 0 295 246">
  <defs>
    <clipPath id="clip-path">
      <rect id="Rectángulo_411857" data-name="Rectángulo 411857" width="238.734" height="222.631" fill="none"/>
    </clipPath>
  </defs>
  <g id="Grupo_1124946" data-name="Grupo 1124946" transform="translate(-810 -812)">
    <path id="Trazado_890562" data-name="Trazado 890562" d="M0,0H295V246H0Z" transform="translate(810 812)" fill="#faf9fd"/>
    <g id="Grupo_1121664" data-name="Grupo 1121664" transform="translate(839 822.268)">
      <g id="Grupo_1121663" data-name="Grupo 1121663" clip-path="url(#clip-path)">
        <path id="Trazado_890563" data-name="Trazado 890563" d="M137.976,21.754c7.659,2.128,15.831,2.207,23.826,2.014,9.307-.226,18.74-.771,27.818,1.281,21.441,4.848,31.293,28.27,37.818,47.191,6.962,20.194,9.974,42,6.646,63.1s-13.285,41.434-29.331,55.533c-19.24,16.906-45.226,23.642-70.434,28.17-20.879,3.751-43.012,6.249-62.808-1.375-18.074-6.96-32.553-22.266-39.324-40.412s-5.964-38.829,1.377-56.753C38.8,107.734,47.4,94.8,44.325,81.345,41.5,68.961,29.417,60.437,26.061,48.184c-3.6-13.158,4.16-27.308,15.189-35.338,9.121-6.64,21.691-9.9,32.776-11.8,9.99-1.72,20.531-1.53,29.936,2.253,10.8,4.343,19.408,13.091,30.284,17.237q1.84.7,3.732,1.222" transform="translate(3.293 0)" fill="#ede7f6"/>
        <path id="Trazado_890564" data-name="Trazado 890564" d="M35.836,79.069c1.553,5.669,2.315,12.04-.552,17.17-3.519,6.3-12.009,8.782-18.867,6.545S4.455,94.4,2.109,87.581c-3.291-9.567-4.394-35.189,9.44-37.694C25.1,47.436,33.206,69.468,35.835,79.063" transform="translate(0 6.501)" fill="#ede7f6"/>
        <path id="Trazado_890565" data-name="Trazado 890565" d="M215.359,150.493H31.03a9.357,9.357,0,0,0-9.355,9.353V172H224.718V159.846a9.354,9.354,0,0,0-9.359-9.353" transform="translate(2.835 19.687)" fill="#a5d6a7"/>
        <path id="Trazado_890566" data-name="Trazado 890566" d="M139.453,84.381A10.686,10.686,0,1,0,128.768,73.7a10.695,10.695,0,0,0,10.685,10.684" transform="translate(16.845 8.243)" fill="#a5d6a7"/>
        <path id="Trazado_890567" data-name="Trazado 890567" d="M108.832,84.381A10.686,10.686,0,1,0,98.147,73.7a10.695,10.695,0,0,0,10.685,10.684" transform="translate(12.839 8.243)" fill="#a5d6a7"/>
        <path id="Trazado_890568" data-name="Trazado 890568" d="M194.191,97.717V66.951a4.71,4.71,0,0,0-4.71-4.708h-2.189v40.18h2.189a4.709,4.709,0,0,0,4.71-4.706" transform="translate(24.501 8.142)" fill="#a5d6a7"/>
        <path id="Trazado_890569" data-name="Trazado 890569" d="M51.711,131.182h23.6a9.354,9.354,0,0,0,9.353-9.356v-9.2a9.355,9.355,0,0,1,9.351-9.356h25.476a9.358,9.358,0,0,1,9.356,9.356v48.046h74.5V59.776a9.356,9.356,0,0,0-9.359-9.355H51.711a9.355,9.355,0,0,0-9.359,9.355v62.049a9.355,9.355,0,0,0,9.359,9.356m144.274,18.662a6.167,6.167,0,0,1-6.158,6.162H142.358a6.172,6.172,0,0,1-6.165-6.162V119.73a6.172,6.172,0,0,1,6.165-6.163h47.468a6.167,6.167,0,0,1,6.158,6.163Zm4.444-46.574V108.9H131.118a12.224,12.224,0,0,0-3.788-5.634Zm-49.67-41.526a13.6,13.6,0,1,1-13.6,13.6,13.61,13.61,0,0,1,13.6-13.6m-34.627,0a13.6,13.6,0,1,1-13.6,13.6,13.61,13.61,0,0,1,13.6-13.6M84.6,53.333h4.566v48.031a12.265,12.265,0,0,0-4.566,3.5Z" transform="translate(5.54 6.596)" fill="#a5d6a7"/>
        <path id="Trazado_890570" data-name="Trazado 890570" d="M178.633,108.838H131.164a3.257,3.257,0,0,0-3.253,3.25V142.2a3.258,3.258,0,0,0,3.253,3.25h47.468a3.254,3.254,0,0,0,3.249-3.25V112.088a3.253,3.253,0,0,0-3.249-3.25" transform="translate(16.733 14.238)" fill="#a5d6a7"/>
        <path id="Trazado_890571" data-name="Trazado 890571" d="M134.945,53.077h19.583a4.236,4.236,0,0,0,4.226-4.232V27.218a29.654,29.654,0,0,1,.587,3.418c.623,5.781,3.262,8.409,5.6,10.724,2.087,2.074,3.889,3.869,4.151,7.571l1.109-.08c-.3-4.114-2.327-6.137-4.483-8.275-2.308-2.292-4.689-4.667-5.27-10.059a28.149,28.149,0,0,0-1.691-7.126V15.275a4.236,4.236,0,0,0-4.226-4.232h-3.852V8.879c0-.563-2.662-1.019-5.945-1.019s-5.936.456-5.936,1.019v2.164h-3.852a4.24,4.24,0,0,0-4.233,4.232V48.845a4.24,4.24,0,0,0,4.233,4.232m-1.319-37.8a1.268,1.268,0,0,1,.052-.262h22.111a1.348,1.348,0,0,1,.052.262v1.142H133.626Zm0,2.251h22.215v1.4H133.626Zm0,2.514h22.215v1.4H133.626Zm0,2.517h22.215v1.4H133.626Zm0,2.514h22.215v1.4H133.626Zm0,2.517h22.215v1.4H133.626Zm0,2.514h22.215v1.4H133.626Zm0,2.514h22.215v1.4H133.626Zm0,2.514h22.215v1.4H133.626Zm0,2.515h22.215v1.4H133.626Zm0,2.513h22.215v1.4H133.626Zm0,2.514h22.215v1.408H133.626Zm0,2.515h22.215v1.408H133.626Zm0,2.514h22.215v1.146a1.321,1.321,0,0,1-.052.261H133.678a1.243,1.243,0,0,1-.052-.261Z" transform="translate(17.099 1.028)" fill="#a5d6a7"/>
        <path id="Trazado_890572" data-name="Trazado 890572" d="M60.736,147.288c.649,0,1.178-1,1.178-2.235V131.1H59.558v13.952c0,1.236.524,2.235,1.178,2.235m0-3.307c.312,0,.563.481.563,1.072s-.251,1.072-.563,1.072-.563-.477-.563-1.072.251-1.072.563-1.072" transform="translate(7.791 17.15)" fill="#a5d6a7"/>
        <path id="Trazado_890573" data-name="Trazado 890573" d="M72.461,126.708v-2.273H51.193v2.273a2.355,2.355,0,0,0,2.357,2.354H70.11a2.353,2.353,0,0,0,2.351-2.354" transform="translate(6.697 16.278)" fill="#a5d6a7"/>
        <path id="Trazado_890574" data-name="Trazado 890574" d="M69.2,145.139c-.337-4.723-2.636-7.009-5.3-9.655-2.974-2.956-6.339-6.3-7.138-13.677C55.1,106.4,46.069,102.038,45.977,102l.595-1.282c.4.185,9.856,4.752,11.6,20.942.744,6.875,3.786,9.9,6.728,12.826,2.745,2.728,5.335,5.306,5.713,10.556Z" transform="translate(6.015 13.175)" fill="#a8d8dc"/>
        <rect id="Rectángulo_411752" data-name="Rectángulo 411752" width="38.725" height="36.468" transform="translate(25.463 112.078)" fill="#6ebec5"/>
        <rect id="Rectángulo_411753" data-name="Rectángulo 411753" width="38.725" height="1.417" transform="translate(25.463 129.687)" fill="#a8d8dc"/>
        <rect id="Rectángulo_411754" data-name="Rectángulo 411754" width="38.725" height="1.415" transform="translate(25.463 139.308)" fill="#a8d8dc"/>
        <rect id="Rectángulo_411755" data-name="Rectángulo 411755" width="38.725" height="1.416" transform="translate(25.463 132.895)" fill="#a8d8dc"/>
        <rect id="Rectángulo_411756" data-name="Rectángulo 411756" width="38.725" height="1.414" transform="translate(25.463 136.102)" fill="#a8d8dc"/>
        <rect id="Rectángulo_411757" data-name="Rectángulo 411757" width="38.725" height="1.416" transform="translate(25.463 142.515)" fill="#a8d8dc"/>
        <rect id="Rectángulo_411758" data-name="Rectángulo 411758" width="38.725" height="1.414" transform="translate(25.463 145.723)" fill="#a8d8dc"/>
        <rect id="Rectángulo_411759" data-name="Rectángulo 411759" width="38.725" height="1.416" transform="translate(25.463 126.48)" fill="#a8d8dc"/>
        <rect id="Rectángulo_411760" data-name="Rectángulo 411760" width="38.725" height="1.416" transform="translate(25.463 113.653)" fill="#a8d8dc"/>
        <rect id="Rectángulo_411761" data-name="Rectángulo 411761" width="38.725" height="1.416" transform="translate(25.463 116.86)" fill="#a8d8dc"/>
        <rect id="Rectángulo_411762" data-name="Rectángulo 411762" width="38.725" height="1.414" transform="translate(25.463 123.276)" fill="#a8d8dc"/>
        <rect id="Rectángulo_411763" data-name="Rectángulo 411763" width="38.725" height="1.414" transform="translate(25.463 120.068)" fill="#a8d8dc"/>
        <path id="Rectángulo_411764" data-name="Rectángulo 411764" d="M1.744,0H45.1a1.745,1.745,0,0,1,1.745,1.745V4A1.745,1.745,0,0,1,45.1,5.749H1.747A1.747,1.747,0,0,1,0,4V1.744A1.744,1.744,0,0,1,1.744,0Z" transform="translate(21.403 106.329)" fill="#7f808b"/>
        <path id="Rectángulo_411765" data-name="Rectángulo 411765" d="M1.745,0H45.1a1.745,1.745,0,0,1,1.745,1.745V4.007A1.745,1.745,0,0,1,45.1,5.752H1.747A1.747,1.747,0,0,1,0,4.005V1.745A1.745,1.745,0,0,1,1.745,0Z" transform="translate(21.403 148.545)" fill="#7f808b"/>
        <path id="Trazado_890575" data-name="Trazado 890575" d="M50.776,134.815c-.337-4.722-2.636-7.008-5.3-9.654-2.974-2.955-6.343-6.3-7.138-13.678-1.661-15.4-10.7-19.768-10.788-19.809l.595-1.286c.4.187,9.853,4.752,11.6,20.943.744,6.877,3.784,9.9,6.728,12.826,2.742,2.73,5.335,5.307,5.713,10.557Z" transform="translate(3.604 11.824)" fill="#f7ad4a"/>
        <rect id="Rectángulo_411766" data-name="Rectángulo 411766" width="32.051" height="49.894" rx="3.128" transform="translate(7.291 98.487)" fill="#f7ad4a"/>
        <rect id="Rectángulo_411767" data-name="Rectángulo 411767" width="32.051" height="1.417" transform="translate(7.292 122.725)" fill="#face92"/>
        <rect id="Rectángulo_411768" data-name="Rectángulo 411768" width="32.051" height="1.416" transform="translate(7.292 132.348)" fill="#face92"/>
        <rect id="Rectángulo_411769" data-name="Rectángulo 411769" width="32.051" height="1.414" transform="translate(7.292 125.935)" fill="#face92"/>
        <rect id="Rectángulo_411770" data-name="Rectángulo 411770" width="32.051" height="1.414" transform="translate(7.292 129.142)" fill="#face92"/>
        <rect id="Rectángulo_411771" data-name="Rectángulo 411771" width="32.051" height="1.414" transform="translate(7.292 135.556)" fill="#face92"/>
        <path id="Trazado_890576" data-name="Trazado 890576" d="M38.017,129.795a3.539,3.539,0,0,0,.446-1.415H6.479a3.5,3.5,0,0,0,.443,1.415Z" transform="translate(0.848 16.794)" fill="#face92"/>
        <rect id="Rectángulo_411772" data-name="Rectángulo 411772" width="32.051" height="1.414" transform="translate(7.292 138.762)" fill="#face92"/>
        <rect id="Rectángulo_411773" data-name="Rectángulo 411773" width="32.051" height="1.416" transform="translate(7.292 141.967)" fill="#face92"/>
        <rect id="Rectángulo_411774" data-name="Rectángulo 411774" width="32.051" height="1.415" transform="translate(7.292 103.487)" fill="#face92"/>
        <rect id="Rectángulo_411775" data-name="Rectángulo 411775" width="32.051" height="1.414" transform="translate(7.292 119.521)" fill="#face92"/>
        <rect id="Rectángulo_411776" data-name="Rectángulo 411776" width="32.051" height="1.416" transform="translate(7.292 106.692)" fill="#face92"/>
        <path id="Trazado_890577" data-name="Trazado 890577" d="M6.921,88.679a3.5,3.5,0,0,0-.443,1.414H38.463a3.552,3.552,0,0,0-.447-1.414Z" transform="translate(0.847 11.601)" fill="#face92"/>
        <rect id="Rectángulo_411777" data-name="Rectángulo 411777" width="32.051" height="1.417" transform="translate(7.292 109.899)" fill="#face92"/>
        <rect id="Rectángulo_411778" data-name="Rectángulo 411778" width="32.051" height="1.414" transform="translate(7.292 116.315)" fill="#face92"/>
        <rect id="Rectángulo_411779" data-name="Rectángulo 411779" width="32.051" height="1.416" transform="translate(7.292 113.107)" fill="#face92"/>
        <rect id="Rectángulo_411780" data-name="Rectángulo 411780" width="15.152" height="4.618" transform="translate(15.741 93.869)" fill="#6ebec5"/>
        <path id="Trazado_890578" data-name="Trazado 890578" d="M29.072,83.16c0-.716-3.391-1.3-7.574-1.3s-7.578.581-7.578,1.3,3.395,1.3,7.578,1.3,7.574-.581,7.574-1.3" transform="translate(1.821 10.709)" fill="#a8d8dc"/>
        <path id="Trazado_890579" data-name="Trazado 890579" d="M13.92,131.217v4.616c0,.717,3.394,1.3,7.578,1.3s7.574-.582,7.574-1.3v-4.616Z" transform="translate(1.821 17.165)" fill="#6ebec5"/>
        <path id="Trazado_890580" data-name="Trazado 890580" d="M63.06,34.137l-1.293.992L49.315,44.682l2.565,2.213,6.131-5.577a3.932,3.932,0,0,0,.783,1.993c1.571,2.048,4.882,2.155,7.383.237l2.582-1.982c2.5-1.919,3.254-5.144,1.682-7.194s-4.881-2.152-7.38-.234m5.75,1.49c.864,1.126.269,3.1-1.3,4.3l-2.582,1.985c-1.576,1.205-3.634,1.269-4.5.144a2.764,2.764,0,0,1,.235-3.153l2.359-2.144,1.293-.994c1.572-1.2,3.631-1.27,4.5-.14" transform="translate(6.451 4.286)" fill="#3e6b6f"/>
        <path id="Trazado_890581" data-name="Trazado 890581" d="M34.5,58.182a35.8,35.8,0,0,0-2.436,3.688c-.389.65-.209.809.388.346L54.163,45.563l-2.019-2.629S38.325,53.78,34.5,58.182" transform="translate(4.168 5.617)" fill="#8bcbd1"/>
        <path id="Trazado_890582" data-name="Trazado 890582" d="M54.75,34.026h0A5.1,5.1,0,0,1,49.6,37.3c-2.559-.336-4.306-3.15-3.895-6.273a6.726,6.726,0,0,1,.464-1.744,4.848,4.848,0,0,1,4.92-3.308,4.291,4.291,0,0,1,3.137,2.195,6.439,6.439,0,0,1,.761,4.079,6.887,6.887,0,0,1-.235,1.772m-6.682-3.95a4.8,4.8,0,0,0-.326,1.224c-.26,1.964.715,3.778,2.121,3.965a2.857,2.857,0,0,0,2.757-2.056,5.088,5.088,0,0,0,.326-1.225,4.4,4.4,0,0,0-.5-2.767,2.282,2.282,0,0,0-1.631-1.2,2.849,2.849,0,0,0-2.75,2.055" transform="translate(5.971 3.394)" fill="#538f94"/>
        <path id="Trazado_890583" data-name="Trazado 890583" d="M52.929,46.146l-3.285-.431,2.6-13.6,2.082.309Z" transform="translate(6.494 4.201)" fill="#538f94"/>
        <path id="Trazado_890584" data-name="Trazado 890584" d="M48.959,67.475a35.919,35.919,0,0,1-1.976,3.952c-.366.663-.595.586-.5-.165L50.06,44.139l3.285.433s-2.482,17.391-4.386,22.9" transform="translate(6.078 5.774)" fill="#a2d5da"/>
        <path id="Trazado_890585" data-name="Trazado 890585" d="M187.908,150.529a15.743,15.743,0,0,0-12.415,0,1.621,1.621,0,0,0-.866,1.133l-2.711,17.119h19.567l-2.711-17.119a1.622,1.622,0,0,0-.864-1.133" transform="translate(22.49 19.525)" fill="#f7ad4a"/>
        <path id="Rectángulo_411781" data-name="Rectángulo 411781" d="M.717,0H22.03a.716.716,0,0,1,.716.716V2.5a.717.717,0,0,1-.717.717H.716A.716.716,0,0,1,0,2.5V.717A.717.717,0,0,1,.717,0Z" transform="translate(192.815 188.307)" fill="#face92"/>
        <path id="Trazado_890586" data-name="Trazado 890586" d="M182.416,157.714a.5.5,0,1,0-.487.452.47.47,0,0,0,.487-.452" transform="translate(23.733 20.577)" fill="#7c5725"/>
        <path id="Trazado_890587" data-name="Trazado 890587" d="M181.185,159.389a.441.441,0,1,0-.515-.434.479.479,0,0,0,.515.434" transform="translate(23.635 20.737)" fill="#7c5725"/>
        <path id="Trazado_890588" data-name="Trazado 890588" d="M183.917,157.632a.471.471,0,0,0-.52-.4.476.476,0,0,0-.472.464.5.5,0,0,0,.992-.061" transform="translate(23.93 20.568)" fill="#7c5725"/>
        <path id="Trazado_890589" data-name="Trazado 890589" d="M182.743,159.348a.44.44,0,1,0-.526-.415.475.475,0,0,0,.526.415" transform="translate(23.837 20.732)" fill="#7c5725"/>
        <path id="Trazado_890590" data-name="Trazado 890590" d="M184.3,159.253a.441.441,0,1,0-.066-.87.479.479,0,0,0-.475.474.474.474,0,0,0,.541.4" transform="translate(24.039 20.719)" fill="#7c5725"/>
        <path id="Trazado_890591" data-name="Trazado 890591" d="M182.141,156.706a.487.487,0,1,0,.466-.453.465.465,0,0,0-.466.453" transform="translate(23.827 20.441)" fill="#7c5725"/>
        <path id="Trazado_890592" data-name="Trazado 890592" d="M180.674,156.727a.486.486,0,1,0,.477-.436.461.461,0,0,0-.477.436" transform="translate(23.635 20.446)" fill="#7c5725"/>
        <path id="Trazado_890593" data-name="Trazado 890593" d="M184.125,157.031a.461.461,0,0,0,.449-.473.466.466,0,0,0-.52-.395.438.438,0,1,0,.071.867" transform="translate(24.019 20.429)" fill="#7c5725"/>
        <path id="Trazado_890594" data-name="Trazado 890594" d="M181.848,155.069a.457.457,0,0,0-.46.446.472.472,0,1,0,.46-.446" transform="translate(23.729 20.286)" fill="#7c5725"/>
        <path id="Trazado_890595" data-name="Trazado 890595" d="M183.118,152.783a.436.436,0,1,0,.054.871.436.436,0,1,0-.054-.871" transform="translate(23.9 19.987)" fill="#7c5725"/>
        <path id="Trazado_890596" data-name="Trazado 890596" d="M182.065,154.48a.461.461,0,0,0,.92-.04.462.462,0,0,0-.92.04" transform="translate(23.817 20.15)" fill="#7c5725"/>
        <path id="Trazado_890597" data-name="Trazado 890597" d="M183.258,155.006a.458.458,0,0,0-.446.461.472.472,0,1,0,.446-.461" transform="translate(23.915 20.277)" fill="#7c5725"/>
        <path id="Trazado_890598" data-name="Trazado 890598" d="M181.784,152.843a.436.436,0,1,0,.458.421.443.443,0,0,0-.458-.421" transform="translate(23.724 19.995)" fill="#7c5725"/>
        <path id="Trazado_890599" data-name="Trazado 890599" d="M180.677,154.5a.461.461,0,1,0,.455-.436.449.449,0,0,0-.455.436" transform="translate(23.636 20.154)" fill="#7c5725"/>
        <path id="Trazado_890600" data-name="Trazado 890600" d="M185.245,153.811a.436.436,0,1,0,.507.378.45.45,0,0,0-.507-.378" transform="translate(24.18 20.121)" fill="#7c5725"/>
        <path id="Trazado_890601" data-name="Trazado 890601" d="M185.417,157.5a.474.474,0,0,0-.537-.383.439.439,0,1,0,.537.383" transform="translate(24.126 20.553)" fill="#7c5725"/>
        <path id="Trazado_890602" data-name="Trazado 890602" d="M184.235,155.371a.454.454,0,0,0,.512.391.449.449,0,0,0,.423-.481.471.471,0,0,0-.935.089" transform="translate(24.101 20.263)" fill="#7c5725"/>
        <path id="Trazado_890603" data-name="Trazado 890603" d="M184.446,152.679a.436.436,0,1,0,.083.867.436.436,0,1,0-.083-.867" transform="translate(24.076 19.973)" fill="#7c5725"/>
        <path id="Trazado_890604" data-name="Trazado 890604" d="M183.456,154.411a.446.446,0,0,0,.489.4.436.436,0,1,0-.068-.868.446.446,0,0,0-.421.467" transform="translate(23.999 20.138)" fill="#7c5725"/>
        <path id="Trazado_890605" data-name="Trazado 890605" d="M186.531,156.334a.487.487,0,1,0,.415-.5.46.46,0,0,0-.415.5" transform="translate(24.401 20.385)" fill="#7c5725"/>
        <path id="Trazado_890606" data-name="Trazado 890606" d="M185.3,158.725a.473.473,0,0,0,.555.375.44.44,0,1,0-.555-.375" transform="translate(24.241 20.7)" fill="#7c5725"/>
        <path id="Trazado_890607" data-name="Trazado 890607" d="M180.416,158.179a.439.439,0,1,0,0-.872.44.44,0,1,0,0,.872" transform="translate(23.537 20.579)" fill="#7c5725"/>
        <path id="Trazado_890608" data-name="Trazado 890608" d="M179.03,155.044a.436.436,0,1,0,.449.452.456.456,0,0,0-.449-.452" transform="translate(23.356 20.282)" fill="#7c5725"/>
        <path id="Trazado_890609" data-name="Trazado 890609" d="M185.072,156.508a.486.486,0,0,0,.961-.11.487.487,0,0,0-.961.11" transform="translate(24.21 20.41)" fill="#7c5725"/>
        <path id="Trazado_890610" data-name="Trazado 890610" d="M185.921,157.437a.473.473,0,0,0,.552.37.439.439,0,1,0-.114-.864.475.475,0,0,0-.438.494" transform="translate(24.321 20.53)" fill="#7c5725"/>
        <path id="Trazado_890611" data-name="Trazado 890611" d="M186.066,154.736a.436.436,0,1,0,.522.368.452.452,0,0,0-.522-.368" transform="translate(24.287 20.242)" fill="#7c5725"/>
        <path id="Trazado_890612" data-name="Trazado 890612" d="M174.127,154.382a.436.436,0,1,0,.142-.859.456.456,0,0,0-.291.051l-.106.672a.491.491,0,0,0,.254.137" transform="translate(22.746 20.083)" fill="#7c5725"/>
        <path id="Trazado_890613" data-name="Trazado 890613" d="M180.439,155.081a.436.436,0,1,0,.466.437.456.456,0,0,0-.466-.437" transform="translate(23.542 20.287)" fill="#7c5725"/>
        <path id="Trazado_890614" data-name="Trazado 890614" d="M173.753,156.578a.438.438,0,1,0,.146-.859.513.513,0,0,0-.263.031l-.114.719a.525.525,0,0,0,.232.11" transform="translate(22.7 20.37)" fill="#7c5725"/>
        <path id="Trazado_890615" data-name="Trazado 890615" d="M187.488,155.377l-.13-.818a.418.418,0,0,0,.13.818" transform="translate(24.471 20.219)" fill="#7c5725"/>
        <path id="Trazado_890616" data-name="Trazado 890616" d="M179.68,157.149a.438.438,0,1,0-.475-.451.459.459,0,0,0,.475.451" transform="translate(23.443 20.444)" fill="#7c5725"/>
        <path id="Trazado_890617" data-name="Trazado 890617" d="M177.38,158.046a.439.439,0,1,0-.46-.475.468.468,0,0,0,.46.475" transform="translate(23.144 20.561)" fill="#7c5725"/>
        <path id="Trazado_890618" data-name="Trazado 890618" d="M178.894,158.139a.439.439,0,1,0-.475-.459.467.467,0,0,0,.475.459" transform="translate(23.34 20.573)" fill="#7c5725"/>
        <path id="Trazado_890619" data-name="Trazado 890619" d="M178.065,159.307a.441.441,0,1,0-.483-.468.475.475,0,0,0,.483.468" transform="translate(23.231 20.726)" fill="#7c5725"/>
        <path id="Trazado_890620" data-name="Trazado 890620" d="M178.25,156.215a.437.437,0,1,0,.458.461.462.462,0,0,0-.458-.461" transform="translate(23.252 20.436)" fill="#7c5725"/>
        <path id="Trazado_890621" data-name="Trazado 890621" d="M179.625,159.375a.441.441,0,1,0-.5-.452.476.476,0,0,0,.5.452" transform="translate(23.433 20.735)" fill="#7c5725"/>
        <path id="Trazado_890622" data-name="Trazado 890622" d="M176.508,159.184a.441.441,0,1,0,.083-.867.441.441,0,1,0-.083.867" transform="translate(23.029 20.71)" fill="#7c5725"/>
        <path id="Trazado_890623" data-name="Trazado 890623" d="M176.8,156.1a.467.467,0,0,0-.524.386.488.488,0,0,0,.967.093.465.465,0,0,0-.443-.478" transform="translate(23.06 20.42)" fill="#7c5725"/>
        <path id="Trazado_890624" data-name="Trazado 890624" d="M177.62,154.957a.436.436,0,1,0-.066.867.436.436,0,1,0,.066-.867" transform="translate(23.17 20.271)" fill="#7c5725"/>
        <path id="Trazado_890625" data-name="Trazado 890625" d="M175.966,157.033a.44.44,0,1,0,.446.486.471.471,0,0,0-.446-.486" transform="translate(22.948 20.542)" fill="#7c5725"/>
        <path id="Trazado_890626" data-name="Trazado 890626" d="M174.666,161.213a.444.444,0,1,0-.475-.5.493.493,0,0,0,.475.5" transform="translate(22.787 20.976)" fill="#7c5725"/>
        <path id="Trazado_890627" data-name="Trazado 890627" d="M187.849,158.388a.517.517,0,0,0-1.01.152.517.517,0,0,0,1.01-.152" transform="translate(24.441 20.673)" fill="#7c5725"/>
        <path id="Trazado_890628" data-name="Trazado 890628" d="M186.112,161.313a.444.444,0,1,0-.58-.374.491.491,0,0,0,.58.374" transform="translate(24.271 20.989)" fill="#7c5725"/>
        <path id="Trazado_890629" data-name="Trazado 890629" d="M187.23,159.511a.532.532,0,1,0-.46.5.487.487,0,0,0,.46-.5" transform="translate(24.357 20.819)" fill="#7c5725"/>
        <path id="Trazado_890630" data-name="Trazado 890630" d="M184.483,161.472a.445.445,0,1,0-.069-.868.446.446,0,1,0,.069.868" transform="translate(24.059 21.009)" fill="#7c5725"/>
        <path id="Trazado_890631" data-name="Trazado 890631" d="M185.657,159.708a.529.529,0,1,0-.475.487.486.486,0,0,0,.475-.487" transform="translate(24.151 20.843)" fill="#7c5725"/>
        <path id="Trazado_890632" data-name="Trazado 890632" d="M184.082,159.852a.529.529,0,1,0-.494.469.486.486,0,0,0,.494-.469" transform="translate(23.945 20.859)" fill="#7c5725"/>
        <path id="Trazado_890633" data-name="Trazado 890633" d="M181.21,161.616a.445.445,0,1,0-.543-.433.494.494,0,0,0,.543.433" transform="translate(23.634 21.028)" fill="#7c5725"/>
        <path id="Trazado_890634" data-name="Trazado 890634" d="M182.5,159.941a.484.484,0,0,0-.531-.42.443.443,0,1,0,.023.871.484.484,0,0,0,.509-.451" transform="translate(23.738 20.868)" fill="#7c5725"/>
        <path id="Trazado_890635" data-name="Trazado 890635" d="M182.847,161.573a.444.444,0,1,0-.04-.87.445.445,0,1,0,.04.87" transform="translate(23.847 21.023)" fill="#7c5725"/>
        <path id="Trazado_890636" data-name="Trazado 890636" d="M180.4,160.4a.482.482,0,0,0,.524-.433.53.53,0,1,0-.524.433" transform="translate(23.531 20.87)" fill="#7c5725"/>
        <path id="Trazado_890637" data-name="Trazado 890637" d="M187.615,160.239a.444.444,0,1,0,.595.347.495.495,0,0,0-.595-.347" transform="translate(24.481 20.961)" fill="#7c5725"/>
        <path id="Trazado_890638" data-name="Trazado 890638" d="M174.64,152.8a.445.445,0,1,0,.507-.364.44.44,0,0,0-.507.364" transform="translate(22.845 19.94)" fill="#7c5725"/>
        <path id="Trazado_890639" data-name="Trazado 890639" d="M173.611,160.627a.492.492,0,0,0-.455-.516.649.649,0,0,0-.209,0l-.128.8a.693.693,0,0,0,.188.063.493.493,0,0,0,.6-.344" transform="translate(22.608 20.944)" fill="#7c5725"/>
        <path id="Trazado_890640" data-name="Trazado 890640" d="M188.057,158.963a.449.449,0,0,0-.294.46.443.443,0,0,0,.42.345Z" transform="translate(24.562 20.795)" fill="#7c5725"/>
        <path id="Trazado_890641" data-name="Trazado 890641" d="M185.769,152.527a.436.436,0,1,0,.5.371.444.444,0,0,0-.5-.371" transform="translate(24.251 19.953)" fill="#7c5725"/>
        <path id="Trazado_890642" data-name="Trazado 890642" d="M186.223,154.127a.459.459,0,1,0,.389-.5.448.448,0,0,0-.389.5" transform="translate(24.361 20.097)" fill="#7c5725"/>
        <path id="Trazado_890643" data-name="Trazado 890643" d="M180.007,153.284a.444.444,0,0,0,.889.007.445.445,0,0,0-.889-.007" transform="translate(23.548 19.996)" fill="#7c5725"/>
        <path id="Trazado_890644" data-name="Trazado 890644" d="M186.724,152.826a.431.431,0,0,0,.417.355l-.131-.826a.43.43,0,0,0-.286.47" transform="translate(24.426 19.931)" fill="#7c5725"/>
        <path id="Trazado_890645" data-name="Trazado 890645" d="M187.7,156.76a.45.45,0,0,0-.288.465.441.441,0,0,0,.42.348Z" transform="translate(24.517 20.507)" fill="#7c5725"/>
        <path id="Trazado_890646" data-name="Trazado 890646" d="M177.016,153.884a.436.436,0,1,0,.414.475.45.45,0,0,0-.414-.475" transform="translate(23.091 20.13)" fill="#7c5725"/>
        <path id="Trazado_890647" data-name="Trazado 890647" d="M175.647,153.728a.436.436,0,1,0,.4.49.449.449,0,0,0-.4-.49" transform="translate(22.91 20.11)" fill="#7c5725"/>
        <path id="Trazado_890648" data-name="Trazado 890648" d="M176.466,152.609a.436.436,0,1,0,.391.481.441.441,0,0,0-.391-.481" transform="translate(23.02 19.964)" fill="#7c5725"/>
        <path id="Trazado_890649" data-name="Trazado 890649" d="M175.7,155.2a.472.472,0,1,0,.518-.377.453.453,0,0,0-.518.377" transform="translate(22.984 20.253)" fill="#7c5725"/>
        <path id="Trazado_890650" data-name="Trazado 890650" d="M174.821,156.3a.488.488,0,1,0,.537-.366.461.461,0,0,0-.537.366" transform="translate(22.869 20.398)" fill="#7c5725"/>
        <path id="Trazado_890651" data-name="Trazado 890651" d="M178.384,153.993a.436.436,0,1,0,.432.459.447.447,0,0,0-.432-.459" transform="translate(23.272 20.145)" fill="#7c5725"/>
        <path id="Trazado_890652" data-name="Trazado 890652" d="M179.123,152.818a.436.436,0,1,0,.426.452.445.445,0,0,0-.426-.452" transform="translate(23.372 19.991)" fill="#7c5725"/>
        <path id="Trazado_890653" data-name="Trazado 890653" d="M174.815,154.637a.437.437,0,1,0,.4.5.457.457,0,0,0-.4-.5" transform="translate(22.799 20.228)" fill="#7c5725"/>
        <path id="Trazado_890654" data-name="Trazado 890654" d="M177.794,152.737a.436.436,0,1,0,.409.467.446.446,0,0,0-.409-.467" transform="translate(23.196 19.981)" fill="#7c5725"/>
        <path id="Trazado_890655" data-name="Trazado 890655" d="M179.758,154.053a.435.435,0,1,0,.446.444.445.445,0,0,0-.446-.444" transform="translate(23.454 20.153)" fill="#7c5725"/>
        <path id="Trazado_890656" data-name="Trazado 890656" d="M178.8,160.363a.442.442,0,1,0-.5-.459.485.485,0,0,0,.5.459" transform="translate(23.325 20.864)" fill="#7c5725"/>
        <path id="Trazado_890657" data-name="Trazado 890657" d="M177.932,161.53a.445.445,0,1,0-.509-.469.492.492,0,0,0,.509.469" transform="translate(23.21 21.017)" fill="#7c5725"/>
        <path id="Trazado_890658" data-name="Trazado 890658" d="M177.208,160.266a.443.443,0,1,0-.486-.478.482.482,0,0,0,.486.478" transform="translate(23.118 20.852)" fill="#7c5725"/>
        <path id="Trazado_890659" data-name="Trazado 890659" d="M179.57,161.6a.444.444,0,1,0,.02-.87.444.444,0,1,0-.02.87" transform="translate(23.422 21.026)" fill="#7c5725"/>
        <path id="Trazado_890660" data-name="Trazado 890660" d="M173.934,157.194a.5.5,0,0,0,.98.147.5.5,0,0,0-.98-.147" transform="translate(22.753 20.516)" fill="#7c5725"/>
        <path id="Trazado_890661" data-name="Trazado 890661" d="M176.3,161.4a.445.445,0,1,0-.492-.489.5.5,0,0,0,.492.489" transform="translate(22.998 21)" fill="#7c5725"/>
        <path id="Trazado_890662" data-name="Trazado 890662" d="M173.959,158.427a.481.481,0,0,0-.434-.512.585.585,0,0,0-.235.012l-.116.764a.55.55,0,0,0,.208.083.48.48,0,0,0,.578-.347" transform="translate(22.654 20.657)" fill="#7c5725"/>
        <path id="Trazado_890663" data-name="Trazado 890663" d="M175.617,160.111a.442.442,0,1,0-.469-.494.484.484,0,0,0,.469.494" transform="translate(22.912 20.832)" fill="#7c5725"/>
        <path id="Trazado_890664" data-name="Trazado 890664" d="M174.032,159.9a.442.442,0,1,0,.129-.861.442.442,0,1,0-.129.861" transform="translate(22.707 20.804)" fill="#7c5725"/>
        <path id="Trazado_890665" data-name="Trazado 890665" d="M175.517,158.638a.515.515,0,1,0-.563.369.475.475,0,0,0,.563-.369" transform="translate(22.828 20.687)" fill="#7c5725"/>
        <path id="Trazado_890666" data-name="Trazado 890666" d="M181.05,62.873V93.478h1.281v-30.6c.014-.9.006-1.793,0-2.682a52.137,52.137,0,0,1,.159-5.6,20.074,20.074,0,0,1,2.288-7.173,20.213,20.213,0,0,1,13.159-9.918,6.624,6.624,0,0,1,1.029-.195c.2-.027.391-.053.655-.1a7.647,7.647,0,0,1,1.066-.122l1.036-.053-.067-1.278-1,.052a8.355,8.355,0,0,0-1.233.137l-.126.021c-.157.029-.326.051-.5.075a7.675,7.675,0,0,0-1.183.226,21.214,21.214,0,0,0-16.393,18.187,53.006,53.006,0,0,0-.166,5.752c.007.88.012,1.765,0,2.664" transform="translate(23.684 4.678)" fill="#d4d5d8"/>
        <rect id="Rectángulo_411782" data-name="Rectángulo 411782" width="1.278" height="4.691" transform="translate(224.663 38.75) rotate(-1.782)" fill="#d4d5d8"/>
        <rect id="Rectángulo_411783" data-name="Rectángulo 411783" width="1.28" height="4.691" transform="translate(222.169 39.034) rotate(-7.996)" fill="#d4d5d8"/>
        <rect id="Rectángulo_411784" data-name="Rectángulo 411784" width="1.278" height="4.692" transform="translate(219.719 39.588) rotate(-14.291)" fill="#d4d5d8"/>
        <rect id="Rectángulo_411785" data-name="Rectángulo 411785" width="1.277" height="4.691" transform="translate(217.343 40.408) rotate(-20.593)" fill="#d4d5d8"/>
        <rect id="Rectángulo_411786" data-name="Rectángulo 411786" width="1.279" height="4.691" transform="translate(215.07 41.481) rotate(-26.893)" fill="#d4d5d8"/>
        <rect id="Rectángulo_411787" data-name="Rectángulo 411787" width="1.281" height="4.691" transform="translate(212.925 42.793) rotate(-33.189)" fill="#d4d5d8"/>
        <rect id="Rectángulo_411788" data-name="Rectángulo 411788" width="1.28" height="4.692" transform="translate(210.938 44.327) rotate(-39.417)" fill="#d4d5d8"/>
        <rect id="Rectángulo_411789" data-name="Rectángulo 411789" width="1.279" height="4.692" transform="translate(209.14 46.081) rotate(-45.674)" fill="#d4d5d8"/>
        <rect id="Rectángulo_411790" data-name="Rectángulo 411790" width="1.279" height="4.691" transform="translate(207.544 48.02) rotate(-51.882)" fill="#d4d5d8"/>
        <path id="Trazado_890667" data-name="Trazado 890667" d="M186.3,46.923l-3.983-2.476.672-1.087,3.983,2.476Z" transform="translate(23.85 5.672)" fill="#d4d5d8"/>
        <rect id="Rectángulo_411791" data-name="Rectángulo 411791" width="1.28" height="4.691" transform="matrix(0.432, -0.902, 0.902, 0.432, 205.02, 52.356)" fill="#d4d5d8"/>
        <rect id="Rectángulo_411792" data-name="Rectángulo 411792" width="1.28" height="4.689" transform="translate(204.124 54.704) rotate(-70.709)" fill="#d4d5d8"/>
        <rect id="Rectángulo_411793" data-name="Rectángulo 411793" width="1.279" height="4.691" transform="translate(203.488 57.134) rotate(-77.013)" fill="#d4d5d8"/>
        <rect id="Rectángulo_411794" data-name="Rectángulo 411794" width="1.28" height="4.692" transform="translate(203.124 59.621) rotate(-83.303)" fill="#d4d5d8"/>
        <rect id="Rectángulo_411795" data-name="Rectángulo 411795" width="1.28" height="4.692" transform="matrix(0.009, -1, 1, 0.009, 203.032, 62.129)" fill="#d4d5d8"/>
        <rect id="Rectángulo_411796" data-name="Rectángulo 411796" width="4.692" height="1.279" transform="translate(203.027 63.127)" fill="#d4d5d8"/>
        <rect id="Rectángulo_411797" data-name="Rectángulo 411797" width="4.692" height="1.28" transform="translate(203.027 65.384)" fill="#d4d5d8"/>
        <rect id="Rectángulo_411798" data-name="Rectángulo 411798" width="4.692" height="1.28" transform="translate(203.027 67.64)" fill="#d4d5d8"/>
        <rect id="Rectángulo_411799" data-name="Rectángulo 411799" width="4.692" height="1.28" transform="translate(203.027 69.898)" fill="#d4d5d8"/>
        <rect id="Rectángulo_411800" data-name="Rectángulo 411800" width="4.692" height="1.279" transform="translate(203.027 72.155)" fill="#d4d5d8"/>
        <rect id="Rectángulo_411801" data-name="Rectángulo 411801" width="4.692" height="1.28" transform="translate(203.027 74.411)" fill="#d4d5d8"/>
        <rect id="Rectángulo_411802" data-name="Rectángulo 411802" width="4.692" height="1.28" transform="translate(203.027 76.668)" fill="#d4d5d8"/>
        <rect id="Rectángulo_411803" data-name="Rectángulo 411803" width="4.692" height="1.28" transform="translate(203.027 78.927)" fill="#d4d5d8"/>
        <rect id="Rectángulo_411804" data-name="Rectángulo 411804" width="4.692" height="1.28" transform="translate(203.027 81.183)" fill="#d4d5d8"/>
        <rect id="Rectángulo_411805" data-name="Rectángulo 411805" width="4.692" height="1.279" transform="translate(203.027 83.441)" fill="#d4d5d8"/>
        <rect id="Rectángulo_411806" data-name="Rectángulo 411806" width="4.692" height="1.28" transform="translate(203.027 85.697)" fill="#d4d5d8"/>
        <rect id="Rectángulo_411807" data-name="Rectángulo 411807" width="4.692" height="1.279" transform="translate(203.027 87.954)" fill="#d4d5d8"/>
        <rect id="Rectángulo_411808" data-name="Rectángulo 411808" width="4.692" height="1.28" transform="translate(203.027 90.209)" fill="#d4d5d8"/>
        <rect id="Rectángulo_411809" data-name="Rectángulo 411809" width="4.692" height="1.28" transform="translate(203.027 92.466)" fill="#d4d5d8"/>
        <rect id="Rectángulo_411810" data-name="Rectángulo 411810" width="4.692" height="1.28" transform="translate(203.027 94.723)" fill="#d4d5d8"/>
        <rect id="Rectángulo_411811" data-name="Rectángulo 411811" width="4.692" height="1.174" transform="translate(203.027 96.981)" fill="#d4d5d8"/>
        <path id="Trazado_890668" data-name="Trazado 890668" d="M166.087,37.224c.18.035.369.061.569.088a6.868,6.868,0,0,1,1.07.2,19.918,19.918,0,0,1,15.406,17.071,51.533,51.533,0,0,1,.159,5.612c-.006.889-.011,1.784,0,2.673V93.478h1.281V62.864c-.014-.89-.008-1.775,0-2.655a53.233,53.233,0,0,0-.171-5.762,21.314,21.314,0,0,0-16.35-18.167,7.783,7.783,0,0,0-1.224-.237c-.178-.024-.344-.045-.5-.075l-.126-.021a8.461,8.461,0,0,0-1.2-.137l-1.038-.052-.066,1.278,1.066.053a8.506,8.506,0,0,1,1.121.135" transform="translate(21.441 4.678)" fill="#d4d5d8"/>
        <rect id="Rectángulo_411812" data-name="Rectángulo 411812" width="4.692" height="1.28" transform="matrix(0.032, -0.999, 0.999, 0.032, 184.659, 43.4)" fill="#d4d5d8"/>
        <rect id="Rectángulo_411813" data-name="Rectángulo 411813" width="4.691" height="1.279" transform="matrix(0.14, -0.99, 0.99, 0.14, 186.659, 43.503)" fill="#d4d5d8"/>
        <rect id="Rectángulo_411814" data-name="Rectángulo 411814" width="4.691" height="1.28" transform="translate(188.63 43.819) rotate(-75.656)" fill="#d4d5d8"/>
        <rect id="Rectángulo_411815" data-name="Rectángulo 411815" width="4.692" height="1.278" transform="translate(190.559 44.352) rotate(-69.451)" fill="#d4d5d8"/>
        <rect id="Rectángulo_411816" data-name="Rectángulo 411816" width="4.692" height="1.279" transform="matrix(0.453, -0.892, 0.892, 0.453, 192.413, 45.087)" fill="#d4d5d8"/>
        <rect id="Rectángulo_411817" data-name="Rectángulo 411817" width="4.692" height="1.28" transform="translate(194.185 46.022) rotate(-56.9)" fill="#d4d5d8"/>
        <rect id="Rectángulo_411818" data-name="Rectángulo 411818" width="4.692" height="1.28" transform="matrix(0.635, -0.773, 0.773, 0.635, 195.841, 47.139)" fill="#d4d5d8"/>
        <rect id="Rectángulo_411819" data-name="Rectángulo 411819" width="4.692" height="1.28" transform="translate(197.361 48.452) rotate(-44.5)" fill="#d4d5d8"/>
        <rect id="Rectángulo_411820" data-name="Rectángulo 411820" width="4.69" height="1.28" transform="translate(198.721 49.907) rotate(-38.076)" fill="#d4d5d8"/>
        <rect id="Rectángulo_411821" data-name="Rectángulo 411821" width="4.69" height="1.279" transform="matrix(0.849, -0.528, 0.528, 0.849, 199.923, 51.509)" fill="#d4d5d8"/>
        <rect id="Rectángulo_411822" data-name="Rectángulo 411822" width="4.69" height="1.28" transform="translate(200.944 53.225) rotate(-25.546)" fill="#d4d5d8"/>
        <rect id="Rectángulo_411823" data-name="Rectángulo 411823" width="4.691" height="1.279" transform="matrix(0.944, -0.331, 0.331, 0.944, 201.771, 55.047)" fill="#d4d5d8"/>
        <rect id="Rectángulo_411824" data-name="Rectángulo 411824" width="4.691" height="1.279" transform="translate(202.398 56.945) rotate(-13.018)" fill="#d4d5d8"/>
        <rect id="Rectángulo_411825" data-name="Rectángulo 411825" width="4.692" height="1.28" transform="translate(202.812 58.902) rotate(-6.799)" fill="#d4d5d8"/>
        <path id="Trazado_890669" data-name="Trazado 890669" d="M179.538,55.132l-.009-1.28,4.693-.041.008,1.279Z" transform="translate(23.486 7.039)" fill="#d4d5d8"/>
        <rect id="Rectángulo_411826" data-name="Rectángulo 411826" width="4.692" height="1.279" transform="translate(203.027 63.127)" fill="#d4d5d8"/>
        <rect id="Rectángulo_411827" data-name="Rectángulo 411827" width="4.692" height="1.28" transform="translate(203.027 65.384)" fill="#d4d5d8"/>
        <rect id="Rectángulo_411828" data-name="Rectángulo 411828" width="4.692" height="1.28" transform="translate(203.027 67.64)" fill="#d4d5d8"/>
        <rect id="Rectángulo_411829" data-name="Rectángulo 411829" width="4.692" height="1.28" transform="translate(203.027 69.898)" fill="#d4d5d8"/>
        <rect id="Rectángulo_411830" data-name="Rectángulo 411830" width="4.692" height="1.279" transform="translate(203.027 72.155)" fill="#d4d5d8"/>
        <rect id="Rectángulo_411831" data-name="Rectángulo 411831" width="4.692" height="1.28" transform="translate(203.027 74.411)" fill="#d4d5d8"/>
        <rect id="Rectángulo_411832" data-name="Rectángulo 411832" width="4.692" height="1.28" transform="translate(203.027 76.668)" fill="#d4d5d8"/>
        <rect id="Rectángulo_411833" data-name="Rectángulo 411833" width="4.692" height="1.28" transform="translate(203.027 78.927)" fill="#d4d5d8"/>
        <rect id="Rectángulo_411834" data-name="Rectángulo 411834" width="4.692" height="1.28" transform="translate(203.027 81.183)" fill="#d4d5d8"/>
        <rect id="Rectángulo_411835" data-name="Rectángulo 411835" width="4.692" height="1.279" transform="translate(203.027 83.441)" fill="#d4d5d8"/>
        <rect id="Rectángulo_411836" data-name="Rectángulo 411836" width="4.692" height="1.28" transform="translate(203.027 85.697)" fill="#d4d5d8"/>
        <rect id="Rectángulo_411837" data-name="Rectángulo 411837" width="4.692" height="1.279" transform="translate(203.027 87.954)" fill="#d4d5d8"/>
        <rect id="Rectángulo_411838" data-name="Rectángulo 411838" width="4.692" height="1.28" transform="translate(203.027 90.209)" fill="#d4d5d8"/>
        <rect id="Rectángulo_411839" data-name="Rectángulo 411839" width="4.692" height="1.28" transform="translate(203.027 92.466)" fill="#d4d5d8"/>
        <rect id="Rectángulo_411840" data-name="Rectángulo 411840" width="4.692" height="1.28" transform="translate(203.027 94.723)" fill="#d4d5d8"/>
        <rect id="Rectángulo_411841" data-name="Rectángulo 411841" width="4.692" height="1.174" transform="translate(203.027 96.981)" fill="#d4d5d8"/>
        <path id="Trazado_890670" data-name="Trazado 890670" d="M185.106,49.465l-2.43-.74a2.476,2.476,0,0,0-1.213,0l-2.43.74a.966.966,0,0,0-.643.818l-.241,3.917a1.938,1.938,0,0,0,.348,1.131l.249.316a3.789,3.789,0,0,1,.565,1.108l.448,1.594a.884.884,0,0,0,.806.61h3.008a.882.882,0,0,0,.806-.61l.449-1.594a3.785,3.785,0,0,1,.563-1.108l.245-.316a1.937,1.937,0,0,0,.356-1.131l-.241-3.917a.983.983,0,0,0-.646-.818" transform="translate(23.305 6.364)" fill="#f7ad4a"/>
        <path id="Trazado_890671" data-name="Trazado 890671" d="M179.33,51.821l.7,7.749a.952.952,0,0,0,.93.851h1.91a.952.952,0,0,0,.93-.851l.7-7.749a.764.764,0,0,0-.777-.85h-3.615a.766.766,0,0,0-.777.85m2.636,4.729h-.1a.953.953,0,0,1-.933-.85l-.271-3.025a.762.762,0,0,1,.775-.849h.956a.767.767,0,0,1,.778.849L182.9,55.7a.951.951,0,0,1-.93.85" transform="translate(23.459 6.668)" fill="#b98238"/>
        <path id="Trazado_890672" data-name="Trazado 890672" d="M181.953,53.207h-.426a.855.855,0,0,1-.855-.854V50.861a.855.855,0,0,1,.855-.854h.426a.855.855,0,0,1,.855.854v1.493a.855.855,0,0,1-.855.854" transform="translate(23.635 6.542)" fill="#f9bd6e"/>
        <path id="Trazado_890673" data-name="Trazado 890673" d="M152.45,48.02c-.195-2.746-1.53-4.077-3.077-5.612a11.824,11.824,0,0,1-4.151-7.951c-.963-8.95-6.22-11.49-6.274-11.514l.346-.746c.237.109,5.73,2.764,6.745,12.173.432,4,2.2,5.757,3.912,7.455,1.6,1.585,3.1,3.085,3.322,6.135Z" transform="translate(18.177 2.904)" fill="#f7ad4a"/>
        <path id="Trazado_890674" data-name="Trazado 890674" d="M145.313,48.094a2.055,2.055,0,0,1-2.052,2.057H128.743a2.058,2.058,0,0,1-2.059-2.057V23.207a2.057,2.057,0,0,1,2.059-2.057h14.517a2.055,2.055,0,0,1,2.052,2.057Z" transform="translate(16.573 2.767)" fill="#f7ad4a"/>
        <rect id="Rectángulo_411842" data-name="Rectángulo 411842" width="18.629" height="0.824" transform="translate(143.256 38.005)" fill="#f9bd6e"/>
        <rect id="Rectángulo_411843" data-name="Rectángulo 411843" width="18.629" height="0.822" transform="translate(143.256 43.598)" fill="#f9bd6e"/>
        <rect id="Rectángulo_411844" data-name="Rectángulo 411844" width="18.629" height="0.824" transform="translate(143.256 39.868)" fill="#f9bd6e"/>
        <rect id="Rectángulo_411845" data-name="Rectángulo 411845" width="18.629" height="0.824" transform="translate(143.256 41.732)" fill="#f9bd6e"/>
        <rect id="Rectángulo_411846" data-name="Rectángulo 411846" width="18.629" height="0.823" transform="translate(143.256 45.461)" fill="#f9bd6e"/>
        <path id="Trazado_890675" data-name="Trazado 890675" d="M145.03,45.968a1.989,1.989,0,0,0,.263-.82H126.7a1.934,1.934,0,0,0,.258.82Z" transform="translate(16.575 5.906)" fill="#f9bd6e"/>
        <rect id="Rectángulo_411847" data-name="Rectángulo 411847" width="18.629" height="0.821" transform="translate(143.256 47.327)" fill="#f9bd6e"/>
        <rect id="Rectángulo_411848" data-name="Rectángulo 411848" width="18.629" height="0.82" transform="translate(143.256 49.191)" fill="#f9bd6e"/>
        <rect id="Rectángulo_411849" data-name="Rectángulo 411849" width="18.629" height="0.823" transform="translate(143.256 26.82)" fill="#f9bd6e"/>
        <rect id="Rectángulo_411850" data-name="Rectángulo 411850" width="18.629" height="0.824" transform="translate(143.256 36.141)" fill="#f9bd6e"/>
        <rect id="Rectángulo_411851" data-name="Rectángulo 411851" width="18.629" height="0.823" transform="translate(143.256 28.684)" fill="#f9bd6e"/>
        <path id="Trazado_890676" data-name="Trazado 890676" d="M126.962,22.07a1.969,1.969,0,0,0-.258.823h18.59a2.009,2.009,0,0,0-.263-.823Z" transform="translate(16.575 2.887)" fill="#f9bd6e"/>
        <rect id="Rectángulo_411852" data-name="Rectángulo 411852" width="18.629" height="0.824" transform="translate(143.256 30.548)" fill="#f9bd6e"/>
        <rect id="Rectángulo_411853" data-name="Rectángulo 411853" width="18.629" height="0.824" transform="translate(143.256 34.277)" fill="#f9bd6e"/>
        <rect id="Rectángulo_411854" data-name="Rectángulo 411854" width="18.629" height="0.822" transform="translate(143.256 32.414)" fill="#f9bd6e"/>
        <rect id="Rectángulo_411855" data-name="Rectángulo 411855" width="8.807" height="2.683" transform="translate(148.17 21.232)" fill="#6ebec5"/>
        <path id="Trazado_890677" data-name="Trazado 890677" d="M139.835,18.863c0-.417-1.973-.755-4.4-.755s-4.4.338-4.4.755,1.97.752,4.4.752,4.4-.337,4.4-.752" transform="translate(17.141 2.369)" fill="#8bcbd1"/>
        <rect id="Rectángulo_411856" data-name="Rectángulo 411856" width="8.807" height="2.495" transform="translate(148.17 52.918)" fill="#6ebec5"/>
        <path id="Trazado_890678" data-name="Trazado 890678" d="M60.229,55.938v46a6.933,6.933,0,0,0,6.933,6.935H84.656a6.937,6.937,0,0,0,6.938-6.935v-6.82a6.932,6.932,0,0,1,6.93-6.936H117.41a6.937,6.937,0,0,1,6.933,6.936v35.617H179.57v-74.8A6.934,6.934,0,0,0,172.636,49H67.162a6.933,6.933,0,0,0-6.933,6.936" transform="translate(7.879 6.41)" fill="#e2f2f3"/>
        <path id="Trazado_890679" data-name="Trazado 890679" d="M195.416,137.225v-9.013a6.932,6.932,0,0,0-6.936-6.933H51.834a6.934,6.934,0,0,0-6.934,6.933v9.013Z" transform="translate(5.874 15.865)" fill="#555564"/>
        <path id="Trazado_890680" data-name="Trazado 890680" d="M120.835,66.61a10.971,10.971,0,1,1-10.971-10.973A10.975,10.975,0,0,1,120.835,66.61" transform="translate(12.937 7.278)" fill="#6ebec5"/>
        <path id="Trazado_890681" data-name="Trazado 890681" d="M109.636,75.38a9,9,0,1,1,9-9,9.009,9.009,0,0,1-9,9m0-17.128a8.128,8.128,0,1,0,8.129,8.129,8.138,8.138,0,0,0-8.129-8.129" transform="translate(13.165 7.506)" fill="#555564"/>
        <path id="Trazado_890682" data-name="Trazado 890682" d="M143.534,66.61a10.971,10.971,0,1,1-10.971-10.973A10.973,10.973,0,0,1,143.534,66.61" transform="translate(15.906 7.278)" fill="#6ebec5"/>
        <path id="Trazado_890683" data-name="Trazado 890683" d="M132.335,75.38a9,9,0,1,1,9-9,9.009,9.009,0,0,1-9,9m0-17.128a8.128,8.128,0,1,0,8.126,8.129,8.138,8.138,0,0,0-8.126-8.129" transform="translate(16.134 7.506)" fill="#555564"/>
        <path id="Trazado_890684" data-name="Trazado 890684" d="M167.388,57.766h-1.624V87.552h1.624a3.49,3.49,0,0,0,3.491-3.489V61.255a3.49,3.49,0,0,0-3.491-3.489" transform="translate(21.685 7.557)" fill="#555564"/>
        <path id="Trazado_890685" data-name="Trazado 890685" d="M82.547,103.645v-1.684H66.783v1.684a1.745,1.745,0,0,0,1.744,1.746H80.805a1.743,1.743,0,0,0,1.741-1.746" transform="translate(8.736 13.338)" fill="#555564"/>
        <path id="Trazado_890686" data-name="Trazado 890686" d="M72.983,104.993v14.661c0,.917.389,1.657.872,1.657s.872-.74.872-1.657V104.993Zm.872,15.455c-.232,0-.417-.354-.417-.794s.185-.795.417-.795.417.356.417.795-.185.794-.417.794" transform="translate(9.547 13.735)" fill="#f7ad4a"/>
        <path id="Trazado_890687" data-name="Trazado 890687" d="M91.31,49H87.924V96.893h.046V95.117A6.909,6.909,0,0,1,91.31,89.21Z" transform="translate(11.502 6.41)" fill="#6ebec5"/>
        <path id="Trazado_890688" data-name="Trazado 890688" d="M117.151,87.824h55.8V83.648h-62.16a6.926,6.926,0,0,1,6.356,4.176" transform="translate(14.494 10.943)" fill="#6ebec5"/>
        <path id="Trazado_890689" data-name="Trazado 890689" d="M161.381,120.654h-35.19a3.489,3.489,0,0,1-3.491-3.489V94.841a3.492,3.492,0,0,1,3.491-3.489h35.19a3.488,3.488,0,0,1,3.485,3.489v22.325a3.485,3.485,0,0,1-3.485,3.489" transform="translate(16.051 11.95)" fill="#6ebec5"/>
        <path id="Trazado_890690" data-name="Trazado 890690" d="M92.087,165.376a12.612,12.612,0,1,0,0-17.838,12.612,12.612,0,0,0,0,17.838m10.344-11.571a2.017,2.017,0,1,1,0-2.852,2.015,2.015,0,0,1,0,2.852m-2.852,5.3a2.016,2.016,0,1,1,0,2.852,2.015,2.015,0,0,1,0-2.852" transform="translate(11.563 18.817)" fill="#d4d5d8"/>
        <path id="Trazado_890691" data-name="Trazado 890691" d="M85.173,156.878a16.253,16.253,0,1,0,16.253-16.251,16.253,16.253,0,0,0-16.253,16.251m3.64,0a12.613,12.613,0,1,1,12.613,12.613,12.614,12.614,0,0,1-12.613-12.613" transform="translate(11.142 18.396)" fill="#555564"/>
        <path id="Trazado_890692" data-name="Trazado 890692" d="M105.558,154.756a14.274,14.274,0,1,0,14.274-14.274,14.275,14.275,0,0,0-14.274,14.274m15.255,3.264a2.282,2.282,0,1,1,2.282,2.283,2.282,2.282,0,0,1-2.282-2.283m0-6.526a2.282,2.282,0,1,1,2.282,2.282,2.282,2.282,0,0,1-2.282-2.282m-6.525,6.526a2.282,2.282,0,1,1,2.282,2.283,2.282,2.282,0,0,1-2.282-2.283m0-6.526a2.282,2.282,0,1,1,2.282,2.282,2.282,2.282,0,0,1-2.282-2.282" transform="translate(13.809 18.378)" fill="#face92"/>
        <path id="Trazado_890693" data-name="Trazado 890693" d="M101.917,155.232a18.391,18.391,0,1,0,18.392-18.39,18.392,18.392,0,0,0-18.392,18.39m4.117,0a14.274,14.274,0,1,1,14.274,14.274,14.274,14.274,0,0,1-14.274-14.274" transform="translate(13.333 17.901)" fill="#f7ad4a"/>
        <path id="Trazado_890694" data-name="Trazado 890694" d="M94.121,129.149,79.742,152.356,92.649,128.3Z" transform="translate(10.432 16.784)" fill="#f7ad4a"/>
        <path id="Trazado_890695" data-name="Trazado 890695" d="M90.3,127.9a2.012,2.012,0,1,1,.737,2.749A2.011,2.011,0,0,1,90.3,127.9" transform="translate(11.777 16.6)" fill="#fdefdb"/>
        <path id="Trazado_890696" data-name="Trazado 890696" d="M43.063,128.3,55.97,152.356,41.59,129.149Z" transform="translate(5.441 16.784)" fill="#f7ad4a"/>
        <path id="Trazado_890697" data-name="Trazado 890697" d="M40.734,129.912a2.012,2.012,0,1,1,2.744.737,2.009,2.009,0,0,1-2.744-.737" transform="translate(5.293 16.6)" fill="#fdefdb"/>
        <path id="Trazado_890698" data-name="Trazado 890698" d="M68.465,121.99c0-1.287-.578-2.325-1.29-2.329s-1.289,1.043-1.293,2.329l0,.014.034.634,1.261,25.42,1.262-25.42.031-.634,0-.014m-.583.574c-.12.491-.389.837-.707.839s-.588-.348-.706-.839A2.168,2.168,0,0,1,66.4,122a.682.682,0,0,1,.006-.085c.023-.733.354-1.312.766-1.317s.744.585.767,1.317c0,.027.006.055,0,.085a2.22,2.22,0,0,1-.063.561" transform="translate(8.618 15.654)" fill="#f7ad4a"/>
        <path id="Trazado_890699" data-name="Trazado 890699" d="M81.943,123.952,74.06,150.09,80.3,123.51Z" transform="translate(9.688 16.157)" fill="#f7ad4a"/>
        <path id="Trazado_890700" data-name="Trazado 890700" d="M78.6,123.419a2.01,2.01,0,1,1,1.421,2.464,2.006,2.006,0,0,1-1.421-2.464" transform="translate(10.273 15.95)" fill="#fdefdb"/>
        <path id="Trazado_890701" data-name="Trazado 890701" d="M54.6,124.676c-.335-1.242-1.161-2.1-1.85-1.916s-.972,1.341-.647,2.584a.024.024,0,0,1,0,.015l.194.6,7.8,24.228-5.365-24.88-.131-.621c0-.006-.006-.008-.006-.014m-.415.707c.011.5-.161.909-.466.994s-.658-.184-.9-.63a2.385,2.385,0,0,1-.208-.524.437.437,0,0,1-.015-.083c-.168-.712,0-1.36.4-1.47s.872.372,1.08,1.073a.666.666,0,0,1,.029.079,2.511,2.511,0,0,1,.083.56" transform="translate(6.798 16.056)" fill="#f7ad4a"/>
        <path id="Trazado_890702" data-name="Trazado 890702" d="M44.073,156.43c0-8.074,11.618-12.917,25.955-12.917s25.955,4.843,25.955,12.917-4.026,16.322-25.955,16.322S44.073,164.5,44.073,156.43" transform="translate(5.766 18.774)" fill="#6ebec5"/>
        <path id="Trazado_890703" data-name="Trazado 890703" d="M91,169.938v-3.267a1.644,1.644,0,0,0-1.644-1.645H49.666a1.646,1.646,0,0,0-1.646,1.645v3.267Z" transform="translate(6.282 21.588)" fill="#375f63"/>
        <path id="Trazado_890704" data-name="Trazado 890704" d="M152.6,163.631c-2.142-2.469-6.382-3.279-9.082-2.614-3.283.807-6.158,2.707-8.91,4.711a6.962,6.962,0,0,1,.546-2.982c.969-2.4,2.985-3.887,5.121-5.466,2.706-2,5.5-4.068,5.879-8.082.923-9.741-6.169-12.508-13.021-15.182-.795-.312-1.584-.621-2.357-.935a.045.045,0,0,1,0,.021l-.317.985q1.142.465,2.293.909c6.791,2.65,13.2,5.153,12.355,14.1-.335,3.545-2.823,5.385-5.456,7.333-2.159,1.6-4.392,3.248-5.473,5.919a7.743,7.743,0,0,0-.56,4.108l-.372.275a55.645,55.645,0,0,1-4.924,3.394l.531.907a56.882,56.882,0,0,0,5.02-3.454l.01-.008a7.674,7.674,0,0,0,1.238,2.285c2.035,2.6,5.9,4.259,9.656,4.259a12.046,12.046,0,0,0,1.7-.119,8.274,8.274,0,0,0,6.912-5.047,4.882,4.882,0,0,0-.784-5.32m-.194,4.927a7.264,7.264,0,0,1-6.079,4.4c-3.883.546-8.249-1.026-10.373-3.745a6.3,6.3,0,0,1-1.165-2.307c2.8-2.061,5.714-4.062,8.982-4.865,2.408-.593,6.21.183,8.031,2.282a3.848,3.848,0,0,1,.6,4.237" transform="translate(16.787 17.409)" fill="#fae1df"/>
        <path id="Trazado_890705" data-name="Trazado 890705" d="M128.558,132.454c-.26-.133-.515-.27-.769-.409a11.688,11.688,0,0,1-5.024-4.78l-.937.476a12.953,12.953,0,0,0,5.659,5.332c.257.141.52.277.786.41.709.36,1.447.692,2.2,1.012a3.842,3.842,0,0,0,.337-.852c.015-.046.018-.09.029-.136-.787-.336-1.547-.682-2.276-1.054" transform="translate(15.937 16.649)" fill="#fae1df"/>
        <path id="Trazado_890706" data-name="Trazado 890706" d="M130.948,129.37c-.986-.265-2.144.778-2.785,2.405.254.139.509.277.769.409.389-.913,1.053-1.49,1.619-1.339.649.174.928,1.23.657,2.393-.011.045-.015.09-.028.136a3.874,3.874,0,0,1-.337.853c-.4.725-.973,1.156-1.47,1.021-.58-.154-.87-1.019-.726-2.033-.267-.135-.529-.27-.787-.41l-8.893,41.278,12.713-39.505.318-.985a.045.045,0,0,0,0-.021c.537-2.023.066-3.9-1.053-4.2" transform="translate(15.563 16.918)" fill="#a8d8dc"/>
      </g>
    </g>
  </g>
</svg>
