<svg id="Grupo_1124439" data-name="Grupo 1124439" xmlns="http://www.w3.org/2000/svg" xmlns:xlink="http://www.w3.org/1999/xlink" width="81.534" height="135.107" viewBox="0 0 81.534 135.107">
  <defs>
    <clipPath id="clip-path">
      <rect id="Rectángulo_413381" data-name="Rectángulo 413381" width="81.534" height="135.107" fill="none"/>
    </clipPath>
    <clipPath id="clip-path-2">
      <path id="Trazado_895162" data-name="Trazado 895162" d="M82.583,130.207a2.164,2.164,0,0,0-1.269,1.786v-.008l-.054,19.092a2.189,2.189,0,0,0,1.29,1.8,6.814,6.814,0,0,0,6.183,0A2.172,2.172,0,0,0,90,151.1l.054-19.091a1.472,1.472,0,0,1-.045.27,2.028,2.028,0,0,0-1.246-2.073,6.807,6.807,0,0,0-6.182,0" transform="translate(-81.259 -129.465)" fill="none"/>
    </clipPath>
    <linearGradient id="linear-gradient" x1="-6.263" y1="1.899" x2="-6.186" y2="1.899" gradientUnits="objectBoundingBox">
      <stop offset="0" stop-color="#abafb6"/>
      <stop offset="1" stop-color="#c1c5cd"/>
    </linearGradient>
    <clipPath id="clip-path-3">
      <path id="Trazado_895163" data-name="Trazado 895163" d="M56.055,132.342c-.01,3.142,2.018,6.294,6.1,8.733,8.3,4.961,21.944,5.1,30.481.308h0c4.338-2.434,6.522-5.673,6.532-8.92v-.633c-.009,3.248-2.192,6.486-6.531,8.921-8.536,4.79-22.183,4.652-30.48-.308-4.08-2.44-6.107-5.591-6.1-8.733Z" transform="translate(-56.055 -131.709)" fill="none"/>
    </clipPath>
    <linearGradient id="linear-gradient-2" x1="-0.891" y1="3.099" x2="-0.875" y2="3.099" gradientUnits="objectBoundingBox">
      <stop offset="0" stop-color="#b8bcc4"/>
      <stop offset="1" stop-color="#cfd4dc"/>
    </linearGradient>
    <clipPath id="clip-path-4">
      <path id="Trazado_895164" data-name="Trazado 895164" d="M62.589,117.086c-8.537,4.79-8.731,12.695-.433,17.654s21.944,5.1,30.48.308,8.731-12.694.433-17.654a30.956,30.956,0,0,0-15.529-3.812,31.19,31.19,0,0,0-14.951,3.5" transform="translate(-56.057 -113.582)" fill="none"/>
    </clipPath>
    <linearGradient id="linear-gradient-3" x1="-0.763" y1="2.18" x2="-0.748" y2="2.18" gradientUnits="objectBoundingBox">
      <stop offset="0" stop-color="#dde2eb"/>
      <stop offset="1" stop-color="#e2e7f0"/>
    </linearGradient>
    <clipPath id="clip-path-6">
      <rect id="Rectángulo_413360" data-name="Rectángulo 413360" width="38.683" height="22.407" fill="none"/>
    </clipPath>
    <clipPath id="clip-path-7">
      <rect id="Rectángulo_413361" data-name="Rectángulo 413361" width="11.416" height="6.612" fill="none"/>
    </clipPath>
    <clipPath id="clip-path-8">
      <path id="Trazado_895169" data-name="Trazado 895169" d="M83.729,67.339a1.663,1.663,0,0,0-.974,1.361l-.005,2.916h6.678l0-2.9a1.672,1.672,0,0,0-.986-1.378,5.193,5.193,0,0,0-4.717,0" transform="translate(-82.749 -66.77)" fill="none"/>
    </clipPath>
    <linearGradient id="linear-gradient-4" x1="-8.485" y1="18.438" x2="-8.383" y2="18.438" gradientUnits="objectBoundingBox">
      <stop offset="0" stop-color="#acb1b3"/>
      <stop offset="1" stop-color="#bec4c6"/>
    </linearGradient>
    <clipPath id="clip-path-10">
      <path id="Trazado_895174" data-name="Trazado 895174" d="M56.1,129.5a.861.861,0,0,0,.507.709,2.678,2.678,0,0,0,2.43,0,.855.855,0,0,0,.5-.7l-.04-104.627a.857.857,0,0,1-.5.7,2.679,2.679,0,0,1-2.431,0,.86.86,0,0,1-.507-.709Z" transform="translate(-56.056 -24.874)" fill="none"/>
    </clipPath>
    <linearGradient id="linear-gradient-5" x1="-11.045" y1="1.117" x2="-10.848" y2="1.117" xlink:href="#linear-gradient-2"/>
    <clipPath id="clip-path-11">
      <path id="Trazado_895175" data-name="Trazado 895175" d="M56.1,129.5a.861.861,0,0,0,.507.709c.026.015.052.029.08.043l.032.016a2.57,2.57,0,0,0,1.082.232h.062a2.453,2.453,0,0,0,1.175-.292.855.855,0,0,0,.5-.7l-.04-104.627a.857.857,0,0,1-.5.7,2.47,2.47,0,0,1-1.215.292h-.041a2.574,2.574,0,0,1-1.047-.225c-.027-.013-.054-.026-.081-.04l-.046-.025a.86.86,0,0,1-.507-.709Z" transform="translate(-56.056 -24.874)" fill="none"/>
    </clipPath>
    <linearGradient id="linear-gradient-6" x1="-11.045" y1="1.118" x2="-10.848" y2="1.118" gradientUnits="objectBoundingBox">
      <stop offset="0" stop-color="#2b2b2c"/>
      <stop offset="1" stop-color="#4d4d52"/>
    </linearGradient>
    <clipPath id="clip-path-13">
      <rect id="Rectángulo_413368" data-name="Rectángulo 413368" width="3.438" height="5.737" fill="none"/>
    </clipPath>
    <clipPath id="clip-path-14">
      <path id="Trazado_895177" data-name="Trazado 895177" d="M56.563,30.32a2.678,2.678,0,0,0,2.43,0,.856.856,0,0,0,.5-.7V24.882a.856.856,0,0,1-.5.7,2.678,2.678,0,0,1-2.43,0,.86.86,0,0,1-.507-.709l0,4.747a.864.864,0,0,0,.505.7" transform="translate(-56.056 -24.874)" fill="none"/>
    </clipPath>
    <linearGradient id="linear-gradient-7" x1="-11.173" y1="20.232" x2="-10.974" y2="20.232" xlink:href="#linear-gradient-6"/>
    <clipPath id="clip-path-15">
      <path id="Trazado_895178" data-name="Trazado 895178" d="M54.53,24.982a1.392,1.392,0,0,0,.82,1.147,4.329,4.329,0,0,0,3.929,0,1.384,1.384,0,0,0,.81-1.133l-.029-6.061a1.385,1.385,0,0,1-.81,1.133,4.33,4.33,0,0,1-3.93,0,1.393,1.393,0,0,1-.82-1.147Z" transform="translate(-54.5 -18.921)" fill="none"/>
    </clipPath>
    <linearGradient id="linear-gradient-8" x1="-6.683" y1="15.584" x2="-6.56" y2="15.584" xlink:href="#linear-gradient-2"/>
    <clipPath id="clip-path-16">
      <path id="Trazado_895179" data-name="Trazado 895179" d="M54.53,24.982a1.392,1.392,0,0,0,.82,1.147l.088.049a4.074,4.074,0,0,0,1.841.422h.05a4.145,4.145,0,0,0,1.793-.388l.06-.031.069-.038.029-.016a1.384,1.384,0,0,0,.81-1.133l-.029-6.061a1.385,1.385,0,0,1-.81,1.133l-.033.019-.036.02-.016.009a4.062,4.062,0,0,1-1.865.425h-.05a4.045,4.045,0,0,1-1.871-.437l-.023-.013-.036-.02a1.393,1.393,0,0,1-.82-1.146Z" transform="translate(-54.5 -18.923)" fill="none"/>
    </clipPath>
    <linearGradient id="linear-gradient-9" x1="-6.683" y1="15.909" x2="-6.56" y2="15.909" xlink:href="#linear-gradient-2"/>
    <clipPath id="clip-path-18">
      <path id="Trazado_895182" data-name="Trazado 895182" d="M26.528,162.608a2.166,2.166,0,0,0-1.269,1.786v-.008L25.2,183.478a2.188,2.188,0,0,0,1.29,1.8,6.814,6.814,0,0,0,6.183,0,2.172,2.172,0,0,0,1.272-1.778L34,164.41a1.52,1.52,0,0,1-.045.27,2.029,2.029,0,0,0-1.246-2.073,6.814,6.814,0,0,0-6.183,0" transform="translate(-25.204 -161.866)" fill="none"/>
    </clipPath>
    <linearGradient id="linear-gradient-10" x1="-1.943" y1="0.989" x2="-1.865" y2="0.989" xlink:href="#linear-gradient"/>
    <clipPath id="clip-path-19">
      <path id="Trazado_895183" data-name="Trazado 895183" d="M0,164.742v.038c.008,3.13,2.034,6.266,6.1,8.695,8.3,4.96,21.944,5.1,30.481.308,4.338-2.434,6.521-5.673,6.531-8.921l0-.632c-.01,3.248-2.193,6.486-6.532,8.921-8.537,4.79-22.183,4.652-30.48-.308-4.08-2.44-6.108-5.591-6.1-8.734Z" transform="translate(0 -164.109)" fill="none"/>
    </clipPath>
    <linearGradient id="linear-gradient-11" x1="0" y1="1.563" x2="0.016" y2="1.563" xlink:href="#linear-gradient-2"/>
    <clipPath id="clip-path-20">
      <path id="Trazado_895184" data-name="Trazado 895184" d="M6.534,149.487C-2,154.277-2.2,162.181,6.1,167.141s21.943,5.1,30.48.308,8.73-12.695.433-17.654a30.954,30.954,0,0,0-15.529-3.812,31.178,31.178,0,0,0-14.951,3.5" transform="translate(-0.003 -145.983)" fill="none"/>
    </clipPath>
    <linearGradient id="linear-gradient-12" x1="0.046" y1="1.334" x2="0.061" y2="1.334" xlink:href="#linear-gradient-3"/>
    <clipPath id="clip-path-24">
      <path id="Trazado_895190" data-name="Trazado 895190" d="M27.674,99.74A1.662,1.662,0,0,0,26.7,101.1l-.005,2.916h6.678l.005-2.9a1.674,1.674,0,0,0-.986-1.378,5.195,5.195,0,0,0-4.718,0" transform="translate(-26.694 -99.171)" fill="none"/>
    </clipPath>
    <linearGradient id="linear-gradient-13" x1="-2.737" y1="13.854" x2="-2.635" y2="13.854" xlink:href="#linear-gradient-4"/>
  </defs>
  <g id="Grupo_1124438" data-name="Grupo 1124438" clip-path="url(#clip-path)">
    <g id="Grupo_1124386" data-name="Grupo 1124386" transform="translate(55.699 88.742)">
      <g id="Grupo_1124385" data-name="Grupo 1124385" clip-path="url(#clip-path-2)">
        <rect id="Rectángulo_413357" data-name="Rectángulo 413357" width="8.893" height="24.405" transform="translate(-0.001)" fill="url(#linear-gradient)"/>
      </g>
    </g>
    <g id="Grupo_1124388" data-name="Grupo 1124388" transform="translate(38.423 90.28)">
      <g id="Grupo_1124387" data-name="Grupo 1124387" clip-path="url(#clip-path-3)">
        <rect id="Rectángulo_413358" data-name="Rectángulo 413358" width="43.12" height="14.464" transform="translate(-0.01)" fill="url(#linear-gradient-2)"/>
      </g>
    </g>
    <g id="Grupo_1124390" data-name="Grupo 1124390" transform="translate(38.424 77.855)">
      <g id="Grupo_1124389" data-name="Grupo 1124389" clip-path="url(#clip-path-4)">
        <rect id="Rectángulo_413359" data-name="Rectángulo 413359" width="47.508" height="26.256" transform="translate(-2.199)" fill="url(#linear-gradient-3)"/>
      </g>
    </g>
    <g id="Grupo_1124398" data-name="Grupo 1124398">
      <g id="Grupo_1124397" data-name="Grupo 1124397" clip-path="url(#clip-path)">
        <g id="Grupo_1124393" data-name="Grupo 1124393" transform="translate(40.638 79.137)" opacity="0.4">
          <g id="Grupo_1124392" data-name="Grupo 1124392">
            <g id="Grupo_1124391" data-name="Grupo 1124391" clip-path="url(#clip-path-6)">
              <path id="Trazado_895165" data-name="Trazado 895165" d="M92.5,118.873c-7.445-4.451-19.69-4.575-27.35-.276s-7.834,11.39-.389,15.841,19.691,4.575,27.351.276,7.833-11.391.388-15.841" transform="translate(-59.286 -115.452)" fill="#b8bcc3"/>
            </g>
          </g>
        </g>
        <g id="Grupo_1124396" data-name="Grupo 1124396" transform="translate(54.271 87.034)" opacity="0.4">
          <g id="Grupo_1124395" data-name="Grupo 1124395">
            <g id="Grupo_1124394" data-name="Grupo 1124394" clip-path="url(#clip-path-7)">
              <path id="Trazado_895166" data-name="Trazado 895166" d="M88.977,127.983a8.893,8.893,0,0,0-8.071-.082c-2.261,1.268-2.312,3.361-.114,4.675a8.893,8.893,0,0,0,8.071.082c2.261-1.268,2.312-3.361.114-4.675" transform="translate(-79.176 -126.973)" fill="#b8bcc3"/>
            </g>
          </g>
        </g>
        <path id="Trazado_895167" data-name="Trazado 895167" d="M95.551,109.161l-3.64-38.972c-.138-1.476-1.162-2.932-3.08-4.079-4.213-2.518-11.141-2.588-15.475-.156-2.045,1.147-3.146,2.647-3.3,4.174L66.2,109.079c-.005.059,0,.118,0,.176-.01.152-.01.3-.005.456,0,.129.009.257.023.385.016.153.044.305.074.457.025.127.05.254.085.38.043.153.1.3.156.457.046.124.09.248.146.371.07.152.156.3.24.453.067.119.129.239.206.357.1.152.215.3.33.452.085.112.164.225.258.334.132.154.284.3.433.454.1.1.191.2.3.3.178.163.378.32.576.478.1.08.191.164.3.242.316.234.654.46,1.018.678,5.658,3.383,14.965,3.477,20.786.21.341-.191.658-.391.96-.6l.092-.061c.283-.2.546-.4.794-.606.038-.031.076-.062.112-.094q.356-.305.66-.625c.035-.036.069-.072.1-.108a7.933,7.933,0,0,0,.542-.652c.026-.035.05-.07.075-.106a6.778,6.778,0,0,0,.434-.687c.014-.026.026-.052.04-.078a5.813,5.813,0,0,0,.331-.739l0-.009a5.194,5.194,0,0,0,.206-.752c0-.024.012-.048.016-.072a4.933,4.933,0,0,0,.078-.728c0-.036,0-.072,0-.108a4.922,4.922,0,0,0-.018-.542" transform="translate(-20.819 -20.186)" fill="#ffb74d"/>
        <path id="Trazado_895168" data-name="Trazado 895168" d="M90.38,75.074c-4.334,2.432-11.263,2.362-15.475-.156s-4.115-6.532.219-8.963,11.263-2.362,15.475.156,4.115,6.531-.219,8.963" transform="translate(-22.587 -20.186)" fill="#e29b3d"/>
      </g>
    </g>
    <g id="Grupo_1124400" data-name="Grupo 1124400" transform="translate(56.72 45.767)">
      <g id="Grupo_1124399" data-name="Grupo 1124399" clip-path="url(#clip-path-8)">
        <rect id="Rectángulo_413363" data-name="Rectángulo 413363" width="6.685" height="4.845" transform="translate(0 0)" fill="url(#linear-gradient-4)"/>
      </g>
    </g>
    <g id="Grupo_1124402" data-name="Grupo 1124402">
      <g id="Grupo_1124401" data-name="Grupo 1124401" clip-path="url(#clip-path)">
        <path id="Trazado_895170" data-name="Trazado 895170" d="M88.92,72.1a8.075,8.075,0,0,1-7.324,0,2.587,2.587,0,0,1-1.524-2.132l-.005,1.947a2.587,2.587,0,0,0,1.524,2.132,8.075,8.075,0,0,0,7.324,0,2.746,2.746,0,0,0,1.478-1.818,1.809,1.809,0,0,0,.024-.284L90.422,70a2.566,2.566,0,0,1-1.5,2.1" transform="translate(-25.185 -22.009)" fill="#bec4c6"/>
        <path id="Trazado_895171" data-name="Trazado 895171" d="M88.895,66.493a8.063,8.063,0,0,0-7.315,0c-2.015,1.17-2,3.072.02,4.24a8.074,8.074,0,0,0,7.323,0c2.015-1.171,2-3.069-.028-4.24m-1.346,3.446a5.052,5.052,0,0,1-4.585,0c-1.27-.733-1.269-1.919-.008-2.652a5.042,5.042,0,0,1,4.578,0c1.27.733,1.277,1.923.015,2.656" transform="translate(-25.188 -20.64)" fill="#fff8ee"/>
        <path id="Trazado_895172" data-name="Trazado 895172" d="M67.651,102.43l1.276-12.882a6.357,6.357,0,0,0,3.378,4.288c4.66,2.786,12.326,2.863,17.12.173A6.629,6.629,0,0,0,93,89.824l1.126,12.065c.088,2.066-1.229,4.144-3.99,5.693-5.255,2.949-13.657,2.864-18.765-.19-2.334-1.395-3.566-3.167-3.723-4.963M94.933,120.09a5.915,5.915,0,0,0,.331-.739l0-.009a5.35,5.35,0,0,0,.206-.752c0-.023.011-.047.016-.071a4.932,4.932,0,0,0,.077-.728c0-.036,0-.072,0-.108a5.092,5.092,0,0,0-.017-.541l-.565-6.047a7.983,7.983,0,0,1-4.126,4.635c-5.637,3.163-14.649,3.072-20.129-.2a7.642,7.642,0,0,1-3.909-4.761l-.624,6.294c-.005.059,0,.117,0,.176-.009.152-.01.3,0,.456,0,.128.008.256.022.385.016.153.044.3.075.457.025.127.049.253.085.38.042.153.1.3.156.456.047.124.09.248.147.371.069.153.155.3.24.454.066.119.129.239.2.356.1.153.216.3.33.452.086.112.164.224.258.335.132.154.284.3.434.454.1.1.191.2.3.3.178.164.378.321.576.478.1.081.191.164.3.243.316.233.654.46,1.019.677,5.658,3.383,14.965,3.477,20.786.21.341-.191.658-.391.96-.6l.092-.061c.284-.2.546-.4.794-.605l.113-.094q.356-.305.66-.625l.1-.108a7.94,7.94,0,0,0,.543-.651c.026-.035.05-.071.075-.106a6.668,6.668,0,0,0,.435-.687c.014-.027.026-.053.04-.079" transform="translate(-20.82 -28.167)" fill="#e29b3d"/>
        <path id="Trazado_895173" data-name="Trazado 895173" d="M60.117,15.429a.425.425,0,0,1-.213-.793L85.03.129a.733.733,0,0,1,.886.034.835.835,0,0,1,.115.99l-4.493,10.01a1.224,1.224,0,0,1-.877.732.634.634,0,0,1-.585-.222L77.454,8.4a.668.668,0,0,1-.123-.551,1.15,1.15,0,0,1,.534-.751l2.618-1.511a.425.425,0,1,1,.425.736L78.291,7.839a.317.317,0,0,0-.106.12L80.625,11a.536.536,0,0,0,.138-.185l4.385-9.768L60.328,15.373a.425.425,0,0,1-.212.057" transform="translate(-18.776 0)" fill="#cbd0d8"/>
      </g>
    </g>
    <g id="Grupo_1124404" data-name="Grupo 1124404" transform="translate(38.424 17.05)">
      <g id="Grupo_1124403" data-name="Grupo 1124403" clip-path="url(#clip-path-10)">
        <rect id="Rectángulo_413365" data-name="Rectángulo 413365" width="3.479" height="105.726" transform="translate(-0.001 0)" fill="url(#linear-gradient-5)"/>
      </g>
    </g>
    <g id="Grupo_1124406" data-name="Grupo 1124406" transform="translate(38.424 17.05)">
      <g id="Grupo_1124405" data-name="Grupo 1124405" clip-path="url(#clip-path-11)">
        <rect id="Rectángulo_413366" data-name="Rectángulo 413366" width="3.479" height="105.628" transform="translate(-0.001 0)" fill="url(#linear-gradient-6)"/>
      </g>
    </g>
    <g id="Grupo_1124413" data-name="Grupo 1124413">
      <g id="Grupo_1124412" data-name="Grupo 1124412" clip-path="url(#clip-path)">
        <path id="Trazado_895176" data-name="Trazado 895176" d="M58.988,23.719a.744.744,0,0,1,0,1.408,2.678,2.678,0,0,1-2.43,0,.745.745,0,0,1-.008-1.409,2.685,2.685,0,0,1,2.433,0" transform="translate(-17.632 -7.369)" fill="#e2e7f0"/>
        <g id="Grupo_1124411" data-name="Grupo 1124411" transform="translate(38.424 17.05)" opacity="0.6" style="mix-blend-mode: multiply;isolation: isolate">
          <g id="Grupo_1124410" data-name="Grupo 1124410">
            <g id="Grupo_1124409" data-name="Grupo 1124409" clip-path="url(#clip-path-13)">
              <g id="Grupo_1124408" data-name="Grupo 1124408" transform="translate(0 0)">
                <g id="Grupo_1124407" data-name="Grupo 1124407" clip-path="url(#clip-path-14)">
                  <rect id="Rectángulo_413367" data-name="Rectángulo 413367" width="3.439" height="5.835" transform="translate(-0.001 0)" fill="url(#linear-gradient-7)"/>
                </g>
              </g>
            </g>
          </g>
        </g>
      </g>
    </g>
    <g id="Grupo_1124415" data-name="Grupo 1124415" transform="translate(37.357 12.969)">
      <g id="Grupo_1124414" data-name="Grupo 1124414" clip-path="url(#clip-path-15)">
        <rect id="Rectángulo_413370" data-name="Rectángulo 413370" width="5.59" height="7.837" transform="translate(-0.001 0)" fill="url(#linear-gradient-8)"/>
      </g>
    </g>
    <g id="Grupo_1124417" data-name="Grupo 1124417" transform="translate(37.357 12.971)">
      <g id="Grupo_1124416" data-name="Grupo 1124416" clip-path="url(#clip-path-16)">
        <rect id="Rectángulo_413371" data-name="Rectángulo 413371" width="5.59" height="7.677" transform="translate(-0.001 0)" fill="url(#linear-gradient-9)"/>
      </g>
    </g>
    <g id="Grupo_1124419" data-name="Grupo 1124419">
      <g id="Grupo_1124418" data-name="Grupo 1124418" clip-path="url(#clip-path)">
        <path id="Trazado_895180" data-name="Trazado 895180" d="M59.242,17.054a1.2,1.2,0,0,1,.008,2.276,4.332,4.332,0,0,1-3.93,0,1.2,1.2,0,0,1-.013-2.278,4.34,4.34,0,0,1,3.934,0" transform="translate(-17.143 -5.216)" fill="#e2e7f0"/>
        <path id="Trazado_895181" data-name="Trazado 895181" d="M22.641,45.264a.625.625,0,0,1-.463-.2l-4.494-4.821a.746.746,0,0,1-.172-.635,1.427,1.427,0,0,1,.673-.969L43.31,24.135a.425.425,0,0,1,.425.736L18.608,39.377a.617.617,0,0,0-.254.342l4.337,4.651a.552.552,0,0,0,.151-.2l2.409-5.787-2.1,1.211a.425.425,0,0,1-.425-.736l2.618-1.511a.641.641,0,0,1,.768.035.7.7,0,0,1,.129.826L23.625,44.5a1.249,1.249,0,0,1-.855.757.757.757,0,0,1-.129.012" transform="translate(-5.505 -7.574)" fill="#cbd0d8"/>
      </g>
    </g>
    <g id="Grupo_1124421" data-name="Grupo 1124421" transform="translate(17.276 110.951)">
      <g id="Grupo_1124420" data-name="Grupo 1124420" clip-path="url(#clip-path-18)">
        <rect id="Rectángulo_413373" data-name="Rectángulo 413373" width="8.893" height="24.404" transform="translate(-0.001)" fill="url(#linear-gradient-10)"/>
      </g>
    </g>
    <g id="Grupo_1124423" data-name="Grupo 1124423" transform="translate(0 112.489)">
      <g id="Grupo_1124422" data-name="Grupo 1124422" clip-path="url(#clip-path-19)">
        <rect id="Rectángulo_413374" data-name="Rectángulo 413374" width="43.12" height="14.464" transform="translate(-0.008)" fill="url(#linear-gradient-11)"/>
      </g>
    </g>
    <g id="Grupo_1124425" data-name="Grupo 1124425" transform="translate(0.002 100.064)">
      <g id="Grupo_1124424" data-name="Grupo 1124424" clip-path="url(#clip-path-20)">
        <rect id="Rectángulo_413375" data-name="Rectángulo 413375" width="47.507" height="26.257" transform="translate(-2.199 -0.001)" fill="url(#linear-gradient-12)"/>
      </g>
    </g>
    <g id="Grupo_1124433" data-name="Grupo 1124433">
      <g id="Grupo_1124432" data-name="Grupo 1124432" clip-path="url(#clip-path)">
        <g id="Grupo_1124428" data-name="Grupo 1124428" transform="translate(2.215 101.346)" opacity="0.4">
          <g id="Grupo_1124427" data-name="Grupo 1124427">
            <g id="Grupo_1124426" data-name="Grupo 1124426" clip-path="url(#clip-path-6)">
              <path id="Trazado_895185" data-name="Trazado 895185" d="M36.443,151.273C29,146.823,16.752,146.7,9.093,151s-7.834,11.39-.389,15.841,19.691,4.575,27.351.276,7.833-11.391.388-15.841" transform="translate(-3.232 -147.853)" fill="#b8bcc3"/>
            </g>
          </g>
        </g>
        <g id="Grupo_1124431" data-name="Grupo 1124431" transform="translate(15.849 109.243)" opacity="0.4">
          <g id="Grupo_1124430" data-name="Grupo 1124430">
            <g id="Grupo_1124429" data-name="Grupo 1124429" clip-path="url(#clip-path-7)">
              <path id="Trazado_895186" data-name="Trazado 895186" d="M32.922,160.383a8.9,8.9,0,0,0-8.071-.082c-2.261,1.269-2.312,3.361-.114,4.675a8.891,8.891,0,0,0,8.071.082c2.261-1.268,2.312-3.361.114-4.675" transform="translate(-23.122 -159.374)" fill="#b8bcc3"/>
            </g>
          </g>
        </g>
        <path id="Trazado_895187" data-name="Trazado 895187" d="M39.5,141.562l-3.64-38.972c-.138-1.476-1.162-2.932-3.08-4.079-4.213-2.518-11.141-2.588-15.475-.156C15.258,99.5,14.156,101,14,102.529l-3.86,38.951c-.005.059,0,.118,0,.176-.01.152-.01.3-.005.456,0,.129.009.257.022.385.016.153.045.305.074.457.026.127.051.254.086.38.042.153.1.3.156.456.047.124.09.248.147.372.069.152.155.3.24.453.067.119.129.239.2.356.1.153.215.3.331.452.084.112.163.225.258.334.131.154.283.3.433.454.1.1.191.2.3.3.179.163.379.32.578.478.1.08.191.164.3.243.317.233.655.459,1.019.677,5.658,3.382,14.965,3.477,20.786.21.341-.191.658-.391.96-.6l.092-.061c.283-.2.546-.4.794-.606.038-.032.076-.062.112-.094a8.886,8.886,0,0,0,.66-.625c.035-.036.069-.072.1-.108a7.813,7.813,0,0,0,.542-.651c.026-.035.05-.071.076-.106a6.891,6.891,0,0,0,.433-.687c.014-.026.026-.053.04-.079a6.02,6.02,0,0,0,.332-.739l0-.009a5.371,5.371,0,0,0,.207-.751c0-.024.011-.048.015-.072a4.933,4.933,0,0,0,.078-.728c0-.036,0-.072,0-.108a4.922,4.922,0,0,0-.016-.542" transform="translate(-3.188 -30.378)" fill="#30c1a5"/>
        <path id="Trazado_895188" data-name="Trazado 895188" d="M34.326,107.474c-4.334,2.432-11.263,2.362-15.475-.156s-4.115-6.531.219-8.963,11.263-2.362,15.475.156,4.115,6.531-.219,8.963" transform="translate(-4.956 -30.378)" fill="#30c1a5"/>
        <path id="Trazado_895189" data-name="Trazado 895189" d="M11.594,134.832,12.87,121.95a6.357,6.357,0,0,0,3.378,4.288c4.66,2.786,12.326,2.863,17.12.173a6.629,6.629,0,0,0,3.577-4.185l1.126,12.065c.088,2.066-1.229,4.144-3.99,5.693-5.255,2.949-13.657,2.864-18.765-.19-2.334-1.395-3.566-3.167-3.723-4.963m27.282,17.659a5.915,5.915,0,0,0,.331-.739l0-.009a5.352,5.352,0,0,0,.206-.752c0-.023.011-.047.016-.071a4.932,4.932,0,0,0,.077-.728c0-.036,0-.072,0-.108a5.111,5.111,0,0,0-.017-.542l-.565-6.046a7.983,7.983,0,0,1-4.126,4.635c-5.637,3.163-14.649,3.072-20.129-.2a7.642,7.642,0,0,1-3.909-4.761l-.624,6.294c-.005.059,0,.117,0,.176-.009.152-.01.3,0,.456,0,.128.008.256.022.385.016.153.044.3.075.457.025.127.049.253.085.38.042.153.1.3.156.456.047.124.09.248.147.371.069.153.155.3.24.454.066.119.129.239.2.356.1.153.216.3.33.452.086.112.164.224.258.334.132.154.284.3.434.454.1.1.191.2.3.3.178.163.378.321.576.478.1.081.191.164.3.243.316.233.654.46,1.019.677,5.658,3.383,14.965,3.477,20.786.21.341-.191.658-.391.96-.6l.092-.061c.284-.2.546-.4.794-.605l.113-.094q.356-.305.66-.625l.1-.108a7.938,7.938,0,0,0,.543-.651c.026-.035.05-.071.075-.106a6.666,6.666,0,0,0,.435-.687c.014-.027.026-.053.04-.079" transform="translate(-3.188 -38.359)" fill="#3bf2d6"/>
      </g>
    </g>
    <g id="Grupo_1124435" data-name="Grupo 1124435" transform="translate(18.297 67.977)">
      <g id="Grupo_1124434" data-name="Grupo 1124434" clip-path="url(#clip-path-24)">
        <rect id="Rectángulo_413379" data-name="Rectángulo 413379" width="6.685" height="4.845" transform="translate(0)" fill="url(#linear-gradient-13)"/>
      </g>
    </g>
    <g id="Grupo_1124437" data-name="Grupo 1124437">
      <g id="Grupo_1124436" data-name="Grupo 1124436" clip-path="url(#clip-path)">
        <path id="Trazado_895191" data-name="Trazado 895191" d="M32.865,104.5a8.074,8.074,0,0,1-7.323,0,2.586,2.586,0,0,1-1.524-2.132l-.005,1.947a2.586,2.586,0,0,0,1.524,2.132,8.074,8.074,0,0,0,7.323,0,2.748,2.748,0,0,0,1.478-1.818,1.812,1.812,0,0,0,.024-.285l.005-1.947a2.568,2.568,0,0,1-1.5,2.1" transform="translate(-7.553 -32.2)" fill="#bec4c6"/>
        <path id="Trazado_895192" data-name="Trazado 895192" d="M32.84,98.893a8.063,8.063,0,0,0-7.315,0c-2.014,1.17-2,3.072.02,4.24a8.076,8.076,0,0,0,7.323,0c2.015-1.171,2-3.069-.028-4.24m-1.346,3.446a5.052,5.052,0,0,1-4.585,0c-1.27-.733-1.269-1.919-.008-2.652a5.042,5.042,0,0,1,4.578,0c1.27.733,1.277,1.923.015,2.656" transform="translate(-7.556 -30.831)" fill="#fff8ee"/>
      </g>
    </g>
  </g>
</svg>
