<svg xmlns="http://www.w3.org/2000/svg" xmlns:xlink="http://www.w3.org/1999/xlink" width="190" height="178" viewBox="0 0 190 178">
  <defs>
    <clipPath id="clip-path">
      <rect id="Rect치ngulo_413538" data-name="Rect치ngulo 413538" width="190" height="178" transform="translate(810.051 1109)" fill="#fff" stroke="#707070" stroke-width="1"/>
    </clipPath>
    <clipPath id="clip-path-2">
      <rect id="Rect치ngulo_413537" data-name="Rect치ngulo 413537" width="142.269" height="142.278" fill="#ffb74d"/>
    </clipPath>
  </defs>
  <g id="Enmascarar_grupo_1098775" data-name="Enmascarar grupo 1098775" transform="translate(-810.051 -1109)" clip-path="url(#clip-path)">
    <g id="Grupo_1124816" data-name="Grupo 1124816" transform="translate(827.051 1116)">
      <g id="Grupo_1124815" data-name="Grupo 1124815" transform="translate(4 9.536)" clip-path="url(#clip-path-2)">
        <path id="Trazado_896013" data-name="Trazado 896013" d="M95.455,97.314a2.372,2.372,0,0,0-2.372,2.372v28.454a2.372,2.372,0,0,0,4.743,0V99.686a2.372,2.372,0,0,0-2.372-2.372" transform="translate(11.248 11.76)" fill="#ffb74d"/>
        <path id="Trazado_896014" data-name="Trazado 896014" d="M102.823,38.08A11.856,11.856,0,1,0,114.68,49.935,11.856,11.856,0,0,0,102.823,38.08m0,18.969a7.1,7.1,0,0,1-2.372-13.791v4.306a2.372,2.372,0,0,0,4.743,0V43.258a7.1,7.1,0,0,1-2.372,13.791" transform="translate(10.993 4.602)" fill="#ffb74d"/>
        <path id="Trazado_896015" data-name="Trazado 896015" d="M89.108,34.872h26.083v2.372a2.371,2.371,0,0,0,4.742,0V34.872H122.3a2.371,2.371,0,1,0,0-4.742h-2.371V27.758a2.371,2.371,0,0,0-4.742,0v2.372H89.108a2.371,2.371,0,1,0,0,4.742" transform="translate(10.481 3.068)" fill="#ffb74d"/>
        <path id="Trazado_896016" data-name="Trazado 896016" d="M89.108,25.9h14.227a2.371,2.371,0,1,0,0-4.742H89.108a2.371,2.371,0,1,0,0,4.742" transform="translate(10.481 2.557)" fill="#ffb74d"/>
        <path id="Trazado_896017" data-name="Trazado 896017" d="M139.9,14.228h-9.485V2.372A2.372,2.372,0,0,0,128.044,0H113.816a2.372,2.372,0,0,0-2.371,2.372V14.228H30.825A11.869,11.869,0,0,0,18.97,26.083v33.2a2.371,2.371,0,0,0,2.371,2.371H33.2v4.742H18.97a7.114,7.114,0,0,0-6.678,4.742H2.372A2.372,2.372,0,0,0,0,73.507,11.87,11.87,0,0,0,11.856,85.362h.725c.2,1,.427,2,.712,2.984l.833,2.911a32.649,32.649,0,0,1,.277,16.85,37.26,37.26,0,0,0,.8,20.867l3.9,11.68a2.374,2.374,0,1,0,4.5-1.5L19.71,127.472a32.521,32.521,0,0,1-.7-18.208,37.364,37.364,0,0,0-.316-19.3l-.832-2.914A32.55,32.55,0,0,1,16.6,78.1v-4.6a2.371,2.371,0,0,1,2.372-2.372h4.742v4.742a2.371,2.371,0,1,0,4.742,0V71.135H59.593L47.822,88.789a2.371,2.371,0,0,0-.206,2.251l21.341,49.794a2.37,2.37,0,0,0,2.179,1.437,2.313,2.313,0,0,0,.935-.193,2.371,2.371,0,0,0,1.244-3.113L52.481,90.342l12.8-19.207h7.877L70.153,93.72a29.93,29.93,0,0,0,4.776,20.571A25.3,25.3,0,0,1,79,125.489l1.632,14.671a2.371,2.371,0,0,0,4.714-.521l-1.632-14.677a30.086,30.086,0,0,0-4.847-13.306,25.134,25.134,0,0,1-3.314-7.325h61.97V139.9a2.371,2.371,0,1,0,4.742,0V16.6a2.371,2.371,0,0,0-2.372-2.371M11.856,80.62a7.127,7.127,0,0,1-6.708-4.742h6.708V78.1c0,.838.03,1.68.087,2.517ZM116.187,4.742h9.485v9.485h-9.485ZM37.939,66.393V61.651h9.485a2.371,2.371,0,0,0,2.371-2.371v-16.6H73.507a2.371,2.371,0,0,0,0-4.742H47.424a2.371,2.371,0,0,0-2.372,2.371v16.6H23.713V42.682h4.742v7.113a2.371,2.371,0,1,0,4.742,0V40.31a2.371,2.371,0,0,0-2.372-2.371H23.713V26.083a7.113,7.113,0,0,1,7.113-7.113H78.249v4.742H56.908a2.371,2.371,0,1,0,0,4.742H80.62a2.371,2.371,0,0,0,2.372-2.372V18.97h54.537V71.135H105.337a2.371,2.371,0,0,0,0,4.742h32.192V80.62h-29.64a2.371,2.371,0,1,0,0,4.742h29.64V99.589H95.558l7.711-5.14a2.372,2.372,0,0,0,.906-2.808L98.994,77.829a17.677,17.677,0,0,0-7.761-9.115c-.365-.208-.757-.372-1.135-.555V40.31a2.371,2.371,0,0,0-2.372-2.371H82.992a2.371,2.371,0,1,0,0,4.742h2.371V66.656a17.562,17.562,0,0,0-2.866-.263Zm40.013,4.742H82.5a12.842,12.842,0,0,1,4.313.771,12.61,12.61,0,0,1,2.077.927A12.922,12.922,0,0,1,94.558,79.5l4.519,12.051L88.032,98.909,75.878,86.747ZM74.87,94.347l.225-1.684,6.914,6.926H74.732a25.223,25.223,0,0,1,.126-5.242Z" transform="translate(0 0)" fill="#ffb74d"/>
        <path id="Trazado_896018" data-name="Trazado 896018" d="M28.01,81.154a2.371,2.371,0,0,0,1.677-4.047l-2.372-2.372a2.371,2.371,0,0,0-3.352,3.354l2.371,2.371a2.371,2.371,0,0,0,1.677.695" transform="translate(2.815 8.951)" fill="#ffb74d"/>
        <path id="Trazado_896019" data-name="Trazado 896019" d="M32.244,86.993a2.371,2.371,0,1,0-4.742,0v2.372a2.371,2.371,0,0,0,4.742,0Z" transform="translate(3.323 10.226)" fill="#ffb74d"/>
        <path id="Trazado_896020" data-name="Trazado 896020" d="M28.456,95.891l-2.372,2.372a2.371,2.371,0,0,0,3.3,3.411c.02-.019.039-.039.058-.058l2.371-2.372a2.371,2.371,0,0,0-3.352-3.352" transform="translate(3.065 11.507)" fill="#ffb74d"/>
        <path id="Trazado_896021" data-name="Trazado 896021" d="M31.8,106.723l-2.372-2.372a2.371,2.371,0,0,0-3.352,3.354l2.372,2.371a2.371,2.371,0,0,0,3.352-3.352" transform="translate(3.071 12.53)" fill="#ffb74d"/>
        <path id="Trazado_896022" data-name="Trazado 896022" d="M34.1,118.47a2.372,2.372,0,0,0-2.372,2.372v4.742a2.372,2.372,0,0,0,4.743,0v-4.742A2.372,2.372,0,0,0,34.1,118.47" transform="translate(3.835 14.316)" fill="#ffb74d"/>
        <path id="Trazado_896023" data-name="Trazado 896023" d="M34.1,112.123a2.371,2.371,0,1,1-2.372,2.372,2.372,2.372,0,0,1,2.372-2.372" transform="translate(3.835 13.549)" fill="#ffb74d"/>
      </g>
    </g>
  </g>
</svg>
