<svg id="Grupo_1122491" data-name="Grupo 1122491" xmlns="http://www.w3.org/2000/svg" xmlns:xlink="http://www.w3.org/1999/xlink" width="62.693" height="62.693" viewBox="0 0 62.693 62.693">
  <defs>
    <clipPath id="clip-path">
      <rect id="Rectángulo_412579" data-name="Rectángulo 412579" width="62.693" height="62.693" fill="none"/>
    </clipPath>
  </defs>
  <g id="Grupo_1122490" data-name="Grupo 1122490" clip-path="url(#clip-path)">
    <path id="Trazado_892691" data-name="Trazado 892691" d="M58.337,19.345s6.067,1.012,9.1-1.011l.182.021-.182,1.962-9.07,2.194-.03-.132Z" transform="translate(-22.946 -7.211)" fill="#fcfcfc"/>
    <path id="Trazado_892692" data-name="Trazado 892692" d="M13.334,13.334s10.112,13.145,27.3,4.045v3.033l.03.132-16.21,3.913a5.581,5.581,0,0,1-5.854-4.53A2.014,2.014,0,0,0,16.64,18.39H13.334Z" transform="translate(-5.245 -5.245)" fill="#fcfcfc"/>
    <path id="Trazado_892693" data-name="Trazado 892693" d="M80.416,3.334l.981,10.84a7.228,7.228,0,0,0-4.854-.526l-3.205.769.182-1.962.829-9.121Z" transform="translate(-28.846 -1.311)" fill="#58dff5"/>
    <path id="Trazado_892694" data-name="Trazado 892694" d="M97.384,27.38V47.6a2.022,2.022,0,1,1-4.045,0V25.357a2.022,2.022,0,0,1,4.045,0Z" transform="translate(-36.713 -9.178)" fill="#474747"/>
    <path id="Trazado_892695" data-name="Trazado 892695" d="M52.114,60.115V64.16a7.563,7.563,0,0,1-3.367,6.289L46.583,71.9a14.184,14.184,0,0,1-7.857,2.376H11.667V64.16H13.69l1.679-7.574a9.906,9.906,0,0,1,2.265-4.53A5.664,5.664,0,0,1,21.779,50H42A10.112,10.112,0,0,1,52.114,60.115" transform="translate(-4.589 -19.668)" fill="#fcfcfc"/>
    <path id="Trazado_892696" data-name="Trazado 892696" d="M52.551,20.73a7.161,7.161,0,0,1,4.075,6.714V52.391a12.125,12.125,0,0,0,3.549,8.575l1.507,1.506v2.023a6.067,6.067,0,0,1-6.067,6.067H4.045a4.045,4.045,0,1,1,0-8.089H34.137A14.177,14.177,0,0,0,41.994,60.1l2.164-1.446a7.564,7.564,0,0,0,3.367-6.289V48.315A10.111,10.111,0,0,0,37.413,38.2H17.19a5.663,5.663,0,0,0-4.146,2.052,9.909,9.909,0,0,0-2.265,4.53L9.1,52.36H5.056L4.045,39.215V23.036a2.028,2.028,0,0,1,2.023-2.022H11.4a2.014,2.014,0,0,1,1.962,1.537,5.581,5.581,0,0,0,5.855,4.53l16.209-3.913,9.07-2.194L47.7,20.2A7.228,7.228,0,0,1,52.551,20.73Z" transform="translate(0 -7.868)" fill="#848484"/>
    <path id="Trazado_892697" data-name="Trazado 892697" d="M95.362,47.6V25.358a2.023,2.023,0,0,1,1.011-1.741,1.981,1.981,0,0,0-1.011-.281,2.027,2.027,0,0,0-2.023,2.022V47.6a2.008,2.008,0,0,0,3.034,1.741A2.026,2.026,0,0,1,95.362,47.6" transform="translate(-36.713 -9.179)" fill="#2c2c2c"/>
    <path id="Trazado_892698" data-name="Trazado 892698" d="M67.16,71.9l2.164-1.446a7.565,7.565,0,0,0,3.367-6.29V60.115A10.112,10.112,0,0,0,62.58,50H59.546A10.112,10.112,0,0,1,69.658,60.115V64.16a7.565,7.565,0,0,1-3.367,6.29L64.127,71.9a14.179,14.179,0,0,1-7.857,2.376H59.3A14.177,14.177,0,0,0,67.16,71.9" transform="translate(-22.133 -19.668)" fill="#474747"/>
    <path id="Trazado_892699" data-name="Trazado 892699" d="M3.033,94.051a4.045,4.045,0,0,1,4.045-4.045H4.045a4.045,4.045,0,1,0,0,8.089H7.078a4.04,4.04,0,0,1-4.045-4.034v-.01" transform="translate(0 -35.402)" fill="#474747"/>
    <path id="Trazado_892700" data-name="Trazado 892700" d="M9.7,23.691a2.029,2.029,0,0,1,2.023-2.023H8.689a2.028,2.028,0,0,0-2.022,2.023V39.869L7.678,53.015h3.034L9.7,39.869Z" transform="translate(-2.622 -8.523)" fill="#474747"/>
    <path id="Trazado_892701" data-name="Trazado 892701" d="M64.762,60.962A12.1,12.1,0,0,1,61.216,52.4V27.411a7.411,7.411,0,0,0-3.605-6.435c-.154-.089-.312-.173-.47-.247a7.231,7.231,0,0,0-4.854-.526l-3.205.769-9.07,2.194L23.8,27.08a5.582,5.582,0,0,1-5.854-4.531,2.014,2.014,0,0,0-1.962-1.537h-2.3a2.028,2.028,0,0,0-2.022,2.022v1.011h4.318a2.015,2.015,0,0,1,1.962,1.537,5.581,5.581,0,0,0,5.854,4.53L40.011,26.2l9.07-2.194.538-.172a10.118,10.118,0,0,1,5.065-.285l.246.05a3.979,3.979,0,0,1,3.251,3.76V52.4a12.105,12.105,0,0,0,3.547,8.562l1.509,1.509v2.023a6.068,6.068,0,0,1-6.067,6.067h3.042A6.058,6.058,0,0,0,66.271,64.5V62.471Z" transform="translate(-4.589 -7.868)" fill="#c1c1c1"/>
    <path id="Trazado_892702" data-name="Trazado 892702" d="M77.62,12.435A2.022,2.022,0,0,1,75.6,10.413a2.13,2.13,0,0,1,.012-.224l.762-6.855H74.349l-.829,9.121-.182,1.962,3.206-.769a7.226,7.226,0,0,1,4.853.526l-.158-1.739Z" transform="translate(-28.846 -1.311)" fill="#4fc3f2"/>
    <path id="Trazado_892703" data-name="Trazado 892703" d="M12.678,11.668a1.011,1.011,0,0,1,1.011,1.011v5.056H11.667V12.679a1.011,1.011,0,0,1,1.011-1.011" transform="translate(-4.589 -4.589)" fill="#474747"/>
    <path id="Trazado_892704" data-name="Trazado 892704" d="M58.693,20.311V14.345a1.011,1.011,0,0,0-2.023,0V20.8l1.042-.252Z" transform="translate(-22.29 -5.245)" fill="#474747"/>
    <path id="Trazado_892705" data-name="Trazado 892705" d="M79.349,0a1.011,1.011,0,0,1,1.011,1.011V2.023H78.338V1.011A1.011,1.011,0,0,1,79.349,0" transform="translate(-30.813)" fill="#474747"/>
    <path id="Trazado_892706" data-name="Trazado 892706" d="M101.017,30.358h-1.011V28.335h1.011a1.011,1.011,0,1,1,0,2.023" transform="translate(-39.335 -11.145)" fill="#2c2c2c"/>
    <path id="Trazado_892707" data-name="Trazado 892707" d="M11.012,81.428,10,73.338h2.023Z" transform="translate(-3.933 -28.846)" fill="#d9d9d9"/>
    <path id="Trazado_892708" data-name="Trazado 892708" d="M48.983,16.368h-.229a.506.506,0,0,0-.28.085c-2.831,1.887-8.678.942-8.738.933a.515.515,0,0,0-.319.052c-16.6,8.786-26.263-3.384-26.661-3.9a.506.506,0,0,0-.4-.2H11.339a.505.505,0,1,0,0,1.011h.774a21.489,21.489,0,0,0,15.8,7.232,25.377,25.377,0,0,0,11.831-3.167c1.028.15,6.213.8,9.15-1.025l.045-.492Z" transform="translate(-4.261 -5.245)" fill="#58dff5"/>
    <path id="Trazado_892709" data-name="Trazado 892709" d="M11.011,95.006h18.2a1.011,1.011,0,0,1,0,2.023h-18.2a1.011,1.011,0,0,1,0-2.023" transform="translate(-3.933 -37.369)" fill="#6e6e6e"/>
    <path id="Trazado_892710" data-name="Trazado 892710" d="M47.68,95.006a1.011,1.011,0,1,1-1.011,1.011,1.011,1.011,0,0,1,1.011-1.011" transform="translate(-18.356 -37.369)" fill="#6e6e6e"/>
    <path id="Trazado_892711" data-name="Trazado 892711" d="M54.347,95.006h18.2a1.011,1.011,0,0,1,0,2.023h-18.2a1.011,1.011,0,1,1,0-2.023" transform="translate(-20.979 -37.369)" fill="#6e6e6e"/>
    <path id="Trazado_892712" data-name="Trazado 892712" d="M81.672,11.723V7.678a1.011,1.011,0,0,1,2.023,0v4.045a1.011,1.011,0,0,1-2.023,0" transform="translate(-32.124 -2.622)" fill="#bdfbff"/>
    <path id="Trazado_892713" data-name="Trazado 892713" d="M96.673,51.837V37.68a1.011,1.011,0,0,1,2.023,0V51.837a1.011,1.011,0,1,1-2.023,0" transform="translate(-38.024 -14.423)" fill="#595959"/>
    <path id="Trazado_892714" data-name="Trazado 892714" d="M97.683,30h0a1.011,1.011,0,0,1,1.011,1.011v1.011a1.011,1.011,0,0,1-2.023,0V31.013A1.011,1.011,0,0,1,97.683,30" transform="translate(-38.024 -11.801)" fill="#595959"/>
    <path id="Trazado_892715" data-name="Trazado 892715" d="M88.339,60.882V42.68a1.011,1.011,0,1,1,2.023,0v18.2a1.011,1.011,0,1,1-2.023,0" transform="translate(-34.746 -16.39)" fill="#d9d9d9"/>
    <path id="Trazado_892716" data-name="Trazado 892716" d="M89.35,35h0a1.011,1.011,0,0,1,1.011,1.011v1.011a1.011,1.011,0,0,1-2.023,0V36.013A1.011,1.011,0,0,1,89.35,35" transform="translate(-34.746 -13.767)" fill="#d9d9d9"/>
    <path id="Trazado_892717" data-name="Trazado 892717" d="M83,28.074a1.225,1.225,0,1,1,.231,1.411A1.038,1.038,0,0,1,83,28.074" transform="translate(-32.572 -10.967)" fill="#f6fafd"/>
    <path id="Trazado_892718" data-name="Trazado 892718" d="M81.653,4.639a.519.519,0,0,1,.706.115.519.519,0,0,1,.115.706.519.519,0,0,1-.706-.115.519.519,0,0,1-.115-.706" transform="translate(-32.079 -1.787)" fill="#f6fafd"/>
    <path id="Trazado_892719" data-name="Trazado 892719" d="M84.349,31.669h0a1.011,1.011,0,0,1,1.011,1.011v1.011a1.011,1.011,0,0,1-2.023,0V32.68a1.011,1.011,0,0,1,1.011-1.011" transform="translate(-32.779 -12.456)" fill="#d9d9d9"/>
    <path id="Trazado_892720" data-name="Trazado 892720" d="M83.339,45.414V39.347a1.011,1.011,0,0,1,2.023,0v6.067a1.011,1.011,0,0,1-2.023,0" transform="translate(-32.78 -15.079)" fill="#d9d9d9"/>
  </g>
</svg>
