<svg xmlns="http://www.w3.org/2000/svg" xmlns:xlink="http://www.w3.org/1999/xlink" width="295" height="246" viewBox="0 0 295 246">
  <defs>
    <clipPath id="clip-path">
      <path id="Trazado_891318" data-name="Trazado 891318" d="M0,0H295V246H0Z" transform="translate(600.051 3568)" fill="#faf9fd"/>
    </clipPath>
    <clipPath id="clip-path-2">
      <rect id="Rectángulo_412036" data-name="Rectángulo 412036" width="289.598" height="208.891" fill="none"/>
    </clipPath>
    <clipPath id="clip-path-4">
      <rect id="Rectángulo_412021" data-name="Rectángulo 412021" width="287.91" height="87.76" fill="none"/>
    </clipPath>
    <clipPath id="clip-path-5">
      <rect id="Rectángulo_412017" data-name="Rectángulo 412017" width="120.577" height="17.854" fill="none"/>
    </clipPath>
    <clipPath id="clip-path-6">
      <rect id="Rectángulo_412018" data-name="Rectángulo 412018" width="153.88" height="43.719" fill="none"/>
    </clipPath>
    <clipPath id="clip-path-7">
      <rect id="Rectángulo_412019" data-name="Rectángulo 412019" width="221.675" height="18.95" fill="none"/>
    </clipPath>
    <clipPath id="clip-path-8">
      <rect id="Rectángulo_412020" data-name="Rectángulo 412020" width="63.777" height="15.117" fill="none"/>
    </clipPath>
  </defs>
  <g id="Enmascarar_grupo_1098746" data-name="Enmascarar grupo 1098746" transform="translate(-600.051 -3568)" clip-path="url(#clip-path)">
    <g id="Grupo_1121769" data-name="Grupo 1121769" transform="translate(8 15.727)">
      <g id="Grupo_1121768" data-name="Grupo 1121768" transform="translate(580 3577.233)">
        <g id="Grupo_1121767" data-name="Grupo 1121767" clip-path="url(#clip-path-2)">
          <g id="Grupo_1121766" data-name="Grupo 1121766">
            <g id="Grupo_1121765" data-name="Grupo 1121765" clip-path="url(#clip-path-2)">
              <path id="Trazado_891123" data-name="Trazado 891123" d="M142.929,188.481c-7.187-2-14.854-2.071-22.356-1.889-8.732.212-17.583.723-26.1-1.2C74.354,180.84,65.11,158.863,58.988,141.11c-6.533-18.948-9.359-39.4-6.236-59.205S65.217,43.027,80.273,29.8C98.325,13.936,122.707,7.615,146.361,3.367c19.591-3.52,40.356-5.864,58.931,1.29,16.959,6.531,30.544,20.892,36.9,37.918s5.6,36.433-1.292,53.251c-4.909,11.98-12.981,24.12-10.1,36.74,2.652,11.62,13.988,19.618,17.137,31.114,3.381,12.346-3.9,25.623-14.252,33.158-8.558,6.23-20.353,9.284-30.753,11.076-9.373,1.614-19.264,1.436-28.088-2.113-10.133-4.075-18.211-12.284-28.415-16.174q-1.728-.658-3.5-1.147" transform="translate(-4.218 0)" fill="#ede7f6"/>
              <path id="Trazado_891124" data-name="Trazado 891124" d="M258.729,138.026c-1.457-5.319-2.173-11.3.518-16.11,3.3-5.908,11.267-8.241,17.7-6.142s11.223,7.864,13.426,14.265c3.087,8.976,4.123,33.017-8.858,35.367-12.709,2.3-20.321-18.371-22.786-27.374" transform="translate(-21.092 -9.423)" fill="#ede7f6"/>
              <g id="Grupo_1121764" data-name="Grupo 1121764" transform="translate(0 94.443)" opacity="0.2" style="mix-blend-mode: multiply;isolation: isolate">
                <g id="Grupo_1121763" data-name="Grupo 1121763">
                  <g id="Grupo_1121762" data-name="Grupo 1121762" clip-path="url(#clip-path-4)">
                    <g id="Grupo_1121752" data-name="Grupo 1121752" opacity="0.5" style="mix-blend-mode: multiply;isolation: isolate">
                      <g id="Grupo_1121751" data-name="Grupo 1121751">
                        <g id="Grupo_1121750" data-name="Grupo 1121750" clip-path="url(#clip-path-5)">
                          <path id="Trazado_891125" data-name="Trazado 891125" d="M78.05,102.871,0,103.846v16.878l120.577-9.891Z" transform="translate(0 -102.871)" fill="#c1c1c1"/>
                        </g>
                      </g>
                    </g>
                    <g id="Grupo_1121755" data-name="Grupo 1121755" transform="translate(0 32.047)" opacity="0.5" style="mix-blend-mode: multiply;isolation: isolate">
                      <g id="Grupo_1121754" data-name="Grupo 1121754">
                        <g id="Grupo_1121753" data-name="Grupo 1121753" clip-path="url(#clip-path-6)">
                          <path id="Trazado_891126" data-name="Trazado 891126" d="M150.877,137.777,0,145.682V181.5l153.88-22.782Z" transform="translate(0 -137.777)" fill="#c1c1c1"/>
                        </g>
                      </g>
                    </g>
                    <g id="Grupo_1121758" data-name="Grupo 1121758" transform="translate(1.388 68.81)" opacity="0.5" style="mix-blend-mode: multiply;isolation: isolate">
                      <g id="Grupo_1121757" data-name="Grupo 1121757">
                        <g id="Grupo_1121756" data-name="Grupo 1121756" clip-path="url(#clip-path-7)">
                          <path id="Trazado_891127" data-name="Trazado 891127" d="M140.606,177.821,1.512,196.772H180.5l42.691-15.763Z" transform="translate(-1.512 -177.821)" fill="#c1c1c1"/>
                        </g>
                      </g>
                    </g>
                    <g id="Grupo_1121761" data-name="Grupo 1121761" transform="translate(224.133 72.643)" opacity="0.5" style="mix-blend-mode: multiply;isolation: isolate">
                      <g id="Grupo_1121760" data-name="Grupo 1121760">
                        <g id="Grupo_1121759" data-name="Grupo 1121759" clip-path="url(#clip-path-8)">
                          <path id="Trazado_891128" data-name="Trazado 891128" d="M277.321,186.743l-33.185,10.371h55.927L307.913,182Z" transform="translate(-244.135 -181.997)" fill="#c1c1c1"/>
                        </g>
                      </g>
                    </g>
                  </g>
                </g>
              </g>
              <path id="Trazado_891129" data-name="Trazado 891129" d="M90.4,62.537H88.38a.891.891,0,0,0,.167-.412c.14-.907-1.612-4.053-2.48-6.19a5.764,5.764,0,0,0-2.026-2.88,2.247,2.247,0,0,0-.6-.579,5.265,5.265,0,0,0,.113-3.35c-.239-.573-.276-1.288-.047-3.12a3.487,3.487,0,0,0-.83-3.149c-.4-.343-1.546-.716-1.746-1.46s-1.574-1.346-2.29-1.288a5.028,5.028,0,0,0-2.806,1.4c-1.373,1.087-1.975.8-2.833,2.69s-.058,2.2-.172,3.234-.8,1.431-.487,3.607a7.152,7.152,0,0,0,.549,1.838c-.78.33-1.292.555-1.292.555a3.881,3.881,0,0,0-.343.338H46.276a.686.686,0,0,0-.685.686v4.948a.685.685,0,0,0,.685.685h.536V62h-.893v-.248a.138.138,0,0,0-.276,0V62h-.154a.158.158,0,0,0,0,.316h.154v.224H39.895l-1.946,1.892V50.042h8.918A.238.238,0,0,0,47.1,49.8V48.217c.45-.024.786-.116.786-.225V45.06c0-.11-.335-.2-.786-.226v-.91c.264-.027.454-.1.454-.177,0-.1-.309-.188-.691-.188s-.692.084-.692.188c0,.082.189.151.455.177v.91c-.452.025-.788.116-.788.226v2.932c0,.109.337.2.788.225v1.35H42.1V48.215c.432-.028.749-.117.75-.223V45.06c0-.107-.318-.2-.75-.223V43.826c.264-.027.454-.1.454-.177,0-.1-.309-.188-.692-.188s-.691.084-.691.188c0,.082.189.151.454.177v1.006c-.469.021-.823.115-.823.228v2.93c0,.114.353.207.823.229v1.348H37.948V41c.265-.027.454-.1.454-.177,0-.1-.309-.188-.691-.188s-.692.084-.692.188c0,.082.189.151.454.177V64.891l-7.579,7.37V74H41.646v32.938h1.617l1.222-1.222v.086H67.644l-.365.454v.681h12.4v-.681l-.364-.454h9.556v-.086l1.176,1.176c.046.046,1.664.045,1.664.045l-.046-.044V74H100.4V72.261Zm-42.868-17.3.05-.01-.05.01m.067-.014.058-.014-.058.014m.062-.015c.04-.012.078-.024.109-.037a1.08,1.08,0,0,1-.109.037m-1.692-.037a1.14,1.14,0,0,0,.108.037,1.14,1.14,0,0,1-.108-.037m.116.039.053.013-.053-.013m.073.017.046.009-.046-.009m-3.833.036c.055-.007.106-.015.155-.024-.049.009-.1.017-.155.024m.158-.025.067-.013-.067.013m.074-.015.059-.015-.059.015m.064-.017a.7.7,0,0,0,.151-.056.7.7,0,0,1-.151.056m-1.64-.017a1.255,1.255,0,0,0,.121.033,1.255,1.255,0,0,1-.121-.033m.135.037.053.01-.053-.01m30.2,15.8c.017.047.034.094.05.14v1.37H69.973c.4-.551.837-1.177,1.234-1.765.038.084.073.169.1.254M59.894,58.951a65.53,65.53,0,0,1,8.547.062c-.377.875-1.352,3.211-1.44,3.454l-5.409.071H57.339a6.511,6.511,0,0,1,.425-1.818,2.9,2.9,0,0,1,2.13-1.768M48.43,62.537h-.773V60.093h.773Zm-2.511-.224h.894v.224h-.894ZM68.566,74l-.686,1.2a2.67,2.67,0,0,0,2.32,3.991h.5l.328,11.643H43.263V74ZM45.958,104.243l1.366-1.366-1.492-.036-2.57,2.514V96.282h26c-.738,1.394-1.273,2.185-1.273,2.185s-.637.928,2.319,0c.33-.1.635-.208.921-.316l.012.411a.907.907,0,0,0,1.8,0l.037-1.283a12.327,12.327,0,0,0,1.431-1H74.7c.133,1.736.241,3.089.27,3.246a8.7,8.7,0,0,0-.689,3.905H69.552l-.652.81Zm31.446-.81h-.689a7.705,7.705,0,0,0,.554-3.366,1.8,1.8,0,0,0-.322-.683q.139-1.6.283-3.1h2.3q.142,1.505.284,3.1a1.79,1.79,0,0,0-.323.683,8.448,8.448,0,0,0,.9,4.175H78.056Zm10.116-.592-1.491.036,1.366,1.366h-4.99c.018-.125.034-.258.047-.4a8.8,8.8,0,0,0-.662-4.314c.028-.157.137-1.51.271-3.246h1.563l.064,2.28a.907.907,0,0,0,1.8,0l.064-2.28h4.495v9.028Z" transform="translate(-2.449 -3.286)" fill="#8aa8bd"/>
              <path id="Trazado_891130" data-name="Trazado 891130" d="M259.553,154.07h-.079a1.36,1.36,0,0,1-1.36-1.36v-49h2.8v49a1.36,1.36,0,0,1-1.36,1.36" transform="translate(-21.147 -8.497)" fill="#f7eae2"/>
              <path id="Trazado_891131" data-name="Trazado 891131" d="M267.11,87.924c-.279-2.112,4.324-15.571,3.487-20.175a44.727,44.727,0,0,1-4.642-2.51c-2.612-1.6-3.309-2.019-3.518-2.788a3.7,3.7,0,0,1,0-1.616h-6.984a3.7,3.7,0,0,1,0,1.616c-.21.769-.907,1.184-3.518,2.788a44.726,44.726,0,0,1-4.642,2.51c-.837,4.6,3.766,18.063,3.487,20.175s-6.834,12.967-4.6,21.32a23.478,23.478,0,0,0,10.8,2.74c1.418.062,2.326.006,2.326.006,2.1.024,7.922-.164,12.411-2.746,2.232-8.354-4.323-19.209-4.6-21.32" transform="translate(-20.132 -4.984)" fill="#e8d7c8"/>
              <path id="Trazado_891132" data-name="Trazado 891132" d="M263.306,60.781c0,.334-1.563.605-3.492.605s-3.491-.271-3.491-.605,1.563-.606,3.491-.606,3.492.272,3.492.606" transform="translate(-21.001 -4.93)" fill="#f6e1ce"/>
              <path id="Trazado_891133" data-name="Trazado 891133" d="M266.022,160.352a1.374,1.374,0,0,1-.525.819,1.206,1.206,0,0,1-1.047.185c-.747-.179-.9-1.731-1.038-3.1a16.1,16.1,0,0,0-.244-1.806,3.541,3.541,0,0,0-2.627-2.5l-.2-.041-.145.142a1.389,1.389,0,0,1-.138.114,3.7,3.7,0,0,1-1.069.423c-.027,0-.054,0-.083,0a3.3,3.3,0,0,1-1.129-.461.9.9,0,0,1-.09-.076l-.145-.146-.2.045a3.534,3.534,0,0,0-2.626,2.5,16.1,16.1,0,0,0-.246,1.8c-.136,1.369-.29,2.92-1.037,3.1a1.207,1.207,0,0,1-1.047-.185,1.374,1.374,0,0,1-.526-.819h-.741a2,2,0,0,0,.811,1.379,1.88,1.88,0,0,0,1.147.38,2.266,2.266,0,0,0,.536-.066c1.257-.3,1.429-2.04,1.6-3.721a15.047,15.047,0,0,1,.232-1.724,2.717,2.717,0,0,1,1.888-1.9,2.977,2.977,0,0,0,1.694.61,3.152,3.152,0,0,0,1.536-.6,2.717,2.717,0,0,1,1.889,1.9,15.494,15.494,0,0,1,.233,1.724c.166,1.682.34,3.421,1.6,3.722a2.3,2.3,0,0,0,.536.065,1.9,1.9,0,0,0,1.148-.379,2,2,0,0,0,.81-1.38Z" transform="translate(-20.574 -12.609)" fill="#fff"/>
              <rect id="Rectángulo_412022" data-name="Rectángulo 412022" width="0.711" height="6.417" transform="translate(238.009 142.336)" fill="#fff"/>
              <path id="Trazado_891134" data-name="Trazado 891134" d="M260.557,161.938a1.009,1.009,0,1,1-1.01-1.01,1.01,1.01,0,0,1,1.01,1.01" transform="translate(-21.182 -13.185)" fill="#fff"/>
              <path id="Trazado_891135" data-name="Trazado 891135" d="M252.532,160.444a1.009,1.009,0,1,1-1.01-1.01,1.01,1.01,0,0,1,1.01,1.01" transform="translate(-20.525 -13.063)" fill="#fff"/>
              <path id="Trazado_891136" data-name="Trazado 891136" d="M268.583,160.444a1.009,1.009,0,1,1-1.01-1.01,1.01,1.01,0,0,1,1.01,1.01" transform="translate(-21.84 -13.063)" fill="#fff"/>
              <path id="Trazado_891137" data-name="Trazado 891137" d="M177.73,111.709h-.055a.937.937,0,0,1-.936-.936V77.056h1.927v33.717a.937.937,0,0,1-.936.936" transform="translate(-14.48 -6.313)" fill="#9dbac6"/>
              <path id="Trazado_891138" data-name="Trazado 891138" d="M182.93,66.19c-.192-1.453,2.975-10.715,2.4-13.883a30.745,30.745,0,0,1-3.193-1.727c-1.8-1.1-2.278-1.389-2.422-1.919a2.55,2.55,0,0,1,0-1.113h-4.806a2.534,2.534,0,0,1,0,1.113c-.144.53-.623.814-2.421,1.919a30.8,30.8,0,0,1-3.194,1.727c-.576,3.168,2.592,12.43,2.4,13.883s-4.7,8.923-3.167,14.672a16.165,16.165,0,0,0,7.429,1.887c.977.042,1.6,0,1.6,0a18.027,18.027,0,0,0,8.541-1.89c1.536-5.749-2.975-13.218-3.166-14.672" transform="translate(-13.781 -3.896)" fill="#93b3c9"/>
              <path id="Trazado_891139" data-name="Trazado 891139" d="M180.312,47.512c0,.23-1.076.417-2.4.417s-2.4-.186-2.4-.417,1.075-.417,2.4-.417,2.4.186,2.4.417" transform="translate(-14.379 -3.859)" fill="#9dbac6"/>
              <path id="Trazado_891140" data-name="Trazado 891140" d="M182.182,116.033a.939.939,0,0,1-.362.563.827.827,0,0,1-.72.128c-.514-.124-.621-1.191-.713-2.133a11.158,11.158,0,0,0-.17-1.242,2.433,2.433,0,0,0-1.807-1.72l-.14-.029-.1.1a.935.935,0,0,1-.1.078,2.53,2.53,0,0,1-.735.292l-.056,0a2.286,2.286,0,0,1-.778-.318.57.57,0,0,1-.062-.053l-.1-.1-.141.03a2.436,2.436,0,0,0-1.807,1.72,10.942,10.942,0,0,0-.169,1.243c-.094.941-.2,2.009-.713,2.132a.832.832,0,0,1-.722-.128.943.943,0,0,1-.361-.563h-.51a1.375,1.375,0,0,0,.557.949,1.3,1.3,0,0,0,.79.261,1.6,1.6,0,0,0,.369-.044c.865-.207.984-1.4,1.1-2.561a10.37,10.37,0,0,1,.16-1.186,1.87,1.87,0,0,1,1.3-1.311,2.062,2.062,0,0,0,1.166.42,2.172,2.172,0,0,0,1.057-.416,1.865,1.865,0,0,1,1.3,1.31,10.621,10.621,0,0,1,.161,1.187c.115,1.157.233,2.353,1.1,2.56a1.555,1.555,0,0,0,.369.045,1.294,1.294,0,0,0,.789-.262,1.375,1.375,0,0,0,.558-.948Z" transform="translate(-14.086 -9.143)" fill="#9dbac6"/>
              <rect id="Rectángulo_412023" data-name="Rectángulo 412023" width="0.489" height="4.417" transform="translate(162.978 103.168)" fill="#9dbac6"/>
              <path id="Trazado_891141" data-name="Trazado 891141" d="M178.421,117.124a.695.695,0,1,1-.694-.695.694.694,0,0,1,.694.695" transform="translate(-14.504 -9.539)" fill="#9dbac6"/>
              <path id="Trazado_891142" data-name="Trazado 891142" d="M172.9,116.095a.695.695,0,1,1-.695-.695.7.7,0,0,1,.695.695" transform="translate(-14.052 -9.455)" fill="#9dbac6"/>
              <path id="Trazado_891143" data-name="Trazado 891143" d="M183.943,116.095a.695.695,0,1,1-.695-.695.7.7,0,0,1,.695.695" transform="translate(-14.957 -9.455)" fill="#9dbac6"/>
              <path id="Trazado_891144" data-name="Trazado 891144" d="M110.292,79.086a.7.7,0,0,1-.734-.694V53.379h1.429V78.392a.694.694,0,0,1-.694.694" transform="translate(-8.976 -4.373)" fill="#8aa8bd"/>
              <path id="Trazado_891145" data-name="Trazado 891145" d="M114.15,45.318c-.142-1.078,2.207-7.949,1.78-10.3a22.8,22.8,0,0,1-2.37-1.282c-1.333-.819-1.689-1.03-1.8-1.423a1.886,1.886,0,0,1,0-.825H108.2a1.87,1.87,0,0,1,0,.825c-.106.393-.463.6-1.8,1.423a22.8,22.8,0,0,1-2.37,1.282c-.427,2.35,1.922,9.221,1.78,10.3s-3.489,6.619-2.35,10.884a11.972,11.972,0,0,0,5.512,1.4c.724.031,1.188,0,1.188,0a13.382,13.382,0,0,0,6.337-1.4c1.138-4.264-2.208-9.806-2.35-10.884" transform="translate(-8.458 -2.58)" fill="#8aa8bd"/>
              <path id="Trazado_891146" data-name="Trazado 891146" d="M112.209,31.461c0,.171-.8.308-1.783.308s-1.783-.138-1.783-.308.8-.309,1.783-.309,1.783.139,1.783.309" transform="translate(-8.901 -2.552)" fill="#c3dadd"/>
              <path id="Trazado_891147" data-name="Trazado 891147" d="M113.6,82.293a.7.7,0,0,1-.268.418.616.616,0,0,1-.535.095c-.381-.092-.46-.883-.529-1.582a8.017,8.017,0,0,0-.126-.922,1.806,1.806,0,0,0-1.34-1.276l-.1-.022-.074.073s-.026.024-.07.058a1.894,1.894,0,0,1-.546.216,1.652,1.652,0,0,1-.619-.237c-.016-.013-.031-.025-.046-.039L109.265,79l-.1.023a1.8,1.8,0,0,0-1.34,1.275,8.043,8.043,0,0,0-.126.922c-.069.7-.148,1.491-.53,1.582a.618.618,0,0,1-.534-.094.706.706,0,0,1-.268-.419h-.379a1.024,1.024,0,0,0,.414.7.96.96,0,0,0,.586.194,1.2,1.2,0,0,0,.274-.033c.642-.154.73-1.041.815-1.9a8.023,8.023,0,0,1,.118-.88,1.388,1.388,0,0,1,.964-.972,1.526,1.526,0,0,0,.865.311,1.614,1.614,0,0,0,.784-.308,1.385,1.385,0,0,1,.965.972,7.76,7.76,0,0,1,.118.88c.085.858.174,1.746.815,1.9a1.154,1.154,0,0,0,.274.034.968.968,0,0,0,.586-.194,1.026,1.026,0,0,0,.414-.7Z" transform="translate(-8.683 -6.473)" fill="#c3dadd"/>
              <rect id="Rectángulo_412024" data-name="Rectángulo 412024" width="0.363" height="3.276" transform="translate(101.115 73.06)" fill="#c3dadd"/>
              <path id="Trazado_891148" data-name="Trazado 891148" d="M110.8,83.1a.515.515,0,1,1-.515-.515.515.515,0,0,1,.515.515" transform="translate(-8.994 -6.766)" fill="#c3dadd"/>
              <path id="Trazado_891149" data-name="Trazado 891149" d="M106.709,82.339a.516.516,0,1,1-.515-.516.515.515,0,0,1,.515.516" transform="translate(-8.658 -6.704)" fill="#c3dadd"/>
              <path id="Trazado_891150" data-name="Trazado 891150" d="M114.9,82.339a.515.515,0,1,1-.515-.516.515.515,0,0,1,.515.516" transform="translate(-9.33 -6.704)" fill="#c3dadd"/>
              <path id="Trazado_891151" data-name="Trazado 891151" d="M176.5,104.656c-2.655-6.514-11.359-9.371-14.165-10.592-.01,0-6.233-6.056-6.233-6.056h-3.011a1.329,1.329,0,0,0,.25-.615c.207-1.353-2.4-6.047-3.7-9.235-1.371-3.373-3.023-4.3-3.023-4.3a3.367,3.367,0,0,0-.89-.863c.752-2.659.483-4.248.17-5-.357-.854-.412-1.922-.071-4.654s-.64-4.185-1.238-4.7-2.306-1.068-2.6-2.178-2.348-2.007-3.416-1.922-2.135.469-4.185,2.092-2.946,1.2-4.227,4.014-.085,3.288-.256,4.825-1.2,2.135-.726,5.381a10.614,10.614,0,0,0,.82,2.742c-1.165.492-1.928.828-1.928.828a6.093,6.093,0,0,0-.512.5H90.273a1.022,1.022,0,0,0-1.022,1.022V83.34a1.021,1.021,0,0,0,1.022,1.022h.8V87.2H89.741v-.368a.206.206,0,1,0-.412,0V87.2H89.1a.236.236,0,0,0,0,.473h.23v.334H80.753l-2.9,2.823V69.367h13.3a.355.355,0,0,0,.354-.355V66.644c.672-.037,1.172-.173,1.173-.336V61.933c0-.163-.5-.3-1.173-.337V60.239c.395-.039.678-.142.678-.263,0-.156-.463-.282-1.033-.282s-1.032.126-1.032.282c0,.121.283.225.678.264V61.6c-.673.037-1.175.173-1.175.337v4.375c0,.163.5.3,1.175.336v2.013H84.043V66.64c.644-.04,1.118-.174,1.119-.332V61.933c0-.16-.474-.293-1.119-.333V60.093c.4-.039.678-.142.678-.264,0-.155-.462-.281-1.032-.281s-1.032.126-1.032.281c0,.122.282.225.677.264v1.5c-.7.031-1.227.172-1.227.34v4.373c0,.169.527.309,1.227.341v2.011H77.85V55.872c.395-.039.678-.142.678-.263,0-.156-.462-.282-1.032-.282s-1.032.126-1.032.282c0,.121.283.224.678.263V91.521L65.834,102.516v2.594H83.366v49.139h2.412l1.824-1.822v.127h34.551l-.545.678v1.016h18.5v-1.016l-.545-.678h14.257v-.127l1.755,1.754v.067h2.481l-.068-.066V105.109h13.033v-2.594l-1.116-1.084c.193.033.331.06.4.079,1.073.274,1.85,4.028,1.688,10.785s-2.581,14.41-.527,19.228,4.875,8.679,7.165,9.966c-5.109-14.476.521-30.32-2.134-36.834M91.941,62.228l.048-.006-.048.006m.1-.015.066-.011-.066.011m.1-.017.075-.016-.075.016m.1-.021.086-.021-.086.021m.091-.023A1.31,1.31,0,0,0,92.5,62.1a1.31,1.31,0,0,1-.163.054M92.5,62.1l.06-.028-.06.028m-2.748-.028a.532.532,0,0,0,.056.027.532.532,0,0,1-.056-.027m.061.028a1.309,1.309,0,0,0,.161.054,1.309,1.309,0,0,1-.161-.054m.173.057.08.02-.08-.02m.109.027.068.014-.068-.014m.111.022.06.01-.06-.01m-5.946.045.066-.008-.066.008m.117-.013c.082-.011.16-.023.231-.036q-.109.019-.231.036m.236-.037.1-.02-.1.02m.11-.023.088-.022-.088.022m.1-.024a1.108,1.108,0,0,0,.224-.084,1.108,1.108,0,0,1-.224.084m.229-.087a.447.447,0,0,0,.043-.026.447.447,0,0,1-.043.026m-2.811.006.047.022-.047-.022m.062.028.063.024L82.3,62.1m.073.027a1.847,1.847,0,0,0,.181.05,1.847,1.847,0,0,1-.181-.05m.2.054.079.017-.079-.017m.125.025.061.01-.061-.01m.123.019.048.006-.048-.006m66.4,24.523c.042.053.084.1.128.155-.118.132-.235.266-.345.4-.028.037-.054.074-.082.112a6.285,6.285,0,0,0-.412.589h-.21V85.418a15.084,15.084,0,0,0,.922,1.329m-21.591-.992c.026.07.05.14.075.209v2.045h-2.073c.6-.823,1.249-1.755,1.842-2.633.056.125.108.252.156.379m16.9,31.294c.073-.336.4-1.212.808-2.3l.435,15.484h-1.054c.444-.468.72-.813.72-.813s-1.116-11.417-.909-12.368M110.59,82.658a97.691,97.691,0,0,1,12.751.093c-.562,1.3-2.016,4.79-2.148,5.153l-8.07.1h-6.345a9.722,9.722,0,0,1,.634-2.712,4.328,4.328,0,0,1,3.177-2.639m-17.1,5.351H92.334V84.362h1.153Zm-3.747-.334h1.334v.334H89.741Zm33.787,17.435-1.024,1.8a3.984,3.984,0,0,0,3.462,5.954h.748l.488,17.372H85.779V105.109ZM89.8,150.23l2.039-2.038-2.224-.054-3.834,3.751V138.354h38.8c-1.1,2.078-1.9,3.259-1.9,3.259s-.952,1.384,3.459,0c.492-.154.947-.311,1.374-.474l.017.615a1.353,1.353,0,0,0,2.679,0l.053-1.914a18.383,18.383,0,0,0,2.136-1.486h.281c.2,2.589.361,4.607.4,4.84a13.021,13.021,0,0,0-1.027,5.829H125l-.973,1.207Zm46.915-1.207h-1.027a11.512,11.512,0,0,0,.825-5.021,2.653,2.653,0,0,0-.482-1.019q.209-2.382.422-4.629h3.434q.211,2.245.422,4.629a2.644,2.644,0,0,0-.483,1.019c-.223.744.14,3.792,1.339,6.228h-3.478Zm15.092-.885-2.224.054,2.038,2.038h-7.444c.027-.186.051-.386.07-.6a13.142,13.142,0,0,0-.987-6.437c.041-.233.2-2.251.4-4.84h2.333l.1,3.4a1.354,1.354,0,0,0,2.68,0l.1-3.4h6.707v13.468Zm3.766-17.907h-6.479l.488-17.372H150a3.983,3.983,0,0,0,3.461-5.954l-1.023-1.8h3.132Z" transform="translate(-5.394 -4.469)" fill="#93b3c9"/>
              <path id="Trazado_891152" data-name="Trazado 891152" d="M127.429,73.976a.181.181,0,0,0-.363,0v2.537h.363Z" transform="translate(-10.411 -6.046)" fill="#93b3c9"/>
              <path id="Trazado_891153" data-name="Trazado 891153" d="M231.108,125.295H201.4a4.923,4.923,0,0,1-4.279-7.359l6.422-11.278h25.424l6.422,11.278a4.923,4.923,0,0,1-4.278,7.359" transform="translate(-16.097 -8.738)" fill="#fff7f0"/>
              <path id="Trazado_891154" data-name="Trazado 891154" d="M216.9,73.494a12.728,12.728,0,0,0-12.728,12.728V103.94h25.457V86.222A12.729,12.729,0,0,0,216.9,73.494" transform="translate(-16.728 -6.021)" fill="#fff"/>
              <path id="Trazado_891155" data-name="Trazado 891155" d="M205.5,164.112a1.58,1.58,0,0,1-1.656-1.437l-1-35.717h5.317l-1,35.717a1.579,1.579,0,0,1-1.656,1.437" transform="translate(-16.619 -10.402)" fill="#f7eae2"/>
              <path id="Trazado_891156" data-name="Trazado 891156" d="M230.5,164.112a1.579,1.579,0,0,1-1.656-1.437l-1-35.717h5.317l-1,35.717a1.579,1.579,0,0,1-1.656,1.437" transform="translate(-18.667 -10.402)" fill="#f7eae2"/>
              <path id="Trazado_891157" data-name="Trazado 891157" d="M206.528,106.754a5.187,5.187,0,0,0,.963.059c.351.007.7.009,1.05.008l2.011-.007q1.968-.006,3.937-.017,3.98-.021,7.96-.046l2.186-.014c.379,0,.758,0,1.137-.014a7.825,7.825,0,0,0,1.134-.12c.1-.017.09-.362-.008-.376a6.694,6.694,0,0,0-.965-.1q-.525-.008-1.05,0l-2.011.016-3.935.029q-3.98.032-7.959.071l-2.187.023c-.379,0-.757.006-1.137.018a6.168,6.168,0,0,0-1.136.078c-.108.025-.1.375.01.4" transform="translate(-16.914 -8.695)" fill="#e8d7c8"/>
              <path id="Trazado_891158" data-name="Trazado 891158" d="M198.5,122.11a7.566,7.566,0,0,0,3.194.88,32.716,32.716,0,0,0,3.287.145q3.607.023,7.213.022c4.813,0,9.632-.036,14.443-.215a28.5,28.5,0,0,0,3.581-.308,13.855,13.855,0,0,0,1.734-.394,5.541,5.541,0,0,0,1.67-.748c.075-.053.069-.477-.032-.45-.512.142-1,.355-1.507.512a13.159,13.159,0,0,1-1.538.372,23.7,23.7,0,0,1-3.222.323c-2.336.1-4.678.129-7.017.162-4.807.067-9.617.063-14.425.065-1.243,0-2.487.011-3.726-.086a16.4,16.4,0,0,1-1.855-.248c-.6-.118-1.19-.272-1.792-.357-.086-.011-.065.288-.008.324" transform="translate(-16.26 -9.917)" fill="#e8d7c8"/>
              <rect id="Rectángulo_412025" data-name="Rectángulo 412025" width="81.848" height="2.874" transform="translate(137.88 162.75)" fill="#fff"/>
              <path id="Trazado_891159" data-name="Trazado 891159" d="M147.463,182.012h-2.982l7.722-7.554,2.75.067Z" transform="translate(-11.837 -14.293)" fill="#d3c0b2"/>
              <path id="Trazado_891160" data-name="Trazado 891160" d="M241.124,182.012H244.1l-7.72-7.554-2.751.067Z" transform="translate(-19.142 -14.293)" fill="#d3c0b2"/>
              <rect id="Rectángulo_412026" data-name="Rectángulo 412026" width="22.865" height="1.258" transform="translate(179.914 166.461)" fill="#d3c0b2"/>
              <path id="Trazado_891161" data-name="Trazado 891161" d="M214.642,175.648H200.161l-4.192,5.2h22.865Z" transform="translate(-16.056 -14.391)" fill="#d3c0b2"/>
              <path id="Trazado_891162" data-name="Trazado 891162" d="M229.162,74.451l3.982,5.9a24.188,24.188,0,0,0-3.132,9.53c-.4,5.089-.483,9.959.256,13.29a50.659,50.659,0,0,1,.884,7.7L223.806,95.6Z" transform="translate(-18.337 -6.1)" fill="#bf4797"/>
              <path id="Trazado_891163" data-name="Trazado 891163" d="M205.152,112.551s.01.091.029.258c.206,1.742,1.517,11.838,4.677,15.951,3.463,4.51,6.2,4.429,6.308-.327s-.688-13.138-2.845-17.712-8.562-2.811-8.169,1.83" transform="translate(-16.807 -8.853)" fill="#f8af8b"/>
              <path id="Trazado_891164" data-name="Trazado 891164" d="M230.4,112.551s-.01.091-.029.258c-.206,1.742-1.517,11.838-4.677,15.951-3.463,4.51-6.2,4.429-6.308-.327s.688-13.138,2.845-17.712,8.561-2.811,8.169,1.83" transform="translate(-17.973 -8.853)" fill="#f8af8b"/>
              <path id="Trazado_891165" data-name="Trazado 891165" d="M210.708,58.618s.442,2.926-.622,4.7-2.527,3.9-2.348,6.739a15.054,15.054,0,0,0,.532,3.768s3.236,4.611,7.891,4.123,6.207-6.251,6.207-6.251-.233-1.226-.443-2.527a10.654,10.654,0,0,1,.221-3.369c-1.824,3.025-4.654,3.332-6.9.766-.9-1.027-1.343-6.706-1.343-6.706Z" transform="translate(-17.019 -4.803)" fill="#5f2929"/>
              <path id="Trazado_891166" data-name="Trazado 891166" d="M211.3,167.778a16.242,16.242,0,0,0-1.219,7.957c.42,4.622,2.194,3.922,3.736.887s2.008-6.911,1.728-7.845a3.3,3.3,0,0,0-.6-1.261Z" transform="translate(-17.206 -13.725)" fill="#bf4797"/>
              <path id="Trazado_891167" data-name="Trazado 891167" d="M224.734,167.778a16.236,16.236,0,0,1,1.22,7.957c-.42,4.622-2.2,3.922-3.736.887s-2.008-6.911-1.728-7.845a3.3,3.3,0,0,1,.6-1.261Z" transform="translate(-18.059 -13.725)" fill="#bf4797"/>
              <path id="Trazado_891168" data-name="Trazado 891168" d="M214.979,67.657a6.95,6.95,0,0,1-.828,2.8,10.817,10.817,0,0,1-1.306,1.877s.838,5.329,4.44,5.365,4.609-4.681,4.609-4.681-1.008-3.1-1.153-3.457c-1.764.541-4.609-.595-5.761-1.909" transform="translate(-17.438 -5.543)" fill="#ea9773"/>
              <path id="Trazado_891169" data-name="Trazado 891169" d="M213.181,58.842s.077,5.846,1.154,7.615a6.386,6.386,0,0,0,5.154,2.846c1.692-.077,3.77-2.846,4-4.769s.308-2.922.538-4,.462-3.231-.923-4.691-4.769-3.309-7.538-1.539a4.868,4.868,0,0,0-2.385,4.538" transform="translate(-17.465 -4.39)" fill="#f8af8b"/>
              <path id="Trazado_891170" data-name="Trazado 891170" d="M213.632,62.044a1.734,1.734,0,0,0-1.017-1.09c-.731-.19-1.017.223-1.017.8a9.937,9.937,0,0,0,1.017,2.861,2.084,2.084,0,0,0,1.27.7Z" transform="translate(-17.336 -4.99)" fill="#f8af8b"/>
              <path id="Trazado_891171" data-name="Trazado 891171" d="M204.661,74.942s1.956-.863,4.539-1.919a16.425,16.425,0,0,1,3.619-1.175s1,3.943,4.286,3.8,3.619-3.8,3.619-3.8,5.382,1.137,6.868,2.39a108.9,108.9,0,0,1-3.678,19.8c-.391.235-14.48.157-14.871,0s-4.226-16.67-4.383-19.1" transform="translate(-16.768 -5.887)" fill="#e475b5"/>
              <path id="Trazado_891172" data-name="Trazado 891172" d="M205.865,84.729s-3.771,5.951-6.07,8.787a5.17,5.17,0,0,0-2.765-3.167,6.14,6.14,0,0,0-.857-.261c.95-2.331,2.265-5.213,3.328-7.852.308-.768.628-1.464.947-2.093a16.054,16.054,0,0,1,3.519-4.925,10.285,10.285,0,0,1,1.9,3.565,7.315,7.315,0,0,1,.368,1.852,14.082,14.082,0,0,1-.368,4.095" transform="translate(-16.072 -6.163)" fill="#f8af8b"/>
              <path id="Trazado_891173" data-name="Trazado 891173" d="M229.51,74.451s2.044,1.143,3.737,5.312,5.211,10.421,4.495,11.659-3.062,1.433-5.015-1.042a47.182,47.182,0,0,1-4.494-8.141c-.587-1.238.341-7.433,1.278-7.787" transform="translate(-18.684 -6.1)" fill="#f8af8b"/>
              <path id="Trazado_891174" data-name="Trazado 891174" d="M208.985,96.02s-3.815,6.291-4.384,10.359-1.164,5.048,0,9.493a79.227,79.227,0,0,0,2.809,8.512,15.176,15.176,0,0,0,5.21,0c2.411-.527,3.567-1.959,4.3-2.031,1.126-.109,3.154,1.747,5.564,2.266a6.3,6.3,0,0,0,4.144-.461s3.692-6.931,2.713-12.882-5.493-15.256-5.493-15.256Z" transform="translate(-16.708 -7.867)" fill="#e475b5"/>
              <path id="Trazado_891175" data-name="Trazado 891175" d="M211.03,131.37s-1.63,8.731-1.266,13.653c.4,5.337,1.386,18.826,1.51,19.52.147.818-.877,6.266.234,7.461,1.282,1.154,3.193-2.69,3.393-7.49,1.594-18.2,3.48-31.9,1.649-35.37s-5.52,2.225-5.52,2.225" transform="translate(-17.182 -10.489)" fill="#f8af8b"/>
              <path id="Trazado_891176" data-name="Trazado 891176" d="M224.827,131.37s1.63,8.731,1.266,13.653c-.4,5.337-1.386,18.826-1.511,19.52-.146.818.878,6.266-.233,7.461-1.282,1.154-3.193-2.69-3.393-7.49-1.595-18.2-3.48-31.9-1.649-35.37s5.52,2.225,5.52,2.225" transform="translate(-17.906 -10.489)" fill="#f8af8b"/>
              <path id="Trazado_891177" data-name="Trazado 891177" d="M206.257,124.778s2.26,7.566-.734,18.578a68.607,68.607,0,0,1-8.125,18.6s-1.177,1.71,4.276,0,7.413-3.742,10.816-6.629,6.675-3.742,8.835-4.811a15.482,15.482,0,0,0,4.2-3.636s-1.38-14.113-1.123-15.289,3-7.711,3.674-10.525c.689-2.852-21.822,3.707-21.822,3.707" transform="translate(-16.164 -9.861)" fill="#e475b5"/>
              <path id="Trazado_891178" data-name="Trazado 891178" d="M207.263,88.105s7.02-3.634,11-9,4.133-6.785,4.133-6.785a6.122,6.122,0,0,1,2.578.257,4.422,4.422,0,0,1,2.48,1.7s-1.767,6.828-.731,8.963c-1.65,8.9-2.948,10.838-2.948,10.838s-7.245,5.577-9.553,9.284c-2.68,4.3-4.93,19.317-5.064,22.052-.182,3.733-2.331,10.327-2.331,10.327s.751-7.394-1.038-13.408-4.018-10.176-2.188-16.8,3.007-8.2,3.219-10.785.448-6.638.448-6.638" transform="translate(-16.625 -5.922)" fill="#cc58a0"/>
              <path id="Trazado_891179" data-name="Trazado 891179" d="M213.055,60.156s.533.425,2.085-1.082.755-2.437,2.35-3.236a2.483,2.483,0,0,1,2.616,0s.077-.247,1.285-.354,2.385,1.658,2.385,1.658.571-1.822-2.037-3.714-3.894-1.624-4.116-1.668a6.161,6.161,0,0,0-4.64,1.817c-2.1,1.995-2.011,3.281-2.011,4.478s2.082,2.1,2.082,2.1" transform="translate(-17.285 -4.239)" fill="#5f2929"/>
              <path id="Trazado_891180" data-name="Trazado 891180" d="M212.193,61.791c.012,0,.012-.041,0-.041s-.011.041,0,.041" transform="translate(-17.384 -5.059)" fill="#c96a57"/>
              <path id="Trazado_891181" data-name="Trazado 891181" d="M212.165,61.871a1.693,1.693,0,0,0,.343.193,1.562,1.562,0,0,1,.311.243,1.421,1.421,0,0,1,.375.661c.029-.058.059-.116.089-.174a.328.328,0,0,0-.473-.148.668.668,0,0,0-.189.7,1.306,1.306,0,0,0,.423.667.244.244,0,0,0,.295.045.306.306,0,0,0,.129-.275c0-.017-.026-.125-.058-.073s-.111.047-.159.041a.329.329,0,0,1-.194-.093,1.362,1.362,0,0,1-.285-.4.245.245,0,0,1,.1-.335.25.25,0,0,1,.332.071c.02.043.05.05.078.008a.261.261,0,0,0,.01-.183,1.573,1.573,0,0,0-.412-.716,1.478,1.478,0,0,0-.327-.245c-.115-.063-.264-.15-.392-.1-.03.012-.016.089,0,.106" transform="translate(-17.381 -5.059)" fill="#c96a57"/>
              <path id="Trazado_891182" data-name="Trazado 891182" d="M218.34,67.229a4.249,4.249,0,0,0,1.518.314,3.021,3.021,0,0,0,.783,0c.14-.02.279-.039.42-.053a1.013,1.013,0,0,0,.373-.062c.056-.028.049-.23-.006-.257a1.049,1.049,0,0,0-.375-.059c-.121-.012-.242-.025-.362-.041a3.175,3.175,0,0,0-.813,0,11.576,11.576,0,0,1-1.533.079c-.022,0-.018.073,0,.081" transform="translate(-17.888 -5.493)" fill="#c96a57"/>
              <path id="Trazado_891183" data-name="Trazado 891183" d="M219.87,68.187c.058,0,.117,0,.174,0s.121,0,.183,0,.118,0,.175.006.128.019.175-.023a.134.134,0,0,0,0-.144.207.207,0,0,0-.084-.059.366.366,0,0,0-.094-.013c-.058-.006-.117-.008-.175-.008a.865.865,0,0,0-.175.015c-.062.014-.126.029-.186.048-.032.009-.033.063-.032.09s0,.09.036.088" transform="translate(-18.011 -5.567)" fill="#c96a57"/>
              <path id="Trazado_891184" data-name="Trazado 891184" d="M219.449,65.338a2.419,2.419,0,0,0,1.031.219,1.292,1.292,0,0,0,.423-.117.762.762,0,0,0,.364-.274c.017-.031.043-.274-.033-.254a.738.738,0,0,0-.164.1.839.839,0,0,1-.206.085,1.487,1.487,0,0,1-.408.042,4.372,4.372,0,0,1-1-.167c-.077-.019-.094.333-.01.364" transform="translate(-17.975 -5.318)" fill="#c96a57"/>
              <path id="Trazado_891185" data-name="Trazado 891185" d="M215.8,60.269c.443.037.893-.023,1.339-.007a4.644,4.644,0,0,1,.661.1c.226.041.457.065.686.094.107.013.139-.231.145-.289a.969.969,0,0,0-.006-.207c-.009-.08-.048-.279-.159-.283a4.136,4.136,0,0,0-.683.028c-.228.034-.454.087-.682.111a5.089,5.089,0,0,0-1.319.25c-.048.019-.041.2.017.208" transform="translate(-17.677 -4.889)" fill="#5f2929"/>
              <path id="Trazado_891186" data-name="Trazado 891186" d="M224.313,60.574a1.286,1.286,0,0,0-.409-.58,2.3,2.3,0,0,0-.633-.342,2.352,2.352,0,0,0-.79-.136,3.114,3.114,0,0,0-.454.02.794.794,0,0,0-.437.112.5.5,0,0,0-.095.355c0,.094.012.3.112.352.125.062.256,0,.388-.021s.267-.056.4-.082a3.607,3.607,0,0,1,.8-.063,1.324,1.324,0,0,1,.855.334,1.658,1.658,0,0,1,.219.2c.048.062.05-.123.04-.146" transform="translate(-18.147 -4.876)" fill="#5f2929"/>
              <path id="Trazado_891187" data-name="Trazado 891187" d="M215.7,60.988c.1.074.2.15.3.221.035.026.107.095.15.1a.215.215,0,0,0,.1-.035,1.444,1.444,0,0,1,.633-.12,5.489,5.489,0,0,1,.625.044c.1.018.208.029.314.046a.544.544,0,0,0,.271.012c.037-.016.023-.12,0-.144a.944.944,0,0,0-.558-.282,1.606,1.606,0,0,0-.624-.011c-.2.048-.409.1-.611.163a.593.593,0,0,1-.127.044c-.054,0-.115-.063-.157-.091-.1-.063-.2-.124-.3-.185-.057-.036-.073.2-.019.238" transform="translate(-17.67 -4.977)" fill="#383838"/>
              <path id="Trazado_891188" data-name="Trazado 891188" d="M222.016,61.4a1.993,1.993,0,0,1,1.14-.028c.085.025.172.048.255.073a.9.9,0,0,0,.285.061.568.568,0,0,0,.443-.277c.023-.039.033-.333-.05-.28s-.12.129-.192.179a.289.289,0,0,1-.26.041,3.139,3.139,0,0,0-.532-.122,2.512,2.512,0,0,0-1.1.142c-.059.021-.038.225.006.212" transform="translate(-18.186 -4.993)" fill="#383838"/>
              <path id="Trazado_891189" data-name="Trazado 891189" d="M217.908,61.583c0,.295-.17.533-.378.533s-.377-.239-.377-.533.168-.533.377-.533.378.239.378.533" transform="translate(-17.791 -5.002)" fill="#383838"/>
              <path id="Trazado_891190" data-name="Trazado 891190" d="M223.788,61.729c0,.271-.156.49-.348.49s-.347-.219-.347-.49.155-.49.347-.49.348.219.348.49" transform="translate(-18.278 -5.017)" fill="#383838"/>
              <path id="Trazado_891191" data-name="Trazado 891191" d="M220.8,59.276a.417.417,0,1,1-.4-.526.478.478,0,0,1,.4.526" transform="translate(-18.024 -4.813)" fill="#e475b5"/>
              <path id="Trazado_891192" data-name="Trazado 891192" d="M218.724,52.568a4.62,4.62,0,0,1,1.024,1.127,3.2,3.2,0,0,1,.308.687,3.713,3.713,0,0,1,.09.362c.016.085.008.23.067.3.016.018.03.006.038-.013a.737.737,0,0,0-.012-.346,3.035,3.035,0,0,0-.091-.392,3.385,3.385,0,0,0-.321-.742,2.554,2.554,0,0,0-1.093-1.084c-.029-.012-.025.087-.008.1" transform="translate(-17.919 -4.298)" fill="#3f1717"/>
              <path id="Trazado_891193" data-name="Trazado 891193" d="M217.679,55.123a3.009,3.009,0,0,0-1.311.783,3.67,3.67,0,0,0-.806,1.437,4.569,4.569,0,0,1-.8,1.586,2.406,2.406,0,0,1-1.651.815c-.04,0-.033.118,0,.127a1.743,1.743,0,0,0,1.553-.544,3.565,3.565,0,0,0,.82-1.436,4.745,4.745,0,0,1,.783-1.726,2.933,2.933,0,0,1,1.407-.9c.04-.012.022-.148,0-.14" transform="translate(-17.459 -4.516)" fill="#3f1717"/>
              <path id="Trazado_891194" data-name="Trazado 891194" d="M213.086,59.287a1.121,1.121,0,0,0,.551-.028,1.2,1.2,0,0,0,.457-.276,1.412,1.412,0,0,0,.3-.426,1.116,1.116,0,0,0,.114-.532c0-.018-.021-.054-.032-.021-.026.07-.034.145-.059.216a1.685,1.685,0,0,1-.094.227,1.423,1.423,0,0,1-.3.4,1.794,1.794,0,0,1-.934.43Z" transform="translate(-17.458 -4.751)" fill="#3f1717"/>
              <path id="Trazado_891195" data-name="Trazado 891195" d="M211.361,64.741a10.339,10.339,0,0,0-1.433,3.111,3.962,3.962,0,0,0,.251,2.943c.039.06.056-.092.05-.114a5.446,5.446,0,0,1-.292-1.44,5.189,5.189,0,0,1,.181-1.479,15.963,15.963,0,0,1,1.268-2.925c.01-.021,0-.133-.024-.1" transform="translate(-17.186 -5.304)" fill="#3f1717"/>
              <path id="Trazado_891196" data-name="Trazado 891196" d="M211.6,67.064a2.77,2.77,0,0,0-.354,2.392c.033.089.071-.061.067-.092a4.217,4.217,0,0,1-.041-1.1,3.246,3.246,0,0,1,.349-1.122c.01-.018,0-.114-.02-.082" transform="translate(-17.297 -5.494)" fill="#3f1717"/>
              <path id="Trazado_891197" data-name="Trazado 891197" d="M212.855,89.037a22.935,22.935,0,0,0,5.739-4.734,26.279,26.279,0,0,0,4.159-6.312q.45-.96.822-1.954a9.487,9.487,0,0,0,.593-2.005c.005-.037-.041-.294-.1-.187a11.969,11.969,0,0,0-.609,1.627q-.322.863-.7,1.7a26.8,26.8,0,0,1-1.8,3.3,27.346,27.346,0,0,1-4.824,5.717,35.246,35.246,0,0,1-3.305,2.639c-.052.036-.034.241.03.2" transform="translate(-17.434 -6.048)" fill="#bf4797"/>
              <path id="Trazado_891198" data-name="Trazado 891198" d="M222.729,80.738a14.572,14.572,0,0,0,2.123-3.072,13.449,13.449,0,0,0,.726-1.766c.1-.3.189-.607.269-.915a3.708,3.708,0,0,0,.171-.983c0-.04-.054-.3-.133-.18a3.08,3.08,0,0,0-.246.829c-.078.291-.162.581-.256.868a17.387,17.387,0,0,1-.678,1.752,16.292,16.292,0,0,1-1.995,3.4c-.012.017,0,.089.019.065" transform="translate(-18.246 -6.046)" fill="#bf4797"/>
              <path id="Trazado_891199" data-name="Trazado 891199" d="M223.556,113.065a51.671,51.671,0,0,0-2.928,9.273,27.2,27.2,0,0,0-.5,2.741c-.012.1.085.326.136.126.192-.767.337-1.545.508-2.316.175-.8.37-1.589.573-2.381.4-1.561.864-3.1,1.366-4.634.293-.893.592-1.785.906-2.67.016-.043-.017-.235-.059-.139" transform="translate(-18.035 -9.261)" fill="#bf4797"/>
              <path id="Trazado_891200" data-name="Trazado 891200" d="M215.07,118.263c.431,1.7.879,3.4,1.238,5.124.353,1.692.6,3.4.886,5.1.032.185.155.106.145-.049a37.345,37.345,0,0,0-.806-5.273,35.855,35.855,0,0,0-1.4-5.032c-.037-.1-.072.089-.061.126" transform="translate(-17.621 -9.677)" fill="#bf4797"/>
              <path id="Trazado_891201" data-name="Trazado 891201" d="M209.452,141.2a26.254,26.254,0,0,0,.578,10.529c.044.159.133-.022.117-.108a36.22,36.22,0,0,1-.662-5.135,28.121,28.121,0,0,1,.226-5.138c.013-.09,0-.313-.1-.355s-.148.135-.158.207" transform="translate(-17.138 -11.551)" fill="#bf4797"/>
              <path id="Trazado_891202" data-name="Trazado 891202" d="M219.678,138.653a37.6,37.6,0,0,0-.017,8.885c.013.1.091.059.086-.028a57.052,57.052,0,0,1,.054-8.786c.011-.125-.1-.262-.123-.072" transform="translate(-17.976 -11.352)" fill="#bf4797"/>
              <path id="Trazado_891203" data-name="Trazado 891203" d="M232.452,93.5H139.317l-18.44,17.933H250.892Z" transform="translate(-9.903 -7.66)" fill="#fff7f0"/>
              <path id="Trazado_891204" data-name="Trazado 891204" d="M217,97.2H159.166l-11.451,11.135h80.738Z" transform="translate(-12.102 -7.964)" fill="#e8d7c8"/>
              <path id="Trazado_891205" data-name="Trazado 891205" d="M138.217,107.4c0-.658-1.409-1.193-3.148-1.193s-3.148.534-3.148,1.193,1.409,1.193,3.148,1.193,3.148-.534,3.148-1.193" transform="translate(-10.808 -8.701)" fill="#d3c0b2"/>
              <path id="Trazado_891206" data-name="Trazado 891206" d="M135.51,103.053a.439.439,0,0,1-.439-.439V57.747a.439.439,0,0,1,.878,0v44.867a.439.439,0,0,1-.439.439" transform="translate(-11.066 -4.695)" fill="#fff"/>
              <path id="Trazado_891207" data-name="Trazado 891207" d="M152.832,66.572v8.336a.439.439,0,0,1-.439.439H135.509a.438.438,0,0,1,0-.877h16.446v-7.9c.14.008.287.013.438.013s.3,0,.439-.013" transform="translate(-11.066 -5.454)" fill="#fff"/>
              <path id="Trazado_891208" data-name="Trazado 891208" d="M144.287,66.568v8.34a.438.438,0,0,1-.876,0V66.575c.118,0,.243.009.371.009.175,0,.345-.006.5-.017" transform="translate(-11.75 -5.454)" fill="#fff"/>
              <path id="Trazado_891209" data-name="Trazado 891209" d="M145.535,66.121v5.407h-3.777V66.121c0,.207.65.379,1.517.418.118,0,.243.008.371.008.176,0,.346,0,.506-.016.8-.049,1.384-.214,1.384-.41" transform="translate(-11.614 -5.417)" fill="#5288d8"/>
              <path id="Trazado_891210" data-name="Trazado 891210" d="M145.535,71.973c0,.236-.846.427-1.889.427s-1.888-.191-1.888-.427.846-.428,1.888-.428,1.889.192,1.889.428" transform="translate(-11.614 -5.862)" fill="#5288d8"/>
              <path id="Trazado_891211" data-name="Trazado 891211" d="M145.535,66.083c0,.235-.846.426-1.889.426s-1.888-.191-1.888-.426.845-.428,1.888-.428,1.889.191,1.889.428" transform="translate(-11.614 -5.379)" fill="#4b7cd0"/>
              <path id="Trazado_891212" data-name="Trazado 891212" d="M155.66,66.121v5.407h-3.779V66.121c0,.2.619.37,1.451.414.14.008.288.012.439.012s.3,0,.438-.012c.834-.044,1.451-.212,1.451-.414" transform="translate(-12.444 -5.417)" fill="#5288d8"/>
              <path id="Trazado_891213" data-name="Trazado 891213" d="M155.659,71.973c0,.236-.846.427-1.888.427s-1.888-.191-1.888-.427.846-.428,1.888-.428,1.888.192,1.888.428" transform="translate(-12.444 -5.862)" fill="#5288d8"/>
              <path id="Trazado_891214" data-name="Trazado 891214" d="M155.66,66.083c0,.235-.846.426-1.888.426s-1.89-.191-1.89-.426.847-.428,1.89-.428,1.888.191,1.888.428" transform="translate(-12.444 -5.379)" fill="#4b7cd0"/>
              <path id="Trazado_891215" data-name="Trazado 891215" d="M144.287,63.347v2.5c-.16.01-.33.016-.5.016-.128,0-.252,0-.371-.009v-2.5a.438.438,0,1,1,.876,0" transform="translate(-11.75 -5.154)" fill="#fff"/>
              <path id="Trazado_891216" data-name="Trazado 891216" d="M154.339,63.747v2.137c-.14.007-.287.011-.439.011s-.3,0-.438-.011V63.747a.444.444,0,0,1,.877,0" transform="translate(-12.573 -5.192)" fill="#fff"/>
              <path id="Trazado_891217" data-name="Trazado 891217" d="M136.711,57.575c0,.193-.572.348-1.277.348s-1.274-.155-1.274-.348.57-.348,1.274-.348,1.277.155,1.277.348" transform="translate(-10.992 -4.689)" fill="#fff"/>
              <path id="Trazado_891218" data-name="Trazado 891218" d="M145.049,63.257c0,.192-.571.348-1.276.348s-1.275-.156-1.275-.348.571-.348,1.275-.348,1.276.155,1.276.348" transform="translate(-11.675 -5.154)" fill="#fff"/>
              <path id="Trazado_891219" data-name="Trazado 891219" d="M184.546,93.487s.7,3.789,5.866,8.058,21.294,7.72,33.014,6.69,30.474,1.6,31.8,1.942,2.286,4.981,2.089,13.331-3.19,17.814-.651,23.77S262.688,158,265.519,159.6c-6.316-17.894.643-37.477-2.638-45.531s-14.041-11.582-17.508-13.093-23.024,3-33.725-1.249-16.9-6.369-16.9-6.369Z" transform="translate(-15.12 -7.649)" fill="#5288d8"/>
              <path id="Trazado_891220" data-name="Trazado 891220" d="M155.1,63.454c0,.192-.571.348-1.276.348s-1.275-.156-1.275-.348.571-.348,1.275-.348,1.276.155,1.276.348" transform="translate(-12.498 -5.17)" fill="#fff"/>
              <path id="Trazado_891221" data-name="Trazado 891221" d="M205.282,102.824l.174.373.174-.373V82.73h-.348Z" transform="translate(-16.819 -6.778)" fill="#487772"/>
              <rect id="Rectángulo_412027" data-name="Rectángulo 412027" width="16.369" height="24.716" transform="translate(142.892 74.532)" fill="#6cbbae"/>
              <path id="Trazado_891222" data-name="Trazado 891222" d="M155.617,92.836H151.2a1.264,1.264,0,0,1-1.263-1.263V82.446a1.264,1.264,0,0,1,1.263-1.263h4.412Z" transform="translate(-12.285 -6.651)" fill="#6cbbae"/>
              <path id="Trazado_891223" data-name="Trazado 891223" d="M153.174,106.836a.779.779,0,0,1-.779-.779V92.619h1.558v13.439a.779.779,0,0,1-.779.779" transform="translate(-12.486 -7.588)" fill="#6cbbae"/>
              <path id="Trazado_891224" data-name="Trazado 891224" d="M205.819,82.657V97.3a5.816,5.816,0,0,1-.559,2.541,2.684,2.684,0,0,1-2.274,1.755,2.763,2.763,0,0,1-1.956-.8,4.448,4.448,0,0,1-1.308-2.927,12.205,12.205,0,0,0-.682-3.311,5.166,5.166,0,0,0-2.765-3.166,5.975,5.975,0,0,0-.857-.262c-4.647-1.1-17.433-.4-17.433-.4a5.348,5.348,0,0,0-3.927,3.261,12.987,12.987,0,0,0-.846,4.016,23.045,23.045,0,0,0,0,3.349L170.28,87.779l2.931-6.6h31.274a1.273,1.273,0,0,1,.993.492,1.556,1.556,0,0,1,.341.982" transform="translate(-13.951 -6.651)" fill="#6cbbae"/>
              <path id="Trazado_891225" data-name="Trazado 891225" d="M162.824,95.813a2.039,2.039,0,1,1-2.039-2.038,2.039,2.039,0,0,1,2.039,2.038" transform="translate(-13.006 -7.683)" fill="#487772"/>
              <path id="Trazado_891226" data-name="Trazado 891226" d="M164.21,105.7h-4.761a.7.7,0,0,1-.7-.7v-3.934a.7.7,0,0,1,.7-.7h4.761a.7.7,0,0,1,.7.7V105a.7.7,0,0,1-.7.7" transform="translate(-13.006 -8.223)" fill="#487772"/>
              <path id="Trazado_891227" data-name="Trazado 891227" d="M171.02,90.658h-11.57a.7.7,0,0,1-.7-.7V87.979a.7.7,0,0,1,.7-.7h11.57a.7.7,0,0,1,.7.7v1.978a.7.7,0,0,1-.7.7" transform="translate(-13.006 -7.151)" fill="#487772"/>
              <path id="Trazado_891228" data-name="Trazado 891228" d="M194.549,80.883H194.1V77.748a.224.224,0,1,1,.447,0Z" transform="translate(-15.903 -6.352)" fill="#487772"/>
              <path id="Trazado_891229" data-name="Trazado 891229" d="M152.151,98.282h-2.442a.291.291,0,1,1,0-.583h2.442Z" transform="translate(-12.242 -8.005)" fill="#487772"/>
              <path id="Trazado_891230" data-name="Trazado 891230" d="M150.3,98.93a.254.254,0,0,1-.254-.254v-1.5a.254.254,0,1,1,.509,0v1.5a.254.254,0,0,1-.254.254" transform="translate(-12.293 -7.941)" fill="#487772"/>
              <path id="Trazado_891231" data-name="Trazado 891231" d="M232.431,91.971s-.811.368-2.157,3.314-4,7.66-4,7.66-2.877,1.856-3.88,3.685c-.708,1.071-.623,1.955-.455,2.08a3.632,3.632,0,0,0,1.178,0,2.015,2.015,0,0,0,1.138.253,3.435,3.435,0,0,0,1.388,0,3.748,3.748,0,0,0,1.485-1.6c.157-.42.873-3.156.873-3.156s9.453-10.515,9.307-11.7a2.229,2.229,0,0,0-2.573-1.811,3.655,3.655,0,0,0-2.3,1.273" transform="translate(-18.174 -7.43)" fill="#f8af8b"/>
              <path id="Trazado_891232" data-name="Trazado 891232" d="M223.115,108.369a4.2,4.2,0,0,0,1.709.554,4.5,4.5,0,0,0,.916,0,2.877,2.877,0,0,0,.851-.173c.022-.01.019-.107-.008-.107-.3,0-.6.064-.909.065a7.224,7.224,0,0,1-.857-.041,8.655,8.655,0,0,1-1.7-.38c-.016-.006-.018.071,0,.081" transform="translate(-18.279 -8.872)" fill="#c96a57"/>
              <path id="Trazado_891233" data-name="Trazado 891233" d="M223.152,109.936a3.119,3.119,0,0,0,.319-.274,1.878,1.878,0,0,0,.14-.165,1.064,1.064,0,0,0,.129-.19.108.108,0,0,0,.006-.068c0-.009-.008-.042-.024-.031a.955.955,0,0,0-.135.13c-.048.046-.1.09-.145.136a2.9,2.9,0,0,1-.315.265c-.032.024-.028.094-.023.127,0,.016.017.094.048.071" transform="translate(-18.279 -8.947)" fill="#c96a57"/>
              <path id="Trazado_891234" data-name="Trazado 891234" d="M224.57,110.19c.091-.073.185-.141.273-.217s.176-.154.265-.231a.242.242,0,0,0,.109-.165c0-.024,0-.074-.027-.088s-.053.017-.069.031l-.264.247c-.1.1-.2.2-.3.3a.1.1,0,0,0-.013.076c0,.009.01.058.028.043" transform="translate(-18.397 -8.97)" fill="#c96a57"/>
              <path id="Trazado_891235" data-name="Trazado 891235" d="M225.686,110.213a1.038,1.038,0,0,0,.2-.09c.064-.041.128-.084.19-.131a1.281,1.281,0,0,0,.172-.159,1.189,1.189,0,0,0,.085-.095.354.354,0,0,0,.072-.133c.007-.023.017-.112-.02-.116-.02,0-.028,0-.044.007a.245.245,0,0,0-.039.03c-.028.025-.054.054-.082.08-.057.053-.117.1-.172.16s-.116.109-.177.16-.129.119-.193.179c-.015.014-.017.117.009.107" transform="translate(-18.489 -8.97)" fill="#c96a57"/>
              <path id="Trazado_891236" data-name="Trazado 891236" d="M231.824,94.063c.3-.46.651-.888.994-1.316.184-.227.371-.45.569-.665a6.719,6.719,0,0,0,.585-.646c.021-.031.026-.232-.037-.2a2.5,2.5,0,0,0-.621.568c-.191.207-.376.421-.553.642a9.584,9.584,0,0,0-.957,1.545c-.007.017,0,.1.018.071" transform="translate(-18.992 -7.475)" fill="#c96a57"/>
              <path id="Trazado_891237" data-name="Trazado 891237" d="M215.227,101.3a6.146,6.146,0,0,1,2.33.611,12.718,12.718,0,0,0,2.673,1.337c.688.134,1.68.191,1.623.344a2.5,2.5,0,0,1-2.2.668c-1.26-.173-4.2-2.273-4.431-2.961" transform="translate(-17.634 -8.299)" fill="#ea9773"/>
              <path id="Trazado_891238" data-name="Trazado 891238" d="M194.825,95.99s-.88,2.193,3.841,3.309,11.937,2.623,11.937,2.623a10.43,10.43,0,0,0,4.264,2.754,9.876,9.876,0,0,0,4.723.985c.722-.132.822-.394.822-.394.489-.329-3.117-2.23-3.642-2.69a11.9,11.9,0,0,0-2.786-1.745c-.821-.287-1.8-.55-1.8-.55a67.54,67.54,0,0,1-7.043-3.367c-1.379-.983-5.221-3.429-7.123-3.015a6.214,6.214,0,0,0-3.186,2.09" transform="translate(-15.957 -7.69)" fill="#f8af8b"/>
              <path id="Trazado_891239" data-name="Trazado 891239" d="M216.861,105.321a4.5,4.5,0,0,0,.971-.671q.219-.2.417-.421c.063-.072.123-.144.181-.221.032-.044.067-.088.095-.135a1.309,1.309,0,0,0,.074-.163c.008-.019.006-.173-.035-.142a.735.735,0,0,0-.088.059c-.035.033-.064.077-.1.113l-.183.212a5.6,5.6,0,0,1-.423.438,8.044,8.044,0,0,1-.936.756c-.039.027-.027.2.024.177" transform="translate(-17.764 -8.485)" fill="#c96a57"/>
              <path id="Trazado_891240" data-name="Trazado 891240" d="M219.471,105.09c.274.072.546.143.821.213.134.035.273.062.409.091a1.431,1.431,0,0,0,.409.044c.026,0,.02-.078,0-.088a1.538,1.538,0,0,0-.384-.14c-.142-.036-.283-.075-.426-.106-.277-.06-.556-.115-.835-.172-.034-.007-.042.145,0,.157" transform="translate(-17.979 -8.597)" fill="#c96a57"/>
              <path id="Trazado_891241" data-name="Trazado 891241" d="M218.887,105.539c.329.071.656.149.982.23.156.039.31.084.465.126l.249.067a.708.708,0,0,0,.244.026c.031,0,.02-.088,0-.1a.877.877,0,0,0-.241-.134c-.074-.027-.149-.051-.224-.076-.159-.052-.32-.093-.483-.132a6.823,6.823,0,0,0-1-.162c-.039,0-.04.149,0,.158" transform="translate(-17.931 -8.634)" fill="#c96a57"/>
              <path id="Trazado_891242" data-name="Trazado 891242" d="M200.481,94.227a19.082,19.082,0,0,1-2.006,1.933c-1.759,1.367-3.255.976-3.648-.344-.185-.624.258-1.986,1.115-4.084a6.986,6.986,0,0,1,1.281.165c1.574.393,2.76,1.005,3.258,2.331" transform="translate(-15.959 -7.516)" fill="#f8af8b"/>
              <path id="Trazado_891243" data-name="Trazado 891243" d="M198.249,94.41c.522.018,1.046,0,1.568.044a6.867,6.867,0,0,1,.748.109,2.01,2.01,0,0,0,.79.1c.069-.015.047-.182.006-.215a1.549,1.549,0,0,0-.748-.269c-.256-.042-.516-.073-.777-.091a4.5,4.5,0,0,0-1.593.127c-.051.016-.051.189.006.192" transform="translate(-16.239 -7.708)" fill="#c96a57"/>
              <rect id="Rectángulo_412028" data-name="Rectángulo 412028" width="2.983" height="61.856" transform="translate(132.644 105.863)" fill="#fff"/>
              <rect id="Rectángulo_412029" data-name="Rectángulo 412029" width="2.983" height="61.856" transform="translate(221.896 105.863)" fill="#fff"/>
              <rect id="Rectángulo_412030" data-name="Rectángulo 412030" width="86.27" height="10.041" transform="translate(135.626 138.028)" fill="#d3c0b2"/>
              <rect id="Rectángulo_412031" data-name="Rectángulo 412031" width="130.016" height="3.205" transform="translate(110.973 103.772)" fill="#fff"/>
              <path id="Trazado_891244" data-name="Trazado 891244" d="M283.642,105.207h-4.391a1.648,1.648,0,0,1-1.675-1.364l-.854-7.925a1.84,1.84,0,0,1,1.765-2.142h5.729a1.876,1.876,0,0,1,1.8,2.142l-.72,7.925a1.615,1.615,0,0,1-1.653,1.364" transform="translate(-22.671 -7.683)" fill="#fff"/>
              <path id="Trazado_891245" data-name="Trazado 891245" d="M287.51,175.21a8.393,8.393,0,0,1-1.053,3.1c-.918,1.593-6.941,3.6-7.571,3.9s.836,2.305,2.762,2.19,8.227-.451,9.635-.681,1.649-1.734,1.625-3.035-.754-3.76-.791-4.437-4.607-1.033-4.607-1.033" transform="translate(-22.837 -14.355)" fill="#f8af8b"/>
              <path id="Trazado_891246" data-name="Trazado 891246" d="M286.936,176.74s.21-.463-2.036,1.356a11.291,11.291,0,0,1-3.964,2.336c-.32.073-5.663,1.271-5.36,1.952s1.96,3.058,4.3,3.067,6.639-.5,8.94-.488,4.061-.589,4.475-1.374-.577-5.446-.91-5.813.076.12-.739,1.135a2.6,2.6,0,0,1-3.111.656,12.784,12.784,0,0,1-1.6-2.827" transform="translate(-22.577 -14.476)" fill="#5288d8"/>
              <path id="Trazado_891247" data-name="Trazado 891247" d="M305.759,175.476c0,.111-.347,2.321-.347,2.321s.76.836,3.021.99a5.6,5.6,0,0,0,3.137-.4l-.17-2.6-2.83-1.444Z" transform="translate(-25.023 -14.284)" fill="#f8af8b"/>
              <path id="Trazado_891248" data-name="Trazado 891248" d="M290.983,90.955s-3.9,40.868-3.548,42.58,3.729,4.529,6.191,2.307,6.565-9.428,8.026-18.065.607-28.964.607-28.964a65.119,65.119,0,0,0-7.643-.16,4.024,4.024,0,0,0-3.633,2.3" transform="translate(-23.548 -7.258)" fill="#487772"/>
              <path id="Trazado_891249" data-name="Trazado 891249" d="M308.72,84.646a28.056,28.056,0,0,1,4.02,7.345c1.254,3.821,1.236,4.678,1.427,13.84s-.408,23.931-1.812,27.241-4.385,6.68-6.8,2.623-2.432-13.6-3.009-17.329-2.256-29.218-2.256-29.218Z" transform="translate(-24.603 -6.935)" fill="#487772"/>
              <path id="Trazado_891250" data-name="Trazado 891250" d="M287.49,132.694l-1.7,39.14s-.136.936,4.166,1.493,5.846-.694,5.846-.694,2.261-24.443,1.536-28.772-.453-7.1-2.138-9.766-7.715-1.4-7.715-1.4" transform="translate(-23.415 -10.847)" fill="#487772"/>
              <path id="Trazado_891251" data-name="Trazado 891251" d="M303.746,131.222s-.015,39.881.156,40.472,1.37.98,4.24,1.132a6.591,6.591,0,0,0,4.266-.955s1.552-24.634,1.56-32.227-.124-10.406-.124-10.406-5.963-7.51-10.1,1.984" transform="translate(-24.886 -10.358)" fill="#487772"/>
              <path id="Trazado_891252" data-name="Trazado 891252" d="M244.318,99.985s3.653,1.578,4.2,1.48,3.121-.453,3.374-.8,1.361-2.427,1.361-2.427a31.679,31.679,0,0,0-2.914-1.412c-.786-.262-3.392,1.443-3.392,1.443Z" transform="translate(-20.017 -7.931)" fill="#ea9773"/>
              <path id="Trazado_891253" data-name="Trazado 891253" d="M287.069,62.086a6.833,6.833,0,0,0-.338,2.059c.138.446,3.5,5.535,5.832,5.141s3.959-7.482,3.61-8.486-1.176-.208-2.747-2.714a17.517,17.517,0,0,1-1.8-3.286l-2.324-.238s.878,3.491-.011,5.355a3.718,3.718,0,0,1-2.223,2.168" transform="translate(-23.49 -4.47)" fill="#ea9773"/>
              <path id="Trazado_891254" data-name="Trazado 891254" d="M275.231,91.2a4.24,4.24,0,0,1-1.291,1.184,23.033,23.033,0,0,1-4.287,1.56c-3.525,1.046-9.593,1.417-12.894,1.544-1.4.055-2.306.066-2.306.066s-.14.329-.693,1.381-1.965,1.688-2.976,2.332-3.467,3.586-3.856,3.085,1.59-2.932,2.076-3.787,1.5-1.964.771-1.913a18.467,18.467,0,0,0-3.085,1.134,27.355,27.355,0,0,1-3.51,2.431c-1.274.548-2.41.77-2.671.506s2.769-2.011,4.6-3.835c.279-.592,4.646-2.7,5.661-3.473s1.271-.307,4.008-.823c.181-.033.411-.084.683-.151,3.846-.927,16.109-4.79,16.109-4.79a4.378,4.378,0,0,1,1.391.4c1.688.782,2.909,2.463,2.267,3.154" transform="translate(-19.704 -7.181)" fill="#f8af8b"/>
              <path id="Trazado_891255" data-name="Trazado 891255" d="M286.549,62.773a20.373,20.373,0,0,0-3.635,4.237c-1.251,2.158-1.589,2.683-1.589,2.683a72.788,72.788,0,0,1,4.274,9.43,43.872,43.872,0,0,0,4.886,9.446c.112.153,16.3-2.823,16.775-3.868s-3.424-23.58-4.089-24.235-9.477-1-9.477-1,2.141,2.31-1.3,8.492c-5.132-1.353-5.84-5.189-5.84-5.189" transform="translate(-23.049 -4.872)" fill="#5288d8"/>
              <path id="Trazado_891256" data-name="Trazado 891256" d="M280.692,70.6l-.109.253c-.8,1.866-5.778,13.494-6.673,16.531-.973,3.305.5,6.13,4.035,2.413A111.552,111.552,0,0,0,285.3,80.91s1.182-5.023-1.289-7.772-3.322-2.534-3.322-2.534" transform="translate(-22.418 -5.784)" fill="#5288d8"/>
              <path id="Trazado_891257" data-name="Trazado 891257" d="M304.955,60.554s3.184.812,4.885,5.927a34.915,34.915,0,0,1,.722,15.392,2.088,2.088,0,0,1-3.908.543c-.669-1.266-2.844-10.357-3.434-15.449s1.31-6.054,1.735-6.414" transform="translate(-24.834 -4.961)" fill="#7cadf2"/>
              <path id="Trazado_891258" data-name="Trazado 891258" d="M304.311,81.346s-1.537.187-4.838,4.148-9.395,10.463-9.395,10.463l-4.395.42a4.051,4.051,0,0,0-.339,2.425,5.116,5.116,0,0,0,1.313,2.62l4.76-2.741s16.625-10.509,16.97-13.864-4.076-3.47-4.076-3.47" transform="translate(-23.375 -6.665)" fill="#f8af8b"/>
              <path id="Trazado_891259" data-name="Trazado 891259" d="M285.13,97.718s-4.632,1.213-5.695,1.563-.22.994.7.728a15.333,15.333,0,0,1,3.608-.495c.2.118.1.715-1.42,1a16.248,16.248,0,0,0-3.618.98c-.175.2-.014.628-.014.628a.8.8,0,0,0-.092.8c.179.49,1.237.426,1.237.426s-.931.858,1.7.546a18.671,18.671,0,0,0,4.566-1.126Z" transform="translate(-22.821 -8.006)" fill="#f8af8b"/>
              <path id="Trazado_891260" data-name="Trazado 891260" d="M286.861,63.068s-1.9.927-1.71,1.7a37.834,37.834,0,0,0,3.637,5.171c.162.118-.048-1.435.836-1.978s3.076.3,3.076.3a17.8,17.8,0,0,1-3.764-2.647,13.064,13.064,0,0,1-2.076-2.542" transform="translate(-23.361 -5.167)" fill="#7cadf2"/>
              <path id="Trazado_891261" data-name="Trazado 891261" d="M293.8,58.036s2.407.076,3.319,1.434.954,7.093.954,7.093a3.452,3.452,0,0,0-1.877-.743,3.378,3.378,0,0,0-2.235.975,9.85,9.85,0,0,0,1.126-4.753,7.544,7.544,0,0,0-1.287-4.006" transform="translate(-24.071 -4.755)" fill="#7cadf2"/>
              <path id="Trazado_891262" data-name="Trazado 891262" d="M275.276,92.382c-1.3,1.188-15.681,4.831-16.655,3.82a4.308,4.308,0,0,1-.527-.717,16.723,16.723,0,0,1-1.294-3.047c3.846-.927,16.109-4.79,16.109-4.79a4.391,4.391,0,0,1,1.392.4c.884,1.738,1.652,3.716.975,4.339" transform="translate(-21.04 -7.181)" fill="#5288d8"/>
              <path id="Trazado_891263" data-name="Trazado 891263" d="M292.073,94.284a18.4,18.4,0,0,0,2.228,3.983c.909.881,14.255-10.749,15-13.99s-4.794-4.461-4.794-4.461Z" transform="translate(-23.93 -6.539)" fill="#7cadf2"/>
              <path id="Trazado_891264" data-name="Trazado 891264" d="M277.768,53.088a32.07,32.07,0,0,0,1.4,3.5c.324.412,1.2,1.094,1.337,1.356a11.857,11.857,0,0,0,3.466,3.689c1.931,1.185,2.444,1.38,3.266.881a7.668,7.668,0,0,0,2.47-5.152c-.069-1.994-2.917-7-4.921-8.221a5.618,5.618,0,0,0-5.754-.121c-1.458.892-1.266,4.07-1.266,4.07" transform="translate(-22.757 -3.956)" fill="#f8af8b"/>
              <path id="Trazado_891265" data-name="Trazado 891265" d="M285.231,45.195a9.493,9.493,0,0,0-3.981-.637c-1.987.191-2.912,1.257-4.122,3.327a7.8,7.8,0,0,1-2.273,2.748c-.387.342.109,1.722.741,2.2s2.385.283,4.577-1.42,3.167-2.3,3.167-2.3a4.079,4.079,0,0,1,1.459,1.343c.8,1.066,1.718,3.073,2.18,3.077s.57-1.178.57-1.178Z" transform="translate(-22.508 -3.648)" fill="#ac4832"/>
              <path id="Trazado_891266" data-name="Trazado 891266" d="M289.449,54.756a11.332,11.332,0,0,0,2.883.811,16.354,16.354,0,0,1-.706-3.638,8.516,8.516,0,0,0-.6-3.161,6.355,6.355,0,0,0-3.088-2.981,4.655,4.655,0,0,0-1.767-.532,24.712,24.712,0,0,0,.527,4.093,29.246,29.246,0,0,0,2.753,5.409" transform="translate(-23.446 -3.708)" fill="#ac4832"/>
              <path id="Trazado_891267" data-name="Trazado 891267" d="M287.961,53.236c0-.148-.474-2.04.057-2.693s1.566.992,1.848,1.588a7.569,7.569,0,0,1,.543,2.263A12.938,12.938,0,0,1,290,56.158Z" transform="translate(-23.577 -4.129)" fill="#f8af8b"/>
              <path id="Trazado_891268" data-name="Trazado 891268" d="M306.59,175.751l-4.362,6.453-.031,1.524s1.532,1.293,6.152,1.214c4.643-.079,4.962-1.041,4.962-1.041l.033-1.585-3.336-6.3a3.517,3.517,0,0,0-3.418-.269" transform="translate(-24.759 -14.372)" fill="#5288d8"/>
              <path id="Trazado_891269" data-name="Trazado 891269" d="M247.528,99.338a3.071,3.071,0,0,0,.685.456c.121.056.245.106.37.151a1,1,0,0,0,.186.042.849.849,0,0,0,.1.012.156.156,0,0,0,.084-.023c.051-.027.045-.183.01-.22a.269.269,0,0,0-.1-.077l-.095-.043a1.829,1.829,0,0,0-.187-.077c-.118-.041-.233-.089-.346-.14-.227-.1-.458-.2-.676-.326-.066-.037-.073.2-.025.245" transform="translate(-20.278 -8.118)" fill="#c96a57"/>
              <path id="Trazado_891270" data-name="Trazado 891270" d="M255.666,95.526q-.136.4-.31.782c-.058.127-.124.25-.179.377-.065.151-.118.307-.175.462a.235.235,0,0,0,0,.129c0,.012.021.072.043.049a1.48,1.48,0,0,0,.223-.267,3.514,3.514,0,0,0,.2-.406,8.622,8.622,0,0,0,.315-.825.479.479,0,0,0,0-.3c-.027-.073-.08-.078-.106,0" transform="translate(-20.891 -7.822)" fill="#c96a57"/>
              <path id="Trazado_891271" data-name="Trazado 891271" d="M285.545,98.454a4.976,4.976,0,0,0-.286,2.029,5.854,5.854,0,0,0,.129,1.034,4.708,4.708,0,0,0,.141.51c.031.094.065.281.176.307.04.01.047-.1.047-.117a4.257,4.257,0,0,0-.187-.877,6.462,6.462,0,0,1-.12-.889,7.352,7.352,0,0,1,.163-1.864c.007-.037-.02-.24-.063-.133" transform="translate(-23.371 -8.064)" fill="#c96a57"/>
              <path id="Trazado_891272" data-name="Trazado 891272" d="M279.567,102.186c.679-.095,1.353-.2,2.027-.325s1.353-.284,2.026-.455c.021,0,.02-.077,0-.075-.681.084-1.353.176-2.027.306s-1.353.275-2.026.433c-.033.008-.029.12,0,.117" transform="translate(-22.903 -8.302)" fill="#c96a57"/>
              <path id="Trazado_891273" data-name="Trazado 891273" d="M279.915,103.675q.846-.211,1.687-.437c.27-.072.541-.136.813-.2a2.668,2.668,0,0,0,.82-.262c.028-.017.034-.145-.008-.148a2.334,2.334,0,0,0-.812.185c-.281.086-.561.173-.844.251-.554.154-1.1.311-1.656.474-.04.012-.029.145,0,.137" transform="translate(-22.931 -8.408)" fill="#c96a57"/>
              <path id="Trazado_891274" data-name="Trazado 891274" d="M288.667,50.979a1.3,1.3,0,0,0-.3,1.005,4.355,4.355,0,0,0,.3,1.278c.032-.1.064-.2.1-.3-.031.135-.019.169.034.1a.131.131,0,0,1,.073-.025.274.274,0,0,1,.176.04.65.65,0,0,1,.195.211,2,2,0,0,1,.151.27.451.451,0,0,1,.057.136c.028.026.021.046-.019.062a.107.107,0,0,1-.084.01c-.1-.012-.117.355,0,.37.256.032.3-.319.272-.5a1.771,1.771,0,0,0-.339-.738c-.115-.157-.328-.344-.531-.213a.474.474,0,0,0-.068.605c.041.065.088-.009.1-.05a.393.393,0,0,0-.007-.253,3.778,3.778,0,0,1-.263-.962,1.648,1.648,0,0,1,.193-.866c.013-.025.007-.227-.043-.183" transform="translate(-23.626 -4.176)" fill="#c96a57"/>
              <path id="Trazado_891275" data-name="Trazado 891275" d="M289.286,55.2a9.447,9.447,0,0,1,.711.9,5.164,5.164,0,0,1,.287.478c.045.084.091.166.133.25a.682.682,0,0,0,.127.209c.04.039.05-.06.047-.082a1.735,1.735,0,0,0-.22-.539,5.245,5.245,0,0,0-.662-.919,2.664,2.664,0,0,0-.411-.363c-.017-.013-.02.052-.011.062" transform="translate(-23.701 -4.517)" fill="#c96a57"/>
              <path id="Trazado_891276" data-name="Trazado 891276" d="M285.7,53.283a.983.983,0,0,0-.419-.263,1.515,1.515,0,0,0-.488-.06c-.166.006-.324.051-.487.069a1.343,1.343,0,0,0-.459.113,3.925,3.925,0,0,0-.829.586c-.138.118-.275.236-.406.361a1.3,1.3,0,0,0-.41.491c-.039.12-.1.47.062.543.07.038.1.038.129.018a19.811,19.811,0,0,1,1.543-1.267c.137-.086.265-.19.406-.27a1.286,1.286,0,0,1,.454-.127,3.1,3.1,0,0,1,.892.034c.078.013.043-.2.013-.229" transform="translate(-23.117 -4.339)" fill="#ac4832"/>
              <path id="Trazado_891277" data-name="Trazado 891277" d="M279.534,57.613c.047.014.092-.019.131-.04a.868.868,0,0,0,.143-.109c.09-.08.171-.173.258-.257.182-.177.361-.357.543-.534l.132-.127a.514.514,0,0,0,.153-.331c.017-.129.012-.326-.122-.39a.094.094,0,0,0-.116.022.967.967,0,0,0-.076.073,8.242,8.242,0,0,0-.577.611c-.1.116-.193.232-.284.353a1.335,1.335,0,0,0-.247.485c-.016.069-.027.218.061.243" transform="translate(-22.897 -4.573)" fill="#ac4832"/>
              <path id="Trazado_891278" data-name="Trazado 891278" d="M283.359,55.83c.129-.143.211-.326.335-.476a2.5,2.5,0,0,1,.47-.426,2.322,2.322,0,0,1,.552-.293c.2-.075.425-.107.629-.186.051-.019.04-.18-.012-.195a1.115,1.115,0,0,0-.655.073,2.267,2.267,0,0,0-.6.318,1.893,1.893,0,0,0-.761,1.115c0,.018.008.1.039.07" transform="translate(-23.213 -4.443)" fill="#383838"/>
              <path id="Trazado_891279" data-name="Trazado 891279" d="M280.188,58.191c.095-.1.195-.19.3-.278s.214-.19.33-.276a3.29,3.29,0,0,1,.372-.23,2.435,2.435,0,0,0,.407-.251c.033-.028.048-.165-.01-.175a.746.746,0,0,0-.436.1,2.187,2.187,0,0,0-.387.258,1.871,1.871,0,0,0-.336.335,2.259,2.259,0,0,0-.258.444c-.007.015,0,.1.023.07" transform="translate(-22.954 -4.668)" fill="#383838"/>
              <path id="Trazado_891280" data-name="Trazado 891280" d="M284.716,55.289c.172.312.162.647-.023.747s-.472-.069-.644-.381-.161-.647.023-.747.472.069.644.381" transform="translate(-23.262 -4.496)" fill="#383838"/>
              <path id="Trazado_891281" data-name="Trazado 891281" d="M281.3,57.988c.179.247.207.532.062.637s-.407-.01-.585-.258-.207-.532-.063-.636.408.01.586.257" transform="translate(-22.992 -4.727)" fill="#383838"/>
              <path id="Trazado_891282" data-name="Trazado 891282" d="M284.892,61.612s.412.493,1.173-.334c.658-.716.209-1,.209-1Z" transform="translate(-23.341 -4.939)" fill="#fff"/>
              <path id="Trazado_891283" data-name="Trazado 891283" d="M283.762,61.819a1.88,1.88,0,0,1,.258-1.222,2.492,2.492,0,0,1,1.271-1.106,3.7,3.7,0,0,1,1.632-.05,8.073,8.073,0,0,1-1.748,1.861c-.955.665-1.413.518-1.413.518" transform="translate(-23.247 -4.864)" fill="#ac4832"/>
              <path id="Trazado_891284" data-name="Trazado 891284" d="M283.17,60.244a.35.35,0,0,0,.161.087,1.211,1.211,0,0,0,.163.025.969.969,0,0,0,.336-.038,1.371,1.371,0,0,0,.568-.3,1.47,1.47,0,0,0,.377-.542,1.658,1.658,0,0,0,.1-.356.713.713,0,0,0-.02-.427c-.027-.057-.079-.063-.1,0a1.281,1.281,0,0,0-.058.313,1.04,1.04,0,0,1-.073.235,1.23,1.23,0,0,1-.346.463,1.315,1.315,0,0,1-.518.261,2.623,2.623,0,0,1-.3.05c-.051.006-.1.006-.151.009a.478.478,0,0,0-.135.041c-.053.02-.033.151,0,.178" transform="translate(-23.198 -4.805)" fill="#c96a57"/>
              <path id="Trazado_891285" data-name="Trazado 891285" d="M285.249,61.918a1.48,1.48,0,0,0,1.2-.93.566.566,0,0,0,.031-.4c-.034-.07-.068.006-.074.047a.207.207,0,0,0-.006.059.566.566,0,0,1-.068.247,1.375,1.375,0,0,1-.255.313,1.426,1.426,0,0,1-.831.391c-.088.007-.078.282,0,.274" transform="translate(-23.365 -4.962)" fill="#c96a57"/>
              <path id="Trazado_891286" data-name="Trazado 891286" d="M284.166,48.352a3.048,3.048,0,0,1,.237-1.658,2.985,2.985,0,0,1,.448-.709,3.265,3.265,0,0,1,.3-.306,1.66,1.66,0,0,0,.147-.143c.065-.072.1-.159.167-.23.027-.03.04-.249-.028-.23s-.126,0-.2.03a.75.75,0,0,0-.2.145,3.314,3.314,0,0,0-.326.355,3.426,3.426,0,0,0-.5.872,3.239,3.239,0,0,0-.153,1.969c.039.151.11-.024.1-.1" transform="translate(-23.266 -3.693)" fill="#3f1717"/>
              <path id="Trazado_891287" data-name="Trazado 891287" d="M275.571,51.472a1.249,1.249,0,0,0,1.317.679,2.809,2.809,0,0,0,1.6-1,9.75,9.75,0,0,1,1.541-1.448,6.321,6.321,0,0,1,.876-.5,8.433,8.433,0,0,0,.939-.4c.051-.032.063-.252-.016-.255a2.02,2.02,0,0,0-.834.248,6.3,6.3,0,0,0-.826.44,6.922,6.922,0,0,0-1.44,1.244,3.99,3.99,0,0,1-1.578,1.287,1.279,1.279,0,0,1-1.528-.472c-.045-.076-.076.143-.057.184" transform="translate(-22.577 -3.977)" fill="#3f1717"/>
              <path id="Trazado_891288" data-name="Trazado 891288" d="M279.261,49.315a3.144,3.144,0,0,1,.927-.83,4.5,4.5,0,0,1,1.208-.465c.024-.006.026-.08,0-.082a2.413,2.413,0,0,0-2.167,1.247c-.018.03,0,.179.032.13" transform="translate(-22.877 -3.927)" fill="#3f1717"/>
              <path id="Trazado_891289" data-name="Trazado 891289" d="M269.181,89.238a20.322,20.322,0,0,1,3.441-1.225,14.37,14.37,0,0,1,1.765-.335,14.231,14.231,0,0,0,1.832-.225c.1-.025.1-.321,0-.342a5.185,5.185,0,0,0-1.872.081,16.545,16.545,0,0,0-1.8.395,12.715,12.715,0,0,0-3.381,1.494c-.038.023-.03.18.018.158" transform="translate(-22.051 -7.132)" fill="#4b7cd0"/>
              <path id="Trazado_891290" data-name="Trazado 891290" d="M283.366,66.829a5.472,5.472,0,0,0-.749,2.931,15.637,15.637,0,0,0,.33,3.294,24.179,24.179,0,0,0,.786,2.91,29.083,29.083,0,0,0,1.221,3.176c.242.522.5,1.038.793,1.537a4.817,4.817,0,0,0,.853,1.2c.095.083.1-.143.078-.189-.187-.4-.436-.783-.655-1.171-.232-.411-.451-.832-.656-1.258a25.751,25.751,0,0,1-1.206-2.979,22.634,22.634,0,0,1-1.288-5.776,7.958,7.958,0,0,1,.548-3.521c.012-.033-.008-.227-.054-.156" transform="translate(-23.155 -5.474)" fill="#4b7cd0"/>
              <path id="Trazado_891291" data-name="Trazado 891291" d="M296.565,103.022a19.519,19.519,0,0,0,3.674,1.471c.629.18,1.265.326,1.907.45.32.061.64.121.964.156.16.017.324.043.484.048a2.921,2.921,0,0,0,.526-.064c.125-.019.133-.374.023-.417-.154-.06-.31-.137-.47-.183-.144-.041-.3-.059-.444-.086-.321-.062-.643-.117-.965-.175-.641-.118-1.276-.263-1.909-.418-1.262-.308-2.522-.681-3.752-1.1-.111-.038-.121.274-.038.318" transform="translate(-24.293 -8.414)" fill="#6cbbae"/>
              <path id="Trazado_891292" data-name="Trazado 891292" d="M300.351,107.775c.857,4.493,1.542,9.015,2.139,13.548.168,1.272.326,2.539.534,3.805.029.178.172.111.164-.044-.113-2.313-.414-4.616-.733-6.91s-.692-4.576-1.1-6.855q-.342-1.906-.721-3.805c-.02-.1-.094-.207-.194-.139s-.108.3-.089.4" transform="translate(-24.607 -8.796)" fill="#6cbbae"/>
              <path id="Trazado_891293" data-name="Trazado 891293" d="M307.216,90.762a8.487,8.487,0,0,0,2.022,2.471,9.946,9.946,0,0,0,1.3.927,3.242,3.242,0,0,0,1.4.577c.149.006.1-.378.024-.437a12.108,12.108,0,0,0-1.356-.777,9.9,9.9,0,0,1-1.249-.87,13.063,13.063,0,0,1-2.057-2.167c-.089-.114-.119.218-.088.274" transform="translate(-25.169 -7.412)" fill="#6cbbae"/>
              <path id="Trazado_891294" data-name="Trazado 891294" d="M309.878,89.161a20.412,20.412,0,0,1,3.689,10.282,19.271,19.271,0,0,1-.049,3.1c-.017.169.135.355.171.1a18.113,18.113,0,0,0-1.987-11.1,15.172,15.172,0,0,0-1.775-2.591c-.063-.073-.083.159-.05.207" transform="translate(-25.387 -7.287)" fill="#6cbbae"/>
              <path id="Trazado_891295" data-name="Trazado 891295" d="M295.508,137.774a11.2,11.2,0,0,0,1.746-1.787,8.611,8.611,0,0,0,1.315-2.224.3.3,0,0,0,.005-.215c-.017-.035-.057-.1-.1-.042-.451.683-.843,1.4-1.34,2.051a14.9,14.9,0,0,1-1.7,1.878c-.073.068-.019.409.067.338" transform="translate(-24.203 -10.936)" fill="#6cbbae"/>
              <path id="Trazado_891296" data-name="Trazado 891296" d="M286.9,174.292a6.088,6.088,0,0,0,1.774.5,13.842,13.842,0,0,0,1.909.181,12.888,12.888,0,0,0,1.872-.088,5.146,5.146,0,0,0,1.827-.463c.1-.05.11-.45-.027-.45a15.3,15.3,0,0,0-1.843.23,15.239,15.239,0,0,1-1.831.1,13.978,13.978,0,0,1-1.828-.124c-.612-.083-1.216-.241-1.832-.285-.117-.008-.1.348-.02.391" transform="translate(-23.501 -14.248)" fill="#6cbbae"/>
              <path id="Trazado_891297" data-name="Trazado 891297" d="M305.291,174.324a7.076,7.076,0,0,0,1.653.587,8.731,8.731,0,0,0,1.762.18,8.49,8.49,0,0,0,1.756-.172,6.126,6.126,0,0,0,.786-.209,5.237,5.237,0,0,0,.857-.431c.095-.054.1-.492-.027-.465-.278.063-.557.1-.836.162s-.544.137-.821.187a11.021,11.021,0,0,1-1.718.2,12.655,12.655,0,0,1-3.393-.385c-.086-.021-.095.306-.018.342" transform="translate(-25.008 -14.241)" fill="#6cbbae"/>
              <path id="Trazado_891298" data-name="Trazado 891298" d="M276.981,183.787c1.44,1.412,3.584,1.28,5.426,1.006,2.157-.321,4.319-.584,6.493-.744.6-.044,1.2-.089,1.8-.124a10.021,10.021,0,0,0,1.89-.2c.052-.012.053-.159,0-.171a6.992,6.992,0,0,0-1.633-.062q-.8.03-1.589.078c-1.072.062-2.144.162-3.212.276s-2.107.247-3.155.4a15.047,15.047,0,0,1-3.237.28,4.278,4.278,0,0,1-2.721-1.1c-.07-.068-.139.283-.063.357" transform="translate(-22.691 -15.028)" fill="#7cadf2"/>
              <path id="Trazado_891299" data-name="Trazado 891299" d="M293.851,181.059a3.3,3.3,0,0,0-1.862.4,2.062,2.062,0,0,0-.6.586,1.5,1.5,0,0,0-.251.853c0,.079.067.2.106.065a2.029,2.029,0,0,1,.92-1.1,3.746,3.746,0,0,1,.8-.344c.3-.1.6-.2.9-.31.038-.013.036-.153-.009-.154" transform="translate(-23.853 -14.834)" fill="#7cadf2"/>
              <path id="Trazado_891300" data-name="Trazado 891300" d="M281.628,181.457a7.92,7.92,0,0,0,4.3-1.415,3.978,3.978,0,0,0,1.138-1.069c.023-.039.048-.3-.047-.251a3.667,3.667,0,0,0-.584.437c-.187.144-.369.293-.562.43a10.277,10.277,0,0,1-1.313.79,10.432,10.432,0,0,1-2.939.913c-.051.008-.051.164,0,.164" transform="translate(-23.071 -14.642)" fill="#7cadf2"/>
              <path id="Trazado_891301" data-name="Trazado 891301" d="M302.992,183.458a13.1,13.1,0,0,0,4.622.88,13.469,13.469,0,0,0,2.354-.184,7.386,7.386,0,0,0,2.271-.682c.047-.026.054-.216-.013-.209-.762.068-1.5.26-2.261.357a18.326,18.326,0,0,1-2.353.154,18.868,18.868,0,0,1-4.606-.579c-.069-.018-.082.237-.015.263" transform="translate(-24.821 -15.009)" fill="#7cadf2"/>
              <path id="Trazado_891302" data-name="Trazado 891302" d="M304.467,181.79a5.036,5.036,0,0,1,5.581-.283,9.471,9.471,0,0,1,1.457,1.182c.073.066.082-.211.063-.247a4.31,4.31,0,0,0-3.262-2.121,4.8,4.8,0,0,0-3.859,1.316c-.033.03-.018.182.019.152" transform="translate(-24.942 -14.771)" fill="#7cadf2"/>
              <path id="Trazado_891303" data-name="Trazado 891303" d="M80.768,140.777c0,.559-2.214,1.04-5.37,1.244l-.43.028c-.932.05-1.937.08-2.985.08-.356,0-.708,0-1.051-.012-4.366-.08-7.73-.651-7.73-1.34,0-.746,3.93-1.353,8.781-1.353s8.784.607,8.784,1.353" transform="translate(-5.178 -11.423)" fill="#93b3c9"/>
              <path id="Trazado_891304" data-name="Trazado 891304" d="M77.277,163.347H68.059a1.161,1.161,0,0,1-1.16-1.161V161.2H78.437v.988a1.161,1.161,0,0,1-1.16,1.161" transform="translate(-5.481 -13.207)" fill="#93b3c9"/>
              <path id="Trazado_891305" data-name="Trazado 891305" d="M75.4,142.141c-.141.014-.283.019-.431.027-.927.054-1.937.081-2.986.081-.357,0-.707-.007-1.049-.014-4.365-.074-7.728-.646-7.728-1.338v14.15c0,2.919,2.085,5.28,4.655,5.28h8.246c2.575,0,4.66-2.361,4.66-5.28V140.9c0,.557-2.213,1.041-5.367,1.244" transform="translate(-5.178 -11.544)" fill="#93b3c9"/>
              <rect id="Rectángulo_412032" data-name="Rectángulo 412032" width="1.857" height="1.353" transform="translate(66.258 131.165)" fill="#93b3c9"/>
              <path id="Trazado_891306" data-name="Trazado 891306" d="M72.583,143.965v2.072a4.116,4.116,0,0,1-4.116,4.116H62.585a.828.828,0,0,1-.8-1.023l1.3-5.34v2.826l-.526,2.154a.574.574,0,0,0,.557.711h5.35a3.454,3.454,0,0,0,3.444-3.443v-2.072Z" transform="translate(-5.06 -11.781)" fill="#93b3c9"/>
              <path id="Trazado_891307" data-name="Trazado 891307" d="M39.065,96.571c0,.4-1.58.743-3.831.889l-.307.019c-.665.036-1.382.057-2.13.057-.253,0-.5,0-.75-.008-3.115-.057-5.516-.465-5.516-.957,0-.532,2.806-.965,6.266-.965s6.268.432,6.268.965" transform="translate(-2.174 -7.833)" fill="#8aa8bd"/>
              <path id="Trazado_891308" data-name="Trazado 891308" d="M36.573,112.676H30a.828.828,0,0,1-.828-.828v-.705H37.4v.705a.828.828,0,0,1-.828.828" transform="translate(-2.39 -9.106)" fill="#8aa8bd"/>
              <path id="Trazado_891309" data-name="Trazado 891309" d="M35.234,97.545c-.1.009-.2.015-.308.019-.662.039-1.382.057-2.13.057-.254,0-.5,0-.749-.009-3.114-.052-5.514-.461-5.514-.955v10.1a3.564,3.564,0,0,0,3.322,3.767h5.883a3.565,3.565,0,0,0,3.325-3.767v-10.1c0,.4-1.578.744-3.829.888" transform="translate(-2.174 -7.919)" fill="#8aa8bd"/>
              <rect id="Rectángulo_412033" data-name="Rectángulo 412033" width="1.326" height="0.965" transform="translate(30.232 90.03)" fill="#8aa8bd"/>
              <path id="Trazado_891310" data-name="Trazado 891310" d="M33.225,98.846v1.477a2.937,2.937,0,0,1-2.937,2.939h-4.2a.591.591,0,0,1-.573-.731l.931-3.809v2.016l-.376,1.535a.411.411,0,0,0,.4.509h3.816a2.465,2.465,0,0,0,2.457-2.459V98.846Z" transform="translate(-2.089 -8.088)" fill="#8aa8bd"/>
              <path id="Trazado_891311" data-name="Trazado 891311" d="M134.18,155.394c0,.684-2.706,1.272-6.561,1.521-.172.011-.349.023-.526.033-1.137.062-2.366.1-3.647.1-.434,0-.865-.006-1.284-.015-5.335-.1-9.446-.8-9.446-1.638,0-.913,4.8-1.653,10.73-1.653s10.733.74,10.733,1.653" transform="translate(-9.235 -12.596)" fill="#d3c0b2"/>
              <path id="Trazado_891312" data-name="Trazado 891312" d="M129.912,182.972H118.649a1.417,1.417,0,0,1-1.417-1.418v-1.206h14.1v1.206a1.417,1.417,0,0,1-1.417,1.418" transform="translate(-9.605 -14.776)" fill="#d3c0b2"/>
              <path id="Trazado_891313" data-name="Trazado 891313" d="M128.965,156.953c-.435.041-.88.074-1.348.107-.173.017-.345.026-.526.033-1.134.066-2.367.1-3.648.1-.436,0-.863-.008-1.283-.017-1.438-.025-2.761-.09-3.952-.2-3.279-.279-5.49-.813-5.49-1.438v17.29c0,3.567,2.548,6.451,5.687,6.451H128.48c3.147,0,5.695-2.885,5.695-6.451V155.54c0,.6-2.087,1.125-5.21,1.413" transform="translate(-9.235 -12.743)" fill="#e8d7c8"/>
              <rect id="Rectángulo_412034" data-name="Rectángulo 412034" width="2.269" height="1.653" transform="translate(113.541 145.011)" fill="#fff"/>
              <path id="Trazado_891314" data-name="Trazado 891314" d="M124.178,159.29v2.531a5.03,5.03,0,0,1-5.029,5.029h-7.186a1.01,1.01,0,0,1-.981-1.25l1.593-6.524v3.451l-.643,2.634a.7.7,0,0,0,.681.868h6.536a4.22,4.22,0,0,0,4.208-4.208V159.29Z" transform="translate(-9.09 -13.033)" fill="#fff"/>
              <path id="Trazado_891315" data-name="Trazado 891315" d="M128.381,156.668c-.055,0,1.291.927,1.29,1.021-.007.711.228,4.933-1.092,7.5a3.18,3.18,0,0,0,.785,3.955c.212.2.529-.02.468-.331a4.934,4.934,0,0,1,.277-2.85,18.143,18.143,0,0,0,1.278-6.193,13.862,13.862,0,0,0,.051-2.666c-.018-.125.014-.186-.09-.225a15.176,15.176,0,0,0-2.967-.213" transform="translate(-10.503 -12.836)" fill="#5288d8"/>
              <path id="Trazado_891316" data-name="Trazado 891316" d="M129.455,157.045c-.435.041-.879.074-1.348.107-.173.017-.345.026-.526.033-1.134.066-2.367.1-3.648.1-.436,0-.863-.008-1.283-.017-1.438-.025-2.761-.09-3.952-.2a19.812,19.812,0,0,1,4.314-.313c2.055.124,4.348-.237,4.89-.016a7.04,7.04,0,0,0,1.553.3" transform="translate(-9.725 -12.836)" fill="#5288d8"/>
              <path id="Trazado_891317" data-name="Trazado 891317" d="M132.354,166.76a.1.1,0,0,1-.071-.178,4.338,4.338,0,0,0,.126-2.979,3.744,3.744,0,0,1,.5-2.264,4.674,4.674,0,0,0,.508-1.665,7.3,7.3,0,0,0-1-2.8.1.1,0,0,1,.176-.106,7.336,7.336,0,0,1,1.025,2.906,4.794,4.794,0,0,1-.524,1.747,3.619,3.619,0,0,0-.489,2.128c.319,1.193.227,2.8-.183,3.184a.11.11,0,0,1-.071.028" transform="translate(-10.835 -12.84)" fill="#5288d8"/>
            </g>
          </g>
        </g>
      </g>
    </g>
  </g>
</svg>
