<svg xmlns="http://www.w3.org/2000/svg" xmlns:xlink="http://www.w3.org/1999/xlink" width="190" height="154" viewBox="0 0 190 154">
  <defs>
    <clipPath id="clip-path">
      <rect id="Rect치ngulo_412051" data-name="Rect치ngulo 412051" width="190" height="154" transform="translate(705.051 4591)" fill="#fff" stroke="#707070" stroke-width="1"/>
    </clipPath>
    <clipPath id="clip-path-2">
      <rect id="Rect치ngulo_412050" data-name="Rect치ngulo 412050" width="127.892" height="140.038" fill="#ffb74d"/>
    </clipPath>
  </defs>
  <g id="Enmascarar_grupo_1098749" data-name="Enmascarar grupo 1098749" transform="translate(-705.051 -4591)" clip-path="url(#clip-path)">
    <g id="Grupo_1121778" data-name="Grupo 1121778" transform="translate(731.23 4591)">
      <g id="Grupo_1121777" data-name="Grupo 1121777" clip-path="url(#clip-path-2)">
        <path id="Trazado_891319" data-name="Trazado 891319" d="M17.138,100.755c0-4.762-.022-9.2.014-13.643.009-1.169-.676-1.2-1.523-1.193-3.483.011-6.968.032-10.451-.016-1.848-.026-2.757-.816-2.759-2.609C2.409,71.4,2.16,59.5,2.6,47.618c.317-8.631,5.1-14.8,12.829-18.582,1.278-.624,1.8-1.263,1.707-2.682-.127-1.854-.07-3.724-.014-5.584.052-1.753.987-2.741,2.453-2.738s2.4,1,2.44,2.743c.047,2.025.011,4.052.011,6.115H81.061c.039-.75.1-1.381.1-2.013.014-5.587.014-11.173.029-16.761.007-2.555.777-3.328,3.313-3.351,1.254-.011,2.507,0,3.876,0C88.8,2.824,87.863-.1,91.091,0c2.972.1,2.1,2.782,2.407,4.763,1.422,0,2.788-.018,4.153,0,2.228.037,3.058.825,3.069,3.039.027,5.647.011,11.294.011,16.941v2.163a18.4,18.4,0,0,1,13.732,7.339c3.418,4.489,3.781,9.707,3.459,14.744a29.087,29.087,0,0,1,5.173.645c2.987.939,4.672,3.629,4.708,7.151.05,5.046.015,10.092.016,15.139,0,3.3-.195,6.622.043,9.909.41,5.646-3.344,9.968-9.9,8.746v2.129q0,21.806,0,43.612c0,3.166-.524,3.709-3.63,3.709q-55.318,0-110.636,0c-3.167,0-3.685-.515-3.687-3.652Q0,120.356,0,104.33c0-2.932.651-3.567,3.624-3.572,4.429-.008,8.859,0,13.509,0M29.481,81a2.969,2.969,0,0,0,.142-.535q.018-6.489.025-12.978c0-3.281.608-3.908,3.882-3.891q20.814.113,41.626.247c2.764.016,3.48.736,3.481,3.542q.006,16.493,0,32.986c0,3.184.015,6.369-.007,9.553-.016,2.226-.8,3-3.045,3.062-.84.023-1.682,0-2.523.006l-66.133.141c-.642,0-1.284,0-2.032,0v7.121c.74.034,1.384.09,2.028.09q52.082.007,104.164.039c1.666,0,2.113-.472,2.106-2.119-.058-15.622-.035-31.244-.035-46.865,0-8.592.03-17.184-.01-25.776-.035-7.409-4.589-12.775-11.66-13.716a37.252,37.252,0,0,0-4.856-.079q-35.5-.03-71-.048C14.8,31.781,7.293,39.3,7.279,50.14q-.019,14.42,0,28.84V81Zm44.172,27.067V68.718h-39.1c0,4.58.01,9.135,0,13.689-.009,2.8-.72,3.5-3.534,3.512-2.927.013-5.854,0-8.827,0v14.805c5.546,0,10.949-.018,16.352.009,2.348.011,3.15.827,3.2,3.146.031,1.362.006,2.726.006,4.184Zm44.762-38.1c0,4.326-.01,8.653,0,12.978.006,1.812.767,2.805,2.113,2.71,1.595-.113,2.091-1.2,2.091-2.621q0-13.068,0-26.137c0-1.426-.5-2.507-2.093-2.619-1.348-.093-2.1.9-2.111,2.711-.014,4.326,0,8.653,0,12.978M36.663,105.837H5.14c-.575,1.642-.122,2.246,1.591,2.237,9.425-.053,18.852-.024,28.277-.03.526,0,1.052-.071,1.655-.114Z" transform="translate(0 0)" fill="#ffb74d"/>
        <path id="Trazado_891321" data-name="Trazado 891321" d="M183.31,221.476c-3.836,0-7.672.019-11.509,0-2.5-.015-3.213-.744-3.229-3.212-.013-2.1-.033-4.2.009-6.294.036-1.777.861-2.712,2.645-2.723q12.047-.071,24.095,0c1.842.011,2.683.967,2.727,2.867q.077,3.235,0,6.474c-.044,2-.881,2.856-2.872,2.878-3.956.044-7.912.013-11.868.015m9.772-7.253H173.541v2.322h19.541Z" transform="translate(-87.406 -108.485)" fill="#ffb74d"/>
        <path id="Trazado_891322" data-name="Trazado 891322" d="M173.751,163.058a11.738,11.738,0,1,1,11.84,11.673,11.653,11.653,0,0,1-11.84-11.673m18.431-.013a6.708,6.708,0,1,0-6.761,6.647,6.577,6.577,0,0,0,6.761-6.647" transform="translate(-90.099 -78.434)" fill="#ffb74d"/>
        <path id="Trazado_891323" data-name="Trazado 891323" d="M186.16,127.535a2.361,2.361,0,0,1-4.719-.076,2.328,2.328,0,0,1,2.409-2.361,2.294,2.294,0,0,1,2.31,2.437" transform="translate(-94.085 -64.87)" fill="#ffb74d"/>
        <path id="Trazado_891324" data-name="Trazado 891324" d="M186.161,101.848a2.317,2.317,0,0,1-2.325,2.435,2.357,2.357,0,0,1-2.393-2.391,2.36,2.36,0,0,1,4.718-.044" transform="translate(-94.086 -51.633)" fill="#ffb74d"/>
        <path id="Trazado_891325" data-name="Trazado 891325" d="M209.294,99.566a2.283,2.283,0,0,1,2.42,2.334,2.25,2.25,0,0,1-2.215,2.368,2.4,2.4,0,0,1-2.539-2.256,2.37,2.37,0,0,1,2.334-2.446" transform="translate(-107.318 -51.63)" fill="#ffb74d"/>
        <path id="Trazado_891326" data-name="Trazado 891326" d="M211.735,127.375a2.378,2.378,0,1,1-4.755.07,2.272,2.272,0,0,1,2.257-2.338,2.32,2.32,0,0,1,2.5,2.268" transform="translate(-107.328 -64.871)" fill="#ffb74d"/>
      </g>
    </g>
  </g>
</svg>
