<svg xmlns="http://www.w3.org/2000/svg" width="66.597" height="151.762" viewBox="0 0 66.597 151.762">
  <g id="Grupo_1124835" data-name="Grupo 1124835" transform="translate(0 -77.113)">
    <path id="Trazado_883785" data-name="Trazado 883785" d="M0,296.17,2.891,298.4H17.269L0,285.086Z" transform="translate(0 -69.523)" fill="#ffb74d"/>
    <path id="Trazado_883786" data-name="Trazado 883786" d="M0,260.534l33.666,25.951H48.045L0,249.45Z" transform="translate(0 -57.61)" fill="#ffb74d"/>
    <path id="Trazado_883787" data-name="Trazado 883787" d="M0,224.9l64.442,49.674H66.6V265.15L0,213.814Z" transform="translate(0 -45.698)" fill="#ffb74d"/>
    <path id="Trazado_883788" data-name="Trazado 883788" d="M0,189.262,66.6,240.6V229.514L0,178.179Z" transform="translate(0 -33.785)" fill="#ffb74d"/>
    <path id="Trazado_883789" data-name="Trazado 883789" d="M0,153.627l66.6,51.336V193.878L0,142.543Z" transform="translate(0 -21.872)" fill="#ffb74d"/>
    <path id="Trazado_883790" data-name="Trazado 883790" d="M0,117.991l66.6,51.335V158.243L0,106.907Z" transform="translate(0 -9.96)" fill="#ffb74d"/>
    <path id="Trazado_883791" data-name="Trazado 883791" d="M0,77.113v7.194l66.6,51.336V124.559L5.045,77.113Z" fill="#ffb74d"/>
    <path id="Trazado_883792" data-name="Trazado 883792" d="M32.209,77.113,77.364,111.92V100.836L46.589,77.113Z" transform="translate(-10.767)" fill="#ffb74d"/>
    <path id="Trazado_883793" data-name="Trazado 883793" d="M78.44,77.113,92.818,88.2V77.113Z" transform="translate(-26.222)" fill="#ffb74d"/>
  </g>
</svg>
