<svg id="Grupo_1124922" data-name="Grupo 1124922" xmlns="http://www.w3.org/2000/svg" xmlns:xlink="http://www.w3.org/1999/xlink" width="607.391" height="186.22" viewBox="0 0 607.391 186.22">
  <defs>
    <clipPath id="clip-path">
      <rect id="Rectángulo_413609" data-name="Rectángulo 413609" width="607.391" height="186.22" fill="#12263f"/>
    </clipPath>
  </defs>
  <g id="Grupo_1124921" data-name="Grupo 1124921" clip-path="url(#clip-path)">
    <g id="Grupo_1124920" data-name="Grupo 1124920">
      <g id="Grupo_1124919" data-name="Grupo 1124919" clip-path="url(#clip-path)">
        <path id="Trazado_896050" data-name="Trazado 896050" d="M582.447,138.375H44.064l-.075-1.921c0-.126-.5-12.715-.744-25.224-.524-26.737.355-27.031,2.11-27.615l.308-.1H71.73V29.158l95.026,56.336h35.1V24.52L303.185,83.513h25.5V15.005L431.706,85.494h29.088V28.262l82.533,55.251h39.12Zm-534.536-4H578.447V87.513H542.112L464.794,35.754v53.74H430.468l-.51-.349L332.683,22.589V87.513H302.105L205.858,31.477V89.494h-40.2l-.472-.279L75.73,36.18V87.513H47.449c-.666,5.308-.3,26.932.462,46.862" fill="#12263f"/>
        <path id="Trazado_896051" data-name="Trazado 896051" d="M178.523,81.5l-2.5-2.5c-9.746-9.734-38.856-32.535-79.273-49.153C46.914,9.358,9.855,34.707,9.486,34.966a2,2,0,0,1-2.3-3.272c.385-.272,39.148-26.9,91.086-5.546C136.294,41.782,164.5,62.862,176.34,73.77c1.288-5.029,3.9-15.045,6.81-25.134,8.522-29.56,11.228-30.95,12.528-31.618,2.019-1.036,6.749-3.461,58.925,26.335,20.779,11.866,41.011,24.253,47.776,28.425,2.78-11.667,12.926-51.383,23.87-58.9,12.089-8.3,47.354,14.347,88.772,42.525,13.473,9.166,25.3,17.211,30.812,19.644.455-2.278,1.028-6.761,1.548-10.823,1.886-14.733,4.469-34.91,9.913-41.428,4.087-4.9,13.779.4,29.833,9.179C501.571,39.872,519.534,49.69,539.8,55.8c19.286,1.858,48.2,4.548,51.989,4.651a1.967,1.967,0,0,1,1.1.047,2.07,2.07,0,0,1,1.377,2.343c-.376,1.774-1.8,1.679-4.39,1.506-1.461-.1-3.542-.262-6.038-.472-4.4-.368-10.518-.914-18.2-1.622-13.216-1.218-26.422-2.49-26.422-2.49l-.382-.075c-20.75-6.224-39.756-16.613-53.634-24.2-10.715-5.857-22.861-12.5-24.844-10.124-4.7,5.621-7.4,26.748-9.016,39.372-1.514,11.829-1.821,13.588-3.169,14.489a2.178,2.178,0,0,1-1.766.292c-5.12-1.4-17.707-9.961-33.643-20.8-16.086-10.944-34.318-23.348-50.436-32.282-22.293-12.359-30.7-12.4-33.823-10.253-9.173,6.3-19.617,44.875-22.867,59.208l-.621,2.74-2.386-1.484c-.241-.151-24.429-15.189-49.552-29.55C207.2,20.859,198.979,20.1,197.537,20.567c-3.054,2.6-11.61,31.2-18.16,57.5Z" fill="#12263f"/>
        <path id="Trazado_896052" data-name="Trazado 896052" d="M171.915,69.753l-2.537-2.683C128.315,23.651,86.265,14.9,58.26,15.263,27.838,15.621,6.828,26.406,6.62,26.515a2,2,0,0,1-1.854-3.544c.88-.461,21.921-11.291,53.25-11.705,28.291-.363,70.42,8.161,111.745,50.432,3.156-12.421,13.359-49.644,23.592-55.327a5.919,5.919,0,0,1,4.856-.578c6.337,2.112,33.476,15.6,56.01,27.229,12.705,6.559,24.3,12.706,32.634,17.3,5.979,3.3,9.641,5.417,11.89,6.855C301.9,45.773,317.5,3.9,330.144.358c2.77-.775,11.189-3.132,62.971,30.216,20.374,13.121,39.633,26.755,46.451,31.633,2.149-12.24,8.4-45.384,13.936-50.552,3.96-3.7,14.808,1.443,37.013,12.469,15.351,7.622,32.752,16.263,45.4,19.285a314.993,314.993,0,0,0,46.562,7.741,2,2,0,0,1-.266,3.991A319.086,319.086,0,0,1,534.989,47.3c-13.094-3.129-30.711-11.876-46.254-19.594-12.621-6.266-29.9-14.848-32.518-13.114-3.955,3.693-10.228,33.512-13.25,51.436l-.535,3.181-2.611-1.894c-37.392-27.122-97.172-66.3-108.6-63.106-10.581,2.963-27.817,48.082-29.071,55.739a1.883,1.883,0,0,1,.224.895,2.088,2.088,0,0,1-1.163,2.021,2.139,2.139,0,0,1-2.993-1.235c-8.35-6.316-89.592-48.146-101.277-52.041a1.931,1.931,0,0,0-1.648.28c-8.537,4.74-19.151,42.244-22.519,56.294Z" fill="#12263f"/>
      </g>
    </g>
  </g>
</svg>
