<svg id="Grupo_1124924" data-name="Grupo 1124924" xmlns="http://www.w3.org/2000/svg" xmlns:xlink="http://www.w3.org/1999/xlink" width="682.606" height="133.468" viewBox="0 0 682.606 133.468">
  <defs>
    <clipPath id="clip-path">
      <rect id="Rectángulo_413610" data-name="Rectángulo 413610" width="682.606" height="133.468" fill="#12263f"/>
    </clipPath>
  </defs>
  <g id="Grupo_1124923" data-name="Grupo 1124923" clip-path="url(#clip-path)">
    <path id="Trazado_896053" data-name="Trazado 896053" d="M506.146,4.783c-46.005,0-100.788-.041-163.8-.124C175.379,4.441,6.324,4.005,4.637,4a2,2,0,0,1,.005-4h0C233.27.594,666.938,1.375,680,.092a2.006,2.006,0,0,1,2.45,2.685c-.57,1.37-.57,1.37-9.525,1.52-4.858.081-12.113.152-21.563.214-17.572.112-43.37.191-76.682.233-20.055.026-42.942.039-68.537.039" fill="#12263f"/>
    <path id="Trazado_896054" data-name="Trazado 896054" d="M678.4,48.037H2a2,2,0,0,1,0-4H678.4a2,2,0,0,1,0,4" fill="#12263f"/>
    <path id="Trazado_896055" data-name="Trazado 896055" d="M507.778,133.468H93.357V49.119a2,2,0,0,1,4,0v80.349H503.778V46.037a2,2,0,1,1,4,0Z" fill="#12263f"/>
    <path id="Trazado_896056" data-name="Trazado 896056" d="M327.043,85.612c-.955,0-1.8-.945-2.983-2.273-.906-1.016-2.183-2.48-3.708-4.243-3.034-3.511-7.051-8.212-11.058-12.92-4.7-5.518-9.381-11.047-12.451-14.675V83.468a2,2,0,0,1-3.509,1.314l-29.078-33.4V83.468a2,2,0,0,1-3.456,1.371L229.026,51.081V83.468a2,2,0,0,1-3.5,1.324L196,51.327V83.468a2,2,0,0,1-3.518,1.3L163.852,51.436V83.468a2,2,0,0,1-3.491,1.333L130.385,51.275V83.468a2,2,0,0,1-3.414,1.414l-29.5-29.5a2,2,0,0,1,2.828-2.828l26.091,26.09v-32.6a2,2,0,0,1,3.491-1.333l29.976,33.526V46.038a2,2,0,0,1,3.518-1.3L192,78.07V46.038a2,2,0,0,1,3.5-1.324l29.527,33.465V46.038a2,2,0,0,1,3.456-1.371l31.774,33.758V46.038a2,2,0,0,1,3.509-1.314l29.078,33.4V46.038a2,2,0,0,1,3.528-1.29C305.605,55.682,318.6,70.993,324.8,78.125c.09-2.24.272-5.25.537-9.337.4-6.255,1.043-16.122.657-20.019-1.537-2.123-1.309-2.688-1.021-3.4a2.153,2.153,0,0,1,2.015-1.335,2.436,2.436,0,0,1,1.79.793,4.6,4.6,0,0,1,.991,2.339c3.908,4.84,17.528,18.631,30.888,31.656V46.038a2,2,0,0,1,3.5-1.322l29.526,33.542V46.038a2,2,0,0,1,3.528-1.291l28.179,33.345V46.038a2,2,0,0,1,3.493-1.331l29.975,33.6V46.038a2,2,0,0,1,3.451-1.376l30.307,31.967,11.429-19.7a2,2,0,1,1,3.461,2.007L494.738,80.95a2,2,0,0,1-3.181.372l-28.7-30.268v32.5a2,2,0,0,1-3.492,1.331l-29.976-33.6V83.557a2,2,0,0,1-3.527,1.291L397.686,51.5V83.557a2,2,0,0,1-3.5,1.321L364.659,51.336V83.557a2,2,0,0,1-3.391,1.437c-.092-.089-9.275-8.984-18.242-18.005C336.951,60.877,332.85,56.627,330.1,53.62c-.055,3.619-.329,8.593-.771,15.425-.353,5.461-.791,12.236-.513,13.61a2.1,2.1,0,0,1-.628,2.528,1.969,1.969,0,0,1-1.146.429m1.662-3.173,0,0,0,0" fill="#12263f"/>
    <path id="Trazado_896057" data-name="Trazado 896057" d="M504.457,88.135H95.357a2.025,2.025,0,0,1,0-4.049h409.1a2.025,2.025,0,0,1,0,4.049" fill="#12263f"/>
  </g>
</svg>
