<svg id="Grupo_1124917" data-name="Grupo 1124917" xmlns="http://www.w3.org/2000/svg" xmlns:xlink="http://www.w3.org/1999/xlink" width="571.41" height="157.203" viewBox="0 0 571.41 157.203">
  <defs>
    <clipPath id="clip-path">
      <rect id="Rectángulo_413607" data-name="Rectángulo 413607" width="571.41" height="157.203" fill="#12263f"/>
    </clipPath>
  </defs>
  <g id="Grupo_1124916" data-name="Grupo 1124916" clip-path="url(#clip-path)">
    <path id="Trazado_896047" data-name="Trazado 896047" d="M567.311,33.989h-.019c-37.005-.346-54.642-5.916-55.932-6.34C456.582,12.439,431.68,19.565,409,28.906c-17.716,7.3-20.09,6.019-38.572-3.889-6.29-3.372-14.118-7.569-25.151-12.894-40.149-19.372-64.481.583-75.41,14.2-8.69,10.829-18.587,5.6-20.365,4.528-2.156-.742-19.964-6.888-33.525-11.961-41.63-15.57-59.925-.968-60.1-.818l-.356.238C115.122,39.492,106.569,35.3,78.227,21.4c-2.419-1.186-4.986-2.445-7.736-3.767-32.73-15.737-56.967,6.688-57.207,6.916a2,2,0,0,1-2.752-2.9c.261-.247,26.508-24.529,61.691-7.617,2.761,1.327,5.338,2.591,7.766,3.782,27.6,13.537,35.053,17.19,73.494-2.943,2.213-1.741,21.643-15.52,63.9.285,14.332,5.361,33.446,11.933,33.637,12l.266.091.23.161c.809.553,8.192,5.2,15.236-3.575,11.672-14.548,37.622-35.883,80.267-15.3,11.111,5.362,19.314,9.76,25.3,12.971,18.108,9.71,19.192,10.29,35.157,3.715,22.431-9.237,49.016-16.953,105-1.4l.1.031c.174.057,17.833,5.8,54.753,6.15a2,2,0,0,1-.019,4" fill="#12263f"/>
    <path id="Trazado_896048" data-name="Trazado 896048" d="M384.524,56.135c-8.538,0-19.775-6.428-32.519-13.716-12.537-7.171-25.5-14.586-37.259-16.7-17.6-3.16-24.884,7.47-30.737,16.01-2.306,3.367-4.3,6.274-6.681,8.061-8.149,6.112-30.506,6.311-62.089-7.022q-2.5-1.057-4.795-2.036c-25.691-10.941-32.6-13.883-63.581.973-4.057,1.945-7.584,3.723-10.7,5.291-23.894,12.041-26.722,12.555-69.5-4.209C53.156,37.5,33.634,32.4,17.344,38.161,7.709,41.572,3.691,47.282,3.652,47.34a2,2,0,0,1-3.31-2.247c.711-1.053,17.983-25.541,67.781-6.026,42.135,16.511,43.956,15.595,66.244,4.361,3.129-1.576,6.675-3.364,10.767-5.326,32.617-15.636,41.249-11.961,66.877-1.047,1.529.651,3.119,1.329,4.784,2.031,29.955,12.647,51.133,12.759,58.132,7.509,1.856-1.392,3.676-4.048,5.783-7.123,6.161-8.99,14.6-21.3,34.743-17.687,12.437,2.233,26.3,10.164,38.539,17.163,13.358,7.64,25.981,14.865,33.234,12.848,4.569-1.265,9.793-3.065,15.324-4.973,12.866-4.433,27.447-9.459,40.586-10.18,18.172-1,74.1,14.156,78.984,15.49h47.291a2,2,0,0,1,0,4H521.582l-.26-.071c-.6-.163-60.016-16.411-77.967-15.425-12.583.69-26.884,5.619-39.5,9.969-5.592,1.926-10.873,3.747-15.559,5.046a14.1,14.1,0,0,1-3.771.483" fill="#12263f"/>
    <path id="Trazado_896049" data-name="Trazado 896049" d="M571.41,157.2H9.908V98.623H38.97V42.788l98.949,55.835h35.8V35.029L275.38,98.623H309.8V28.214L413.475,98.623h32.394V41.178l87.15,57.445H571.41Zm-557.5-4h553.5v-50.58H531.82L449.869,48.6v54.018H412.245L313.8,35.765v66.858H274.231l-.486-.305L177.722,42.25v60.373H136.868L42.97,49.638v52.985H13.908Z" fill="#12263f"/>
  </g>
</svg>
