<svg xmlns="http://www.w3.org/2000/svg" xmlns:xlink="http://www.w3.org/1999/xlink" width="342" height="342" viewBox="0 0 342 342">
  <defs>
    <clipPath id="clip-path">
      <rect id="Rect치ngulo_415861" data-name="Rect치ngulo 415861" width="303.873" height="106.166" fill="none"/>
    </clipPath>
  </defs>
  <g id="Grupo_1129394" data-name="Grupo 1129394" transform="translate(-6791 9632.477)">
    <g id="Grupo_1129347" data-name="Grupo 1129347" transform="translate(0 -0.477)">
      <g id="Grupo_1129311" data-name="Grupo 1129311" transform="translate(-715 498)">
        <rect id="Rect치ngulo_415859" data-name="Rect치ngulo 415859" width="342" height="342" rx="22" transform="translate(7506 -10130)" fill="#edf7ed"/>
        <g id="Grupo_1129310" data-name="Grupo 1129310" transform="translate(7543.93 -10012)" style="mix-blend-mode: multiply;isolation: isolate">
          <g id="Grupo_1129309" data-name="Grupo 1129309" clip-path="url(#clip-path)">
            <path id="Trazado_900982" data-name="Trazado 900982" d="M42.409,2.831c1.372-.636,2.043-1.667,3.229-2.212C46.758.1,51.309-.487,51.776.97c-.69,1.346-4.491,1.2-5.841,1.144,4.71,1.454,12.607,7.477,15.263,11.55A80.4,80.4,0,0,1,71.186,36.5a67.152,67.152,0,0,1,1.837,13.422c.186,4.6-.271,9.077-.508,13.654a1.019,1.019,0,0,0,.3.979c1.755-.374,3.954-4.9,5.935-5.847l.24.089c-.3,1.618-5.99,6.406-6.747,7.829-1.514,2.844-2.075,7.144-2.777,10.4,3.845-3.307,7.018-7.51,10.528-11.154.564-.585,8.468-7.769,8.8-7.815-.725,2.271-5.526,5.259-7.146,7.252-4.19,5.154-9.111,9.843-13.147,15.1A53.87,53.87,0,0,0,65.63,85.44,86.155,86.155,0,0,1,57.205,97.8c-1.06,1.194-5.04,3.109-6.815,4.558a23.052,23.052,0,0,0,4.593-.724,11.964,11.964,0,0,1,1.563-1.694c4.831-4.285,8.845-9.316,13.264-14.016,3.677-3.912,7.6-7.632,11.282-11.538q5.757-6.225,11.7-12.27c2.055-2.107,4.37-4.555,6.536-6.491-2.013,3.459-4.834,5.6-7.347,8.542C82.932,74.775,72.332,83.885,64.041,95.13c.7.643,1.475,1.487,2.145,2.183q-1.809-.392-3.628-.74a7.249,7.249,0,0,0-2.96,2.745,33.2,33.2,0,0,0,2.517,2.829c2.9-.692,6.086-5.252,8.25-7.352,7.6-7.374,14.842-15.106,22.322-22.607,2.319-2.327,4.258-5.1,6.588-7.439,2.8-2.819,5.84-5.357,8.512-8.3a1.873,1.873,0,0,1,1.035-.5l.125.244c-.714,2.065-6.9,6.659-8.559,8.737-7.948,9.94-17.505,18.152-25.446,28.087-1.719,2.151-3.307,2.518-5.242,5.488.586.821,2.209,2.426,3,3.309,2-1.646,4.854-4.756,6.872-6.693,9.5-9.108,18.384-18.975,27.64-28.307,2.241-2.259,8.923-9.615,11.1-10.858l.213.074c-.5,1.315-3.718,4.073-4.848,5.25-2.064,2.148-3.974,4.387-6.015,6.549L85.748,91.512c-1.917,2.078-3.514,3.314-5.485,5.681a18.5,18.5,0,0,0,4.046,3.2l28.4-29.557c3.408-3.556,6.453-7.282,10.213-10.558,1.784-1.553,3.489-3.966,5.539-5.183-1.465,3.228-7.429,7.924-9.959,10.8-4.477,5.085-9.13,10.125-13.761,15.075l-8.133,8.7a61.488,61.488,0,0,0-4.421,4.905c-.456.611-.1,1.6.074,2.368-.531.265-.462-.373-1.378-.388a14.075,14.075,0,0,0-4.733,5.238c.009.235-.033.5.148.623,2.649,1.74,6.232-.553,7.264-3.16a4.716,4.716,0,0,1-.232-1.136c.582.086,1.813.272,2.279-.081a35.2,35.2,0,0,0,3.513-3.312c1.756-1.786,3.619-3.448,5.345-5.237,1.169-1.213,2.249-2.777,3.416-4,1.307-1.375,2.764-2.61,4.1-3.971l11.073-11.441c2.784-2.888,5.423-5.576,8.279-8.381,3.34-3.28,5.409-5.992,9.307-8.837-1.322,2.51-4.286,4.714-6.2,6.838-2.51,2.791-5.3,5.4-7.87,8.121l-18.35,19.473c-1.918,2.06-3.607,4.275-5.479,6.309-1.771,1.925-4.056,4.05-5.965,5.89.969,1.268,2.877,3.974,4.791,2.246,1.249-1.129,2.135-3.042,3.332-4.256.639-.649,2.075-.958,2.753-1.629,5.347-6.211,11.581-11.672,17.143-17.65,2.993-3.217,5.748-6.1,8.856-9.218l7.273-7.41c1.252-1.251,5.146-5.686,6.381-6.207L147,55.5h.319c.065.971-3.141,3.783-3.8,4.534-4.753,5.385-9.8,10.5-14.883,15.573-2.573,3.011-5.545,5.9-8.12,8.871-3.531,4.069-9.576,9.322-12.391,13.639a7.726,7.726,0,0,0,3.441,3.462c1.19-1.48,3.109-3.217,4.478-4.6,2.812-2.849,5.685-5.651,8.482-8.517L156.006,56.22c.367-.379.58-.621,1.048-.636,0,1.113-5.416,6.188-6.436,7.283l-21.4,22.588c-2.476,2.64-8.193,8.61-10.175,11.424a17.5,17.5,0,0,0,3.274,3.3c5.425-3.83,10.9-11.014,15.9-15.569,1.415-1.289,2.754-3.252,4.175-4.624,3.888-3.517,7.33-7.617,11.11-11.206,3.982-3.78,7.621-7.7,11.487-11.587.63-.634,2.674-2.843,3.483-2.717,0,.125,0,.251,0,.376-1.4,1.524-3.767,3.827-5.131,5.2-1.757,1.768-3.331,4.118-4.95,5.684-4.478,4.331-8.715,8.677-13,13.187-1.456,1.532-2.814,3.347-4.236,4.842-3.711,3.9-7.32,7.77-10.738,11.942-1.381,1.687-3.649,3.313-4.539,5.311a1.207,1.207,0,0,0,.079,1.215,3.705,3.705,0,0,0,5.279-.94,29.576,29.576,0,0,1,3-3.9,3.445,3.445,0,0,0,2.621-1.379c5.1-5.063,9.992-10.325,14.965-15.51q9.322-9.663,18.879-19.1c1.86-1.864,6.2-6.45,8.112-7.81l.079.1c-1.1,1.991-7,7.686-8.955,9.721l-14.159,14.9c-5.941,6.237-11.871,12.527-17.322,19.2-.852,1.042-4.385,3.507-4.578,4.608.792.786,3.808.884,4.8.5.376-.914-.29-1.094,0-1.836a4.6,4.6,0,0,1,1.889.512,41.717,41.717,0,0,1,3.217-3.561c1.043-.935,2.487-1.791,3.477-2.762,3.229-3.169,6.55-6.232,9.8-9.373,2-2,3.757-4.251,5.715-6.284,3.843-3.99,7.561-8.007,11.638-11.767,2.03-1.872,3.993-4.568,6.06-6.367,1.175-1.023,5.557-5.787,6.672-5.969l.157.168c-.2.8-6.178,6.667-7.376,7.93q-13.046,13.536-25.682,27.458c-1.848,2.049-3.956,3.92-5.727,6.019a2.976,2.976,0,0,0-.79,1.371c-.03.192.179.463.293.6a4.653,4.653,0,0,0,2.794,1.514c1.025.052,12.921-11.366,14.18-12.63,1.726-1.733,3.3-3.611,5-5.371,5.048-5.239,10.166-10.468,15.313-15.607,2.2-2.2,4.633-4.149,6.836-6.335,1.207-1.2,2.235-2.528,3.525-3.647-1.961,4.221-3.559,4.2-6.583,7.41L167.608,86.888c-2.837,3.016-7.119,6.806-9.329,10.1a15.862,15.862,0,0,0,2.789,3.77c1.269-1.141,2.526-2.56,3.781-3.753,5.793-5.5,11.328-11.323,16.768-17.172,2.672-2.874,5.69-5.746,8.414-8.6,1.4-1.507,3.253-2.84,4.582-4.387,4.114-4.791,8.96-8.821,13.008-13.653a1.151,1.151,0,0,1,1.019-.433c.288.744-2.364,3.3-3.014,3.918-3.822,3.632-7.257,7.836-10.872,11.591l-8.575,8.887c-3.667,3.749-7.25,7.434-10.608,11.482-1.194,1.439-6.269,6.314-6.625,7.836.312,1.069,2.629,2.748,3.655,3.689,2.117-1.875,4.621-5.187,6.626-7.315,1.152-1.387,2.794-2.589,3.942-3.946,4.392-5.189,9.338-9.786,14.024-14.693q5.01-5.345,10.128-10.584c2.574-2.6,5.306-4.992,7.694-7.805A3.369,3.369,0,0,1,217,54.643l.2.231a2.917,2.917,0,0,1-.745,1.155C209.967,62.081,204,68.675,197.993,75.2c-3.269,3.555-7.023,7.009-10.214,10.65-4,4.561-7.5,9.249-12.013,13.35a3.536,3.536,0,0,0-.906,2.472,1.21,1.21,0,0,0,.573.8c2.5,1.493,6.014-2.465,7.1-4.393,4.064-1.7,10.52-9.86,13.783-13.191,7.123-7.271,14.334-14.5,21.408-21.819,3.488-3.609,7.448-8.408,11.7-11-1.511,2.918-7.151,7.576-9.519,10.236-9.052,10.137-18.971,19.416-27.82,29.75-2.061,2.406-4.473,4.317-6.6,6.908a17.827,17.827,0,0,0,4.215,3.105c1.012-1.074,3.827-5.072,4.389-5.489a3.116,3.116,0,0,0,1.042-.12c1.92-2.2,5.078-5.474,6.986-7.462l9.74-9.961c4.429-4.587,8.7-9.519,13.364-13.883,4.885-4.57,9.332-9.81,14.679-13.828-1.218,2.476-4.954,5.8-7.064,7.977l-9.864,10.161c-5.279,5.367-10.205,10.482-15.251,16.082-3.669,4.072-7.2,7.32-10.617,11.737a9.818,9.818,0,0,1,3.027,3.352c6.918-6.043,13.7-13.579,20.034-20.27q9.187-9.619,18.609-19.01c1.468-1.483,7.811-8.139,9.175-8.811l.148.079c-.4,1.387-4.229,5.082-5.4,6.333q-5.13,5.566-10.5,10.9c-1.8,1.816-3.51,3.741-5.27,5.606-5.6,5.943-11.587,11.579-16.8,17.872-.822.992-1.606,2.349-2.439,3.265-2.225,2.443-4,3.1-4.986,6.562,3.624-.144,5.531.418,7.592-2.829a5.082,5.082,0,0,1-.269-1.988c1.528-.653,1.167,1.023,4-1.7,3.918-3.773,7.468-7.787,11.214-11.721q10.478-11.152,21.375-21.9c1.649-1.629,8.036-8.932,9.7-8.778l.063.257c-.378.74-3.019,3.061-3.822,3.918l-17.058,17.9c-2.259,2.329-4.322,4.854-6.556,7.215-4.895,5.172-10.675,11.138-15.1,16.736,3,6.41,5.179-.354,7.422-2.093C227.612,93.253,232.266,86.821,238,81.27c7.716-7.468,14.967-15.379,22.656-22.863,1.065-1.035,4.042-4.561,5.131-5l.03.276c-1.449,2.915-5.328,6.135-7.582,8.583C247.3,74.144,235.714,85.029,225.3,97.4c1.021,2.186.755,2.134,2.792,3.572,1.273-1.469,2.829-2.738,4.09-4.122,2.025-2.188,4.131-4.307,6.2-6.451,6.547-6.783,13.257-14.082,19.983-20.606,2.42-2.348,17.546-18.626,18.991-18.758a2.635,2.635,0,0,1-.949,1.92c-4.277,3.737-7.651,7.845-11.339,12.095-3.426,3.954-7.69,7.456-11.2,11.247-5.063,5.467-9.928,11.161-15.167,16.485-.709.721-1.487,2.248-2.222,3.112-1.151,1.351-5.27,4.672-5.454,6.273a1.4,1.4,0,0,0,.939.656c4.065.519,4.516.106,6.364-3.236.134-.242,3.659-2.74,4.352-3.5,7.649-8.434,15.43-16.682,23.546-24.674,1.313-1.293,2.478-3.008,3.793-4.268,4.444-4.255,8.55-8.973,13.1-13.074a.8.8,0,0,1,.843-.02c-.129,1.174-13.819,14.8-15.686,16.891-8.458,9.474-17.521,18.265-25.839,27.938.935.935,1.932,1.663,2.954,2.714a43.772,43.772,0,0,1,4-4,75.775,75.775,0,0,0,9.657-8.867c9.773-10.122,19.362-20.462,29.6-30.122,2.511-2.37,4.413-4.859,7.2-6.99-2.112,4.014-5.113,6.14-8.01,9.444-5.129,5.863-10.772,11.26-16.181,16.861-2.218,2.3-4.28,4.751-6.53,7.026-2.524,2.551-4.927,5.224-7.354,7.866-1.345,1.463-2.835,2.76-4.08,4.319a10.035,10.035,0,0,0,3.579,3.193c3.109-2.3,4.737-4.7,7.488-7.373,1.56-1.683,3.95-3.3,5.415-5.005,5.527-6.454,11.9-12.131,17.68-18.312,4.549-4.862,8.972-9.716,13.919-14.2V106.15L115.9,105.958c-3.224-.007-6.384.123-9.559.129q-29.017.263-58.033-.317c-7.432-.176-11.927,1.5-19.426-.869C21.61,102.606,17.706,99.6,12.9,93.708,3.155,81.766-.86,63.8.151,48.648,1.418,34,6.591,17.838,18.088,7.892c.86-.743,2.526-2.044,3.679-1.948l.181.24c-.3,1.31-4.185,4.348-5.414,5.6a36.3,36.3,0,0,0-3.174,3.672c-5.673,7.578-8.016,15.46-9.526,24.607-2.361,14.308-.857,28.7,5.274,41.912,3.872,8.346,9.981,16.235,18.927,19.414,7.483,2.606,12.195,2.822,19.336-.636,8.089-3.683,12.18-9.736,15.91-17.495a58.582,58.582,0,0,0,5.262-14.919,70,70,0,0,0-5.658-45.771,38.191,38.191,0,0,0-7.274-10.6c-4.42-4.8-7.106-7.005-13.2-9.133" transform="translate(0 -0.015)" fill="#6c4b2f"/>
            <path id="Trazado_900983" data-name="Trazado 900983" d="M411.3,81.382v9.07c-3.895,2.348-6.953,6.036-10.179,9.287-5.7,5.746-11.28,11.725-16.867,17.592-2.053,2.156-4.165,3.646-6.318,5.554-2.246,1.991-3.05,3.92-6.279,4.815-1-.181-2.564-.45-2.927-1.5,1.326-1.665,3.543-3.6,5.064-5.209,2.383-2.523,4.641-5.412,7.163-7.743,2.594-2.4,4.579-5.046,7.005-7.567l17.606-18.43c1.9-2,3.8-3.757,5.733-5.868" transform="translate(-107.428 -23.71)" fill="#fff"/>
            <path id="Trazado_900984" data-name="Trazado 900984" d="M413.439,95.4v7.483c-2.556,2.393-5.135,4.8-7.645,7.24-1.762,1.607-3.372,3.971-5.114,5.526-4.544,4.058-9.2,9.719-14.072,13.2a11.259,11.259,0,0,1-3.31-2.536,52.521,52.521,0,0,1,6.928-5.971c.342-.264.793-2.107,1.432-2.771,4.129-4.293,8.15-8.673,12.39-12.861,3.155-3.079,5.625-7.008,9.392-9.313" transform="translate(-111.672 -27.793)" fill="#fff"/>
            <path id="Trazado_900985" data-name="Trazado 900985" d="M399.286,128.664c1.329-1.892,4.1-4.384,5.777-6.187,3.664-3.949,8.652-10.514,13.034-13.406V116.6c-2.064,1.636-4.16,4.321-6.063,6.223q-4.574,4.57-9.155,9.143a23.682,23.682,0,0,1-3.594-3.305" transform="translate(-116.33 -31.777)" fill="#fff"/>
            <path id="Trazado_900986" data-name="Trazado 900986" d="M420.347,122.907v7.5c-1.563,1.1-2.781,2.755-4.443,4.042-.487-.418-1.088-1.083-1.728-.86a3.876,3.876,0,0,0,.422,1.915,4.3,4.3,0,0,1-1.007,1.176c-1.033.768-5.854,3.366-6.585,1.353.461-1.937,4.666-4.912,6.041-6.6a83.671,83.671,0,0,1,7.3-8.527" transform="translate(-118.58 -35.808)" fill="#fff"/>
            <path id="Trazado_900987" data-name="Trazado 900987" d="M423.734,139.771v2.847c-1.39.066-3.649.707-5.012.543l-.089-.251a22.225,22.225,0,0,1,3.235-2.886Z" transform="translate(-121.967 -40.722)" fill="#fff"/>
            <path id="Trazado_900988" data-name="Trazado 900988" d="M81.157,143.33c1.684-1.573,2.668-.51,4.6.326-.709.9-3.1.982-4.111.495-.378-.182-.374-.452-.492-.821" transform="translate(-23.645 -41.523)" fill="#fff"/>
            <path id="Trazado_900989" data-name="Trazado 900989" d="M235.543,136.924a11.862,11.862,0,0,1,3.379,4.567l-.13.194a2.015,2.015,0,0,0-1.016-.782c-1.344.32-1.786,1.057-2.683,2.1-1.374.03-4.044.457-4.178-1.367.515-1.445,3.371-3.6,4.628-4.708" transform="translate(-67.276 -39.892)" fill="#fff"/>
            <path id="Trazado_900990" data-name="Trazado 900990" d="M165.545,137.943c.937.138,2.83,2.342,3.426,3.149-1.511,1.884-1.8,1.965-4.126,2.335-1.2.083-2.674.508-3.005-.889.268-1.392,2.643-3.586,3.706-4.594" transform="translate(-47.151 -40.189)" fill="#fff"/>
            <path id="Trazado_900991" data-name="Trazado 900991" d="M220.376,137.69c.69.359,1.952,2.205,1.845,3.029-.289,2.254-2.647,2.652-4.529,2.5a11.949,11.949,0,0,1-2.641-1.047c1.023-1.05,3.874-3.139,5.325-4.486" transform="translate(-62.654 -40.115)" fill="#fff"/>
            <path id="Trazado_900992" data-name="Trazado 900992" d="M110.265,138.437c.872.491,4.153,2.725,3.353,3.867a4.41,4.41,0,0,1-2.17-.058,4.313,4.313,0,0,1-1.751,1.337,37.768,37.768,0,0,1-3.969-.241c.859-1.563,3.2-3.675,4.538-4.9" transform="translate(-30.803 -40.333)" fill="#fff"/>
            <path id="Trazado_900993" data-name="Trazado 900993" d="M396.582,137.959c1.022-.029,2.346,2.156,2.876,2.934a16.53,16.53,0,0,1-2.082,2.146c-.722.14-1.457.227-2.186.324-1-.029-2.418.111-2.559-1.127.335-1.029,2.967-3.257,3.951-4.276" transform="translate(-114.391 -40.194)" fill="#fff"/>
            <path id="Trazado_900994" data-name="Trazado 900994" d="M275.4,138.756c1.278.424,3.135,2.453,1.607,3.7-1.468,1.2-2.713,1.079-4.439,1.079-.817-.114-1.794-.157-2.628-.216a22.367,22.367,0,0,1,5.46-4.563" transform="translate(-78.645 -40.426)" fill="#fff"/>
            <path id="Trazado_900995" data-name="Trazado 900995" d="M354.985,138.693c1.586.881,2.794,2.847,3.584,4.431a25.962,25.962,0,0,1-3.882.207c-1.023-.023-3.009.249-3.056-1a31.3,31.3,0,0,1,3.353-3.633" transform="translate(-102.446 -40.408)" fill="#fff"/>
            <path id="Trazado_900996" data-name="Trazado 900996" d="M204.731,139.433c1.058.04,3.409,3.244,4.168,4.176-1.169-.01-2.465.061-3.645.1a21.379,21.379,0,0,1-4.241-.424c1.38-1.227,2.339-2.728,3.718-3.854" transform="translate(-58.564 -40.623)" fill="#fff"/>
            <path id="Trazado_900997" data-name="Trazado 900997" d="M149.84,140.623c1.283-.056,2.374,2.4,2.907,3.358a9.869,9.869,0,0,1-3.169.43c-1.157-.175-2.387-.289-2.9-1.451.006-1.709,1.746-2.164,3.164-2.336" transform="translate(-42.733 -40.969)" fill="#fff"/>
            <path id="Trazado_900998" data-name="Trazado 900998" d="M314.974,139.745c1.677.045,3.707,1.346,2.614,3.134a3.535,3.535,0,0,1-2.017.605q-.878.05-1.757.074a1.536,1.536,0,0,1-1.456-.51l-.006-.42a13.911,13.911,0,0,1,2.623-2.884" transform="translate(-91.002 -40.714)" fill="#fff"/>
            <path id="Trazado_900999" data-name="Trazado 900999" d="M96.168,140.23a4.338,4.338,0,0,1,2.184,1.87c.434,1.541-1.035,1.8-2.085,2.125-.959.123-1.648.333-2.431-.347-.548-1.619,1.163-2.838,2.331-3.648" transform="translate(-27.308 -40.855)" fill="#fff"/>
            <path id="Trazado_901000" data-name="Trazado 901000" d="M381.024,140.143c.87.413,2.983,2.815,3.651,3.572-.821.09-1.67.1-2.5.12-1.232-.09-2.9-.046-4.174-.045a26.57,26.57,0,0,0,3.02-3.647" transform="translate(-110.13 -40.83)" fill="#fff"/>
            <path id="Trazado_901001" data-name="Trazado 901001" d="M258.306,141.219a1.094,1.094,0,0,1,.861.19,3.172,3.172,0,0,1,1.245,1.886c-.042,1.563-1.45,1.37-2.493,1.354a4.289,4.289,0,0,1-1.686-.186c-.411-.423-.319-.206-.331-.815a6.972,6.972,0,0,1,2.4-2.429" transform="translate(-74.556 -41.137)" fill="#fff"/>
            <path id="Trazado_901002" data-name="Trazado 901002" d="M340.195,140.709c.908.324,3.023,1.621,2.371,2.723a2.46,2.46,0,0,1-1.207.064,16.748,16.748,0,0,0-3.417-.305c.753-.917,1.432-1.629,2.253-2.482" transform="translate(-98.458 -40.995)" fill="#fff"/>
            <path id="Trazado_901003" data-name="Trazado 901003" d="M133.133,141.662c.882.313,2.794,1.614,2.157,2.706l-.888.212c-1.046.049-1.912.315-2.55-.6a4.134,4.134,0,0,1,1.281-2.321" transform="translate(-38.414 -41.273)" fill="#fff"/>
            <path id="Trazado_901004" data-name="Trazado 901004" d="M300.21,142.478c.587.5.974.813.621,1.552a2.539,2.539,0,0,1-1.719.355c-.327-.128-.19-.026-.4-.342a5.3,5.3,0,0,1,1.5-1.565" transform="translate(-87.028 -41.51)" fill="#fff"/>
            <path id="Trazado_901005" data-name="Trazado 901005" d="M385.209.1c1.426-.027,7.477-.258,8.386.089.386.644.5,1.669-.456,1.852-2.483-.038-5.3.313-7.764-.122-.57-.1-.652-.41-.757-.884.242-.736.071-.533.59-.935" transform="translate(-112.057 0)" fill="#6c4b2f"/>
            <path id="Trazado_901006" data-name="Trazado 901006" d="M229.628.323C232.4.3,235.195.258,237.965.293c.61.008.982,0,1.349.4a1.891,1.891,0,0,1-.359,1.279c-1.273.2-8.3.537-9.17-.071a2.314,2.314,0,0,1-.157-1.577" transform="translate(-66.883 -0.081)" fill="#6c4b2f"/>
            <path id="Trazado_901007" data-name="Trazado 901007" d="M305.069.28c1.616,0,8.572-.083,9.6.23a2.641,2.641,0,0,1-.084,1.512c-1.512.111-8.278.428-9.262-.157A2.292,2.292,0,0,1,305.069.28" transform="translate(-88.875 -0.079)" fill="#6c4b2f"/>
            <path id="Trazado_901008" data-name="Trazado 901008" d="M210.437.118c1.775.052,7.85-.352,8.9.71.113.651.074.468-.227,1.157-2.621.212-5.542.108-8.179.075-1.047-.013-.691-1.29-.493-1.942" transform="translate(-61.245 -0.025)" fill="#6c4b2f"/>
            <path id="Trazado_901009" data-name="Trazado 901009" d="M326.088.129c2.781.1,5.712.013,8.5.145.458.022.519.2.727.5a1.57,1.57,0,0,1-.244,1.094c-1.174.245-7.809.485-8.811,0a2.819,2.819,0,0,1-.168-1.738" transform="translate(-94.989 -0.038)" fill="#6c4b2f"/>
            <path id="Trazado_901010" data-name="Trazado 901010" d="M404.705.332C407.428.3,410.807.2,413.558.31c.337.014.43.251.605.5A1.587,1.587,0,0,1,413.686,2c-2.312.213-5.867.043-8.28.081A.968.968,0,0,1,404.4,1.6a1.868,1.868,0,0,1,.307-1.272" transform="translate(-117.814 -0.075)" fill="#6c4b2f"/>
            <path id="Trazado_901011" data-name="Trazado 901011" d="M190.877.234c1.458-.013,7.941-.324,8.765.432a1.807,1.807,0,0,1-.312,1.273c-1.414.174-7.211.474-8.357.044a4.039,4.039,0,0,1-.1-1.75" transform="translate(-55.597 -0.046)" fill="#6c4b2f"/>
            <path id="Trazado_901012" data-name="Trazado 901012" d="M132.82.29c1.8-.208,6.024.069,8.1.08L141.2.7a2.549,2.549,0,0,1-.176,1.317c-1.7.216-7.337.654-8.489-.507C132.482.79,132.5,1,132.82.29" transform="translate(-38.607 -0.062)" fill="#6c4b2f"/>
            <path id="Trazado_901013" data-name="Trazado 901013" d="M171.341.25c1.324-.014,7.952-.326,8.592.412,0,.587-.233.8-.578,1.291-1.116.145-7.389.366-8.116-.142a2.368,2.368,0,0,1,.1-1.562" transform="translate(-49.86 -0.05)" fill="#6c4b2f"/>
            <path id="Trazado_901014" data-name="Trazado 901014" d="M365.732.24c1.587-.036,7.147-.54,8.094.577.044.57-.142.744-.466,1.2-1.453.045-7.174.411-7.945-.266A2.711,2.711,0,0,1,365.732.24" transform="translate(-106.455 -0.028)" fill="#6c4b2f"/>
            <path id="Trazado_901015" data-name="Trazado 901015" d="M286.66.256c1.288-.079,7.449-.248,8.253.291a1.814,1.814,0,0,1,.011,1.415c-1.237.107-7.471.376-8.219-.218A2.136,2.136,0,0,1,286.66.256" transform="translate(-83.484 -0.049)" fill="#6c4b2f"/>
            <path id="Trazado_901016" data-name="Trazado 901016" d="M151.855.263c1.171,0,7.55-.108,8.332.117a2.07,2.07,0,0,1,.016,1.452c-1.054.317-7.259.437-8.241.048a2.73,2.73,0,0,1-.107-1.617" transform="translate(-44.223 -0.069)" fill="#6c4b2f"/>
            <path id="Trazado_901017" data-name="Trazado 901017" d="M346.805.25c1.453-.016,7.508-.434,8.274.585-.108.629-.1.466-.559,1.007-1.244.281-6.935.614-7.761-.17A2.117,2.117,0,0,1,346.805.25" transform="translate(-100.995 -0.044)" fill="#6c4b2f"/>
            <path id="Trazado_901018" data-name="Trazado 901018" d="M113.841.247c1.292-.031,7.6-.079,8.281.544.064.528-.082.673-.349,1.139-1.047.195-7.344.434-7.987-.135a2.634,2.634,0,0,1,.056-1.548" transform="translate(-33.122 -0.067)" fill="#6c4b2f"/>
            <path id="Trazado_901019" data-name="Trazado 901019" d="M250.665.233c1.19-.042,6.749-.123,7.61.229a2.128,2.128,0,0,1-.08,1.474c-1.054.188-6.6.422-7.439-.156a2.17,2.17,0,0,1-.091-1.547" transform="translate(-73.002 -0.057)" fill="#6c4b2f"/>
            <path id="Trazado_901020" data-name="Trazado 901020" d="M268.829.224c1.59-.03,6.276-.415,7.306.421.245.661.146.558,0,1.341-1.337.1-6.084.329-7.145-.069a3.042,3.042,0,0,1-.164-1.693" transform="translate(-78.311 -0.032)" fill="#6c4b2f"/>
            <path id="Trazado_901021" data-name="Trazado 901021" d="M96.482.286c1.581-.057,6.353-.59,7.254.6a1.461,1.461,0,0,1-.257,1.1c-1.568.061-6.346.593-7.338-.494A1.583,1.583,0,0,1,96.482.286" transform="translate(-28.006 -0.034)" fill="#6c4b2f"/>
            <path id="Trazado_901022" data-name="Trazado 901022" d="M78.714.122C80.393.241,85.388-.2,86.271.57c.111.615.06.47-.2,1.126-1.8.344-7.511,1.33-7.36-1.574" transform="translate(-22.932 -0.03)" fill="#6c4b2f"/>
            <path id="Trazado_901023" data-name="Trazado 901023" d="M54.216.075a29.126,29.126,0,0,1,1.6,2.813c-1.544-.116-3.09-.081-4.639-.069a2.179,2.179,0,0,1-1.141-.174c-.367-.578-.31-.325-.261-.957C50.4.821,53,.4,54.216.075" transform="translate(-14.491 -0.022)" fill="#6c4b2f"/>
            <path id="Trazado_901024" data-name="Trazado 901024" d="M40.775,2.334c.594-.042.462-.12.908.123.3,1.768-4.234,2.65-5.662,3.085a1.324,1.324,0,0,1-.9.026c-.283-1.9,4.3-2.971,5.651-3.234" transform="translate(-10.229 -0.667)" fill="#6c4b2f"/>
            <path id="Trazado_901025" data-name="Trazado 901025" d="M334.746,135.826a3.079,3.079,0,0,1,2.275,1.931c-1.354-.338-1.979-.475-2.275-1.931" transform="translate(-97.527 -39.572)" fill="#6c4b2f"/>
          </g>
        </g>
      </g>
    </g>
  </g>
</svg>
