<svg xmlns="http://www.w3.org/2000/svg" width="610" height="191" viewBox="0 0 610 191">
  <g id="Grupo_1129391" data-name="Grupo 1129391" transform="translate(-810.051 -2558)">
    <g id="Grupo_1129390" data-name="Grupo 1129390">
      <path id="Trazado_902633" data-name="Trazado 902633" d="M0,0H610V191H0Z" transform="translate(810.051 2558)" fill="#f3f9ff"/>
      <path id="Trazado_902634" data-name="Trazado 902634" d="M20.915,0h-3L15.469-6.478h-9.8L3.368,0H.354L9.217-23.106h2.8ZM14.583-8.911l-3.625-9.845A9.427,9.427,0,0,1,10.6-20.3h-.064a8.631,8.631,0,0,1-.371,1.547L6.574-8.911Z" transform="translate(952.783 2607.778) rotate(-0.093)"/>
      <path id="Trazado_902635" data-name="Trazado 902635" d="M3.029,0V-23.106H9.6a7.186,7.186,0,0,1,4.753,1.466,4.739,4.739,0,0,1,1.756,3.819,5.619,5.619,0,0,1-1.063,3.416,5.735,5.735,0,0,1-2.933,2.063v.064a5.879,5.879,0,0,1,3.738,1.764,5.427,5.427,0,0,1,1.4,3.875,6.041,6.041,0,0,1-2.127,4.8A7.916,7.916,0,0,1,9.765,0ZM5.736-20.657v7.46H8.508A5.263,5.263,0,0,0,12-14.268a3.731,3.731,0,0,0,1.273-3.021q0-3.368-4.431-3.368Zm0,9.894v8.314H9.41a5.5,5.5,0,0,0,3.7-1.128,3.864,3.864,0,0,0,1.313-3.094q0-4.093-5.575-4.093Z" transform="translate(1006.234 2607.795) rotate(-0.093)"/>
      <path id="Trazado_902636" data-name="Trazado 902636" d="M18.756-.967A13.552,13.552,0,0,1,12.375.387a10.29,10.29,0,0,1-7.9-3.174,11.713,11.713,0,0,1-2.965-8.331A12.277,12.277,0,0,1,4.85-20.077a11.321,11.321,0,0,1,8.459-3.416,13.563,13.563,0,0,1,5.446.951v2.884a11.045,11.045,0,0,0-5.479-1.386,8.407,8.407,0,0,0-6.453,2.659,10.016,10.016,0,0,0-2.473,7.106A9.53,9.53,0,0,0,6.663-4.552a7.868,7.868,0,0,0,6.067,2.506,11.381,11.381,0,0,0,6.026-1.547Z" transform="translate(1059.925 2607.812) rotate(-0.093)"/>
      <path id="Trazado_902637" data-name="Trazado 902637" d="M3.029,0V-23.106H9.41q12.214,0,12.214,11.263a11.35,11.35,0,0,1-3.392,8.6A12.582,12.582,0,0,1,9.152,0ZM5.736-20.657V-2.449H9.185a9.786,9.786,0,0,0,7.074-2.433,9.121,9.121,0,0,0,2.53-6.9q0-8.878-9.442-8.878Z" transform="translate(1113.651 2607.828) rotate(-0.093)"/>
      <path id="Trazado_902638" data-name="Trazado 902638" d="M15.275,0H3.029V-23.106H14.76v2.449H5.736v7.686h8.347v2.433H5.736v8.089h9.539Z" transform="translate(1169.956 2607.84) rotate(-0.093)"/>
      <path id="Trazado_902639" data-name="Trazado 902639" d="M14.76-20.657H5.736v7.992h8.347v2.433H5.736V0H3.029V-23.106H14.76Z" transform="translate(1216.974 2607.833) rotate(-0.093)"/>
      <path id="Trazado_902640" data-name="Trazado 902640" d="M20.3-1.579A15.452,15.452,0,0,1,12.568.387a10.569,10.569,0,0,1-8-3.19,11.7,11.7,0,0,1-3.053-8.443,12.015,12.015,0,0,1,3.392-8.806,11.563,11.563,0,0,1,8.6-3.44,14.629,14.629,0,0,1,6.333,1.225v3A12.161,12.161,0,0,0,13.2-21.044a8.294,8.294,0,0,0-6.365,2.675A9.783,9.783,0,0,0,4.351-11.44a9.788,9.788,0,0,0,2.3,6.888,8.076,8.076,0,0,0,6.252,2.506A9.66,9.66,0,0,0,17.6-3.126V-9.6h-5.06v-2.449H20.3Z" transform="translate(1272.764 2607.846) rotate(-0.093)"/>
      <path id="Trazado_902641" data-name="Trazado 902641" d="M20.4,0H17.692V-10.538H5.736V0H3.029V-23.106H5.736v10.135H17.692V-23.106H20.4Z" transform="translate(1322.087 2607.835) rotate(-0.093)"/>
      <path id="Trazado_902642" data-name="Trazado 902642" d="M0,0H457.188V145.029H0Z" transform="translate(886.051 2579)" fill="none"/>
      <path id="Trazado_902643" data-name="Trazado 902643" d="M0,0V7.04" transform="translate(962.35 2623.689)" fill="none" stroke="#000" stroke-width="1"/>
      <path id="Trazado_902644" data-name="Trazado 902644" d="M0,0V67.316" transform="translate(962.35 2642.969)" fill="none" stroke="#000" stroke-width="1" stroke-dasharray="10.431 10.431"/>
      <path id="Trazado_902645" data-name="Trazado 902645" d="M0,0V7.04" transform="translate(962.35 2716.402)" fill="none" stroke="#000" stroke-width="1"/>
      <path id="Trazado_902646" data-name="Trazado 902646" d="M0,0H457.188V145.029H0Z" transform="translate(886.051 2579)" fill="none"/>
      <path id="Trazado_891103" data-name="Trazado 891103" d="M105.144,57.326l12.749-10.085L105.144,37.156" transform="translate(904.274 2585.44)" fill="none" stroke="#000" stroke-linecap="round" stroke-linejoin="round" stroke-width="1"/>
      <path id="Trazado_891104" data-name="Trazado 891104" d="M105.144,74.516l12.749-10.085L105.144,54.346" transform="translate(904.274 2588.42)" fill="none" stroke="#000" stroke-linecap="round" stroke-linejoin="round" stroke-width="1"/>
      <path id="Trazado_891105" data-name="Trazado 891105" d="M105.144,91.705l12.749-10.085L105.144,71.536" transform="translate(904.274 2591.398)" fill="none" stroke="#000" stroke-linecap="round" stroke-linejoin="round" stroke-width="1"/>
      <path id="Trazado_891106" data-name="Trazado 891106" d="M105.144,108.9l12.749-10.085L105.144,88.726" transform="translate(904.274 2594.378)" fill="none" stroke="#000" stroke-linecap="round" stroke-linejoin="round" stroke-width="1"/>
      <path id="Trazado_891107" data-name="Trazado 891107" d="M105.144,126.085,117.893,116l-12.749-10.085" transform="translate(904.274 2597.357)" fill="none" stroke="#000" stroke-linecap="round" stroke-linejoin="round" stroke-width="1"/>
      <path id="Trazado_902647" data-name="Trazado 902647" d="M0,0H457.188V145.029H0Z" transform="translate(886.051 2579)" fill="none"/>
      <path id="Trazado_891108" data-name="Trazado 891108" d="M151.1,57.326l12.749-10.085L151.1,37.156" transform="translate(912.24 2585.44)" fill="none" stroke="#000" stroke-linecap="round" stroke-linejoin="round" stroke-width="1" stroke-dasharray="4 4"/>
      <path id="Trazado_891109" data-name="Trazado 891109" d="M151.1,74.516l12.749-10.085L151.1,54.346" transform="translate(912.24 2588.42)" fill="none" stroke="#000" stroke-linecap="round" stroke-linejoin="round" stroke-width="1" stroke-dasharray="4 4"/>
      <path id="Trazado_891110" data-name="Trazado 891110" d="M151.1,91.705l12.749-10.085L151.1,71.536" transform="translate(912.24 2591.398)" fill="none" stroke="#000" stroke-linecap="round" stroke-linejoin="round" stroke-width="1" stroke-dasharray="4 4"/>
      <path id="Trazado_891111" data-name="Trazado 891111" d="M151.1,108.9l12.749-10.085L151.1,88.726" transform="translate(912.24 2594.378)" fill="none" stroke="#000" stroke-linecap="round" stroke-linejoin="round" stroke-width="1" stroke-dasharray="4 4"/>
      <path id="Trazado_891112" data-name="Trazado 891112" d="M151.1,126.085,163.853,116,151.1,105.916" transform="translate(912.24 2597.357)" fill="none" stroke="#000" stroke-linecap="round" stroke-linejoin="round" stroke-width="1" stroke-dasharray="4 4"/>
      <path id="Trazado_891113" data-name="Trazado 891113" d="M211.523,38.087s-7.593,2.7-6.782,3.1c1.27.627,6.782,4.129,6.782,4.129s-17.5,3.169-16.986,3.169,17.373,5.539,16.986,5.356-7.04,3.4-7.04,3.4l7.047,3.96s-7.952,4.251-7.176,4.251,7.169,4.4,7.169,4.4l-18.278,2.971,18.1,4.98s-8.282,4.98-7.766,4.98,7.952,3.474,7.952,3.474L202.8,89.911s8.855,5.194,8.726,5.011S192.082,98.3,192.082,98.3L212.1,103.19l-8.4,5.151,7.815,3.633s-9.882,3.848-9.494,3.848,9.043,4.014,9.043,4.014-19.077,4.759-18.86,4.808c8.543,1.959,19.7,2.029,18.86,2.856-1.938,1.912-7.1,6.046-7.1,6.046l7.153,2.713" transform="translate(919.342 2585.602)" fill="none" stroke="#000" stroke-linecap="round" stroke-linejoin="round" stroke-width="1"/>
      <path id="Trazado_902648" data-name="Trazado 902648" d="M0,0V12.432" transform="translate(1181.952 2624.475)" fill="none" stroke="#000" stroke-linecap="round" stroke-width="1" stroke-dasharray="2.312 2.312"/>
      <path id="Trazado_902649" data-name="Trazado 902649" d="M0,0V12.432" transform="translate(1181.952 2709.428)" fill="none" stroke="#000" stroke-linecap="round" stroke-width="1" stroke-dasharray="2.312 2.312"/>
      <path id="Trazado_902650" data-name="Trazado 902650" d="M0,0V22.793" transform="translate(1181.952 2645.194)" fill="none" stroke="#000" stroke-linecap="round" stroke-width="1" stroke-dasharray="2.312 2.312"/>
      <path id="Trazado_902651" data-name="Trazado 902651" d="M0,0V22.793" transform="translate(1181.952 2677.311)" fill="none" stroke="#000" stroke-linecap="round" stroke-width="1" stroke-dasharray="2.312 2.312"/>
      <path id="Trazado_891114" data-name="Trazado 891114" d="M254.6,57.641,238.32,53.5,254.6,49.353" transform="translate(927.355 2587.554)" fill="none" stroke="#000" stroke-linecap="round" stroke-linejoin="round" stroke-width="1"/>
      <path id="Trazado_891115" data-name="Trazado 891115" d="M254.6,84.13,238.32,79.986,254.6,75.842" transform="translate(927.355 2592.145)" fill="none" stroke="#000" stroke-linecap="round" stroke-linejoin="round" stroke-width="1"/>
      <path id="Trazado_891116" data-name="Trazado 891116" d="M254.6,110.62l-16.276-4.144,16.276-4.144" transform="translate(927.355 2596.735)" fill="none" stroke="#000" stroke-linecap="round" stroke-linejoin="round" stroke-width="1"/>
      <path id="Trazado_902652" data-name="Trazado 902652" d="M0,12.432V0" transform="translate(1218.908 2707.549)" fill="none" stroke="#000" stroke-linecap="round" stroke-width="1" stroke-dasharray="2.312 2.312"/>
      <path id="Trazado_902653" data-name="Trazado 902653" d="M0,12.432V0" transform="translate(1218.908 2622.596)" fill="none" stroke="#000" stroke-linecap="round" stroke-width="1" stroke-dasharray="2.312 2.312"/>
      <path id="Trazado_902654" data-name="Trazado 902654" d="M0,22.793V0" transform="translate(1218.908 2676.469)" fill="none" stroke="#000" stroke-linecap="round" stroke-width="1" stroke-dasharray="2.312 2.312"/>
      <path id="Trazado_902655" data-name="Trazado 902655" d="M0,22.793V0" transform="translate(1218.908 2644.352)" fill="none" stroke="#000" stroke-linecap="round" stroke-width="1" stroke-dasharray="2.312 2.312"/>
      <path id="Trazado_891117" data-name="Trazado 891117" d="M283.689,102.5l16.276,4.144-16.276,4.144" transform="translate(935.219 2596.765)" fill="none" stroke="#000" stroke-linecap="round" stroke-linejoin="round" stroke-width="1"/>
      <path id="Trazado_891118" data-name="Trazado 891118" d="M283.689,76.008l16.276,4.144L283.689,84.3" transform="translate(935.219 2592.174)" fill="none" stroke="#000" stroke-linecap="round" stroke-linejoin="round" stroke-width="1"/>
      <path id="Trazado_891119" data-name="Trazado 891119" d="M283.689,49.518l16.276,4.144-16.276,4.144" transform="translate(935.219 2587.582)" fill="none" stroke="#000" stroke-linecap="round" stroke-linejoin="round" stroke-width="1"/>
      <path id="Trazado_891120" data-name="Trazado 891120" d="M343.7,37.156v6.87l-15.985,2.829V58.3L343.7,61.94v13.2l-15.985,4.849V90.63L343.7,95.884l.194,12.123L328.2,112.99l.1,12.258,15.6,4.041v5.253" transform="translate(942.849 2585.439)" fill="none" stroke="#000" stroke-linecap="round" stroke-linejoin="round" stroke-width="1"/>
      <path id="Trazado_891121" data-name="Trazado 891121" d="M381.984,37.156v6.673l-8.47,4.869,8.47,4.148v7.575l8.205,4.328L381.852,69.8v6.853l-8.338,4.689,8.338,3.968v7.033l8.338,4.509-8.338,5.05v5.951l-8.338,4.508,8.338,5.411v6.311s8.867,4.328,8.338,4.328-8.326,6.132-8.326,6.132" transform="translate(950.787 2585.439)" fill="none" stroke="#000" stroke-linecap="round" stroke-linejoin="round" stroke-width="1.167"/>
      <path id="Trazado_902656" data-name="Trazado 902656" d="M0,0H22.961V7.75H0Z" transform="translate(886.051 2637.363)" fill="#1a1308"/>
      <path id="Trazado_902657" data-name="Trazado 902657" d="M0,0H22.961V7.75H0Z" transform="translate(886.051 2700.926)" fill="#1a1308"/>
      <path id="Trazado_902658" data-name="Trazado 902658" d="M0,0H8.623V3.875H0Z" transform="translate(886.051 2649.122)" fill="#1a1308"/>
      <path id="Trazado_902659" data-name="Trazado 902659" d="M0,0H8.623V3.875H0Z" transform="translate(900.389 2649.122)" fill="#1a1308"/>
      <path id="Trazado_902660" data-name="Trazado 902660" d="M0,0H8.623V3.875H0Z" transform="translate(886.051 2657.905)" fill="#1a1308"/>
      <path id="Trazado_902661" data-name="Trazado 902661" d="M0,0H8.623V3.875H0Z" transform="translate(900.389 2657.905)" fill="#1a1308"/>
      <path id="Trazado_902662" data-name="Trazado 902662" d="M0,0H8.623V3.875H0Z" transform="translate(886.051 2666.689)" fill="#1a1308"/>
      <path id="Trazado_902663" data-name="Trazado 902663" d="M0,0H8.623V3.875H0Z" transform="translate(900.389 2666.689)" fill="#1a1308"/>
      <path id="Trazado_902664" data-name="Trazado 902664" d="M0,0H8.623V3.875H0Z" transform="translate(886.051 2675.474)" fill="#1a1308"/>
      <path id="Trazado_902665" data-name="Trazado 902665" d="M0,0H8.623V3.875H0Z" transform="translate(900.389 2675.474)" fill="#1a1308"/>
      <path id="Trazado_902666" data-name="Trazado 902666" d="M0,0H8.623V3.875H0Z" transform="translate(886.051 2684.257)" fill="#1a1308"/>
      <path id="Trazado_902667" data-name="Trazado 902667" d="M0,0H8.623V3.875H0Z" transform="translate(900.389 2684.257)" fill="#1a1308"/>
      <path id="Trazado_902668" data-name="Trazado 902668" d="M0,0H8.623V3.875H0Z" transform="translate(886.051 2693.041)" fill="#1a1308"/>
      <path id="Trazado_902669" data-name="Trazado 902669" d="M0,0H8.623V3.875H0Z" transform="translate(900.389 2693.041)" fill="#1a1308"/>
      <path id="Trazado_902670" data-name="Trazado 902670" d="M0,0H457.188V145.029H0Z" transform="translate(886.051 2579)" fill="none"/>
    </g>
  </g>
</svg>
