<svg xmlns="http://www.w3.org/2000/svg" xmlns:xlink="http://www.w3.org/1999/xlink" width="215.788" height="202.033" viewBox="0 0 215.788 202.033">
  <defs>
    <clipPath id="clip-path">
      <rect id="Rectángulo_415818" data-name="Rectángulo 415818" width="215.786" height="202.031" transform="translate(24.422)" fill="none"/>
    </clipPath>
    <clipPath id="clip-path-2">
      <path id="Rectángulo_415820" data-name="Rectángulo 415820" d="M7.075,0H208.712a7.075,7.075,0,0,1,7.075,7.075V189.369a7.075,7.075,0,0,1-7.075,7.075H7.074A7.074,7.074,0,0,1,0,189.37V7.075A7.075,7.075,0,0,1,7.075,0Z" fill="none"/>
    </clipPath>
  </defs>
  <g id="Grupo_1129401" data-name="Grupo 1129401" transform="translate(-8277.165 4397)">
    <g id="Grupo_1129241" data-name="Grupo 1129241" transform="translate(8252.743 -4397)">
      <g id="Grupo_1129240" data-name="Grupo 1129240" clip-path="url(#clip-path)">
        <path id="Trazado_898847" data-name="Trazado 898847" d="M225.344,200.736H27.972a9.207,9.207,0,0,1-9.207-9.207V13.5a9.207,9.207,0,0,1,9.207-9.207H225.344A9.207,9.207,0,0,1,234.55,13.5V191.53a9.207,9.207,0,0,1-9.207,9.207" transform="translate(5.658 1.295)" fill="#fff8e0"/>
      </g>
    </g>
    <g id="Grupo_1129243" data-name="Grupo 1129243" transform="translate(8277.166 -4391.411)">
      <g id="Grupo_1129242" data-name="Grupo 1129242" clip-path="url(#clip-path-2)">
        <rect id="Rectángulo_415819" data-name="Rectángulo 415819" width="237.28" height="49.434" transform="translate(-9.031 -5.589)" fill="#86c7c0"/>
        <path id="Trazado_898848" data-name="Trazado 898848" d="M90.336,128.7H70.349a6.913,6.913,0,0,0-6.914,6.914v34.926H97.249V135.617A6.913,6.913,0,0,0,90.336,128.7Z" transform="translate(-5.297 33.216)" fill="none" stroke="#fca43a" stroke-linecap="round" stroke-miterlimit="10" stroke-width="2"/>
        <path id="Trazado_898849" data-name="Trazado 898849" d="M36.831,128.7H16.844a6.913,6.913,0,0,0-6.914,6.914v34.926H43.744V135.617A6.913,6.913,0,0,0,36.831,128.7Z" transform="translate(-21.429 33.216)" fill="none" stroke="#fca43a" stroke-linecap="round" stroke-miterlimit="10" stroke-width="2"/>
        <path id="Trazado_898850" data-name="Trazado 898850" d="M82.608,120.356v24.05a5.3,5.3,0,0,1-5.3,5.3H34.61a5.3,5.3,0,0,1-5.3-5.3V119.864a16.138,16.138,0,0,1,2.016-7.81L46.236,85.092a5.946,5.946,0,0,1,5.2-3.068H58.12A5.945,5.945,0,0,1,63.15,84.8l16.976,26.957A16.13,16.13,0,0,1,82.608,120.356Z" transform="translate(-15.587 19.142)" fill="none" stroke="#fca43a" stroke-linecap="round" stroke-miterlimit="10" stroke-width="2.024"/>
        <path id="Trazado_898851" data-name="Trazado 898851" d="M197.565,128.7H177.578a6.913,6.913,0,0,0-6.914,6.914v34.926h33.814V135.617A6.913,6.913,0,0,0,197.565,128.7Z" transform="translate(27.033 33.216)" fill="none" stroke="#fca43a" stroke-linecap="round" stroke-miterlimit="10" stroke-width="2"/>
        <path id="Trazado_898852" data-name="Trazado 898852" d="M144.061,128.7H124.074a6.913,6.913,0,0,0-6.914,6.914v34.926h33.814V135.617A6.914,6.914,0,0,0,144.061,128.7Z" transform="translate(10.901 33.216)" fill="none" stroke="#fca43a" stroke-linecap="round" stroke-miterlimit="10" stroke-width="2"/>
        <path id="Trazado_898853" data-name="Trazado 898853" d="M189.837,120.356v24.05a5.3,5.3,0,0,1-5.3,5.3H141.839a5.3,5.3,0,0,1-5.3-5.3V119.864a16.138,16.138,0,0,1,2.016-7.81l14.914-26.962a5.947,5.947,0,0,1,5.2-3.068h6.682a5.945,5.945,0,0,1,5.03,2.777l16.976,26.957A16.13,16.13,0,0,1,189.837,120.356Z" transform="translate(16.743 19.142)" fill="none" stroke="#fca43a" stroke-linecap="round" stroke-miterlimit="10" stroke-width="2.024"/>
        <path id="Trazado_898854" data-name="Trazado 898854" d="M136.113,120.356v24.05a5.3,5.3,0,0,1-5.3,5.3H88.115a5.3,5.3,0,0,1-5.3-5.3V119.864a16.138,16.138,0,0,1,2.016-7.81L99.741,85.092a5.946,5.946,0,0,1,5.2-3.068h6.682a5.945,5.945,0,0,1,5.03,2.777l16.976,26.957A16.13,16.13,0,0,1,136.113,120.356Z" transform="translate(0.545 19.142)" fill="none" stroke="#fca43a" stroke-linecap="round" stroke-miterlimit="10" stroke-width="2.024"/>
        <path id="Trazado_898855" data-name="Trazado 898855" d="M73.635,113.7,55.724,85.047s-3.582-5.445,3.3-5.445h44.656a4.433,4.433,0,0,1,.472.023c1.511.151,8.413,1.252,3.157,8.431" transform="translate(-7.903 18.412)" fill="none" stroke="#fca43a" stroke-linecap="round" stroke-miterlimit="10" stroke-width="2.024"/>
        <path id="Trazado_898856" data-name="Trazado 898856" d="M126.7,113.7l-17.91-28.657s-3.583-5.445,3.3-5.445H156.74a4.4,4.4,0,0,1,.472.023c1.512.151,8.414,1.252,3.159,8.431" transform="translate(8.096 18.412)" fill="none" stroke="#fca43a" stroke-linecap="round" stroke-miterlimit="10" stroke-width="2.024"/>
        <path id="Trazado_898857" data-name="Trazado 898857" d="M180.533,113.7l-17.91-28.657s-3.583-5.445,3.3-5.445h44.656a4.4,4.4,0,0,1,.472.023c1.512.151,8.414,1.252,3.159,8.431" transform="translate(24.327 18.412)" fill="none" stroke="#fca43a" stroke-linecap="round" stroke-miterlimit="10" stroke-width="2.024"/>
        <path id="Trazado_898858" data-name="Trazado 898858" d="M19.855,113.7,1.945,85.047S-1.638,79.6,5.241,79.6H49.9a4.4,4.4,0,0,1,.472.023c1.512.151,8.414,1.252,3.159,8.431" transform="translate(-24.118 18.412)" fill="none" stroke="#fca43a" stroke-linecap="round" stroke-miterlimit="10" stroke-width="2.024"/>
      </g>
    </g>
    <path id="Trazado_902679" data-name="Trazado 902679" d="M4.052-4.342V0H.967V-12.8H6.073a5.948,5.948,0,0,1,2.6.541,4.074,4.074,0,0,1,1.749,1.538,4.2,4.2,0,0,1,.62,2.263A3.7,3.7,0,0,1,9.7-5.462,5.561,5.561,0,0,1,6.021-4.342Zm0-2.382H6.073A1.906,1.906,0,0,0,7.44-7.172a1.665,1.665,0,0,0,.47-1.266A2.059,2.059,0,0,0,7.427-9.87a1.712,1.712,0,0,0-1.318-.545H4.052Zm14.159,5.7a3.054,3.054,0,0,1-2.54,1.2A3,3,0,0,1,13.3-.734a3.826,3.826,0,0,1-.8-2.615V-9.51H15.46v6.179a1.065,1.065,0,0,0,1.187,1.222,1.548,1.548,0,0,0,1.45-.729V-9.51h2.979V0H18.3ZM25.418-9.51l.1,1.116A3.225,3.225,0,0,1,28.23-9.686,2.713,2.713,0,0,1,30.45-8.8a4.226,4.226,0,0,1,.76,2.672V0H28.239V-6a1.6,1.6,0,0,0-.29-1.059A1.342,1.342,0,0,0,26.895-7.4a1.413,1.413,0,0,0-1.292.686V0H22.641V-9.51ZM36.3-11.874V-9.51h1.564v2.057H36.3V-3.1a1.111,1.111,0,0,0,.193.747,1.037,1.037,0,0,0,.765.211A4.345,4.345,0,0,0,38-2.2V-.079a5.466,5.466,0,0,1-1.67.255,3.1,3.1,0,0,1-2.259-.721,2.954,2.954,0,0,1-.729-2.188v-4.72H32.124V-9.51h1.213v-2.364ZM44.385,0A3.344,3.344,0,0,1,44.1-.853,2.754,2.754,0,0,1,41.818.176a3.374,3.374,0,0,1-2.285-.813,2.588,2.588,0,0,1-.94-2.043,2.66,2.66,0,0,1,1.143-2.338,5.821,5.821,0,0,1,3.322-.791h.914v-.5q0-1.316-1.134-1.316a.927.927,0,0,0-1.055,1.042H38.821a2.655,2.655,0,0,1,1.173-2.239,4.931,4.931,0,0,1,2.993-.86,4.323,4.323,0,0,1,2.874.888,3.086,3.086,0,0,1,1.081,2.435v4.21a4.311,4.311,0,0,0,.4,2V0ZM42.53-1.934a1.652,1.652,0,0,0,.918-.237,1.487,1.487,0,0,0,.523-.536V-4.228H43.11q-1.547,0-1.547,1.389a.848.848,0,0,0,.272.655A.986.986,0,0,0,42.53-1.934Zm5.678-2.892a5.809,5.809,0,0,1,.976-3.56,3.211,3.211,0,0,1,2.725-1.3,2.731,2.731,0,0,1,2.145,1V-13.5h2.971V0H54.36l-.149-1.02a2.8,2.8,0,0,1-2.32,1.2,3.205,3.205,0,0,1-2.689-1.3A5.993,5.993,0,0,1,48.208-4.825Zm2.962.185q0,2.531,1.477,2.531a1.458,1.458,0,0,0,1.406-.826V-6.557A1.419,1.419,0,0,0,52.664-7.4q-1.371,0-1.485,2.215ZM64.063,0a3.344,3.344,0,0,1-.281-.853A2.754,2.754,0,0,1,61.5.176a3.374,3.374,0,0,1-2.285-.813,2.588,2.588,0,0,1-.94-2.043,2.66,2.66,0,0,1,1.143-2.338,5.821,5.821,0,0,1,3.322-.791h.914v-.5q0-1.316-1.134-1.316a.927.927,0,0,0-1.055,1.042H58.5a2.655,2.655,0,0,1,1.173-2.239,4.931,4.931,0,0,1,2.993-.86A4.323,4.323,0,0,1,65.54-8.8a3.086,3.086,0,0,1,1.081,2.435v4.21a4.311,4.311,0,0,0,.4,2V0ZM62.209-1.934a1.652,1.652,0,0,0,.918-.237,1.487,1.487,0,0,0,.523-.536V-4.228h-.861q-1.547,0-1.547,1.389a.848.848,0,0,0,.272.655A.986.986,0,0,0,62.209-1.934Zm10.16-2.892a5.809,5.809,0,0,1,.976-3.56,3.211,3.211,0,0,1,2.725-1.3,2.731,2.731,0,0,1,2.145,1V-13.5h2.971V0H78.521l-.149-1.02a2.8,2.8,0,0,1-2.32,1.2,3.205,3.205,0,0,1-2.689-1.3A5.993,5.993,0,0,1,72.369-4.825Zm2.962.185q0,2.531,1.477,2.531a1.458,1.458,0,0,0,1.406-.826V-6.557A1.419,1.419,0,0,0,76.825-7.4q-1.371,0-1.485,2.215ZM87.469.176a4.889,4.889,0,0,1-3.542-1.305,4.507,4.507,0,0,1-1.354-3.4v-.246a5.84,5.84,0,0,1,.541-2.575,3.955,3.955,0,0,1,1.578-1.727,4.763,4.763,0,0,1,2.461-.611,4.117,4.117,0,0,1,3.164,1.244,4.887,4.887,0,0,1,1.16,3.467v1.151H85.588a2.135,2.135,0,0,0,.694,1.257,2.066,2.066,0,0,0,1.389.457,2.662,2.662,0,0,0,2.2-.984l1.354,1.6A3.784,3.784,0,0,1,89.653-.277,5.3,5.3,0,0,1,87.469.176ZM87.135-7.4q-1.3,0-1.547,1.723h2.988v-.229a1.467,1.467,0,0,0-.36-1.1A1.434,1.434,0,0,0,87.135-7.4Zm9.642,2.558a5.613,5.613,0,0,1,.554-2.536,3.96,3.96,0,0,1,1.591-1.709,4.791,4.791,0,0,1,2.435-.6,4.373,4.373,0,0,1,3.366,1.323,5.076,5.076,0,0,1,1.23,3.6v.105a4.925,4.925,0,0,1-1.235,3.529A4.384,4.384,0,0,1,101.373.176a4.434,4.434,0,0,1-3.261-1.217,4.761,4.761,0,0,1-1.327-3.3Zm2.962.185a3.538,3.538,0,0,0,.413,1.934,1.376,1.376,0,0,0,1.222.615q1.582,0,1.617-2.435v-.3q0-2.558-1.635-2.558-1.485,0-1.608,2.206Zm11.18,1.134,1.5-5.985h3.12L112.438,0h-3.023l-3.1-9.51h3.129Zm9.993,3.7a4.889,4.889,0,0,1-3.542-1.305,4.507,4.507,0,0,1-1.354-3.4v-.246a5.84,5.84,0,0,1,.541-2.575,3.955,3.955,0,0,1,1.578-1.727,4.763,4.763,0,0,1,2.461-.611,4.117,4.117,0,0,1,3.164,1.244,4.887,4.887,0,0,1,1.16,3.467v1.151H119.03a2.135,2.135,0,0,0,.694,1.257,2.066,2.066,0,0,0,1.389.457,2.662,2.662,0,0,0,2.2-.984l1.354,1.6A3.784,3.784,0,0,1,123.1-.277,5.3,5.3,0,0,1,120.911.176ZM120.577-7.4q-1.3,0-1.547,1.723h2.988v-.229a1.467,1.467,0,0,0-.36-1.1A1.434,1.434,0,0,0,120.577-7.4Zm11.285.571-.976-.07a1.752,1.752,0,0,0-1.793.879V0h-2.962V-9.51h2.777l.1,1.222a2.294,2.294,0,0,1,2.083-1.4,2.888,2.888,0,0,1,.826.105ZM136.055,0h-2.971V-13.5h2.971Zm1.45-4.843a5.613,5.613,0,0,1,.554-2.536,3.96,3.96,0,0,1,1.591-1.709,4.791,4.791,0,0,1,2.435-.6,4.373,4.373,0,0,1,3.366,1.323,5.076,5.076,0,0,1,1.23,3.6v.105a4.925,4.925,0,0,1-1.235,3.529A4.384,4.384,0,0,1,142.1.176a4.434,4.434,0,0,1-3.261-1.217,4.761,4.761,0,0,1-1.327-3.3Zm2.962.185a3.538,3.538,0,0,0,.413,1.934,1.376,1.376,0,0,0,1.222.615q1.582,0,1.617-2.435v-.3q0-2.558-1.635-2.558-1.485,0-1.608,2.206Zm11.54,2.549a1.317,1.317,0,0,0,.967-.338,1.241,1.241,0,0,0,.334-.945h2.777a3.288,3.288,0,0,1-1.121,2.566,4.168,4.168,0,0,1-2.887,1,4.22,4.22,0,0,1-3.27-1.3,5.125,5.125,0,0,1-1.2-3.6v-.123a5.792,5.792,0,0,1,.532-2.544,3.872,3.872,0,0,1,1.534-1.7,4.573,4.573,0,0,1,2.373-.593A4.116,4.116,0,0,1,155-8.657a3.647,3.647,0,0,1,1.09,2.786h-2.777A1.626,1.626,0,0,0,152.947-7a1.244,1.244,0,0,0-.967-.4q-1.151,0-1.345,1.468a10.357,10.357,0,0,0-.062,1.283,4.068,4.068,0,0,0,.343,1.986A1.187,1.187,0,0,0,152.007-2.109Zm9.149-1.433-.835.835V0h-2.962V-13.509h2.962v7.172l.3-.4,2.232-2.777H166.4L163.072-5.6,166.623,0H163.23Z" transform="translate(8302 -4364.353)" fill="#12263f"/>
    <path id="Trazado_902680" data-name="Trazado 902680" d="M12.109-4.512A5.231,5.231,0,0,1,10.444-1.03,5.457,5.457,0,0,1,6.719.2,5.01,5.01,0,0,1,2.681-1.611,7.268,7.268,0,0,1,1.162-6.445V-7.812A8.1,8.1,0,0,1,1.87-11.3a5.288,5.288,0,0,1,2.007-2.31,5.588,5.588,0,0,1,3.008-.806,5.138,5.138,0,0,1,3.633,1.265,5.294,5.294,0,0,1,1.592,3.5H10.225a4.085,4.085,0,0,0-1.06-2.468,3.206,3.206,0,0,0-2.28-.764,3.355,3.355,0,0,0-2.817,1.329A6.1,6.1,0,0,0,3.047-7.769v1.378a6.273,6.273,0,0,0,.967,3.685A3.124,3.124,0,0,0,6.719-1.338a3.608,3.608,0,0,0,2.4-.708,3.929,3.929,0,0,0,1.108-2.466Zm8.443,2.979h6.738V0H18.668V-14.219h1.885ZM41.467-3.721H35.51L34.172,0H32.238l5.43-14.219h1.641L44.748,0H42.824ZM36.076-5.254H40.91L38.488-11.9ZM54.852-6.338a8.817,8.817,0,0,1-3.511-1.7,3.256,3.256,0,0,1-1.1-2.5,3.439,3.439,0,0,1,1.343-2.778,5.337,5.337,0,0,1,3.491-1.1,5.825,5.825,0,0,1,2.612.566,4.3,4.3,0,0,1,1.777,1.563,4,4,0,0,1,.63,2.178H58.211a2.6,2.6,0,0,0-.82-2.034,3.336,3.336,0,0,0-2.314-.74,3.415,3.415,0,0,0-2.163.611,2.04,2.04,0,0,0-.776,1.7A1.835,1.835,0,0,0,52.874-9.1,7.232,7.232,0,0,0,55.384-8a11.645,11.645,0,0,1,2.773,1.1,4.209,4.209,0,0,1,1.484,1.4,3.577,3.577,0,0,1,.483,1.885A3.322,3.322,0,0,1,58.777-.845,5.746,5.746,0,0,1,55.174.2a6.683,6.683,0,0,1-2.734-.562A4.6,4.6,0,0,1,50.481-1.9a3.754,3.754,0,0,1-.688-2.217h1.885a2.449,2.449,0,0,0,.952,2.036,4.009,4.009,0,0,0,2.544.747,3.685,3.685,0,0,0,2.275-.605,1.967,1.967,0,0,0,.791-1.65,1.931,1.931,0,0,0-.732-1.616A8.444,8.444,0,0,0,54.852-6.338Zm19.713-.234H68.4v5.039h7.158V0H66.527V-14.219h8.936v1.533H68.4v4.58h6.162Zm16.643-.557.723-7.09h7.285v1.67H93.463l-.43,3.877a4.588,4.588,0,0,1,2.373-.615A3.923,3.923,0,0,1,98.492-8a5.033,5.033,0,0,1,1.143,3.472,4.858,4.858,0,0,1-1.187,3.462A4.325,4.325,0,0,1,95.133.2,4.494,4.494,0,0,1,92.057-.85,4.171,4.171,0,0,1,90.7-3.74h1.709A2.869,2.869,0,0,0,93.277-1.9a2.7,2.7,0,0,0,1.855.62,2.438,2.438,0,0,0,1.978-.859,3.593,3.593,0,0,0,.718-2.373,3.3,3.3,0,0,0-.776-2.29,2.641,2.641,0,0,0-2.065-.864,2.978,2.978,0,0,0-1.855.518l-.479.391Zm23.316,1.064a8.263,8.263,0,0,1-1.084,4.717A3.855,3.855,0,0,1,110.051.2a3.883,3.883,0,0,1-3.369-1.509,7.843,7.843,0,0,1-1.133-4.507V-8.232a8.079,8.079,0,0,1,1.084-4.658,3.885,3.885,0,0,1,3.4-1.523,3.92,3.92,0,0,1,3.379,1.47,7.8,7.8,0,0,1,1.113,4.536Zm-1.807-2.471a6.62,6.62,0,0,0-.645-3.345,2.218,2.218,0,0,0-2.041-1.05,2.189,2.189,0,0,0-2.021,1.045,6.464,6.464,0,0,0-.654,3.213v2.891a6.726,6.726,0,0,0,.669,3.4,2.214,2.214,0,0,0,2.026,1.1,2.184,2.184,0,0,0,1.987-1.035,6.483,6.483,0,0,0,.679-3.262Zm17.037,2.471a8.263,8.263,0,0,1-1.084,4.717A3.855,3.855,0,0,1,125.281.2a3.883,3.883,0,0,1-3.369-1.509,7.843,7.843,0,0,1-1.133-4.507V-8.232a8.079,8.079,0,0,1,1.084-4.658,3.885,3.885,0,0,1,3.4-1.523,3.92,3.92,0,0,1,3.379,1.47,7.8,7.8,0,0,1,1.113,4.536Zm-1.807-2.471a6.62,6.62,0,0,0-.645-3.345,2.218,2.218,0,0,0-2.041-1.05,2.189,2.189,0,0,0-2.021,1.045,6.464,6.464,0,0,0-.654,3.213v2.891a6.726,6.726,0,0,0,.669,3.4,2.214,2.214,0,0,0,2.026,1.1,2.184,2.184,0,0,0,1.987-1.035,6.483,6.483,0,0,0,.679-3.262Z" transform="translate(8320 -4314.635)" fill="#12263f"/>
  </g>
</svg>
