<svg xmlns="http://www.w3.org/2000/svg" xmlns:xlink="http://www.w3.org/1999/xlink" width="217.015" height="203.182" viewBox="0 0 217.015 203.182">
  <defs>
    <clipPath id="clip-path">
      <rect width="217.015" height="203.182" fill="none"/>
    </clipPath>
    <clipPath id="clip-path-2">
      <rect id="Rectángulo_415812" data-name="Rectángulo 415812" width="217.014" height="203.181" transform="translate(10.047)" fill="none"/>
    </clipPath>
    <clipPath id="clip-path-3">
      <path id="Rectángulo_415814" data-name="Rectángulo 415814" d="M7.075,0H209.94a7.075,7.075,0,0,1,7.075,7.075V190.487a7.074,7.074,0,0,1-7.074,7.074H7.074A7.074,7.074,0,0,1,0,190.487V7.075A7.075,7.075,0,0,1,7.075,0Z" fill="none"/>
    </clipPath>
  </defs>
  <g id="Cuadrícula_de_repetición_1" data-name="Cuadrícula de repetición 1" clip-path="url(#clip-path)">
    <g id="Grupo_1129403" data-name="Grupo 1129403" transform="translate(-6987.995 4390)">
      <g id="Grupo_1129399" data-name="Grupo 1129399">
        <g id="Grupo_1129228" data-name="Grupo 1129228" transform="translate(6977.949 -4390)">
          <g id="Grupo_1129227" data-name="Grupo 1129227" clip-path="url(#clip-path-2)">
            <path id="Trazado_898833" data-name="Trazado 898833" d="M215.431,201.855H16.935A9.259,9.259,0,0,1,7.676,192.6V13.553a9.259,9.259,0,0,1,9.259-9.259h198.5a9.259,9.259,0,0,1,9.259,9.259V192.6a9.259,9.259,0,0,1-9.259,9.259" transform="translate(2.371 1.326)" fill="#fff8e0"/>
          </g>
        </g>
        <g id="Grupo_1129230" data-name="Grupo 1129230" transform="translate(6987.995 -4384.379)">
          <g id="Grupo_1129229" data-name="Grupo 1129229" clip-path="url(#clip-path-3)">
            <rect id="Rectángulo_415813" data-name="Rectángulo 415813" width="238.631" height="49.715" transform="translate(-9.081 -5.62)" fill="#86c7c0"/>
            <path id="Trazado_898834" data-name="Trazado 898834" d="M106.6,145.117c-4.493-11.579-4.493-30.524,0-42.1l2.268-5.843a7.857,7.857,0,0,0-.652-6.988l-.094-.151a4.832,4.832,0,0,0-4.1-2.28H56.16A6.845,6.845,0,0,0,49.314,94.6v58.935a6.845,6.845,0,0,0,6.846,6.846h49.333a4.071,4.071,0,0,0,3.149-1.49,6.05,6.05,0,0,0,.965-6.029Z" transform="translate(5.188 21.488)" fill="none" stroke="#fca43a" stroke-linecap="round" stroke-miterlimit="10" stroke-width="1.948"/>
            <path id="Trazado_898835" data-name="Trazado 898835" d="M155.812,145.117c-4.494-11.579-4.494-30.524,0-42.1l2.268-5.843a7.857,7.857,0,0,0-.652-6.988l-.094-.151a4.832,4.832,0,0,0-4.1-2.28h-47.86A6.845,6.845,0,0,0,98.525,94.6v58.935a6.845,6.845,0,0,0,6.846,6.846H154.7a4.071,4.071,0,0,0,3.149-1.49,6.05,6.05,0,0,0,.965-6.029Z" transform="translate(20.39 21.488)" fill="none" stroke="#fca43a" stroke-linecap="round" stroke-miterlimit="10" stroke-width="1.948"/>
            <path id="Trazado_898836" data-name="Trazado 898836" d="M205.243,145.117c-4.494-11.579-4.494-30.524,0-42.1l2.268-5.843a7.857,7.857,0,0,0-.652-6.988l-.094-.151a4.832,4.832,0,0,0-4.1-2.28H154.8a6.845,6.845,0,0,0-6.846,6.846v58.935a6.845,6.845,0,0,0,6.846,6.846h49.333a4.071,4.071,0,0,0,3.149-1.49,6.05,6.05,0,0,0,.965-6.029Z" transform="translate(35.66 21.488)" fill="none" stroke="#fca43a" stroke-linecap="round" stroke-miterlimit="10" stroke-width="1.948"/>
            <path id="Trazado_898837" data-name="Trazado 898837" d="M58.261,145.117c-4.493-11.579-4.493-30.524,0-42.1l2.268-5.843a7.857,7.857,0,0,0-.652-6.988l-.094-.151a4.832,4.832,0,0,0-4.1-2.28H7.82A6.845,6.845,0,0,0,.974,94.6v58.935a6.845,6.845,0,0,0,6.846,6.846H57.153a4.071,4.071,0,0,0,3.149-1.49,6.05,6.05,0,0,0,.965-6.029Z" transform="translate(-9.745 21.488)" fill="none" stroke="#fca43a" stroke-linecap="round" stroke-miterlimit="10" stroke-width="1.948"/>
            <line id="Línea_2013" data-name="Línea 2013" x1="9.079" transform="translate(45.424 145.553)" fill="none" stroke="#fca43a" stroke-linecap="round" stroke-miterlimit="10" stroke-width="1.948"/>
            <line id="Línea_2014" data-name="Línea 2014" x1="9.079" transform="translate(109.62 145.553)" fill="none" stroke="#fca43a" stroke-linecap="round" stroke-miterlimit="10" stroke-width="1.948"/>
            <line id="Línea_2015" data-name="Línea 2015" x1="9.079" transform="translate(174.033 145.553)" fill="none" stroke="#fca43a" stroke-linecap="round" stroke-miterlimit="10" stroke-width="1.948"/>
          </g>
        </g>
        <path id="Trazado_902675" data-name="Trazado 902675" d="M3.376-3.618V0H.806V-10.664H5.061a4.956,4.956,0,0,1,2.164.45A3.4,3.4,0,0,1,8.683-8.932,3.5,3.5,0,0,1,9.2-7.046,3.086,3.086,0,0,1,8.082-4.552a4.634,4.634,0,0,1-3.065.934Zm0-1.985H5.061A1.589,1.589,0,0,0,6.2-5.977a1.388,1.388,0,0,0,.392-1.055,1.715,1.715,0,0,0-.4-1.194,1.426,1.426,0,0,0-1.1-.454H3.376Zm11.8,4.746a2.545,2.545,0,0,1-2.117,1,2.5,2.5,0,0,1-1.974-.758,3.188,3.188,0,0,1-.67-2.179V-7.925h2.468v5.149a.887.887,0,0,0,.989,1.018,1.29,1.29,0,0,0,1.208-.608V-7.925h2.483V0H15.249Zm6.006-7.068.081.93a2.687,2.687,0,0,1,2.263-1.077,2.261,2.261,0,0,1,1.849.74A3.522,3.522,0,0,1,26.008-5.1V0H23.533V-5a1.337,1.337,0,0,0-.242-.883,1.118,1.118,0,0,0-.879-.282,1.177,1.177,0,0,0-1.077.571V0H18.867V-7.925ZM30.249-9.9v1.97h1.3v1.714h-1.3v3.625a.926.926,0,0,0,.161.623.864.864,0,0,0,.637.176,3.621,3.621,0,0,0,.615-.044V-.066a4.555,4.555,0,0,1-1.392.212,2.586,2.586,0,0,1-1.882-.6,2.462,2.462,0,0,1-.608-1.824V-6.211H26.77V-7.925h1.011V-9.9ZM36.987,0a2.787,2.787,0,0,1-.234-.71,2.3,2.3,0,0,1-1.9.857,2.812,2.812,0,0,1-1.9-.677,2.156,2.156,0,0,1-.784-1.7,2.216,2.216,0,0,1,.952-1.948,4.851,4.851,0,0,1,2.769-.659h.762v-.42q0-1.1-.945-1.1a.772.772,0,0,0-.879.868H32.351a2.213,2.213,0,0,1,.978-1.865,4.109,4.109,0,0,1,2.494-.717,3.6,3.6,0,0,1,2.4.74,2.572,2.572,0,0,1,.9,2.029v3.508a3.593,3.593,0,0,0,.337,1.67V0ZM35.442-1.611a1.377,1.377,0,0,0,.765-.2,1.239,1.239,0,0,0,.436-.447V-3.523h-.718q-1.289,0-1.289,1.157a.707.707,0,0,0,.227.546A.822.822,0,0,0,35.442-1.611Zm4.731-2.41a4.841,4.841,0,0,1,.813-2.966,2.676,2.676,0,0,1,2.271-1.084,2.276,2.276,0,0,1,1.787.835V-11.25H47.52V0H45.3l-.125-.85a2.337,2.337,0,0,1-1.934,1A2.671,2.671,0,0,1,41-.937,4.994,4.994,0,0,1,40.173-4.021Zm2.468.154q0,2.109,1.23,2.109a1.215,1.215,0,0,0,1.172-.688V-5.464a1.182,1.182,0,0,0-1.157-.7q-1.143,0-1.238,1.846ZM53.386,0a2.787,2.787,0,0,1-.234-.71,2.3,2.3,0,0,1-1.9.857,2.812,2.812,0,0,1-1.9-.677,2.156,2.156,0,0,1-.784-1.7,2.216,2.216,0,0,1,.952-1.948,4.851,4.851,0,0,1,2.769-.659h.762v-.42q0-1.1-.945-1.1a.772.772,0,0,0-.879.868H48.75a2.213,2.213,0,0,1,.978-1.865,4.109,4.109,0,0,1,2.494-.717,3.6,3.6,0,0,1,2.4.74,2.572,2.572,0,0,1,.9,2.029v3.508a3.593,3.593,0,0,0,.337,1.67V0ZM51.841-1.611a1.377,1.377,0,0,0,.765-.2,1.239,1.239,0,0,0,.436-.447V-3.523h-.718q-1.289,0-1.289,1.157a.707.707,0,0,0,.227.546A.822.822,0,0,0,51.841-1.611Zm8.467-2.41a4.841,4.841,0,0,1,.813-2.966,2.676,2.676,0,0,1,2.271-1.084,2.276,2.276,0,0,1,1.787.835V-11.25h2.476V0H65.435L65.31-.85a2.337,2.337,0,0,1-1.934,1A2.671,2.671,0,0,1,61.135-.937,4.994,4.994,0,0,1,60.308-4.021Zm2.468.154q0,2.109,1.23,2.109a1.215,1.215,0,0,0,1.172-.688V-5.464a1.182,1.182,0,0,0-1.157-.7q-1.143,0-1.238,1.846Zm5.969-.168a4.677,4.677,0,0,1,.461-2.113,3.3,3.3,0,0,1,1.326-1.425,3.993,3.993,0,0,1,2.029-.5,3.644,3.644,0,0,1,2.805,1.1,4.23,4.23,0,0,1,1.025,3v.088A4.1,4.1,0,0,1,75.363-.941,3.654,3.654,0,0,1,72.576.146,3.7,3.7,0,0,1,69.858-.868a3.968,3.968,0,0,1-1.106-2.75Zm2.468.154a2.949,2.949,0,0,0,.344,1.611,1.147,1.147,0,0,0,1.018.513q1.318,0,1.348-2.029v-.249q0-2.131-1.362-2.131-1.238,0-1.34,1.838ZM84.836-3.9a4.83,4.83,0,0,1-.806,3A2.7,2.7,0,0,1,81.76.146a2.342,2.342,0,0,1-1.948-.959l-.1.813H77.5V-11.25h2.468v3.962a2.259,2.259,0,0,1,1.78-.784,2.7,2.7,0,0,1,2.285,1.062,4.855,4.855,0,0,1,.806,2.988Zm-2.476-.157a3.222,3.222,0,0,0-.3-1.627,1.025,1.025,0,0,0-.934-.486,1.182,1.182,0,0,0-1.157.636v3.144a1.188,1.188,0,0,0,1.172.629,1.048,1.048,0,0,0,1.106-.848A6.091,6.091,0,0,0,82.361-4.054ZM88.528,0H86.052V-11.25h2.476Zm5.354.146A4.074,4.074,0,0,1,90.93-.941,3.756,3.756,0,0,1,89.8-3.772v-.205a4.867,4.867,0,0,1,.45-2.146,3.3,3.3,0,0,1,1.315-1.439,3.969,3.969,0,0,1,2.051-.509,3.43,3.43,0,0,1,2.637,1.036,4.073,4.073,0,0,1,.967,2.889v.959H92.314a1.779,1.779,0,0,0,.579,1.047,1.722,1.722,0,0,0,1.157.381,2.218,2.218,0,0,0,1.831-.82l1.128,1.333A3.153,3.153,0,0,1,95.7-.231,4.418,4.418,0,0,1,93.882.146ZM93.6-6.167q-1.084,0-1.289,1.436H94.8v-.19a1.223,1.223,0,0,0-.3-.919A1.2,1.2,0,0,0,93.6-6.167Zm15.7,2.263a4.779,4.779,0,0,1-.831,2.948,2.665,2.665,0,0,1-2.245,1.1,2.285,2.285,0,0,1-1.794-.8v3.7h-2.468V-7.925h2.307l.073.732a2.285,2.285,0,0,1,1.868-.879,2.687,2.687,0,0,1,2.278,1.08,4.838,4.838,0,0,1,.813,2.97Zm-2.468-.154q0-2.109-1.23-2.109a1.162,1.162,0,0,0-1.172.63v3.12a1.2,1.2,0,0,0,1.187.659q1.179,0,1.216-2.036Zm7.39,4.2a4.074,4.074,0,0,1-2.952-1.088,3.756,3.756,0,0,1-1.128-2.831v-.205a4.867,4.867,0,0,1,.45-2.146,3.3,3.3,0,0,1,1.315-1.439,3.969,3.969,0,0,1,2.051-.509A3.43,3.43,0,0,1,116.6-7.035a4.073,4.073,0,0,1,.967,2.889v.959h-4.907a1.779,1.779,0,0,0,.579,1.047,1.722,1.722,0,0,0,1.157.381,2.218,2.218,0,0,0,1.831-.82l1.128,1.333a3.153,3.153,0,0,1-1.307,1.014A4.418,4.418,0,0,1,114.229.146Zm-.278-6.313q-1.084,0-1.289,1.436h2.49v-.19a1.223,1.223,0,0,0-.3-.919A1.2,1.2,0,0,0,113.95-6.167Zm8.76,3.94a.57.57,0,0,0-.33-.505,5.013,5.013,0,0,0-1.252-.4,5.711,5.711,0,0,1-1.523-.538,2.552,2.552,0,0,1-.916-.809,1.933,1.933,0,0,1-.315-1.091,2.19,2.19,0,0,1,.9-1.8,3.711,3.711,0,0,1,2.358-.707,4.112,4.112,0,0,1,2.52.71,2.222,2.222,0,0,1,.952,1.868h-2.476q0-.952-1-.952a1,1,0,0,0-.652.216.669.669,0,0,0-.264.538.614.614,0,0,0,.322.535,3.045,3.045,0,0,0,1.029.337A8.893,8.893,0,0,1,123.3-4.5a2.255,2.255,0,0,1,1.787,2.2,2.075,2.075,0,0,1-.963,1.765,4.224,4.224,0,0,1-2.494.681,4.31,4.31,0,0,1-1.816-.366,3.037,3.037,0,0,1-1.245-1,2.256,2.256,0,0,1-.447-1.326h2.307a.954.954,0,0,0,.366.8,1.506,1.506,0,0,0,.9.253,1.185,1.185,0,0,0,.758-.205A.656.656,0,0,0,122.71-2.227ZM133.6-3.9a4.779,4.779,0,0,1-.831,2.948,2.665,2.665,0,0,1-2.245,1.1,2.285,2.285,0,0,1-1.794-.8v3.7h-2.468V-7.925h2.307l.073.732a2.285,2.285,0,0,1,1.868-.879,2.687,2.687,0,0,1,2.278,1.08,4.838,4.838,0,0,1,.813,2.97Zm-2.468-.154q0-2.109-1.23-2.109a1.162,1.162,0,0,0-1.172.63v3.12a1.2,1.2,0,0,0,1.187.659q1.179,0,1.216-2.036Zm8.276,3.2a2.545,2.545,0,0,1-2.117,1,2.5,2.5,0,0,1-1.974-.758,3.188,3.188,0,0,1-.67-2.179V-7.925h2.468v5.149a.887.887,0,0,0,.989,1.018,1.29,1.29,0,0,0,1.208-.608V-7.925H141.8V0h-2.314Zm6.006-7.068.081.93a2.687,2.687,0,0,1,2.263-1.077,2.261,2.261,0,0,1,1.849.74,3.522,3.522,0,0,1,.634,2.227V0h-2.476V-5a1.337,1.337,0,0,0-.242-.883,1.118,1.118,0,0,0-.879-.282,1.177,1.177,0,0,0-1.077.571V0H143.1V-7.925Zm9.067-1.97v1.97h1.3v1.714h-1.3v3.625a.926.926,0,0,0,.161.623.864.864,0,0,0,.637.176,3.621,3.621,0,0,0,.615-.044V-.066A4.555,4.555,0,0,1,154.5.146a2.586,2.586,0,0,1-1.882-.6,2.462,2.462,0,0,1-.608-1.824V-6.211H151V-7.925h1.011V-9.9ZM160.591.146a4.074,4.074,0,0,1-2.952-1.088,3.756,3.756,0,0,1-1.128-2.831v-.205a4.867,4.867,0,0,1,.45-2.146,3.3,3.3,0,0,1,1.315-1.439,3.969,3.969,0,0,1,2.051-.509,3.43,3.43,0,0,1,2.637,1.036,4.073,4.073,0,0,1,.967,2.889v.959h-4.907a1.779,1.779,0,0,0,.579,1.047,1.722,1.722,0,0,0,1.157.381,2.218,2.218,0,0,0,1.831-.82l1.128,1.333a3.153,3.153,0,0,1-1.307,1.014A4.418,4.418,0,0,1,160.591.146Zm-.278-6.313q-1.084,0-1.289,1.436h2.49v-.19a1.223,1.223,0,0,0-.3-.919A1.2,1.2,0,0,0,160.313-6.167Z" transform="translate(7007.352 -4359.155)" fill="#12263f"/>
        <path id="Trazado_902676" data-name="Trazado 902676" d="M10.9-4.061A4.708,4.708,0,0,1,9.4-.927,4.911,4.911,0,0,1,6.047.176,4.509,4.509,0,0,1,2.413-1.45,6.542,6.542,0,0,1,1.046-5.8v-1.23a7.291,7.291,0,0,1,.637-3.138,4.76,4.76,0,0,1,1.806-2.079A5.029,5.029,0,0,1,6.2-12.973a4.624,4.624,0,0,1,3.27,1.138A4.765,4.765,0,0,1,10.9-8.684H9.2a3.677,3.677,0,0,0-.954-2.222A2.885,2.885,0,0,0,6.2-11.593a3.019,3.019,0,0,0-2.536,1.2,5.492,5.492,0,0,0-.918,3.4v1.24a5.645,5.645,0,0,0,.87,3.316A2.812,2.812,0,0,0,6.047-1.2,3.247,3.247,0,0,0,8.2-1.841a3.536,3.536,0,0,0,1-2.219ZM18.5-1.38h6.064V0H16.8V-12.8h1.7ZM37.32-3.349H31.959L30.755,0h-1.74L33.9-12.8h1.477L40.273,0H38.542Zm-4.852-1.38h4.351l-2.18-5.985Zm16.9-.976a7.935,7.935,0,0,1-3.16-1.534,2.93,2.93,0,0,1-.989-2.246,3.1,3.1,0,0,1,1.208-2.5,4.8,4.8,0,0,1,3.142-.989,5.243,5.243,0,0,1,2.351.51,3.866,3.866,0,0,1,1.6,1.406,3.6,3.6,0,0,1,.567,1.96h-1.7a2.34,2.34,0,0,0-.738-1.83,3,3,0,0,0-2.083-.666,3.074,3.074,0,0,0-1.947.55,1.836,1.836,0,0,0-.7,1.528,1.652,1.652,0,0,0,.664,1.325,6.509,6.509,0,0,0,2.259.991,10.481,10.481,0,0,1,2.5.99,3.788,3.788,0,0,1,1.336,1.261,3.219,3.219,0,0,1,.435,1.7A2.99,2.99,0,0,1,52.9-.76a5.171,5.171,0,0,1-3.243.936A6.015,6.015,0,0,1,47.2-.33a4.142,4.142,0,0,1-1.762-1.384,3.378,3.378,0,0,1-.62-2h1.7a2.2,2.2,0,0,0,.857,1.833,3.608,3.608,0,0,0,2.29.672A3.317,3.317,0,0,0,51.7-1.749a1.77,1.77,0,0,0,.712-1.485,1.738,1.738,0,0,0-.659-1.455A7.6,7.6,0,0,0,49.366-5.7Zm17.742-.211H61.562V-1.38H68V0h-8.13V-12.8h8.042v1.38H61.562v4.122h5.546ZM83.7-7.189h1.222A2.685,2.685,0,0,0,86.736-7.8a2.026,2.026,0,0,0,.659-1.591,1.985,1.985,0,0,0-2.241-2.25,2.331,2.331,0,0,0-1.683.6,2.107,2.107,0,0,0-.628,1.6H81.216a3.264,3.264,0,0,1,1.112-2.527,4.05,4.05,0,0,1,2.826-1.006,4,4,0,0,1,2.839.958,3.461,3.461,0,0,1,1.028,2.663,2.809,2.809,0,0,1-.541,1.617,3.264,3.264,0,0,1-1.472,1.169,3.145,3.145,0,0,1,1.63,1.107,3.076,3.076,0,0,1,.576,1.89A3.491,3.491,0,0,1,88.089-.835,4.213,4.213,0,0,1,85.162.176,4.324,4.324,0,0,1,82.231-.8,3.236,3.236,0,0,1,81.1-3.375h1.635A2.092,2.092,0,0,0,83.4-1.758a2.507,2.507,0,0,0,1.767.606,2.46,2.46,0,0,0,1.8-.615,2.371,2.371,0,0,0,.624-1.767A2.151,2.151,0,0,0,86.9-5.247a2.987,2.987,0,0,0-1.978-.615H83.7Zm19.368,1.731a7.436,7.436,0,0,1-.976,4.245A3.47,3.47,0,0,1,99.046.176a3.5,3.5,0,0,1-3.032-1.358,7.058,7.058,0,0,1-1.02-4.056V-7.409A7.271,7.271,0,0,1,95.97-11.6a3.5,3.5,0,0,1,3.059-1.371,3.528,3.528,0,0,1,3.041,1.323,7.017,7.017,0,0,1,1,4.083Zm-1.626-2.224a5.958,5.958,0,0,0-.58-3.01,2,2,0,0,0-1.837-.945,1.97,1.97,0,0,0-1.819.94A5.817,5.817,0,0,0,96.62-7.8v2.6a6.053,6.053,0,0,0,.6,3.063,1.993,1.993,0,0,0,1.824.989,1.966,1.966,0,0,0,1.789-.932,5.834,5.834,0,0,0,.611-2.936Zm15.333,2.224a7.436,7.436,0,0,1-.976,4.245,3.47,3.47,0,0,1-3.05,1.389,3.5,3.5,0,0,1-3.032-1.358,7.058,7.058,0,0,1-1.02-4.056V-7.409a7.271,7.271,0,0,1,.976-4.192,3.5,3.5,0,0,1,3.059-1.371,3.528,3.528,0,0,1,3.041,1.323,7.017,7.017,0,0,1,1,4.083Zm-1.626-2.224a5.958,5.958,0,0,0-.58-3.01,2,2,0,0,0-1.837-.945,1.97,1.97,0,0,0-1.819.94,5.817,5.817,0,0,0-.589,2.892v2.6a6.053,6.053,0,0,0,.6,3.063,1.993,1.993,0,0,0,1.824.989,1.966,1.966,0,0,0,1.789-.932,5.834,5.834,0,0,0,.611-2.936Z" transform="translate(7036.195 -4302.376)" fill="#12263f"/>
      </g>
    </g>
  </g>
</svg>
