<svg xmlns="http://www.w3.org/2000/svg" xmlns:xlink="http://www.w3.org/1999/xlink" width="218.478" height="202.811" viewBox="0 0 218.478 202.811">
  <defs>
    <clipPath id="clip-path">
      <rect id="Rectángulo_415824" data-name="Rectángulo 415824" width="218.476" height="202.81" transform="translate(21.939)" fill="none"/>
    </clipPath>
    <clipPath id="clip-path-2">
      <path id="Rectángulo_415828" data-name="Rectángulo 415828" d="M7.075,0H211.4a7.075,7.075,0,0,1,7.075,7.075V191.818a7.075,7.075,0,0,1-7.075,7.075H7.074A7.074,7.074,0,0,1,0,191.819V7.075A7.075,7.075,0,0,1,7.075,0Z" fill="none"/>
    </clipPath>
    <clipPath id="clip-path-3">
      <rect id="Rectángulo_415827" data-name="Rectángulo 415827" width="243.72" height="85.302" fill="none"/>
    </clipPath>
  </defs>
  <g id="Grupo_1129402" data-name="Grupo 1129402" transform="translate(-8917.181 4397)">
    <g id="Grupo_1129252" data-name="Grupo 1129252" transform="translate(8895.243 -4397)">
      <g id="Grupo_1129251" data-name="Grupo 1129251" clip-path="url(#clip-path)">
        <path id="Trazado_898885" data-name="Trazado 898885" d="M225.8,201.865H25.971a9.321,9.321,0,0,1-9.322-9.322V12.295a9.321,9.321,0,0,1,9.322-9.322H225.8a9.321,9.321,0,0,1,9.322,9.322V192.543a9.321,9.321,0,0,1-9.322,9.322" transform="translate(5.29 0.945)" fill="#fff8e0"/>
      </g>
    </g>
    <g id="Grupo_1129257" data-name="Grupo 1129257" transform="translate(8917.181 -4393.083)">
      <g id="Grupo_1129256" data-name="Grupo 1129256" clip-path="url(#clip-path-2)">
        <rect id="Rectángulo_415825" data-name="Rectángulo 415825" width="240.239" height="50.05" transform="translate(-5.661 -3.918)" fill="#86c7c0"/>
        <path id="Trazado_898886" data-name="Trazado 898886" d="M59.916,71.006h27.2a2.85,2.85,0,0,1,2.751,3.587L82.67,101.421a2.849,2.849,0,0,1-2.751,2.111H67.3a2.848,2.848,0,0,1-2.746-2.093L57.17,74.611A2.848,2.848,0,0,1,59.916,71.006Z" transform="translate(-3.806 18.643)" fill="none" stroke="#fca43a" stroke-linecap="round" stroke-miterlimit="10" stroke-width="1.644"/>
        <path id="Trazado_898887" data-name="Trazado 898887" d="M22.3,71.006h27.2a2.85,2.85,0,0,1,2.751,3.587L45.05,101.421a2.849,2.849,0,0,1-2.751,2.111H29.683a2.848,2.848,0,0,1-2.746-2.093L19.55,74.611A2.848,2.848,0,0,1,22.3,71.006Z" transform="translate(-15.759 18.643)" fill="none" stroke="#fca43a" stroke-linecap="round" stroke-miterlimit="10" stroke-width="1.644"/>
        <path id="Trazado_898888" data-name="Trazado 898888" d="M68.354,106.752h-27.2a2.85,2.85,0,0,1-2.751-3.587L45.6,76.337a2.849,2.849,0,0,1,2.751-2.111H60.966a2.848,2.848,0,0,1,2.746,2.093L71.1,103.146A2.848,2.848,0,0,1,68.354,106.752Z" transform="translate(-9.766 19.666)" fill="none" stroke="#fca43a" stroke-linecap="round" stroke-miterlimit="10" stroke-width="1.644"/>
        <path id="Trazado_898889" data-name="Trazado 898889" d="M30.868,106.752H3.672a2.849,2.849,0,0,1-2.751-3.587L8.114,76.337a2.849,2.849,0,0,1,2.751-2.111H23.48a2.848,2.848,0,0,1,2.746,2.093l7.387,26.828A2.848,2.848,0,0,1,30.868,106.752Z" transform="translate(-21.676 19.666)" fill="none" stroke="#fca43a" stroke-linecap="round" stroke-miterlimit="10" stroke-width="1.644"/>
        <path id="Trazado_898890" data-name="Trazado 898890" d="M97.656,71.006h27.2a2.85,2.85,0,0,1,2.751,3.587l-7.194,26.828a2.848,2.848,0,0,1-2.751,2.111H105.043a2.848,2.848,0,0,1-2.746-2.093L94.91,74.611A2.848,2.848,0,0,1,97.656,71.006Z" transform="translate(8.185 18.643)" fill="none" stroke="#fca43a" stroke-linecap="round" stroke-miterlimit="10" stroke-width="1.644"/>
        <path id="Trazado_898891" data-name="Trazado 898891" d="M106.094,106.752H78.9a2.849,2.849,0,0,1-2.751-3.587L83.34,76.337a2.849,2.849,0,0,1,2.751-2.111H98.706a2.848,2.848,0,0,1,2.746,2.093l7.387,26.828A2.848,2.848,0,0,1,106.094,106.752Z" transform="translate(2.225 19.666)" fill="none" stroke="#fca43a" stroke-linecap="round" stroke-miterlimit="10" stroke-width="1.644"/>
        <path id="Trazado_898892" data-name="Trazado 898892" d="M135.4,71.006h27.2a2.85,2.85,0,0,1,2.751,3.587l-7.194,26.828a2.849,2.849,0,0,1-2.751,2.111H142.784a2.848,2.848,0,0,1-2.746-2.093l-7.387-26.828A2.848,2.848,0,0,1,135.4,71.006Z" transform="translate(20.177 18.643)" fill="none" stroke="#fca43a" stroke-linecap="round" stroke-miterlimit="10" stroke-width="1.644"/>
        <path id="Trazado_898893" data-name="Trazado 898893" d="M143.835,106.752h-27.2a2.85,2.85,0,0,1-2.751-3.587l7.194-26.828a2.849,2.849,0,0,1,2.751-2.111h12.615a2.848,2.848,0,0,1,2.746,2.093l7.387,26.828A2.848,2.848,0,0,1,143.835,106.752Z" transform="translate(14.217 19.666)" fill="none" stroke="#fca43a" stroke-linecap="round" stroke-miterlimit="10" stroke-width="1.644"/>
        <path id="Trazado_898894" data-name="Trazado 898894" d="M173.137,71.006h27.2a2.849,2.849,0,0,1,2.751,3.587l-7.193,26.828a2.849,2.849,0,0,1-2.751,2.111H180.524a2.848,2.848,0,0,1-2.746-2.093l-7.387-26.828A2.848,2.848,0,0,1,173.137,71.006Z" transform="translate(32.168 18.643)" fill="none" stroke="#fca43a" stroke-linecap="round" stroke-miterlimit="10" stroke-width="1.644"/>
        <path id="Trazado_898895" data-name="Trazado 898895" d="M181.575,106.752h-27.2a2.849,2.849,0,0,1-2.751-3.587l7.194-26.828a2.849,2.849,0,0,1,2.751-2.111h12.615a2.848,2.848,0,0,1,2.746,2.093l7.387,26.828A2.848,2.848,0,0,1,181.575,106.752Z" transform="translate(26.208 19.666)" fill="none" stroke="#fca43a" stroke-linecap="round" stroke-miterlimit="10" stroke-width="1.644"/>
        <path id="Trazado_898896" data-name="Trazado 898896" d="M73.628,95.644v64.61a5.922,5.922,0,0,1-11.844,0V99.709" transform="translate(-2.307 26.472)" fill="none" stroke="#fca43a" stroke-linecap="round" stroke-miterlimit="10" stroke-width="1.644"/>
        <path id="Trazado_898897" data-name="Trazado 898897" d="M43.674,78.255v61.456c0,3.318,3.086,6.01,6.894,6.01s6.894-2.692,6.894-6.01V80.139s-.884-9.133,6.709-9.133" transform="translate(-8.061 18.643)" fill="none" stroke="#fca43a" stroke-linecap="round" stroke-miterlimit="10" stroke-width="1.787"/>
        <path id="Trazado_898898" data-name="Trazado 898898" d="M78.955,89.861V139.71c0,3.321,3.086,6.012,6.894,6.012s6.894-2.691,6.894-6.012V80.139s-.884-9.133,6.709-9.133" transform="translate(3.149 18.643)" fill="none" stroke="#fca43a" stroke-linecap="round" stroke-miterlimit="10" stroke-width="1.787"/>
        <path id="Trazado_898899" data-name="Trazado 898899" d="M111.956,104.888v35.353c0,2.79,3.086,5.48,6.894,5.48s6.894-2.691,6.894-6.01V80.139s-.884-9.24,6.709-9.133" transform="translate(13.635 18.643)" fill="none" stroke="#fca43a" stroke-linecap="round" stroke-miterlimit="10" stroke-width="1.787"/>
        <path id="Trazado_898900" data-name="Trazado 898900" d="M147.626,104.888v35.353c0,2.79,3.086,5.48,6.894,5.48s6.894-2.691,6.894-6.01V80.139s-.884-9.24,6.709-9.133H185.88" transform="translate(24.968 18.643)" fill="none" stroke="#fca43a" stroke-linecap="round" stroke-miterlimit="10" stroke-width="1.787"/>
        <path id="Trazado_898901" data-name="Trazado 898901" d="M39.286,95.644v64.61a5.922,5.922,0,0,1-11.844,0V95.823" transform="translate(-13.218 26.472)" fill="none" stroke="#fca43a" stroke-linecap="round" stroke-miterlimit="10" stroke-width="1.644"/>
        <path id="Trazado_898902" data-name="Trazado 898902" d="M107.7,95.644v64.61a5.922,5.922,0,1,1-11.844,0V99.709" transform="translate(8.52 26.472)" fill="none" stroke="#fca43a" stroke-linecap="round" stroke-miterlimit="10" stroke-width="1.644"/>
        <path id="Trazado_898903" data-name="Trazado 898903" d="M141.776,95.644v64.61a5.922,5.922,0,1,1-11.844,0V99.709" transform="translate(19.346 26.472)" fill="none" stroke="#fca43a" stroke-linecap="round" stroke-miterlimit="10" stroke-width="1.644"/>
        <path id="Trazado_898904" data-name="Trazado 898904" d="M175.85,99.4v59.66a5.922,5.922,0,0,1-11.844,0V99.4" transform="translate(30.173 27.665)" fill="none" stroke="#fca43a" stroke-linecap="round" stroke-miterlimit="10" stroke-width="1.644"/>
        <line id="Línea_2025" data-name="Línea 2025" y2="35" transform="translate(125.59 123.884)" fill="none" stroke="#fca43a" stroke-linecap="round" stroke-miterlimit="10" stroke-width="1.787"/>
        <line id="Línea_2026" data-name="Línea 2026" x2="21.213" transform="translate(147.687 89.649)" fill="none" stroke="#fca43a" stroke-linecap="round" stroke-miterlimit="10" stroke-width="1.787"/>
        <line id="Línea_2027" data-name="Línea 2027" x1="64.379" y1="26.063" transform="translate(6.795 162.715)" fill="none" stroke="#fca43a" stroke-linecap="round" stroke-miterlimit="10" stroke-width="1.787"/>
        <line id="Línea_2028" data-name="Línea 2028" x1="64.379" y1="26.063" transform="translate(51.571 162.715)" fill="none" stroke="#fca43a" stroke-linecap="round" stroke-miterlimit="10" stroke-width="1.787"/>
        <line id="Línea_2029" data-name="Línea 2029" x1="64.379" y1="26.063" transform="translate(96.346 162.715)" fill="none" stroke="#fca43a" stroke-linecap="round" stroke-miterlimit="10" stroke-width="1.787"/>
        <line id="Línea_2030" data-name="Línea 2030" x1="64.379" y1="26.063" transform="translate(141.122 162.715)" fill="none" stroke="#fca43a" stroke-linecap="round" stroke-miterlimit="10" stroke-width="1.787"/>
        <line id="Línea_2031" data-name="Línea 2031" x1="64.379" y1="26.063" transform="translate(191.021 162.715)" fill="none" stroke="#fca43a" stroke-linecap="round" stroke-miterlimit="10" stroke-width="1.787"/>
        <path id="Trazado_898905" data-name="Trazado 898905" d="M195.1,127.828l-45.862-9.319a4.238,4.238,0,1,1,1.688-8.307L200.7,120.315s6.243-.476,11.144,9.1,15.149,28.29,15.149,28.29" transform="translate(24.4 31.07)" fill="none" stroke="#fca43a" stroke-linecap="round" stroke-miterlimit="10" stroke-width="1.644"/>
        <path id="Trazado_898906" data-name="Trazado 898906" d="M228.4,127.828l-45.862-9.319a4.238,4.238,0,1,1,1.688-8.307L234,120.315s6.243-.476,11.144,9.1,15.149,28.29,15.149,28.29" transform="translate(34.981 31.07)" fill="none" stroke="#fca43a" stroke-linecap="round" stroke-miterlimit="10" stroke-width="1.644"/>
        <path id="Trazado_898907" data-name="Trazado 898907" d="M126.969,127.828l-45.862-9.319a4.238,4.238,0,1,1,1.688-8.307l49.776,10.114s6.243-.476,11.144,9.1,15.149,28.29,15.149,28.29" transform="translate(2.754 31.07)" fill="none" stroke="#fca43a" stroke-linecap="round" stroke-miterlimit="10" stroke-width="1.644"/>
        <path id="Trazado_898908" data-name="Trazado 898908" d="M91.637,127.828l-45.862-9.319a4.238,4.238,0,1,1,1.688-8.307l49.776,10.114s6.243-.476,11.144,9.1,15.149,28.29,15.149,28.29" transform="translate(-8.472 31.07)" fill="none" stroke="#fca43a" stroke-linecap="round" stroke-miterlimit="10" stroke-width="1.644"/>
        <path id="Trazado_898909" data-name="Trazado 898909" d="M19.159,125.854l38.5,1.974L11.8,118.509a4.239,4.239,0,0,1-3.31-5h0a4.239,4.239,0,0,1,5-3.309L63.26,120.317s6.243-.477,11.145,9.1,15.147,28.29,15.147,28.29" transform="translate(-19.269 31.07)" fill="none" stroke="#fca43a" stroke-linecap="round" stroke-miterlimit="10" stroke-width="1.644"/>
        <line id="Línea_2032" data-name="Línea 2032" x2="23.612" y2="2.228" transform="translate(58.922 157.592)" fill="none" stroke="#fca43a" stroke-linecap="round" stroke-miterlimit="10" stroke-width="1.644"/>
        <line id="Línea_2033" data-name="Línea 2033" x2="25.173" y2="1.559" transform="translate(103.698 157.815)" fill="none" stroke="#fca43a" stroke-linecap="round" stroke-miterlimit="10" stroke-width="1.644"/>
        <path id="Trazado_898910" data-name="Trazado 898910" d="M136.022,126.076l23.574,1.751-45.862-9.319a4.238,4.238,0,1,1,1.688-8.307L165.2,120.315s6.245-.476,11.144,9.1,15.15,28.29,15.15,28.29" transform="translate(13.12 31.07)" fill="none" stroke="#fca43a" stroke-linecap="round" stroke-miterlimit="10" stroke-width="1.644"/>
        <g id="Grupo_1129255" data-name="Grupo 1129255" transform="translate(-14.649 128.968)" opacity="0.54">
          <g id="Grupo_1129254" data-name="Grupo 1129254" transform="translate(0)">
            <g id="Grupo_1129253" data-name="Grupo 1129253" clip-path="url(#clip-path-3)">
              <rect id="Rectángulo_415826" data-name="Rectángulo 415826" width="243.72" height="85.302" transform="translate(0 0)" fill="#fff"/>
            </g>
          </g>
        </g>
      </g>
    </g>
    <path id="Trazado_902681" data-name="Trazado 902681" d="M4.052-4.342V0H.967V-12.8H6.073a5.948,5.948,0,0,1,2.6.541,4.074,4.074,0,0,1,1.749,1.538,4.2,4.2,0,0,1,.62,2.263A3.7,3.7,0,0,1,9.7-5.462,5.561,5.561,0,0,1,6.021-4.342Zm0-2.382H6.073A1.906,1.906,0,0,0,7.44-7.172a1.665,1.665,0,0,0,.47-1.266A2.059,2.059,0,0,0,7.427-9.87a1.712,1.712,0,0,0-1.318-.545H4.052Zm14.159,5.7a3.054,3.054,0,0,1-2.54,1.2A3,3,0,0,1,13.3-.734a3.826,3.826,0,0,1-.8-2.615V-9.51H15.46v6.179a1.065,1.065,0,0,0,1.187,1.222,1.548,1.548,0,0,0,1.45-.729V-9.51h2.979V0H18.3ZM25.418-9.51l.1,1.116A3.225,3.225,0,0,1,28.23-9.686,2.713,2.713,0,0,1,30.45-8.8a4.226,4.226,0,0,1,.76,2.672V0H28.239V-6a1.6,1.6,0,0,0-.29-1.059A1.342,1.342,0,0,0,26.895-7.4a1.413,1.413,0,0,0-1.292.686V0H22.641V-9.51ZM36.3-11.874V-9.51h1.564v2.057H36.3V-3.1a1.111,1.111,0,0,0,.193.747,1.037,1.037,0,0,0,.765.211A4.345,4.345,0,0,0,38-2.2V-.079a5.466,5.466,0,0,1-1.67.255,3.1,3.1,0,0,1-2.259-.721,2.954,2.954,0,0,1-.729-2.188v-4.72H32.124V-9.51h1.213v-2.364ZM44.385,0A3.344,3.344,0,0,1,44.1-.853,2.754,2.754,0,0,1,41.818.176a3.374,3.374,0,0,1-2.285-.813,2.588,2.588,0,0,1-.94-2.043,2.66,2.66,0,0,1,1.143-2.338,5.821,5.821,0,0,1,3.322-.791h.914v-.5q0-1.316-1.134-1.316a.927.927,0,0,0-1.055,1.042H38.821a2.655,2.655,0,0,1,1.173-2.239,4.931,4.931,0,0,1,2.993-.86,4.323,4.323,0,0,1,2.874.888,3.086,3.086,0,0,1,1.081,2.435v4.21a4.311,4.311,0,0,0,.4,2V0ZM42.53-1.934a1.652,1.652,0,0,0,.918-.237,1.487,1.487,0,0,0,.523-.536V-4.228H43.11q-1.547,0-1.547,1.389a.848.848,0,0,0,.272.655A.986.986,0,0,0,42.53-1.934Zm5.678-2.892a5.809,5.809,0,0,1,.976-3.56,3.211,3.211,0,0,1,2.725-1.3,2.731,2.731,0,0,1,2.145,1V-13.5h2.971V0H54.36l-.149-1.02a2.8,2.8,0,0,1-2.32,1.2,3.205,3.205,0,0,1-2.689-1.3A5.993,5.993,0,0,1,48.208-4.825Zm2.962.185q0,2.531,1.477,2.531a1.458,1.458,0,0,0,1.406-.826V-6.557A1.419,1.419,0,0,0,52.664-7.4q-1.371,0-1.485,2.215ZM64.063,0a3.344,3.344,0,0,1-.281-.853A2.754,2.754,0,0,1,61.5.176a3.374,3.374,0,0,1-2.285-.813,2.588,2.588,0,0,1-.94-2.043,2.66,2.66,0,0,1,1.143-2.338,5.821,5.821,0,0,1,3.322-.791h.914v-.5q0-1.316-1.134-1.316a.927.927,0,0,0-1.055,1.042H58.5a2.655,2.655,0,0,1,1.173-2.239,4.931,4.931,0,0,1,2.993-.86A4.323,4.323,0,0,1,65.54-8.8a3.086,3.086,0,0,1,1.081,2.435v4.21a4.311,4.311,0,0,0,.4,2V0ZM62.209-1.934a1.652,1.652,0,0,0,.918-.237,1.487,1.487,0,0,0,.523-.536V-4.228h-.861q-1.547,0-1.547,1.389a.848.848,0,0,0,.272.655A.986.986,0,0,0,62.209-1.934ZM78.5-6.829,77.52-6.9a1.752,1.752,0,0,0-1.793.879V0H72.765V-9.51h2.777l.1,1.222a2.294,2.294,0,0,1,2.083-1.4,2.888,2.888,0,0,1,.826.105Zm5.5,7a4.889,4.889,0,0,1-3.542-1.305,4.507,4.507,0,0,1-1.354-3.4v-.246a5.84,5.84,0,0,1,.541-2.575A3.955,3.955,0,0,1,81.22-9.075a4.763,4.763,0,0,1,2.461-.611,4.117,4.117,0,0,1,3.164,1.244A4.887,4.887,0,0,1,88-4.975v1.151H82.116a2.135,2.135,0,0,0,.694,1.257,2.066,2.066,0,0,0,1.389.457,2.662,2.662,0,0,0,2.2-.984l1.354,1.6A3.784,3.784,0,0,1,86.181-.277,5.3,5.3,0,0,1,84,.176ZM83.663-7.4q-1.3,0-1.547,1.723H85.1v-.229a1.467,1.467,0,0,0-.36-1.1A1.434,1.434,0,0,0,83.663-7.4Zm9.554,5.291a1.317,1.317,0,0,0,.967-.338,1.241,1.241,0,0,0,.334-.945h2.777A3.288,3.288,0,0,1,96.174-.826a4.168,4.168,0,0,1-2.887,1,4.22,4.22,0,0,1-3.27-1.3,5.125,5.125,0,0,1-1.2-3.6v-.123A5.792,5.792,0,0,1,89.354-7.4a3.872,3.872,0,0,1,1.534-1.7,4.573,4.573,0,0,1,2.373-.593,4.116,4.116,0,0,1,2.944,1.028,3.647,3.647,0,0,1,1.09,2.786H94.518A1.626,1.626,0,0,0,94.157-7a1.244,1.244,0,0,0-.967-.4q-1.151,0-1.345,1.468a10.357,10.357,0,0,0-.062,1.283,4.068,4.068,0,0,0,.343,1.986A1.187,1.187,0,0,0,93.217-2.109Zm11,1.081a3.054,3.054,0,0,1-2.54,1.2A3,3,0,0,1,99.3-.734a3.826,3.826,0,0,1-.8-2.615V-9.51h2.962v6.179a1.065,1.065,0,0,0,1.187,1.222,1.548,1.548,0,0,0,1.45-.729V-9.51h2.979V0H104.3Zm13.315-3.647a5.8,5.8,0,0,1-.967,3.595A3.238,3.238,0,0,1,113.836.176,2.81,2.81,0,0,1,111.5-.976L111.375,0h-2.654V-13.5h2.962v4.755a2.711,2.711,0,0,1,2.136-.94,3.239,3.239,0,0,1,2.742,1.274,5.826,5.826,0,0,1,.967,3.586Zm-2.971-.189a3.866,3.866,0,0,0-.365-1.952,1.229,1.229,0,0,0-1.121-.584,1.418,1.418,0,0,0-1.389.763v3.773a1.426,1.426,0,0,0,1.406.755,1.258,1.258,0,0,0,1.327-1.018A7.309,7.309,0,0,0,114.557-4.865Zm10.028-1.964-.976-.07a1.752,1.752,0,0,0-1.793.879V0h-2.962V-9.51h2.777l.1,1.222a2.294,2.294,0,0,1,2.083-1.4,2.888,2.888,0,0,1,.826.105ZM128.777,0h-2.971V-9.51h2.971Zm-3.146-11.971a1.334,1.334,0,0,1,.457-1.043,1.718,1.718,0,0,1,1.187-.407,1.718,1.718,0,0,1,1.187.407,1.334,1.334,0,0,1,.457,1.043,1.334,1.334,0,0,1-.457,1.043,1.718,1.718,0,0,1-1.187.407,1.718,1.718,0,0,1-1.187-.407A1.334,1.334,0,0,1,125.631-11.971Zm4.6,7.146a5.809,5.809,0,0,1,.976-3.56,3.211,3.211,0,0,1,2.725-1.3,2.731,2.731,0,0,1,2.145,1V-13.5h2.971V0H136.38l-.149-1.02a2.8,2.8,0,0,1-2.32,1.2,3.205,3.205,0,0,1-2.689-1.3A5.993,5.993,0,0,1,130.228-4.825Zm2.962.185q0,2.531,1.477,2.531a1.458,1.458,0,0,0,1.406-.826V-6.557a1.419,1.419,0,0,0-1.389-.844q-1.371,0-1.485,2.215Zm7.163-.2a5.613,5.613,0,0,1,.554-2.536A3.96,3.96,0,0,1,142.5-9.088a4.791,4.791,0,0,1,2.435-.6A4.373,4.373,0,0,1,148.3-8.363a5.076,5.076,0,0,1,1.23,3.6v.105a4.925,4.925,0,0,1-1.235,3.529A4.384,4.384,0,0,1,144.949.176a4.434,4.434,0,0,1-3.261-1.217,4.761,4.761,0,0,1-1.327-3.3Zm2.962.185a3.538,3.538,0,0,0,.413,1.934,1.376,1.376,0,0,0,1.222.615q1.582,0,1.617-2.435v-.3q0-2.558-1.635-2.558-1.485,0-1.608,2.206Zm13.271-2.171-.976-.07a1.752,1.752,0,0,0-1.793.879V0h-2.962V-9.51h2.777l.1,1.222a2.294,2.294,0,0,1,2.083-1.4,2.888,2.888,0,0,1,.826.105ZM162.747,0a3.344,3.344,0,0,1-.281-.853A2.754,2.754,0,0,1,160.181.176,3.374,3.374,0,0,1,157.9-.637a2.588,2.588,0,0,1-.94-2.043A2.66,2.66,0,0,1,158.1-5.019a5.821,5.821,0,0,1,3.322-.791h.914v-.5q0-1.316-1.134-1.316a.927.927,0,0,0-1.055,1.042h-2.962a2.655,2.655,0,0,1,1.173-2.239,4.931,4.931,0,0,1,2.993-.86,4.323,4.323,0,0,1,2.874.888A3.086,3.086,0,0,1,165.3-6.363v4.21a4.311,4.311,0,0,0,.4,2V0Zm-1.854-1.934a1.652,1.652,0,0,0,.918-.237,1.487,1.487,0,0,0,.523-.536V-4.228h-.861q-1.547,0-1.547,1.389a.848.848,0,0,0,.272.655A.986.986,0,0,0,160.893-1.934Z" transform="translate(8946.294 -4365.874)" fill="#12263f"/>
    <path id="Trazado_902682" data-name="Trazado 902682" d="M12.109-4.512A5.231,5.231,0,0,1,10.444-1.03,5.457,5.457,0,0,1,6.719.2,5.01,5.01,0,0,1,2.681-1.611,7.268,7.268,0,0,1,1.162-6.445V-7.812A8.1,8.1,0,0,1,1.87-11.3a5.288,5.288,0,0,1,2.007-2.31,5.588,5.588,0,0,1,3.008-.806,5.138,5.138,0,0,1,3.633,1.265,5.294,5.294,0,0,1,1.592,3.5H10.225a4.085,4.085,0,0,0-1.06-2.468,3.206,3.206,0,0,0-2.28-.764,3.355,3.355,0,0,0-2.817,1.329A6.1,6.1,0,0,0,3.047-7.769v1.378a6.273,6.273,0,0,0,.967,3.685A3.124,3.124,0,0,0,6.719-1.338a3.608,3.608,0,0,0,2.4-.708,3.929,3.929,0,0,0,1.108-2.466Zm8.443,2.979h6.738V0H18.668V-14.219h1.885ZM41.467-3.721H35.51L34.172,0H32.238l5.43-14.219h1.641L44.748,0H42.824ZM36.076-5.254H40.91L38.488-11.9ZM54.852-6.338a8.817,8.817,0,0,1-3.511-1.7,3.256,3.256,0,0,1-1.1-2.5,3.439,3.439,0,0,1,1.343-2.778,5.337,5.337,0,0,1,3.491-1.1,5.825,5.825,0,0,1,2.612.566,4.3,4.3,0,0,1,1.777,1.563,4,4,0,0,1,.63,2.178H58.211a2.6,2.6,0,0,0-.82-2.034,3.336,3.336,0,0,0-2.314-.74,3.415,3.415,0,0,0-2.163.611,2.04,2.04,0,0,0-.776,1.7A1.835,1.835,0,0,0,52.874-9.1,7.232,7.232,0,0,0,55.384-8a11.645,11.645,0,0,1,2.773,1.1,4.209,4.209,0,0,1,1.484,1.4,3.577,3.577,0,0,1,.483,1.885A3.322,3.322,0,0,1,58.777-.845,5.746,5.746,0,0,1,55.174.2a6.683,6.683,0,0,1-2.734-.562A4.6,4.6,0,0,1,50.481-1.9a3.754,3.754,0,0,1-.688-2.217h1.885a2.449,2.449,0,0,0,.952,2.036,4.009,4.009,0,0,0,2.544.747,3.685,3.685,0,0,0,2.275-.605,1.967,1.967,0,0,0,.791-1.65,1.931,1.931,0,0,0-.732-1.616A8.444,8.444,0,0,0,54.852-6.338Zm19.713-.234H68.4v5.039h7.158V0H66.527V-14.219h8.936v1.533H68.4v4.58h6.162Zm22.9-7.656V-12.7h-.332a4.757,4.757,0,0,0-3.359,1.25A5.2,5.2,0,0,0,92.33-8.037,3.856,3.856,0,0,1,95.4-9.326,3.687,3.687,0,0,1,98.36-8.018a5.047,5.047,0,0,1,1.108,3.379,5.031,5.031,0,0,1-1.2,3.516A4.119,4.119,0,0,1,95.064.2a4.059,4.059,0,0,1-3.311-1.567,6.212,6.212,0,0,1-1.27-4.038V-6.1a9.36,9.36,0,0,1,1.675-6,6.151,6.151,0,0,1,4.985-2.124ZM95.094-7.822a2.882,2.882,0,0,0-1.709.557,2.9,2.9,0,0,0-1.084,1.4v.664a4.664,4.664,0,0,0,.791,2.832A2.37,2.37,0,0,0,95.064-1.3a2.3,2.3,0,0,0,1.919-.9,3.728,3.728,0,0,0,.7-2.354,3.729,3.729,0,0,0-.708-2.368A2.269,2.269,0,0,0,95.094-7.822Zm19.43,1.758a8.263,8.263,0,0,1-1.084,4.717A3.855,3.855,0,0,1,110.051.2a3.883,3.883,0,0,1-3.369-1.509,7.843,7.843,0,0,1-1.133-4.507V-8.232a8.079,8.079,0,0,1,1.084-4.658,3.885,3.885,0,0,1,3.4-1.523,3.92,3.92,0,0,1,3.379,1.47,7.8,7.8,0,0,1,1.113,4.536Zm-1.807-2.471a6.62,6.62,0,0,0-.645-3.345,2.218,2.218,0,0,0-2.041-1.05,2.189,2.189,0,0,0-2.021,1.045,6.464,6.464,0,0,0-.654,3.213v2.891a6.726,6.726,0,0,0,.669,3.4,2.214,2.214,0,0,0,2.026,1.1,2.184,2.184,0,0,0,1.987-1.035,6.483,6.483,0,0,0,.679-3.262Zm17.037,2.471a8.263,8.263,0,0,1-1.084,4.717A3.855,3.855,0,0,1,125.281.2a3.883,3.883,0,0,1-3.369-1.509,7.843,7.843,0,0,1-1.133-4.507V-8.232a8.079,8.079,0,0,1,1.084-4.658,3.885,3.885,0,0,1,3.4-1.523,3.92,3.92,0,0,1,3.379,1.47,7.8,7.8,0,0,1,1.113,4.536Zm-1.807-2.471a6.62,6.62,0,0,0-.645-3.345,2.218,2.218,0,0,0-2.041-1.05,2.189,2.189,0,0,0-2.021,1.045,6.464,6.464,0,0,0-.654,3.213v2.891a6.726,6.726,0,0,0,.669,3.4,2.214,2.214,0,0,0,2.026,1.1,2.184,2.184,0,0,0,1.987-1.035,6.483,6.483,0,0,0,.679-3.262Z" transform="translate(8963.294 -4318.623)" fill="#12263f"/>
  </g>
</svg>
