<svg xmlns="http://www.w3.org/2000/svg" xmlns:xlink="http://www.w3.org/1999/xlink" width="984.857" height="225.674" viewBox="0 0 984.857 225.674">
  <defs>
    <clipPath id="clip-path">
      <rect id="Rectángulo_413046" data-name="Rectángulo 413046" width="984.857" height="225.674" fill="none"/>
    </clipPath>
  </defs>
  <g id="Grupo_1124962" data-name="Grupo 1124962" transform="translate(-307.051 -11707)">
    <path id="Trazado_894470" data-name="Trazado 894470" d="M64.094,0V2.194H192.485l63.88,110.643L192.485,223.48H64.094v2.194H193.752L258.9,112.837,193.752,0Z" transform="translate(307.051 11707)" fill="#7d768c"/>
    <path id="Trazado_894471" data-name="Trazado 894471" d="M2.194,47.546H51.859V165.553H26.234V67.675H2.194ZM0,45.352V69.869H24.04v97.878H54.053V45.352Z" transform="translate(307.051 11707)" fill="#a79dba"/>
    <path id="Trazado_896383" data-name="Trazado 896383" d="M0,0H182.917V51.427H0Z" transform="translate(383.034 11829.86)" fill="#d1c4e9"/>
    <path id="Trazado_894472" data-name="Trazado 894472" d="M370.418,0V2.194H498.811l63.878,110.643L498.811,223.48H370.418v2.194H500.077l65.147-112.837L500.077,0Z" transform="translate(307.051 11707)" fill="#7d768c"/>
    <g id="Grupo_1123535" data-name="Grupo 1123535" transform="translate(307.051 11707)" clip-path="url(#clip-path)">
      <path id="Trazado_894473" data-name="Trazado 894473" d="M386.821,167.747H293.79v-19.6l.343-.325L340.5,104.034c4.807-4.582,8.084-8.555,9.735-11.805a21.021,21.021,0,0,0,2.457-9.548c0-4.5-1.464-7.836-4.476-10.213-3.048-2.408-7.644-3.629-13.659-3.629a32.025,32.025,0,0,0-13.784,2.9A26.336,26.336,0,0,0,310.547,80.4l-.608.851L287.857,67.028l.624-.929a48.8,48.8,0,0,1,19.841-16.776c8.352-4,18.044-6.032,28.807-6.032,9.037,0,17.071,1.5,23.878,4.47A37.377,37.377,0,0,1,377.094,60.5a33.229,33.229,0,0,1,5.778,19.433,43.172,43.172,0,0,1-4.229,18.848c-2.8,5.826-8.251,12.523-16.213,19.9l-25.631,24.2h50.022Zm-90.837-2.194h88.643V145.081h-53.35l29.654-28c7.765-7.2,13.056-13.677,15.733-19.253a41,41,0,0,0,4.014-17.9A31.076,31.076,0,0,0,375.3,61.758a35.255,35.255,0,0,0-15.166-11.986c-6.528-2.845-14.266-4.287-23-4.287-10.431,0-19.8,1.957-27.858,5.817a46.907,46.907,0,0,0-18.333,15.1l18.445,11.88a28.306,28.306,0,0,1,10.448-8.527,34.162,34.162,0,0,1,14.722-3.11c6.521,0,11.574,1.378,15.019,4.1,3.524,2.783,5.31,6.8,5.31,11.937a23.209,23.209,0,0,1-2.694,10.544c-1.764,3.471-5.19,7.644-10.181,12.4l-46.023,43.467Z" fill="#ffb74d"/>
      <rect id="Rectángulo_413045" data-name="Rectángulo 413045" width="166.118" height="51.427" transform="translate(414.622 122.86)" fill="#ffb74d"/>
      <path id="Trazado_894474" data-name="Trazado 894474" d="M806.4,225.674H676.742V223.48H805.134l63.879-110.643L805.134,2.194H676.742V0H806.4l65.148,112.837Z" fill="#7d768c"/>
      <path id="Trazado_894475" data-name="Trazado 894475" d="M641.047,169.808a96.074,96.074,0,0,1-25.274-3.387,65.731,65.731,0,0,1-21.216-9.7l-.762-.549,11.835-23.3,1.046.784a51.513,51.513,0,0,0,15.553,7.815,60.37,60.37,0,0,0,18.131,2.783c6.728,0,12.068-1.295,15.873-3.85a11.824,11.824,0,0,0,5.524-10.506c0-9.2-7-13.672-21.4-13.672h-13.8V96.347l23.391-26.478H600.112V45.352h86.335v19.54l-26.12,29.757c9.8,1.909,17.506,5.859,22.913,11.759v0c5.773,6.307,8.7,14.213,8.7,23.494a37.15,37.15,0,0,1-5.659,19.895c-3.761,6.052-9.55,10.957-17.206,14.579-7.614,3.6-17.044,5.43-28.03,5.43m-44.44-14.324a64.4,64.4,0,0,0,19.744,8.819,93.9,93.9,0,0,0,24.7,3.311c10.659,0,19.773-1.756,27.091-5.218,7.268-3.439,12.746-8.067,16.279-13.754a34.984,34.984,0,0,0,5.33-18.738c0-8.717-2.734-16.122-8.126-22.014-5.416-5.908-13.349-9.752-23.579-11.42l-1.954-.319,28.165-32.085V47.546H602.306V67.675h52.508l-26.064,29.5v16.862h11.61c15.655,0,23.592,5.338,23.592,15.866a14.05,14.05,0,0,1-6.5,12.329c-4.173,2.8-9.925,4.221-17.1,4.221a62.594,62.594,0,0,1-18.789-2.882,54.27,54.27,0,0,1-15.159-7.387Z" fill="#2fc2ab"/>
    </g>
    <path id="Trazado_896384" data-name="Trazado 896384" d="M4.461-11.375,7-3.461l2.531-7.914h3.609V0h-2.75V-2.656l.266-5.437L7.906,0H6.094L3.336-8.1,3.6-2.656V0H.859V-11.375ZM19.523,0a2.973,2.973,0,0,1-.25-.758,2.448,2.448,0,0,1-2.031.914,3,3,0,0,1-2.031-.723,2.3,2.3,0,0,1-.836-1.816,2.364,2.364,0,0,1,1.016-2.078,5.174,5.174,0,0,1,2.953-.7h.813v-.448q0-1.17-1.008-1.17a.824.824,0,0,0-.937.926H14.578a2.36,2.36,0,0,1,1.043-1.99,4.383,4.383,0,0,1,2.66-.765,3.843,3.843,0,0,1,2.555.789A2.743,2.743,0,0,1,21.8-5.656v3.742a3.832,3.832,0,0,0,.359,1.781V0ZM17.875-1.719a1.469,1.469,0,0,0,.816-.211,1.322,1.322,0,0,0,.465-.477V-3.758h-.766q-1.375,0-1.375,1.234a.754.754,0,0,0,.242.582A.876.876,0,0,0,17.875-1.719ZM26.4-3.687,27.81-8.453h2.82L27.185,1.414l-.148.359a2.617,2.617,0,0,1-2.594,1.641,4.126,4.126,0,0,1-1.086-.156V1.383H23.7a1.8,1.8,0,0,0,.848-.16.973.973,0,0,0,.434-.575l.211-.563L22.255-8.453h2.813ZM30.753-4.3a4.989,4.989,0,0,1,.492-2.254,3.52,3.52,0,0,1,1.414-1.52,4.259,4.259,0,0,1,2.164-.531,3.887,3.887,0,0,1,2.992,1.176,4.512,4.512,0,0,1,1.094,3.2v.094A4.378,4.378,0,0,1,37.811-1,3.9,3.9,0,0,1,34.839.156a3.942,3.942,0,0,1-2.9-1.082,4.232,4.232,0,0,1-1.18-2.934Zm2.633.164a3.145,3.145,0,0,0,.367,1.719,1.223,1.223,0,0,0,1.086.547q1.406,0,1.438-2.164V-4.3q0-2.273-1.453-2.273-1.32,0-1.43,1.961Zm11.8-1.93-.867-.062a1.558,1.558,0,0,0-1.594.781V0H40.089V-8.453h2.469l.086,1.086a2.039,2.039,0,0,1,1.852-1.242,2.567,2.567,0,0,1,.734.094ZM54.206.156A4.345,4.345,0,0,1,51.057-1a4.006,4.006,0,0,1-1.2-3.02v-.219a5.191,5.191,0,0,1,.48-2.289,3.516,3.516,0,0,1,1.4-1.535,4.233,4.233,0,0,1,2.188-.543A3.659,3.659,0,0,1,56.737-7.5a4.344,4.344,0,0,1,1.031,3.082V-3.4H52.534a1.9,1.9,0,0,0,.617,1.117,1.836,1.836,0,0,0,1.234.406,2.366,2.366,0,0,0,1.953-.875l1.2,1.422A3.363,3.363,0,0,1,56.147-.246,4.713,4.713,0,0,1,54.206.156Zm-.3-6.734q-1.156,0-1.375,1.531H55.19v-.2a1.3,1.3,0,0,0-.32-.98A1.275,1.275,0,0,0,53.909-6.578ZM59.44,0V-6.625H58.214V-8.453H59.44v-.281a3.228,3.228,0,0,1,1.109-2.586,4.433,4.433,0,0,1,2.883-.844,10.23,10.23,0,0,1,2.75.453l-.359,2.078-.437-.117a6.962,6.962,0,0,0-1.8-.227q-1.508,0-1.508,1.375v.148h1.656v1.828H62.081V0Zm7.953,0H64.745V-8.453h2.648Zm5.18-1.875a1.171,1.171,0,0,0,.859-.3,1.1,1.1,0,0,0,.3-.84H76.2a2.922,2.922,0,0,1-1,2.281,3.705,3.705,0,0,1-2.566.891A3.751,3.751,0,0,1,69.729-1a4.556,4.556,0,0,1-1.062-3.2v-.109a5.149,5.149,0,0,1,.473-2.262A3.441,3.441,0,0,1,70.5-8.082a4.065,4.065,0,0,1,2.109-.527,3.658,3.658,0,0,1,2.617.914A3.242,3.242,0,0,1,76.2-5.219H73.729a1.445,1.445,0,0,0-.32-1.008,1.106,1.106,0,0,0-.859-.352q-1.023,0-1.2,1.3A9.206,9.206,0,0,0,71.3-4.133a3.616,3.616,0,0,0,.3,1.766A1.055,1.055,0,0,0,72.573-1.875ZM80.089,0H77.448V-8.453h2.641Zm-2.8-10.641a1.186,1.186,0,0,1,.406-.927,1.527,1.527,0,0,1,1.055-.362,1.527,1.527,0,0,1,1.055.362,1.186,1.186,0,0,1,.406.927,1.186,1.186,0,0,1-.406.927,1.527,1.527,0,0,1-1.055.362A1.527,1.527,0,0,1,77.7-9.713,1.186,1.186,0,0,1,77.292-10.641ZM85.8.156A4.345,4.345,0,0,1,82.651-1a4.006,4.006,0,0,1-1.2-3.02v-.219a5.191,5.191,0,0,1,.48-2.289,3.516,3.516,0,0,1,1.4-1.535,4.233,4.233,0,0,1,2.188-.543A3.659,3.659,0,0,1,88.331-7.5a4.344,4.344,0,0,1,1.031,3.082V-3.4H84.128a1.9,1.9,0,0,0,.617,1.117,1.836,1.836,0,0,0,1.234.406,2.366,2.366,0,0,0,1.953-.875l1.2,1.422A3.363,3.363,0,0,1,87.741-.246,4.713,4.713,0,0,1,85.8.156Zm-.3-6.734q-1.156,0-1.375,1.531h2.656v-.2a1.3,1.3,0,0,0-.32-.98A1.275,1.275,0,0,0,85.5-6.578Zm7.336-1.875.086.992a2.867,2.867,0,0,1,2.414-1.148,2.412,2.412,0,0,1,1.973.789,3.757,3.757,0,0,1,.676,2.375V0H95.346V-5.336a1.426,1.426,0,0,0-.258-.941,1.193,1.193,0,0,0-.937-.3A1.256,1.256,0,0,0,93-5.969V0H90.37V-8.453Zm10.18,6.578a1.171,1.171,0,0,0,.859-.3,1.1,1.1,0,0,0,.3-.84h2.469a2.922,2.922,0,0,1-1,2.281,3.705,3.705,0,0,1-2.566.891A3.751,3.751,0,0,1,100.174-1a4.556,4.556,0,0,1-1.062-3.2v-.109a5.149,5.149,0,0,1,.473-2.262,3.441,3.441,0,0,1,1.363-1.508,4.065,4.065,0,0,1,2.109-.527,3.658,3.658,0,0,1,2.617.914,3.242,3.242,0,0,1,.969,2.477h-2.469a1.445,1.445,0,0,0-.32-1.008,1.106,1.106,0,0,0-.859-.352q-1.023,0-1.2,1.3a9.206,9.206,0,0,0-.055,1.141,3.616,3.616,0,0,0,.3,1.766A1.055,1.055,0,0,0,103.018-1.875ZM110.534,0h-2.641V-8.453h2.641Zm-2.8-10.641a1.186,1.186,0,0,1,.406-.927,1.527,1.527,0,0,1,1.055-.362,1.527,1.527,0,0,1,1.055.362,1.186,1.186,0,0,1,.406.927,1.186,1.186,0,0,1-.406.927,1.527,1.527,0,0,1-1.055.362,1.527,1.527,0,0,1-1.055-.362A1.186,1.186,0,0,1,107.737-10.641ZM116.917,0a2.973,2.973,0,0,1-.25-.758,2.448,2.448,0,0,1-2.031.914A3,3,0,0,1,112.6-.566a2.3,2.3,0,0,1-.836-1.816,2.364,2.364,0,0,1,1.016-2.078,5.174,5.174,0,0,1,2.953-.7h.813v-.448q0-1.17-1.008-1.17a.824.824,0,0,0-.937.926h-2.633a2.36,2.36,0,0,1,1.043-1.99,4.383,4.383,0,0,1,2.66-.765,3.843,3.843,0,0,1,2.555.789,2.743,2.743,0,0,1,.961,2.164v3.742a3.832,3.832,0,0,0,.359,1.781V0Zm-1.648-1.719a1.469,1.469,0,0,0,.816-.211,1.322,1.322,0,0,0,.465-.477V-3.758h-.766q-1.375,0-1.375,1.234a.754.754,0,0,0,.242.582A.876.876,0,0,0,115.268-1.719Z" transform="translate(399.832 11851.217)"/>
    <path id="Trazado_896385" data-name="Trazado 896385" d="M.406-4.289a5.164,5.164,0,0,1,.867-3.164A2.854,2.854,0,0,1,3.7-8.609,2.428,2.428,0,0,1,5.6-7.719V-12H8.242V0H5.875L5.742-.906A2.493,2.493,0,0,1,3.68.156,2.849,2.849,0,0,1,1.289-1,5.327,5.327,0,0,1,.406-4.289Zm2.633.164q0,2.25,1.313,2.25A1.3,1.3,0,0,0,5.6-2.609V-5.828a1.261,1.261,0,0,0-1.234-.75q-1.219,0-1.32,1.969ZM13.828.156A4.345,4.345,0,0,1,10.68-1a4.006,4.006,0,0,1-1.2-3.02v-.219a5.191,5.191,0,0,1,.48-2.289,3.516,3.516,0,0,1,1.4-1.535,4.233,4.233,0,0,1,2.188-.543A3.659,3.659,0,0,1,16.359-7.5a4.344,4.344,0,0,1,1.031,3.082V-3.4H12.156a1.9,1.9,0,0,0,.617,1.117,1.836,1.836,0,0,0,1.234.406,2.366,2.366,0,0,0,1.953-.875l1.2,1.422A3.363,3.363,0,0,1,15.77-.246,4.713,4.713,0,0,1,13.828.156Zm-.3-6.734q-1.156,0-1.375,1.531h2.656v-.2a1.3,1.3,0,0,0-.32-.98A1.275,1.275,0,0,0,13.531-6.578ZM21.227,0H18.586V-12h2.641ZM34.68-4.164a5.1,5.1,0,0,1-.887,3.145A2.843,2.843,0,0,1,31.4.156,2.437,2.437,0,0,1,29.484-.7V3.25H26.852v-11.7h2.461l.078.781a2.437,2.437,0,0,1,1.992-.937,2.866,2.866,0,0,1,2.43,1.152,5.16,5.16,0,0,1,.867,3.168Zm-2.633-.164q0-2.25-1.312-2.25a1.239,1.239,0,0,0-1.25.672v3.328a1.279,1.279,0,0,0,1.266.7q1.258,0,1.3-2.172ZM40.953-6.07l-.867-.062a1.558,1.558,0,0,0-1.594.781V0H35.859V-8.453h2.469l.086,1.086a2.039,2.039,0,0,1,1.852-1.242A2.567,2.567,0,0,1,41-8.516ZM41.145-4.3a4.989,4.989,0,0,1,.492-2.254,3.52,3.52,0,0,1,1.414-1.52,4.259,4.259,0,0,1,2.164-.531,3.887,3.887,0,0,1,2.992,1.176,4.512,4.512,0,0,1,1.094,3.2v.094A4.378,4.378,0,0,1,48.2-1,3.9,3.9,0,0,1,45.231.156a3.942,3.942,0,0,1-2.9-1.082,4.232,4.232,0,0,1-1.18-2.934Zm2.633.164a3.145,3.145,0,0,0,.367,1.719,1.223,1.223,0,0,0,1.086.547q1.406,0,1.438-2.164V-4.3q0-2.273-1.453-2.273-1.32,0-1.43,1.961ZM54.036-1.875a1.171,1.171,0,0,0,.859-.3,1.1,1.1,0,0,0,.3-.84h2.469a2.922,2.922,0,0,1-1,2.281A3.705,3.705,0,0,1,54.1.156,3.751,3.751,0,0,1,51.192-1a4.556,4.556,0,0,1-1.062-3.2v-.109A5.149,5.149,0,0,1,50.6-6.574a3.441,3.441,0,0,1,1.363-1.508,4.065,4.065,0,0,1,2.109-.527,3.658,3.658,0,0,1,2.617.914,3.242,3.242,0,0,1,.969,2.477H55.192a1.445,1.445,0,0,0-.32-1.008,1.106,1.106,0,0,0-.859-.352q-1.023,0-1.2,1.3a9.206,9.206,0,0,0-.055,1.141,3.616,3.616,0,0,0,.3,1.766A1.055,1.055,0,0,0,54.036-1.875ZM62.864.156A4.345,4.345,0,0,1,59.715-1a4.006,4.006,0,0,1-1.2-3.02v-.219a5.191,5.191,0,0,1,.48-2.289,3.516,3.516,0,0,1,1.4-1.535,4.233,4.233,0,0,1,2.188-.543A3.659,3.659,0,0,1,65.4-7.5a4.344,4.344,0,0,1,1.031,3.082V-3.4H61.192a1.9,1.9,0,0,0,.617,1.117,1.836,1.836,0,0,0,1.234.406A2.366,2.366,0,0,0,65-2.75l1.2,1.422A3.363,3.363,0,0,1,64.805-.246,4.713,4.713,0,0,1,62.864.156Zm-.3-6.734q-1.156,0-1.375,1.531h2.656v-.2a1.3,1.3,0,0,0-.32-.98A1.275,1.275,0,0,0,62.567-6.578Zm9.344,4.2a.608.608,0,0,0-.352-.539,5.348,5.348,0,0,0-1.336-.422A6.092,6.092,0,0,1,68.6-3.91a2.722,2.722,0,0,1-.977-.863,2.061,2.061,0,0,1-.336-1.164,2.336,2.336,0,0,1,.961-1.918,3.958,3.958,0,0,1,2.516-.754,4.386,4.386,0,0,1,2.688.758,2.37,2.37,0,0,1,1.016,1.992H71.825q0-1.016-1.07-1.016a1.061,1.061,0,0,0-.7.23.714.714,0,0,0-.281.574.655.655,0,0,0,.344.57,3.248,3.248,0,0,0,1.1.359,9.486,9.486,0,0,1,1.324.336A2.406,2.406,0,0,1,74.45-2.453,2.214,2.214,0,0,1,73.422-.57a4.505,4.505,0,0,1-2.66.727,4.6,4.6,0,0,1-1.937-.391A3.24,3.24,0,0,1,67.5-1.3a2.406,2.406,0,0,1-.477-1.414h2.461a1.017,1.017,0,0,0,.391.855,1.607,1.607,0,0,0,.961.27,1.264,1.264,0,0,0,.809-.219A.7.7,0,0,0,71.911-2.375ZM75.348-4.3a4.989,4.989,0,0,1,.492-2.254,3.52,3.52,0,0,1,1.414-1.52,4.259,4.259,0,0,1,2.164-.531,3.887,3.887,0,0,1,2.992,1.176,4.512,4.512,0,0,1,1.094,3.2v.094A4.378,4.378,0,0,1,82.407-1,3.9,3.9,0,0,1,79.434.156a3.942,3.942,0,0,1-2.9-1.082,4.232,4.232,0,0,1-1.18-2.934Zm2.633.164a3.145,3.145,0,0,0,.367,1.719,1.223,1.223,0,0,0,1.086.547q1.406,0,1.438-2.164V-4.3q0-2.273-1.453-2.273-1.32,0-1.43,1.961Zm8.313,1.586a1.5,1.5,0,0,1,1.039.371,1.218,1.218,0,0,1,.414.949,1.218,1.218,0,0,1-.414.949,1.5,1.5,0,0,1-1.039.371,1.486,1.486,0,0,1-1.043-.375,1.226,1.226,0,0,1-.41-.945,1.226,1.226,0,0,1,.41-.945A1.486,1.486,0,0,1,86.294-2.555Z" transform="translate(399.832 11870.417)"/>
    <path id="Trazado_896386" data-name="Trazado 896386" d="M7.32-2.125H3.563L2.906,0H-.023L4.148-11.375H6.727L10.93,0H7.984Zm-3.1-2.117H6.664L5.438-8.187ZM14.414,0H11.773V-12h2.641ZM19.1-10.555v2.1h1.391v1.828H19.1v3.867a.987.987,0,0,0,.172.664.922.922,0,0,0,.68.188,3.862,3.862,0,0,0,.656-.047V-.07a4.859,4.859,0,0,1-1.484.227,2.758,2.758,0,0,1-2.008-.641,2.626,2.626,0,0,1-.648-1.945v-4.2H15.391V-8.453h1.078v-2.1ZM26.289,0a2.973,2.973,0,0,1-.25-.758,2.448,2.448,0,0,1-2.031.914,3,3,0,0,1-2.031-.723,2.3,2.3,0,0,1-.836-1.816,2.364,2.364,0,0,1,1.016-2.078,5.174,5.174,0,0,1,2.953-.7h.813v-.448q0-1.17-1.008-1.17a.824.824,0,0,0-.937.926H21.344a2.36,2.36,0,0,1,1.043-1.99,4.383,4.383,0,0,1,2.66-.765A3.843,3.843,0,0,1,27.6-7.82a2.743,2.743,0,0,1,.961,2.164v3.742a3.832,3.832,0,0,0,.359,1.781V0ZM24.641-1.719a1.469,1.469,0,0,0,.816-.211,1.322,1.322,0,0,0,.465-.477V-3.758h-.766q-1.375,0-1.375,1.234a.754.754,0,0,0,.242.582A.876.876,0,0,0,24.641-1.719Zm12.938-.156a1.171,1.171,0,0,0,.859-.3,1.1,1.1,0,0,0,.3-.84H41.2a2.922,2.922,0,0,1-1,2.281,3.705,3.705,0,0,1-2.566.891A3.751,3.751,0,0,1,34.734-1a4.556,4.556,0,0,1-1.062-3.2v-.109a5.149,5.149,0,0,1,.473-2.262,3.441,3.441,0,0,1,1.363-1.508,4.065,4.065,0,0,1,2.109-.527,3.658,3.658,0,0,1,2.617.914A3.242,3.242,0,0,1,41.2-5.219H38.734a1.445,1.445,0,0,0-.32-1.008,1.106,1.106,0,0,0-.859-.352q-1.023,0-1.2,1.3A9.206,9.206,0,0,0,36.3-4.133a3.616,3.616,0,0,0,.3,1.766A1.055,1.055,0,0,0,37.578-1.875ZM47.078,0a2.973,2.973,0,0,1-.25-.758A2.448,2.448,0,0,1,44.8.156a3,3,0,0,1-2.031-.723,2.3,2.3,0,0,1-.836-1.816,2.364,2.364,0,0,1,1.016-2.078,5.174,5.174,0,0,1,2.953-.7h.813v-.448q0-1.17-1.008-1.17a.824.824,0,0,0-.937.926H42.133a2.36,2.36,0,0,1,1.043-1.99,4.383,4.383,0,0,1,2.66-.765,3.843,3.843,0,0,1,2.555.789,2.743,2.743,0,0,1,.961,2.164v3.742a3.832,3.832,0,0,0,.359,1.781V0ZM45.43-1.719a1.469,1.469,0,0,0,.816-.211,1.322,1.322,0,0,0,.465-.477V-3.758h-.766q-1.375,0-1.375,1.234a.754.754,0,0,0,.242.582A.876.876,0,0,0,45.43-1.719ZM53.586,0H50.945V-12h2.641Zm4.4,0H55.344V-8.453h2.641Zm-2.8-10.641a1.186,1.186,0,0,1,.406-.927,1.527,1.527,0,0,1,1.055-.362,1.527,1.527,0,0,1,1.055.362,1.186,1.186,0,0,1,.406.927,1.186,1.186,0,0,1-.406.927,1.527,1.527,0,0,1-1.055.362,1.527,1.527,0,0,1-1.055-.362A1.186,1.186,0,0,1,55.188-10.641Zm4.086,6.352a5.164,5.164,0,0,1,.867-3.164,2.854,2.854,0,0,1,2.422-1.156,2.428,2.428,0,0,1,1.906.891V-12h2.641V0H64.742l-.133-.906A2.493,2.493,0,0,1,62.547.156,2.849,2.849,0,0,1,60.156-1,5.327,5.327,0,0,1,59.273-4.289Zm2.633.164q0,2.25,1.313,2.25a1.3,1.3,0,0,0,1.25-.734V-5.828a1.261,1.261,0,0,0-1.234-.75q-1.219,0-1.32,1.969ZM73.367,0a2.973,2.973,0,0,1-.25-.758,2.448,2.448,0,0,1-2.031.914,3,3,0,0,1-2.031-.723,2.3,2.3,0,0,1-.836-1.816,2.364,2.364,0,0,1,1.016-2.078,5.174,5.174,0,0,1,2.953-.7H73v-.448q0-1.17-1.008-1.17a.824.824,0,0,0-.937.926H68.422a2.36,2.36,0,0,1,1.043-1.99,4.383,4.383,0,0,1,2.66-.765,3.843,3.843,0,0,1,2.555.789,2.743,2.743,0,0,1,.961,2.164v3.742A3.832,3.832,0,0,0,76-.133V0ZM71.719-1.719a1.469,1.469,0,0,0,.816-.211A1.322,1.322,0,0,0,73-2.406V-3.758h-.766q-1.375,0-1.375,1.234a.754.754,0,0,0,.242.582A.876.876,0,0,0,71.719-1.719Zm5.047-2.57a5.164,5.164,0,0,1,.867-3.164,2.854,2.854,0,0,1,2.422-1.156,2.428,2.428,0,0,1,1.906.891V-12H84.6V0H82.234L82.1-.906A2.493,2.493,0,0,1,80.039.156,2.849,2.849,0,0,1,77.648-1,5.327,5.327,0,0,1,76.766-4.289Zm2.633.164q0,2.25,1.313,2.25a1.3,1.3,0,0,0,1.25-.734V-5.828a1.261,1.261,0,0,0-1.234-.75q-1.219,0-1.32,1.969Z" transform="translate(738.761 11851.217)"/>
    <path id="Trazado_896387" data-name="Trazado 896387" d="M.406-4.289a5.164,5.164,0,0,1,.867-3.164A2.854,2.854,0,0,1,3.7-8.609,2.428,2.428,0,0,1,5.6-7.719V-12H8.242V0H5.875L5.742-.906A2.493,2.493,0,0,1,3.68.156,2.849,2.849,0,0,1,1.289-1,5.327,5.327,0,0,1,.406-4.289Zm2.633.164q0,2.25,1.313,2.25A1.3,1.3,0,0,0,5.6-2.609V-5.828a1.261,1.261,0,0,0-1.234-.75q-1.219,0-1.32,1.969ZM13.828.156A4.345,4.345,0,0,1,10.68-1a4.006,4.006,0,0,1-1.2-3.02v-.219a5.191,5.191,0,0,1,.48-2.289,3.516,3.516,0,0,1,1.4-1.535,4.233,4.233,0,0,1,2.188-.543A3.659,3.659,0,0,1,16.359-7.5a4.344,4.344,0,0,1,1.031,3.082V-3.4H12.156a1.9,1.9,0,0,0,.617,1.117,1.836,1.836,0,0,0,1.234.406,2.366,2.366,0,0,0,1.953-.875l1.2,1.422A3.363,3.363,0,0,1,15.77-.246,4.713,4.713,0,0,1,13.828.156Zm-.3-6.734q-1.156,0-1.375,1.531h2.656v-.2a1.3,1.3,0,0,0-.32-.98A1.275,1.275,0,0,0,13.531-6.578Zm12.477,4.7a1.171,1.171,0,0,0,.859-.3,1.1,1.1,0,0,0,.3-.84h2.469a2.922,2.922,0,0,1-1,2.281A3.705,3.705,0,0,1,26.07.156,3.751,3.751,0,0,1,23.164-1,4.556,4.556,0,0,1,22.1-4.2v-.109a5.149,5.149,0,0,1,.473-2.262,3.441,3.441,0,0,1,1.363-1.508,4.065,4.065,0,0,1,2.109-.527,3.658,3.658,0,0,1,2.617.914,3.242,3.242,0,0,1,.969,2.477H27.164a1.445,1.445,0,0,0-.32-1.008,1.106,1.106,0,0,0-.859-.352q-1.023,0-1.2,1.3a9.206,9.206,0,0,0-.055,1.141,3.616,3.616,0,0,0,.3,1.766A1.055,1.055,0,0,0,26.008-1.875ZM30.414-4.3a4.989,4.989,0,0,1,.492-2.254,3.52,3.52,0,0,1,1.414-1.52,4.259,4.259,0,0,1,2.164-.531,3.887,3.887,0,0,1,2.992,1.176,4.512,4.512,0,0,1,1.094,3.2v.094A4.378,4.378,0,0,1,37.473-1,3.9,3.9,0,0,1,34.5.156,3.942,3.942,0,0,1,31.6-.926a4.232,4.232,0,0,1-1.18-2.934Zm2.633.164a3.145,3.145,0,0,0,.367,1.719,1.223,1.223,0,0,0,1.086.547q1.406,0,1.438-2.164V-4.3q0-2.273-1.453-2.273-1.32,0-1.43,1.961ZM44.156-2.375a.608.608,0,0,0-.352-.539,5.348,5.348,0,0,0-1.336-.422,6.092,6.092,0,0,1-1.625-.574,2.722,2.722,0,0,1-.977-.863,2.061,2.061,0,0,1-.336-1.164,2.336,2.336,0,0,1,.961-1.918,3.958,3.958,0,0,1,2.516-.754,4.386,4.386,0,0,1,2.688.758,2.37,2.37,0,0,1,1.016,1.992H44.07q0-1.016-1.07-1.016a1.061,1.061,0,0,0-.7.23.714.714,0,0,0-.281.574.655.655,0,0,0,.344.57,3.248,3.248,0,0,0,1.1.359,9.485,9.485,0,0,1,1.324.336A2.406,2.406,0,0,1,46.7-2.453,2.214,2.214,0,0,1,45.668-.57a4.505,4.505,0,0,1-2.66.727A4.6,4.6,0,0,1,41.07-.234,3.24,3.24,0,0,1,39.742-1.3a2.406,2.406,0,0,1-.477-1.414h2.461a1.017,1.017,0,0,0,.391.855,1.607,1.607,0,0,0,.961.27,1.264,1.264,0,0,0,.809-.219A.7.7,0,0,0,44.156-2.375Zm6.836-8.18v2.1h1.391v1.828H50.992v3.867a.987.987,0,0,0,.172.664.922.922,0,0,0,.68.188,3.862,3.862,0,0,0,.656-.047V-.07a4.859,4.859,0,0,1-1.484.227,2.758,2.758,0,0,1-2.008-.641,2.626,2.626,0,0,1-.648-1.945v-4.2H47.281V-8.453h1.078v-2.1ZM58.453-.914A2.714,2.714,0,0,1,56.2.156,2.662,2.662,0,0,1,54.09-.652a3.4,3.4,0,0,1-.715-2.324V-8.453h2.633v5.492a.946.946,0,0,0,1.055,1.086,1.376,1.376,0,0,0,1.289-.648v-5.93H61V0H58.531Zm9.1-5.156-.867-.062a1.558,1.558,0,0,0-1.594.781V0H62.461V-8.453H64.93l.086,1.086a2.039,2.039,0,0,1,1.852-1.242,2.567,2.567,0,0,1,.734.094ZM73.031,0a2.973,2.973,0,0,1-.25-.758A2.448,2.448,0,0,1,70.75.156a3,3,0,0,1-2.031-.723,2.3,2.3,0,0,1-.836-1.816A2.364,2.364,0,0,1,68.9-4.461a5.174,5.174,0,0,1,2.953-.7h.813v-.448q0-1.17-1.008-1.17a.824.824,0,0,0-.937.926H68.086a2.36,2.36,0,0,1,1.043-1.99,4.383,4.383,0,0,1,2.66-.765,3.843,3.843,0,0,1,2.555.789A2.743,2.743,0,0,1,75.3-5.656v3.742a3.832,3.832,0,0,0,.359,1.781V0ZM71.383-1.719A1.469,1.469,0,0,0,72.2-1.93a1.322,1.322,0,0,0,.465-.477V-3.758H71.9q-1.375,0-1.375,1.234a.754.754,0,0,0,.242.582A.876.876,0,0,0,71.383-1.719Zm7.008-.836a1.5,1.5,0,0,1,1.039.371,1.218,1.218,0,0,1,.414.949,1.218,1.218,0,0,1-.414.949,1.5,1.5,0,0,1-1.039.371,1.486,1.486,0,0,1-1.043-.375,1.226,1.226,0,0,1-.41-.945,1.226,1.226,0,0,1,.41-.945A1.486,1.486,0,0,1,78.391-2.555Z" transform="translate(738.761 11870.417)"/>
    <g id="Grupo_1123537" data-name="Grupo 1123537" transform="translate(307.051 11707)" clip-path="url(#clip-path)">
      <rect id="Rectángulo_413047" data-name="Rectángulo 413047" width="264.05" height="54.491" transform="translate(720.807 122.86)" fill="#a5d6a7"/>
    </g>
    <path id="Trazado_896388" data-name="Trazado 896388" d="M10.063-3.852a4.154,4.154,0,0,1-.641,2.1A3.866,3.866,0,0,1,7.777-.344a5.6,5.6,0,0,1-2.418.5A4.467,4.467,0,0,1,1.828-1.3,6.032,6.032,0,0,1,.539-5.43v-.562a6.885,6.885,0,0,1,.582-2.926A4.41,4.41,0,0,1,2.8-10.855a4.676,4.676,0,0,1,2.531-.684,4.9,4.9,0,0,1,3.328,1.09,4.306,4.306,0,0,1,1.43,3H7.352a2.037,2.037,0,0,0-.523-1.492,2.153,2.153,0,0,0-1.5-.453,1.638,1.638,0,0,0-1.5.766,4.921,4.921,0,0,0-.5,2.445v.8a5.445,5.445,0,0,0,.457,2.6,1.672,1.672,0,0,0,1.574.781A2.106,2.106,0,0,0,6.8-2.437a1.89,1.89,0,0,0,.531-1.414Zm.844-.453A4.989,4.989,0,0,1,11.4-6.559a3.52,3.52,0,0,1,1.414-1.52,4.259,4.259,0,0,1,2.164-.531,3.887,3.887,0,0,1,2.992,1.176,4.512,4.512,0,0,1,1.094,3.2v.094A4.378,4.378,0,0,1,17.965-1,3.9,3.9,0,0,1,14.992.156a3.942,3.942,0,0,1-2.9-1.082,4.232,4.232,0,0,1-1.18-2.934Zm2.633.164a3.145,3.145,0,0,0,.367,1.719,1.223,1.223,0,0,0,1.086.547q1.406,0,1.438-2.164V-4.3q0-2.273-1.453-2.273-1.32,0-1.43,1.961Zm9.1-4.312.086.992a2.867,2.867,0,0,1,2.414-1.148,2.412,2.412,0,0,1,1.973.789,3.757,3.757,0,0,1,.676,2.375V0H25.148V-5.336a1.426,1.426,0,0,0-.258-.941,1.193,1.193,0,0,0-.937-.3,1.256,1.256,0,0,0-1.148.609V0H20.172V-8.453ZM33.672-2.375a.608.608,0,0,0-.352-.539,5.348,5.348,0,0,0-1.336-.422,6.092,6.092,0,0,1-1.625-.574,2.722,2.722,0,0,1-.977-.863,2.061,2.061,0,0,1-.336-1.164,2.336,2.336,0,0,1,.961-1.918,3.958,3.958,0,0,1,2.516-.754,4.386,4.386,0,0,1,2.688.758,2.37,2.37,0,0,1,1.016,1.992H33.586q0-1.016-1.07-1.016a1.061,1.061,0,0,0-.7.23.714.714,0,0,0-.281.574.655.655,0,0,0,.344.57,3.248,3.248,0,0,0,1.1.359A9.485,9.485,0,0,1,34.3-4.8a2.406,2.406,0,0,1,1.906,2.352A2.214,2.214,0,0,1,35.184-.57a4.505,4.505,0,0,1-2.66.727,4.6,4.6,0,0,1-1.937-.391A3.24,3.24,0,0,1,29.258-1.3a2.406,2.406,0,0,1-.477-1.414h2.461a1.017,1.017,0,0,0,.391.855,1.607,1.607,0,0,0,.961.27A1.264,1.264,0,0,0,33.4-1.8.7.7,0,0,0,33.672-2.375ZM41.531.156A4.345,4.345,0,0,1,38.383-1a4.006,4.006,0,0,1-1.2-3.02v-.219a5.191,5.191,0,0,1,.48-2.289,3.516,3.516,0,0,1,1.4-1.535,4.233,4.233,0,0,1,2.188-.543A3.659,3.659,0,0,1,44.063-7.5a4.344,4.344,0,0,1,1.031,3.082V-3.4H39.859a1.9,1.9,0,0,0,.617,1.117,1.836,1.836,0,0,0,1.234.406,2.366,2.366,0,0,0,1.953-.875l1.2,1.422A3.363,3.363,0,0,1,43.473-.246,4.713,4.713,0,0,1,41.531.156Zm-.3-6.734q-1.156,0-1.375,1.531h2.656v-.2a1.3,1.3,0,0,0-.32-.98A1.275,1.275,0,0,0,41.234-6.578Zm10.031.508L50.4-6.133a1.558,1.558,0,0,0-1.594.781V0H46.172V-8.453h2.469l.086,1.086a2.039,2.039,0,0,1,1.852-1.242,2.567,2.567,0,0,1,.734.094Zm4.6,2.938,1.336-5.32H59.98L57.222,0H54.535L51.777-8.453h2.781ZM65.3,0a2.973,2.973,0,0,1-.25-.758,2.448,2.448,0,0,1-2.031.914,3,3,0,0,1-2.031-.723,2.3,2.3,0,0,1-.836-1.816,2.364,2.364,0,0,1,1.016-2.078,5.174,5.174,0,0,1,2.953-.7h.813v-.448q0-1.17-1.008-1.17a.824.824,0,0,0-.937.926H60.352A2.36,2.36,0,0,1,61.4-7.845a4.383,4.383,0,0,1,2.66-.765,3.843,3.843,0,0,1,2.555.789,2.743,2.743,0,0,1,.961,2.164v3.742A3.832,3.832,0,0,0,67.93-.133V0ZM63.649-1.719a1.469,1.469,0,0,0,.816-.211,1.322,1.322,0,0,0,.465-.477V-3.758h-.766q-1.375,0-1.375,1.234a.754.754,0,0,0,.242.582A.876.876,0,0,0,63.649-1.719ZM72.6-1.875a1.171,1.171,0,0,0,.859-.3,1.1,1.1,0,0,0,.3-.84h2.469a2.922,2.922,0,0,1-1,2.281,3.705,3.705,0,0,1-2.566.891A3.751,3.751,0,0,1,69.759-1,4.556,4.556,0,0,1,68.7-4.2v-.109a5.149,5.149,0,0,1,.473-2.262,3.441,3.441,0,0,1,1.363-1.508,4.065,4.065,0,0,1,2.109-.527,3.658,3.658,0,0,1,2.617.914,3.242,3.242,0,0,1,.969,2.477H73.759a1.445,1.445,0,0,0-.32-1.008,1.106,1.106,0,0,0-.859-.352q-1.023,0-1.2,1.3a9.206,9.206,0,0,0-.055,1.141,3.616,3.616,0,0,0,.3,1.766A1.055,1.055,0,0,0,72.6-1.875ZM80.118,0H77.477V-8.453h2.641Zm-2.8-10.641a1.186,1.186,0,0,1,.406-.927,1.527,1.527,0,0,1,1.055-.362,1.527,1.527,0,0,1,1.055.362,1.186,1.186,0,0,1,.406.927,1.186,1.186,0,0,1-.406.927,1.527,1.527,0,0,1-1.055.362,1.527,1.527,0,0,1-1.055-.362A1.186,1.186,0,0,1,77.321-10.641ZM81.407-4.3A4.989,4.989,0,0,1,81.9-6.559a3.52,3.52,0,0,1,1.414-1.52,4.259,4.259,0,0,1,2.164-.531,3.887,3.887,0,0,1,2.992,1.176,4.512,4.512,0,0,1,1.094,3.2v.094A4.378,4.378,0,0,1,88.466-1,3.9,3.9,0,0,1,85.493.156a3.942,3.942,0,0,1-2.9-1.082,4.232,4.232,0,0,1-1.18-2.934Zm2.633.164a3.145,3.145,0,0,0,.367,1.719,1.223,1.223,0,0,0,1.086.547q1.406,0,1.438-2.164V-4.3q0-2.273-1.453-2.273-1.32,0-1.43,1.961ZM85.837-12h2.781L86.446-9.547l-2.148,0Zm7.3,3.547.086.992a2.867,2.867,0,0,1,2.414-1.148,2.412,2.412,0,0,1,1.973.789,3.757,3.757,0,0,1,.676,2.375V0H95.649V-5.336a1.426,1.426,0,0,0-.258-.941,1.193,1.193,0,0,0-.937-.3,1.256,1.256,0,0,0-1.148.609V0H90.673V-8.453ZM103.4-4.289a5.164,5.164,0,0,1,.867-3.164,2.854,2.854,0,0,1,2.422-1.156,2.428,2.428,0,0,1,1.906.891V-12h2.641V0h-2.367l-.133-.906A2.493,2.493,0,0,1,106.673.156,2.849,2.849,0,0,1,104.282-1,5.327,5.327,0,0,1,103.4-4.289Zm2.633.164q0,2.25,1.313,2.25a1.3,1.3,0,0,0,1.25-.734V-5.828a1.261,1.261,0,0,0-1.234-.75q-1.219,0-1.32,1.969ZM116.821.156A4.345,4.345,0,0,1,113.673-1a4.006,4.006,0,0,1-1.2-3.02v-.219a5.191,5.191,0,0,1,.48-2.289,3.516,3.516,0,0,1,1.4-1.535,4.233,4.233,0,0,1,2.188-.543A3.659,3.659,0,0,1,119.352-7.5a4.344,4.344,0,0,1,1.031,3.082V-3.4h-5.234a1.9,1.9,0,0,0,.617,1.117A1.836,1.836,0,0,0,117-1.875a2.366,2.366,0,0,0,1.953-.875l1.2,1.422a3.363,3.363,0,0,1-1.395,1.082A4.713,4.713,0,0,1,116.821.156Zm-.3-6.734q-1.156,0-1.375,1.531h2.656v-.2a1.3,1.3,0,0,0-.32-.98A1.275,1.275,0,0,0,116.524-6.578ZM128.2,0h-2.641V-12H128.2Zm6.383,0a2.973,2.973,0,0,1-.25-.758,2.448,2.448,0,0,1-2.031.914,3,3,0,0,1-2.031-.723,2.3,2.3,0,0,1-.836-1.816,2.364,2.364,0,0,1,1.016-2.078,5.174,5.174,0,0,1,2.953-.7h.813v-.448q0-1.17-1.008-1.17a.824.824,0,0,0-.937.926h-2.633a2.36,2.36,0,0,1,1.043-1.99,4.383,4.383,0,0,1,2.66-.765,3.843,3.843,0,0,1,2.555.789,2.743,2.743,0,0,1,.961,2.164v3.742a3.832,3.832,0,0,0,.359,1.781V0Zm-1.648-1.719a1.469,1.469,0,0,0,.816-.211,1.322,1.322,0,0,0,.465-.477V-3.758h-.766q-1.375,0-1.375,1.234a.754.754,0,0,0,.242.582A.876.876,0,0,0,132.938-1.719Zm9.8-.656a.608.608,0,0,0-.352-.539,5.348,5.348,0,0,0-1.336-.422,6.092,6.092,0,0,1-1.625-.574,2.722,2.722,0,0,1-.977-.863,2.061,2.061,0,0,1-.336-1.164,2.336,2.336,0,0,1,.961-1.918,3.958,3.958,0,0,1,2.516-.754,4.386,4.386,0,0,1,2.688.758A2.37,2.37,0,0,1,145.3-5.859h-2.641q0-1.016-1.07-1.016a1.061,1.061,0,0,0-.7.23.714.714,0,0,0-.281.574.655.655,0,0,0,.344.57,3.248,3.248,0,0,0,1.1.359,9.485,9.485,0,0,1,1.324.336,2.406,2.406,0,0,1,1.906,2.352A2.214,2.214,0,0,1,144.255-.57a4.505,4.505,0,0,1-2.66.727,4.6,4.6,0,0,1-1.937-.391A3.24,3.24,0,0,1,138.329-1.3a2.406,2.406,0,0,1-.477-1.414h2.461a1.017,1.017,0,0,0,.391.855,1.607,1.607,0,0,0,.961.27,1.264,1.264,0,0,0,.809-.219A.7.7,0,0,0,142.743-2.375Zm15.6-1.789a5.1,5.1,0,0,1-.887,3.145A2.843,2.843,0,0,1,155.063.156,2.437,2.437,0,0,1,153.149-.7V3.25h-2.633v-11.7h2.461l.078.781a2.437,2.437,0,0,1,1.992-.937,2.866,2.866,0,0,1,2.43,1.152,5.16,5.16,0,0,1,.867,3.168Zm-2.633-.164q0-2.25-1.312-2.25a1.239,1.239,0,0,0-1.25.672v3.328a1.279,1.279,0,0,0,1.266.7q1.258,0,1.3-2.172Zm8.906-1.742-.867-.062a1.558,1.558,0,0,0-1.594.781V0h-2.633V-8.453h2.469l.086,1.086a2.039,2.039,0,0,1,1.852-1.242,2.567,2.567,0,0,1,.734.094ZM164.81-4.3a4.989,4.989,0,0,1,.492-2.254,3.52,3.52,0,0,1,1.414-1.52,4.259,4.259,0,0,1,2.164-.531,3.887,3.887,0,0,1,2.992,1.176,4.512,4.512,0,0,1,1.094,3.2v.094A4.378,4.378,0,0,1,171.868-1,3.9,3.9,0,0,1,168.9.156,3.942,3.942,0,0,1,166-.926a4.232,4.232,0,0,1-1.18-2.934Zm2.633.164a3.145,3.145,0,0,0,.367,1.719,1.223,1.223,0,0,0,1.086.547q1.406,0,1.438-2.164V-4.3q0-2.273-1.453-2.273-1.32,0-1.43,1.961Zm14.531-.023a5.1,5.1,0,0,1-.887,3.145A2.843,2.843,0,0,1,178.693.156,2.437,2.437,0,0,1,176.779-.7V3.25h-2.633v-11.7h2.461l.078.781a2.437,2.437,0,0,1,1.992-.937,2.866,2.866,0,0,1,2.43,1.152,5.16,5.16,0,0,1,.867,3.168Zm-2.633-.164q0-2.25-1.312-2.25a1.239,1.239,0,0,0-1.25.672v3.328a1.279,1.279,0,0,0,1.266.7q1.258,0,1.3-2.172ZM185.911,0h-2.641V-8.453h2.641Zm-2.8-10.641a1.186,1.186,0,0,1,.406-.927,1.527,1.527,0,0,1,1.055-.362,1.527,1.527,0,0,1,1.055.362,1.186,1.186,0,0,1,.406.927,1.186,1.186,0,0,1-.406.927,1.527,1.527,0,0,1-1.055.362,1.527,1.527,0,0,1-1.055-.362A1.186,1.186,0,0,1,183.115-10.641Zm8.508,10.8A4.345,4.345,0,0,1,188.474-1a4.006,4.006,0,0,1-1.2-3.02v-.219a5.191,5.191,0,0,1,.48-2.289,3.516,3.516,0,0,1,1.4-1.535,4.233,4.233,0,0,1,2.188-.543A3.659,3.659,0,0,1,194.154-7.5a4.344,4.344,0,0,1,1.031,3.082V-3.4h-5.234a1.9,1.9,0,0,0,.617,1.117,1.836,1.836,0,0,0,1.234.406,2.366,2.366,0,0,0,1.953-.875l1.2,1.422a3.363,3.363,0,0,1-1.395,1.082A4.713,4.713,0,0,1,191.622.156Zm-.3-6.734q-1.156,0-1.375,1.531h2.656v-.2a1.3,1.3,0,0,0-.32-.98A1.275,1.275,0,0,0,191.326-6.578Zm4.586,2.289a5.164,5.164,0,0,1,.867-3.164A2.854,2.854,0,0,1,199.2-8.609a2.428,2.428,0,0,1,1.906.891V-12h2.641V0H201.38l-.133-.906A2.493,2.493,0,0,1,199.185.156,2.849,2.849,0,0,1,196.794-1,5.327,5.327,0,0,1,195.911-4.289Zm2.633.164q0,2.25,1.313,2.25a1.3,1.3,0,0,0,1.25-.734V-5.828a1.261,1.261,0,0,0-1.234-.75q-1.219,0-1.32,1.969ZM210.005,0a2.973,2.973,0,0,1-.25-.758,2.448,2.448,0,0,1-2.031.914,3,3,0,0,1-2.031-.723,2.3,2.3,0,0,1-.836-1.816,2.364,2.364,0,0,1,1.016-2.078,5.174,5.174,0,0,1,2.953-.7h.813v-.448q0-1.17-1.008-1.17a.824.824,0,0,0-.937.926H205.06a2.36,2.36,0,0,1,1.043-1.99,4.383,4.383,0,0,1,2.66-.765,3.843,3.843,0,0,1,2.555.789,2.743,2.743,0,0,1,.961,2.164v3.742a3.832,3.832,0,0,0,.359,1.781V0Zm-1.648-1.719a1.469,1.469,0,0,0,.816-.211,1.322,1.322,0,0,0,.465-.477V-3.758h-.766q-1.375,0-1.375,1.234a.754.754,0,0,0,.242.582A.876.876,0,0,0,208.357-1.719Zm5.047-2.57a5.164,5.164,0,0,1,.867-3.164,2.854,2.854,0,0,1,2.422-1.156,2.428,2.428,0,0,1,1.906.891V-12h2.641V0h-2.367l-.133-.906A2.493,2.493,0,0,1,216.677.156,2.849,2.849,0,0,1,214.286-1,5.327,5.327,0,0,1,213.4-4.289Zm2.633.164q0,2.25,1.313,2.25a1.3,1.3,0,0,0,1.25-.734V-5.828a1.261,1.261,0,0,0-1.234-.75q-1.219,0-1.32,1.969ZM226.826.156A4.345,4.345,0,0,1,223.677-1a4.006,4.006,0,0,1-1.2-3.02v-.219a5.191,5.191,0,0,1,.48-2.289,3.516,3.516,0,0,1,1.4-1.535,4.233,4.233,0,0,1,2.188-.543A3.659,3.659,0,0,1,229.357-7.5a4.344,4.344,0,0,1,1.031,3.082V-3.4h-5.234a1.9,1.9,0,0,0,.617,1.117,1.836,1.836,0,0,0,1.234.406,2.366,2.366,0,0,0,1.953-.875l1.2,1.422a3.363,3.363,0,0,1-1.395,1.082A4.713,4.713,0,0,1,226.826.156Zm-.3-6.734q-1.156,0-1.375,1.531h2.656v-.2a1.3,1.3,0,0,0-.32-.98A1.275,1.275,0,0,0,226.529-6.578Zm9.344,4.2a.608.608,0,0,0-.352-.539,5.348,5.348,0,0,0-1.336-.422,6.092,6.092,0,0,1-1.625-.574,2.722,2.722,0,0,1-.977-.863,2.061,2.061,0,0,1-.336-1.164,2.336,2.336,0,0,1,.961-1.918,3.958,3.958,0,0,1,2.516-.754,4.386,4.386,0,0,1,2.688.758,2.37,2.37,0,0,1,1.016,1.992h-2.641q0-1.016-1.07-1.016a1.061,1.061,0,0,0-.7.23.714.714,0,0,0-.281.574.655.655,0,0,0,.344.57,3.248,3.248,0,0,0,1.1.359,9.485,9.485,0,0,1,1.324.336,2.406,2.406,0,0,1,1.906,2.352A2.214,2.214,0,0,1,237.384-.57a4.505,4.505,0,0,1-2.66.727,4.6,4.6,0,0,1-1.937-.391A3.24,3.24,0,0,1,231.458-1.3a2.406,2.406,0,0,1-.477-1.414h2.461a1.017,1.017,0,0,0,.391.855,1.607,1.607,0,0,0,.961.27A1.264,1.264,0,0,0,235.6-1.8.7.7,0,0,0,235.872-2.375Z" transform="translate(1041.356 11851.217)"/>
    <path id="Trazado_896389" data-name="Trazado 896389" d="M.406-4.3A4.989,4.989,0,0,1,.9-6.559a3.52,3.52,0,0,1,1.414-1.52,4.259,4.259,0,0,1,2.164-.531A3.887,3.887,0,0,1,7.469-7.434a4.512,4.512,0,0,1,1.094,3.2v.094A4.378,4.378,0,0,1,7.465-1,3.9,3.9,0,0,1,4.492.156a3.942,3.942,0,0,1-2.9-1.082A4.232,4.232,0,0,1,.414-3.859Zm2.633.164a3.145,3.145,0,0,0,.367,1.719,1.223,1.223,0,0,0,1.086.547q1.406,0,1.438-2.164V-4.3q0-2.273-1.453-2.273-1.32,0-1.43,1.961Zm11.8-1.93-.867-.062a1.558,1.558,0,0,0-1.594.781V0H9.742V-8.453h2.469L12.3-7.367a2.039,2.039,0,0,1,1.852-1.242,2.567,2.567,0,0,1,.734.094ZM18.563,0H15.922V-8.453h2.641Zm-2.8-10.641a1.186,1.186,0,0,1,.406-.927,1.527,1.527,0,0,1,1.055-.362,1.527,1.527,0,0,1,1.055.362,1.186,1.186,0,0,1,.406.927,1.186,1.186,0,0,1-.406.927,1.527,1.527,0,0,1-1.055.362,1.527,1.527,0,0,1-1.055-.362A1.186,1.186,0,0,1,15.766-10.641Zm4.109,6.352A5.708,5.708,0,0,1,20.3-6.555a3.4,3.4,0,0,1,1.211-1.52,3.192,3.192,0,0,1,1.836-.535,2.538,2.538,0,0,1,2.063.891l.094-.734h2.391V-.32a3.564,3.564,0,0,1-.52,1.941,3.334,3.334,0,0,1-1.5,1.266,5.528,5.528,0,0,1-2.281.441,4.769,4.769,0,0,1-1.8-.352,3.251,3.251,0,0,1-1.332-.914l1.1-1.547a2.414,2.414,0,0,0,1.938.867,1.568,1.568,0,0,0,1.75-1.8V-.68a2.472,2.472,0,0,1-1.914.836,3.055,3.055,0,0,1-2.5-1.184A4.9,4.9,0,0,1,19.875-4.2Zm2.641.164a3.007,3.007,0,0,0,.391,1.645A1.232,1.232,0,0,0,24-1.875a1.4,1.4,0,0,0,1.242-.57V-6a1.363,1.363,0,0,0-1.227-.578,1.241,1.241,0,0,0-1.1.629A3.429,3.429,0,0,0,22.516-4.125ZM32.164,0H29.523V-8.453h2.641Zm-2.8-10.641a1.186,1.186,0,0,1,.406-.927,1.527,1.527,0,0,1,1.055-.362,1.527,1.527,0,0,1,1.055.362,1.186,1.186,0,0,1,.406.927,1.186,1.186,0,0,1-.406.927,1.527,1.527,0,0,1-1.055.362,1.527,1.527,0,0,1-1.055-.362A1.186,1.186,0,0,1,29.367-10.641ZM36.2-8.453l.086.992A2.867,2.867,0,0,1,38.7-8.609a2.412,2.412,0,0,1,1.973.789,3.757,3.757,0,0,1,.676,2.375V0H38.711V-5.336a1.426,1.426,0,0,0-.258-.941,1.193,1.193,0,0,0-.937-.3,1.256,1.256,0,0,0-1.148.609V0H33.734V-8.453ZM47.57,0a2.973,2.973,0,0,1-.25-.758,2.448,2.448,0,0,1-2.031.914,3,3,0,0,1-2.031-.723,2.3,2.3,0,0,1-.836-1.816,2.364,2.364,0,0,1,1.016-2.078,5.174,5.174,0,0,1,2.953-.7H47.2v-.448q0-1.17-1.008-1.17a.824.824,0,0,0-.937.926H42.625a2.36,2.36,0,0,1,1.043-1.99,4.383,4.383,0,0,1,2.66-.765,3.843,3.843,0,0,1,2.555.789,2.743,2.743,0,0,1,.961,2.164v3.742A3.832,3.832,0,0,0,50.2-.133V0ZM45.922-1.719a1.469,1.469,0,0,0,.816-.211,1.322,1.322,0,0,0,.465-.477V-3.758h-.766q-1.375,0-1.375,1.234a.754.754,0,0,0,.242.582A.876.876,0,0,0,45.922-1.719ZM54.078,0H51.438V-12h2.641Zm5.711.156A4.345,4.345,0,0,1,56.641-1a4.006,4.006,0,0,1-1.2-3.02v-.219a5.191,5.191,0,0,1,.48-2.289,3.516,3.516,0,0,1,1.4-1.535,4.233,4.233,0,0,1,2.188-.543A3.659,3.659,0,0,1,62.32-7.5a4.344,4.344,0,0,1,1.031,3.082V-3.4H58.117a1.9,1.9,0,0,0,.617,1.117,1.836,1.836,0,0,0,1.234.406,2.366,2.366,0,0,0,1.953-.875l1.2,1.422A3.363,3.363,0,0,1,61.73-.246,4.713,4.713,0,0,1,59.789.156Zm-.3-6.734q-1.156,0-1.375,1.531h2.656v-.2a1.3,1.3,0,0,0-.32-.98A1.275,1.275,0,0,0,59.492-6.578Zm9.344,4.2a.608.608,0,0,0-.352-.539,5.348,5.348,0,0,0-1.336-.422,6.092,6.092,0,0,1-1.625-.574,2.722,2.722,0,0,1-.977-.863,2.061,2.061,0,0,1-.336-1.164,2.336,2.336,0,0,1,.961-1.918,3.958,3.958,0,0,1,2.516-.754,4.386,4.386,0,0,1,2.688.758,2.37,2.37,0,0,1,1.016,1.992H68.75q0-1.016-1.07-1.016a1.061,1.061,0,0,0-.7.23.714.714,0,0,0-.281.574.655.655,0,0,0,.344.57,3.248,3.248,0,0,0,1.1.359,9.486,9.486,0,0,1,1.324.336,2.406,2.406,0,0,1,1.906,2.352A2.214,2.214,0,0,1,70.348-.57a4.505,4.505,0,0,1-2.66.727A4.6,4.6,0,0,1,65.75-.234,3.24,3.24,0,0,1,64.422-1.3a2.406,2.406,0,0,1-.477-1.414h2.461a1.017,1.017,0,0,0,.391.855,1.607,1.607,0,0,0,.961.27,1.264,1.264,0,0,0,.809-.219A.7.7,0,0,0,68.836-2.375Zm7.422-1.914a5.164,5.164,0,0,1,.867-3.164,2.854,2.854,0,0,1,2.422-1.156,2.428,2.428,0,0,1,1.906.891V-12h2.641V0H81.727l-.133-.906A2.493,2.493,0,0,1,79.531.156,2.849,2.849,0,0,1,77.141-1,5.327,5.327,0,0,1,76.258-4.289Zm2.633.164q0,2.25,1.313,2.25a1.3,1.3,0,0,0,1.25-.734V-5.828a1.261,1.261,0,0,0-1.234-.75Q79-6.578,78.9-4.609ZM89.68.156A4.345,4.345,0,0,1,86.531-1a4.006,4.006,0,0,1-1.2-3.02v-.219a5.191,5.191,0,0,1,.48-2.289,3.516,3.516,0,0,1,1.4-1.535A4.233,4.233,0,0,1,89.4-8.609,3.659,3.659,0,0,1,92.211-7.5a4.344,4.344,0,0,1,1.031,3.082V-3.4H88.008a1.9,1.9,0,0,0,.617,1.117,1.836,1.836,0,0,0,1.234.406,2.366,2.366,0,0,0,1.953-.875l1.2,1.422A3.363,3.363,0,0,1,91.621-.246,4.713,4.713,0,0,1,89.68.156Zm-.3-6.734q-1.156,0-1.375,1.531h2.656v-.2a1.3,1.3,0,0,0-.32-.98A1.275,1.275,0,0,0,89.383-6.578ZM97.078,0H94.438V-12h2.641Zm8.094-8.453.086.992a2.906,2.906,0,0,1,2.414-1.148,2.14,2.14,0,0,1,2.164,1.273,2.813,2.813,0,0,1,2.484-1.273q2.57,0,2.641,3.109V0H112.32V-5.336a1.611,1.611,0,0,0-.219-.945.931.931,0,0,0-.8-.3,1.247,1.247,0,0,0-1.164.7l.008.109V0h-2.641V-5.32a1.694,1.694,0,0,0-.211-.961.929.929,0,0,0-.8-.3,1.263,1.263,0,0,0-1.156.7V0H102.7V-8.453ZM121.227,0a2.973,2.973,0,0,1-.25-.758,2.448,2.448,0,0,1-2.031.914,3,3,0,0,1-2.031-.723,2.3,2.3,0,0,1-.836-1.816,2.364,2.364,0,0,1,1.016-2.078,5.174,5.174,0,0,1,2.953-.7h.813v-.448q0-1.17-1.008-1.17a.824.824,0,0,0-.937.926h-2.633a2.36,2.36,0,0,1,1.043-1.99,4.383,4.383,0,0,1,2.66-.765,3.843,3.843,0,0,1,2.555.789,2.743,2.743,0,0,1,.961,2.164v3.742a3.832,3.832,0,0,0,.359,1.781V0Zm-1.648-1.719a1.469,1.469,0,0,0,.816-.211,1.322,1.322,0,0,0,.465-.477V-3.758h-.766q-1.375,0-1.375,1.234a.754.754,0,0,0,.242.582A.876.876,0,0,0,119.578-1.719Zm8.445-8.836v2.1h1.391v1.828h-1.391v3.867a.987.987,0,0,0,.172.664.922.922,0,0,0,.68.188,3.862,3.862,0,0,0,.656-.047V-.07a4.859,4.859,0,0,1-1.484.227,2.758,2.758,0,0,1-2.008-.641,2.626,2.626,0,0,1-.648-1.945v-4.2h-1.078V-8.453h1.078v-2.1ZM134.539.156A4.345,4.345,0,0,1,131.391-1a4.006,4.006,0,0,1-1.2-3.02v-.219a5.191,5.191,0,0,1,.48-2.289,3.516,3.516,0,0,1,1.4-1.535,4.233,4.233,0,0,1,2.188-.543A3.659,3.659,0,0,1,137.07-7.5,4.344,4.344,0,0,1,138.1-4.422V-3.4h-5.234a1.9,1.9,0,0,0,.617,1.117,1.836,1.836,0,0,0,1.234.406,2.366,2.366,0,0,0,1.953-.875l1.2,1.422A3.363,3.363,0,0,1,136.48-.246,4.713,4.713,0,0,1,134.539.156Zm-.3-6.734q-1.156,0-1.375,1.531h2.656v-.2a1.3,1.3,0,0,0-.32-.98A1.275,1.275,0,0,0,134.242-6.578Zm10.031.508-.867-.062a1.558,1.558,0,0,0-1.594.781V0H139.18V-8.453h2.469l.086,1.086a2.039,2.039,0,0,1,1.852-1.242,2.567,2.567,0,0,1,.734.094ZM148,0h-2.641V-8.453H148Zm-2.8-10.641a1.186,1.186,0,0,1,.406-.927,1.527,1.527,0,0,1,1.055-.362,1.527,1.527,0,0,1,1.055.362,1.186,1.186,0,0,1,.406.927,1.186,1.186,0,0,1-.406.927,1.527,1.527,0,0,1-1.055.362,1.527,1.527,0,0,1-1.055-.362A1.186,1.186,0,0,1,145.2-10.641ZM154.383,0a2.973,2.973,0,0,1-.25-.758A2.448,2.448,0,0,1,152.1.156a3,3,0,0,1-2.031-.723,2.3,2.3,0,0,1-.836-1.816,2.364,2.364,0,0,1,1.016-2.078,5.174,5.174,0,0,1,2.953-.7h.813v-.448q0-1.17-1.008-1.17a.824.824,0,0,0-.937.926h-2.633a2.36,2.36,0,0,1,1.043-1.99,4.383,4.383,0,0,1,2.66-.765,3.843,3.843,0,0,1,2.555.789,2.743,2.743,0,0,1,.961,2.164v3.742a3.832,3.832,0,0,0,.359,1.781V0Zm-1.648-1.719a1.469,1.469,0,0,0,.816-.211,1.322,1.322,0,0,0,.465-.477V-3.758h-.766q-1.375,0-1.375,1.234a.754.754,0,0,0,.242.582A.876.876,0,0,0,152.734-1.719ZM160.891,0H158.25V-12h2.641Zm3.25-2.555a1.5,1.5,0,0,1,1.039.371,1.218,1.218,0,0,1,.414.949,1.218,1.218,0,0,1-.414.949,1.5,1.5,0,0,1-1.039.371A1.486,1.486,0,0,1,163.1-.289a1.226,1.226,0,0,1-.41-.945,1.226,1.226,0,0,1,.41-.945A1.486,1.486,0,0,1,164.141-2.555Z" transform="translate(1041.356 11870.417)"/>
    <g id="Grupo_1123539" data-name="Grupo 1123539" transform="translate(307.051 11707)" clip-path="url(#clip-path)">
      <path id="Trazado_894476" data-name="Trazado 894476" d="M151.982,62.011l1.579-5.9a19.94,19.94,0,0,0-10.266,0l1.58,5.9a13.789,13.789,0,0,1,7.107,0" fill="#d1c4e9"/>
      <path id="Trazado_894477" data-name="Trazado 894477" d="M158.135,65.565a13.669,13.669,0,0,1,3.554,6.154l5.9-1.58a19.727,19.727,0,0,0-5.135-8.888Z" fill="#d1c4e9"/>
      <path id="Trazado_894478" data-name="Trazado 894478" d="M138.721,65.565l-4.315-4.314a19.743,19.743,0,0,0-5.135,8.889l5.9,1.579a13.65,13.65,0,0,1,3.554-6.154" fill="#d1c4e9"/>
      <rect id="Rectángulo_413049" data-name="Rectángulo 413049" width="8.955" height="5.117" transform="translate(143.95 83.908)" fill="#d1c4e9"/>
      <path id="Trazado_894479" data-name="Trazado 894479" d="M148.428,96.376a21.1,21.1,0,1,1,21.1-21.1,21.127,21.127,0,0,1-21.1,21.1m0-39.658a18.555,18.555,0,1,0,18.556,18.555,18.576,18.576,0,0,0-18.556-18.555" fill="#7d768c"/>
      <path id="Trazado_894480" data-name="Trazado 894480" d="M154.184,107.89H142.671a1.274,1.274,0,0,1-1.275-1.275v-4.752a27.194,27.194,0,0,1-6.8-2.818l-3.361,3.362a1.278,1.278,0,0,1-1.8,0l-8.141-8.141a1.277,1.277,0,0,1,0-1.8l3.362-3.361a27.257,27.257,0,0,1-2.819-6.8h-4.751a1.275,1.275,0,0,1-1.275-1.275V69.516a1.275,1.275,0,0,1,1.275-1.275h4.752a27.248,27.248,0,0,1,2.818-6.8l-3.362-3.362a1.277,1.277,0,0,1,0-1.8l8.141-8.141a1.278,1.278,0,0,1,1.8,0L134.6,51.5a27.256,27.256,0,0,1,6.8-2.818V43.929a1.275,1.275,0,0,1,1.275-1.275h11.513a1.275,1.275,0,0,1,1.275,1.275v4.752a27.272,27.272,0,0,1,6.8,2.818l3.363-3.361a1.277,1.277,0,0,1,1.8,0l8.141,8.14a1.276,1.276,0,0,1,0,1.8L172.2,61.443a27.272,27.272,0,0,1,2.818,6.8h4.752a1.275,1.275,0,0,1,1.275,1.275V81.029a1.275,1.275,0,0,1-1.275,1.275h-4.752a27.329,27.329,0,0,1-2.818,6.8l3.361,3.36a1.277,1.277,0,0,1,0,1.8l-8.14,8.141a1.315,1.315,0,0,1-1.8,0l-3.362-3.362a27.25,27.25,0,0,1-6.8,2.819v4.751a1.275,1.275,0,0,1-1.275,1.275m-10.239-2.549h8.965v-4.478a1.275,1.275,0,0,1,.995-1.243,24.753,24.753,0,0,0,7.863-3.259,1.275,1.275,0,0,1,1.584.174L166.52,99.7l6.339-6.34L169.691,90.2a1.275,1.275,0,0,1-.175-1.583,24.8,24.8,0,0,0,3.259-7.864,1.275,1.275,0,0,1,1.243-1H178.5V70.79h-4.479a1.274,1.274,0,0,1-1.243-1,24.76,24.76,0,0,0-3.259-7.863,1.275,1.275,0,0,1,.175-1.583l3.169-3.168-6.34-6.339-3.169,3.168a1.274,1.274,0,0,1-1.582.175,24.76,24.76,0,0,0-7.863-3.259,1.274,1.274,0,0,1-1-1.243V45.2h-8.965v4.479a1.274,1.274,0,0,1-1,1.243,24.735,24.735,0,0,0-7.861,3.259,1.279,1.279,0,0,1-1.584-.175l-3.168-3.169L124,57.18l3.169,3.168a1.277,1.277,0,0,1,.175,1.584,24.73,24.73,0,0,0-3.259,7.862,1.274,1.274,0,0,1-1.243,1h-4.479v8.965h4.478a1.275,1.275,0,0,1,1.243,1,24.708,24.708,0,0,0,3.26,7.862,1.276,1.276,0,0,1-.175,1.584L124,93.364l6.34,6.34,3.168-3.169a1.278,1.278,0,0,1,1.584-.174,24.717,24.717,0,0,0,7.861,3.258,1.274,1.274,0,0,1,1,1.243Z" fill="#7d768c"/>
      <path id="Trazado_894481" data-name="Trazado 894481" d="M148.428,79.106a3.833,3.833,0,1,1,3.833-3.833,3.838,3.838,0,0,1-3.833,3.833m0-5.117a1.284,1.284,0,1,0,1.284,1.284,1.285,1.285,0,0,0-1.284-1.284" fill="#7d768c"/>
      <path id="Trazado_894482" data-name="Trazado 894482" d="M150.237,74.738a1.275,1.275,0,0,1-.9-2.176l4.07-4.07a1.275,1.275,0,0,1,1.8,1.8l-4.071,4.07a1.274,1.274,0,0,1-.9.373" fill="#7d768c"/>
      <path id="Trazado_894483" data-name="Trazado 894483" d="M167.583,81.679a1.261,1.261,0,0,1-.331-.044l-5.894-1.579a1.274,1.274,0,0,1-.9-1.56,12.455,12.455,0,1,0-24.061,0,1.274,1.274,0,0,1-.9,1.56L129.6,81.635l-.66-2.461,4.717-1.264a15,15,0,1,1,29.535,0l4.716,1.264a1.274,1.274,0,0,1-.329,2.5" fill="#7d768c"/>
      <path id="Trazado_894484" data-name="Trazado 894484" d="M463.384,111.008a1.467,1.467,0,0,1-1.184-.6l-4.445-6.1-7.533.518a1.465,1.465,0,0,1-1.428-2.081l7.59-16.276,2.654,1.238L452.5,101.729l5.865-.4a1.453,1.453,0,0,1,1.284.6l3.46,4.752,6.057-12.989,2.655,1.238-7.107,15.238a1.463,1.463,0,0,1-1.185.838,1.364,1.364,0,0,1-.142.007" fill="#cc923e"/>
      <path id="Trazado_894485" data-name="Trazado 894485" d="M488.627,111.008a1.364,1.364,0,0,1-.142-.007,1.463,1.463,0,0,1-1.185-.838l-7.106-15.238,2.655-1.238,6.056,12.989,3.461-4.752a1.445,1.445,0,0,1,1.284-.6l5.865.4L492.974,87.7l2.654-1.238,7.59,16.276a1.465,1.465,0,0,1-1.428,2.081l-7.533-.518-4.446,6.1a1.468,1.468,0,0,1-1.184.6" fill="#cc923e"/>
      <path id="Trazado_894486" data-name="Trazado 894486" d="M476.006,96.375a26.758,26.758,0,1,1,26.758-26.758,26.788,26.788,0,0,1-26.758,26.758m0-50.588a23.83,23.83,0,1,0,23.83,23.83,23.857,23.857,0,0,0-23.83-23.83" fill="#cc923e"/>
      <path id="Trazado_894487" data-name="Trazado 894487" d="M476.006,88.92a19.3,19.3,0,1,1,19.3-19.3,19.324,19.324,0,0,1-19.3,19.3m0-35.678a16.375,16.375,0,1,0,16.375,16.375,16.394,16.394,0,0,0-16.375-16.375" fill="#cc923e"/>
      <path id="Trazado_894488" data-name="Trazado 894488" d="M482.742,80.328a1.473,1.473,0,0,1-.682-.168l-6.043-3.177-6.043,3.177a1.464,1.464,0,0,1-2.125-1.543L469,71.886l-4.888-4.764a1.464,1.464,0,0,1,.81-2.5l6.757-.982,3.023-6.123a1.464,1.464,0,0,1,2.624,0l3.023,6.123,6.756.982a1.465,1.465,0,0,1,.811,2.5l-4.888,4.764,1.154,6.731a1.464,1.464,0,0,1-1.443,1.711m-6.725-6.463a1.47,1.47,0,0,1,.682.168l4.1,2.154-.783-4.564a1.466,1.466,0,0,1,.421-1.3L483.75,67.1l-4.582-.666a1.464,1.464,0,0,1-1.1-.8l-2.05-4.153-2.05,4.153a1.464,1.464,0,0,1-1.1.8l-4.583.666,3.316,3.232a1.466,1.466,0,0,1,.421,1.3l-.783,4.564,4.1-2.154a1.47,1.47,0,0,1,.682-.168" fill="#ffb74d"/>
      <path id="Trazado_894489" data-name="Trazado 894489" d="M796.632,89.763a9.023,9.023,0,1,1,9.023-9.023,9.032,9.032,0,0,1-9.023,9.023" fill="#b1faef"/>
      <path id="Trazado_894490" data-name="Trazado 894490" d="M810.668,61.691h-2.005V81.742h2.005a3.011,3.011,0,0,0,3.008-3.007V64.7a3.012,3.012,0,0,0-3.008-3.008" fill="#b1faef"/>
      <rect id="Rectángulo_413050" data-name="Rectángulo 413050" width="12.031" height="4.01" transform="translate(754.524 81.743)" fill="#b1faef"/>
      <path id="Trazado_894491" data-name="Trazado 894491" d="M805.655,56.78v-1.1a3.012,3.012,0,0,0-3.008-3.008h-1v-1a3.012,3.012,0,0,0-3.008-3.008h-6.015a3.012,3.012,0,0,0-3.008,3.008v1h-1a3.012,3.012,0,0,0-3.008,3.008v1H768.56V54.673h3.008V51.666a3.012,3.012,0,0,0-3.008-3.008h-6.015a3.012,3.012,0,0,0-3.008,3.008v3.007h3.008v3.111a17,17,0,0,0-11.028,15.938v8.021h17.524l1.06-1.323a9.831,9.831,0,0,1,17.508,6.142v.405a9.819,9.819,0,0,1-6.722,9.328l-1.46.486h-24.32a3.589,3.589,0,0,0-3.4,4.726l2.284,6.854a3.583,3.583,0,0,0,3.406,2.456h47.261a5.019,5.019,0,0,0,5.012-5.013V61.691a5.021,5.021,0,0,0-4.01-4.911m-14.036-5.114a1,1,0,0,1,1-1h6.015a1,1,0,0,1,1,1v1h-8.021Zm-4.01,4.01a1,1,0,0,1,1-1h14.035a1,1,0,0,1,1,1v1H787.609Zm-26.067-3.008v-1a1,1,0,0,1,1-1h6.015a1,1,0,0,1,1,1v1Zm5.013,19.049H764.55V54.673h2.005Zm-4.01-3.05a2.42,2.42,0,0,1-2.005-2.378V61a15.042,15.042,0,0,1,2.005-1.055Zm15.232,6.058a11.777,11.777,0,0,0-9.242,4.442l-.456.57H753.522V73.722a15.015,15.015,0,0,1,5.013-11.212v3.779a4.415,4.415,0,0,0,4.01,4.383v3.05h6.015V70.714h15.626a2.419,2.419,0,0,1,2.42,2.421v5.571a11.8,11.8,0,0,0-8.829-3.981m-21.889,33-2.285-6.855a1.586,1.586,0,0,1,1.5-2.087h26.487v10.026h-24.2a1.585,1.585,0,0,1-1.5-1.084M807.66,105.8a3.011,3.011,0,0,1-3.007,3.008H783.6V98.786H807.66Zm-6.015-9.023h-4.01v-2h4.01Zm2.005,0v-4.01h-8.021v4.01H784.384a11.813,11.813,0,0,0,5.23-9.814v-.405a11.77,11.77,0,0,0-1-4.75V73.135a4.427,4.427,0,0,0-4.426-4.426H768.56V58.684h36.093a3.01,3.01,0,0,1,3.007,3.007v35.09Z" fill="#2fc2ab"/>
      <path id="Trazado_894492" data-name="Trazado 894492" d="M756.529,85.753v4.01h3.008v5.013h2V89.763h3.008v-4.01h-2.006v2.005h-4.01V85.753Z" fill="#2fc2ab"/>
      <path id="Trazado_894493" data-name="Trazado 894493" d="M796.632,75.727a5.013,5.013,0,1,0,5.013,5.013,5.019,5.019,0,0,0-5.013-5.013m0,8.021a3.007,3.007,0,1,1,3.008-3.008,3.012,3.012,0,0,1-3.008,3.008" fill="#2fc2ab"/>
      <path id="Trazado_894494" data-name="Trazado 894494" d="M792.622,64.7V66.7h2V64.7h2.005V66.7h2.005V64.7h2.006v-2h-2.006V60.689h-2.005v2.005h-2.005V60.689h-2v2.005h-2.005V60.689h-2.005v2.005h-2.005V60.689H784.6v2.005h-2V60.689h-2.005v2.005h-2.005V60.689h-2.005v2.005h-2.005V60.689h-2.005v2.005h-2.005v2h2.005V66.7h2.005V64.7h2.005V66.7h2.005V64.7h2.005V66.7H782.6V64.7h2V66.7h2.006V64.7h2.005V66.7h2.005V64.7Z" fill="#2fc2ab"/>
      <path id="Trazado_894495" data-name="Trazado 894495" d="M805.655,100.791H795.629v6.015h10.026Zm-8.02,2h6.015V104.8h-6.015Z" fill="#2fc2ab"/>
    </g>
  </g>
</svg>
