<svg id="Grupo_1124441" data-name="Grupo 1124441" xmlns="http://www.w3.org/2000/svg" xmlns:xlink="http://www.w3.org/1999/xlink" width="48.591" height="52.063" viewBox="0 0 48.591 52.063">
  <defs>
    <clipPath id="clip-path">
      <rect id="Rectángulo_413382" data-name="Rectángulo 413382" width="48.591" height="52.062" fill="#996e2e"/>
    </clipPath>
  </defs>
  <g id="Grupo_1124440" data-name="Grupo 1124440" clip-path="url(#clip-path)">
    <path id="Trazado_895193" data-name="Trazado 895193" d="M47.722,41.578c-.028-1.064-.681-2.546-3.469-3.848V14.537a5.179,5.179,0,0,0,2.511-2,.847.847,0,0,0,.058-.15l1.422-4.977a2.8,2.8,0,0,0,.347-1.335c0-1.269-.9-3.08-5.168-4.5A37.215,37.215,0,0,0,32.1,0,37.215,37.215,0,0,0,20.786,1.569c-4.271,1.424-5.168,3.235-5.168,4.5a2.8,2.8,0,0,0,.347,1.335l1.422,4.977a.849.849,0,0,0,.058.15,5.176,5.176,0,0,0,2.511,2V27.184a5.25,5.25,0,0,0-3.15.492c-1.828.93-3.1,2.941-3.772,5.976-1.278,5.749-2.489,8.865-5.227,8.865-1.149,0-1.793-.982-2.718-2.6S3.107,36.443.868,36.443a.868.868,0,0,0,0,1.735c1.149,0,1.793.982,2.718,2.6s1.985,3.474,4.224,3.474c4.293,0,5.724-4.836,6.921-10.224.554-2.492,1.511-4.106,2.844-4.8a3.614,3.614,0,0,1,2.382-.288V37.73c-2.78,1.3-3.442,2.774-3.469,3.848l-.86,6.023a.868.868,0,0,0,.165.643c.293.391,3.241,3.818,16.313,3.818s16.02-3.427,16.313-3.818a.868.868,0,0,0,.165-.643ZM29.042,16.406a11.5,11.5,0,0,1-7.35,7.175V21.735a9.684,9.684,0,0,0,5.564-5.462q.844.081,1.786.133m-7.35,9c.207-.062,7.445-2.093,9.139-8.929q.618.013,1.274.014l.514,0A14.953,14.953,0,0,1,21.692,27.2Zm13.586-2.093a30.782,30.782,0,0,0,7.239-1.352v1.633a29.147,29.147,0,0,1-8.552,1.531,19.346,19.346,0,0,0,1.313-1.812M32.331,26.9A33.971,33.971,0,0,0,42.517,25.43v1.632A31.247,31.247,0,0,1,32.1,28.634q-.888,0-1.764-.038A21,21,0,0,0,32.331,26.9Zm-4.4,3.264a41.551,41.551,0,0,0,4.176.208A34.194,34.194,0,0,0,42.517,28.9V30.58A31.247,31.247,0,0,1,32.1,32.153a36.792,36.792,0,0,1-7.064-.651A21.729,21.729,0,0,0,27.929,30.162Zm-6.237,2.316.111-.023a34.4,34.4,0,0,0,10.3,1.433,34.206,34.206,0,0,0,10.412-1.469V34A31.247,31.247,0,0,1,32.1,35.575,31.247,31.247,0,0,1,21.692,34Zm20.825-12.36a26.194,26.194,0,0,1-6.2,1.353,18.335,18.335,0,0,0,.772-1.813,28.32,28.32,0,0,0,5.432-1.17ZM31.245,25.534A19.832,19.832,0,0,1,21.692,30.7V29A16.684,16.684,0,0,0,34.406,16.442q.936-.037,1.78-.1a17.061,17.061,0,0,1-4.942,9.195m.86,11.777a34.194,34.194,0,0,0,10.412-1.469v1.632A31.247,31.247,0,0,1,32.1,39.047a31.247,31.247,0,0,1-10.412-1.573V35.842A34.194,34.194,0,0,0,32.1,37.311m-10.412,2A34.194,34.194,0,0,0,32.1,40.782a34.194,34.194,0,0,0,10.412-1.469V41a36.771,36.771,0,0,1-20.825,0ZM42.517,16.648a24.171,24.171,0,0,1-4.876,1.185q.205-.825.334-1.671a24.877,24.877,0,0,0,4.542-.945ZM32.1,1.735c9.139,0,14.751,2.527,14.751,4.338S41.244,10.412,32.1,10.412,17.354,7.885,17.354,6.074,22.966,1.735,32.1,1.735M19.02,11.782l-.633-2.215a15.151,15.151,0,0,0,2.4,1.011A37.215,37.215,0,0,0,32.1,12.148a37.215,37.215,0,0,0,11.318-1.569,15.151,15.151,0,0,0,2.4-1.011l-.633,2.215c-.312.4-2.722,2.968-13.085,2.968S19.331,12.182,19.02,11.782Zm6.45,4.276a7.9,7.9,0,0,1-3.778,3.778v-4.62a23.608,23.608,0,0,0,3.778.842M19.957,39.683V41.65a.868.868,0,0,0,.613.829A39.03,39.03,0,0,0,32.1,44.246a39.124,39.124,0,0,0,11.54-1.767.868.868,0,0,0,.613-.829V39.684c1.1.637,1.735,1.337,1.735,1.966,0,1.811-5.282,4.338-13.883,4.338S18.221,43.461,18.221,41.65C18.221,41.016,18.849,40.32,19.957,39.683ZM32.1,50.327c-10.268,0-13.817-2.2-14.7-2.919l.449-3.143a10.834,10.834,0,0,0,3.529,1.885A33.418,33.418,0,0,0,32.1,47.724a33.418,33.418,0,0,0,10.719-1.574,10.825,10.825,0,0,0,3.529-1.885l.449,3.143C45.921,48.122,42.373,50.327,32.1,50.327Z" fill="#996e2e"/>
    <path id="Trazado_895194" data-name="Trazado 895194" d="M63.753,13.894a31.781,31.781,0,0,0,6.122.526A31.784,31.784,0,0,0,76,13.894c.863-.178,3.156-.651,3.156-2.077S76.86,9.918,76,9.74a31.784,31.784,0,0,0-6.122-.526,31.781,31.781,0,0,0-6.122.526c-.863.178-3.156.651-3.156,2.077s2.293,1.9,3.156,2.077m.886-2.555a32.226,32.226,0,0,1,5.236-.39,22.861,22.861,0,0,1,7.134.866,9.819,9.819,0,0,1-1.9.48,32.218,32.218,0,0,1-5.236.39,22.861,22.861,0,0,1-7.134-.866,9.812,9.812,0,0,1,1.9-.48" transform="translate(-37.77 -5.743)" fill="#996e2e"/>
  </g>
</svg>
