<svg id="Grupo_1124959" data-name="Grupo 1124959" xmlns="http://www.w3.org/2000/svg" xmlns:xlink="http://www.w3.org/1999/xlink" width="55.516" height="52.571" viewBox="0 0 55.516 52.571">
  <defs>
    <clipPath id="clip-path">
      <rect id="Rectángulo_413650" data-name="Rectángulo 413650" width="55.516" height="52.572" fill="#996e2e"/>
    </clipPath>
  </defs>
  <g id="Grupo_1124958" data-name="Grupo 1124958" transform="translate(0 0)" clip-path="url(#clip-path)">
    <path id="Trazado_896319" data-name="Trazado 896319" d="M31.28,5.241c1.494,0,2.885-.078,4.265.016a14.027,14.027,0,0,1,7.346,2.617,16.853,16.853,0,0,0,9.061,3.1c.875.055,1.746.178,2.616.29a.977.977,0,0,1,.945,1.092.945.945,0,0,1-1.047.993c-3.533-.334-7.129-.417-10.346-2.219-.764-.428-1.507-.9-2.233-1.388A14.125,14.125,0,0,0,33.395,7.3c-.633.018-1.267.012-1.9.022-.043,0-.084.038-.214.1v.964q0,20.011,0,40.022a3.759,3.759,0,0,1-2.894,4.025,5.329,5.329,0,0,1-1.232.1q-7.893.011-15.786.007c-2.36,0-4.724-.095-7.078.024A4.012,4.012,0,0,1,0,48.25c.068-12.267.029-24.535.029-36.8,0-2.414-.006-4.829,0-7.243C.04,1.624,1.54.148,4.131.116,5.663.1,7.195,0,8.727,0c3.8.012,7.6.07,11.405.1,2.334.018,4.668.013,7,.022C29.78.131,31.259,1.6,31.28,4.233c0,.264,0,.528,0,1.007m-2.158,7.1H2.2v2.8H29.122ZM2.2,25.2h26.9V22.4H2.2ZM2.151,30.25H29.161c0-.7-.047-1.353.013-2,.066-.719-.205-.884-.9-.882q-12.615.035-25.23.016c-.146,0-.319-.048-.433.013-.175.095-.433.258-.441.4-.043.8-.021,1.6-.021,2.45M29.158,37.5H2.149c0,.676.043,1.309-.012,1.932-.062.708.125.954.906.951,8.41-.032,16.82-.02,25.23-.02.146,0,.321.049.432-.013.173-.1.425-.264.433-.412.043-.8.02-1.6.02-2.438m0,7.843a18.178,18.178,0,0,1,.014-1.963c.088-.775-.225-.921-.941-.919q-12.582.036-25.165.016a2.069,2.069,0,0,0-.581.022c-.129.039-.312.194-.316.3-.026.841-.014,1.683-.014,2.542ZM2.179,5.094H29.072C29.4,3.3,28.881,2.2,26.791,2.227c-5.774.062-11.55.021-17.324.017-1.8,0-3.606-.027-5.409-.018A1.641,1.641,0,0,0,2.189,3.683a11.27,11.27,0,0,0-.01,1.41M29.106,7.343H2.193V10.1H29.106Zm0,10.044H2.2v2.786H29.1ZM2.193,35.239H29.109V32.488H2.193Zm.057,12.33c-.331,1.533.037,2.859,2.205,2.839q11.256-.1,22.514,0c1.724.014,2.522-1,2.069-2.838Z" transform="translate(1.444 -0.001)" fill="#996e2e"/>
  </g>
</svg>
