<svg xmlns="http://www.w3.org/2000/svg" xmlns:xlink="http://www.w3.org/1999/xlink" width="45.547" height="45.547" viewBox="0 0 45.547 45.547">
  <defs>
    <clipPath id="clip-path">
      <rect id="Rectángulo_413383" data-name="Rectángulo 413383" width="45.547" height="45.547" fill="#996e2e"/>
    </clipPath>
  </defs>
  <g id="Grupo_1124443" data-name="Grupo 1124443" transform="translate(0 -89.394)">
    <g id="Grupo_1124442" data-name="Grupo 1124442" transform="translate(0 89.394)" clip-path="url(#clip-path)">
      <path id="Trazado_895195" data-name="Trazado 895195" d="M8.4,45.7l-.083,0a1.767,1.767,0,0,1-1.684-1.844l.307-6.924a3.852,3.852,0,0,0-.1-1.076L5.026,28.4a7.406,7.406,0,0,1,0-3.465l1.8-7.47a9.544,9.544,0,0,0,.241-2.925L6.185,2.373a1.768,1.768,0,0,1,3.527-.254l.378,5.244a.506.506,0,1,1-1.01.073L8.7,2.191a.759.759,0,0,0-.809-.7.755.755,0,0,0-.7.807l.877,12.168A10.542,10.542,0,0,1,7.806,17.7l-1.8,7.47a6.393,6.393,0,0,0,0,2.99l1.81,7.455a4.874,4.874,0,0,1,.132,1.359L7.645,43.9a.755.755,0,0,0,.721.787H8.4a.753.753,0,0,0,.753-.722l.307-6.924a6.357,6.357,0,0,0-.174-1.782l-1.81-7.455a4.872,4.872,0,0,1,0-2.279l1.8-7.47a12.064,12.064,0,0,0,.3-3.7L9.3,10.53a.506.506,0,1,1,1.01-.073l.276,3.829a13.083,13.083,0,0,1-.33,4.008l-1.8,7.47a3.855,3.855,0,0,0,0,1.8l1.81,7.455a7.372,7.372,0,0,1,.2,2.066l-.307,6.925A1.764,1.764,0,0,1,8.4,45.7" transform="translate(-3.192 -0.317)" fill="#996e2e"/>
      <path id="Trazado_895196" data-name="Trazado 895196" d="M30.125,45.7h-.019a1.772,1.772,0,0,1-1.749-1.793l.14-9.558a3.793,3.793,0,0,0-.079-.831l-1.087-5.263a7.324,7.324,0,0,1,.035-3.147l2.19-9.508a3.847,3.847,0,0,0-.012-1.774L28.2,8.355a7.414,7.414,0,0,1,.4-4.692l.921-2.121a1.768,1.768,0,0,1,3.243,1.409l-.922,2.121a3.859,3.859,0,0,0-.208,2.442l1.341,5.474A7.413,7.413,0,0,1,33,16.4L30.812,25.9a3.813,3.813,0,0,0-.019,1.638L31.88,32.8a7.389,7.389,0,0,1,.152,1.6l-.139,9.557A1.775,1.775,0,0,1,30.125,45.7M31.147,1.491a.757.757,0,0,0-.694.454l-.921,2.121a6.4,6.4,0,0,0-.345,4.048l1.341,5.474a4.872,4.872,0,0,1,.016,2.242l-2.19,9.508a6.309,6.309,0,0,0-.031,2.714l1.087,5.262a4.822,4.822,0,0,1,.1,1.052l-.14,9.558a.756.756,0,0,0,.744.766l.011.506V44.69a.758.758,0,0,0,.755-.744l.139-9.557a6.329,6.329,0,0,0-.131-1.38L29.8,27.747a4.812,4.812,0,0,1,.023-2.07l2.19-9.508A6.394,6.394,0,0,0,32,13.228L30.654,7.755a4.88,4.88,0,0,1,.263-3.086l.922-2.121a.755.755,0,0,0-.691-1.056" transform="translate(-18.004 -0.318)" fill="#996e2e"/>
      <path id="Trazado_895197" data-name="Trazado 895197" d="M50.935,45.7a1.767,1.767,0,0,1-1.753-1.557L47.328,28.735a7.391,7.391,0,0,1,.485-3.647l1.018-2.515a16.094,16.094,0,0,0,1.135-7.014l-.839-13.2A1.767,1.767,0,0,1,50.779.48a1.781,1.781,0,0,1,1.876,1.653l.839,13.2a19.754,19.754,0,0,1-1,7.511.506.506,0,0,1-.959-.324,18.734,18.734,0,0,0,.945-7.123L51.645,2.2a.762.762,0,0,0-.8-.705.754.754,0,0,0-.705.8l.839,13.2a17.111,17.111,0,0,1-1.207,7.457l-1.018,2.515a6.38,6.38,0,0,0-.419,3.146l1.854,15.409a.755.755,0,0,0,1.5-.18l-1.854-15.41a4.86,4.86,0,0,1,.32-2.4l.257-.634a.506.506,0,1,1,.939.38l-.257.635a3.839,3.839,0,0,0-.253,1.9l1.854,15.41a1.768,1.768,0,0,1-1.544,1.966,1.793,1.793,0,0,1-.213.013" transform="translate(-31.318 -0.315)" fill="#996e2e"/>
      <path id="Trazado_895198" data-name="Trazado 895198" d="M73.63,45.7a1.766,1.766,0,0,1-1.764-1.675l-.4-7.59a72.223,72.223,0,0,0-.769-7.371l-.853-5.443a7.369,7.369,0,0,1,1.049-5.077A3.835,3.835,0,0,0,71.44,15.9l-.817-5.162a52.517,52.517,0,0,1-.642-8.5,1.768,1.768,0,0,1,3.535.021,48.972,48.972,0,0,0,.6,7.925l.817,5.162a7.37,7.37,0,0,1-1.048,5.088,3.84,3.84,0,0,0-.546,2.643l.854,5.443A75.665,75.665,0,0,1,75,36.252l.4,7.591A1.768,1.768,0,0,1,73.723,45.7l-.093,0M71.753,1.491a.758.758,0,0,0-.76.751,51.486,51.486,0,0,0,.63,8.335l.817,5.162a4.85,4.85,0,0,1-.689,3.347,6.359,6.359,0,0,0-.906,4.38l.854,5.443a73.2,73.2,0,0,1,.78,7.476l.4,7.59a.754.754,0,0,0,.753.715h.045a.754.754,0,0,0,.711-.793l-.4-7.591a74.581,74.581,0,0,0-.8-7.63l-.854-5.443a4.849,4.849,0,0,1,.69-3.34,6.358,6.358,0,0,0,.9-4.39l-.817-5.162A50,50,0,0,1,72.5,2.25a.756.756,0,0,0-.75-.759" transform="translate(-46.211 -0.317)" fill="#996e2e"/>
      <path id="Trazado_895199" data-name="Trazado 895199" d="M92.938,45.7a1.758,1.758,0,0,1-1.744-1.49L89.382,32.848a31.013,31.013,0,0,1,.281-11.318l1.426-6.763a3.836,3.836,0,0,0-.12-2.022L89.51,8.438a7.407,7.407,0,0,1,.017-4.78l.69-1.991a1.767,1.767,0,1,1,3.34,1.158l-.69,1.991A3.858,3.858,0,0,0,92.859,7.3l1.458,4.306a7.376,7.376,0,0,1,.231,3.886l-1.425,6.763a27.487,27.487,0,0,0-.249,10.032l1.812,11.365A1.77,1.77,0,0,1,92.938,45.7M91.887,1.49A.756.756,0,0,0,91.174,2l-.69,1.991a6.39,6.39,0,0,0-.015,4.124l1.458,4.306a4.851,4.851,0,0,1,.152,2.556l-1.425,6.763a30,30,0,0,0-.272,10.95l1.812,11.365a.755.755,0,1,0,1.491-.238L91.873,32.451a28.489,28.489,0,0,1,.259-10.4l1.425-6.763a6.358,6.358,0,0,0-.2-3.352L91.9,7.629a4.878,4.878,0,0,1,.011-3.145l.69-1.991a.756.756,0,0,0-.714-1" transform="translate(-58.954 -0.317)" fill="#996e2e"/>
      <path id="Trazado_895200" data-name="Trazado 895200" d="M113.351,45.7a1.733,1.733,0,0,1-.249-.018,1.766,1.766,0,0,1-1.5-2L113,33.7a3.851,3.851,0,0,0-.192-1.838l-1.672-4.623a7.341,7.341,0,0,1,.179-5.465l.159-.364a.506.506,0,0,1,.928.406l-.159.364a6.333,6.333,0,0,0-.155,4.714l1.672,4.624A4.866,4.866,0,0,1,114,33.836l-1.4,9.992a.756.756,0,0,0,.643.853.775.775,0,0,0,.106.007.758.758,0,0,0,.746-.651l1.4-9.992A6.39,6.39,0,0,0,115.18,31l-1.672-4.623a4.829,4.829,0,0,1,.118-3.6l2.079-4.748a6.357,6.357,0,0,0,.233-4.485l-1.919-6.011a4.822,4.822,0,0,1,.007-2.974l.678-2.086a.756.756,0,0,0-.485-.951.755.755,0,0,0-.951.485L112.59,4.1a6.325,6.325,0,0,0-.01,3.9l1.919,6.012a4.844,4.844,0,0,1-.178,3.42l-.632,1.444a.506.506,0,0,1-.928-.406l.632-1.444a3.835,3.835,0,0,0,.141-2.706L111.615,8.3a7.332,7.332,0,0,1,.012-4.521L112.3,1.7a1.768,1.768,0,0,1,3.362,1.093l-.677,2.086a3.816,3.816,0,0,0-.006,2.353l1.919,6.011a7.366,7.366,0,0,1-.27,5.2l-2.079,4.748a3.821,3.821,0,0,0-.094,2.844l1.672,4.624a7.4,7.4,0,0,1,.368,3.53l-1.4,9.992a1.775,1.775,0,0,1-1.749,1.523" transform="translate(-73.331 -0.315)" fill="#996e2e"/>
      <path id="Trazado_895201" data-name="Trazado 895201" d="M30.108,11.517a.506.506,0,0,1-.358-.864l3.628-3.629a.507.507,0,1,1,.716.717l-3.628,3.629a.506.506,0,0,1-.358.148" transform="translate(-19.611 -4.555)" fill="#996e2e"/>
      <path id="Trazado_895202" data-name="Trazado 895202" d="M32.082,24.585a.506.506,0,0,1-.358-.864l2.086-2.086a.506.506,0,1,1,.716.716l-2.086,2.086a.506.506,0,0,1-.358.148" transform="translate(-20.918 -14.234)" fill="#996e2e"/>
      <path id="Trazado_895203" data-name="Trazado 895203" d="M54.105,14a.506.506,0,0,1-.358-.864l2.377-2.377a.506.506,0,0,1,.716.716l-2.377,2.377a.5.5,0,0,1-.358.148" transform="translate(-35.508 -7.031)" fill="#996e2e"/>
      <path id="Trazado_895204" data-name="Trazado 895204" d="M34.444,34.232a.506.506,0,0,1-.358-.864l2.086-2.086a.506.506,0,1,1,.716.716L34.8,34.084a.5.5,0,0,1-.358.148" transform="translate(-22.483 -20.625)" fill="#996e2e"/>
      <path id="Trazado_895205" data-name="Trazado 895205" d="M71.108,8.847a.506.506,0,0,1-.358-.864l2.462-2.461a.506.506,0,1,1,.716.716L71.466,8.7a.5.5,0,0,1-.358.148" transform="translate(-46.771 -3.56)" fill="#996e2e"/>
      <path id="Trazado_895206" data-name="Trazado 895206" d="M54.822,25.3a.506.506,0,0,1-.358-.864l2.377-2.377a.506.506,0,0,1,.716.716l-2.377,2.377a.5.5,0,0,1-.358.148" transform="translate(-35.983 -14.512)" fill="#996e2e"/>
      <path id="Trazado_895207" data-name="Trazado 895207" d="M33.211,45.423a.506.506,0,0,1-.358-.864l3.134-3.133a.506.506,0,0,1,.716.716L33.57,45.275a.5.5,0,0,1-.358.148" transform="translate(-21.666 -27.345)" fill="#996e2e"/>
      <path id="Trazado_895208" data-name="Trazado 895208" d="M29.615,60.579a.506.506,0,0,1-.358-.864l3.365-3.364a.506.506,0,1,1,.716.716l-3.364,3.365a.5.5,0,0,1-.358.148" transform="translate(-19.284 -37.232)" fill="#996e2e"/>
      <path id="Trazado_895209" data-name="Trazado 895209" d="M55.542,36.593a.506.506,0,0,1-.358-.864l2.376-2.377a.506.506,0,0,1,.716.716L55.9,36.444a.5.5,0,0,1-.358.148" transform="translate(-36.46 -21.996)" fill="#996e2e"/>
      <path id="Trazado_895210" data-name="Trazado 895210" d="M72.059,20.223a.506.506,0,0,1-.358-.864l2.3-2.3a.506.506,0,0,1,.716.716l-2.3,2.3a.5.5,0,0,1-.358.148" transform="translate(-47.402 -11.201)" fill="#996e2e"/>
      <path id="Trazado_895211" data-name="Trazado 895211" d="M90.007,12.9a.506.506,0,0,1-.358-.864l3.006-3.006a.506.506,0,0,1,.716.716l-3.006,3.006a.5.5,0,0,1-.358.148" transform="translate(-59.292 -5.886)" fill="#996e2e"/>
      <path id="Trazado_895212" data-name="Trazado 895212" d="M73.611,30.867A.506.506,0,0,1,73.253,30L75.46,27.8a.506.506,0,1,1,.716.716L73.97,30.719a.5.5,0,0,1-.358.148" transform="translate(-48.43 -18.316)" fill="#996e2e"/>
      <path id="Trazado_895213" data-name="Trazado 895213" d="M55.524,48.148a.506.506,0,0,1-.358-.864l2.618-2.618a.506.506,0,0,1,.716.716L55.882,48a.5.5,0,0,1-.358.148" transform="translate(-36.447 -29.491)" fill="#996e2e"/>
      <path id="Trazado_895214" data-name="Trazado 895214" d="M27.913,75.546a.506.506,0,0,1-.358-.864l2.726-2.726a.506.506,0,0,1,.716.716L28.272,75.4a.5.5,0,0,1-.358.148" transform="translate(-18.156 -47.57)" fill="#996e2e"/>
      <path id="Trazado_895215" data-name="Trazado 895215" d="M92.666,24.247a.506.506,0,0,1-.358-.864l1.99-1.99a.506.506,0,0,1,.716.716l-1.99,1.99a.5.5,0,0,1-.358.148" transform="translate(-61.053 -14.074)" fill="#996e2e"/>
      <path id="Trazado_895216" data-name="Trazado 895216" d="M75.25,41.241a.506.506,0,0,1-.358-.864L77.1,38.171a.506.506,0,0,1,.716.716l-2.206,2.206a.5.5,0,0,1-.358.148" transform="translate(-49.516 -25.189)" fill="#996e2e"/>
      <path id="Trazado_895217" data-name="Trazado 895217" d="M50.568,62.8a.506.506,0,0,1-.358-.864l3.944-3.944.717.715-3.944,3.945a.5.5,0,0,1-.358.148" transform="translate(-33.165 -38.42)" fill="#996e2e"/>
      <path id="Trazado_895218" data-name="Trazado 895218" d="M29.945,86.687a.506.506,0,0,1-.358-.864l2.135-2.135a.506.506,0,1,1,.716.716L30.3,86.539a.5.5,0,0,1-.358.148" transform="translate(-19.503 -55.342)" fill="#996e2e"/>
      <path id="Trazado_895219" data-name="Trazado 895219" d="M113.14,14.253a.506.506,0,0,1-.358-.864l2.772-2.771a.506.506,0,0,1,.716.716L113.5,14.1a.5.5,0,0,1-.358.148" transform="translate(-74.617 -6.935)" fill="#996e2e"/>
      <path id="Trazado_895220" data-name="Trazado 895220" d="M95.648,33.241a.506.506,0,0,1-.358-.864l2.01-2.011a.506.506,0,0,1,.716.716l-2.01,2.011a.5.5,0,0,1-.358.148" transform="translate(-63.028 -20.018)" fill="#996e2e"/>
      <path id="Trazado_895221" data-name="Trazado 895221" d="M70.456,54.277a.506.506,0,0,1-.358-.864l4.128-4.127a.506.506,0,1,1,.716.716l-4.128,4.127a.5.5,0,0,1-.358.148" transform="translate(-46.34 -32.552)" fill="#996e2e"/>
      <path id="Trazado_895222" data-name="Trazado 895222" d="M48.072,79.525a.506.506,0,0,1-.358-.864L50.373,76a.507.507,0,1,1,.725.707l-2.668,2.668a.5.5,0,0,1-.358.148" transform="translate(-31.511 -50.245)" fill="#996e2e"/>
      <path id="Trazado_895223" data-name="Trazado 895223" d="M31.579,96.787a.506.506,0,0,1-.358-.864L33.5,93.645a.506.506,0,0,1,.716.716l-2.277,2.278a.5.5,0,0,1-.358.148" transform="translate(-20.585 -61.938)" fill="#996e2e"/>
      <path id="Trazado_895224" data-name="Trazado 895224" d="M115.859,25.047a.506.506,0,0,1-.358-.864l2.007-2.008a.506.506,0,0,1,.716.716L116.218,24.9a.5.5,0,0,1-.358.148" transform="translate(-76.418 -14.592)" fill="#996e2e"/>
      <path id="Trazado_895225" data-name="Trazado 895225" d="M93.932,44.658a.506.506,0,0,1-.421-.786h0a.513.513,0,0,1,.063-.077l3.187-3.187a.506.506,0,1,1,.716.716L94.3,44.5a.508.508,0,0,1-.366.155" transform="translate(-61.892 -26.802)" fill="#996e2e"/>
      <path id="Trazado_895226" data-name="Trazado 895226" d="M71.323,69.191a.506.506,0,0,1-.358-.864l2.208-2.208a.506.506,0,0,1,.716.716l-2.208,2.208a.5.5,0,0,1-.358.148" transform="translate(-46.914 -43.703)" fill="#996e2e"/>
      <path id="Trazado_895227" data-name="Trazado 895227" d="M49.364,91.031a.506.506,0,0,1-.358-.864L51.275,87.9a.506.506,0,0,1,.716.716l-2.268,2.269a.5.5,0,0,1-.358.148" transform="translate(-32.367 -58.132)" fill="#996e2e"/>
      <path id="Trazado_895228" data-name="Trazado 895228" d="M31.4,108.42a.506.506,0,0,1-.358-.864L33.6,105a.506.506,0,0,1,.716.716l-2.561,2.561a.5.5,0,0,1-.358.148" transform="translate(-20.466 -69.458)" fill="#996e2e"/>
      <path id="Trazado_895229" data-name="Trazado 895229" d="M118.767,34.153a.506.506,0,0,1-.358-.864l2.007-2.007a.506.506,0,0,1,.716.716l-2.007,2.007a.5.5,0,0,1-.358.148" transform="translate(-78.344 -20.625)" fill="#996e2e"/>
      <path id="Trazado_895230" data-name="Trazado 895230" d="M90.809,59.693a.506.506,0,0,1-.358-.864L93.69,55.59a.506.506,0,0,1,.716.716l-3.239,3.239a.5.5,0,0,1-.358.148" transform="translate(-59.823 -36.728)" fill="#996e2e"/>
      <path id="Trazado_895231" data-name="Trazado 895231" d="M72.949,79.574a.506.506,0,0,1-.358-.864L74.8,76.5a.506.506,0,1,1,.716.716l-2.208,2.207a.5.5,0,0,1-.358.148" transform="translate(-47.991 -50.582)" fill="#996e2e"/>
      <path id="Trazado_895232" data-name="Trazado 895232" d="M50.652,101.752a.506.506,0,0,1-.358-.864l2.269-2.267a.506.506,0,1,1,.716.716L51.011,101.6a.5.5,0,0,1-.358.148" transform="translate(-33.22 -65.235)" fill="#996e2e"/>
      <path id="Trazado_895233" data-name="Trazado 895233" d="M31.224,120.609a.506.506,0,0,1-.358-.864l2.561-2.561a.506.506,0,0,1,.716.716l-2.561,2.561a.5.5,0,0,1-.358.148" transform="translate(-20.35 -77.532)" fill="#996e2e"/>
      <path id="Trazado_895234" data-name="Trazado 895234" d="M118.932,44.323a.506.506,0,0,1-.346-.876l2.849-2.849a.506.506,0,0,1,.716.716l-2.861,2.861a.514.514,0,0,1-.077.063.5.5,0,0,1-.281.085" transform="translate(-78.453 -26.797)" fill="#996e2e"/>
      <path id="Trazado_895235" data-name="Trazado 895235" d="M89.523,74a.506.506,0,0,1-.359-.864l2.717-2.715a.506.506,0,0,1,.786.631.486.486,0,0,1-.063.078l-2.723,2.722a.506.506,0,0,1-.358.149" transform="translate(-58.971 -46.551)" fill="#996e2e"/>
      <path id="Trazado_895236" data-name="Trazado 895236" d="M74.367,90.059a.506.506,0,0,1-.358-.864l2.265-2.265a.506.506,0,0,1,.716.716L74.726,89.91a.5.5,0,0,1-.358.148" transform="translate(-48.931 -57.49)" fill="#996e2e"/>
      <path id="Trazado_895237" data-name="Trazado 895237" d="M51.944,112.475a.506.506,0,0,1-.358-.864l2.268-2.268a.506.506,0,0,1,.716.716L52.3,112.327a.5.5,0,0,1-.358.148" transform="translate(-34.076 -72.338)" fill="#996e2e"/>
      <path id="Trazado_895238" data-name="Trazado 895238" d="M53.235,123.2a.506.506,0,0,1-.358-.864l2.268-2.268a.506.506,0,0,1,.716.716l-2.267,2.268a.5.5,0,0,1-.358.148" transform="translate(-34.931 -79.442)" fill="#996e2e"/>
      <path id="Trazado_895239" data-name="Trazado 895239" d="M75.282,100.967a.506.506,0,0,1-.358-.864l2.361-2.361a.506.506,0,0,1,.716.716l-2.361,2.361a.5.5,0,0,1-.358.148" transform="translate(-49.537 -64.653)" fill="#996e2e"/>
      <path id="Trazado_895240" data-name="Trazado 895240" d="M90,86.237a.506.506,0,0,1-.358-.864l2.366-2.365a.506.506,0,0,1,.716.716l-2.365,2.365a.5.5,0,0,1-.358.148" transform="translate(-59.29 -54.892)" fill="#996e2e"/>
      <path id="Trazado_895241" data-name="Trazado 895241" d="M111.329,61.1a.506.506,0,0,1-.358-.864l4.306-4.3a.506.506,0,1,1,.717.715l-4.306,4.307a.5.5,0,0,1-.358.148" transform="translate(-73.417 -36.956)" fill="#996e2e"/>
      <path id="Trazado_895242" data-name="Trazado 895242" d="M112.873,76.05a.506.506,0,0,1-.358-.864l2.023-2.023a.506.506,0,1,1,.716.716L113.232,75.9a.5.5,0,0,1-.358.148" transform="translate(-74.44 -48.37)" fill="#996e2e"/>
      <path id="Trazado_895243" data-name="Trazado 895243" d="M91.541,97.026a.506.506,0,0,1-.358-.864l2.2-2.2a.506.506,0,0,1,.716.716l-2.2,2.2a.5.5,0,0,1-.358.148" transform="translate(-60.308 -62.146)" fill="#996e2e"/>
      <path id="Trazado_895244" data-name="Trazado 895244" d="M75.883,112.3a.506.506,0,0,1-.358-.864l2.4-2.4a.506.506,0,1,1,.716.716l-2.4,2.4a.5.5,0,0,1-.358.148" transform="translate(-49.935 -72.135)" fill="#996e2e"/>
      <path id="Trazado_895245" data-name="Trazado 895245" d="M116.066,84.975a.506.506,0,0,1-.358-.864l1.97-1.97a.506.506,0,0,1,.716.716l-1.97,1.971a.5.5,0,0,1-.358.148" transform="translate(-76.554 -54.317)" fill="#996e2e"/>
      <path id="Trazado_895246" data-name="Trazado 895246" d="M93.193,107.39a.506.506,0,0,1-.358-.864l2.2-2.2a.506.506,0,0,1,.716.716l-2.2,2.2a.5.5,0,0,1-.358.148" transform="translate(-61.402 -69.012)" fill="#996e2e"/>
      <path id="Trazado_895247" data-name="Trazado 895247" d="M76.482,123.715a.506.506,0,0,1-.358-.864l2.4-2.4a.506.506,0,0,1,.716.716l-2.4,2.4a.5.5,0,0,1-.358.148" transform="translate(-50.331 -79.697)" fill="#996e2e"/>
      <path id="Trazado_895248" data-name="Trazado 895248" d="M117.968,94.288a.506.506,0,0,1-.358-.864l2.377-2.377a.506.506,0,0,1,.716.716l-2.377,2.377a.5.5,0,0,1-.358.148" transform="translate(-77.815 -60.217)" fill="#996e2e"/>
      <path id="Trazado_895249" data-name="Trazado 895249" d="M94.846,117.75a.506.506,0,0,1-.358-.864l2.2-2.2a.506.506,0,0,1,.716.716l-2.2,2.2a.5.5,0,0,1-.358.148" transform="translate(-62.497 -75.875)" fill="#996e2e"/>
      <path id="Trazado_895250" data-name="Trazado 895250" d="M116.012,107.107a.506.506,0,0,1-.358-.864l2.963-2.962a.506.506,0,0,1,.716.716l-2.963,2.963a.5.5,0,0,1-.358.148" transform="translate(-76.519 -68.322)" fill="#996e2e"/>
      <path id="Trazado_895251" data-name="Trazado 895251" d="M114.057,121.072a.506.506,0,0,1-.358-.864l2.963-2.962a.506.506,0,0,1,.716.716l-2.962,2.963a.5.5,0,0,1-.358.148" transform="translate(-75.224 -77.573)" fill="#996e2e"/>
      <path id="Trazado_895252" data-name="Trazado 895252" d="M11.557,104.7a.506.506,0,0,1-.358-.864l2.325-2.324a.506.506,0,0,1,.716.716l-2.324,2.325a.5.5,0,0,1-.358.148" transform="translate(-7.321 -67.151)" fill="#996e2e"/>
      <path id="Trazado_895253" data-name="Trazado 895253" d="M9.909,94.8a.506.506,0,0,1-.358-.864l2.089-2.089a.506.506,0,0,1,.716.716l-2.089,2.089a.5.5,0,0,1-.358.148" transform="translate(-6.229 -60.747)" fill="#996e2e"/>
      <path id="Trazado_895254" data-name="Trazado 895254" d="M7.563,85.135a.506.506,0,0,1-.358-.864l2.089-2.089a.506.506,0,0,1,.716.716L7.922,84.987a.5.5,0,0,1-.358.148" transform="translate(-4.675 -54.345)" fill="#996e2e"/>
      <path id="Trazado_895255" data-name="Trazado 895255" d="M5.4,73.634a.506.506,0,0,1-.358-.864l2.929-2.929a.506.506,0,0,1,.716.716L5.761,73.486a.5.5,0,0,1-.358.148" transform="translate(-3.244 -46.169)" fill="#996e2e"/>
      <path id="Trazado_895256" data-name="Trazado 895256" d="M7.765,58.3a.506.506,0,0,1-.358-.864l3.418-3.417a.506.506,0,1,1,.717.715L8.124,58.151a.5.5,0,0,1-.358.149" transform="translate(-4.809 -35.687)" fill="#996e2e"/>
      <path id="Trazado_895257" data-name="Trazado 895257" d="M11.525,43.991a.506.506,0,0,1-.358-.864l2.672-2.673a.506.506,0,1,1,.716.716l-2.672,2.673a.5.5,0,0,1-.358.148" transform="translate(-7.3 -26.701)" fill="#996e2e"/>
      <path id="Trazado_895258" data-name="Trazado 895258" d="M11.647,32.47a.506.506,0,0,1-.358-.864l2.361-2.359a.506.506,0,1,1,.716.716L12,32.321a.5.5,0,0,1-.358.148" transform="translate(-7.38 -19.276)" fill="#996e2e"/>
      <path id="Trazado_895259" data-name="Trazado 895259" d="M10.84,21.264a.506.506,0,0,1-.358-.864l2.359-2.36a.506.506,0,0,1,.716.716L11.2,21.116a.5.5,0,0,1-.358.148" transform="translate(-6.846 -11.853)" fill="#996e2e"/>
      <path id="Trazado_895260" data-name="Trazado 895260" d="M10.033,10.06A.506.506,0,0,1,9.675,9.2l2.359-2.359a.506.506,0,0,1,.716.716l-2.359,2.36a.5.5,0,0,1-.358.148" transform="translate(-6.312 -4.43)" fill="#996e2e"/>
      <path id="Trazado_895261" data-name="Trazado 895261" d="M11,116.65a.506.506,0,0,1-.358-.864l2.643-2.643a.506.506,0,1,1,.716.716L11.357,116.5a.5.5,0,0,1-.358.148" transform="translate(-6.951 -74.855)" fill="#996e2e"/>
    </g>
  </g>
</svg>
