<svg id="Grupo_1124445" data-name="Grupo 1124445" xmlns="http://www.w3.org/2000/svg" xmlns:xlink="http://www.w3.org/1999/xlink" width="50" height="50" viewBox="0 0 50 50">
  <defs>
    <clipPath id="clip-path">
      <rect id="Rectángulo_413384" data-name="Rectángulo 413384" width="50" height="50" fill="#996e2e"/>
    </clipPath>
  </defs>
  <g id="Grupo_1124444" data-name="Grupo 1124444" clip-path="url(#clip-path)">
    <path id="Trazado_895262" data-name="Trazado 895262" d="M3.125,34.375H8.256L5.847,36.784A3.113,3.113,0,0,0,7.9,42.1a3.118,3.118,0,0,0,5.32,2.049l2.409-2.409v5.131A3.125,3.125,0,0,0,18.75,50h12.5a3.125,3.125,0,0,0,3.125-3.125V41.749l2.407,2.407A3.111,3.111,0,0,0,42.1,42.112a3.118,3.118,0,0,0,2.05-5.325l-2.412-2.411h5.136A3.125,3.125,0,0,0,50,31.25V18.75a3.125,3.125,0,0,0-3.125-3.125H41.744l2.41-2.409A3.111,3.111,0,0,0,42.108,7.9a3.117,3.117,0,0,0-5.324-2.05L34.375,8.256V3.125A3.125,3.125,0,0,0,31.25,0H18.75a3.125,3.125,0,0,0-3.125,3.125V8.26L13.214,5.849A3.113,3.113,0,0,0,7.894,7.9a3.111,3.111,0,0,0-2.05,5.319l2.407,2.408H3.125A3.125,3.125,0,0,0,0,18.75v12.5A3.125,3.125,0,0,0,3.125,34.375Zm12.5-6.25H2.083V26.042H15.625Zm0-4.167H2.083V21.875H15.625ZM2.083,31.25V30.208H15.625v2.083H3.125A1.042,1.042,0,0,1,2.083,31.25M7.32,38.257,11.2,34.375h2.95L8.795,39.732A1.043,1.043,0,1,1,7.32,38.257m4.423,4.423a1.043,1.043,0,0,1-1.475-1.475l5.357-5.357V38.8Zm12.215,5.237H21.875V2.083h2.083ZM26.042,2.083h2.083V47.917H26.042Zm8.333,23.959H47.917v2.083H34.375Zm13.542-2.084H34.375V21.875H47.917ZM39.73,42.682a1.058,1.058,0,0,1-1.475,0L34.375,38.8v-2.95l5.354,5.354a1.041,1.041,0,0,1,0,1.473l0,0m2.947-4.423a1.042,1.042,0,0,1,0,1.473l0,0a1.06,1.06,0,0,1-1.475,0l-5.359-5.361h2.95Zm4.2-5.968h-12.5V30.208H47.917V31.25a1.042,1.042,0,0,1-1.042,1.042M47.917,18.75v1.042H34.375V17.708h12.5a1.042,1.042,0,0,1,1.042,1.042M42.979,11a1.03,1.03,0,0,1-.3.743L38.8,15.625h-2.95l5.357-5.357a1.041,1.041,0,0,1,1.473,0l0,0A1.03,1.03,0,0,1,42.979,11ZM38.257,7.32a1.043,1.043,0,1,1,1.475,1.475l-5.357,5.357V11.2ZM32.292,3.125v43.75a1.042,1.042,0,0,1-1.042,1.042H30.208V2.083H31.25a1.042,1.042,0,0,1,1.042,1.042m-14.583,0A1.042,1.042,0,0,1,18.75,2.083h1.042V47.917H18.75a1.042,1.042,0,0,1-1.042-1.042Zm-7.444,4.2a1.041,1.041,0,0,1,1.473,0l0,0,3.884,3.884v2.95L10.264,8.8a1.042,1.042,0,0,1,0-1.473h0M7.317,11.745A1.043,1.043,0,1,1,8.791,10.27l5.355,5.355H11.2ZM3.125,17.708h12.5v2.083H2.083V18.75a1.042,1.042,0,0,1,1.042-1.042" fill="#996e2e"/>
  </g>
</svg>
