<svg xmlns="http://www.w3.org/2000/svg" xmlns:xlink="http://www.w3.org/1999/xlink" width="97.226" height="100.58" viewBox="0 0 97.226 100.58">
  <defs>
    <clipPath id="clip-path">
      <rect id="Rect치ngulo_413430" data-name="Rect치ngulo 413430" width="97.226" height="100.58" fill="none"/>
    </clipPath>
  </defs>
  <g id="Grupo_1124559" data-name="Grupo 1124559" transform="translate(97.226 100.58) rotate(180)">
    <rect id="Rect치ngulo_413429" data-name="Rect치ngulo 413429" width="55.318" height="70.405" transform="translate(1.676 3.353)" fill="#ff9801"/>
    <g id="Grupo_1124558" data-name="Grupo 1124558">
      <g id="Grupo_1124557" data-name="Grupo 1124557" clip-path="url(#clip-path)">
        <path id="Trazado_895384" data-name="Trazado 895384" d="M88.845,62.024a8.373,8.373,0,0,0-6.881,3.617A55.353,55.353,0,0,0,73.8,61.367L58.671,46.243V3.353A1.676,1.676,0,0,0,57,1.677H40.232a1.676,1.676,0,0,0-3.353,0H21.792a1.676,1.676,0,0,0-3.353,0H1.677A1.677,1.677,0,0,0,0,3.353V73.759a1.676,1.676,0,0,0,1.677,1.676H18.439a1.676,1.676,0,1,0,3.353,0H36.879v1.677A23.464,23.464,0,0,0,83.705,79.3a4.9,4.9,0,0,0,1.484.267A4.235,4.235,0,0,0,88.256,78.2c3.555-3.555-.75-7.862-2.37-9.482-.376-.375-.791-.74-1.221-1.1a5.026,5.026,0,0,1,9.209,2.789V98.9a1.676,1.676,0,0,0,3.353,0v-28.5A8.392,8.392,0,0,0,88.845,62.024Zm-8.217,6.752a8.37,8.37,0,0,0-.165,1.63v2.318A34.051,34.051,0,0,1,76.3,66.241,42.526,42.526,0,0,1,80.628,68.776ZM21.792,72.082V68.73a1.676,1.676,0,0,0-3.353,0v3.353H3.353V5.03H18.439V8.382a1.676,1.676,0,0,0,3.353,0V5.03H36.879V8.382a1.676,1.676,0,0,0,3.353,0V5.03H55.318V42.891L39.741,27.313a1.676,1.676,0,0,0-2.37,2.37L55.318,47.632v24.45H40.232a1.676,1.676,0,0,0-3.353,0ZM60.347,97.227A20.138,20.138,0,0,1,40.232,77.111V75.435H57a1.676,1.676,0,0,0,1.676-1.676V50.985L71.425,63.738c.647,1.547,3.628,8.369,7.347,12.089.406.406.989.981,1.677,1.559a20.131,20.131,0,0,1-20.1,19.841m25.538-21.4c-.218.219-.689.678-2.069-.145V71.4c3.19,3.29,2.384,4.117,2.069,4.43" transform="translate(0 0)"/>
        <path id="Trazado_895385" data-name="Trazado 895385" d="M35.056,24.276a1.676,1.676,0,0,0-1.676,1.676v6.705a1.676,1.676,0,1,0,3.352,0V25.952a1.676,1.676,0,0,0-1.676-1.676" transform="translate(-14.94 -10.865)"/>
        <path id="Trazado_895386" data-name="Trazado 895386" d="M35.056,48.552a1.676,1.676,0,0,0-1.676,1.676v6.705a1.676,1.676,0,1,0,3.352,0V50.228a1.676,1.676,0,0,0-1.676-1.676" transform="translate(-14.94 -21.731)"/>
        <path id="Trazado_895387" data-name="Trazado 895387" d="M35.056,72.828A1.676,1.676,0,0,0,33.38,74.5v6.705a1.676,1.676,0,1,0,3.352,0V74.5a1.676,1.676,0,0,0-1.676-1.676" transform="translate(-14.94 -32.596)"/>
        <path id="Trazado_895388" data-name="Trazado 895388" d="M35.056,97.1A1.676,1.676,0,0,0,33.38,98.78v6.705a1.676,1.676,0,1,0,3.352,0V98.78A1.676,1.676,0,0,0,35.056,97.1" transform="translate(-14.94 -43.462)"/>
        <path id="Trazado_895389" data-name="Trazado 895389" d="M68.435,34.334a1.676,1.676,0,0,0,1.676-1.676V25.953a1.676,1.676,0,1,0-3.352,0v6.705a1.676,1.676,0,0,0,1.676,1.676" transform="translate(-29.88 -10.865)"/>
      </g>
    </g>
  </g>
</svg>
