<svg xmlns="http://www.w3.org/2000/svg" xmlns:xlink="http://www.w3.org/1999/xlink" width="87.49" height="94.189" viewBox="0 0 87.49 94.189">
  <defs>
    <clipPath id="clip-path">
      <rect id="Rectángulo_411878" data-name="Rectángulo 411878" width="87.49" height="94.189" fill="none"/>
    </clipPath>
  </defs>
  <g id="Grupo_1121710" data-name="Grupo 1121710" transform="translate(8.622)">
    <g id="Grupo_1121709" data-name="Grupo 1121709" transform="translate(-8.622)" clip-path="url(#clip-path)">
      <path id="Trazado_890757" data-name="Trazado 890757" d="M49.5,97.918H6.623A6.631,6.631,0,0,1,0,91.295V17.552a6.631,6.631,0,0,1,6.623-6.623H49.5a6.631,6.631,0,0,1,6.623,6.623V91.295A6.631,6.631,0,0,1,49.5,97.918M6.623,14.223a3.333,3.333,0,0,0-3.329,3.329V91.295a3.333,3.333,0,0,0,3.329,3.329H49.5a3.333,3.333,0,0,0,3.329-3.329V17.552A3.333,3.333,0,0,0,49.5,14.223Z" transform="translate(0 -3.729)" fill="#151418"/>
      <path id="Trazado_890758" data-name="Trazado 890758" d="M47.345,1.591H22.222a2.515,2.515,0,0,0-2.515,2.515V8.194a2.515,2.515,0,0,0,2.515,2.515H47.345a2.515,2.515,0,0,0,2.515-2.515V4.106a2.515,2.515,0,0,0-2.515-2.515" transform="translate(-6.724 -0.543)" fill="#151418"/>
      <path id="Trazado_890759" data-name="Trazado 890759" d="M47.205,42.3H22.555a2.565,2.565,0,0,1-2.564-2.564V33.727a2.564,2.564,0,0,1,2.564-2.564h24.65a2.564,2.564,0,0,1,2.564,2.564v6.005A2.564,2.564,0,0,1,47.205,42.3" transform="translate(-6.821 -10.633)" fill="#fff"/>
      <path id="Trazado_890760" data-name="Trazado 890760" d="M47.205,67.324H22.555a2.564,2.564,0,0,1-2.564-2.564V58.755a2.564,2.564,0,0,1,2.564-2.564h24.65a2.564,2.564,0,0,1,2.564,2.564V64.76a2.564,2.564,0,0,1-2.564,2.564" transform="translate(-6.821 -19.172)" fill="#fff"/>
      <path id="Trazado_890761" data-name="Trazado 890761" d="M47.205,92.351H22.555a2.564,2.564,0,0,1-2.564-2.564V83.782a2.564,2.564,0,0,1,2.564-2.564h24.65a2.564,2.564,0,0,1,2.564,2.564v6.005a2.564,2.564,0,0,1-2.564,2.564" transform="translate(-6.821 -27.711)" fill="#fff"/>
      <path id="Trazado_890762" data-name="Trazado 890762" d="M47.205,117.378H22.555a2.564,2.564,0,0,1-2.564-2.564v-6.005a2.564,2.564,0,0,1,2.564-2.564h24.65a2.564,2.564,0,0,1,2.564,2.564v6.005a2.564,2.564,0,0,1-2.564,2.564" transform="translate(-6.821 -36.25)" fill="#ffb74d"/>
      <path id="Trazado_890763" data-name="Trazado 890763" d="M92.586,2.5V28.144h10.422a1.863,1.863,0,0,1,1.318,3.181L83.052,52.6a3.856,3.856,0,0,1-5.454,0L56.325,31.325a1.863,1.863,0,0,1,1.318-3.181H68.065V2.5Z" transform="translate(-19.03 -0.853)" fill="#3bf2d6"/>
      <path id="Trazado_890764" data-name="Trazado 890764" d="M65.566,0H93.381V25.644h8.775a3.51,3.51,0,0,1,2.482,5.993L83.364,52.91a5.51,5.51,0,0,1-7.782,0L54.309,31.637a3.51,3.51,0,0,1,2.482-5.993h8.775Zm24.52,3.294H68.86V28.938H56.791a.216.216,0,0,0-.153.369L77.911,50.581a2.212,2.212,0,0,0,3.124,0l21.274-21.274a.216.216,0,0,0-.154-.369H90.087Z" transform="translate(-18.178)" fill="#151418"/>
    </g>
  </g>
</svg>
