<svg xmlns="http://www.w3.org/2000/svg" xmlns:xlink="http://www.w3.org/1999/xlink" width="107.578" height="107.578" viewBox="0 0 107.578 107.578">
  <defs>
    <clipPath id="clip-path">
      <rect id="Rectángulo_413422" data-name="Rectángulo 413422" width="113.132" height="39.006" fill="none"/>
    </clipPath>
    <clipPath id="clip-path-2">
      <rect id="Rectángulo_413419" data-name="Rectángulo 413419" width="44.966" height="34.67" fill="none"/>
    </clipPath>
    <clipPath id="clip-path-3">
      <rect id="Rectángulo_413420" data-name="Rectángulo 413420" width="44.967" height="34.67" fill="none"/>
    </clipPath>
    <clipPath id="clip-path-4">
      <rect id="Rectángulo_413421" data-name="Rectángulo 413421" width="28.578" height="16.594" fill="none"/>
    </clipPath>
  </defs>
  <g id="Grupo_1124547" data-name="Grupo 1124547" transform="translate(0 79.997) rotate(-45)">
    <g id="Grupo_1124546" data-name="Grupo 1124546" transform="translate(0 0)" clip-path="url(#clip-path)">
      <g id="Grupo_1124539" data-name="Grupo 1124539" transform="translate(66.816 2.661)" style="isolation: isolate">
        <g id="Grupo_1124538" data-name="Grupo 1124538">
          <g id="Grupo_1124537" data-name="Grupo 1124537" clip-path="url(#clip-path-2)">
            <path id="Trazado_895356" data-name="Trazado 895356" d="M115.189,38.156h-10.3a17.335,17.335,0,0,1,0-34.67h10.3a17.335,17.335,0,0,1,0,34.67" transform="translate(-87.557 -3.486)" fill="#9e9e9e"/>
          </g>
        </g>
      </g>
      <g id="Grupo_1124542" data-name="Grupo 1124542" transform="translate(2.985 2.661)" style="isolation: isolate">
        <g id="Grupo_1124541" data-name="Grupo 1124541">
          <g id="Grupo_1124540" data-name="Grupo 1124540" clip-path="url(#clip-path-3)">
            <path id="Trazado_895357" data-name="Trazado 895357" d="M31.543,38.156h-10.3a17.335,17.335,0,1,1,0-34.67h10.3a17.335,17.335,0,1,1,0,34.67" transform="translate(-3.911 -3.486)" fill="#9e9e9e"/>
          </g>
        </g>
      </g>
      <g id="Grupo_1124545" data-name="Grupo 1124545" transform="translate(42.277 11.191)" style="isolation: isolate">
        <g id="Grupo_1124544" data-name="Grupo 1124544">
          <g id="Grupo_1124543" data-name="Grupo 1124543" clip-path="url(#clip-path-4)">
            <path id="Trazado_895358" data-name="Trazado 895358" d="M76.637,31.259h-13.9a7.34,7.34,0,0,1-7.34-7.34V22a7.34,7.34,0,0,1,7.34-7.34h13.9A7.34,7.34,0,0,1,83.977,22v1.915a7.34,7.34,0,0,1-7.34,7.34" transform="translate(-55.4 -14.665)" fill="#ff9801"/>
          </g>
        </g>
      </g>
      <path id="Trazado_895359" data-name="Trazado 895359" d="M48.845,31.989a3.124,3.124,0,0,1,2.318-1.245c1.937-.036,3.9-.034,5.807-.034,1.58,0,3.168,0,4.753-.018h.06a2.963,2.963,0,0,1,2.658,1.42,14.589,14.589,0,0,0,12.273,6.8c7.872.159,15.673.092,21.589.017a15,15,0,0,0,14.534-12.9,65.523,65.523,0,0,0,.277-8.532c-.008-.707-.015-1.415-.018-2.119A15.247,15.247,0,0,0,97.806.034C91.684,0,84.45-.025,77.226.041A14.994,14.994,0,0,0,64.368,6.957a2.7,2.7,0,0,1-2.5,1.328c-3.838-.037-7.283-.037-10.53,0a2.9,2.9,0,0,1-2.613-1.371A15.094,15.094,0,0,0,35.84.034c-2.33-.03-4.7-.023-7-.014-1.01,0-2.019.006-3.029.006a1.112,1.112,0,0,1-.124.007Q24,.033,22.317.023C19.881.014,17.362,0,14.89.044A15.082,15.082,0,0,0,.292,12.885a61.74,61.74,0,0,0-.279,8.093c.007.768.014,1.537.013,2.3A15.311,15.311,0,0,0,15.633,38.95q9.974.025,19.948,0a15.308,15.308,0,0,0,13.265-6.961m22.2-3.146a12.616,12.616,0,0,0,4.275-5.295c.414-.953,1.7-1.062,2.237-1.065,2.416-.011,4.83-.011,7.247-.01,2.905,0,5.81,0,8.716-.018a3.15,3.15,0,0,0,2.692-1.444,2.789,2.789,0,0,0,.13-2.74,2.911,2.911,0,0,0-2.894-1.76h-4.9c-3.6,0-7.205,0-10.809.019a2.817,2.817,0,0,1-2.732-1.578,45.043,45.043,0,0,0-2.619-3.7c-.406-.536-.821-1.084-1.238-1.652A1.145,1.145,0,0,1,71.3,8.078,8.182,8.182,0,0,1,76.831,6c7.164-.041,14.182-.072,21.261,0a9.289,9.289,0,0,1,9.044,9.053c.067,2.817.068,5.78,0,8.807a9.224,9.224,0,0,1-9.132,9.107c-3.117.03-6.269.04-9.373.04-4.07,0-8.053-.018-11.757-.035a8.9,8.9,0,0,1-5.9-2.342,1.145,1.145,0,0,1,.07-1.8M16.883,20.961a3.188,3.188,0,0,0,2.773,1.5c3.658.023,7.315.018,10.971.012l6,0a1.145,1.145,0,0,1,1.126,1.354l4.232,5.5a1.145,1.145,0,0,1-.118,1.528,8.05,8.05,0,0,1-5.545,2.128c-3.7.024-7.683.05-11.757.05-3.185,0-6.427-.016-9.639-.06a9.236,9.236,0,0,1-8.941-9.015c-.073-3.046-.072-6.055,0-8.942a9.291,9.291,0,0,1,9.1-9c7.2-.069,14.6-.037,21.132-.006a8.563,8.563,0,0,1,5.624,2.091,1.145,1.145,0,0,1,.151,1.558l-4.937,6.419a1.145,1.145,0,0,1-.907.447H31.78c-3.89,0-7.959,0-12.028,0H19.74a2.954,2.954,0,0,0-2.89,1.615,2.829,2.829,0,0,0,.032,2.837m26.177-1.435a5.125,5.125,0,0,1,1.462-3.684,5.738,5.738,0,0,1,4.119-1.616q7.92-.017,15.84,0a5.739,5.739,0,0,1,4.12,1.624,5.125,5.125,0,0,1,1.464,3.678c-.023,3.013-2.4,5.21-5.646,5.224q-1.537.006-3.074.005l-2.458,0h-4.83c-1.784,0-3.569,0-5.354,0-3.249-.015-5.623-2.214-5.644-5.227" transform="translate(0 0)"/>
    </g>
  </g>
</svg>
