<svg id="Grupo_1124955" data-name="Grupo 1124955" xmlns="http://www.w3.org/2000/svg" xmlns:xlink="http://www.w3.org/1999/xlink" width="89.378" height="89.386" viewBox="0 0 89.378 89.386">
  <defs>
    <clipPath id="clip-path">
      <rect id="Rectángulo_413642" data-name="Rectángulo 413642" width="89.379" height="89.386" fill="none"/>
    </clipPath>
  </defs>
  <g id="Grupo_1124954" data-name="Grupo 1124954" clip-path="url(#clip-path)">
    <path id="Trazado_896312" data-name="Trazado 896312" d="M88.745,43.889l-6.577-3.911a37.847,37.847,0,0,0-.923-4.854l4.646-6.042a1.3,1.3,0,0,0-.845-2.074l-7.541-1.076a37.982,37.982,0,0,0-2.747-4.151l1.961-7.343a1.284,1.284,0,0,0-.223-1.122,1.307,1.307,0,0,0-1.354-.468l-7.35,1.9a38.04,38.04,0,0,0-4.162-2.807L62.622,4.446a1.3,1.3,0,0,0-1.289-1.125,1.284,1.284,0,0,0-.778.263L54.529,8.142a37.907,37.907,0,0,0-4.963-.99L45.766.643a1.3,1.3,0,0,0-2.239,0l-3.8,6.508a37.965,37.965,0,0,0-3.817.7L30.061,3.127a1.28,1.28,0,0,0-.811-.289,1.3,1.3,0,0,0-1.283,1.084l-1.241,7.422a38.019,38.019,0,0,0-4.308,2.714L15.2,11.946a1.3,1.3,0,0,0-.369-.053h0a1.3,1.3,0,0,0-1.258,1.592l1.711,7.339a37.993,37.993,0,0,0-2.936,4.152L4.874,25.8a1.3,1.3,0,0,0-.91,2.046l4.4,6.121a37.7,37.7,0,0,0-1.1,4.949L.67,42.562A1.3,1.3,0,0,0,.616,44.8l6.446,3.973a37.969,37.969,0,0,0,.877,4.956L3.233,59.65a1.3,1.3,0,0,0,.811,2.088l7.5,1.193a38.063,38.063,0,0,0,2.7,4.2L12.17,74.439a1.283,1.283,0,0,0,.211,1.134,1.3,1.3,0,0,0,1.34.481l7.424-1.793a38.024,38.024,0,0,0,4.064,2.817l.9,7.576A1.3,1.3,0,0,0,27.4,85.8a1.283,1.283,0,0,0,.762-.252l6.177-4.519a37.77,37.77,0,0,0,4.808,1.023L42.9,88.726a1.3,1.3,0,0,0,2.239.035l3.98-6.574a37.8,37.8,0,0,0,4.808-.884l6.041,4.723a1.3,1.3,0,0,0,2.081-.829l1.148-7.6a38.062,38.062,0,0,0,4.083-2.663l7.406,2.041a1.3,1.3,0,0,0,1.368-.454,1.286,1.286,0,0,0,.234-1.11l-1.865-7.462a38.071,38.071,0,0,0,2.755-4.028l7.612-.963a1.3,1.3,0,0,0,.878-2.061L81.09,54.74a37.87,37.87,0,0,0,1-4.8l6.642-3.808a1.3,1.3,0,0,0,.018-2.239m-8.564,5.7a35.919,35.919,0,0,1-.974,4.7,1.783,1.783,0,0,0,.285,1.534l3.973,5.341-6.608.836a1.784,1.784,0,0,0-1.3.857,36.138,36.138,0,0,1-2.7,3.946,1.76,1.76,0,0,0-.327,1.526l1.62,6.48-6.431-1.772a1.792,1.792,0,0,0-1.536.293,36.049,36.049,0,0,1-4,2.608,1.762,1.762,0,0,0-.885,1.281l-1,6.6-5.244-4.1a1.79,1.79,0,0,0-1.529-.322,35.852,35.852,0,0,1-4.708.866,1.762,1.762,0,0,0-1.313.843l-3.456,5.708-3.259-5.792a1.786,1.786,0,0,0-1.292-.886,35.759,35.759,0,0,1-4.708-1,1.774,1.774,0,0,0-1.532.274L27.9,83.343l-.778-6.571a1.785,1.785,0,0,0-.851-1.313A36.043,36.043,0,0,1,22.29,72.7a1.8,1.8,0,0,0-1.521-.337l-6.44,1.555,1.8-6.338a1.784,1.784,0,0,0-.283-1.543A35.995,35.995,0,0,1,13.2,61.928a1.761,1.761,0,0,0-1.274-.895L5.426,60,9.5,54.871a1.784,1.784,0,0,0,.332-1.531,35.873,35.873,0,0,1-.858-4.849,1.783,1.783,0,0,0-.832-1.321L2.56,43.727l5.713-3.156a1.782,1.782,0,0,0,.9-1.289,35.735,35.735,0,0,1,1.075-4.842,1.785,1.785,0,0,0-.26-1.538L6.171,27.6l6.468-.714a1.782,1.782,0,0,0,1.321-.842,36.08,36.08,0,0,1,2.873-4.063,1.784,1.784,0,0,0,.353-1.523L15.7,14.108l6.246,1.828a1.78,1.78,0,0,0,1.544-.27,36,36,0,0,1,4.215-2.656,1.782,1.782,0,0,0,.91-1.269l1.074-6.425L34.755,9.4a1.794,1.794,0,0,0,1.525.345A35.775,35.775,0,0,1,40.05,9.06,1.785,1.785,0,0,0,41.355,8.2L44.646,2.56,47.936,8.2a1.786,1.786,0,0,0,1.306.865,35.791,35.791,0,0,1,4.856.968,1.8,1.8,0,0,0,1.535-.3l5.218-3.947.874,6.491a1.784,1.784,0,0,0,.868,1.3,36.119,36.119,0,0,1,4.074,2.748,1.8,1.8,0,0,0,1.532.317l6.37-1.646-1.7,6.366a1.783,1.783,0,0,0,.3,1.533,36.006,36.006,0,0,1,2.689,4.064,1.784,1.784,0,0,0,1.291.879l6.539.934-4.03,5.24a1.786,1.786,0,0,0-.31,1.529,35.762,35.762,0,0,1,.9,4.752,1.784,1.784,0,0,0,.854,1.31l5.707,3.394-5.764,3.3a1.781,1.781,0,0,0-.874,1.3" transform="translate(0)" fill="#12263f"/>
    <path id="Trazado_896313" data-name="Trazado 896313" d="M49.423,133.553c4.174-2.519,7.526-4.6,10.552-6.537.54-.346.826-.629.244-1.632a16.4,16.4,0,0,1-1.652-13.279c.313-1.074.043-1.58-1.031-1.934-3.443-1.131-6.984-2.278-10.523-3.407-1.115-.356-1.611-.1-1.966,1.01a35.494,35.494,0,0,0-1.536,9.065c.069.589.13,1.179.191,1.769.136,1.321.278,2.687.505,4a29.147,29.147,0,0,0,3.956,10.274c.426.694.85.921,1.261.673m-2.559-23.136.23-1.038,8.663,2.8-.048.75c-.382,6.033-.382,6.033,1.481,12.238l.192.64-.531.406-.1.081a4.046,4.046,0,0,1-.385.284c-1.486.933-2.973,1.864-4.5,2.82l-2.144,1.342-.475-.952a28.167,28.167,0,0,1-2.38-19.369" transform="translate(-29.488 -72.256)" fill="#12263f"/>
    <path id="Trazado_896314" data-name="Trazado 896314" d="M174.176,140.234a16.01,16.01,0,0,1-6.407,11.348c-.879.685-.947,1.233-.27,2.171,2.162,2.992,4.333,5.982,6.454,8.887a1.779,1.779,0,0,0,1.045.822,1.828,1.828,0,0,0,1.259-.513A30.429,30.429,0,0,0,188.4,140.824a1.456,1.456,0,0,0-.276-1.1,1.36,1.36,0,0,0-.947-.422c-2.6-.2-5.249-.376-7.81-.549q-1.572-.106-3.145-.214l-.063-.006a3.627,3.627,0,0,0-.487-.036,1.443,1.443,0,0,0-.908.248,2.129,2.129,0,0,0-.583,1.487m2.3,1.654.166-.833,9.241.629-.17,1.048a28.075,28.075,0,0,1-9.453,17.077l-.8.708-5.452-7.5.623-.584a19.067,19.067,0,0,0,5.843-10.541" transform="translate(-113.212 -93.867)" fill="#12263f"/>
    <path id="Trazado_896315" data-name="Trazado 896315" d="M88.326,179.717c-2.355,3.23-4.449,6.114-6.4,8.817a1.818,1.818,0,0,0-.469,1.252,1.857,1.857,0,0,0,.872,1.05,31.04,31.04,0,0,0,18.108,5.6c.181-.013.4-.025.641-.038.685-.038,1.623-.09,2.526-.2a32.892,32.892,0,0,0,3.408-.631,1.639,1.639,0,0,0,1.074-.605,1.594,1.594,0,0,0,.057-1.2c-.806-3.307-1.7-6.875-2.727-10.909-.253-.99-.723-1.275-1.733-1.057a16.452,16.452,0,0,1-13.06-2.478,2.112,2.112,0,0,0-1.106-.451c-.418,0-.767.277-1.189.856m1.378,2.189.713.3c5.776,2.414,5.775,2.414,12.127,2.37l.76-.005.473,1.893c.194.778.39,1.562.587,2.347.206.82.413,1.639.631,2.5l.53,2.1-1.049.163a30.282,30.282,0,0,1-4.652.368,28.307,28.307,0,0,1-14.5-4.063l-.916-.533Z" transform="translate(-55.197 -121.221)" fill="#12263f"/>
    <path id="Trazado_896316" data-name="Trazado 896316" d="M90.086,45.372a1.941,1.941,0,0,0-.375-1.379,1.68,1.68,0,0,0-1.17-.321l-.136,0A30.406,30.406,0,0,0,65.884,54.092c-.525.585-.783,1.024-.766,1.3s.3.643.837,1.115c2.425,2.121,4.934,4.234,7.361,6.277l.918.773c1.008.849,1.475.813,2.379-.182A16.292,16.292,0,0,1,88.6,57.865c1.046-.031,1.476-.469,1.483-1.514.009-1.3.007-2.6,0-3.9l0-1.677V49.121q0-1.875,0-3.749M87.569,55.394l-.843.109a19.017,19.017,0,0,0-10.877,5.1l-.626.582-7.1-5.966.756-.746a28.068,28.068,0,0,1,17.633-8.244l1.061-.1Z" transform="translate(-44.133 -29.598)" fill="#12263f"/>
    <path id="Trazado_896317" data-name="Trazado 896317" d="M161.746,50.5a2.064,2.064,0,0,0-.788-.186,1.05,1.05,0,0,0-.4.073,1.484,1.484,0,0,0-.747.878c-1.486,3.628-2.914,7.164-4.244,10.511-.3.755-.271,1.33.8,1.855.152.075.306.149.46.223a18.82,18.82,0,0,1,1.816.958,16.118,16.118,0,0,1,6.821,8.468c.355,1,.719,1.2,1.376,1.221l.063-.01a3.293,3.293,0,0,0,.448-.1l1.586-.512c3.016-.974,6.135-1.981,9.192-3a1.509,1.509,0,0,0,.94-.668,1.654,1.654,0,0,0-.051-1.2A30.4,30.4,0,0,0,161.746,50.5m14.667,18.362-8.827,2.878-.364-.772a19.193,19.193,0,0,0-8.233-8.83l-.741-.417,3.468-8.588.942.484a28.1,28.1,0,0,1,13.326,14.269Z" transform="translate(-105.323 -34.097)" fill="#12263f"/>
    <path id="Trazado_896318" data-name="Trazado 896318" d="M117.666,107.361h-.021a10.032,10.032,0,0,0,.021,20.065h.006a10.032,10.032,0,0,0-.006-20.065m.056,17.6h-.039a7.564,7.564,0,1,1-.005-15.128h0a7.564,7.564,0,0,1,.04,15.128" transform="translate(-72.956 -72.763)" fill="#12263f"/>
  </g>
</svg>
