<svg id="Grupo_1124564" data-name="Grupo 1124564" xmlns="http://www.w3.org/2000/svg" xmlns:xlink="http://www.w3.org/1999/xlink" width="124.082" height="118.736" viewBox="0 0 124.082 118.736">
  <defs>
    <clipPath id="clip-path">
      <rect id="Rect치ngulo_413432" data-name="Rect치ngulo 413432" width="124.082" height="118.736" fill="none"/>
    </clipPath>
    <clipPath id="clip-path-2">
      <rect id="Rect치ngulo_413431" data-name="Rect치ngulo 413431" width="29.099" height="54.745" fill="none"/>
    </clipPath>
  </defs>
  <g id="Grupo_1124563" data-name="Grupo 1124563" clip-path="url(#clip-path)">
    <path id="Trazado_895390" data-name="Trazado 895390" d="M100.344,97.632c-.331,1.427-1.349,1.722-2.651,1.719-9.852-.019-19.7.005-29.554-.034-.986,0-1.273.2-1.264,1.232.056,6.095.029,12.191.025,18.286a3.089,3.089,0,0,1-.2,1.541,1.732,1.732,0,0,1-1.668,1,1.713,1.713,0,0,1-1.585-1.121,3.888,3.888,0,0,1-.18-1.55c0-6.1-.036-12.191.032-18.286.013-1.1-.466-1.093-1.264-1.1s-1.261.022-1.254,1.108c.056,8.355.032,16.712.031,25.068,0,.363.022.729-.014,1.09a1.852,1.852,0,0,1-1.861,1.848,1.812,1.812,0,0,1-1.752-1.936c-.033-2.22-.012-4.441-.012-6.66,0-6.378-.025-12.756.024-19.134.008-1.059-.2-1.4-1.348-1.393-13.767.046-27.535-.014-41.3.064-2.965.017-5.3-1.564-5.156-5.194A51.237,51.237,0,0,0,7.76,77.518a56.181,56.181,0,0,0-3.285-8.294A46.471,46.471,0,0,1,.25,54.18c-.024-.22.074-.5-.25-.6V42.434c1.035-2.428,2.914-3.219,5.48-3.162,4.989.112,9.981.027,14.973.037,1.5,0,1.981.393,2.38,1.843a2.019,2.019,0,0,1-2.3,1.8c-5.208-.025-10.416,0-15.623-.023-.918,0-1.329.261-1.285,1.244.063,1.41.032,2.825.014,4.237a43.5,43.5,0,0,0,4.41,19.878,54.136,54.136,0,0,1,3.133,7.972c1.781,5.872,2.033,11.9,1.866,17.968-.032,1.19.366,1.511,1.516,1.5,6.1-.047,12.191-.022,18.288-.022,7.752,0,15.5-.013,23.254.017.826,0,1.167-.178,1.087-1.058a25.085,25.085,0,0,1-.014-2.541c.017-1.47.626-2.242,1.77-2.263,1.181-.021,1.846.794,1.865,2.314.013.928.041,1.858-.007,2.785-.056,1.1.739.719,1.245.727s1.282.34,1.23-.747a27.049,27.049,0,0,1,.027-3.388,1.729,1.729,0,0,1,1.846-1.69,1.771,1.771,0,0,1,1.741,1.8c.022.282.007.565.012.848.02,1.005-.34,2.319.16,2.937.588.726,1.962.247,2.99.248,7.1.007,14.209-.023,21.312-.04q3.3.027,6.6.055c1.6.015,2.035.372,2.381,1.92" transform="translate(0 -9.699)" fill="#030303"/>
    <path id="Trazado_895391" data-name="Trazado 895391" d="M92.553,96.274c-7.1.017-14.209.047-21.312.04-1.028,0-2.4.478-2.99-.248-.5-.617-.141-1.931-.16-2.937-.005-.282.01-.566-.012-.848a1.771,1.771,0,0,0-1.741-1.8,1.728,1.728,0,0,0-1.846,1.689,27.049,27.049,0,0,0-.027,3.388c.053,1.087-.714.755-1.23.747s-1.3.369-1.245-.727c.048-.926.019-1.857.007-2.785-.02-1.52-.684-2.335-1.865-2.314-1.144.021-1.752.793-1.77,2.263a25.084,25.084,0,0,0,.014,2.541c.08.88-.261,1.062-1.087,1.059-7.751-.031-15.5-.018-23.254-.018-6.1,0-12.192-.025-18.288.022-1.151.009-1.548-.312-1.516-1.5.167-6.067-.085-12.1-1.867-17.968a54.05,54.05,0,0,0-3.133-7.972A43.5,43.5,0,0,1,4.82,49.028c.018-1.413.05-2.828-.014-4.237-.044-.983.367-1.248,1.285-1.244,5.208.028,10.416,0,15.623.023a2.019,2.019,0,0,0,2.3-1.8l3.084.008c.33,1.366,1.215,1.807,2.585,1.8,9.161-.036,18.323-.005,27.484-.04.934,0,1.3.209,1.2,1.188a20.914,20.914,0,0,0-.013,2.661c.035,1.256.706,2,1.779,2.008a1.808,1.808,0,0,0,1.844-1.962,17.321,17.321,0,0,0-.011-2.782c-.13-1.108.465-1.09,1.273-1.117.9-.03,1.335.153,1.22,1.169a18.437,18.437,0,0,0-.015,2.54c.035,1.354.691,2.13,1.783,2.152,1.149.025,1.829-.769,1.849-2.185.026-1.814.037-3.629.055-5.443l3.941,0c.436,1.469.847,1.785,2.426,1.786q11.443.008,22.887,0c3.793,0,7.587.029,11.38.044.116,2.936-.013,5.87.187,8.815a55.446,55.446,0,0,0,1.2,8.2,50.527,50.527,0,0,0,4.32,11.242c2.375,4.856,1.591,8.769-1.719,12.608-3.546,4.111-8.136,6.8-13.042,8.956-2.352,1.034-4.775,1.9-7.166,2.849M58.359,60.5c0,1.816-.01,3.631,0,5.447.01,1.419.689,2.266,1.791,2.277s1.833-.849,1.839-2.248q.025-5.447,0-10.895c-.007-1.411-.727-2.21-1.87-2.181-1.108.028-1.744.784-1.757,2.153-.017,1.816,0,3.631,0,5.447m9.73.1c0-1.855.014-3.712,0-5.567-.013-1.351-.673-2.12-1.777-2.136s-1.838.761-1.847,2.085q-.037,5.567,0,11.135a1.886,1.886,0,0,0,1.855,2.105c1.061-.024,1.757-.855,1.77-2.175.017-1.816,0-3.631,0-5.447m-9.73,18.689c0,1.816-.01,3.632,0,5.447.011,1.448.652,2.23,1.8,2.236s1.828-.792,1.834-2.222q.025-5.447,0-10.894c-.008-1.383-.772-2.239-1.878-2.2-1.064.036-1.738.855-1.749,2.188-.016,1.816,0,3.631,0,5.447m9.73.053c0-1.855.015-3.712-.005-5.567-.014-1.3-.752-2.135-1.817-2.125a1.859,1.859,0,0,0-1.8,2.033q-.045,5.627,0,11.255a1.805,1.805,0,0,0,1.895,2.027c1.064-.041,1.711-.779,1.726-2.056.023-1.855.006-3.712.006-5.567" transform="translate(-1.186 -10.316)" fill="#ff9801"/>
    <path id="Trazado_895392" data-name="Trazado 895392" d="M75.457,31.452c-.017,1.814-.029,3.629-.054,5.443-.02,1.416-.7,2.209-1.85,2.185-1.093-.023-1.748-.8-1.783-2.152a18.438,18.438,0,0,1,.015-2.54c.115-1.017-.321-1.2-1.22-1.169-.809.027-1.4.008-1.273,1.117a17.408,17.408,0,0,1,.011,2.782,1.809,1.809,0,0,1-1.845,1.962c-1.072-.012-1.743-.752-1.779-2.008a20.914,20.914,0,0,1,.013-2.661c.1-.98-.269-1.191-1.2-1.188-9.161.035-18.323,0-27.484.04-1.37.005-2.255-.437-2.585-1.8.572-1.59.941-1.853,2.663-1.854,9.128,0,18.255-.02,27.383.025,1.027.005,1.249-.27,1.234-1.261-.062-3.956-.011-7.914-.03-11.871a8.769,8.769,0,0,1,5.278-8.627c.632-.3.62-.586.367-1.106a5.09,5.09,0,0,0-4.562-3.079c-1.692-.083-3.393-.067-5.087,0A5.01,5.01,0,0,0,56.7,8.373c-.18,2.816-.056,5.651-.221,8.468a8.743,8.743,0,0,1-8.587,7.922,1.789,1.789,0,0,1-.4-3.555,15.644,15.644,0,0,0,1.889-.357,4.775,4.775,0,0,0,3.474-4.35c.168-2.736.1-5.486.2-8.227A8.747,8.747,0,0,1,61.618.048c1.775-.06,3.556-.072,5.33.011A8.661,8.661,0,0,1,74.93,6.216c.231.735.6.866,1.281.864a18,18,0,0,1,5.528.4,8.728,8.728,0,0,1,6.326,8.1,1.809,1.809,0,0,1-1.5,2.123c-1.053.151-1.81-.483-2.055-1.718-.8-4.014-2.348-5.286-6.453-5.286-2.649,0-2.654,0-2.648,2.706q.021,9.023.051,18.046M71.766,11.666a4.794,4.794,0,0,0-2.447,4.489c-.023,4.187.039,8.376-.036,12.561-.023,1.231.728.85,1.322.884.627.036,1.2.175,1.19-.9-.061-5.636-.029-11.272-.029-17.038" transform="translate(-8.501 0)" fill="#030303"/>
    <path id="Trazado_895393" data-name="Trazado 895393" d="M130.843,43c-3.793-.016-7.587-.041-11.38-.044q-11.443-.01-22.887,0c-1.579,0-1.99-.317-2.425-1.785.389-1.444.88-1.846,2.386-1.846q18.4-.009,36.808,0c2.886,0,4.563,1.7,4.556,4.617-.011,5.083-.067,10.16,1.142,15.158a51.364,51.364,0,0,0,3.73,10.174,46.372,46.372,0,0,1,4.558,20.454c0,1.735.015,3.471,0,5.206a4.121,4.121,0,0,1-4.171,4.393c-4.681.075-9.364.03-14.045.021a1.958,1.958,0,0,1-2.051-1.677c.344-1.6.746-1.947,2.376-1.95q6.481-.014,12.962,0c.684,0,1.294.005,1.3-.969.063-5.616.019-11.212-1.5-16.694a83.1,83.1,0,0,0-4.264-10.644,49.807,49.807,0,0,1-3.686-21.283c.082-3.337.014-3.34-3.412-3.127" transform="translate(-23.254 -9.71)" fill="#030303"/>
    <g id="Grupo_1124562" data-name="Grupo 1124562" transform="translate(91.367 33.214)" style="isolation: isolate">
      <g id="Grupo_1124561" data-name="Grupo 1124561">
        <g id="Grupo_1124560" data-name="Grupo 1124560" clip-path="url(#clip-path-2)">
          <path id="Trazado_895394" data-name="Trazado 895394" d="M137.557,44.185c3.425-.213,3.494-.211,3.412,3.127a49.807,49.807,0,0,0,3.686,21.283,83.1,83.1,0,0,1,4.264,10.644c1.517,5.482,1.56,11.078,1.5,16.694-.011.974-.621.97-1.3.969q-6.481-.006-12.962,0c-1.63,0-2.032.35-2.376,1.95l-3.462-.025c-.346-1.549-.785-1.906-2.381-1.92q-3.3-.032-6.6-.055c2.391-.945,4.815-1.816,7.166-2.849,4.907-2.157,9.5-4.843,13.042-8.955,3.31-3.84,4.094-7.752,1.719-12.608a50.5,50.5,0,0,1-4.32-11.242,55.435,55.435,0,0,1-1.2-8.2c-.2-2.945-.072-5.88-.187-8.816" transform="translate(-121.335 -44.108)" fill="#f57c00"/>
        </g>
      </g>
    </g>
    <path id="Trazado_895395" data-name="Trazado 895395" d="M75.924,64.155c0-1.816-.013-3.632,0-5.447.013-1.369.648-2.125,1.757-2.152,1.144-.029,1.864.77,1.87,2.181q.028,5.447,0,10.895c-.006,1.4-.74,2.258-1.839,2.248s-1.781-.858-1.791-2.277c-.013-1.816,0-3.632,0-5.447" transform="translate(-18.751 -13.968)" fill="#030202"/>
    <path id="Trazado_895396" data-name="Trazado 895396" d="M87.651,64.254c0,1.816.013,3.631,0,5.447-.013,1.321-.708,2.151-1.77,2.175a1.886,1.886,0,0,1-1.855-2.105q-.037-5.567,0-11.135c.009-1.324.746-2.1,1.846-2.085s1.765.785,1.778,2.136c.018,1.856,0,3.712,0,5.568" transform="translate(-20.748 -13.967)" fill="#030202"/>
    <path id="Trazado_895397" data-name="Trazado 895397" d="M75.925,89.1c0-1.816-.012-3.632,0-5.447.012-1.332.685-2.152,1.75-2.187,1.105-.037,1.87.819,1.878,2.2q.028,5.447,0,10.894c-.006,1.43-.7,2.228-1.834,2.222s-1.785-.788-1.8-2.236c-.013-1.816,0-3.632,0-5.447" transform="translate(-18.751 -20.12)" fill="#030202"/>
    <path id="Trazado_895398" data-name="Trazado 895398" d="M87.65,89.147c0,1.855.017,3.712-.006,5.567-.015,1.277-.661,2.016-1.725,2.056a1.805,1.805,0,0,1-1.9-2.027q-.043-5.627,0-11.255a1.859,1.859,0,0,1,1.8-2.033c1.066-.01,1.8.825,1.817,2.125.02,1.855.005,3.712.005,5.567" transform="translate(-20.747 -20.118)" fill="#030202"/>
    <path id="Trazado_895399" data-name="Trazado 895399" d="M83.2,15.493c0,5.767-.032,11.4.029,17.038.011,1.07-.563.931-1.19.9-.594-.034-1.345.347-1.322-.884.075-4.185.014-8.373.036-12.561A4.794,4.794,0,0,1,83.2,15.493" transform="translate(-19.936 -3.827)" fill="#fdfdfd"/>
  </g>
</svg>
