<svg xmlns="http://www.w3.org/2000/svg" xmlns:xlink="http://www.w3.org/1999/xlink" width="54.698" height="95.767" viewBox="0 0 54.698 95.767">
  <defs>
    <clipPath id="clip-path">
      <rect id="Rectángulo_412176" data-name="Rectángulo 412176" width="54.698" height="95.767" transform="translate(0 0)" fill="#12263f"/>
    </clipPath>
  </defs>
  <g id="Grupo_1121970" data-name="Grupo 1121970" transform="translate(5817 2049)">
    <g id="Grupo_1121969" data-name="Grupo 1121969" transform="translate(-5817 -2049)">
      <g id="Grupo_1121968" data-name="Grupo 1121968" clip-path="url(#clip-path)">
        <path id="Trazado_891506" data-name="Trazado 891506" d="M35.074,72.4H17.184a1.487,1.487,0,0,0,0,2.974h17.89a1.487,1.487,0,0,0,0-2.974" fill="#12263f"/>
        <path id="Trazado_891507" data-name="Trazado 891507" d="M35.575,55.787a1.487,1.487,0,0,0-2.1,0l-2.078,2.079H20.725l-2.078-2.079a1.487,1.487,0,1,0-2.1,2.1L19.058,60.4a1.477,1.477,0,0,0,1.093.431c.013,0,.025,0,.039,0H32.062a1.481,1.481,0,0,0,1.25-.687l2.263-2.262a1.487,1.487,0,0,0,0-2.1" fill="#12263f"/>
        <path id="Trazado_891508" data-name="Trazado 891508" d="M9.07,26.432H15.7v16.4a1.487,1.487,0,0,0,1.487,1.487h3.279v6.871a1.487,1.487,0,0,0,1.487,1.487h2.692v5.538a1.545,1.545,0,0,0,1.236,1.549A1.489,1.489,0,0,0,27.616,58.3v-5.62h2.692A1.487,1.487,0,0,0,31.8,51.192V44.321h3.279a1.487,1.487,0,0,0,1.487-1.487v-16.4h16.65a1.486,1.486,0,1,0,0-2.973H10.556V10.195H53.211a1.487,1.487,0,1,0,0-2.974H36.561V1.486A1.486,1.486,0,0,0,35.074,0H17.184A1.486,1.486,0,0,0,15.7,1.486V7.221H9.069A1.487,1.487,0,0,0,7.582,8.708V24.945A1.491,1.491,0,0,0,9.07,26.432M28.821,49.705H23.437V44.321h5.384ZM18.671,26.432H33.588V41.347H18.671Zm0-23.459H33.588V7.221H18.671Z" fill="#12263f"/>
        <path id="Trazado_891509" data-name="Trazado 891509" d="M53.211,92.794H2.974v-9.3H53.211a1.487,1.487,0,1,0,0-2.974H10.556V67.252H53.211a1.486,1.486,0,1,0,0-2.973H9.069a1.49,1.49,0,0,0-1.487,1.487V80.518H1.487A1.487,1.487,0,0,0,0,82V94.281a1.491,1.491,0,0,0,1.488,1.487H53.211a1.487,1.487,0,1,0,0-2.974" fill="#12263f"/>
      </g>
    </g>
  </g>
</svg>
