<svg id="Grupo_1124554" data-name="Grupo 1124554" xmlns="http://www.w3.org/2000/svg" xmlns:xlink="http://www.w3.org/1999/xlink" width="89.198" height="89.198" viewBox="0 0 89.198 89.198">
  <defs>
    <clipPath id="clip-path">
      <rect id="Rectángulo_413424" data-name="Rectángulo 413424" width="89.198" height="89.198" fill="none"/>
    </clipPath>
  </defs>
  <g id="Grupo_1124551" data-name="Grupo 1124551" transform="translate(0 0)">
    <g id="Grupo_1124550" data-name="Grupo 1124550" clip-path="url(#clip-path)">
      <path id="Trazado_895369" data-name="Trazado 895369" d="M79.7,88.458H16.026A5.226,5.226,0,0,1,10.8,83.232V7.1a5.226,5.226,0,0,1,5.226-5.226H79.7A5.226,5.226,0,0,1,84.928,7.1V83.232A5.226,5.226,0,0,1,79.7,88.458" transform="translate(-3.265 -0.567)" fill="#ff9801"/>
    </g>
  </g>
  <rect id="Rectángulo_413425" data-name="Rectángulo 413425" width="13.305" height="86.584" transform="translate(57.905 1.307)" fill="#efedff"/>
  <rect id="Rectángulo_413426" data-name="Rectángulo 413426" width="13.305" height="86.584" transform="translate(17.987 1.307)" fill="#efedff"/>
  <g id="Grupo_1124553" data-name="Grupo 1124553" transform="translate(0 0)">
    <g id="Grupo_1124552" data-name="Grupo 1124552" clip-path="url(#clip-path)">
      <path id="Trazado_895370" data-name="Trazado 895370" d="M31.009,1.874H25.783V88.458H39.088A154.1,154.1,0,0,1,30.36,57.4a155.882,155.882,0,0,1,.649-55.524" transform="translate(-7.795 -0.567)" fill="#d5d3ff"/>
      <path id="Trazado_895371" data-name="Trazado 895371" d="M79.136,89.2H15.46a6.54,6.54,0,0,1-6.533-6.533V6.534A6.54,6.54,0,0,1,15.46,0H79.136a6.54,6.54,0,0,1,6.533,6.533V82.666A6.54,6.54,0,0,1,79.136,89.2M15.46,2.614A3.924,3.924,0,0,0,11.54,6.534V82.666a3.924,3.924,0,0,0,3.919,3.919H79.136a3.924,3.924,0,0,0,3.919-3.919V6.534a3.924,3.924,0,0,0-3.919-3.919Z" transform="translate(-2.699 0)"/>
      <path id="Trazado_895372" data-name="Trazado 895372" d="M63.36,89.2a1.307,1.307,0,0,1-1.307-1.307V1.307a1.307,1.307,0,1,1,2.613,0V87.892A1.307,1.307,0,0,1,63.36,89.2" transform="translate(-18.761 0)"/>
      <path id="Trazado_895373" data-name="Trazado 895373" d="M56,24.12a1.307,1.307,0,0,1-.924-2.23L65.345,11.621a1.307,1.307,0,1,1,1.848,1.847L56.925,23.737A1.3,1.3,0,0,1,56,24.12" transform="translate(-16.537 -3.398)"/>
      <path id="Trazado_895374" data-name="Trazado 895374" d="M66.269,24.12a1.3,1.3,0,0,1-.924-.383L55.077,13.469a1.307,1.307,0,0,1,1.848-1.847L67.193,21.889a1.307,1.307,0,0,1-.924,2.23" transform="translate(-16.537 -3.398)"/>
      <path id="Trazado_895375" data-name="Trazado 895375" d="M56,53.091a1.307,1.307,0,0,1-.924-2.23L65.345,40.592a1.307,1.307,0,1,1,1.848,1.847L56.925,52.708a1.3,1.3,0,0,1-.924.383" transform="translate(-16.537 -12.157)"/>
      <path id="Trazado_895376" data-name="Trazado 895376" d="M66.269,53.091a1.3,1.3,0,0,1-.924-.383L55.077,42.44a1.307,1.307,0,1,1,1.848-1.847L67.193,50.86a1.307,1.307,0,0,1-.924,2.23" transform="translate(-16.537 -12.157)"/>
      <path id="Trazado_895377" data-name="Trazado 895377" d="M56,82.063a1.307,1.307,0,0,1-.924-2.23L65.345,69.564a1.307,1.307,0,0,1,1.848,1.847L56.925,81.68a1.3,1.3,0,0,1-.924.383" transform="translate(-16.537 -20.916)"/>
      <path id="Trazado_895378" data-name="Trazado 895378" d="M66.269,82.063a1.3,1.3,0,0,1-.924-.383L55.077,71.412a1.307,1.307,0,0,1,1.848-1.847L67.193,79.832a1.307,1.307,0,0,1-.924,2.23" transform="translate(-16.537 -20.917)"/>
      <path id="Trazado_895379" data-name="Trazado 895379" d="M56,111.035a1.307,1.307,0,0,1-.924-2.23L65.345,98.536a1.307,1.307,0,0,1,1.848,1.847L56.925,110.652a1.3,1.3,0,0,1-.924.383" transform="translate(-16.537 -29.676)"/>
      <path id="Trazado_895380" data-name="Trazado 895380" d="M66.269,111.035a1.3,1.3,0,0,1-.924-.383L55.077,100.383a1.307,1.307,0,0,1,1.848-1.847L67.193,108.8a1.307,1.307,0,0,1-.924,2.23" transform="translate(-16.537 -29.676)"/>
      <path id="Trazado_895381" data-name="Trazado 895381" d="M95.739,89.2H82.434a1.307,1.307,0,0,1-1.307-1.307V1.307A1.307,1.307,0,0,1,82.434,0H95.739a1.307,1.307,0,0,1,1.307,1.307V87.892A1.307,1.307,0,0,1,95.739,89.2m-12-2.613H94.432V2.614H83.74Z" transform="translate(-24.528 0)"/>
      <path id="Trazado_895382" data-name="Trazado 895382" d="M38.521,89.2H25.216a1.307,1.307,0,0,1-1.307-1.307V1.307A1.307,1.307,0,0,1,25.216,0H38.521a1.307,1.307,0,0,1,1.307,1.307V87.892A1.307,1.307,0,0,1,38.521,89.2m-12-2.613H37.214V2.614H26.522Z" transform="translate(-7.229 0)"/>
    </g>
  </g>
</svg>
