<svg id="Grupo_1121669" data-name="Grupo 1121669" xmlns="http://www.w3.org/2000/svg" xmlns:xlink="http://www.w3.org/1999/xlink" width="104.736" height="76.058" viewBox="0 0 104.736 76.058">
  <defs>
    <clipPath id="clip-path">
      <rect id="Rectángulo_411866" data-name="Rectángulo 411866" width="104.736" height="76.058" fill="none"/>
    </clipPath>
  </defs>
  <path id="Trazado_890711" data-name="Trazado 890711" d="M110.558,35.3,90.088,60.956l8.484,4.9Z" transform="translate(-40.359 -15.813)" fill="#3bf2d6"/>
  <g id="Grupo_1121668" data-name="Grupo 1121668">
    <g id="Grupo_1121667" data-name="Grupo 1121667" clip-path="url(#clip-path)">
      <path id="Trazado_890712" data-name="Trazado 890712" d="M97.9,81.829A16.072,16.072,0,1,1,81.826,65.757,16.072,16.072,0,0,1,97.9,81.829" transform="translate(-29.457 -29.459)" fill="#ffe060"/>
      <path id="Trazado_890713" data-name="Trazado 890713" d="M92.2,65.757A16.131,16.131,0,0,0,88.9,66.1a16.074,16.074,0,0,1,0,31.467A16.073,16.073,0,1,0,92.2,65.757" transform="translate(-39.828 -29.459)" fill="#eec707"/>
      <path id="Trazado_890714" data-name="Trazado 890714" d="M93.812,77.429H86.9L81.395,87.6l6.256-.009-3.743,9.093,12.363-12.4H89.3Z" transform="translate(-36.464 -34.687)" fill="#f99c21"/>
      <path id="Trazado_890715" data-name="Trazado 890715" d="M93.345,74.654H86.436a1.534,1.534,0,0,0-1.349.8L79.579,85.632A1.534,1.534,0,0,0,80.928,87.9h0l3.961-.006-2.869,6.97a1.536,1.536,0,0,0,2.505,1.667l12.363-12.4A1.534,1.534,0,0,0,95.8,81.508H91.678l2.949-4.476a1.535,1.535,0,0,0-1.282-2.378m-1.238,9.923-4.317,4.331.811-1.971a1.534,1.534,0,0,0-1.418-2.118l-3.679.006,3.845-7.1H90.5L87.548,82.2a1.535,1.535,0,0,0,1.281,2.378Z" transform="translate(-35.568 -33.444)"/>
      <path id="Trazado_890716" data-name="Trazado 890716" d="M95.158,25.492V20.284a1.534,1.534,0,1,0-3.069,0v5.208a1.534,1.534,0,0,0,3.069,0" transform="translate(-41.255 -8.399)"/>
      <path id="Trazado_890717" data-name="Trazado 890717" d="M143.584,40.682a1.533,1.533,0,0,0-2.169,0l-3.683,3.682a1.535,1.535,0,0,0,2.171,2.17l3.682-3.683a1.533,1.533,0,0,0,0-2.169" transform="translate(-61.502 -18.024)"/>
      <path id="Trazado_890718" data-name="Trazado 890718" d="M45.441,46.983a1.534,1.534,0,0,0,1.085-2.619l-3.683-3.682a1.534,1.534,0,1,0-2.169,2.17l3.682,3.682a1.53,1.53,0,0,0,1.085.449" transform="translate(-18.02 -18.024)"/>
      <path id="Trazado_890719" data-name="Trazado 890719" d="M97.717,55.533a1.534,1.534,0,1,0,2.76-1.34A29.3,29.3,0,0,0,90.31,42.575l3.123-7.964a1.535,1.535,0,0,0-2.627-1.516l-5.454,6.837A29.248,29.248,0,0,0,47.871,54.193a1.534,1.534,0,1,0,2.76,1.339A26.175,26.175,0,0,1,83.349,42.441l-5.764,7.224a17.6,17.6,0,0,0-18.368,7.985,1.534,1.534,0,0,0,2.605,1.621,14.536,14.536,0,1,1-2.187,7.666,14.641,14.641,0,0,1,.311-3,1.534,1.534,0,1,0-3-.629A17.608,17.608,0,1,0,85.9,53.817L89.16,45.5a26.23,26.23,0,0,1,8.557,10.03m-11.474-11.8c.087.046.176.091.262.137l-3.154,8.042A17.3,17.3,0,0,0,80.762,50.6Z" transform="translate(-21.377 -14.564)"/>
      <path id="Trazado_890720" data-name="Trazado 890720" d="M99.405,29.332a1.534,1.534,0,0,0-2.755,1.351,48.742,48.742,0,0,1,5,20.155H74.519a1.534,1.534,0,0,0-1.534,1.534,20.617,20.617,0,1,1-41.234,0,1.534,1.534,0,0,0-1.535-1.534H3.092A49.3,49.3,0,0,1,93.819,25.676,1.534,1.534,0,0,0,96.4,24.011,52.371,52.371,0,0,0,0,52.372a1.534,1.534,0,0,0,1.535,1.535h27.2a23.687,23.687,0,0,0,47.273,0h27.2a1.534,1.534,0,0,0,1.534-1.535,51.866,51.866,0,0,0-5.331-23.04" transform="translate(0 0)"/>
    </g>
  </g>
</svg>
