<svg id="Grupo_1121961" data-name="Grupo 1121961" xmlns="http://www.w3.org/2000/svg" xmlns:xlink="http://www.w3.org/1999/xlink" width="93.614" height="90.145" viewBox="0 0 93.614 90.145">
  <defs>
    <clipPath id="clip-path">
      <rect id="Rectángulo_412172" data-name="Rectángulo 412172" width="93.614" height="90.145" fill="#12263f"/>
    </clipPath>
  </defs>
  <g id="Grupo_1121960" data-name="Grupo 1121960" clip-path="url(#clip-path)">
    <path id="Trazado_891501" data-name="Trazado 891501" d="M0,10.512C.982,7.337,3.576,5.868,6.333,4.625a48.957,48.957,0,0,1,12.736-3.44,107.352,107.352,0,0,1,23.966-.9c6.7.461,13.338,1.355,19.628,3.858a21.643,21.643,0,0,1,5,2.772c3.388,2.561,3.362,6.043.1,8.751a21.791,21.791,0,0,1-7.048,3.561c-.286.1-.573.194-.879.3V49.494c1.268-.221,2.5-.5,3.75-.643A25.336,25.336,0,0,1,76.13,50.4a21.052,21.052,0,0,0,14.918.194c.173-.057.336-.143.508-.205a1.4,1.4,0,0,1,1.923.662,1.334,1.334,0,0,1-.9,1.882,25.553,25.553,0,0,1-4.188,1.232,25.832,25.832,0,0,1-14.233-1.5,20.744,20.744,0,0,0-13.717-.319,1.07,1.07,0,0,0-.61.788c-.035,5.7-.025,11.395-.022,17.092a1.566,1.566,0,0,0,.033.27c1.763.743,3.525,1.356,5.158,2.215a15.23,15.23,0,0,1,3.549,2.522c2.238,2.2,2.183,4.949.009,7.212a15.448,15.448,0,0,1-5.549,3.437A56.947,56.947,0,0,1,48.58,89.316a109.251,109.251,0,0,1-23.529.363c-6.289-.574-12.507-1.544-18.383-4.022A23.571,23.571,0,0,1,3.99,84.288,8.048,8.048,0,0,1,0,79.627V77.981a8.067,8.067,0,0,1,4.324-4.816A46.423,46.423,0,0,1,9.5,70.927a1.124,1.124,0,0,0,.893-1.283q-.031-24.571,0-49.143a1.176,1.176,0,0,0-.978-1.318,37.933,37.933,0,0,1-4.375-1.808C2.773,16.237.805,14.743,0,12.158Zm35.078,9.35a93.8,93.8,0,0,0,18.708-1.7,36.382,36.382,0,0,0,9.709-3.083,14.94,14.94,0,0,0,3.129-2.167c1.114-1.011,1.072-2.09.032-3.2a6.7,6.7,0,0,0-1.7-1.366,35.078,35.078,0,0,0-4.375-2.031A62.788,62.788,0,0,0,44.326,3.158,102.258,102.258,0,0,0,17.209,4.315a39.39,39.39,0,0,0-10.685,3.3A13.18,13.18,0,0,0,3.807,9.439c-1.4,1.229-1.4,2.49-.019,3.725A9.3,9.3,0,0,0,6.342,14.89a58.529,58.529,0,0,0,7.1,2.557,84.987,84.987,0,0,0,21.631,2.414M10.624,73.448a18.726,18.726,0,0,0-6.56,3.236c-1.739,1.481-1.782,2.942.07,4.279a20.641,20.641,0,0,0,4.536,2.485c6.134,2.392,12.591,3.24,19.109,3.677a105.272,105.272,0,0,0,20.614-.566,50.081,50.081,0,0,0,13.615-3.311,20.745,20.745,0,0,0,4.556-2.784c1.2-.952,1.16-2.094.141-3.184-1.939-2.076-4.53-2.944-6.915-3.752a29.885,29.885,0,0,1-2.318,2.66,15.137,15.137,0,0,1-5.433,2.919c-7.128,2.43-14.473,2.875-21.918,2.36a1.358,1.358,0,0,1-1.353-1.426,1.4,1.4,0,0,1,1.477-1.315c.243-.006.488.012.731.029a55.55,55.55,0,0,0,13.568-.612c1.992-.343,3.953-.86,5.929-1.3-.01-.085-.021-.17-.032-.255-.1-.035-.2-.073-.3-.1Q38.3,72.773,26.455,69.079a2.251,2.251,0,0,0-1.228.044c-1.954.574-3.9,1.191-5.84,1.8-1.96.614-3.918,1.235-5.976,1.885A6.824,6.824,0,0,0,16.125,75.2a26.88,26.88,0,0,0,7.563,2.611c1.011.217,1.525.9,1.336,1.721a1.423,1.423,0,0,1-1.874.988,29.7,29.7,0,0,1-8.182-2.775,9.034,9.034,0,0,1-4.344-4.3m2.557-11.714v8.226c.376-.111.692-.2,1.007-.3q5.705-1.782,11.41-3.566,15.325-4.784,30.656-9.55a.981.981,0,0,0,.812-1.156c-.038-2.162-.013-4.326-.017-6.489,0-.257-.033-.514-.056-.857L13.182,61.733M57.051,36.892l-43.863,13.7v8.205c.348-.089.643-.149.927-.239q12.538-3.917,25.074-7.838c5.66-1.769,11.324-3.527,16.978-5.319.335-.106.839-.455.845-.7.063-2.554.039-5.11.039-7.8m-.438-2.766c0-.062.01-.124.015-.186L13.14,20.361c0,2.43.048,4.714-.023,6.995a1.37,1.37,0,0,0,1.167,1.637c8.4,2.574,16.815,5.118,25.152,7.886,2.9.961,5.595,1.4,8.393-.013a1.153,1.153,0,0,1,.177-.044l8.606-2.7m-25.964,33.3c.259.109.366.164.478.2q11.44,3.584,22.884,7.156a1.2,1.2,0,0,0,.7.032,3.966,3.966,0,0,0,2.34-3.319c.006-1.1-.032-2.194.015-3.288a.818.818,0,0,0-.707-.953c-4.039-1.237-8.068-2.51-12.109-3.742a2.062,2.062,0,0,0-1.133.025c-2.879.873-5.748,1.777-8.619,2.674-1.241.388-2.479.782-3.849,1.215M13.14,31.5c0,2.564.025,5-.017,7.428a.915.915,0,0,0,.788,1.066c3.778,1.149,7.538,2.359,11.316,3.508a2.553,2.553,0,0,0,1.4-.026c3.141-.948,6.269-1.941,9.4-2.92l2.718-.848c0-.071,0-.141-.006-.212l-25.6-8m43.871-.334V20.573c-4.5.585-8.976,1.345-13.479,1.7-4.479.355-8.991.3-13.6.433l27.081,8.457m.008,28.017-8.314,2.6c0,.069,0,.137,0,.205l8.313,2.6ZM20.939,45.271c.011-.062.023-.123.034-.185l-7.76-2.423v5.022l7.726-2.414" transform="translate(0 0)" fill="#12263f"/>
    <path id="Trazado_891502" data-name="Trazado 891502" d="M25.2,11.859c4.143,2.7,23.9,2.735,29.028-.029-1.231-.347-2.269-.7-3.335-.927a58.964,58.964,0,0,0-13.275-.951c-.609.012-1.219.053-1.828.038a1.365,1.365,0,0,1-1.437-1.338,1.324,1.324,0,0,1,1.378-1.391c3.136,0,6.285-.121,9.4.129a75.016,75.016,0,0,1,8.45,1.375A6.972,6.972,0,0,1,56.053,9.9c1.649,1.123,1.7,3.038-.025,4.032a14.454,14.454,0,0,1-4.486,1.684,62.483,62.483,0,0,1-24.5-.161,12.523,12.523,0,0,1-3.562-1.347c-1.983-1.128-1.965-3.152-.035-4.368a14.215,14.215,0,0,1,5.711-1.768,1.285,1.285,0,0,1,1.5,1.14,1.3,1.3,0,0,1-1.026,1.514c-.908.25-1.839.412-2.75.654-.552.147-1.084.372-1.679.581" transform="translate(-4.548 -1.496)" fill="#12263f"/>
  </g>
</svg>
