<svg id="Grupo_1124556" data-name="Grupo 1124556" xmlns="http://www.w3.org/2000/svg" xmlns:xlink="http://www.w3.org/1999/xlink" width="77.666" height="77.544" viewBox="0 0 77.666 77.544">
  <defs>
    <clipPath id="clip-path">
      <rect id="Rectángulo_413428" data-name="Rectángulo 413428" width="77.666" height="77.544" fill="none"/>
    </clipPath>
  </defs>
  <g id="Grupo_1124555" data-name="Grupo 1124555" clip-path="url(#clip-path)">
    <path id="Trazado_895383" data-name="Trazado 895383" d="M75.691,70.547A14.207,14.207,0,1,0,49.7,59.779L49.277,61.4H28.39l-.421-1.623a13.872,13.872,0,0,0-1.5-3.608l-.86-1.446,29.189-29.19,1.45.875a13.992,13.992,0,0,0,7.157,2.01h.054A14.207,14.207,0,0,0,63.506.007h-.054A14.2,14.2,0,0,0,49.7,10.663l-.419,1.624H28.388l-.419-1.624A14.207,14.207,0,0,0,1.974,7,14.207,14.207,0,1,0,27.969,17.766l.419-1.624H49.276l.42,1.622a13.874,13.874,0,0,0,1.5,3.608l.861,1.447L22.871,52.008l-1.45-.875a13.987,13.987,0,0,0-7.156-2.01H14.21a14.207,14.207,0,0,0-.05,28.414h.054A14.2,14.2,0,0,0,27.969,66.882l.419-1.624H49.277l.419,1.624a14.207,14.207,0,0,0,25.995,3.665m-61.417-54.4H25.063L23.2,19.385a10.352,10.352,0,0,1-8.915,5.18h-.052A10.351,10.351,0,1,1,23.2,9.039l1.874,3.247h-10.8a1.928,1.928,0,0,0,0,3.856m40.192-7.1a10.353,10.353,0,0,1,8.919-5.18h.006a10.352,10.352,0,1,1-2.685,20.312l-3.541-1.009,7.589-7.589a1.928,1.928,0,0,0-1.363-3.291H52.6ZM23.2,68.5a10.353,10.353,0,0,1-8.919,5.18h-.006A10.352,10.352,0,1,1,16.96,53.37L20.5,54.379l-7.589,7.589a1.928,1.928,0,0,0,1.363,3.291H25.063Zm40.284,5.179h-.052a10.371,10.371,0,0,1-8.964-5.176l-1.874-3.247h10.8a1.928,1.928,0,1,0,0-3.856H52.6l1.863-3.243a10.351,10.351,0,0,1,8.915-5.18h.052a10.351,10.351,0,0,1,.051,20.7" transform="translate(0 0)"/>
  </g>
</svg>
