<svg xmlns="http://www.w3.org/2000/svg" xmlns:xlink="http://www.w3.org/1999/xlink" width="59.699" height="108.454" viewBox="0 0 59.699 108.454">
  <defs>
    <clipPath id="clip-path">
      <rect id="Rectángulo_412177" data-name="Rectángulo 412177" width="30.615" height="104.05" fill="#12263f"/>
    </clipPath>
  </defs>
  <g id="Grupo_1124960" data-name="Grupo 1124960" transform="translate(5852 1757.965)">
    <g id="Grupo_1121972" data-name="Grupo 1121972" transform="translate(-5821.579 -1757.965) rotate(17)">
      <g id="Grupo_1121971" data-name="Grupo 1121971" clip-path="url(#clip-path)">
        <path id="Trazado_891510" data-name="Trazado 891510" d="M15.143,31.021a1.2,1.2,0,0,1-1.2,1.2H.01V29.817H13.939a1.2,1.2,0,0,1,1.2,1.2" fill="#12263f"/>
        <path id="Trazado_891511" data-name="Trazado 891511" d="M8.786,37.7a1.2,1.2,0,0,1-1.2,1.2H.01V36.5H7.582a1.2,1.2,0,0,1,1.2,1.2" fill="#12263f"/>
        <path id="Trazado_891512" data-name="Trazado 891512" d="M15.143,44.4a1.2,1.2,0,0,1-1.2,1.2H.01V43.193H13.939a1.2,1.2,0,0,1,1.2,1.2" fill="#12263f"/>
        <path id="Trazado_891513" data-name="Trazado 891513" d="M8.786,51.078a1.2,1.2,0,0,1-1.2,1.2H.01V49.874H7.582a1.2,1.2,0,0,1,1.2,1.2" fill="#12263f"/>
        <path id="Trazado_891514" data-name="Trazado 891514" d="M15.143,57.772a1.2,1.2,0,0,1-1.2,1.2H.01V56.568H13.939a1.2,1.2,0,0,1,1.2,1.2" fill="#12263f"/>
        <path id="Trazado_891515" data-name="Trazado 891515" d="M8.786,64.454a1.2,1.2,0,0,1-1.2,1.2H.01V63.25H7.582a1.2,1.2,0,0,1,1.2,1.2" fill="#12263f"/>
        <path id="Trazado_891516" data-name="Trazado 891516" d="M15.143,71.183a1.2,1.2,0,0,1-1.2,1.2H.01V69.979H13.939a1.2,1.2,0,0,1,1.2,1.2" fill="#12263f"/>
        <path id="Trazado_891517" data-name="Trazado 891517" d="M8.786,77.829a1.2,1.2,0,0,1-1.2,1.2H.01V76.625H7.582a1.2,1.2,0,0,1,1.2,1.2" fill="#12263f"/>
        <path id="Trazado_891518" data-name="Trazado 891518" d="M15.143,84.523a1.2,1.2,0,0,1-1.2,1.2H.01V83.319H13.939a1.2,1.2,0,0,1,1.2,1.2" fill="#12263f"/>
        <path id="Trazado_891519" data-name="Trazado 891519" d="M8.786,91.2a1.2,1.2,0,0,1-1.2,1.2H.01V90H7.582a1.2,1.2,0,0,1,1.2,1.2" fill="#12263f"/>
        <path id="Trazado_891520" data-name="Trazado 891520" d="M22.875,0H7.742A7.753,7.753,0,0,0,0,7.741V96.309a7.754,7.754,0,0,0,7.742,7.741H22.875a7.753,7.753,0,0,0,7.74-7.741V7.741A7.753,7.753,0,0,0,22.875,0m5.333,96.309a5.346,5.346,0,0,1-5.333,5.333H7.742a5.345,5.345,0,0,1-5.334-5.333v-3.9H7.573a1.2,1.2,0,1,0,0-2.407H2.408V85.727H13.93a1.2,1.2,0,1,0,0-2.408H2.408V79.033H7.573a1.2,1.2,0,1,0,0-2.408H2.408V72.387H13.93a1.2,1.2,0,1,0,0-2.407H2.408V65.658H7.573a1.2,1.2,0,1,0,0-2.408H2.408V58.976H13.93a1.2,1.2,0,0,0,0-2.408H2.408V52.282H7.573a1.2,1.2,0,1,0,0-2.408H2.408V45.6H13.93a1.2,1.2,0,0,0,0-2.408H2.408V38.907H7.573a1.2,1.2,0,1,0,0-2.408H2.408V32.225H13.93a1.2,1.2,0,1,0,0-2.408H2.408V7.741A5.347,5.347,0,0,1,7.742,2.407H22.875a5.348,5.348,0,0,1,5.333,5.334Z" fill="#12263f"/>
        <path id="Trazado_891521" data-name="Trazado 891521" d="M15.308,8.25a4.486,4.486,0,1,0,4.486,4.486A4.485,4.485,0,0,0,15.308,8.25m0,6.441a1.956,1.956,0,1,1,1.955-1.955,1.955,1.955,0,0,1-1.955,1.955" fill="#12263f"/>
      </g>
    </g>
  </g>
</svg>
