<svg id="Grupo_1121963" data-name="Grupo 1121963" xmlns="http://www.w3.org/2000/svg" xmlns:xlink="http://www.w3.org/1999/xlink" width="83.413" height="102.498" viewBox="0 0 83.413 102.498">
  <defs>
    <clipPath id="clip-path">
      <rect id="Rectángulo_412173" data-name="Rectángulo 412173" width="83.413" height="102.498" fill="#12263f"/>
    </clipPath>
  </defs>
  <g id="Grupo_1121962" data-name="Grupo 1121962" transform="translate(0 0)" clip-path="url(#clip-path)">
    <path id="Trazado_891503" data-name="Trazado 891503" d="M38.857,102.5c-1.638-.25-3.287-.441-4.913-.757A41.035,41.035,0,0,1,7.791,85.075,39.138,39.138,0,0,1,.022,62.753C-.44,46.457,6.391,33.914,20.036,25.1a38.476,38.476,0,0,1,14.591-5.473c.36-.061.716-.142,1.177-.235,0-1.337.031-2.662-.024-3.984-.012-.278-.306-.57-.52-.811a8.691,8.691,0,1,1,14.9-7.63,8.231,8.231,0,0,1-1.912,7.37,2.653,2.653,0,0,0-.756,2.052c.055.962.013,1.929.013,2.931,1.944.453,3.888.76,5.737,1.361,16.093,5.234,26.166,16.071,29.419,32.713A41.233,41.233,0,0,1,63.644,96.207a40.717,40.717,0,0,1-18.507,6.121,7.587,7.587,0,0,0-.875.17Zm7.724-11.143c.44-.064.673-.089.9-.134A31.123,31.123,0,0,0,72.176,66.3a.969.969,0,0,0-.61-1.23c-1.745-.974-3.466-1.99-5.186-3.009-1.4-.832-1.406-1.772-.017-2.582,1.755-1.024,3.508-2.053,5.284-3.039a.931.931,0,0,0,.533-1.187A30.508,30.508,0,0,0,65.854,41.4a30.888,30.888,0,0,0-18.43-11.133,1.225,1.225,0,0,0-1.581.724c-.879,1.681-1.87,3.3-2.823,4.946-.9,1.549-1.807,1.562-2.694.038-.954-1.642-1.95-3.262-2.826-4.945a1.294,1.294,0,0,0-1.656-.754A31.2,31.2,0,0,0,11.12,55.3a.882.882,0,0,0,.518,1.106c1.773.993,3.528,2.017,5.284,3.042,1.439.84,1.425,1.79-.037,2.64-1.727,1.005-3.452,2.016-5.2,2.989a.933.933,0,0,0-.559,1.177A30.126,30.126,0,0,0,15.112,76.75,30.943,30.943,0,0,0,35.987,91.261a1.134,1.134,0,0,0,1.44-.649c.913-1.7,1.906-3.361,2.875-5.033q1.35-2.329,2.691-.038C44,87.267,44.987,89.005,46,90.726a3.6,3.6,0,0,0,.577.629M35.378,8.706A6.281,6.281,0,1,0,41.67,2.424a6.3,6.3,0,0,0-6.292,6.282M8.255,62.014H2.366A38.743,38.743,0,0,0,7.03,79.369L12.148,76.4A33.839,33.839,0,0,1,8.255,62.014m66.806-.02a34.017,34.017,0,0,1-3.885,14.415l5.12,2.951a38.51,38.51,0,0,0,4.639-17.367Zm.024-21.924A39.58,39.58,0,0,0,62.349,27.33l-2.956,5.12a34,34,0,0,1,10.582,10.58l5.111-2.96M60.271,95.4l-2.963-5.123A33.558,33.558,0,0,1,42.915,94.15v5.913A39.122,39.122,0,0,0,60.271,95.4M40.413,21.447a39.275,39.275,0,0,0-17.357,4.684l2.953,5.113a33.906,33.906,0,0,1,14.4-3.889ZM20.97,27.331A39.623,39.623,0,0,0,8.232,40.072l5.121,2.947A34.326,34.326,0,0,1,23.921,32.44L20.97,27.331m2.087,68.058a39.1,39.1,0,0,0,17.349,4.676v-5.91a33.955,33.955,0,0,1-14.4-3.877l-2.949,5.111m34.362-64.33,2.846-4.941a38.984,38.984,0,0,0-17.337-4.657v5.7c2.509.444,4.969.709,7.329,1.345,2.392.643,4.686,1.652,7.162,2.551M70.146,78.617c-1.7,2-3.2,4.019-4.955,5.773s-3.765,3.23-5.7,4.856l2.86,4.946a39.491,39.491,0,0,0,12.7-12.706l-4.907-2.87m-56.785-.1-5.1,2.979a39.552,39.552,0,0,0,12.711,12.69l2.954-5.114A34.138,34.138,0,0,1,13.362,78.514M8.26,59.492a33.964,33.964,0,0,1,3.856-14.345L7.009,42.172a38.7,38.7,0,0,0-4.634,17.32ZM71.195,45.154A34.046,34.046,0,0,1,75.07,59.49h5.744c.583-3.769-2.333-14.6-4.631-17.241l-4.988,2.9m-26.146-28.4a8.98,8.98,0,0,1-6.761,0v2.341h6.761ZM10.724,62.878l3.653-2.119-3.653-2.114Zm61.853-.025V58.662l-3.633,2.1,3.633,2.088M41.655,88.042l-2.077,3.607h4.166l-2.089-3.607m2.082-58.159H39.583l2.079,3.593c.744-1.287,1.382-2.392,2.076-3.593" transform="translate(0 0)" fill="#12263f"/>
    <path id="Trazado_891504" data-name="Trazado 891504" d="M56.811,69.139c-.178.98-.407,1.955-.512,2.942a2.439,2.439,0,0,0,.229,1.456c2.332,3.729,4.734,7.415,7.065,11.145a2.242,2.242,0,0,1,.289,1.559c-.187.742-1.078.854-1.923.318q-4.512-2.87-9.01-5.764a2.7,2.7,0,0,1-.251-.165,5.821,5.821,0,0,0-5.072-1.217c-7.2,1.162-13.139-5.818-11.217-12.938a1.965,1.965,0,0,0-.267-1.759c-2.356-3.636-4.678-7.293-7.02-10.937-.363-.565-.648-1.131-.168-1.74.592-.752,1.249-.531,1.937-.088Q35.6,54.984,40.32,57.99a4.019,4.019,0,0,1,.5.328,4.012,4.012,0,0,0,3.81.8A10.358,10.358,0,0,1,56.811,69.139M46.353,61.317a7.918,7.918,0,1,0,7.965,8.024,7.939,7.939,0,0,0-7.965-8.024m-12.1-4.354-.148.14c1.273,1.99,2.548,3.98,3.78,5.906l2.275-2.26-5.906-3.787M58.486,81.486l.157-.136-3.7-5.779L52.48,77.647c.138.086.22.135.3.188l5.7,3.652" transform="translate(-4.718 -8.473)" fill="#12263f"/>
    <path id="Trazado_891505" data-name="Trazado 891505" d="M55.063,71.526a6.5,6.5,0,1,1-6.37-6.6,6.49,6.49,0,0,1,6.37,6.6m-10.52-.111a4.032,4.032,0,1,0,4.073-4.08,3.9,3.9,0,0,0-4.073,4.08" transform="translate(-6.915 -10.672)" fill="#12263f"/>
  </g>
</svg>
