<svg xmlns="http://www.w3.org/2000/svg" xmlns:xlink="http://www.w3.org/1999/xlink" width="114.518" height="84.84" viewBox="0 0 114.518 84.84">
  <defs>
    <clipPath id="clip-path">
      <rect id="Rectángulo_412183" data-name="Rectángulo 412183" width="114.518" height="84.84" fill="#12263f"/>
    </clipPath>
  </defs>
  <g id="Grupo_1121977" data-name="Grupo 1121977" transform="translate(0 0)">
    <g id="Grupo_1121976" data-name="Grupo 1121976" transform="translate(0 0.001)" clip-path="url(#clip-path)">
      <path id="Trazado_891526" data-name="Trazado 891526" d="M59.72,0a4.922,4.922,0,0,0,.511.206A6.875,6.875,0,0,1,65.492,7c.036,2.458,0,4.916.014,7.374,0,.878-.216,1.66-1.219,1.647S63.094,15.2,63.1,14.335c.015-2.421.02-4.841,0-7.262a4.446,4.446,0,0,0-4.59-4.7c-1.34-.046-2.683-.015-4.025-.015H2.445V49.834c.378.017.771.049,1.165.049q27.174,0,54.347.015a4.861,4.861,0,0,0,4.555-2.258c.447-.715.422-1.165-.453-1.54-2.371-1.014-4.733-1.965-7.4-1.838-1.072.052-2.154-.18-3.232-.188A22.385,22.385,0,0,0,48,44.243a18.953,18.953,0,0,1-12.87-2.578c-1.6-.962-3.01-2.215-2.772-4.351.237-2.12,1.857-3.064,3.628-3.674,1.327-.458,2.745-.646,4.115-.986a35.3,35.3,0,0,0,4.055-1.1c2.4-.915,4.745-2.071,7.359-2.124,1.812-.037,3.629.3,5.446.357,2.04.068,4.084.015,6.293.015,0-.555.008-.949,0-1.341-.046-2.122-.081-4.245-.153-6.367-.034-.981.347-1.646,1.355-1.672a55.431,55.431,0,0,1,7.345.018,9.1,9.1,0,0,1,3.773,1.732,10.74,10.74,0,0,1,2.6,2.593c2.55,3.517,5.877,6.2,9.252,8.834q7.657,5.989,15.324,11.966a22.144,22.144,0,0,0,9.792,4.092,9.685,9.685,0,0,1,1.972.846v.894a1.726,1.726,0,0,1-1.97.651c-3.846-.7-7.553-1.79-10.686-4.241q-10.955-8.57-21.839-17.231a19.271,19.271,0,0,1-2.156-2.55c-1.054-1.2-2.14-2.381-3.21-3.569a5.693,5.693,0,0,0-4.271-1.882c-1.587-.039-3.177-.008-4.778-.008v5.72c.673-.841,1.153-1.43,1.622-2.027.512-.653,1.143-.894,1.828-.35.653.518.536,1.16.055,1.767-.367.464-.726.934-1.188,1.53,1.455.176,2.805.264,4.121.524a18.137,18.137,0,0,1,2.963.949,1.151,1.151,0,0,1,.733,1.706c-.364.72-1.008.77-1.724.43-2.881-1.364-5.969-1.319-9-.99a38.528,38.528,0,0,1-10.351.092,12.707,12.707,0,0,0-7.209.891A30.041,30.041,0,0,1,38.72,35.34,8.944,8.944,0,0,0,35.6,36.456c-1.191.634-1.248,1.488-.247,2.407a13.136,13.136,0,0,0,6.55,2.906,16.2,16.2,0,0,0,6.753-.095c1.3-.282,2.733.117,4.106.119a21.726,21.726,0,0,1,10.86,2.466,2.96,2.96,0,0,1,1.253,1.286A30.845,30.845,0,0,0,80.151,61.754a13.7,13.7,0,0,0,2.08.787c.724.224,1.094.674.944,1.4a1.053,1.053,0,0,1-1.442.855,16.78,16.78,0,0,1-3.7-1.5c-2.389-1.5-4.659-3.2-6.976-4.814-.237-.165-.455-.356-.65-.509-.644,1.709-1.268,3.371-1.9,5.031-.283.747-.762,1.259-1.611.932-.918-.353-.835-1.072-.558-1.86a53.379,53.379,0,0,0,1.686-5.183,3.178,3.178,0,0,0-.5-2.133c-1.062-1.739-2.269-3.39-3.489-5.177-1.9,2.46-4.583,2.769-7.475,2.71-4.284-.088-8.573,0-12.858-.041a1.91,1.91,0,0,0-1.857.9,68.91,68.91,0,0,1-3.947,5.676A20.044,20.044,0,0,1,34.067,62.5a4.656,4.656,0,0,1-6.075-.911,5.122,5.122,0,0,1-.272-6.126,1.521,1.521,0,0,1,1.388-.43,1.967,1.967,0,0,1,.615,1.431c.024.482-.347.97-.438,1.475a2.165,2.165,0,0,0,.915,2.445,2.21,2.21,0,0,0,2.894-.032,45.1,45.1,0,0,0,3.828-4.169c.923-1.152,1.633-2.474,2.561-3.912H2.116C.226,52.27,0,52.045,0,50.156Q0,26.083.029,2.011A7.026,7.026,0,0,1,.671,0H59.72" transform="translate(0 0)" fill="#12263f"/>
      <path id="Trazado_891527" data-name="Trazado 891527" d="M118.825,89.64a1.619,1.619,0,0,1-2.261.265,38.113,38.113,0,0,0-18.7-4.415A37,37,0,0,1,82.715,82.1c-4.542-1.938-8.94-4.219-13.379-6.394a4.985,4.985,0,0,0-5.068.886c-1.334,1.564-2.9,2.8-5.071,2.514a6.274,6.274,0,0,0-3.349.317c-1.39.547-2.613-.242-3.608-1.215a13.8,13.8,0,0,1-3.994-7.95,92.543,92.543,0,0,1-.569-9.331,1.057,1.057,0,0,1,1.193-1.177c.74.033,1.092.536,1.11,1.283.05,2.231,0,4.472.2,6.69a15,15,0,0,0,2.884,7.861c.568.752,1.159,1.8,2.265,1.519a2.378,2.378,0,0,0,1.586-2.463,19.162,19.162,0,0,0-.627-4.457,2.213,2.213,0,0,1,.2-2.08c.132-.178.237-.378.352-.569,1.232-2.052,1.191-2.471-.415-4.265-.124-.139-.253-.275-.388-.4-.626-.591-.878-1.268-.19-1.93.66-.636,1.309-.313,1.846.26a16.11,16.11,0,0,1,1.233,1.439c.368.5.666,1.052,1.157,1.844.881-1.343,1.7-2.562,2.488-3.8.6-.94,1.706-1.053,2.112-.149a1.629,1.629,0,0,1-.048,1.248,11.976,11.976,0,0,1-4.489,5.279A2.969,2.969,0,0,0,58.9,70.389a9.54,9.54,0,0,1-.067,6.275,4.322,4.322,0,0,0,.959.136,3.045,3.045,0,0,0,2.492-4.562c-.2-.359-.589-.686-.611-1.044-.032-.521.026-1.3.351-1.52a1.534,1.534,0,0,1,1.506.246,31.656,31.656,0,0,1,1.914,3.39l1.884-.352c-.7-1.686-1.375-3.242-1.994-4.82a2.2,2.2,0,0,1-.186-1.348,1.241,1.241,0,0,1,.975-.7,1.731,1.731,0,0,1,1.175.819c.8,1.834,1.475,3.725,2.232,5.581a2.084,2.084,0,0,0,.725,1.017c6.622,3.752,13.443,7.069,20.9,8.825,2.19.516,4.461.69,6.794,1.036-.345-2.184-.649-4.077-.938-5.972a2.88,2.88,0,0,1-.086-1.319,2.12,2.12,0,0,1,.975-1.233c.689-.227,1.182.267,1.3,1.012.282,1.837.544,3.679.845,5.512.1.582.292,1.148.454,1.766a41.848,41.848,0,0,1,12.86,2.728c1.486.581,2.928,1.284,4.364,1.985a6.135,6.135,0,0,1,1.1.9Z" transform="translate(-4.307 -5.398)" fill="#12263f"/>
      <path id="Trazado_891528" data-name="Trazado 891528" d="M66.868,22.147c.006,1.529-.316,2.118-1.161,2.132s-1.219-.6-1.218-2.095c0-.369-.12-.821.047-1.091.278-.448.7-1.022,1.142-1.106.691-.131,1.131.428,1.185,1.161.025.331,0,.666,0,1" transform="translate(-5.823 -1.805)" fill="#12263f"/>
      <path id="Trazado_891529" data-name="Trazado 891529" d="M66.854,14.342c0,.406.143.9-.035,1.2-.244.414-.724.941-1.113.948a1.524,1.524,0,0,1-1.122-.9A6.2,6.2,0,0,1,64.51,13.5c.036-.7.381-1.22,1.157-1.218.821,0,1.168.52,1.2,1.287.012.257,0,.517,0,.775h-.019" transform="translate(-5.824 -1.11)" fill="#12263f"/>
      <path id="Trazado_891530" data-name="Trazado 891530" d="M14.618,8.074c-.259,0-.519.018-.777,0A1.167,1.167,0,0,1,12.611,6.9a1.145,1.145,0,0,1,1.2-1.2,12.439,12.439,0,0,1,1.776,0c.7.051,1.212.4,1.22,1.17s-.48,1.123-1.189,1.2a9.621,9.621,0,0,1-1,.006" transform="translate(-1.139 -0.512)" fill="#12263f"/>
      <path id="Trazado_891531" data-name="Trazado 891531" d="M21.992,8.082c-1.509,0-2.1-.337-2.1-1.2s.595-1.2,2.1-1.2c1.486,0,2.122.361,2.123,1.2s-.635,1.2-2.121,1.2" transform="translate(-1.797 -0.514)" fill="#12263f"/>
      <path id="Trazado_891532" data-name="Trazado 891532" d="M29.155,8.075c-.259,0-.519.018-.777,0A1.162,1.162,0,0,1,27.153,6.9a1.141,1.141,0,0,1,1.2-1.2,12.983,12.983,0,0,1,1.775,0,1.133,1.133,0,0,1,1.215,1.171c.009.768-.475,1.124-1.185,1.2a9.6,9.6,0,0,1-1,.006" transform="translate(-2.453 -0.513)" fill="#12263f"/>
      <path id="Trazado_891533" data-name="Trazado 891533" d="M43.715,8.08c-.222,0-.444.005-.665,0-.76-.026-1.325-.351-1.34-1.163-.015-.878.579-1.211,1.384-1.231.48-.011.962-.015,1.441,0,.751.028,1.325.337,1.338,1.163.014.886-.579,1.206-1.383,1.229-.258.008-.518,0-.776,0" transform="translate(-3.768 -0.513)" fill="#12263f"/>
      <path id="Trazado_891534" data-name="Trazado 891534" d="M51.06,8.082c-1.492,0-2.118-.355-2.117-1.2s.629-1.2,2.119-1.2,2.115.355,2.114,1.2-.619,1.2-2.116,1.2" transform="translate(-4.422 -0.514)" fill="#12263f"/>
      <path id="Trazado_891535" data-name="Trazado 891535" d="M58.271,8.07c-.3,0-.673.116-.87-.024-.433-.3-.993-.686-1.1-1.133-.177-.723.4-1.142,1.113-1.211a14.062,14.062,0,0,1,1.662-.016c.759.016,1.334.347,1.351,1.155.019.867-.561,1.221-1.377,1.238-.258.005-.518,0-.776,0Z" transform="translate(-5.083 -0.513)" fill="#12263f"/>
      <path id="Trazado_891536" data-name="Trazado 891536" d="M36.516,8.081c-.148,0-.3,0-.445,0-.861.016-1.637-.184-1.627-1.213s.8-1.2,1.654-1.191c.408.006.816-.013,1.223.008.764.04,1.319.408,1.31,1.208s-.57,1.151-1.336,1.183c-.258.011-.519,0-.778,0" transform="translate(-3.112 -0.513)" fill="#12263f"/>
      <path id="Trazado_891537" data-name="Trazado 891537" d="M67,7.566c-.349.458-.62,1.147-1.073,1.3-.364.124-.95-.4-1.433-.643-.062-.031-.092-.121-.152-.158-.659-.4-1.153-.91-.7-1.723.5-.9,1.4-.744,2.19-.59.86.167,1.008.884,1.164,1.814" transform="translate(-5.734 -0.509)" fill="#12263f"/>
      <path id="Trazado_891538" data-name="Trazado 891538" d="M8.418,51.367c-.258,0-.518.007-.776,0-.73-.027-1.214-.371-1.243-1.128a1.08,1.08,0,0,1,1.164-1.193c.589-.035,1.183-.026,1.773-.011.73.019,1.243.388,1.254,1.126.01.785-.49,1.194-1.285,1.207-.3,0-.591,0-.887,0" transform="translate(-0.578 -4.429)" fill="#12263f"/>
      <path id="Trazado_891539" data-name="Trazado 891539" d="M37.5,51.371c-1.478,0-2.162-.382-2.052-1.225.163-1.254,1.163-1.137,2.05-1.118s1.984-.242,2.15,1.115c.107.882-.544,1.229-2.148,1.228" transform="translate(-3.202 -4.429)" fill="#12263f"/>
      <path id="Trazado_891540" data-name="Trazado 891540" d="M15.714,51.371c-.89,0-1.906.166-2.049-1.125-.1-.869.547-1.222,2.073-1.223,1.561,0,2.114.312,2.1,1.191s-.536,1.159-2.128,1.157" transform="translate(-1.234 -4.43)" fill="#12263f"/>
      <path id="Trazado_891541" data-name="Trazado 891541" d="M23,51.372c-1.508,0-2.106-.342-2.091-1.2s.6-1.154,2.135-1.153c1.515,0,2.112.342,2.092,1.2-.018.84-.6,1.152-2.136,1.152" transform="translate(-1.889 -4.43)" fill="#12263f"/>
      <path id="Trazado_891542" data-name="Trazado 891542" d="M30.33,51.372c-1.59,0-2.119-.288-2.125-1.163s.546-1.187,2.11-1.186c1.529,0,2.159.351,2.063,1.227-.141,1.3-1.166,1.108-2.049,1.122" transform="translate(-2.548 -4.43)" fill="#12263f"/>
      <path id="Trazado_891543" data-name="Trazado 891543" d="M8.043,8.084c-.849.009-1.63-.167-1.637-1.2-.008-.958.7-1.188,1.53-1.2.85-.016,1.6.141,1.712,1.152.09.772-.549,1.242-1.6,1.254" transform="translate(-0.579 -0.513)" fill="#12263f"/>
      <path id="Trazado_891544" data-name="Trazado 891544" d="M66.881,29.241c.015.908-.194,1.622-1.161,1.639-1.048.018-1.223-.753-1.228-1.6s.2-1.63,1.225-1.608,1.2.805,1.163,1.572" transform="translate(-5.827 -2.5)" fill="#12263f"/>
    </g>
  </g>
</svg>
