<svg xmlns="http://www.w3.org/2000/svg" xmlns:xlink="http://www.w3.org/1999/xlink" width="61.253" height="97.92" viewBox="0 0 61.253 97.92">
  <defs>
    <clipPath id="clip-path">
      <rect id="Rectángulo_413602" data-name="Rectángulo 413602" width="61.253" height="97.92" fill="#12263f"/>
    </clipPath>
  </defs>
  <g id="Grupo_1124914" data-name="Grupo 1124914" transform="translate(0 0)">
    <g id="Grupo_1124913" data-name="Grupo 1124913" transform="translate(0 0)" clip-path="url(#clip-path)">
      <path id="Trazado_896039" data-name="Trazado 896039" d="M42.941,10.245q-2.481-.012-4.96-.009H34.928l-4.716,0-6.642-.007q-3.035,0-6.067.028a3.538,3.538,0,0,0-1.305.185,1.008,1.008,0,0,0-.453,1.087c.062.269.206.9,1.466.9,4.6.022,8.945.035,13.091.035,4.509,0,8.708-.013,12.837-.041,1.436-.01,1.432-.821,1.431-1.127,0-.342,0-1.051-1.629-1.058" transform="translate(0.261 0.17)" fill="#12263f"/>
      <path id="Trazado_896040" data-name="Trazado 896040" d="M42.941.012Q40.46,0,37.981,0H34.928l-4.716,0L23.57,0Q20.536,0,17.5.028A3.538,3.538,0,0,0,16.2.213,1.008,1.008,0,0,0,15.744,1.3c.062.269.206.9,1.466.9,4.574.022,8.9.034,13.021.034,4.514,0,8.735-.013,12.907-.04,1.436-.01,1.432-.821,1.431-1.127,0-.342,0-1.051-1.629-1.058" transform="translate(0.261 0)" fill="#12263f"/>
      <path id="Trazado_896041" data-name="Trazado 896041" d="M42.941,20.479q-2.48-.012-4.957-.009H34.928l-4.716,0-6.642-.007q-3.035,0-6.067.028a3.532,3.532,0,0,0-1.305.185,1.008,1.008,0,0,0-.453,1.087c.062.269.206.9,1.466.9,4.622.022,8.987.034,13.15.034,4.509,0,8.688-.013,12.778-.04,1.436-.01,1.432-.821,1.431-1.127,0-.342,0-1.051-1.629-1.058" transform="translate(0.261 0.34)" fill="#12263f"/>
      <path id="Trazado_896042" data-name="Trazado 896042" d="M60.784,67.856a5.779,5.779,0,0,0-5.59-3.817C54.566,64.012,53.9,64,53.054,64c-.451,0-.907,0-1.371.007h-.27c-.013,0-.025,0-.04,0H50.69q-.329,0-.657,0-.3,0-.61,0h-3.1a1.492,1.492,0,0,1-1.492-1.491v-1.9c0-.033-.009-.064-.009-.1l.007-3.238c0-.2,0-.528,0-.948V53.241c0-.01,0-.02,0-.03.005-6.808,0-19.481-.021-21.277-.02-1.44-.228-1.657-1.588-1.663-4.117-.018-8.3-.027-12.6-.027s-8.483.009-12.6.027c-1.288.006-1.567.149-1.587,1.663-.025,1.786-.027,14.454-.023,21.265,0,.014,0,.027,0,.042v3.7c0,.135,0,.254,0,.343,0,1.07.008,2.148.008,3.24,0,.033-.008.063-.009.095V62.52a1.492,1.492,0,0,1-1.491,1.491H11.838c-.206,0-.417,0-.626,0-.238,0-.476,0-.714,0H9.879c-.013,0-.025,0-.039,0H9.666C9.169,64,8.685,64,8.207,64c-.84,0-1.523.012-2.151.039A5.777,5.777,0,0,0,.469,67.856a5.677,5.677,0,0,0,1.419,6.481C5.15,77.4,8.578,80.523,11.6,83.278l.131.119.531.485q1.665,1.519,3.329,3.04l2.3,2.106c2.047,1.881,4.164,3.824,6.272,5.716a9.651,9.651,0,0,0,6.45,2.674,9.669,9.669,0,0,0,6.481-2.674c2.151-1.931,4.34-3.941,6.271-5.716l6.156-5.63.115-.1c3.192-2.91,6.492-5.918,9.73-8.956a5.68,5.68,0,0,0,1.42-6.481m-2.369,4.159c-.223.238-.407.44-.567.618-.408.449-.687.747-1,1.036Q46.512,83.144,36.173,92.6a8.146,8.146,0,0,1-5.484,2.52h-.127a8.15,8.15,0,0,1-5.484-2.52Q14.737,83.144,4.407,73.671c-.34-.311-.655-.653-1-1.035-.164-.183-.347-.383-.568-.619a3.355,3.355,0,0,1,2.229-5.645l.856-.061c.519-.04.922-.069,1.332-.07q1.552,0,3.1,0H16.5c2.058,0,2.138-.081,2.144-2.144.005-2.209,0-4.418,0-6.675V33.6a1,1,0,0,1,1-1H41.613a1,1,0,0,1,1,1v18h0v5.743c0,2.284,0,4.517,0,6.749.006,2.063.086,2.143,2.144,2.144h5.489q1.877,0,3.755.005c.415,0,.816.03,1.339.071l.853.06a3.355,3.355,0,0,1,2.225,5.643" transform="translate(0 0.502)" fill="#12263f"/>
    </g>
  </g>
</svg>
